<?xml version="1.0" encoding="utf-8" standalone="no"?>
<!DOCTYPE svg PUBLIC "-//W3C//DTD SVG 1.1//EN"
  "http://www.w3.org/Graphics/SVG/1.1/DTD/svg11.dtd">
<!-- Created with matplotlib (https://matplotlib.org/) -->
<svg height="294.88991pt" version="1.1" viewBox="0 0 754.7275 294.88991" width="754.7275pt" xmlns="http://www.w3.org/2000/svg" xmlns:xlink="http://www.w3.org/1999/xlink">
 <defs>
  <style type="text/css">
*{stroke-linecap:butt;stroke-linejoin:round;}
  </style>
 </defs>
 <g id="figure_1">
  <g id="patch_1">
   <path d="M 0 294.88991
L 754.7275 294.88991
L 754.7275 0
L 0 0
z
" style="fill:none;"/>
  </g>
  <g id="axes_1">
   <g id="patch_2">
    <path d="M 33.2875 271.011785
L 357.942045 271.011785
L 357.942045 10.083785
L 33.2875 10.083785
z
" style="fill:#ffffff;"/>
   </g>
   <g id="matplotlib.axis_1">
    <g id="xtick_1">
     <g id="line2d_1">
      <defs>
       <path d="M 0 0
L 0 3.5
" id="mbcf2fa06b2" style="stroke:#000000;stroke-width:0.8;"/>
      </defs>
      <g>
       <use style="stroke:#000000;stroke-width:0.8;" x="46.859222" xlink:href="#mbcf2fa06b2" y="271.011785"/>
      </g>
     </g>
     <g id="text_1">
      <!-- 0 -->
      <defs>
       <path d="M 31.78125 66.40625
Q 24.171875 66.40625 20.328125 58.90625
Q 16.5 51.421875 16.5 36.375
Q 16.5 21.390625 20.328125 13.890625
Q 24.171875 6.390625 31.78125 6.390625
Q 39.453125 6.390625 43.28125 13.890625
Q 47.125 21.390625 47.125 36.375
Q 47.125 51.421875 43.28125 58.90625
Q 39.453125 66.40625 31.78125 66.40625
z
M 31.78125 74.21875
Q 44.046875 74.21875 50.515625 64.515625
Q 56.984375 54.828125 56.984375 36.375
Q 56.984375 17.96875 50.515625 8.265625
Q 44.046875 -1.421875 31.78125 -1.421875
Q 19.53125 -1.421875 13.0625 8.265625
Q 6.59375 17.96875 6.59375 36.375
Q 6.59375 54.828125 13.0625 64.515625
Q 19.53125 74.21875 31.78125 74.21875
z
" id="DejaVuSans-48"/>
      </defs>
      <g transform="translate(43.677972 285.610223)scale(0.1 -0.1)">
       <use xlink:href="#DejaVuSans-48"/>
      </g>
     </g>
    </g>
    <g id="xtick_2">
     <g id="line2d_2">
      <g>
       <use style="stroke:#000000;stroke-width:0.8;" x="106.124381" xlink:href="#mbcf2fa06b2" y="271.011785"/>
      </g>
     </g>
     <g id="text_2">
      <!-- 50 -->
      <defs>
       <path d="M 10.796875 72.90625
L 49.515625 72.90625
L 49.515625 64.59375
L 19.828125 64.59375
L 19.828125 46.734375
Q 21.96875 47.46875 24.109375 47.828125
Q 26.265625 48.1875 28.421875 48.1875
Q 40.625 48.1875 47.75 41.5
Q 54.890625 34.8125 54.890625 23.390625
Q 54.890625 11.625 47.5625 5.09375
Q 40.234375 -1.421875 26.90625 -1.421875
Q 22.3125 -1.421875 17.546875 -0.640625
Q 12.796875 0.140625 7.71875 1.703125
L 7.71875 11.625
Q 12.109375 9.234375 16.796875 8.0625
Q 21.484375 6.890625 26.703125 6.890625
Q 35.15625 6.890625 40.078125 11.328125
Q 45.015625 15.765625 45.015625 23.390625
Q 45.015625 31 40.078125 35.4375
Q 35.15625 39.890625 26.703125 39.890625
Q 22.75 39.890625 18.8125 39.015625
Q 14.890625 38.140625 10.796875 36.28125
z
" id="DejaVuSans-53"/>
      </defs>
      <g transform="translate(99.761881 285.610223)scale(0.1 -0.1)">
       <use xlink:href="#DejaVuSans-53"/>
       <use x="63.623047" xlink:href="#DejaVuSans-48"/>
      </g>
     </g>
    </g>
    <g id="xtick_3">
     <g id="line2d_3">
      <g>
       <use style="stroke:#000000;stroke-width:0.8;" x="165.389541" xlink:href="#mbcf2fa06b2" y="271.011785"/>
      </g>
     </g>
     <g id="text_3">
      <!-- 100 -->
      <defs>
       <path d="M 12.40625 8.296875
L 28.515625 8.296875
L 28.515625 63.921875
L 10.984375 60.40625
L 10.984375 69.390625
L 28.421875 72.90625
L 38.28125 72.90625
L 38.28125 8.296875
L 54.390625 8.296875
L 54.390625 0
L 12.40625 0
z
" id="DejaVuSans-49"/>
      </defs>
      <g transform="translate(155.845791 285.610223)scale(0.1 -0.1)">
       <use xlink:href="#DejaVuSans-49"/>
       <use x="63.623047" xlink:href="#DejaVuSans-48"/>
       <use x="127.246094" xlink:href="#DejaVuSans-48"/>
      </g>
     </g>
    </g>
    <g id="xtick_4">
     <g id="line2d_4">
      <g>
       <use style="stroke:#000000;stroke-width:0.8;" x="224.654701" xlink:href="#mbcf2fa06b2" y="271.011785"/>
      </g>
     </g>
     <g id="text_4">
      <!-- 150 -->
      <g transform="translate(215.110951 285.610223)scale(0.1 -0.1)">
       <use xlink:href="#DejaVuSans-49"/>
       <use x="63.623047" xlink:href="#DejaVuSans-53"/>
       <use x="127.246094" xlink:href="#DejaVuSans-48"/>
      </g>
     </g>
    </g>
    <g id="xtick_5">
     <g id="line2d_5">
      <g>
       <use style="stroke:#000000;stroke-width:0.8;" x="283.919861" xlink:href="#mbcf2fa06b2" y="271.011785"/>
      </g>
     </g>
     <g id="text_5">
      <!-- 200 -->
      <defs>
       <path d="M 19.1875 8.296875
L 53.609375 8.296875
L 53.609375 0
L 7.328125 0
L 7.328125 8.296875
Q 12.9375 14.109375 22.625 23.890625
Q 32.328125 33.6875 34.8125 36.53125
Q 39.546875 41.84375 41.421875 45.53125
Q 43.3125 49.21875 43.3125 52.78125
Q 43.3125 58.59375 39.234375 62.25
Q 35.15625 65.921875 28.609375 65.921875
Q 23.96875 65.921875 18.8125 64.3125
Q 13.671875 62.703125 7.8125 59.421875
L 7.8125 69.390625
Q 13.765625 71.78125 18.9375 73
Q 24.125 74.21875 28.421875 74.21875
Q 39.75 74.21875 46.484375 68.546875
Q 53.21875 62.890625 53.21875 53.421875
Q 53.21875 48.921875 51.53125 44.890625
Q 49.859375 40.875 45.40625 35.40625
Q 44.1875 33.984375 37.640625 27.21875
Q 31.109375 20.453125 19.1875 8.296875
z
" id="DejaVuSans-50"/>
      </defs>
      <g transform="translate(274.376111 285.610223)scale(0.1 -0.1)">
       <use xlink:href="#DejaVuSans-50"/>
       <use x="63.623047" xlink:href="#DejaVuSans-48"/>
       <use x="127.246094" xlink:href="#DejaVuSans-48"/>
      </g>
     </g>
    </g>
    <g id="xtick_6">
     <g id="line2d_6">
      <g>
       <use style="stroke:#000000;stroke-width:0.8;" x="343.185021" xlink:href="#mbcf2fa06b2" y="271.011785"/>
      </g>
     </g>
     <g id="text_6">
      <!-- 250 -->
      <g transform="translate(333.641271 285.610223)scale(0.1 -0.1)">
       <use xlink:href="#DejaVuSans-50"/>
       <use x="63.623047" xlink:href="#DejaVuSans-53"/>
       <use x="127.246094" xlink:href="#DejaVuSans-48"/>
      </g>
     </g>
    </g>
   </g>
   <g id="matplotlib.axis_2">
    <g id="ytick_1">
     <g id="line2d_7">
      <defs>
       <path d="M 0 0
L -3.5 0
" id="m380e8c21b5" style="stroke:#000000;stroke-width:0.8;"/>
      </defs>
      <g>
       <use style="stroke:#000000;stroke-width:0.8;" x="33.2875" xlink:href="#m380e8c21b5" y="260.912531"/>
      </g>
     </g>
     <g id="text_7">
      <!-- 0 -->
      <g transform="translate(19.925 264.711749)scale(0.1 -0.1)">
       <use xlink:href="#DejaVuSans-48"/>
      </g>
     </g>
    </g>
    <g id="ytick_2">
     <g id="line2d_8">
      <g>
       <use style="stroke:#000000;stroke-width:0.8;" x="33.2875" xlink:href="#m380e8c21b5" y="231.130816"/>
      </g>
     </g>
     <g id="text_8">
      <!-- 20 -->
      <g transform="translate(13.5625 234.930035)scale(0.1 -0.1)">
       <use xlink:href="#DejaVuSans-50"/>
       <use x="63.623047" xlink:href="#DejaVuSans-48"/>
      </g>
     </g>
    </g>
    <g id="ytick_3">
     <g id="line2d_9">
      <g>
       <use style="stroke:#000000;stroke-width:0.8;" x="33.2875" xlink:href="#m380e8c21b5" y="201.349102"/>
      </g>
     </g>
     <g id="text_9">
      <!-- 40 -->
      <defs>
       <path d="M 37.796875 64.3125
L 12.890625 25.390625
L 37.796875 25.390625
z
M 35.203125 72.90625
L 47.609375 72.90625
L 47.609375 25.390625
L 58.015625 25.390625
L 58.015625 17.1875
L 47.609375 17.1875
L 47.609375 0
L 37.796875 0
L 37.796875 17.1875
L 4.890625 17.1875
L 4.890625 26.703125
z
" id="DejaVuSans-52"/>
      </defs>
      <g transform="translate(13.5625 205.148321)scale(0.1 -0.1)">
       <use xlink:href="#DejaVuSans-52"/>
       <use x="63.623047" xlink:href="#DejaVuSans-48"/>
      </g>
     </g>
    </g>
    <g id="ytick_4">
     <g id="line2d_10">
      <g>
       <use style="stroke:#000000;stroke-width:0.8;" x="33.2875" xlink:href="#m380e8c21b5" y="171.567388"/>
      </g>
     </g>
     <g id="text_10">
      <!-- 60 -->
      <defs>
       <path d="M 33.015625 40.375
Q 26.375 40.375 22.484375 35.828125
Q 18.609375 31.296875 18.609375 23.390625
Q 18.609375 15.53125 22.484375 10.953125
Q 26.375 6.390625 33.015625 6.390625
Q 39.65625 6.390625 43.53125 10.953125
Q 47.40625 15.53125 47.40625 23.390625
Q 47.40625 31.296875 43.53125 35.828125
Q 39.65625 40.375 33.015625 40.375
z
M 52.59375 71.296875
L 52.59375 62.3125
Q 48.875 64.0625 45.09375 64.984375
Q 41.3125 65.921875 37.59375 65.921875
Q 27.828125 65.921875 22.671875 59.328125
Q 17.53125 52.734375 16.796875 39.40625
Q 19.671875 43.65625 24.015625 45.921875
Q 28.375 48.1875 33.59375 48.1875
Q 44.578125 48.1875 50.953125 41.515625
Q 57.328125 34.859375 57.328125 23.390625
Q 57.328125 12.15625 50.6875 5.359375
Q 44.046875 -1.421875 33.015625 -1.421875
Q 20.359375 -1.421875 13.671875 8.265625
Q 6.984375 17.96875 6.984375 36.375
Q 6.984375 53.65625 15.1875 63.9375
Q 23.390625 74.21875 37.203125 74.21875
Q 40.921875 74.21875 44.703125 73.484375
Q 48.484375 72.75 52.59375 71.296875
z
" id="DejaVuSans-54"/>
      </defs>
      <g transform="translate(13.5625 175.366606)scale(0.1 -0.1)">
       <use xlink:href="#DejaVuSans-54"/>
       <use x="63.623047" xlink:href="#DejaVuSans-48"/>
      </g>
     </g>
    </g>
    <g id="ytick_5">
     <g id="line2d_11">
      <g>
       <use style="stroke:#000000;stroke-width:0.8;" x="33.2875" xlink:href="#m380e8c21b5" y="141.785673"/>
      </g>
     </g>
     <g id="text_11">
      <!-- 80 -->
      <defs>
       <path d="M 31.78125 34.625
Q 24.75 34.625 20.71875 30.859375
Q 16.703125 27.09375 16.703125 20.515625
Q 16.703125 13.921875 20.71875 10.15625
Q 24.75 6.390625 31.78125 6.390625
Q 38.8125 6.390625 42.859375 10.171875
Q 46.921875 13.96875 46.921875 20.515625
Q 46.921875 27.09375 42.890625 30.859375
Q 38.875 34.625 31.78125 34.625
z
M 21.921875 38.8125
Q 15.578125 40.375 12.03125 44.71875
Q 8.5 49.078125 8.5 55.328125
Q 8.5 64.0625 14.71875 69.140625
Q 20.953125 74.21875 31.78125 74.21875
Q 42.671875 74.21875 48.875 69.140625
Q 55.078125 64.0625 55.078125 55.328125
Q 55.078125 49.078125 51.53125 44.71875
Q 48 40.375 41.703125 38.8125
Q 48.828125 37.15625 52.796875 32.3125
Q 56.78125 27.484375 56.78125 20.515625
Q 56.78125 9.90625 50.3125 4.234375
Q 43.84375 -1.421875 31.78125 -1.421875
Q 19.734375 -1.421875 13.25 4.234375
Q 6.78125 9.90625 6.78125 20.515625
Q 6.78125 27.484375 10.78125 32.3125
Q 14.796875 37.15625 21.921875 38.8125
z
M 18.3125 54.390625
Q 18.3125 48.734375 21.84375 45.5625
Q 25.390625 42.390625 31.78125 42.390625
Q 38.140625 42.390625 41.71875 45.5625
Q 45.3125 48.734375 45.3125 54.390625
Q 45.3125 60.0625 41.71875 63.234375
Q 38.140625 66.40625 31.78125 66.40625
Q 25.390625 66.40625 21.84375 63.234375
Q 18.3125 60.0625 18.3125 54.390625
z
" id="DejaVuSans-56"/>
      </defs>
      <g transform="translate(13.5625 145.584892)scale(0.1 -0.1)">
       <use xlink:href="#DejaVuSans-56"/>
       <use x="63.623047" xlink:href="#DejaVuSans-48"/>
      </g>
     </g>
    </g>
    <g id="ytick_6">
     <g id="line2d_12">
      <g>
       <use style="stroke:#000000;stroke-width:0.8;" x="33.2875" xlink:href="#m380e8c21b5" y="112.003959"/>
      </g>
     </g>
     <g id="text_12">
      <!-- 100 -->
      <g transform="translate(7.2 115.803178)scale(0.1 -0.1)">
       <use xlink:href="#DejaVuSans-49"/>
       <use x="63.623047" xlink:href="#DejaVuSans-48"/>
       <use x="127.246094" xlink:href="#DejaVuSans-48"/>
      </g>
     </g>
    </g>
    <g id="ytick_7">
     <g id="line2d_13">
      <g>
       <use style="stroke:#000000;stroke-width:0.8;" x="33.2875" xlink:href="#m380e8c21b5" y="82.222245"/>
      </g>
     </g>
     <g id="text_13">
      <!-- 120 -->
      <g transform="translate(7.2 86.021464)scale(0.1 -0.1)">
       <use xlink:href="#DejaVuSans-49"/>
       <use x="63.623047" xlink:href="#DejaVuSans-50"/>
       <use x="127.246094" xlink:href="#DejaVuSans-48"/>
      </g>
     </g>
    </g>
    <g id="ytick_8">
     <g id="line2d_14">
      <g>
       <use style="stroke:#000000;stroke-width:0.8;" x="33.2875" xlink:href="#m380e8c21b5" y="52.44053"/>
      </g>
     </g>
     <g id="text_14">
      <!-- 140 -->
      <g transform="translate(7.2 56.239749)scale(0.1 -0.1)">
       <use xlink:href="#DejaVuSans-49"/>
       <use x="63.623047" xlink:href="#DejaVuSans-52"/>
       <use x="127.246094" xlink:href="#DejaVuSans-48"/>
      </g>
     </g>
    </g>
    <g id="ytick_9">
     <g id="line2d_15">
      <g>
       <use style="stroke:#000000;stroke-width:0.8;" x="33.2875" xlink:href="#m380e8c21b5" y="22.658816"/>
      </g>
     </g>
     <g id="text_15">
      <!-- 160 -->
      <g transform="translate(7.2 26.458035)scale(0.1 -0.1)">
       <use xlink:href="#DejaVuSans-49"/>
       <use x="63.623047" xlink:href="#DejaVuSans-54"/>
       <use x="127.246094" xlink:href="#DejaVuSans-48"/>
      </g>
     </g>
    </g>
   </g>
   <g id="line2d_16">
    <path clip-path="url(#p0c337f3a2d)" d="M 48.044525 115.595991
L 49.229828 115.334389
L 50.415131 117.115916
L 51.600434 123.141769
L 52.785738 125.180923
L 53.971041 119.125839
L 55.156344 126.576822
L 56.341647 127.948568
L 57.52695 124.639164
L 58.712254 127.476066
L 59.897557 132.014486
L 61.08286 133.516542
L 62.268163 131.167688
L 63.453466 133.32856
L 64.63877 141.713438
L 65.824073 138.525692
L 67.009376 131.003487
L 68.194679 140.603235
L 69.379982 139.871156
L 70.565286 139.448702
L 71.750589 142.936513
L 72.935892 142.630357
L 74.121195 144.90985
L 75.306498 146.618233
L 76.491802 145.994172
L 77.677105 150.312952
L 78.862408 152.032072
L 80.047711 150.946142
L 81.233014 152.985534
L 82.418317 153.813138
L 83.603621 161.260294
L 84.788924 159.746504
L 85.974227 157.328646
L 87.15953 158.060397
L 89.530137 165.791477
L 90.71544 157.100369
L 91.900743 166.197923
L 93.086046 166.546876
L 94.271349 171.540063
L 95.456653 167.584366
L 96.641956 162.920773
L 97.827259 172.843475
L 99.012562 176.586336
L 100.197865 169.753905
L 101.383169 179.924286
L 102.568472 167.19777
L 103.753775 176.553681
L 104.939078 175.835673
L 106.124381 174.103464
L 107.309685 173.179412
L 108.494988 173.798455
L 109.680291 178.672039
L 110.865594 174.093249
L 112.050897 175.390809
L 113.236201 183.935629
L 114.421504 186.560515
L 115.606807 180.937311
L 116.79211 178.421471
L 117.977413 182.144229
L 119.162717 183.008793
L 120.34802 180.520962
L 121.533323 181.184529
L 122.718626 176.852957
L 123.903929 184.488542
L 125.089233 181.817122
L 126.274536 181.564648
L 127.459839 186.747798
L 128.645142 179.466034
L 129.830445 176.903869
L 131.015749 179.617951
L 132.201052 179.928306
L 133.386355 171.338753
L 134.571658 171.883476
L 135.756961 170.822919
L 136.942265 163.468474
L 138.127568 170.525013
L 139.312871 166.029999
L 140.498174 159.995122
L 141.683477 164.554777
L 142.86878 155.51217
L 144.054084 156.100984
L 145.239387 145.919986
L 146.42469 142.490532
L 147.609993 141.590946
L 148.795296 133.330302
L 149.9806 134.032793
L 151.165903 126.529275
L 152.351206 121.505026
L 153.536509 118.161194
L 154.721812 121.727808
L 155.907116 103.346861
L 157.092419 100.349034
L 158.277722 91.066372
L 159.463025 88.920301
L 160.648328 84.439493
L 161.833632 82.791522
L 163.018935 78.955191
L 164.204238 71.813089
L 165.389541 73.733712
L 166.574844 76.646065
L 167.760148 66.357079
L 168.945451 67.753097
L 170.130754 64.615295
L 172.50136 64.35411
L 173.686664 64.171399
L 174.871967 62.206848
L 176.05727 61.635337
L 177.242573 61.867188
L 178.427876 69.885021
L 180.798483 75.141642
L 181.983786 84.602399
L 183.169089 79.194338
L 184.354392 89.361071
L 185.539696 84.03059
L 186.724999 96.013114
L 187.910302 96.814838
L 189.095605 104.301068
L 190.280908 106.870783
L 191.466212 120.130198
L 192.651515 120.335006
L 193.836818 120.07534
L 195.022121 128.732274
L 196.207424 130.934006
L 197.392728 123.165505
L 198.578031 132.43426
L 199.763334 138.147733
L 202.13394 144.21872
L 203.319244 143.65735
L 204.504547 147.551622
L 205.68985 143.07957
L 206.875153 146.609388
L 208.060456 145.348028
L 209.245759 145.111799
L 210.431063 139.876368
L 211.616366 142.168264
L 212.801669 138.83782
L 213.986972 141.741716
L 215.172275 132.922159
L 216.357579 132.898244
L 217.542882 141.86327
L 218.728185 131.108586
L 219.913488 126.135502
L 221.098791 122.079515
L 222.284095 128.163473
L 223.469398 122.256433
L 224.654701 126.383509
L 225.840004 121.393821
L 227.025307 118.343652
L 228.210611 124.138444
L 229.395914 116.850888
L 230.581217 130.453791
L 231.76652 126.194767
L 234.137127 133.287863
L 235.32243 134.319978
L 236.507733 143.974034
L 237.693036 139.788095
L 238.878339 148.943783
L 240.063643 152.71385
L 241.248946 156.892388
L 242.434249 162.19395
L 243.619552 166.228986
L 244.804855 174.041548
L 245.990159 175.278696
L 247.175462 182.281389
L 248.360765 185.277117
L 249.546068 190.873533
L 250.731371 191.713377
L 251.916675 196.747589
L 253.101978 210.11191
L 254.287281 202.417744
L 255.472584 212.243462
L 256.657887 215.583928
L 257.843191 213.277691
L 259.028494 225.720521
L 260.213797 225.626515
L 261.3991 230.731563
L 262.584403 232.514564
L 264.95501 236.956343
L 266.140313 232.705271
L 267.325616 233.195374
L 268.510919 235.213889
L 269.696222 236.159682
L 270.881526 240.83419
L 272.066829 238.015649
L 273.252132 240.851449
L 274.437435 237.143923
L 275.622738 242.558849
L 276.808042 236.582657
L 277.993345 245.368962
L 279.178648 246.574549
L 280.363951 241.371735
L 281.549254 247.84965
L 282.734558 243.398753
L 283.919861 242.224207
L 285.105164 244.039581
L 286.290467 244.227429
L 287.47577 249.272473
L 288.661074 250.785743
L 289.846377 239.669517
L 291.03168 245.034633
L 292.216983 247.642433
L 293.402286 243.687785
L 295.772893 243.65297
L 296.958196 246.423527
L 298.143499 243.873861
L 299.328802 244.191408
L 300.514106 245.765357
L 301.699409 242.285483
L 302.884712 251.677976
L 304.070015 247.481566
L 305.255318 244.821366
L 306.440622 241.411092
L 307.625925 255.083846
L 308.811228 246.665128
L 309.996531 248.942592
L 311.181834 245.677635
L 312.367138 246.963654
L 314.737744 251.801448
L 315.923047 247.818692
L 317.10835 249.302588
L 318.293654 242.372445
L 319.478957 245.104382
L 320.66426 251.976523
L 321.849563 250.83872
L 323.034866 247.861211
L 324.22017 254.082961
L 325.405473 248.417935
L 326.590776 250.177411
L 327.776079 246.00367
L 328.961382 250.001313
L 330.146686 251.196044
L 331.331989 256.68343
L 332.517292 245.539641
L 333.702595 253.779758
L 334.887898 248.439307
L 336.073201 251.584927
L 337.258505 256.883225
L 338.443808 248.460633
L 339.629111 247.535319
L 340.814414 255.905526
L 341.999717 259.151422
L 343.185021 253.652773
L 343.185021 253.652773
" style="fill:none;stroke:#0000ff;stroke-linecap:square;stroke-width:1.5;"/>
   </g>
   <g id="line2d_17">
    <path clip-path="url(#p0c337f3a2d)" d="M 48.044525 21.944149
L 52.785738 31.978161
L 57.52695 41.590855
L 62.268163 50.799924
L 68.194679 61.769408
L 74.121195 72.166182
L 80.047711 82.020061
L 85.974227 91.358974
L 91.900743 100.208029
L 97.827259 108.586077
L 102.568472 114.952001
L 107.309685 121.002236
L 112.050897 126.687088
L 115.606807 130.648561
L 119.162717 134.266453
L 121.533323 136.431853
L 123.903929 138.348889
L 126.274536 139.96412
L 128.645142 141.216485
L 131.015749 142.039385
L 132.201052 142.26829
L 133.386355 142.364182
L 134.571658 142.318985
L 135.756961 142.1252
L 136.942265 141.77614
L 138.127568 141.266177
L 139.312871 140.590997
L 140.498174 139.747863
L 141.683477 138.735875
L 142.86878 137.556215
L 145.239387 134.710372
L 147.609993 131.269422
L 149.9806 127.336847
L 153.536509 120.853826
L 158.277722 112.212655
L 160.648328 108.44169
L 161.833632 106.804504
L 163.018935 105.373058
L 164.204238 104.175182
L 165.389541 103.236127
L 166.574844 102.577995
L 167.760148 102.219239
L 168.945451 102.1742
L 170.130754 102.452747
L 171.316057 103.059984
L 172.50136 103.996065
L 173.686664 105.256105
L 174.871967 106.830195
L 176.05727 108.70352
L 177.242573 110.856578
L 179.61318 115.902388
L 181.983786 121.731682
L 185.539696 131.316717
L 189.095605 140.966036
L 191.466212 146.913272
L 193.836818 152.142753
L 195.022121 154.41347
L 196.207424 156.421752
L 197.392728 158.147647
L 198.578031 159.575392
L 199.763334 160.693616
L 200.948637 161.495469
L 202.13394 161.978709
L 203.319244 162.145727
L 204.504547 162.003519
L 205.68985 161.563605
L 206.875153 160.841894
L 208.060456 159.858489
L 209.245759 158.63744
L 210.431063 157.20644
L 212.801669 153.841372
L 216.357579 148.076782
L 219.913488 142.393825
L 222.284095 139.177548
L 223.469398 137.851096
L 224.654701 136.755462
L 225.840004 135.918659
L 227.025307 135.364718
L 228.210611 135.113294
L 229.395914 135.179353
L 230.581217 135.572958
L 231.76652 136.299146
L 232.951823 137.357917
L 234.137127 138.744319
L 235.32243 140.448641
L 236.507733 142.456691
L 237.693036 144.750178
L 240.063643 150.102514
L 242.434249 156.295747
L 245.990159 166.630133
L 253.101978 188.021036
L 255.472584 194.598913
L 257.843191 200.656027
L 260.213797 206.112798
L 262.584403 210.932187
L 264.95501 215.113958
L 267.325616 218.687167
L 269.696222 221.701969
L 272.066829 224.221629
L 274.437435 226.315453
L 276.808042 228.053033
L 279.178648 229.500007
L 281.549254 230.715288
L 285.105164 232.21239
L 288.661074 233.435531
L 293.402286 234.8007
L 299.328802 236.2651
L 307.625925 238.082608
L 318.293654 240.188666
L 330.146686 242.296426
L 341.999717 244.189503
L 343.185021 244.367882
L 343.185021 244.367882
" style="fill:none;stroke:#000000;stroke-dasharray:5.55,2.4;stroke-dashoffset:0;stroke-width:1.5;"/>
   </g>
   <g id="line2d_18">
    <path clip-path="url(#p0c337f3a2d)" d="M 48.044525 115.078042
L 53.971041 122.878863
L 59.897557 130.262404
L 65.824073 137.250959
L 71.750589 143.865529
L 77.677105 150.125592
L 83.603621 156.048129
L 89.530137 161.644437
L 95.456653 166.911248
L 100.197865 170.863135
L 104.939078 174.525823
L 108.494988 177.018784
L 112.050897 179.208581
L 114.421504 180.443627
L 116.79211 181.446035
L 119.162717 182.158965
L 121.533323 182.51474
L 122.718626 182.534639
L 123.903929 182.435155
L 125.089233 182.205081
L 126.274536 181.832783
L 127.459839 181.306313
L 128.645142 180.613544
L 129.830445 179.742333
L 131.015749 178.680707
L 132.201052 177.417073
L 133.386355 175.94045
L 134.571658 174.240723
L 135.756961 172.308913
L 136.942265 170.137459
L 139.312871 165.054235
L 141.683477 158.970101
L 144.054084 151.905273
L 146.42469 143.929043
L 148.795296 135.165519
L 152.351206 120.956569
L 158.277722 96.668233
L 160.648328 87.693191
L 163.018935 79.671453
L 164.204238 76.125586
L 165.389541 72.943092
L 166.574844 70.160302
L 167.760148 67.809791
L 168.945451 65.919759
L 170.130754 64.513468
L 171.316057 63.608745
L 172.50136 63.217572
L 173.686664 63.345753
L 174.871967 63.992685
L 176.05727 65.151228
L 177.242573 66.807682
L 178.427876 68.941862
L 179.61318 71.527287
L 180.798483 74.531469
L 181.983786 77.916293
L 184.354392 85.650251
L 186.724999 94.332
L 193.836818 121.476172
L 196.207424 129.342042
L 197.392728 132.817523
L 198.578031 135.932056
L 199.763334 138.651093
L 200.948637 140.946874
L 202.13394 142.799023
L 203.319244 144.195042
L 204.504547 145.130691
L 205.68985 145.610226
L 206.875153 145.646501
L 208.060456 145.260902
L 209.245759 144.483111
L 210.431063 143.350705
L 211.616366 141.90857
L 212.801669 140.208145
L 215.172275 136.265253
L 219.913488 128.026015
L 221.098791 126.281116
L 222.284095 124.788826
L 223.469398 123.60521
L 224.654701 122.780152
L 225.840004 122.356293
L 227.025307 122.368134
L 228.210611 122.841366
L 229.395914 123.792414
L 230.581217 125.22823
L 231.76652 127.14633
L 232.951823 129.535071
L 234.137127 132.374161
L 235.32243 135.635376
L 237.693036 143.277153
L 240.063643 152.113554
L 243.619552 166.718543
L 248.360765 186.558612
L 250.731371 195.837424
L 253.101978 204.343257
L 255.472584 211.920304
L 257.843191 218.493238
L 260.213797 224.056903
L 262.584403 228.66161
L 264.95501 232.396654
L 267.325616 235.374253
L 269.696222 237.715561
L 272.066829 239.539689
L 274.437435 240.956055
L 276.808042 242.059876
L 279.178648 242.930303
L 282.734558 243.932523
L 287.47577 244.925578
L 293.402286 245.893937
L 302.884712 247.193051
L 315.923047 248.758991
L 331.331989 250.377768
L 343.185021 251.474654
L 343.185021 251.474654
" style="fill:none;stroke:#ff0000;stroke-linecap:square;stroke-width:1.5;"/>
   </g>
   <g id="patch_3">
    <path d="M 33.2875 271.011785
L 33.2875 10.083785
" style="fill:none;stroke:#000000;stroke-linecap:square;stroke-linejoin:miter;stroke-width:0.8;"/>
   </g>
   <g id="patch_4">
    <path d="M 357.942045 271.011785
L 357.942045 10.083785
" style="fill:none;stroke:#000000;stroke-linecap:square;stroke-linejoin:miter;stroke-width:0.8;"/>
   </g>
   <g id="patch_5">
    <path d="M 33.2875 271.011785
L 357.942045 271.011785
" style="fill:none;stroke:#000000;stroke-linecap:square;stroke-linejoin:miter;stroke-width:0.8;"/>
   </g>
   <g id="patch_6">
    <path d="M 33.2875 10.083785
L 357.942045 10.083785
" style="fill:none;stroke:#000000;stroke-linecap:square;stroke-linejoin:miter;stroke-width:0.8;"/>
   </g>
   <g id="legend_1">
    <g id="patch_7">
     <path d="M 278.046733 47.440035
L 350.942045 47.440035
Q 352.942045 47.440035 352.942045 45.440035
L 352.942045 17.083785
Q 352.942045 15.083785 350.942045 15.083785
L 278.046733 15.083785
Q 276.046733 15.083785 276.046733 17.083785
L 276.046733 45.440035
Q 276.046733 47.440035 278.046733 47.440035
z
" style="fill:#ffffff;opacity:0.8;stroke:#cccccc;stroke-linejoin:miter;"/>
    </g>
    <g id="line2d_19">
     <path d="M 280.046733 23.182223
L 300.046733 23.182223
" style="fill:none;stroke:#000000;stroke-dasharray:5.55,2.4;stroke-dashoffset:0;stroke-width:1.5;"/>
    </g>
    <g id="line2d_20"/>
    <g id="text_16">
     <!-- initial fit -->
     <defs>
      <path d="M 9.421875 54.6875
L 18.40625 54.6875
L 18.40625 0
L 9.421875 0
z
M 9.421875 75.984375
L 18.40625 75.984375
L 18.40625 64.59375
L 9.421875 64.59375
z
" id="DejaVuSans-105"/>
      <path d="M 54.890625 33.015625
L 54.890625 0
L 45.90625 0
L 45.90625 32.71875
Q 45.90625 40.484375 42.875 44.328125
Q 39.84375 48.1875 33.796875 48.1875
Q 26.515625 48.1875 22.3125 43.546875
Q 18.109375 38.921875 18.109375 30.90625
L 18.109375 0
L 9.078125 0
L 9.078125 54.6875
L 18.109375 54.6875
L 18.109375 46.1875
Q 21.34375 51.125 25.703125 53.5625
Q 30.078125 56 35.796875 56
Q 45.21875 56 50.046875 50.171875
Q 54.890625 44.34375 54.890625 33.015625
z
" id="DejaVuSans-110"/>
      <path d="M 18.3125 70.21875
L 18.3125 54.6875
L 36.8125 54.6875
L 36.8125 47.703125
L 18.3125 47.703125
L 18.3125 18.015625
Q 18.3125 11.328125 20.140625 9.421875
Q 21.96875 7.515625 27.59375 7.515625
L 36.8125 7.515625
L 36.8125 0
L 27.59375 0
Q 17.1875 0 13.234375 3.875
Q 9.28125 7.765625 9.28125 18.015625
L 9.28125 47.703125
L 2.6875 47.703125
L 2.6875 54.6875
L 9.28125 54.6875
L 9.28125 70.21875
z
" id="DejaVuSans-116"/>
      <path d="M 34.28125 27.484375
Q 23.390625 27.484375 19.1875 25
Q 14.984375 22.515625 14.984375 16.5
Q 14.984375 11.71875 18.140625 8.90625
Q 21.296875 6.109375 26.703125 6.109375
Q 34.1875 6.109375 38.703125 11.40625
Q 43.21875 16.703125 43.21875 25.484375
L 43.21875 27.484375
z
M 52.203125 31.203125
L 52.203125 0
L 43.21875 0
L 43.21875 8.296875
Q 40.140625 3.328125 35.546875 0.953125
Q 30.953125 -1.421875 24.3125 -1.421875
Q 15.921875 -1.421875 10.953125 3.296875
Q 6 8.015625 6 15.921875
Q 6 25.140625 12.171875 29.828125
Q 18.359375 34.515625 30.609375 34.515625
L 43.21875 34.515625
L 43.21875 35.40625
Q 43.21875 41.609375 39.140625 45
Q 35.0625 48.390625 27.6875 48.390625
Q 23 48.390625 18.546875 47.265625
Q 14.109375 46.140625 10.015625 43.890625
L 10.015625 52.203125
Q 14.9375 54.109375 19.578125 55.046875
Q 24.21875 56 28.609375 56
Q 40.484375 56 46.34375 49.84375
Q 52.203125 43.703125 52.203125 31.203125
z
" id="DejaVuSans-97"/>
      <path d="M 9.421875 75.984375
L 18.40625 75.984375
L 18.40625 0
L 9.421875 0
z
" id="DejaVuSans-108"/>
      <path id="DejaVuSans-32"/>
      <path d="M 37.109375 75.984375
L 37.109375 68.5
L 28.515625 68.5
Q 23.6875 68.5 21.796875 66.546875
Q 19.921875 64.59375 19.921875 59.515625
L 19.921875 54.6875
L 34.71875 54.6875
L 34.71875 47.703125
L 19.921875 47.703125
L 19.921875 0
L 10.890625 0
L 10.890625 47.703125
L 2.296875 47.703125
L 2.296875 54.6875
L 10.890625 54.6875
L 10.890625 58.5
Q 10.890625 67.625 15.140625 71.796875
Q 19.390625 75.984375 28.609375 75.984375
z
" id="DejaVuSans-102"/>
     </defs>
     <g transform="translate(308.046733 26.682223)scale(0.1 -0.1)">
      <use xlink:href="#DejaVuSans-105"/>
      <use x="27.783203" xlink:href="#DejaVuSans-110"/>
      <use x="91.162109" xlink:href="#DejaVuSans-105"/>
      <use x="118.945312" xlink:href="#DejaVuSans-116"/>
      <use x="158.154297" xlink:href="#DejaVuSans-105"/>
      <use x="185.9375" xlink:href="#DejaVuSans-97"/>
      <use x="247.216797" xlink:href="#DejaVuSans-108"/>
      <use x="275" xlink:href="#DejaVuSans-32"/>
      <use x="306.787109" xlink:href="#DejaVuSans-102"/>
      <use x="341.992188" xlink:href="#DejaVuSans-105"/>
      <use x="369.775391" xlink:href="#DejaVuSans-116"/>
     </g>
    </g>
    <g id="line2d_21">
     <path d="M 280.046733 37.860348
L 300.046733 37.860348
" style="fill:none;stroke:#ff0000;stroke-linecap:square;stroke-width:1.5;"/>
    </g>
    <g id="line2d_22"/>
    <g id="text_17">
     <!-- best fit -->
     <defs>
      <path d="M 48.6875 27.296875
Q 48.6875 37.203125 44.609375 42.84375
Q 40.53125 48.484375 33.40625 48.484375
Q 26.265625 48.484375 22.1875 42.84375
Q 18.109375 37.203125 18.109375 27.296875
Q 18.109375 17.390625 22.1875 11.75
Q 26.265625 6.109375 33.40625 6.109375
Q 40.53125 6.109375 44.609375 11.75
Q 48.6875 17.390625 48.6875 27.296875
z
M 18.109375 46.390625
Q 20.953125 51.265625 25.265625 53.625
Q 29.59375 56 35.59375 56
Q 45.5625 56 51.78125 48.09375
Q 58.015625 40.1875 58.015625 27.296875
Q 58.015625 14.40625 51.78125 6.484375
Q 45.5625 -1.421875 35.59375 -1.421875
Q 29.59375 -1.421875 25.265625 0.953125
Q 20.953125 3.328125 18.109375 8.203125
L 18.109375 0
L 9.078125 0
L 9.078125 75.984375
L 18.109375 75.984375
z
" id="DejaVuSans-98"/>
      <path d="M 56.203125 29.59375
L 56.203125 25.203125
L 14.890625 25.203125
Q 15.484375 15.921875 20.484375 11.0625
Q 25.484375 6.203125 34.421875 6.203125
Q 39.59375 6.203125 44.453125 7.46875
Q 49.3125 8.734375 54.109375 11.28125
L 54.109375 2.78125
Q 49.265625 0.734375 44.1875 -0.34375
Q 39.109375 -1.421875 33.890625 -1.421875
Q 20.796875 -1.421875 13.15625 6.1875
Q 5.515625 13.8125 5.515625 26.8125
Q 5.515625 40.234375 12.765625 48.109375
Q 20.015625 56 32.328125 56
Q 43.359375 56 49.78125 48.890625
Q 56.203125 41.796875 56.203125 29.59375
z
M 47.21875 32.234375
Q 47.125 39.59375 43.09375 43.984375
Q 39.0625 48.390625 32.421875 48.390625
Q 24.90625 48.390625 20.390625 44.140625
Q 15.875 39.890625 15.1875 32.171875
z
" id="DejaVuSans-101"/>
      <path d="M 44.28125 53.078125
L 44.28125 44.578125
Q 40.484375 46.53125 36.375 47.5
Q 32.28125 48.484375 27.875 48.484375
Q 21.1875 48.484375 17.84375 46.4375
Q 14.5 44.390625 14.5 40.28125
Q 14.5 37.15625 16.890625 35.375
Q 19.28125 33.59375 26.515625 31.984375
L 29.59375 31.296875
Q 39.15625 29.25 43.1875 25.515625
Q 47.21875 21.78125 47.21875 15.09375
Q 47.21875 7.46875 41.1875 3.015625
Q 35.15625 -1.421875 24.609375 -1.421875
Q 20.21875 -1.421875 15.453125 -0.5625
Q 10.6875 0.296875 5.421875 2
L 5.421875 11.28125
Q 10.40625 8.6875 15.234375 7.390625
Q 20.0625 6.109375 24.8125 6.109375
Q 31.15625 6.109375 34.5625 8.28125
Q 37.984375 10.453125 37.984375 14.40625
Q 37.984375 18.0625 35.515625 20.015625
Q 33.0625 21.96875 24.703125 23.78125
L 21.578125 24.515625
Q 13.234375 26.265625 9.515625 29.90625
Q 5.8125 33.546875 5.8125 39.890625
Q 5.8125 47.609375 11.28125 51.796875
Q 16.75 56 26.8125 56
Q 31.78125 56 36.171875 55.265625
Q 40.578125 54.546875 44.28125 53.078125
z
" id="DejaVuSans-115"/>
     </defs>
     <g transform="translate(308.046733 41.360348)scale(0.1 -0.1)">
      <use xlink:href="#DejaVuSans-98"/>
      <use x="63.476562" xlink:href="#DejaVuSans-101"/>
      <use x="125" xlink:href="#DejaVuSans-115"/>
      <use x="177.099609" xlink:href="#DejaVuSans-116"/>
      <use x="216.308594" xlink:href="#DejaVuSans-32"/>
      <use x="248.095703" xlink:href="#DejaVuSans-102"/>
      <use x="283.300781" xlink:href="#DejaVuSans-105"/>
      <use x="311.083984" xlink:href="#DejaVuSans-116"/>
     </g>
    </g>
   </g>
  </g>
  <g id="axes_2">
   <g id="patch_8">
    <path d="M 422.872955 271.011785
L 747.5275 271.011785
L 747.5275 10.083785
L 422.872955 10.083785
z
" style="fill:#ffffff;"/>
   </g>
   <g id="matplotlib.axis_3">
    <g id="xtick_7">
     <g id="line2d_23">
      <g>
       <use style="stroke:#000000;stroke-width:0.8;" x="436.444676" xlink:href="#mbcf2fa06b2" y="271.011785"/>
      </g>
     </g>
     <g id="text_18">
      <!-- 0 -->
      <g transform="translate(433.263426 285.610223)scale(0.1 -0.1)">
       <use xlink:href="#DejaVuSans-48"/>
      </g>
     </g>
    </g>
    <g id="xtick_8">
     <g id="line2d_24">
      <g>
       <use style="stroke:#000000;stroke-width:0.8;" x="495.709836" xlink:href="#mbcf2fa06b2" y="271.011785"/>
      </g>
     </g>
     <g id="text_19">
      <!-- 50 -->
      <g transform="translate(489.347336 285.610223)scale(0.1 -0.1)">
       <use xlink:href="#DejaVuSans-53"/>
       <use x="63.623047" xlink:href="#DejaVuSans-48"/>
      </g>
     </g>
    </g>
    <g id="xtick_9">
     <g id="line2d_25">
      <g>
       <use style="stroke:#000000;stroke-width:0.8;" x="554.974996" xlink:href="#mbcf2fa06b2" y="271.011785"/>
      </g>
     </g>
     <g id="text_20">
      <!-- 100 -->
      <g transform="translate(545.431246 285.610223)scale(0.1 -0.1)">
       <use xlink:href="#DejaVuSans-49"/>
       <use x="63.623047" xlink:href="#DejaVuSans-48"/>
       <use x="127.246094" xlink:href="#DejaVuSans-48"/>
      </g>
     </g>
    </g>
    <g id="xtick_10">
     <g id="line2d_26">
      <g>
       <use style="stroke:#000000;stroke-width:0.8;" x="614.240156" xlink:href="#mbcf2fa06b2" y="271.011785"/>
      </g>
     </g>
     <g id="text_21">
      <!-- 150 -->
      <g transform="translate(604.696406 285.610223)scale(0.1 -0.1)">
       <use xlink:href="#DejaVuSans-49"/>
       <use x="63.623047" xlink:href="#DejaVuSans-53"/>
       <use x="127.246094" xlink:href="#DejaVuSans-48"/>
      </g>
     </g>
    </g>
    <g id="xtick_11">
     <g id="line2d_27">
      <g>
       <use style="stroke:#000000;stroke-width:0.8;" x="673.505315" xlink:href="#mbcf2fa06b2" y="271.011785"/>
      </g>
     </g>
     <g id="text_22">
      <!-- 200 -->
      <g transform="translate(663.961565 285.610223)scale(0.1 -0.1)">
       <use xlink:href="#DejaVuSans-50"/>
       <use x="63.623047" xlink:href="#DejaVuSans-48"/>
       <use x="127.246094" xlink:href="#DejaVuSans-48"/>
      </g>
     </g>
    </g>
    <g id="xtick_12">
     <g id="line2d_28">
      <g>
       <use style="stroke:#000000;stroke-width:0.8;" x="732.770475" xlink:href="#mbcf2fa06b2" y="271.011785"/>
      </g>
     </g>
     <g id="text_23">
      <!-- 250 -->
      <g transform="translate(723.226725 285.610223)scale(0.1 -0.1)">
       <use xlink:href="#DejaVuSans-50"/>
       <use x="63.623047" xlink:href="#DejaVuSans-53"/>
       <use x="127.246094" xlink:href="#DejaVuSans-48"/>
      </g>
     </g>
    </g>
   </g>
   <g id="matplotlib.axis_4">
    <g id="ytick_10">
     <g id="line2d_29">
      <g>
       <use style="stroke:#000000;stroke-width:0.8;" x="422.872955" xlink:href="#m380e8c21b5" y="259.151422"/>
      </g>
     </g>
     <g id="text_24">
      <!-- 0 -->
      <g transform="translate(409.510455 262.95064)scale(0.1 -0.1)">
       <use xlink:href="#DejaVuSans-48"/>
      </g>
     </g>
    </g>
    <g id="ytick_11">
     <g id="line2d_30">
      <g>
       <use style="stroke:#000000;stroke-width:0.8;" x="422.872955" xlink:href="#m380e8c21b5" y="223.701107"/>
      </g>
     </g>
     <g id="text_25">
      <!-- 20 -->
      <g transform="translate(403.147955 227.500326)scale(0.1 -0.1)">
       <use xlink:href="#DejaVuSans-50"/>
       <use x="63.623047" xlink:href="#DejaVuSans-48"/>
      </g>
     </g>
    </g>
    <g id="ytick_12">
     <g id="line2d_31">
      <g>
       <use style="stroke:#000000;stroke-width:0.8;" x="422.872955" xlink:href="#m380e8c21b5" y="188.250792"/>
      </g>
     </g>
     <g id="text_26">
      <!-- 40 -->
      <g transform="translate(403.147955 192.050011)scale(0.1 -0.1)">
       <use xlink:href="#DejaVuSans-52"/>
       <use x="63.623047" xlink:href="#DejaVuSans-48"/>
      </g>
     </g>
    </g>
    <g id="ytick_13">
     <g id="line2d_32">
      <g>
       <use style="stroke:#000000;stroke-width:0.8;" x="422.872955" xlink:href="#m380e8c21b5" y="152.800478"/>
      </g>
     </g>
     <g id="text_27">
      <!-- 60 -->
      <g transform="translate(403.147955 156.599696)scale(0.1 -0.1)">
       <use xlink:href="#DejaVuSans-54"/>
       <use x="63.623047" xlink:href="#DejaVuSans-48"/>
      </g>
     </g>
    </g>
    <g id="ytick_14">
     <g id="line2d_33">
      <g>
       <use style="stroke:#000000;stroke-width:0.8;" x="422.872955" xlink:href="#m380e8c21b5" y="117.350163"/>
      </g>
     </g>
     <g id="text_28">
      <!-- 80 -->
      <g transform="translate(403.147955 121.149382)scale(0.1 -0.1)">
       <use xlink:href="#DejaVuSans-56"/>
       <use x="63.623047" xlink:href="#DejaVuSans-48"/>
      </g>
     </g>
    </g>
    <g id="ytick_15">
     <g id="line2d_34">
      <g>
       <use style="stroke:#000000;stroke-width:0.8;" x="422.872955" xlink:href="#m380e8c21b5" y="81.899848"/>
      </g>
     </g>
     <g id="text_29">
      <!-- 100 -->
      <g transform="translate(396.785455 85.699067)scale(0.1 -0.1)">
       <use xlink:href="#DejaVuSans-49"/>
       <use x="63.623047" xlink:href="#DejaVuSans-48"/>
       <use x="127.246094" xlink:href="#DejaVuSans-48"/>
      </g>
     </g>
    </g>
    <g id="ytick_16">
     <g id="line2d_35">
      <g>
       <use style="stroke:#000000;stroke-width:0.8;" x="422.872955" xlink:href="#m380e8c21b5" y="46.449533"/>
      </g>
     </g>
     <g id="text_30">
      <!-- 120 -->
      <g transform="translate(396.785455 50.248752)scale(0.1 -0.1)">
       <use xlink:href="#DejaVuSans-49"/>
       <use x="63.623047" xlink:href="#DejaVuSans-50"/>
       <use x="127.246094" xlink:href="#DejaVuSans-48"/>
      </g>
     </g>
    </g>
    <g id="ytick_17">
     <g id="line2d_36">
      <g>
       <use style="stroke:#000000;stroke-width:0.8;" x="422.872955" xlink:href="#m380e8c21b5" y="10.999219"/>
      </g>
     </g>
     <g id="text_31">
      <!-- 140 -->
      <g transform="translate(396.785455 14.798437)scale(0.1 -0.1)">
       <use xlink:href="#DejaVuSans-49"/>
       <use x="63.623047" xlink:href="#DejaVuSans-52"/>
       <use x="127.246094" xlink:href="#DejaVuSans-48"/>
      </g>
     </g>
    </g>
   </g>
   <g id="line2d_37">
    <path clip-path="url(#p5863e62307)" d="M 437.629979 86.175582
L 438.815283 85.864186
L 440.000586 87.984806
L 441.185889 95.15761
L 442.371192 97.584893
L 443.556495 90.377295
L 444.741799 99.246485
L 445.927102 100.879326
L 447.112405 96.940016
L 448.297708 100.316889
L 449.483011 105.719145
L 450.668314 107.507099
L 451.853618 104.711168
L 453.038921 107.283337
L 454.224224 117.264178
L 455.409527 113.469683
L 456.59483 104.515713
L 457.780134 115.942661
L 458.965437 115.071239
L 460.15074 114.568377
L 461.336043 118.720052
L 462.521346 118.355622
L 463.70665 121.068989
L 464.891953 123.102544
L 466.077256 122.3597
L 467.262559 127.50051
L 468.447862 129.546844
L 469.633166 128.254219
L 470.818469 130.681785
L 472.003772 131.666914
L 473.189075 140.531549
L 474.374378 138.729627
L 475.559682 135.851558
L 476.744985 136.72259
L 479.115591 145.92519
L 480.300894 135.579831
L 481.486198 146.408999
L 482.671501 146.82437
L 483.856804 152.767952
L 485.042107 148.059335
L 486.22741 142.508081
L 487.412714 154.319453
L 488.598017 158.774724
L 489.78332 150.641819
L 490.968623 162.748013
L 492.153926 147.599154
L 493.33923 158.735853
L 494.524533 157.881181
L 495.709836 155.819267
L 496.895139 154.719332
L 498.080442 155.456202
L 499.265746 161.257416
L 500.451049 155.807107
L 501.636352 157.351642
L 502.821655 167.522869
L 504.006958 170.647371
L 505.192262 163.953856
L 506.377565 160.959155
L 507.562868 165.390497
L 508.748171 166.41962
L 509.933474 163.45826
L 511.118778 164.248129
L 512.304081 159.092093
L 513.489384 168.181022
L 514.674687 165.001129
L 515.85999 164.700599
L 517.045293 170.870301
L 518.230597 162.202539
L 519.4159 159.152695
L 520.601203 162.383371
L 521.786506 162.752799
L 522.971809 152.528325
L 524.157113 153.176729
L 525.342416 151.914308
L 526.527719 143.16003
L 527.713022 151.559699
L 528.898325 146.209112
L 530.083629 139.025566
L 531.268932 144.453098
L 532.454235 133.689337
L 533.639538 134.390225
L 534.824841 122.271393
L 536.010145 118.189183
L 537.195448 117.118371
L 538.380751 107.285411
L 539.566054 108.121613
L 540.751357 99.189888
L 541.936661 93.209332
L 543.121964 89.229041
L 544.307267 93.474518
L 545.49257 71.594973
L 546.677873 68.026545
L 547.863177 56.977036
L 549.04848 54.422486
L 550.233783 49.088809
L 551.419086 47.127166
L 552.604389 42.560634
L 553.789693 34.059117
L 554.974996 36.345308
L 556.160299 39.811994
L 557.345602 27.564619
L 558.530905 29.226353
L 559.716209 25.491307
L 560.901512 25.399314
L 563.272118 24.96292
L 564.457421 22.62444
L 565.642725 21.944149
L 566.828028 22.22013
L 568.013331 31.764063
L 570.383937 38.021221
L 571.569241 49.282723
L 572.754544 42.8453
L 573.939847 54.947151
L 575.12515 48.602077
L 576.310453 62.865333
L 577.495756 63.819656
L 578.68106 72.730802
L 579.866363 75.789632
L 581.051666 91.572821
L 582.236969 91.816613
L 583.422272 91.507522
L 584.607576 101.812201
L 585.792879 104.433008
L 586.978182 95.185864
L 588.163485 106.218817
L 589.348788 113.019783
L 591.719395 120.246312
L 592.904698 119.578091
L 594.090001 124.213592
L 595.275304 118.890337
L 596.460608 123.092015
L 597.645911 121.59057
L 598.831214 121.309378
L 600.016517 115.077443
L 601.20182 117.805575
L 602.387124 113.84122
L 603.572427 117.297838
L 604.75773 106.799582
L 605.943033 106.771115
L 607.128336 117.442529
L 608.31364 104.640817
L 609.498943 98.721164
L 610.684246 93.893168
L 611.869549 101.135136
L 613.054852 94.103761
L 614.240156 99.016377
L 615.425459 93.07696
L 616.610762 89.446228
L 617.796065 96.34399
L 618.981368 87.669334
L 620.166672 103.861389
L 621.351975 98.79171
L 623.722581 107.234894
L 624.907884 108.46346
L 626.093188 119.955052
L 627.278491 114.972368
L 628.463794 125.870735
L 629.649097 130.35839
L 630.8344 135.332264
L 632.019704 141.642916
L 633.205007 146.445973
L 634.39031 155.745566
L 635.575613 157.218189
L 636.760916 165.553764
L 637.94622 169.119693
L 639.131523 175.781321
L 640.316826 176.78102
L 641.502129 182.773435
L 642.687432 198.681498
L 643.872735 189.522838
L 645.058039 201.218766
L 646.243342 205.19505
L 647.428645 202.449849
L 648.613948 217.261026
L 649.799251 217.149127
L 650.984555 223.22586
L 652.169858 225.348235
L 654.540464 230.635454
L 655.725767 225.575241
L 656.911071 226.158629
L 658.096374 228.561345
L 659.281677 229.687158
L 660.46698 235.251404
L 661.652283 231.896387
L 662.837587 235.271948
L 664.02289 230.858738
L 665.208193 237.304332
L 666.393496 230.190642
L 667.578799 240.649317
L 668.764103 242.084373
L 669.949406 235.891265
L 671.134709 243.602174
L 672.320012 238.304102
L 673.505315 236.905995
L 674.690619 239.066904
L 675.875922 239.290507
L 677.061225 245.295815
L 678.246528 247.097118
L 679.431831 233.865049
L 680.617135 240.251352
L 681.802438 243.355516
L 682.987741 238.648147
L 685.358347 238.606706
L 686.543651 241.904606
L 687.728954 238.869641
L 688.914257 239.24763
L 690.09956 241.121161
L 691.284863 236.978934
L 692.470167 248.159178
L 693.65547 243.16403
L 694.840773 239.997493
L 696.026076 235.938112
L 697.211379 252.213315
L 698.396683 242.192193
L 699.581986 244.903146
L 700.767289 241.016742
L 701.952592 242.54754
L 704.323198 248.306151
L 705.508502 243.565324
L 706.693805 245.331662
L 707.879108 237.082449
L 709.064411 240.334377
L 710.249714 248.514549
L 711.435018 247.160179
L 712.620321 243.615936
L 713.805624 251.021924
L 714.990927 244.278627
L 716.17623 246.372998
L 717.361534 241.404835
L 718.546837 246.163382
L 719.73214 247.585515
L 720.917443 254.117362
L 722.102746 240.852483
L 723.28805 250.661009
L 724.473353 244.304066
L 725.658656 248.048419
L 726.843959 254.355185
L 728.029262 244.329452
L 729.214566 243.228014
L 730.399869 253.191392
L 731.585172 257.055106
L 732.770475 250.509854
L 732.770475 250.509854
" style="fill:none;stroke:#0000ff;stroke-linecap:square;stroke-width:1.5;"/>
   </g>
   <g id="line2d_38">
    <path clip-path="url(#p5863e62307)" d="M 437.629979 259.151421
L 486.22741 259.061665
L 492.153926 258.875018
L 496.895139 258.514329
L 500.451049 258.003817
L 502.821655 257.482739
L 505.192262 256.759727
L 507.562868 255.772421
L 509.933474 254.445752
L 512.304081 252.691829
L 514.674687 250.410858
L 515.85999 249.038817
L 517.045293 247.493415
L 518.230597 245.760106
L 519.4159 243.824328
L 520.601203 241.67172
L 522.971809 236.661114
L 525.342416 230.627623
L 527.713022 223.492359
L 530.083629 215.209093
L 532.454235 205.775325
L 534.824841 195.242551
L 537.195448 183.724555
L 540.751357 165.015406
L 549.04848 119.960935
L 551.419086 108.463645
L 553.789693 98.347333
L 554.974996 93.931242
L 556.160299 90.00347
L 557.345602 86.604172
L 558.530905 83.768627
L 559.716209 81.52663
L 560.901512 79.901975
L 562.086815 78.91203
L 563.272118 78.567429
L 564.457421 78.871883
L 565.642725 79.822115
L 566.828028 81.407912
L 568.013331 83.612316
L 569.198634 86.411922
L 570.383937 89.77729
L 571.569241 93.673463
L 572.754544 98.060571
L 575.12515 108.127668
L 577.495756 119.588441
L 581.051666 138.4701
L 588.163485 177.26796
L 590.534092 189.239793
L 592.904698 200.314053
L 595.275304 210.341552
L 597.645911 219.23858
L 600.016517 226.980149
L 602.387124 233.590622
L 604.75773 239.132937
L 607.128336 243.697505
L 609.498943 247.391714
L 611.869549 250.33068
L 614.240156 252.629671
L 616.610762 254.398354
L 618.981368 255.736865
L 621.351975 256.733483
L 623.722581 257.463677
L 626.093188 257.99019
L 629.649097 258.506333
L 634.39031 258.8713
L 640.316826 259.060356
L 652.169858 259.144073
L 731.585172 259.151422
L 732.770475 259.151422
L 732.770475 259.151422
" style="fill:none;stroke:#008000;stroke-dasharray:5.55,2.4;stroke-dashoffset:0;stroke-width:1.5;"/>
   </g>
   <g id="line2d_39">
    <path clip-path="url(#p5863e62307)" d="M 437.629979 259.151422
L 556.160299 259.052791
L 560.901512 258.868211
L 564.457421 258.560184
L 566.828028 258.210674
L 569.198634 257.685633
L 571.569241 256.914984
L 573.939847 255.810013
L 576.310453 254.262765
L 577.495756 253.284609
L 578.68106 252.147573
L 579.866363 250.833917
L 581.051666 249.325547
L 582.236969 247.604368
L 583.422272 245.65269
L 584.607576 243.453702
L 585.792879 240.992001
L 586.978182 238.254168
L 589.348788 231.910041
L 591.719395 224.377291
L 594.090001 215.683316
L 596.460608 205.943977
L 600.016517 189.874504
L 605.943033 162.31209
L 608.31364 152.420617
L 610.684246 143.961351
L 611.869549 140.421441
L 613.054852 137.413028
L 614.240156 134.981458
L 615.425459 133.163952
L 616.610762 131.988655
L 617.796065 131.473913
L 618.981368 131.627798
L 620.166672 132.447894
L 621.351975 133.921363
L 622.537278 136.025278
L 623.722581 138.727217
L 624.907884 141.986095
L 626.093188 145.753199
L 628.463794 154.586511
L 630.8344 164.733821
L 634.39031 181.264049
L 639.131523 203.1596
L 641.502129 213.148622
L 643.872735 222.14039
L 646.243342 229.992909
L 648.613948 236.656379
L 650.984555 242.157425
L 652.169858 244.49653
L 653.355161 246.579794
L 654.540464 248.423336
L 655.725767 250.044434
L 656.911071 251.461019
L 658.096374 252.691232
L 659.281677 253.753045
L 661.652283 255.440647
L 664.02289 256.653647
L 666.393496 257.505045
L 668.764103 258.088767
L 671.134709 258.479772
L 674.690619 258.826946
L 679.431831 259.037132
L 687.728954 259.136382
L 724.473353 259.151422
L 732.770475 259.151422
L 732.770475 259.151422
" style="fill:none;stroke:#bf00bf;stroke-dasharray:5.55,2.4;stroke-dashoffset:0;stroke-width:1.5;"/>
   </g>
   <g id="line2d_40">
    <path clip-path="url(#p5863e62307)" d="M 437.629979 85.559047
L 443.556495 94.844664
L 449.483011 103.633585
L 455.409527 111.952379
L 461.336043 119.826193
L 467.262559 127.278829
L 473.189075 134.332816
L 479.115591 141.00948
L 485.042107 147.329002
L 490.968623 153.310487
L 496.895139 158.972017
L 502.821655 164.330707
L 508.748171 169.402755
L 514.674687 174.203495
L 520.601203 178.747438
L 526.527719 183.048322
L 533.639538 187.9068
L 540.751357 192.45511
L 547.863177 196.713052
L 554.974996 200.699164
L 562.086815 204.4308
L 569.198634 207.924205
L 576.310453 211.194588
L 584.607576 214.747105
L 592.904698 218.036461
L 601.20182 221.082149
L 609.498943 223.902221
L 618.981368 226.870278
L 628.463794 229.588418
L 637.94622 232.077684
L 648.613948 234.628466
L 659.281677 236.938923
L 669.949406 239.031697
L 681.802438 241.126575
L 693.65547 243.003332
L 706.693805 244.842871
L 720.917443 246.611491
L 732.770475 247.917156
L 732.770475 247.917156
" style="fill:none;stroke:#000000;stroke-dasharray:5.55,2.4;stroke-dashoffset:0;stroke-width:1.5;"/>
   </g>
   <g id="patch_9">
    <path d="M 422.872955 271.011785
L 422.872955 10.083785
" style="fill:none;stroke:#000000;stroke-linecap:square;stroke-linejoin:miter;stroke-width:0.8;"/>
   </g>
   <g id="patch_10">
    <path d="M 747.5275 271.011785
L 747.5275 10.083785
" style="fill:none;stroke:#000000;stroke-linecap:square;stroke-linejoin:miter;stroke-width:0.8;"/>
   </g>
   <g id="patch_11">
    <path d="M 422.872955 271.011785
L 747.5275 271.011785
" style="fill:none;stroke:#000000;stroke-linecap:square;stroke-linejoin:miter;stroke-width:0.8;"/>
   </g>
   <g id="patch_12">
    <path d="M 422.872955 10.083785
L 747.5275 10.083785
" style="fill:none;stroke:#000000;stroke-linecap:square;stroke-linejoin:miter;stroke-width:0.8;"/>
   </g>
   <g id="legend_2">
    <g id="patch_13">
     <path d="M 589.638437 62.11816
L 740.5275 62.11816
Q 742.5275 62.11816 742.5275 60.11816
L 742.5275 17.083785
Q 742.5275 15.083785 740.5275 15.083785
L 589.638437 15.083785
Q 587.638437 15.083785 587.638437 17.083785
L 587.638437 60.11816
Q 587.638437 62.11816 589.638437 62.11816
z
" style="fill:#ffffff;opacity:0.8;stroke:#cccccc;stroke-linejoin:miter;"/>
    </g>
    <g id="line2d_41">
     <path d="M 591.638437 23.182223
L 611.638437 23.182223
" style="fill:none;stroke:#008000;stroke-dasharray:5.55,2.4;stroke-dashoffset:0;stroke-width:1.5;"/>
    </g>
    <g id="line2d_42"/>
    <g id="text_32">
     <!-- Gaussian component 1 -->
     <defs>
      <path d="M 59.515625 10.40625
L 59.515625 29.984375
L 43.40625 29.984375
L 43.40625 38.09375
L 69.28125 38.09375
L 69.28125 6.78125
Q 63.578125 2.734375 56.6875 0.65625
Q 49.8125 -1.421875 42 -1.421875
Q 24.90625 -1.421875 15.25 8.5625
Q 5.609375 18.5625 5.609375 36.375
Q 5.609375 54.25 15.25 64.234375
Q 24.90625 74.21875 42 74.21875
Q 49.125 74.21875 55.546875 72.453125
Q 61.96875 70.703125 67.390625 67.28125
L 67.390625 56.78125
Q 61.921875 61.421875 55.765625 63.765625
Q 49.609375 66.109375 42.828125 66.109375
Q 29.4375 66.109375 22.71875 58.640625
Q 16.015625 51.171875 16.015625 36.375
Q 16.015625 21.625 22.71875 14.15625
Q 29.4375 6.6875 42.828125 6.6875
Q 48.046875 6.6875 52.140625 7.59375
Q 56.25 8.5 59.515625 10.40625
z
" id="DejaVuSans-71"/>
      <path d="M 8.5 21.578125
L 8.5 54.6875
L 17.484375 54.6875
L 17.484375 21.921875
Q 17.484375 14.15625 20.5 10.265625
Q 23.53125 6.390625 29.59375 6.390625
Q 36.859375 6.390625 41.078125 11.03125
Q 45.3125 15.671875 45.3125 23.6875
L 45.3125 54.6875
L 54.296875 54.6875
L 54.296875 0
L 45.3125 0
L 45.3125 8.40625
Q 42.046875 3.421875 37.71875 1
Q 33.40625 -1.421875 27.6875 -1.421875
Q 18.265625 -1.421875 13.375 4.4375
Q 8.5 10.296875 8.5 21.578125
z
M 31.109375 56
z
" id="DejaVuSans-117"/>
      <path d="M 48.78125 52.59375
L 48.78125 44.1875
Q 44.96875 46.296875 41.140625 47.34375
Q 37.3125 48.390625 33.40625 48.390625
Q 24.65625 48.390625 19.8125 42.84375
Q 14.984375 37.3125 14.984375 27.296875
Q 14.984375 17.28125 19.8125 11.734375
Q 24.65625 6.203125 33.40625 6.203125
Q 37.3125 6.203125 41.140625 7.25
Q 44.96875 8.296875 48.78125 10.40625
L 48.78125 2.09375
Q 45.015625 0.34375 40.984375 -0.53125
Q 36.96875 -1.421875 32.421875 -1.421875
Q 20.0625 -1.421875 12.78125 6.34375
Q 5.515625 14.109375 5.515625 27.296875
Q 5.515625 40.671875 12.859375 48.328125
Q 20.21875 56 33.015625 56
Q 37.15625 56 41.109375 55.140625
Q 45.0625 54.296875 48.78125 52.59375
z
" id="DejaVuSans-99"/>
      <path d="M 30.609375 48.390625
Q 23.390625 48.390625 19.1875 42.75
Q 14.984375 37.109375 14.984375 27.296875
Q 14.984375 17.484375 19.15625 11.84375
Q 23.34375 6.203125 30.609375 6.203125
Q 37.796875 6.203125 41.984375 11.859375
Q 46.1875 17.53125 46.1875 27.296875
Q 46.1875 37.015625 41.984375 42.703125
Q 37.796875 48.390625 30.609375 48.390625
z
M 30.609375 56
Q 42.328125 56 49.015625 48.375
Q 55.71875 40.765625 55.71875 27.296875
Q 55.71875 13.875 49.015625 6.21875
Q 42.328125 -1.421875 30.609375 -1.421875
Q 18.84375 -1.421875 12.171875 6.21875
Q 5.515625 13.875 5.515625 27.296875
Q 5.515625 40.765625 12.171875 48.375
Q 18.84375 56 30.609375 56
z
" id="DejaVuSans-111"/>
      <path d="M 52 44.1875
Q 55.375 50.25 60.0625 53.125
Q 64.75 56 71.09375 56
Q 79.640625 56 84.28125 50.015625
Q 88.921875 44.046875 88.921875 33.015625
L 88.921875 0
L 79.890625 0
L 79.890625 32.71875
Q 79.890625 40.578125 77.09375 44.375
Q 74.3125 48.1875 68.609375 48.1875
Q 61.625 48.1875 57.5625 43.546875
Q 53.515625 38.921875 53.515625 30.90625
L 53.515625 0
L 44.484375 0
L 44.484375 32.71875
Q 44.484375 40.625 41.703125 44.40625
Q 38.921875 48.1875 33.109375 48.1875
Q 26.21875 48.1875 22.15625 43.53125
Q 18.109375 38.875 18.109375 30.90625
L 18.109375 0
L 9.078125 0
L 9.078125 54.6875
L 18.109375 54.6875
L 18.109375 46.1875
Q 21.1875 51.21875 25.484375 53.609375
Q 29.78125 56 35.6875 56
Q 41.65625 56 45.828125 52.96875
Q 50 49.953125 52 44.1875
z
" id="DejaVuSans-109"/>
      <path d="M 18.109375 8.203125
L 18.109375 -20.796875
L 9.078125 -20.796875
L 9.078125 54.6875
L 18.109375 54.6875
L 18.109375 46.390625
Q 20.953125 51.265625 25.265625 53.625
Q 29.59375 56 35.59375 56
Q 45.5625 56 51.78125 48.09375
Q 58.015625 40.1875 58.015625 27.296875
Q 58.015625 14.40625 51.78125 6.484375
Q 45.5625 -1.421875 35.59375 -1.421875
Q 29.59375 -1.421875 25.265625 0.953125
Q 20.953125 3.328125 18.109375 8.203125
z
M 48.6875 27.296875
Q 48.6875 37.203125 44.609375 42.84375
Q 40.53125 48.484375 33.40625 48.484375
Q 26.265625 48.484375 22.1875 42.84375
Q 18.109375 37.203125 18.109375 27.296875
Q 18.109375 17.390625 22.1875 11.75
Q 26.265625 6.109375 33.40625 6.109375
Q 40.53125 6.109375 44.609375 11.75
Q 48.6875 17.390625 48.6875 27.296875
z
" id="DejaVuSans-112"/>
     </defs>
     <g transform="translate(619.638437 26.682223)scale(0.1 -0.1)">
      <use xlink:href="#DejaVuSans-71"/>
      <use x="77.490234" xlink:href="#DejaVuSans-97"/>
      <use x="138.769531" xlink:href="#DejaVuSans-117"/>
      <use x="202.148438" xlink:href="#DejaVuSans-115"/>
      <use x="254.248047" xlink:href="#DejaVuSans-115"/>
      <use x="306.347656" xlink:href="#DejaVuSans-105"/>
      <use x="334.130859" xlink:href="#DejaVuSans-97"/>
      <use x="395.410156" xlink:href="#DejaVuSans-110"/>
      <use x="458.789062" xlink:href="#DejaVuSans-32"/>
      <use x="490.576172" xlink:href="#DejaVuSans-99"/>
      <use x="545.556641" xlink:href="#DejaVuSans-111"/>
      <use x="606.738281" xlink:href="#DejaVuSans-109"/>
      <use x="704.150391" xlink:href="#DejaVuSans-112"/>
      <use x="767.626953" xlink:href="#DejaVuSans-111"/>
      <use x="828.808594" xlink:href="#DejaVuSans-110"/>
      <use x="892.1875" xlink:href="#DejaVuSans-101"/>
      <use x="953.710938" xlink:href="#DejaVuSans-110"/>
      <use x="1017.089844" xlink:href="#DejaVuSans-116"/>
      <use x="1056.298828" xlink:href="#DejaVuSans-32"/>
      <use x="1088.085938" xlink:href="#DejaVuSans-49"/>
     </g>
    </g>
    <g id="line2d_43">
     <path d="M 591.638437 37.860348
L 611.638437 37.860348
" style="fill:none;stroke:#bf00bf;stroke-dasharray:5.55,2.4;stroke-dashoffset:0;stroke-width:1.5;"/>
    </g>
    <g id="line2d_44"/>
    <g id="text_33">
     <!-- Gaussian component 2 -->
     <g transform="translate(619.638437 41.360348)scale(0.1 -0.1)">
      <use xlink:href="#DejaVuSans-71"/>
      <use x="77.490234" xlink:href="#DejaVuSans-97"/>
      <use x="138.769531" xlink:href="#DejaVuSans-117"/>
      <use x="202.148438" xlink:href="#DejaVuSans-115"/>
      <use x="254.248047" xlink:href="#DejaVuSans-115"/>
      <use x="306.347656" xlink:href="#DejaVuSans-105"/>
      <use x="334.130859" xlink:href="#DejaVuSans-97"/>
      <use x="395.410156" xlink:href="#DejaVuSans-110"/>
      <use x="458.789062" xlink:href="#DejaVuSans-32"/>
      <use x="490.576172" xlink:href="#DejaVuSans-99"/>
      <use x="545.556641" xlink:href="#DejaVuSans-111"/>
      <use x="606.738281" xlink:href="#DejaVuSans-109"/>
      <use x="704.150391" xlink:href="#DejaVuSans-112"/>
      <use x="767.626953" xlink:href="#DejaVuSans-111"/>
      <use x="828.808594" xlink:href="#DejaVuSans-110"/>
      <use x="892.1875" xlink:href="#DejaVuSans-101"/>
      <use x="953.710938" xlink:href="#DejaVuSans-110"/>
      <use x="1017.089844" xlink:href="#DejaVuSans-116"/>
      <use x="1056.298828" xlink:href="#DejaVuSans-32"/>
      <use x="1088.085938" xlink:href="#DejaVuSans-50"/>
     </g>
    </g>
    <g id="line2d_45">
     <path d="M 591.638437 52.538473
L 611.638437 52.538473
" style="fill:none;stroke:#000000;stroke-dasharray:5.55,2.4;stroke-dashoffset:0;stroke-width:1.5;"/>
    </g>
    <g id="line2d_46"/>
    <g id="text_34">
     <!-- Exponential component -->
     <defs>
      <path d="M 9.8125 72.90625
L 55.90625 72.90625
L 55.90625 64.59375
L 19.671875 64.59375
L 19.671875 43.015625
L 54.390625 43.015625
L 54.390625 34.71875
L 19.671875 34.71875
L 19.671875 8.296875
L 56.78125 8.296875
L 56.78125 0
L 9.8125 0
z
" id="DejaVuSans-69"/>
      <path d="M 54.890625 54.6875
L 35.109375 28.078125
L 55.90625 0
L 45.3125 0
L 29.390625 21.484375
L 13.484375 0
L 2.875 0
L 24.125 28.609375
L 4.6875 54.6875
L 15.28125 54.6875
L 29.78125 35.203125
L 44.28125 54.6875
z
" id="DejaVuSans-120"/>
     </defs>
     <g transform="translate(619.638437 56.038473)scale(0.1 -0.1)">
      <use xlink:href="#DejaVuSans-69"/>
      <use x="63.183594" xlink:href="#DejaVuSans-120"/>
      <use x="122.363281" xlink:href="#DejaVuSans-112"/>
      <use x="185.839844" xlink:href="#DejaVuSans-111"/>
      <use x="247.021484" xlink:href="#DejaVuSans-110"/>
      <use x="310.400391" xlink:href="#DejaVuSans-101"/>
      <use x="371.923828" xlink:href="#DejaVuSans-110"/>
      <use x="435.302734" xlink:href="#DejaVuSans-116"/>
      <use x="474.511719" xlink:href="#DejaVuSans-105"/>
      <use x="502.294922" xlink:href="#DejaVuSans-97"/>
      <use x="563.574219" xlink:href="#DejaVuSans-108"/>
      <use x="591.357422" xlink:href="#DejaVuSans-32"/>
      <use x="623.144531" xlink:href="#DejaVuSans-99"/>
      <use x="678.125" xlink:href="#DejaVuSans-111"/>
      <use x="739.306641" xlink:href="#DejaVuSans-109"/>
      <use x="836.71875" xlink:href="#DejaVuSans-112"/>
      <use x="900.195312" xlink:href="#DejaVuSans-111"/>
      <use x="961.376953" xlink:href="#DejaVuSans-110"/>
      <use x="1024.755859" xlink:href="#DejaVuSans-101"/>
      <use x="1086.279297" xlink:href="#DejaVuSans-110"/>
      <use x="1149.658203" xlink:href="#DejaVuSans-116"/>
     </g>
    </g>
   </g>
  </g>
 </g>
 <defs>
  <clipPath id="p0c337f3a2d">
   <rect height="260.928" width="324.654545" x="33.2875" y="10.083785"/>
  </clipPath>
  <clipPath id="p5863e62307">
   <rect height="260.928" width="324.654545" x="422.872955" y="10.083785"/>
  </clipPath>
 </defs>
</svg>
