<?xml version="1.0" encoding="utf-8" standalone="no"?>
<!DOCTYPE svg PUBLIC "-//W3C//DTD SVG 1.1//EN"
  "http://www.w3.org/Graphics/SVG/1.1/DTD/svg11.dtd">
<svg xmlns:xlink="http://www.w3.org/1999/xlink" width="391.245pt" height="297.190125pt" viewBox="0 0 391.245 297.190125" xmlns="http://www.w3.org/2000/svg" version="1.1">
 <metadata>
  <rdf:RDF xmlns:dc="http://purl.org/dc/elements/1.1/" xmlns:cc="http://creativecommons.org/ns#" xmlns:rdf="http://www.w3.org/1999/02/22-rdf-syntax-ns#">
   <cc:Work>
    <dc:type rdf:resource="http://purl.org/dc/dcmitype/StillImage"/>
    <dc:date>2023-04-08T23:56:30.126736</dc:date>
    <dc:format>image/svg+xml</dc:format>
    <dc:creator>
     <cc:Agent>
      <dc:title>Matplotlib v3.7.1, https://matplotlib.org/</dc:title>
     </cc:Agent>
    </dc:creator>
   </cc:Work>
  </rdf:RDF>
 </metadata>
 <defs>
  <style type="text/css">*{stroke-linejoin: round; stroke-linecap: butt}</style>
 </defs>
 <g id="figure_1">
  <g id="patch_1">
   <path d="M 0 297.190125 
L 391.245 297.190125 
L 391.245 0 
L 0 0 
z
" style="fill: #ffffff"/>
  </g>
  <g id="axes_1">
   <g id="patch_2">
    <path d="M 26.925 273.312 
L 384.045 273.312 
L 384.045 7.2 
L 26.925 7.2 
z
" style="fill: #ffffff"/>
   </g>
   <g id="matplotlib.axis_1">
    <g id="xtick_1">
     <g id="line2d_1">
      <defs>
       <path id="m1e7df7bb7e" d="M 0 0 
L 0 3.5 
" style="stroke: #000000; stroke-width: 0.8"/>
      </defs>
      <g>
       <use xlink:href="#m1e7df7bb7e" x="43.157727" y="273.312" style="stroke: #000000; stroke-width: 0.8"/>
      </g>
     </g>
     <g id="text_1">
      <!-- 0 -->
      <g transform="translate(39.976477 287.910437) scale(0.1 -0.1)">
       <defs>
        <path id="DejaVuSans-30" d="M 2034 4250 
Q 1547 4250 1301 3770 
Q 1056 3291 1056 2328 
Q 1056 1369 1301 889 
Q 1547 409 2034 409 
Q 2525 409 2770 889 
Q 3016 1369 3016 2328 
Q 3016 3291 2770 3770 
Q 2525 4250 2034 4250 
z
M 2034 4750 
Q 2819 4750 3233 4129 
Q 3647 3509 3647 2328 
Q 3647 1150 3233 529 
Q 2819 -91 2034 -91 
Q 1250 -91 836 529 
Q 422 1150 422 2328 
Q 422 3509 836 4129 
Q 1250 4750 2034 4750 
z
" transform="scale(0.015625)"/>
       </defs>
       <use xlink:href="#DejaVuSans-30"/>
      </g>
     </g>
    </g>
    <g id="xtick_2">
     <g id="line2d_2">
      <g>
       <use xlink:href="#m1e7df7bb7e" x="108.088636" y="273.312" style="stroke: #000000; stroke-width: 0.8"/>
      </g>
     </g>
     <g id="text_2">
      <!-- 5 -->
      <g transform="translate(104.907386 287.910437) scale(0.1 -0.1)">
       <defs>
        <path id="DejaVuSans-35" d="M 691 4666 
L 3169 4666 
L 3169 4134 
L 1269 4134 
L 1269 2991 
Q 1406 3038 1543 3061 
Q 1681 3084 1819 3084 
Q 2600 3084 3056 2656 
Q 3513 2228 3513 1497 
Q 3513 744 3044 326 
Q 2575 -91 1722 -91 
Q 1428 -91 1123 -41 
Q 819 9 494 109 
L 494 744 
Q 775 591 1075 516 
Q 1375 441 1709 441 
Q 2250 441 2565 725 
Q 2881 1009 2881 1497 
Q 2881 1984 2565 2268 
Q 2250 2553 1709 2553 
Q 1456 2553 1204 2497 
Q 953 2441 691 2322 
L 691 4666 
z
" transform="scale(0.015625)"/>
       </defs>
       <use xlink:href="#DejaVuSans-35"/>
      </g>
     </g>
    </g>
    <g id="xtick_3">
     <g id="line2d_3">
      <g>
       <use xlink:href="#m1e7df7bb7e" x="173.019545" y="273.312" style="stroke: #000000; stroke-width: 0.8"/>
      </g>
     </g>
     <g id="text_3">
      <!-- 10 -->
      <g transform="translate(166.657045 287.910437) scale(0.1 -0.1)">
       <defs>
        <path id="DejaVuSans-31" d="M 794 531 
L 1825 531 
L 1825 4091 
L 703 3866 
L 703 4441 
L 1819 4666 
L 2450 4666 
L 2450 531 
L 3481 531 
L 3481 0 
L 794 0 
L 794 531 
z
" transform="scale(0.015625)"/>
       </defs>
       <use xlink:href="#DejaVuSans-31"/>
       <use xlink:href="#DejaVuSans-30" x="63.623047"/>
      </g>
     </g>
    </g>
    <g id="xtick_4">
     <g id="line2d_4">
      <g>
       <use xlink:href="#m1e7df7bb7e" x="237.950455" y="273.312" style="stroke: #000000; stroke-width: 0.8"/>
      </g>
     </g>
     <g id="text_4">
      <!-- 15 -->
      <g transform="translate(231.587955 287.910437) scale(0.1 -0.1)">
       <use xlink:href="#DejaVuSans-31"/>
       <use xlink:href="#DejaVuSans-35" x="63.623047"/>
      </g>
     </g>
    </g>
    <g id="xtick_5">
     <g id="line2d_5">
      <g>
       <use xlink:href="#m1e7df7bb7e" x="302.881364" y="273.312" style="stroke: #000000; stroke-width: 0.8"/>
      </g>
     </g>
     <g id="text_5">
      <!-- 20 -->
      <g transform="translate(296.518864 287.910437) scale(0.1 -0.1)">
       <defs>
        <path id="DejaVuSans-32" d="M 1228 531 
L 3431 531 
L 3431 0 
L 469 0 
L 469 531 
Q 828 903 1448 1529 
Q 2069 2156 2228 2338 
Q 2531 2678 2651 2914 
Q 2772 3150 2772 3378 
Q 2772 3750 2511 3984 
Q 2250 4219 1831 4219 
Q 1534 4219 1204 4116 
Q 875 4013 500 3803 
L 500 4441 
Q 881 4594 1212 4672 
Q 1544 4750 1819 4750 
Q 2544 4750 2975 4387 
Q 3406 4025 3406 3419 
Q 3406 3131 3298 2873 
Q 3191 2616 2906 2266 
Q 2828 2175 2409 1742 
Q 1991 1309 1228 531 
z
" transform="scale(0.015625)"/>
       </defs>
       <use xlink:href="#DejaVuSans-32"/>
       <use xlink:href="#DejaVuSans-30" x="63.623047"/>
      </g>
     </g>
    </g>
    <g id="xtick_6">
     <g id="line2d_6">
      <g>
       <use xlink:href="#m1e7df7bb7e" x="367.812273" y="273.312" style="stroke: #000000; stroke-width: 0.8"/>
      </g>
     </g>
     <g id="text_6">
      <!-- 25 -->
      <g transform="translate(361.449773 287.910437) scale(0.1 -0.1)">
       <use xlink:href="#DejaVuSans-32"/>
       <use xlink:href="#DejaVuSans-35" x="63.623047"/>
      </g>
     </g>
    </g>
   </g>
   <g id="matplotlib.axis_2">
    <g id="ytick_1">
     <g id="line2d_7">
      <defs>
       <path id="mc423eb1f01" d="M 0 0 
L -3.5 0 
" style="stroke: #000000; stroke-width: 0.8"/>
      </defs>
      <g>
       <use xlink:href="#mc423eb1f01" x="26.925" y="261.216" style="stroke: #000000; stroke-width: 0.8"/>
      </g>
     </g>
     <g id="text_7">
      <!-- 0 -->
      <g transform="translate(13.5625 265.015219) scale(0.1 -0.1)">
       <use xlink:href="#DejaVuSans-30"/>
      </g>
     </g>
    </g>
    <g id="ytick_2">
     <g id="line2d_8">
      <g>
       <use xlink:href="#mc423eb1f01" x="26.925" y="213.450069" style="stroke: #000000; stroke-width: 0.8"/>
      </g>
     </g>
     <g id="text_8">
      <!-- 2 -->
      <g transform="translate(13.5625 217.249287) scale(0.1 -0.1)">
       <use xlink:href="#DejaVuSans-32"/>
      </g>
     </g>
    </g>
    <g id="ytick_3">
     <g id="line2d_9">
      <g>
       <use xlink:href="#mc423eb1f01" x="26.925" y="165.684137" style="stroke: #000000; stroke-width: 0.8"/>
      </g>
     </g>
     <g id="text_9">
      <!-- 4 -->
      <g transform="translate(13.5625 169.483356) scale(0.1 -0.1)">
       <defs>
        <path id="DejaVuSans-34" d="M 2419 4116 
L 825 1625 
L 2419 1625 
L 2419 4116 
z
M 2253 4666 
L 3047 4666 
L 3047 1625 
L 3713 1625 
L 3713 1100 
L 3047 1100 
L 3047 0 
L 2419 0 
L 2419 1100 
L 313 1100 
L 313 1709 
L 2253 4666 
z
" transform="scale(0.015625)"/>
       </defs>
       <use xlink:href="#DejaVuSans-34"/>
      </g>
     </g>
    </g>
    <g id="ytick_4">
     <g id="line2d_10">
      <g>
       <use xlink:href="#mc423eb1f01" x="26.925" y="117.918206" style="stroke: #000000; stroke-width: 0.8"/>
      </g>
     </g>
     <g id="text_10">
      <!-- 6 -->
      <g transform="translate(13.5625 121.717425) scale(0.1 -0.1)">
       <defs>
        <path id="DejaVuSans-36" d="M 2113 2584 
Q 1688 2584 1439 2293 
Q 1191 2003 1191 1497 
Q 1191 994 1439 701 
Q 1688 409 2113 409 
Q 2538 409 2786 701 
Q 3034 994 3034 1497 
Q 3034 2003 2786 2293 
Q 2538 2584 2113 2584 
z
M 3366 4563 
L 3366 3988 
Q 3128 4100 2886 4159 
Q 2644 4219 2406 4219 
Q 1781 4219 1451 3797 
Q 1122 3375 1075 2522 
Q 1259 2794 1537 2939 
Q 1816 3084 2150 3084 
Q 2853 3084 3261 2657 
Q 3669 2231 3669 1497 
Q 3669 778 3244 343 
Q 2819 -91 2113 -91 
Q 1303 -91 875 529 
Q 447 1150 447 2328 
Q 447 3434 972 4092 
Q 1497 4750 2381 4750 
Q 2619 4750 2861 4703 
Q 3103 4656 3366 4563 
z
" transform="scale(0.015625)"/>
       </defs>
       <use xlink:href="#DejaVuSans-36"/>
      </g>
     </g>
    </g>
    <g id="ytick_5">
     <g id="line2d_11">
      <g>
       <use xlink:href="#mc423eb1f01" x="26.925" y="70.152275" style="stroke: #000000; stroke-width: 0.8"/>
      </g>
     </g>
     <g id="text_11">
      <!-- 8 -->
      <g transform="translate(13.5625 73.951493) scale(0.1 -0.1)">
       <defs>
        <path id="DejaVuSans-38" d="M 2034 2216 
Q 1584 2216 1326 1975 
Q 1069 1734 1069 1313 
Q 1069 891 1326 650 
Q 1584 409 2034 409 
Q 2484 409 2743 651 
Q 3003 894 3003 1313 
Q 3003 1734 2745 1975 
Q 2488 2216 2034 2216 
z
M 1403 2484 
Q 997 2584 770 2862 
Q 544 3141 544 3541 
Q 544 4100 942 4425 
Q 1341 4750 2034 4750 
Q 2731 4750 3128 4425 
Q 3525 4100 3525 3541 
Q 3525 3141 3298 2862 
Q 3072 2584 2669 2484 
Q 3125 2378 3379 2068 
Q 3634 1759 3634 1313 
Q 3634 634 3220 271 
Q 2806 -91 2034 -91 
Q 1263 -91 848 271 
Q 434 634 434 1313 
Q 434 1759 690 2068 
Q 947 2378 1403 2484 
z
M 1172 3481 
Q 1172 3119 1398 2916 
Q 1625 2713 2034 2713 
Q 2441 2713 2670 2916 
Q 2900 3119 2900 3481 
Q 2900 3844 2670 4047 
Q 2441 4250 2034 4250 
Q 1625 4250 1398 4047 
Q 1172 3844 1172 3481 
z
" transform="scale(0.015625)"/>
       </defs>
       <use xlink:href="#DejaVuSans-38"/>
      </g>
     </g>
    </g>
    <g id="ytick_6">
     <g id="line2d_12">
      <g>
       <use xlink:href="#mc423eb1f01" x="26.925" y="22.386343" style="stroke: #000000; stroke-width: 0.8"/>
      </g>
     </g>
     <g id="text_12">
      <!-- 10 -->
      <g transform="translate(7.2 26.185562) scale(0.1 -0.1)">
       <use xlink:href="#DejaVuSans-31"/>
       <use xlink:href="#DejaVuSans-30" x="63.623047"/>
      </g>
     </g>
    </g>
   </g>
   <g id="line2d_13">
    <path d="M 43.157727 190.364883 
L 43.807036 189.449123 
L 44.456345 188.104593 
L 45.105655 200.970588 
L 45.754964 168.642298 
L 46.404273 165.632422 
L 47.053582 177.488934 
L 47.702891 179.215657 
L 48.3522 172.067517 
L 49.001509 175.260534 
L 49.650818 165.947036 
L 50.300127 178.995545 
L 50.949436 183.858444 
L 51.598745 171.778071 
L 52.248055 174.857274 
L 52.897364 183.413032 
L 53.546673 178.206012 
L 54.195982 176.248199 
L 54.845291 170.708343 
L 55.4946 179.619455 
L 56.143909 169.457306 
L 56.793218 167.036018 
L 57.442527 178.487852 
L 58.091836 175.896946 
L 58.741145 170.774835 
L 59.390455 174.776106 
L 60.039764 192.194924 
L 60.689073 175.344277 
L 61.338382 170.79903 
L 61.987691 186.710963 
L 62.637 167.446457 
L 63.286309 171.030973 
L 63.935618 186.8963 
L 64.584927 184.662899 
L 65.234236 171.413144 
L 65.883545 183.597031 
L 66.532855 167.986368 
L 67.182164 182.85542 
L 67.831473 160.845668 
L 68.480782 186.004796 
L 69.130091 178.63974 
L 69.7794 179.923431 
L 70.428709 167.94349 
L 71.078018 182.951644 
L 71.727327 163.58202 
L 72.376636 179.992076 
L 73.025945 155.280337 
L 73.675255 176.737125 
L 74.324564 177.305373 
L 74.973873 159.020827 
L 75.623182 156.422949 
L 76.272491 157.292056 
L 76.9218 178.786711 
L 77.571109 168.166457 
L 78.220418 180.472883 
L 78.869727 172.190488 
L 79.519036 166.795978 
L 80.168345 174.274541 
L 80.817655 167.44343 
L 81.466964 152.571553 
L 82.116273 169.624764 
L 82.765582 168.839689 
L 83.414891 160.773711 
L 84.0642 170.591445 
L 84.713509 155.559764 
L 85.362818 183.407422 
L 86.012127 152.69297 
L 86.661436 173.476377 
L 87.310745 164.132869 
L 87.960055 164.138521 
L 88.609364 166.387875 
L 89.258673 160.40783 
L 89.907982 161.697551 
L 90.557291 168.293393 
L 91.2066 176.503583 
L 91.855909 159.899165 
L 92.505218 179.889758 
L 93.154527 180.698982 
L 93.803836 176.008389 
L 94.453145 162.979929 
L 95.102455 160.722947 
L 95.751764 165.274211 
L 96.401073 154.272216 
L 97.050382 155.770393 
L 97.699691 154.437507 
L 98.349 168.952773 
L 98.998309 163.165425 
L 99.647618 159.020775 
L 100.296927 172.30184 
L 100.946236 163.906222 
L 101.595545 153.817166 
L 102.244855 157.98809 
L 102.894164 165.394377 
L 103.543473 157.438054 
L 104.192782 158.068939 
L 104.842091 150.034104 
L 105.4914 162.704035 
L 106.140709 159.307331 
L 106.790018 148.174283 
L 107.439327 175.768032 
L 108.088636 150.96642 
L 108.737945 159.443422 
L 109.387255 155.88142 
L 110.036564 160.772372 
L 110.685873 163.41762 
L 111.335182 153.517262 
L 111.984491 161.500659 
L 112.6338 157.44468 
L 113.283109 160.295924 
L 113.932418 161.643901 
L 114.581727 160.428648 
L 115.231036 168.277666 
L 115.880345 153.806001 
L 116.529655 146.679578 
L 117.178964 158.003514 
L 117.828273 154.199525 
L 118.477582 148.70637 
L 119.126891 154.46802 
L 119.7762 156.401246 
L 120.425509 173.467665 
L 121.074818 162.963605 
L 121.724127 154.540513 
L 122.373436 151.590941 
L 123.022745 151.641849 
L 123.672055 153.553544 
L 124.321364 157.489645 
L 124.970673 158.287768 
L 125.619982 163.53821 
L 126.269291 162.179109 
L 126.9186 142.680311 
L 127.567909 152.367903 
L 128.217218 146.87859 
L 128.866527 150.7695 
L 129.515836 149.417647 
L 130.165145 167.09186 
L 130.814455 165.069205 
L 131.463764 153.143737 
L 132.113073 160.448504 
L 132.762382 149.110735 
L 133.411691 171.393757 
L 134.061 152.942135 
L 134.710309 149.042078 
L 135.359618 141.701675 
L 136.008927 153.267477 
L 136.658236 148.465571 
L 137.307545 151.551806 
L 137.956855 164.215316 
L 138.606164 147.203514 
L 139.255473 157.121723 
L 139.904782 152.869152 
L 140.554091 167.456408 
L 141.2034 148.62803 
L 141.852709 159.554997 
L 142.502018 152.721137 
L 143.151327 151.288973 
L 143.800636 161.293514 
L 144.449945 155.977222 
L 145.099255 164.291161 
L 145.748564 155.865918 
L 146.397873 161.537702 
L 147.047182 153.775022 
L 147.696491 162.115197 
L 148.3458 147.091123 
L 148.995109 171.778452 
L 149.644418 166.024221 
L 150.293727 150.35018 
L 150.943036 165.082791 
L 151.592345 158.317482 
L 152.890964 148.186043 
L 153.540273 151.02148 
L 154.189582 142.004524 
L 154.838891 173.471782 
L 155.4882 155.02429 
L 156.137509 152.30869 
L 156.786818 165.059849 
L 157.436127 160.612755 
L 158.085436 162.958593 
L 159.384055 155.174715 
L 160.033364 161.618074 
L 160.682673 157.49659 
L 161.331982 149.487189 
L 161.981291 160.525463 
L 162.6306 152.624508 
L 163.279909 143.088216 
L 163.929218 169.931176 
L 165.227836 151.496326 
L 165.877145 153.569191 
L 166.526455 140.621737 
L 167.175764 161.737628 
L 167.825073 167.918308 
L 168.474382 147.251815 
L 169.123691 148.080072 
L 169.773 153.420105 
L 170.422309 155.109626 
L 171.071618 141.093796 
L 171.720927 166.845907 
L 172.370236 175.197823 
L 173.019545 158.767323 
L 173.668855 176.897104 
L 174.318164 153.048214 
L 174.967473 158.689407 
L 175.616782 166.08261 
L 176.266091 159.623859 
L 176.9154 157.91518 
L 177.564709 157.986017 
L 178.214018 163.103292 
L 178.863327 159.155135 
L 179.512636 145.980737 
L 180.161945 163.573677 
L 180.811255 170.930203 
L 181.460564 162.362717 
L 182.109873 159.934044 
L 182.759182 166.133949 
L 183.408491 161.267685 
L 184.0578 162.667092 
L 184.707109 164.388151 
L 185.356418 150.827919 
L 186.655036 173.916634 
L 187.304345 174.626197 
L 187.953655 171.913063 
L 188.602964 173.288909 
L 189.252273 161.086175 
L 189.901582 160.135206 
L 190.550891 166.291075 
L 191.2002 165.446662 
L 191.849509 167.097465 
L 192.498818 166.059143 
L 193.148127 176.898439 
L 193.797436 173.207738 
L 194.446745 168.161168 
L 195.096055 179.835733 
L 195.745364 169.338464 
L 196.394673 166.4744 
L 197.043982 180.410857 
L 197.693291 183.798228 
L 198.3426 181.694616 
L 198.991909 169.372619 
L 199.641218 168.390253 
L 200.290527 177.16765 
L 200.939836 169.245714 
L 201.589145 174.139495 
L 202.238455 165.607207 
L 202.887764 167.670417 
L 203.537073 170.969623 
L 204.835691 185.041068 
L 205.485 173.778504 
L 206.134309 171.674828 
L 206.783618 172.159887 
L 207.432927 183.033371 
L 208.082236 165.013415 
L 208.731545 191.861786 
L 209.380855 178.306787 
L 210.030164 176.819107 
L 210.679473 173.418874 
L 211.978091 164.903447 
L 212.6274 170.570978 
L 213.276709 177.658455 
L 213.926018 175.698661 
L 214.575327 172.319128 
L 215.224636 171.324398 
L 215.873945 172.65173 
L 216.523255 185.85846 
L 217.172564 170.856445 
L 217.821873 168.324977 
L 218.471182 182.247045 
L 219.120491 174.915623 
L 219.7698 184.76772 
L 220.419109 174.413416 
L 221.068418 156.816803 
L 221.717727 187.303991 
L 222.367036 174.148483 
L 223.016345 172.629099 
L 223.665655 172.528068 
L 224.314964 190.789119 
L 224.964273 174.666154 
L 225.613582 190.490394 
L 226.262891 177.549546 
L 226.9122 172.893862 
L 227.561509 184.510927 
L 228.210818 171.537877 
L 228.860127 169.673654 
L 229.509436 181.109801 
L 230.158745 173.953106 
L 230.808055 160.864789 
L 231.457364 179.369024 
L 232.106673 190.500992 
L 232.755982 174.290818 
L 233.405291 178.78557 
L 234.0546 178.267386 
L 234.703909 173.159011 
L 236.002527 170.370802 
L 236.651836 161.775465 
L 237.301145 157.765883 
L 237.950455 156.115159 
L 238.599764 162.833882 
L 239.249073 142.910326 
L 239.898382 153.247703 
L 240.547691 145.483289 
L 241.197 147.545084 
L 241.846309 134.927523 
L 242.495618 118.154147 
L 243.144927 124.241417 
L 243.794236 119.518943 
L 244.443545 111.557681 
L 245.092855 100.198971 
L 245.742164 106.165471 
L 246.391473 97.101313 
L 247.040782 96.436872 
L 247.690091 90.143577 
L 248.3394 75.335642 
L 248.988709 69.377085 
L 249.638018 45.105708 
L 250.287327 35.040112 
L 250.936636 57.853898 
L 251.585945 55.15706 
L 252.235255 50.617204 
L 252.884564 34.851769 
L 253.533873 38.072935 
L 254.183182 19.296 
L 254.832491 23.805229 
L 255.4818 35.072272 
L 256.131109 35.104012 
L 256.780418 20.527706 
L 257.429727 31.870122 
L 258.079036 29.899312 
L 258.728345 20.999908 
L 260.026964 44.268128 
L 260.676273 49.624272 
L 261.325582 51.624172 
L 261.974891 35.995329 
L 262.6242 61.618013 
L 263.273509 54.593234 
L 264.572127 76.879135 
L 265.221436 78.734949 
L 265.870745 91.567684 
L 266.520055 96.682119 
L 267.169364 106.15584 
L 267.818673 97.897032 
L 268.467982 121.051139 
L 269.117291 118.086291 
L 269.7666 146.185217 
L 270.415909 139.947684 
L 271.065218 136.745629 
L 271.714527 150.903431 
L 272.363836 151.110544 
L 273.013145 148.197063 
L 273.662455 171.24807 
L 274.311764 173.199426 
L 274.961073 173.345958 
L 275.610382 174.740494 
L 276.259691 174.332426 
L 276.909 192.074052 
L 277.558309 177.501288 
L 278.207618 193.213614 
L 278.856927 159.060238 
L 279.506236 176.44772 
L 280.155545 182.68798 
L 280.804855 185.362257 
L 281.454164 187.012218 
L 282.103473 178.048849 
L 282.752782 184.366588 
L 283.402091 175.713777 
L 284.0514 183.049672 
L 284.700709 192.233423 
L 285.350018 193.08565 
L 285.999327 191.332825 
L 286.648636 202.346132 
L 287.297945 188.667072 
L 287.947255 199.720178 
L 288.596564 182.482054 
L 289.245873 192.200119 
L 289.895182 196.531411 
L 291.1938 182.546459 
L 291.843109 196.766256 
L 292.492418 192.857437 
L 293.141727 182.892992 
L 293.791036 188.20623 
L 294.440345 194.847733 
L 295.089655 198.592698 
L 295.738964 201.325323 
L 296.388273 206.655185 
L 297.037582 206.694893 
L 297.686891 188.332405 
L 298.3362 187.726665 
L 299.634818 187.613033 
L 300.284127 191.060543 
L 300.933436 191.03168 
L 302.232055 193.33355 
L 302.881364 186.001508 
L 303.530673 191.405082 
L 304.179982 201.104646 
L 304.829291 173.673423 
L 305.4786 196.12008 
L 306.127909 191.441452 
L 306.777218 198.838585 
L 307.426527 180.131433 
L 308.075836 192.673338 
L 308.725145 202.791913 
L 309.374455 188.722185 
L 310.023764 207.376384 
L 310.673073 195.745335 
L 311.322382 201.542231 
L 311.971691 178.426339 
L 312.621 194.372061 
L 313.270309 186.119577 
L 313.919618 183.662875 
L 314.568927 210.411593 
L 315.218236 207.850637 
L 315.867545 184.312763 
L 316.516855 194.548222 
L 317.166164 200.18429 
L 317.815473 187.237456 
L 318.464782 191.221908 
L 319.114091 185.747709 
L 319.7634 198.955553 
L 320.412709 180.273787 
L 321.062018 185.40447 
L 321.711327 182.729058 
L 322.360636 189.878616 
L 323.009945 189.899623 
L 323.659255 187.182039 
L 324.308564 193.751212 
L 324.957873 191.992752 
L 325.607182 184.772394 
L 326.256491 184.562646 
L 326.9058 176.788033 
L 327.555109 195.380788 
L 328.204418 194.401272 
L 328.853727 192.668587 
L 329.503036 194.494167 
L 330.152345 193.407688 
L 330.801655 189.477095 
L 331.450964 188.675594 
L 332.100273 180.273742 
L 332.749582 185.095046 
L 333.398891 193.186613 
L 334.0482 178.229021 
L 334.697509 189.075012 
L 335.346818 174.475529 
L 335.996127 192.772543 
L 336.645436 188.495865 
L 337.294745 183.022531 
L 337.944055 200.179738 
L 338.593364 180.306208 
L 339.242673 171.525794 
L 339.891982 182.004753 
L 340.541291 175.956686 
L 341.1906 177.43437 
L 342.489218 183.043187 
L 343.138527 179.703411 
L 343.787836 185.91623 
L 344.437145 176.816709 
L 345.086455 187.946966 
L 345.735764 174.393263 
L 346.385073 187.623878 
L 347.034382 179.294115 
L 347.683691 186.441791 
L 348.333 200.905914 
L 348.982309 178.898708 
L 349.631618 184.129919 
L 350.280927 177.411499 
L 350.930236 168.915324 
L 351.579545 190.337183 
L 352.228855 190.224337 
L 352.878164 186.839789 
L 353.527473 172.971774 
L 354.176782 170.199615 
L 354.826091 164.521211 
L 355.4754 180.217066 
L 356.124709 178.565715 
L 356.774018 182.735075 
L 357.423327 172.452842 
L 358.072636 170.718334 
L 358.721945 176.948068 
L 359.371255 171.463133 
L 360.020564 181.915915 
L 360.669873 177.670739 
L 361.319182 171.864099 
L 361.968491 186.339958 
L 362.6178 181.891639 
L 363.267109 171.083163 
L 363.916418 173.02659 
L 364.565727 165.172008 
L 365.215036 177.373627 
L 365.864345 162.273962 
L 366.513655 166.28605 
L 367.162964 184.498967 
L 367.812273 167.884154 
L 367.812273 167.884154 
" clip-path="url(#p2dede74677)" style="fill: none; stroke: #1f77b4; stroke-width: 1.5; stroke-linecap: square"/>
   </g>
   <g id="line2d_14">
    <path d="M 43.157727 180.483011 
L 47.702891 179.575399 
L 52.248055 178.453313 
L 57.442527 176.94892 
L 63.286309 175.029898 
L 71.078018 172.210428 
L 95.751764 163.040306 
L 101.595545 161.1985 
L 106.790018 159.78252 
L 111.984491 158.61742 
L 117.178964 157.687255 
L 123.022745 156.865433 
L 130.165145 156.092973 
L 139.255473 155.328503 
L 145.099255 155.049039 
L 149.644418 155.059382 
L 153.540273 155.286444 
L 157.436127 155.762445 
L 160.682673 156.381673 
L 163.929218 157.213444 
L 167.825073 158.448672 
L 172.370236 160.138468 
L 178.863327 162.830357 
L 189.252273 167.168779 
L 196.394673 169.858422 
L 204.186382 172.552873 
L 213.926018 175.677499 
L 220.419109 177.575154 
L 223.665655 178.290974 
L 225.613582 178.504077 
L 226.9122 178.482796 
L 228.210818 178.266869 
L 229.509436 177.782332 
L 230.808055 176.935749 
L 232.106673 175.613179 
L 233.405291 173.681016 
L 234.703909 170.989472 
L 236.002527 167.379404 
L 237.301145 162.692953 
L 238.599764 156.788049 
L 239.898382 149.556281 
L 241.197 140.942911 
L 242.495618 130.967103 
L 244.443545 113.719974 
L 247.040782 87.878099 
L 249.638018 61.966718 
L 250.936636 50.362915 
L 252.235255 40.436839 
L 253.533873 32.719463 
L 254.183182 29.829861 
L 254.832491 27.64579 
L 255.4818 26.200195 
L 256.131109 25.515723 
L 256.780418 25.604175 
L 257.429727 26.466235 
L 258.079036 28.091442 
L 258.728345 30.45845 
L 259.377655 33.535526 
L 260.676273 41.645772 
L 261.974891 51.99433 
L 263.922818 70.546481 
L 269.7666 130.34919 
L 271.714527 146.716744 
L 273.013145 155.950079 
L 274.311764 163.798815 
L 275.610382 170.313558 
L 276.909 175.599854 
L 278.207618 179.798097 
L 279.506236 183.065486 
L 280.804855 185.561289 
L 282.103473 187.43596 
L 283.402091 188.824093 
L 284.700709 189.840747 
L 285.999327 190.580462 
L 287.947255 191.329928 
L 289.895182 191.803182 
L 292.492418 192.195075 
L 296.388273 192.526367 
L 300.933436 192.699511 
L 305.4786 192.674961 
L 310.023764 192.425812 
L 313.919618 192.004649 
L 317.815473 191.366605 
L 321.711327 190.511089 
L 326.256491 189.268582 
L 330.801655 187.798845 
L 335.996127 185.889361 
L 342.489218 183.240431 
L 350.930236 179.531618 
L 365.864345 172.934577 
L 367.812273 172.126605 
L 367.812273 172.126605 
" clip-path="url(#p2dede74677)" style="fill: none; stroke: #ff7f0e; stroke-width: 1.5; stroke-linecap: square"/>
   </g>
   <g id="line2d_15">
    <path d="M 43.157727 180.483011 
L 47.702891 179.575399 
L 52.248055 178.453313 
L 57.442527 176.94892 
L 63.286309 175.029898 
L 71.078018 172.210428 
L 95.751764 163.040306 
L 101.595545 161.1985 
L 106.790018 159.78252 
L 111.984491 158.61742 
L 117.178964 157.687255 
L 123.022745 156.865433 
L 130.165145 156.092973 
L 139.255473 155.328503 
L 145.099255 155.049039 
L 149.644418 155.059382 
L 153.540273 155.286444 
L 157.436127 155.762445 
L 160.682673 156.381673 
L 163.929218 157.213444 
L 167.825073 158.448672 
L 172.370236 160.138468 
L 178.863327 162.830357 
L 189.252273 167.168779 
L 196.394673 169.858422 
L 204.186382 172.5529 
L 214.575327 175.884985 
L 225.613582 179.20506 
L 236.002527 182.09893 
L 245.742164 184.574958 
L 254.832491 186.651493 
L 263.273509 188.354832 
L 271.714527 189.821265 
L 279.506236 190.947454 
L 287.297945 191.839247 
L 294.440345 192.431382 
L 300.284127 192.68948 
L 304.829291 192.691643 
L 309.374455 192.476592 
L 313.270309 192.089303 
L 317.166164 191.488592 
L 321.062018 190.667838 
L 325.607182 189.460876 
L 330.152345 188.021287 
L 335.346818 186.139652 
L 341.1906 183.788814 
L 348.982309 180.403094 
L 367.162964 172.393665 
L 367.812273 172.126605 
L 367.812273 172.126605 
" clip-path="url(#p2dede74677)" style="fill: none; stroke: #2ca02c; stroke-width: 1.5; stroke-linecap: square"/>
   </g>
   <g id="line2d_16">
    <path d="M 43.157727 261.216 
L 220.419109 261.119597 
L 223.665655 260.870644 
L 225.613582 260.515016 
L 226.9122 260.118955 
L 228.210818 259.531831 
L 229.509436 258.679752 
L 230.808055 257.469355 
L 232.106673 255.786771 
L 233.405291 253.498465 
L 234.703909 250.454723 
L 236.002527 246.496475 
L 237.301145 241.465931 
L 238.599764 235.221097 
L 239.898382 227.653632 
L 241.197 218.70887 
L 242.495618 208.406049 
L 244.443545 190.676768 
L 247.040782 164.208021 
L 249.638018 137.688583 
L 250.936636 125.787988 
L 252.235255 115.57004 
L 253.533873 107.565784 
L 254.183182 104.534638 
L 254.832491 102.210297 
L 255.4818 100.625718 
L 256.131109 99.803553 
L 256.780418 99.755616 
L 257.429727 100.482598 
L 258.079036 101.974048 
L 258.728345 104.208627 
L 259.377655 107.154615 
L 260.676273 115.006733 
L 261.974891 125.102627 
L 263.273509 136.915898 
L 265.870745 163.369061 
L 268.467982 189.897503 
L 270.415909 207.727432 
L 271.714527 218.111479 
L 273.013145 227.141501 
L 274.311764 234.793074 
L 275.610382 241.116875 
L 276.909 246.218524 
L 278.207618 250.238486 
L 279.506236 253.334033 
L 280.804855 255.664504 
L 282.103473 257.380427 
L 283.402091 258.616468 
L 284.700709 259.487756 
L 285.999327 260.088907 
L 287.947255 260.643434 
L 289.895182 260.937457 
L 293.141727 261.139869 
L 299.634818 261.212035 
L 367.812273 261.216 
L 367.812273 261.216 
" clip-path="url(#p2dede74677)" style="fill: none; stroke: #d62728; stroke-width: 1.5; stroke-linecap: square"/>
   </g>
   <g id="patch_3">
    <path d="M 26.925 273.312 
L 26.925 7.2 
" style="fill: none; stroke: #000000; stroke-width: 0.8; stroke-linejoin: miter; stroke-linecap: square"/>
   </g>
   <g id="patch_4">
    <path d="M 384.045 273.312 
L 384.045 7.2 
" style="fill: none; stroke: #000000; stroke-width: 0.8; stroke-linejoin: miter; stroke-linecap: square"/>
   </g>
   <g id="patch_5">
    <path d="M 26.925 273.312 
L 384.045 273.312 
" style="fill: none; stroke: #000000; stroke-width: 0.8; stroke-linejoin: miter; stroke-linecap: square"/>
   </g>
   <g id="patch_6">
    <path d="M 26.925 7.2 
L 384.045 7.2 
" style="fill: none; stroke: #000000; stroke-width: 0.8; stroke-linejoin: miter; stroke-linecap: square"/>
   </g>
   <g id="legend_1">
    <g id="patch_7">
     <path d="M 285.902812 73.9125 
L 377.045 73.9125 
Q 379.045 73.9125 379.045 71.9125 
L 379.045 14.2 
Q 379.045 12.2 377.045 12.2 
L 285.902812 12.2 
Q 283.902812 12.2 283.902812 14.2 
L 283.902812 71.9125 
Q 283.902812 73.9125 285.902812 73.9125 
z
" style="fill: #ffffff; opacity: 0.8; stroke: #cccccc; stroke-linejoin: miter"/>
    </g>
    <g id="line2d_17">
     <path d="M 287.902812 20.298437 
L 297.902812 20.298437 
L 307.902812 20.298437 
" style="fill: none; stroke: #1f77b4; stroke-width: 1.5; stroke-linecap: square"/>
    </g>
    <g id="text_13">
     <!-- data -->
     <g transform="translate(315.902812 23.798437) scale(0.1 -0.1)">
      <defs>
       <path id="DejaVuSans-64" d="M 2906 2969 
L 2906 4863 
L 3481 4863 
L 3481 0 
L 2906 0 
L 2906 525 
Q 2725 213 2448 61 
Q 2172 -91 1784 -91 
Q 1150 -91 751 415 
Q 353 922 353 1747 
Q 353 2572 751 3078 
Q 1150 3584 1784 3584 
Q 2172 3584 2448 3432 
Q 2725 3281 2906 2969 
z
M 947 1747 
Q 947 1113 1208 752 
Q 1469 391 1925 391 
Q 2381 391 2643 752 
Q 2906 1113 2906 1747 
Q 2906 2381 2643 2742 
Q 2381 3103 1925 3103 
Q 1469 3103 1208 2742 
Q 947 2381 947 1747 
z
" transform="scale(0.015625)"/>
       <path id="DejaVuSans-61" d="M 2194 1759 
Q 1497 1759 1228 1600 
Q 959 1441 959 1056 
Q 959 750 1161 570 
Q 1363 391 1709 391 
Q 2188 391 2477 730 
Q 2766 1069 2766 1631 
L 2766 1759 
L 2194 1759 
z
M 3341 1997 
L 3341 0 
L 2766 0 
L 2766 531 
Q 2569 213 2275 61 
Q 1981 -91 1556 -91 
Q 1019 -91 701 211 
Q 384 513 384 1019 
Q 384 1609 779 1909 
Q 1175 2209 1959 2209 
L 2766 2209 
L 2766 2266 
Q 2766 2663 2505 2880 
Q 2244 3097 1772 3097 
Q 1472 3097 1187 3025 
Q 903 2953 641 2809 
L 641 3341 
Q 956 3463 1253 3523 
Q 1550 3584 1831 3584 
Q 2591 3584 2966 3190 
Q 3341 2797 3341 1997 
z
" transform="scale(0.015625)"/>
       <path id="DejaVuSans-74" d="M 1172 4494 
L 1172 3500 
L 2356 3500 
L 2356 3053 
L 1172 3053 
L 1172 1153 
Q 1172 725 1289 603 
Q 1406 481 1766 481 
L 2356 481 
L 2356 0 
L 1766 0 
Q 1100 0 847 248 
Q 594 497 594 1153 
L 594 3053 
L 172 3053 
L 172 3500 
L 594 3500 
L 594 4494 
L 1172 4494 
z
" transform="scale(0.015625)"/>
      </defs>
      <use xlink:href="#DejaVuSans-64"/>
      <use xlink:href="#DejaVuSans-61" x="63.476562"/>
      <use xlink:href="#DejaVuSans-74" x="124.755859"/>
      <use xlink:href="#DejaVuSans-61" x="163.964844"/>
     </g>
    </g>
    <g id="line2d_18">
     <path d="M 287.902812 34.976562 
L 297.902812 34.976562 
L 307.902812 34.976562 
" style="fill: none; stroke: #ff7f0e; stroke-width: 1.5; stroke-linecap: square"/>
    </g>
    <g id="text_14">
     <!-- best fit -->
     <g transform="translate(315.902812 38.476562) scale(0.1 -0.1)">
      <defs>
       <path id="DejaVuSans-62" d="M 3116 1747 
Q 3116 2381 2855 2742 
Q 2594 3103 2138 3103 
Q 1681 3103 1420 2742 
Q 1159 2381 1159 1747 
Q 1159 1113 1420 752 
Q 1681 391 2138 391 
Q 2594 391 2855 752 
Q 3116 1113 3116 1747 
z
M 1159 2969 
Q 1341 3281 1617 3432 
Q 1894 3584 2278 3584 
Q 2916 3584 3314 3078 
Q 3713 2572 3713 1747 
Q 3713 922 3314 415 
Q 2916 -91 2278 -91 
Q 1894 -91 1617 61 
Q 1341 213 1159 525 
L 1159 0 
L 581 0 
L 581 4863 
L 1159 4863 
L 1159 2969 
z
" transform="scale(0.015625)"/>
       <path id="DejaVuSans-65" d="M 3597 1894 
L 3597 1613 
L 953 1613 
Q 991 1019 1311 708 
Q 1631 397 2203 397 
Q 2534 397 2845 478 
Q 3156 559 3463 722 
L 3463 178 
Q 3153 47 2828 -22 
Q 2503 -91 2169 -91 
Q 1331 -91 842 396 
Q 353 884 353 1716 
Q 353 2575 817 3079 
Q 1281 3584 2069 3584 
Q 2775 3584 3186 3129 
Q 3597 2675 3597 1894 
z
M 3022 2063 
Q 3016 2534 2758 2815 
Q 2500 3097 2075 3097 
Q 1594 3097 1305 2825 
Q 1016 2553 972 2059 
L 3022 2063 
z
" transform="scale(0.015625)"/>
       <path id="DejaVuSans-73" d="M 2834 3397 
L 2834 2853 
Q 2591 2978 2328 3040 
Q 2066 3103 1784 3103 
Q 1356 3103 1142 2972 
Q 928 2841 928 2578 
Q 928 2378 1081 2264 
Q 1234 2150 1697 2047 
L 1894 2003 
Q 2506 1872 2764 1633 
Q 3022 1394 3022 966 
Q 3022 478 2636 193 
Q 2250 -91 1575 -91 
Q 1294 -91 989 -36 
Q 684 19 347 128 
L 347 722 
Q 666 556 975 473 
Q 1284 391 1588 391 
Q 1994 391 2212 530 
Q 2431 669 2431 922 
Q 2431 1156 2273 1281 
Q 2116 1406 1581 1522 
L 1381 1569 
Q 847 1681 609 1914 
Q 372 2147 372 2553 
Q 372 3047 722 3315 
Q 1072 3584 1716 3584 
Q 2034 3584 2315 3537 
Q 2597 3491 2834 3397 
z
" transform="scale(0.015625)"/>
       <path id="DejaVuSans-20" transform="scale(0.015625)"/>
       <path id="DejaVuSans-66" d="M 2375 4863 
L 2375 4384 
L 1825 4384 
Q 1516 4384 1395 4259 
Q 1275 4134 1275 3809 
L 1275 3500 
L 2222 3500 
L 2222 3053 
L 1275 3053 
L 1275 0 
L 697 0 
L 697 3053 
L 147 3053 
L 147 3500 
L 697 3500 
L 697 3744 
Q 697 4328 969 4595 
Q 1241 4863 1831 4863 
L 2375 4863 
z
" transform="scale(0.015625)"/>
       <path id="DejaVuSans-69" d="M 603 3500 
L 1178 3500 
L 1178 0 
L 603 0 
L 603 3500 
z
M 603 4863 
L 1178 4863 
L 1178 4134 
L 603 4134 
L 603 4863 
z
" transform="scale(0.015625)"/>
      </defs>
      <use xlink:href="#DejaVuSans-62"/>
      <use xlink:href="#DejaVuSans-65" x="63.476562"/>
      <use xlink:href="#DejaVuSans-73" x="125"/>
      <use xlink:href="#DejaVuSans-74" x="177.099609"/>
      <use xlink:href="#DejaVuSans-20" x="216.308594"/>
      <use xlink:href="#DejaVuSans-66" x="248.095703"/>
      <use xlink:href="#DejaVuSans-69" x="283.300781"/>
      <use xlink:href="#DejaVuSans-74" x="311.083984"/>
     </g>
    </g>
    <g id="line2d_19">
     <path d="M 287.902812 49.654687 
L 297.902812 49.654687 
L 307.902812 49.654687 
" style="fill: none; stroke: #2ca02c; stroke-width: 1.5; stroke-linecap: square"/>
    </g>
    <g id="text_15">
     <!-- background -->
     <g transform="translate(315.902812 53.154687) scale(0.1 -0.1)">
      <defs>
       <path id="DejaVuSans-63" d="M 3122 3366 
L 3122 2828 
Q 2878 2963 2633 3030 
Q 2388 3097 2138 3097 
Q 1578 3097 1268 2742 
Q 959 2388 959 1747 
Q 959 1106 1268 751 
Q 1578 397 2138 397 
Q 2388 397 2633 464 
Q 2878 531 3122 666 
L 3122 134 
Q 2881 22 2623 -34 
Q 2366 -91 2075 -91 
Q 1284 -91 818 406 
Q 353 903 353 1747 
Q 353 2603 823 3093 
Q 1294 3584 2113 3584 
Q 2378 3584 2631 3529 
Q 2884 3475 3122 3366 
z
" transform="scale(0.015625)"/>
       <path id="DejaVuSans-6b" d="M 581 4863 
L 1159 4863 
L 1159 1991 
L 2875 3500 
L 3609 3500 
L 1753 1863 
L 3688 0 
L 2938 0 
L 1159 1709 
L 1159 0 
L 581 0 
L 581 4863 
z
" transform="scale(0.015625)"/>
       <path id="DejaVuSans-67" d="M 2906 1791 
Q 2906 2416 2648 2759 
Q 2391 3103 1925 3103 
Q 1463 3103 1205 2759 
Q 947 2416 947 1791 
Q 947 1169 1205 825 
Q 1463 481 1925 481 
Q 2391 481 2648 825 
Q 2906 1169 2906 1791 
z
M 3481 434 
Q 3481 -459 3084 -895 
Q 2688 -1331 1869 -1331 
Q 1566 -1331 1297 -1286 
Q 1028 -1241 775 -1147 
L 775 -588 
Q 1028 -725 1275 -790 
Q 1522 -856 1778 -856 
Q 2344 -856 2625 -561 
Q 2906 -266 2906 331 
L 2906 616 
Q 2728 306 2450 153 
Q 2172 0 1784 0 
Q 1141 0 747 490 
Q 353 981 353 1791 
Q 353 2603 747 3093 
Q 1141 3584 1784 3584 
Q 2172 3584 2450 3431 
Q 2728 3278 2906 2969 
L 2906 3500 
L 3481 3500 
L 3481 434 
z
" transform="scale(0.015625)"/>
       <path id="DejaVuSans-72" d="M 2631 2963 
Q 2534 3019 2420 3045 
Q 2306 3072 2169 3072 
Q 1681 3072 1420 2755 
Q 1159 2438 1159 1844 
L 1159 0 
L 581 0 
L 581 3500 
L 1159 3500 
L 1159 2956 
Q 1341 3275 1631 3429 
Q 1922 3584 2338 3584 
Q 2397 3584 2469 3576 
Q 2541 3569 2628 3553 
L 2631 2963 
z
" transform="scale(0.015625)"/>
       <path id="DejaVuSans-6f" d="M 1959 3097 
Q 1497 3097 1228 2736 
Q 959 2375 959 1747 
Q 959 1119 1226 758 
Q 1494 397 1959 397 
Q 2419 397 2687 759 
Q 2956 1122 2956 1747 
Q 2956 2369 2687 2733 
Q 2419 3097 1959 3097 
z
M 1959 3584 
Q 2709 3584 3137 3096 
Q 3566 2609 3566 1747 
Q 3566 888 3137 398 
Q 2709 -91 1959 -91 
Q 1206 -91 779 398 
Q 353 888 353 1747 
Q 353 2609 779 3096 
Q 1206 3584 1959 3584 
z
" transform="scale(0.015625)"/>
       <path id="DejaVuSans-75" d="M 544 1381 
L 544 3500 
L 1119 3500 
L 1119 1403 
Q 1119 906 1312 657 
Q 1506 409 1894 409 
Q 2359 409 2629 706 
Q 2900 1003 2900 1516 
L 2900 3500 
L 3475 3500 
L 3475 0 
L 2900 0 
L 2900 538 
Q 2691 219 2414 64 
Q 2138 -91 1772 -91 
Q 1169 -91 856 284 
Q 544 659 544 1381 
z
M 1991 3584 
L 1991 3584 
z
" transform="scale(0.015625)"/>
       <path id="DejaVuSans-6e" d="M 3513 2113 
L 3513 0 
L 2938 0 
L 2938 2094 
Q 2938 2591 2744 2837 
Q 2550 3084 2163 3084 
Q 1697 3084 1428 2787 
Q 1159 2491 1159 1978 
L 1159 0 
L 581 0 
L 581 3500 
L 1159 3500 
L 1159 2956 
Q 1366 3272 1645 3428 
Q 1925 3584 2291 3584 
Q 2894 3584 3203 3211 
Q 3513 2838 3513 2113 
z
" transform="scale(0.015625)"/>
      </defs>
      <use xlink:href="#DejaVuSans-62"/>
      <use xlink:href="#DejaVuSans-61" x="63.476562"/>
      <use xlink:href="#DejaVuSans-63" x="124.755859"/>
      <use xlink:href="#DejaVuSans-6b" x="179.736328"/>
      <use xlink:href="#DejaVuSans-67" x="237.646484"/>
      <use xlink:href="#DejaVuSans-72" x="301.123047"/>
      <use xlink:href="#DejaVuSans-6f" x="339.986328"/>
      <use xlink:href="#DejaVuSans-75" x="401.167969"/>
      <use xlink:href="#DejaVuSans-6e" x="464.546875"/>
      <use xlink:href="#DejaVuSans-64" x="527.925781"/>
     </g>
    </g>
    <g id="line2d_20">
     <path d="M 287.902812 64.332812 
L 297.902812 64.332812 
L 307.902812 64.332812 
" style="fill: none; stroke: #d62728; stroke-width: 1.5; stroke-linecap: square"/>
    </g>
    <g id="text_16">
     <!-- peak -->
     <g transform="translate(315.902812 67.832812) scale(0.1 -0.1)">
      <defs>
       <path id="DejaVuSans-70" d="M 1159 525 
L 1159 -1331 
L 581 -1331 
L 581 3500 
L 1159 3500 
L 1159 2969 
Q 1341 3281 1617 3432 
Q 1894 3584 2278 3584 
Q 2916 3584 3314 3078 
Q 3713 2572 3713 1747 
Q 3713 922 3314 415 
Q 2916 -91 2278 -91 
Q 1894 -91 1617 61 
Q 1341 213 1159 525 
z
M 3116 1747 
Q 3116 2381 2855 2742 
Q 2594 3103 2138 3103 
Q 1681 3103 1420 2742 
Q 1159 2381 1159 1747 
Q 1159 1113 1420 752 
Q 1681 391 2138 391 
Q 2594 391 2855 752 
Q 3116 1113 3116 1747 
z
" transform="scale(0.015625)"/>
      </defs>
      <use xlink:href="#DejaVuSans-70"/>
      <use xlink:href="#DejaVuSans-65" x="63.476562"/>
      <use xlink:href="#DejaVuSans-61" x="125"/>
      <use xlink:href="#DejaVuSans-6b" x="186.279297"/>
     </g>
    </g>
   </g>
  </g>
 </g>
 <defs>
  <clipPath id="p2dede74677">
   <rect x="26.925" y="7.2" width="357.12" height="266.112"/>
  </clipPath>
 </defs>
</svg>
