<?xml version="1.0" encoding="utf-8" standalone="no"?>
<!DOCTYPE svg PUBLIC "-//W3C//DTD SVG 1.1//EN"
  "http://www.w3.org/Graphics/SVG/1.1/DTD/svg11.dtd">
<!-- Created with matplotlib (https://matplotlib.org/) -->
<svg height="248.518125pt" version="1.1" viewBox="0 0 368.925 248.518125" width="368.925pt" xmlns="http://www.w3.org/2000/svg" xmlns:xlink="http://www.w3.org/1999/xlink">
 <metadata>
  <rdf:RDF xmlns:cc="http://creativecommons.org/ns#" xmlns:dc="http://purl.org/dc/elements/1.1/" xmlns:rdf="http://www.w3.org/1999/02/22-rdf-syntax-ns#">
   <cc:Work>
    <dc:type rdf:resource="http://purl.org/dc/dcmitype/StillImage"/>
    <dc:date>2021-02-07T16:21:48.322206</dc:date>
    <dc:format>image/svg+xml</dc:format>
    <dc:creator>
     <cc:Agent>
      <dc:title>Matplotlib v3.3.2, https://matplotlib.org/</dc:title>
     </cc:Agent>
    </dc:creator>
   </cc:Work>
  </rdf:RDF>
 </metadata>
 <defs>
  <style type="text/css">*{stroke-linecap:butt;stroke-linejoin:round;}</style>
 </defs>
 <g id="figure_1">
  <g id="patch_1">
   <path d="M -0 248.518125 
L 368.925 248.518125 
L 368.925 0 
L -0 0 
z
" style="fill:none;"/>
  </g>
  <g id="axes_1">
   <g id="patch_2">
    <path d="M 26.925 224.64 
L 361.725 224.64 
L 361.725 7.2 
L 26.925 7.2 
z
" style="fill:#ffffff;"/>
   </g>
   <g id="matplotlib.axis_1">
    <g id="xtick_1">
     <g id="line2d_1">
      <defs>
       <path d="M 0 0 
L 0 3.5 
" id="md5c20ed697" style="stroke:#000000;stroke-width:0.8;"/>
      </defs>
      <g>
       <use style="stroke:#000000;stroke-width:0.8;" x="42.143182" xlink:href="#md5c20ed697" y="224.64"/>
      </g>
     </g>
     <g id="text_1">
      <!-- 0.0 -->
      <g transform="translate(34.191619 239.238437)scale(0.1 -0.1)">
       <defs>
        <path d="M 31.78125 66.40625 
Q 24.171875 66.40625 20.328125 58.90625 
Q 16.5 51.421875 16.5 36.375 
Q 16.5 21.390625 20.328125 13.890625 
Q 24.171875 6.390625 31.78125 6.390625 
Q 39.453125 6.390625 43.28125 13.890625 
Q 47.125 21.390625 47.125 36.375 
Q 47.125 51.421875 43.28125 58.90625 
Q 39.453125 66.40625 31.78125 66.40625 
z
M 31.78125 74.21875 
Q 44.046875 74.21875 50.515625 64.515625 
Q 56.984375 54.828125 56.984375 36.375 
Q 56.984375 17.96875 50.515625 8.265625 
Q 44.046875 -1.421875 31.78125 -1.421875 
Q 19.53125 -1.421875 13.0625 8.265625 
Q 6.59375 17.96875 6.59375 36.375 
Q 6.59375 54.828125 13.0625 64.515625 
Q 19.53125 74.21875 31.78125 74.21875 
z
" id="DejaVuSans-48"/>
        <path d="M 10.6875 12.40625 
L 21 12.40625 
L 21 0 
L 10.6875 0 
z
" id="DejaVuSans-46"/>
       </defs>
       <use xlink:href="#DejaVuSans-48"/>
       <use x="63.623047" xlink:href="#DejaVuSans-46"/>
       <use x="95.410156" xlink:href="#DejaVuSans-48"/>
      </g>
     </g>
    </g>
    <g id="xtick_2">
     <g id="line2d_2">
      <g>
       <use style="stroke:#000000;stroke-width:0.8;" x="80.188636" xlink:href="#md5c20ed697" y="224.64"/>
      </g>
     </g>
     <g id="text_2">
      <!-- 2.5 -->
      <g transform="translate(72.237074 239.238437)scale(0.1 -0.1)">
       <defs>
        <path d="M 19.1875 8.296875 
L 53.609375 8.296875 
L 53.609375 0 
L 7.328125 0 
L 7.328125 8.296875 
Q 12.9375 14.109375 22.625 23.890625 
Q 32.328125 33.6875 34.8125 36.53125 
Q 39.546875 41.84375 41.421875 45.53125 
Q 43.3125 49.21875 43.3125 52.78125 
Q 43.3125 58.59375 39.234375 62.25 
Q 35.15625 65.921875 28.609375 65.921875 
Q 23.96875 65.921875 18.8125 64.3125 
Q 13.671875 62.703125 7.8125 59.421875 
L 7.8125 69.390625 
Q 13.765625 71.78125 18.9375 73 
Q 24.125 74.21875 28.421875 74.21875 
Q 39.75 74.21875 46.484375 68.546875 
Q 53.21875 62.890625 53.21875 53.421875 
Q 53.21875 48.921875 51.53125 44.890625 
Q 49.859375 40.875 45.40625 35.40625 
Q 44.1875 33.984375 37.640625 27.21875 
Q 31.109375 20.453125 19.1875 8.296875 
z
" id="DejaVuSans-50"/>
        <path d="M 10.796875 72.90625 
L 49.515625 72.90625 
L 49.515625 64.59375 
L 19.828125 64.59375 
L 19.828125 46.734375 
Q 21.96875 47.46875 24.109375 47.828125 
Q 26.265625 48.1875 28.421875 48.1875 
Q 40.625 48.1875 47.75 41.5 
Q 54.890625 34.8125 54.890625 23.390625 
Q 54.890625 11.625 47.5625 5.09375 
Q 40.234375 -1.421875 26.90625 -1.421875 
Q 22.3125 -1.421875 17.546875 -0.640625 
Q 12.796875 0.140625 7.71875 1.703125 
L 7.71875 11.625 
Q 12.109375 9.234375 16.796875 8.0625 
Q 21.484375 6.890625 26.703125 6.890625 
Q 35.15625 6.890625 40.078125 11.328125 
Q 45.015625 15.765625 45.015625 23.390625 
Q 45.015625 31 40.078125 35.4375 
Q 35.15625 39.890625 26.703125 39.890625 
Q 22.75 39.890625 18.8125 39.015625 
Q 14.890625 38.140625 10.796875 36.28125 
z
" id="DejaVuSans-53"/>
       </defs>
       <use xlink:href="#DejaVuSans-50"/>
       <use x="63.623047" xlink:href="#DejaVuSans-46"/>
       <use x="95.410156" xlink:href="#DejaVuSans-53"/>
      </g>
     </g>
    </g>
    <g id="xtick_3">
     <g id="line2d_3">
      <g>
       <use style="stroke:#000000;stroke-width:0.8;" x="118.234091" xlink:href="#md5c20ed697" y="224.64"/>
      </g>
     </g>
     <g id="text_3">
      <!-- 5.0 -->
      <g transform="translate(110.282528 239.238437)scale(0.1 -0.1)">
       <use xlink:href="#DejaVuSans-53"/>
       <use x="63.623047" xlink:href="#DejaVuSans-46"/>
       <use x="95.410156" xlink:href="#DejaVuSans-48"/>
      </g>
     </g>
    </g>
    <g id="xtick_4">
     <g id="line2d_4">
      <g>
       <use style="stroke:#000000;stroke-width:0.8;" x="156.279545" xlink:href="#md5c20ed697" y="224.64"/>
      </g>
     </g>
     <g id="text_4">
      <!-- 7.5 -->
      <g transform="translate(148.327983 239.238437)scale(0.1 -0.1)">
       <defs>
        <path d="M 8.203125 72.90625 
L 55.078125 72.90625 
L 55.078125 68.703125 
L 28.609375 0 
L 18.3125 0 
L 43.21875 64.59375 
L 8.203125 64.59375 
z
" id="DejaVuSans-55"/>
       </defs>
       <use xlink:href="#DejaVuSans-55"/>
       <use x="63.623047" xlink:href="#DejaVuSans-46"/>
       <use x="95.410156" xlink:href="#DejaVuSans-53"/>
      </g>
     </g>
    </g>
    <g id="xtick_5">
     <g id="line2d_5">
      <g>
       <use style="stroke:#000000;stroke-width:0.8;" x="194.325" xlink:href="#md5c20ed697" y="224.64"/>
      </g>
     </g>
     <g id="text_5">
      <!-- 10.0 -->
      <g transform="translate(183.192188 239.238437)scale(0.1 -0.1)">
       <defs>
        <path d="M 12.40625 8.296875 
L 28.515625 8.296875 
L 28.515625 63.921875 
L 10.984375 60.40625 
L 10.984375 69.390625 
L 28.421875 72.90625 
L 38.28125 72.90625 
L 38.28125 8.296875 
L 54.390625 8.296875 
L 54.390625 0 
L 12.40625 0 
z
" id="DejaVuSans-49"/>
       </defs>
       <use xlink:href="#DejaVuSans-49"/>
       <use x="63.623047" xlink:href="#DejaVuSans-48"/>
       <use x="127.246094" xlink:href="#DejaVuSans-46"/>
       <use x="159.033203" xlink:href="#DejaVuSans-48"/>
      </g>
     </g>
    </g>
    <g id="xtick_6">
     <g id="line2d_6">
      <g>
       <use style="stroke:#000000;stroke-width:0.8;" x="232.370455" xlink:href="#md5c20ed697" y="224.64"/>
      </g>
     </g>
     <g id="text_6">
      <!-- 12.5 -->
      <g transform="translate(221.237642 239.238437)scale(0.1 -0.1)">
       <use xlink:href="#DejaVuSans-49"/>
       <use x="63.623047" xlink:href="#DejaVuSans-50"/>
       <use x="127.246094" xlink:href="#DejaVuSans-46"/>
       <use x="159.033203" xlink:href="#DejaVuSans-53"/>
      </g>
     </g>
    </g>
    <g id="xtick_7">
     <g id="line2d_7">
      <g>
       <use style="stroke:#000000;stroke-width:0.8;" x="270.415909" xlink:href="#md5c20ed697" y="224.64"/>
      </g>
     </g>
     <g id="text_7">
      <!-- 15.0 -->
      <g transform="translate(259.283097 239.238437)scale(0.1 -0.1)">
       <use xlink:href="#DejaVuSans-49"/>
       <use x="63.623047" xlink:href="#DejaVuSans-53"/>
       <use x="127.246094" xlink:href="#DejaVuSans-46"/>
       <use x="159.033203" xlink:href="#DejaVuSans-48"/>
      </g>
     </g>
    </g>
    <g id="xtick_8">
     <g id="line2d_8">
      <g>
       <use style="stroke:#000000;stroke-width:0.8;" x="308.461364" xlink:href="#md5c20ed697" y="224.64"/>
      </g>
     </g>
     <g id="text_8">
      <!-- 17.5 -->
      <g transform="translate(297.328551 239.238437)scale(0.1 -0.1)">
       <use xlink:href="#DejaVuSans-49"/>
       <use x="63.623047" xlink:href="#DejaVuSans-55"/>
       <use x="127.246094" xlink:href="#DejaVuSans-46"/>
       <use x="159.033203" xlink:href="#DejaVuSans-53"/>
      </g>
     </g>
    </g>
    <g id="xtick_9">
     <g id="line2d_9">
      <g>
       <use style="stroke:#000000;stroke-width:0.8;" x="346.506818" xlink:href="#md5c20ed697" y="224.64"/>
      </g>
     </g>
     <g id="text_9">
      <!-- 20.0 -->
      <g transform="translate(335.374006 239.238437)scale(0.1 -0.1)">
       <use xlink:href="#DejaVuSans-50"/>
       <use x="63.623047" xlink:href="#DejaVuSans-48"/>
       <use x="127.246094" xlink:href="#DejaVuSans-46"/>
       <use x="159.033203" xlink:href="#DejaVuSans-48"/>
      </g>
     </g>
    </g>
   </g>
   <g id="matplotlib.axis_2">
    <g id="ytick_1">
     <g id="line2d_10">
      <defs>
       <path d="M 0 0 
L -3.5 0 
" id="mf264fafa6b" style="stroke:#000000;stroke-width:0.8;"/>
      </defs>
      <g>
       <use style="stroke:#000000;stroke-width:0.8;" x="26.925" xlink:href="#mf264fafa6b" y="209.06293"/>
      </g>
     </g>
     <g id="text_10">
      <!-- 0 -->
      <g transform="translate(13.5625 212.862149)scale(0.1 -0.1)">
       <use xlink:href="#DejaVuSans-48"/>
      </g>
     </g>
    </g>
    <g id="ytick_2">
     <g id="line2d_11">
      <g>
       <use style="stroke:#000000;stroke-width:0.8;" x="26.925" xlink:href="#mf264fafa6b" y="173.318792"/>
      </g>
     </g>
     <g id="text_11">
      <!-- 2 -->
      <g transform="translate(13.5625 177.11801)scale(0.1 -0.1)">
       <use xlink:href="#DejaVuSans-50"/>
      </g>
     </g>
    </g>
    <g id="ytick_3">
     <g id="line2d_12">
      <g>
       <use style="stroke:#000000;stroke-width:0.8;" x="26.925" xlink:href="#mf264fafa6b" y="137.574653"/>
      </g>
     </g>
     <g id="text_12">
      <!-- 4 -->
      <g transform="translate(13.5625 141.373872)scale(0.1 -0.1)">
       <defs>
        <path d="M 37.796875 64.3125 
L 12.890625 25.390625 
L 37.796875 25.390625 
z
M 35.203125 72.90625 
L 47.609375 72.90625 
L 47.609375 25.390625 
L 58.015625 25.390625 
L 58.015625 17.1875 
L 47.609375 17.1875 
L 47.609375 0 
L 37.796875 0 
L 37.796875 17.1875 
L 4.890625 17.1875 
L 4.890625 26.703125 
z
" id="DejaVuSans-52"/>
       </defs>
       <use xlink:href="#DejaVuSans-52"/>
      </g>
     </g>
    </g>
    <g id="ytick_4">
     <g id="line2d_13">
      <g>
       <use style="stroke:#000000;stroke-width:0.8;" x="26.925" xlink:href="#mf264fafa6b" y="101.830515"/>
      </g>
     </g>
     <g id="text_13">
      <!-- 6 -->
      <g transform="translate(13.5625 105.629734)scale(0.1 -0.1)">
       <defs>
        <path d="M 33.015625 40.375 
Q 26.375 40.375 22.484375 35.828125 
Q 18.609375 31.296875 18.609375 23.390625 
Q 18.609375 15.53125 22.484375 10.953125 
Q 26.375 6.390625 33.015625 6.390625 
Q 39.65625 6.390625 43.53125 10.953125 
Q 47.40625 15.53125 47.40625 23.390625 
Q 47.40625 31.296875 43.53125 35.828125 
Q 39.65625 40.375 33.015625 40.375 
z
M 52.59375 71.296875 
L 52.59375 62.3125 
Q 48.875 64.0625 45.09375 64.984375 
Q 41.3125 65.921875 37.59375 65.921875 
Q 27.828125 65.921875 22.671875 59.328125 
Q 17.53125 52.734375 16.796875 39.40625 
Q 19.671875 43.65625 24.015625 45.921875 
Q 28.375 48.1875 33.59375 48.1875 
Q 44.578125 48.1875 50.953125 41.515625 
Q 57.328125 34.859375 57.328125 23.390625 
Q 57.328125 12.15625 50.6875 5.359375 
Q 44.046875 -1.421875 33.015625 -1.421875 
Q 20.359375 -1.421875 13.671875 8.265625 
Q 6.984375 17.96875 6.984375 36.375 
Q 6.984375 53.65625 15.1875 63.9375 
Q 23.390625 74.21875 37.203125 74.21875 
Q 40.921875 74.21875 44.703125 73.484375 
Q 48.484375 72.75 52.59375 71.296875 
z
" id="DejaVuSans-54"/>
       </defs>
       <use xlink:href="#DejaVuSans-54"/>
      </g>
     </g>
    </g>
    <g id="ytick_5">
     <g id="line2d_14">
      <g>
       <use style="stroke:#000000;stroke-width:0.8;" x="26.925" xlink:href="#mf264fafa6b" y="66.086377"/>
      </g>
     </g>
     <g id="text_14">
      <!-- 8 -->
      <g transform="translate(13.5625 69.885596)scale(0.1 -0.1)">
       <defs>
        <path d="M 31.78125 34.625 
Q 24.75 34.625 20.71875 30.859375 
Q 16.703125 27.09375 16.703125 20.515625 
Q 16.703125 13.921875 20.71875 10.15625 
Q 24.75 6.390625 31.78125 6.390625 
Q 38.8125 6.390625 42.859375 10.171875 
Q 46.921875 13.96875 46.921875 20.515625 
Q 46.921875 27.09375 42.890625 30.859375 
Q 38.875 34.625 31.78125 34.625 
z
M 21.921875 38.8125 
Q 15.578125 40.375 12.03125 44.71875 
Q 8.5 49.078125 8.5 55.328125 
Q 8.5 64.0625 14.71875 69.140625 
Q 20.953125 74.21875 31.78125 74.21875 
Q 42.671875 74.21875 48.875 69.140625 
Q 55.078125 64.0625 55.078125 55.328125 
Q 55.078125 49.078125 51.53125 44.71875 
Q 48 40.375 41.703125 38.8125 
Q 48.828125 37.15625 52.796875 32.3125 
Q 56.78125 27.484375 56.78125 20.515625 
Q 56.78125 9.90625 50.3125 4.234375 
Q 43.84375 -1.421875 31.78125 -1.421875 
Q 19.734375 -1.421875 13.25 4.234375 
Q 6.78125 9.90625 6.78125 20.515625 
Q 6.78125 27.484375 10.78125 32.3125 
Q 14.796875 37.15625 21.921875 38.8125 
z
M 18.3125 54.390625 
Q 18.3125 48.734375 21.84375 45.5625 
Q 25.390625 42.390625 31.78125 42.390625 
Q 38.140625 42.390625 41.71875 45.5625 
Q 45.3125 48.734375 45.3125 54.390625 
Q 45.3125 60.0625 41.71875 63.234375 
Q 38.140625 66.40625 31.78125 66.40625 
Q 25.390625 66.40625 21.84375 63.234375 
Q 18.3125 60.0625 18.3125 54.390625 
z
" id="DejaVuSans-56"/>
       </defs>
       <use xlink:href="#DejaVuSans-56"/>
      </g>
     </g>
    </g>
    <g id="ytick_6">
     <g id="line2d_15">
      <g>
       <use style="stroke:#000000;stroke-width:0.8;" x="26.925" xlink:href="#mf264fafa6b" y="30.342239"/>
      </g>
     </g>
     <g id="text_15">
      <!-- 10 -->
      <g transform="translate(7.2 34.141457)scale(0.1 -0.1)">
       <use xlink:href="#DejaVuSans-49"/>
       <use x="63.623047" xlink:href="#DejaVuSans-48"/>
      </g>
     </g>
    </g>
   </g>
   <g id="line2d_16">
    <path clip-path="url(#pab55933e57)" d="M 42.143182 208.675928 
L 42.904091 208.719411 
L 43.665 211.687997 
L 45.186818 202.175624 
L 45.947727 201.445318 
L 46.708636 208.719054 
L 47.469545 207.712374 
L 48.230455 205.608188 
L 48.991364 204.816348 
L 49.752273 210.97651 
L 50.513182 205.362947 
L 51.274091 207.21351 
L 52.035 205.934728 
L 52.795909 208.668422 
L 53.556818 207.80277 
L 54.317727 201.841881 
L 55.839545 211.54091 
L 56.600455 206.385998 
L 57.361364 205.263596 
L 58.122273 206.672648 
L 58.883182 205.666075 
L 59.644091 213.606493 
L 60.405 204.537508 
L 61.165909 207.996629 
L 61.926818 205.711327 
L 62.687727 204.528 
L 63.448636 209.729665 
L 64.209545 207.623996 
L 64.970455 208.837617 
L 65.731364 205.051097 
L 66.492273 204.212182 
L 67.253182 206.952721 
L 68.014091 210.452001 
L 68.775 206.126013 
L 69.535909 208.605155 
L 70.296818 209.686022 
L 71.057727 207.830329 
L 71.818636 210.908007 
L 72.579545 207.875885 
L 73.340455 204.204408 
L 74.101364 206.577837 
L 74.862273 206.167047 
L 75.623182 209.676782 
L 76.384091 206.635689 
L 77.145 207.850167 
L 77.905909 211.954488 
L 78.666818 206.315957 
L 79.427727 207.793048 
L 80.188636 209.93884 
L 80.949545 205.429431 
L 81.710455 206.179433 
L 82.471364 205.501402 
L 83.232273 204.551734 
L 83.993182 202.709177 
L 84.754091 210.808602 
L 85.515 204.513899 
L 86.275909 205.181349 
L 87.036818 206.303929 
L 87.797727 210.168854 
L 88.558636 206.769175 
L 89.319545 205.382338 
L 90.080455 202.813693 
L 90.841364 207.53771 
L 91.602273 206.818323 
L 92.363182 204.516615 
L 93.124091 208.947548 
L 93.885 207.567503 
L 94.645909 206.799861 
L 95.406818 206.703317 
L 96.167727 202.499752 
L 97.689545 209.135383 
L 98.450455 207.774139 
L 99.211364 202.213174 
L 99.972273 205.092328 
L 100.733182 207.300833 
L 101.494091 203.262407 
L 102.255 206.821433 
L 103.015909 205.230855 
L 103.776818 203.924728 
L 104.537727 204.942006 
L 105.298636 206.542343 
L 106.059545 202.964605 
L 106.820455 206.149908 
L 107.581364 205.940018 
L 108.342273 200.428987 
L 109.103182 197.723084 
L 109.864091 206.341586 
L 110.625 201.184654 
L 111.385909 206.823935 
L 112.146818 203.65545 
L 112.907727 198.113178 
L 113.668636 209.478027 
L 114.429545 200.462908 
L 115.190455 207.256135 
L 115.951364 198.836586 
L 116.712273 202.010165 
L 117.473182 200.82253 
L 118.234091 210.965251 
L 118.995 197.705141 
L 119.755909 201.187156 
L 120.516818 203.05829 
L 121.277727 198.92239 
L 122.038636 198.54234 
L 122.799545 207.252329 
L 123.560455 202.436503 
L 124.321364 199.556794 
L 125.082273 202.860178 
L 125.843182 202.131034 
L 126.604091 201.641678 
L 127.365 200.845353 
L 128.125909 199.066903 
L 128.886818 199.639488 
L 129.647727 197.281269 
L 130.408636 197.505867 
L 131.169545 193.476216 
L 131.930455 200.013658 
L 132.691364 194.178338 
L 133.452273 197.227545 
L 134.213182 197.155843 
L 134.974091 195.739553 
L 135.735 195.242405 
L 136.495909 194.392749 
L 137.256818 192.087449 
L 138.017727 191.195365 
L 138.778636 187.707273 
L 139.539545 192.125642 
L 140.300455 190.571254 
L 141.061364 191.10747 
L 141.822273 188.408144 
L 142.583182 181.515763 
L 143.344091 185.071071 
L 144.105 182.648262 
L 144.865909 184.476771 
L 145.626818 177.53694 
L 146.387727 179.781243 
L 147.148636 179.526887 
L 147.909545 171.077223 
L 148.670455 176.069643 
L 149.431364 173.165199 
L 150.192273 173.902726 
L 150.953182 165.797707 
L 151.714091 155.69098 
L 152.475 158.73395 
L 153.235909 159.391374 
L 153.996818 165.229786 
L 154.757727 152.177796 
L 155.518636 149.277123 
L 156.279545 151.684545 
L 157.040455 144.174415 
L 157.801364 141.390573 
L 158.562273 132.421993 
L 159.323182 135.648205 
L 160.084091 133.582194 
L 160.845 122.878683 
L 161.605909 122.334658 
L 162.366818 116.958114 
L 163.127727 110.039961 
L 164.649545 102.448353 
L 165.410455 103.733801 
L 166.171364 92.530266 
L 167.693182 84.265649 
L 168.454091 86.249449 
L 169.215 77.138643 
L 169.975909 78.682379 
L 170.736818 70.193021 
L 171.497727 68.67595 
L 172.258636 62.892727 
L 173.019545 52.900972 
L 173.780455 54.302821 
L 174.541364 52.46811 
L 175.302273 42.398611 
L 176.063182 35.814988 
L 176.824091 39.400554 
L 177.585 33.198678 
L 178.345909 37.64507 
L 179.106818 32.232782 
L 179.867727 34.245159 
L 180.628636 34.147899 
L 181.389545 31.334424 
L 182.911364 22.25704 
L 183.672273 26.797278 
L 184.433182 26.40688 
L 185.194091 28.706605 
L 185.955 33.84595 
L 186.715909 30.763001 
L 187.476818 36.687252 
L 188.237727 36.554713 
L 188.998636 41.691074 
L 189.759545 45.684302 
L 190.520455 46.00616 
L 191.281364 54.095327 
L 192.042273 51.238941 
L 192.803182 55.136839 
L 193.564091 62.501865 
L 195.085909 69.910106 
L 195.846818 70.924167 
L 196.607727 78.82691 
L 197.368636 88.0047 
L 198.129545 87.161514 
L 198.890455 87.693851 
L 199.651364 96.030171 
L 200.412273 100.463266 
L 201.173182 105.959446 
L 201.934091 105.636622 
L 202.695 109.806998 
L 203.455909 117.427202 
L 204.216818 121.44949 
L 204.977727 120.955577 
L 205.738636 134.515563 
L 206.499545 132.145798 
L 207.260455 141.729105 
L 208.782273 140.883542 
L 210.304091 154.045088 
L 211.065 159.204379 
L 211.825909 162.235786 
L 212.586818 165.876308 
L 213.347727 165.620076 
L 214.108636 168.518622 
L 214.869545 169.109955 
L 215.630455 167.754091 
L 216.391364 173.225482 
L 217.152273 173.850861 
L 217.913182 174.963344 
L 218.674091 177.822196 
L 219.435 182.581706 
L 220.195909 181.912987 
L 220.956818 177.293218 
L 221.717727 188.767516 
L 222.478636 185.009609 
L 223.239545 190.354859 
L 224.000455 190.469258 
L 224.761364 193.183346 
L 225.522273 191.281258 
L 226.283182 191.154956 
L 227.044091 186.97593 
L 227.805 190.640508 
L 228.565909 193.083352 
L 229.326818 194.061401 
L 230.087727 198.969447 
L 230.848636 199.357968 
L 231.609545 189.980421 
L 232.370455 198.893026 
L 233.131364 199.301277 
L 233.892273 195.341631 
L 234.653182 202.40033 
L 235.414091 200.018966 
L 236.175 207.382848 
L 236.935909 197.311133 
L 237.696818 196.733937 
L 238.457727 204.861671 
L 239.218636 199.914575 
L 239.979545 200.203209 
L 240.740455 196.191323 
L 241.501364 200.860151 
L 242.262273 199.856956 
L 243.023182 201.064822 
L 243.784091 203.533705 
L 244.545 203.057915 
L 245.305909 201.847207 
L 246.066818 205.956067 
L 246.827727 199.36794 
L 247.588636 201.275927 
L 248.349545 200.076836 
L 249.110455 204.474133 
L 249.871364 204.242047 
L 250.632273 205.415062 
L 251.393182 205.137259 
L 252.154091 198.409282 
L 252.915 204.190933 
L 253.675909 204.985864 
L 254.436818 203.555473 
L 255.197727 207.895384 
L 255.958636 200.282525 
L 256.719545 200.219509 
L 257.480455 203.312002 
L 258.241364 205.537361 
L 259.002273 198.301067 
L 259.763182 206.292473 
L 260.524091 203.104954 
L 261.285 204.415513 
L 262.045909 206.398383 
L 262.806818 206.117291 
L 263.567727 208.490827 
L 264.328636 200.826051 
L 265.089545 204.140551 
L 265.850455 202.927306 
L 266.611364 202.827401 
L 267.372273 203.071355 
L 268.133182 205.063679 
L 268.894091 208.061719 
L 269.655 206.448836 
L 270.415909 203.773209 
L 271.176818 208.540065 
L 271.937727 205.690113 
L 272.698636 205.743854 
L 273.459545 209.245726 
L 274.220455 210.411163 
L 274.981364 209.956122 
L 275.742273 206.265147 
L 276.503182 206.58461 
L 277.264091 201.367163 
L 278.025 207.146454 
L 278.785909 204.262331 
L 279.546818 205.629473 
L 280.307727 210.65501 
L 281.068636 207.693054 
L 281.829545 200.223297 
L 282.590455 203.62319 
L 283.351364 203.48856 
L 284.873182 209.693778 
L 285.634091 201.154236 
L 286.395 206.75368 
L 287.155909 205.442085 
L 287.916818 209.745607 
L 288.677727 206.115039 
L 289.438636 207.459323 
L 290.199545 209.587261 
L 290.960455 203.313825 
L 291.721364 209.028848 
L 293.243182 196.440817 
L 294.004091 205.678335 
L 294.765 205.354404 
L 295.525909 204.545228 
L 296.286818 203.02839 
L 298.569545 212.643081 
L 299.330455 207.925909 
L 300.091364 208.803553 
L 300.852273 207.438752 
L 301.613182 204.386757 
L 302.374091 206.547776 
L 303.135 202.781523 
L 303.895909 213.047812 
L 304.656818 205.622128 
L 305.417727 210.551959 
L 306.939545 202.062137 
L 307.700455 210.695704 
L 308.461364 211.187669 
L 309.222273 210.043106 
L 309.983182 205.840685 
L 310.744091 207.894115 
L 311.505 203.361472 
L 312.265909 206.090305 
L 313.026818 205.365646 
L 313.787727 207.121934 
L 314.548636 207.534993 
L 315.309545 204.225265 
L 316.070455 204.763 
L 316.831364 203.704491 
L 317.592273 209.777956 
L 318.353182 203.589091 
L 319.114091 209.732007 
L 319.875 208.95341 
L 320.635909 205.055458 
L 321.396818 208.085489 
L 322.157727 206.562306 
L 322.918636 210.48569 
L 323.679545 212.912359 
L 324.440455 210.19282 
L 325.201364 208.838457 
L 325.962273 211.536138 
L 326.723182 203.225519 
L 328.245 210.010311 
L 329.005909 209.580505 
L 329.766818 208.112297 
L 330.527727 204.783284 
L 331.288636 205.022609 
L 332.049545 209.35798 
L 332.810455 206.286254 
L 333.571364 205.732935 
L 334.332273 207.688943 
L 335.093182 205.763031 
L 335.854091 205.578252 
L 336.615 206.313759 
L 337.375909 207.658203 
L 338.136818 207.595169 
L 338.897727 207.820517 
L 339.658636 206.041835 
L 341.180455 211.663906 
L 341.941364 214.688271 
L 342.702273 201.740958 
L 343.463182 210.335725 
L 344.224091 214.756364 
L 344.985 206.219502 
L 345.745909 209.316535 
L 346.506818 210.69776 
L 346.506818 210.69776 
" style="fill:none;stroke:#0000ff;stroke-linecap:square;stroke-width:1.5;"/>
   </g>
   <g id="line2d_17">
    <path clip-path="url(#pab55933e57)" d="M 42.143182 206.112903 
L 57.361364 205.368463 
L 69.535909 204.551419 
L 79.427727 203.672318 
L 87.797727 202.713686 
L 94.645909 201.72835 
L 100.733182 200.649722 
L 106.059545 199.501894 
L 110.625 198.324299 
L 115.190455 196.920424 
L 118.995 195.534852 
L 122.799545 193.905339 
L 125.843182 192.387264 
L 128.886818 190.637953 
L 131.930455 188.61016 
L 134.974091 186.244677 
L 137.256818 184.204736 
L 139.539545 181.894597 
L 141.822273 179.267937 
L 144.105 176.269129 
L 146.387727 172.831314 
L 148.670455 168.874193 
L 150.953182 164.301649 
L 153.235909 158.999434 
L 154.757727 154.993891 
L 156.279545 150.560219 
L 157.801364 145.650141 
L 159.323182 140.21264 
L 160.845 134.195581 
L 162.366818 127.548461 
L 164.649545 116.302225 
L 166.932273 103.453451 
L 169.215 89.058432 
L 172.258636 68.058606 
L 176.063182 41.84069 
L 177.585 32.758185 
L 179.106818 25.30835 
L 179.867727 22.368827 
L 180.628636 20.034094 
L 181.389545 18.353127 
L 182.150455 17.362335 
L 182.911364 17.083636 
L 183.672273 17.523256 
L 184.433182 18.671384 
L 185.194091 20.502721 
L 185.955 22.977846 
L 186.715909 26.045285 
L 188.237727 33.706629 
L 189.759545 42.93642 
L 192.042273 58.488212 
L 196.607727 90.183824 
L 198.890455 104.470057 
L 201.173182 117.19852 
L 203.455909 128.327201 
L 205.738636 137.950935 
L 208.021364 146.226418 
L 210.304091 153.327961 
L 212.586818 159.424186 
L 214.869545 164.667428 
L 217.152273 169.190218 
L 219.435 173.105375 
L 221.717727 176.507751 
L 224.000455 179.476558 
L 226.283182 182.077741 
L 228.565909 184.366168 
L 230.848636 186.387535 
L 233.892273 188.732257 
L 236.935909 190.742984 
L 239.979545 192.478168 
L 243.023182 193.984469 
L 246.827727 195.60189 
L 250.632273 196.977662 
L 255.197727 198.372098 
L 259.763182 199.542187 
L 265.089545 200.683091 
L 271.176818 201.755597 
L 278.025 202.735694 
L 286.395 203.689583 
L 295.525909 204.505171 
L 306.939545 205.289181 
L 320.635909 205.990613 
L 337.375909 206.612085 
L 346.506818 206.874869 
L 346.506818 206.874869 
" style="fill:none;stroke:#ff0000;stroke-linecap:square;stroke-width:1.5;"/>
   </g>
   <g id="patch_3">
    <path d="M 26.925 224.64 
L 26.925 7.2 
" style="fill:none;stroke:#000000;stroke-linecap:square;stroke-linejoin:miter;stroke-width:0.8;"/>
   </g>
   <g id="patch_4">
    <path d="M 361.725 224.64 
L 361.725 7.2 
" style="fill:none;stroke:#000000;stroke-linecap:square;stroke-linejoin:miter;stroke-width:0.8;"/>
   </g>
   <g id="patch_5">
    <path d="M 26.925 224.64 
L 361.725 224.64 
" style="fill:none;stroke:#000000;stroke-linecap:square;stroke-linejoin:miter;stroke-width:0.8;"/>
   </g>
   <g id="patch_6">
    <path d="M 26.925 7.2 
L 361.725 7.2 
" style="fill:none;stroke:#000000;stroke-linecap:square;stroke-linejoin:miter;stroke-width:0.8;"/>
   </g>
   <g id="legend_1">
    <g id="patch_7">
     <path d="M 237.215625 29.878125 
L 354.725 29.878125 
Q 356.725 29.878125 356.725 27.878125 
L 356.725 14.2 
Q 356.725 12.2 354.725 12.2 
L 237.215625 12.2 
Q 235.215625 12.2 235.215625 14.2 
L 235.215625 27.878125 
Q 235.215625 29.878125 237.215625 29.878125 
z
" style="fill:#ffffff;opacity:0.8;stroke:#cccccc;stroke-linejoin:miter;"/>
    </g>
    <g id="line2d_18">
     <path d="M 239.215625 20.298437 
L 259.215625 20.298437 
" style="fill:none;stroke:#ff0000;stroke-linecap:square;stroke-width:1.5;"/>
    </g>
    <g id="line2d_19"/>
    <g id="text_16">
     <!-- Lorentzian Model -->
     <g transform="translate(267.215625 23.798437)scale(0.1 -0.1)">
      <defs>
       <path d="M 9.8125 72.90625 
L 19.671875 72.90625 
L 19.671875 8.296875 
L 55.171875 8.296875 
L 55.171875 0 
L 9.8125 0 
z
" id="DejaVuSans-76"/>
       <path d="M 30.609375 48.390625 
Q 23.390625 48.390625 19.1875 42.75 
Q 14.984375 37.109375 14.984375 27.296875 
Q 14.984375 17.484375 19.15625 11.84375 
Q 23.34375 6.203125 30.609375 6.203125 
Q 37.796875 6.203125 41.984375 11.859375 
Q 46.1875 17.53125 46.1875 27.296875 
Q 46.1875 37.015625 41.984375 42.703125 
Q 37.796875 48.390625 30.609375 48.390625 
z
M 30.609375 56 
Q 42.328125 56 49.015625 48.375 
Q 55.71875 40.765625 55.71875 27.296875 
Q 55.71875 13.875 49.015625 6.21875 
Q 42.328125 -1.421875 30.609375 -1.421875 
Q 18.84375 -1.421875 12.171875 6.21875 
Q 5.515625 13.875 5.515625 27.296875 
Q 5.515625 40.765625 12.171875 48.375 
Q 18.84375 56 30.609375 56 
z
" id="DejaVuSans-111"/>
       <path d="M 41.109375 46.296875 
Q 39.59375 47.171875 37.8125 47.578125 
Q 36.03125 48 33.890625 48 
Q 26.265625 48 22.1875 43.046875 
Q 18.109375 38.09375 18.109375 28.8125 
L 18.109375 0 
L 9.078125 0 
L 9.078125 54.6875 
L 18.109375 54.6875 
L 18.109375 46.1875 
Q 20.953125 51.171875 25.484375 53.578125 
Q 30.03125 56 36.53125 56 
Q 37.453125 56 38.578125 55.875 
Q 39.703125 55.765625 41.0625 55.515625 
z
" id="DejaVuSans-114"/>
       <path d="M 56.203125 29.59375 
L 56.203125 25.203125 
L 14.890625 25.203125 
Q 15.484375 15.921875 20.484375 11.0625 
Q 25.484375 6.203125 34.421875 6.203125 
Q 39.59375 6.203125 44.453125 7.46875 
Q 49.3125 8.734375 54.109375 11.28125 
L 54.109375 2.78125 
Q 49.265625 0.734375 44.1875 -0.34375 
Q 39.109375 -1.421875 33.890625 -1.421875 
Q 20.796875 -1.421875 13.15625 6.1875 
Q 5.515625 13.8125 5.515625 26.8125 
Q 5.515625 40.234375 12.765625 48.109375 
Q 20.015625 56 32.328125 56 
Q 43.359375 56 49.78125 48.890625 
Q 56.203125 41.796875 56.203125 29.59375 
z
M 47.21875 32.234375 
Q 47.125 39.59375 43.09375 43.984375 
Q 39.0625 48.390625 32.421875 48.390625 
Q 24.90625 48.390625 20.390625 44.140625 
Q 15.875 39.890625 15.1875 32.171875 
z
" id="DejaVuSans-101"/>
       <path d="M 54.890625 33.015625 
L 54.890625 0 
L 45.90625 0 
L 45.90625 32.71875 
Q 45.90625 40.484375 42.875 44.328125 
Q 39.84375 48.1875 33.796875 48.1875 
Q 26.515625 48.1875 22.3125 43.546875 
Q 18.109375 38.921875 18.109375 30.90625 
L 18.109375 0 
L 9.078125 0 
L 9.078125 54.6875 
L 18.109375 54.6875 
L 18.109375 46.1875 
Q 21.34375 51.125 25.703125 53.5625 
Q 30.078125 56 35.796875 56 
Q 45.21875 56 50.046875 50.171875 
Q 54.890625 44.34375 54.890625 33.015625 
z
" id="DejaVuSans-110"/>
       <path d="M 18.3125 70.21875 
L 18.3125 54.6875 
L 36.8125 54.6875 
L 36.8125 47.703125 
L 18.3125 47.703125 
L 18.3125 18.015625 
Q 18.3125 11.328125 20.140625 9.421875 
Q 21.96875 7.515625 27.59375 7.515625 
L 36.8125 7.515625 
L 36.8125 0 
L 27.59375 0 
Q 17.1875 0 13.234375 3.875 
Q 9.28125 7.765625 9.28125 18.015625 
L 9.28125 47.703125 
L 2.6875 47.703125 
L 2.6875 54.6875 
L 9.28125 54.6875 
L 9.28125 70.21875 
z
" id="DejaVuSans-116"/>
       <path d="M 5.515625 54.6875 
L 48.1875 54.6875 
L 48.1875 46.484375 
L 14.40625 7.171875 
L 48.1875 7.171875 
L 48.1875 0 
L 4.296875 0 
L 4.296875 8.203125 
L 38.09375 47.515625 
L 5.515625 47.515625 
z
" id="DejaVuSans-122"/>
       <path d="M 9.421875 54.6875 
L 18.40625 54.6875 
L 18.40625 0 
L 9.421875 0 
z
M 9.421875 75.984375 
L 18.40625 75.984375 
L 18.40625 64.59375 
L 9.421875 64.59375 
z
" id="DejaVuSans-105"/>
       <path d="M 34.28125 27.484375 
Q 23.390625 27.484375 19.1875 25 
Q 14.984375 22.515625 14.984375 16.5 
Q 14.984375 11.71875 18.140625 8.90625 
Q 21.296875 6.109375 26.703125 6.109375 
Q 34.1875 6.109375 38.703125 11.40625 
Q 43.21875 16.703125 43.21875 25.484375 
L 43.21875 27.484375 
z
M 52.203125 31.203125 
L 52.203125 0 
L 43.21875 0 
L 43.21875 8.296875 
Q 40.140625 3.328125 35.546875 0.953125 
Q 30.953125 -1.421875 24.3125 -1.421875 
Q 15.921875 -1.421875 10.953125 3.296875 
Q 6 8.015625 6 15.921875 
Q 6 25.140625 12.171875 29.828125 
Q 18.359375 34.515625 30.609375 34.515625 
L 43.21875 34.515625 
L 43.21875 35.40625 
Q 43.21875 41.609375 39.140625 45 
Q 35.0625 48.390625 27.6875 48.390625 
Q 23 48.390625 18.546875 47.265625 
Q 14.109375 46.140625 10.015625 43.890625 
L 10.015625 52.203125 
Q 14.9375 54.109375 19.578125 55.046875 
Q 24.21875 56 28.609375 56 
Q 40.484375 56 46.34375 49.84375 
Q 52.203125 43.703125 52.203125 31.203125 
z
" id="DejaVuSans-97"/>
       <path id="DejaVuSans-32"/>
       <path d="M 9.8125 72.90625 
L 24.515625 72.90625 
L 43.109375 23.296875 
L 61.8125 72.90625 
L 76.515625 72.90625 
L 76.515625 0 
L 66.890625 0 
L 66.890625 64.015625 
L 48.09375 14.015625 
L 38.1875 14.015625 
L 19.390625 64.015625 
L 19.390625 0 
L 9.8125 0 
z
" id="DejaVuSans-77"/>
       <path d="M 45.40625 46.390625 
L 45.40625 75.984375 
L 54.390625 75.984375 
L 54.390625 0 
L 45.40625 0 
L 45.40625 8.203125 
Q 42.578125 3.328125 38.25 0.953125 
Q 33.9375 -1.421875 27.875 -1.421875 
Q 17.96875 -1.421875 11.734375 6.484375 
Q 5.515625 14.40625 5.515625 27.296875 
Q 5.515625 40.1875 11.734375 48.09375 
Q 17.96875 56 27.875 56 
Q 33.9375 56 38.25 53.625 
Q 42.578125 51.265625 45.40625 46.390625 
z
M 14.796875 27.296875 
Q 14.796875 17.390625 18.875 11.75 
Q 22.953125 6.109375 30.078125 6.109375 
Q 37.203125 6.109375 41.296875 11.75 
Q 45.40625 17.390625 45.40625 27.296875 
Q 45.40625 37.203125 41.296875 42.84375 
Q 37.203125 48.484375 30.078125 48.484375 
Q 22.953125 48.484375 18.875 42.84375 
Q 14.796875 37.203125 14.796875 27.296875 
z
" id="DejaVuSans-100"/>
       <path d="M 9.421875 75.984375 
L 18.40625 75.984375 
L 18.40625 0 
L 9.421875 0 
z
" id="DejaVuSans-108"/>
      </defs>
      <use xlink:href="#DejaVuSans-76"/>
      <use x="53.962891" xlink:href="#DejaVuSans-111"/>
      <use x="115.144531" xlink:href="#DejaVuSans-114"/>
      <use x="154.007812" xlink:href="#DejaVuSans-101"/>
      <use x="215.53125" xlink:href="#DejaVuSans-110"/>
      <use x="278.910156" xlink:href="#DejaVuSans-116"/>
      <use x="318.119141" xlink:href="#DejaVuSans-122"/>
      <use x="370.609375" xlink:href="#DejaVuSans-105"/>
      <use x="398.392578" xlink:href="#DejaVuSans-97"/>
      <use x="459.671875" xlink:href="#DejaVuSans-110"/>
      <use x="523.050781" xlink:href="#DejaVuSans-32"/>
      <use x="554.837891" xlink:href="#DejaVuSans-77"/>
      <use x="641.117188" xlink:href="#DejaVuSans-111"/>
      <use x="702.298828" xlink:href="#DejaVuSans-100"/>
      <use x="765.775391" xlink:href="#DejaVuSans-101"/>
      <use x="827.298828" xlink:href="#DejaVuSans-108"/>
     </g>
    </g>
   </g>
  </g>
 </g>
 <defs>
  <clipPath id="pab55933e57">
   <rect height="217.44" width="334.8" x="26.925" y="7.2"/>
  </clipPath>
 </defs>
</svg>
