<?xml version="1.0" encoding="utf-8" standalone="no"?>
<!DOCTYPE svg PUBLIC "-//W3C//DTD SVG 1.1//EN"
  "http://www.w3.org/Graphics/SVG/1.1/DTD/svg11.dtd">
<svg xmlns:xlink="http://www.w3.org/1999/xlink" width="754.7275pt" height="300.055723pt" viewBox="0 0 754.7275 300.055723" xmlns="http://www.w3.org/2000/svg" version="1.1">
 <metadata>
  <rdf:RDF xmlns:dc="http://purl.org/dc/elements/1.1/" xmlns:cc="http://creativecommons.org/ns#" xmlns:rdf="http://www.w3.org/1999/02/22-rdf-syntax-ns#">
   <cc:Work>
    <dc:type rdf:resource="http://purl.org/dc/dcmitype/StillImage"/>
    <dc:date>2024-04-04T21:26:23.979969</dc:date>
    <dc:format>image/svg+xml</dc:format>
    <dc:creator>
     <cc:Agent>
      <dc:title>Matplotlib v3.8.3, https://matplotlib.org/</dc:title>
     </cc:Agent>
    </dc:creator>
   </cc:Work>
  </rdf:RDF>
 </metadata>
 <defs>
  <style type="text/css">*{stroke-linejoin: round; stroke-linecap: butt}</style>
 </defs>
 <g id="figure_1">
  <g id="patch_1">
   <path d="M 0 300.055723 
L 754.7275 300.055723 
L 754.7275 0 
L 0 0 
z
" style="fill: #ffffff"/>
  </g>
  <g id="axes_1">
   <g id="patch_2">
    <path d="M 33.2875 276.177598 
L 357.942045 276.177598 
L 357.942045 10.065598 
L 33.2875 10.065598 
z
" style="fill: #ffffff"/>
   </g>
   <g id="matplotlib.axis_1">
    <g id="xtick_1">
     <g id="line2d_1">
      <defs>
       <path id="m2d925900c3" d="M 0 0 
L 0 3.5 
" style="stroke: #000000; stroke-width: 0.8"/>
      </defs>
      <g>
       <use xlink:href="#m2d925900c3" x="46.859222" y="276.177598" style="stroke: #000000; stroke-width: 0.8"/>
      </g>
     </g>
     <g id="text_1">
      <!-- 0 -->
      <g transform="translate(43.677972 290.776035) scale(0.1 -0.1)">
       <defs>
        <path id="DejaVuSans-30" d="M 2034 4250 
Q 1547 4250 1301 3770 
Q 1056 3291 1056 2328 
Q 1056 1369 1301 889 
Q 1547 409 2034 409 
Q 2525 409 2770 889 
Q 3016 1369 3016 2328 
Q 3016 3291 2770 3770 
Q 2525 4250 2034 4250 
z
M 2034 4750 
Q 2819 4750 3233 4129 
Q 3647 3509 3647 2328 
Q 3647 1150 3233 529 
Q 2819 -91 2034 -91 
Q 1250 -91 836 529 
Q 422 1150 422 2328 
Q 422 3509 836 4129 
Q 1250 4750 2034 4750 
z
" transform="scale(0.015625)"/>
       </defs>
       <use xlink:href="#DejaVuSans-30"/>
      </g>
     </g>
    </g>
    <g id="xtick_2">
     <g id="line2d_2">
      <g>
       <use xlink:href="#m2d925900c3" x="106.124381" y="276.177598" style="stroke: #000000; stroke-width: 0.8"/>
      </g>
     </g>
     <g id="text_2">
      <!-- 50 -->
      <g transform="translate(99.761881 290.776035) scale(0.1 -0.1)">
       <defs>
        <path id="DejaVuSans-35" d="M 691 4666 
L 3169 4666 
L 3169 4134 
L 1269 4134 
L 1269 2991 
Q 1406 3038 1543 3061 
Q 1681 3084 1819 3084 
Q 2600 3084 3056 2656 
Q 3513 2228 3513 1497 
Q 3513 744 3044 326 
Q 2575 -91 1722 -91 
Q 1428 -91 1123 -41 
Q 819 9 494 109 
L 494 744 
Q 775 591 1075 516 
Q 1375 441 1709 441 
Q 2250 441 2565 725 
Q 2881 1009 2881 1497 
Q 2881 1984 2565 2268 
Q 2250 2553 1709 2553 
Q 1456 2553 1204 2497 
Q 953 2441 691 2322 
L 691 4666 
z
" transform="scale(0.015625)"/>
       </defs>
       <use xlink:href="#DejaVuSans-35"/>
       <use xlink:href="#DejaVuSans-30" x="63.623047"/>
      </g>
     </g>
    </g>
    <g id="xtick_3">
     <g id="line2d_3">
      <g>
       <use xlink:href="#m2d925900c3" x="165.389541" y="276.177598" style="stroke: #000000; stroke-width: 0.8"/>
      </g>
     </g>
     <g id="text_3">
      <!-- 100 -->
      <g transform="translate(155.845791 290.776035) scale(0.1 -0.1)">
       <defs>
        <path id="DejaVuSans-31" d="M 794 531 
L 1825 531 
L 1825 4091 
L 703 3866 
L 703 4441 
L 1819 4666 
L 2450 4666 
L 2450 531 
L 3481 531 
L 3481 0 
L 794 0 
L 794 531 
z
" transform="scale(0.015625)"/>
       </defs>
       <use xlink:href="#DejaVuSans-31"/>
       <use xlink:href="#DejaVuSans-30" x="63.623047"/>
       <use xlink:href="#DejaVuSans-30" x="127.246094"/>
      </g>
     </g>
    </g>
    <g id="xtick_4">
     <g id="line2d_4">
      <g>
       <use xlink:href="#m2d925900c3" x="224.654701" y="276.177598" style="stroke: #000000; stroke-width: 0.8"/>
      </g>
     </g>
     <g id="text_4">
      <!-- 150 -->
      <g transform="translate(215.110951 290.776035) scale(0.1 -0.1)">
       <use xlink:href="#DejaVuSans-31"/>
       <use xlink:href="#DejaVuSans-35" x="63.623047"/>
       <use xlink:href="#DejaVuSans-30" x="127.246094"/>
      </g>
     </g>
    </g>
    <g id="xtick_5">
     <g id="line2d_5">
      <g>
       <use xlink:href="#m2d925900c3" x="283.919861" y="276.177598" style="stroke: #000000; stroke-width: 0.8"/>
      </g>
     </g>
     <g id="text_5">
      <!-- 200 -->
      <g transform="translate(274.376111 290.776035) scale(0.1 -0.1)">
       <defs>
        <path id="DejaVuSans-32" d="M 1228 531 
L 3431 531 
L 3431 0 
L 469 0 
L 469 531 
Q 828 903 1448 1529 
Q 2069 2156 2228 2338 
Q 2531 2678 2651 2914 
Q 2772 3150 2772 3378 
Q 2772 3750 2511 3984 
Q 2250 4219 1831 4219 
Q 1534 4219 1204 4116 
Q 875 4013 500 3803 
L 500 4441 
Q 881 4594 1212 4672 
Q 1544 4750 1819 4750 
Q 2544 4750 2975 4387 
Q 3406 4025 3406 3419 
Q 3406 3131 3298 2873 
Q 3191 2616 2906 2266 
Q 2828 2175 2409 1742 
Q 1991 1309 1228 531 
z
" transform="scale(0.015625)"/>
       </defs>
       <use xlink:href="#DejaVuSans-32"/>
       <use xlink:href="#DejaVuSans-30" x="63.623047"/>
       <use xlink:href="#DejaVuSans-30" x="127.246094"/>
      </g>
     </g>
    </g>
    <g id="xtick_6">
     <g id="line2d_6">
      <g>
       <use xlink:href="#m2d925900c3" x="343.185021" y="276.177598" style="stroke: #000000; stroke-width: 0.8"/>
      </g>
     </g>
     <g id="text_6">
      <!-- 250 -->
      <g transform="translate(333.641271 290.776035) scale(0.1 -0.1)">
       <use xlink:href="#DejaVuSans-32"/>
       <use xlink:href="#DejaVuSans-35" x="63.623047"/>
       <use xlink:href="#DejaVuSans-30" x="127.246094"/>
      </g>
     </g>
    </g>
   </g>
   <g id="matplotlib.axis_2">
    <g id="ytick_1">
     <g id="line2d_7">
      <defs>
       <path id="m13f9630cbc" d="M 0 0 
L -3.5 0 
" style="stroke: #000000; stroke-width: 0.8"/>
      </defs>
      <g>
       <use xlink:href="#m13f9630cbc" x="33.2875" y="265.877696" style="stroke: #000000; stroke-width: 0.8"/>
      </g>
     </g>
     <g id="text_7">
      <!-- 0 -->
      <g transform="translate(19.925 269.676914) scale(0.1 -0.1)">
       <use xlink:href="#DejaVuSans-30"/>
      </g>
     </g>
    </g>
    <g id="ytick_2">
     <g id="line2d_8">
      <g>
       <use xlink:href="#m13f9630cbc" x="33.2875" y="235.504292" style="stroke: #000000; stroke-width: 0.8"/>
      </g>
     </g>
     <g id="text_8">
      <!-- 20 -->
      <g transform="translate(13.5625 239.30351) scale(0.1 -0.1)">
       <use xlink:href="#DejaVuSans-32"/>
       <use xlink:href="#DejaVuSans-30" x="63.623047"/>
      </g>
     </g>
    </g>
    <g id="ytick_3">
     <g id="line2d_9">
      <g>
       <use xlink:href="#m13f9630cbc" x="33.2875" y="205.130888" style="stroke: #000000; stroke-width: 0.8"/>
      </g>
     </g>
     <g id="text_9">
      <!-- 40 -->
      <g transform="translate(13.5625 208.930106) scale(0.1 -0.1)">
       <defs>
        <path id="DejaVuSans-34" d="M 2419 4116 
L 825 1625 
L 2419 1625 
L 2419 4116 
z
M 2253 4666 
L 3047 4666 
L 3047 1625 
L 3713 1625 
L 3713 1100 
L 3047 1100 
L 3047 0 
L 2419 0 
L 2419 1100 
L 313 1100 
L 313 1709 
L 2253 4666 
z
" transform="scale(0.015625)"/>
       </defs>
       <use xlink:href="#DejaVuSans-34"/>
       <use xlink:href="#DejaVuSans-30" x="63.623047"/>
      </g>
     </g>
    </g>
    <g id="ytick_4">
     <g id="line2d_10">
      <g>
       <use xlink:href="#m13f9630cbc" x="33.2875" y="174.757484" style="stroke: #000000; stroke-width: 0.8"/>
      </g>
     </g>
     <g id="text_10">
      <!-- 60 -->
      <g transform="translate(13.5625 178.556702) scale(0.1 -0.1)">
       <defs>
        <path id="DejaVuSans-36" d="M 2113 2584 
Q 1688 2584 1439 2293 
Q 1191 2003 1191 1497 
Q 1191 994 1439 701 
Q 1688 409 2113 409 
Q 2538 409 2786 701 
Q 3034 994 3034 1497 
Q 3034 2003 2786 2293 
Q 2538 2584 2113 2584 
z
M 3366 4563 
L 3366 3988 
Q 3128 4100 2886 4159 
Q 2644 4219 2406 4219 
Q 1781 4219 1451 3797 
Q 1122 3375 1075 2522 
Q 1259 2794 1537 2939 
Q 1816 3084 2150 3084 
Q 2853 3084 3261 2657 
Q 3669 2231 3669 1497 
Q 3669 778 3244 343 
Q 2819 -91 2113 -91 
Q 1303 -91 875 529 
Q 447 1150 447 2328 
Q 447 3434 972 4092 
Q 1497 4750 2381 4750 
Q 2619 4750 2861 4703 
Q 3103 4656 3366 4563 
z
" transform="scale(0.015625)"/>
       </defs>
       <use xlink:href="#DejaVuSans-36"/>
       <use xlink:href="#DejaVuSans-30" x="63.623047"/>
      </g>
     </g>
    </g>
    <g id="ytick_5">
     <g id="line2d_11">
      <g>
       <use xlink:href="#m13f9630cbc" x="33.2875" y="144.38408" style="stroke: #000000; stroke-width: 0.8"/>
      </g>
     </g>
     <g id="text_11">
      <!-- 80 -->
      <g transform="translate(13.5625 148.183298) scale(0.1 -0.1)">
       <defs>
        <path id="DejaVuSans-38" d="M 2034 2216 
Q 1584 2216 1326 1975 
Q 1069 1734 1069 1313 
Q 1069 891 1326 650 
Q 1584 409 2034 409 
Q 2484 409 2743 651 
Q 3003 894 3003 1313 
Q 3003 1734 2745 1975 
Q 2488 2216 2034 2216 
z
M 1403 2484 
Q 997 2584 770 2862 
Q 544 3141 544 3541 
Q 544 4100 942 4425 
Q 1341 4750 2034 4750 
Q 2731 4750 3128 4425 
Q 3525 4100 3525 3541 
Q 3525 3141 3298 2862 
Q 3072 2584 2669 2484 
Q 3125 2378 3379 2068 
Q 3634 1759 3634 1313 
Q 3634 634 3220 271 
Q 2806 -91 2034 -91 
Q 1263 -91 848 271 
Q 434 634 434 1313 
Q 434 1759 690 2068 
Q 947 2378 1403 2484 
z
M 1172 3481 
Q 1172 3119 1398 2916 
Q 1625 2713 2034 2713 
Q 2441 2713 2670 2916 
Q 2900 3119 2900 3481 
Q 2900 3844 2670 4047 
Q 2441 4250 2034 4250 
Q 1625 4250 1398 4047 
Q 1172 3844 1172 3481 
z
" transform="scale(0.015625)"/>
       </defs>
       <use xlink:href="#DejaVuSans-38"/>
       <use xlink:href="#DejaVuSans-30" x="63.623047"/>
      </g>
     </g>
    </g>
    <g id="ytick_6">
     <g id="line2d_12">
      <g>
       <use xlink:href="#m13f9630cbc" x="33.2875" y="114.010676" style="stroke: #000000; stroke-width: 0.8"/>
      </g>
     </g>
     <g id="text_12">
      <!-- 100 -->
      <g transform="translate(7.2 117.809895) scale(0.1 -0.1)">
       <use xlink:href="#DejaVuSans-31"/>
       <use xlink:href="#DejaVuSans-30" x="63.623047"/>
       <use xlink:href="#DejaVuSans-30" x="127.246094"/>
      </g>
     </g>
    </g>
    <g id="ytick_7">
     <g id="line2d_13">
      <g>
       <use xlink:href="#m13f9630cbc" x="33.2875" y="83.637272" style="stroke: #000000; stroke-width: 0.8"/>
      </g>
     </g>
     <g id="text_13">
      <!-- 120 -->
      <g transform="translate(7.2 87.436491) scale(0.1 -0.1)">
       <use xlink:href="#DejaVuSans-31"/>
       <use xlink:href="#DejaVuSans-32" x="63.623047"/>
       <use xlink:href="#DejaVuSans-30" x="127.246094"/>
      </g>
     </g>
    </g>
    <g id="ytick_8">
     <g id="line2d_14">
      <g>
       <use xlink:href="#m13f9630cbc" x="33.2875" y="53.263868" style="stroke: #000000; stroke-width: 0.8"/>
      </g>
     </g>
     <g id="text_14">
      <!-- 140 -->
      <g transform="translate(7.2 57.063087) scale(0.1 -0.1)">
       <use xlink:href="#DejaVuSans-31"/>
       <use xlink:href="#DejaVuSans-34" x="63.623047"/>
       <use xlink:href="#DejaVuSans-30" x="127.246094"/>
      </g>
     </g>
    </g>
    <g id="ytick_9">
     <g id="line2d_15">
      <g>
       <use xlink:href="#m13f9630cbc" x="33.2875" y="22.890464" style="stroke: #000000; stroke-width: 0.8"/>
      </g>
     </g>
     <g id="text_15">
      <!-- 160 -->
      <g transform="translate(7.2 26.689683) scale(0.1 -0.1)">
       <use xlink:href="#DejaVuSans-31"/>
       <use xlink:href="#DejaVuSans-36" x="63.623047"/>
       <use xlink:href="#DejaVuSans-30" x="127.246094"/>
      </g>
     </g>
    </g>
   </g>
   <g id="line2d_16">
    <path d="M 48.044525 117.674073 
L 49.229828 117.407273 
L 50.415131 119.224195 
L 51.600434 125.369767 
L 52.785738 127.449434 
L 53.971041 121.27405 
L 55.156344 128.873066 
L 56.341647 130.272065 
L 57.52695 126.896911 
L 58.712254 129.790175 
L 59.897557 134.418763 
L 61.08286 135.950661 
L 62.268163 133.555141 
L 63.453466 135.758944 
L 64.63877 144.310409 
L 65.824073 141.059331 
L 67.009376 133.387677 
L 68.194679 143.178149 
L 69.379982 142.431525 
L 70.565286 142.000679 
L 71.750589 145.557784 
L 72.935892 145.245545 
L 74.121195 147.570326 
L 75.306498 149.312651 
L 76.491802 148.676191 
L 77.677105 153.080775 
L 78.862408 154.834049 
L 80.047711 153.726544 
L 81.233014 155.806454 
L 82.418317 156.6505 
L 83.603621 164.245613 
L 84.788924 162.701748 
L 85.974227 160.235853 
L 87.15953 160.982143 
L 89.530137 168.86682 
L 90.71544 160.003041 
L 91.900743 169.281341 
L 93.086046 169.637226 
L 94.271349 174.729616 
L 95.456653 170.695329 
L 96.641956 165.939082 
L 97.827259 176.058923 
L 99.012562 179.876146 
L 100.197865 172.907971 
L 101.383169 183.280413 
L 102.568472 170.301052 
L 103.753775 179.842842 
L 104.939078 179.11057 
L 106.124381 177.343946 
L 107.309685 176.401535 
L 108.494988 177.032877 
L 109.680291 182.003287 
L 110.865594 177.333528 
L 112.050897 178.656867 
L 113.236201 187.371452 
L 114.421504 190.048488 
L 115.606807 184.313564 
L 116.79211 181.74774 
L 117.977413 185.544461 
L 119.162717 186.426201 
L 120.34802 183.888944 
L 121.533323 184.565694 
L 122.718626 180.148064 
L 123.903929 187.93535 
L 125.089233 185.210855 
L 126.274536 184.953365 
L 127.459839 190.239491 
L 128.645142 182.813057 
L 129.830445 180.199988 
L 131.015749 182.967992 
L 132.201052 183.284513 
L 133.386355 174.524307 
L 134.571658 175.079852 
L 135.756961 173.998225 
L 136.942265 166.497664 
L 138.127568 173.694399 
L 139.312871 169.110081 
L 140.498174 162.955305 
L 141.683477 167.605549 
L 142.86878 158.383288 
L 144.054084 158.983801 
L 145.239387 148.600531 
L 146.42469 145.102942 
L 147.609993 144.185483 
L 148.795296 135.760721 
L 149.9806 136.477169 
L 151.165903 128.824575 
L 152.351206 123.700505 
L 153.536509 120.29024 
L 154.721812 123.927714 
L 155.907116 105.181583 
L 157.092419 102.124196 
L 158.277722 92.65711 
L 159.463025 90.468402 
L 160.648328 85.898572 
L 161.833632 84.217859 
L 163.018935 80.305309 
L 164.204238 73.021311 
L 165.389541 74.980092 
L 166.574844 77.950307 
L 167.760148 67.456904 
L 168.945451 68.880657 
L 170.130754 65.680515 
L 172.50136 65.414141 
L 173.686664 65.2278 
L 174.871967 63.224218 
L 176.05727 62.641353 
L 177.242573 62.877809 
L 178.427876 71.054937 
L 180.798483 76.415995 
L 181.983786 86.064714 
L 183.169089 80.549208 
L 184.354392 90.917929 
L 185.539696 85.481545 
L 186.724999 97.702132 
L 187.910302 98.519784 
L 189.095605 106.154747 
L 190.280908 108.775516 
L 191.466212 122.298363 
L 192.651515 122.507241 
L 193.836818 122.242415 
L 195.022121 131.071341 
L 196.207424 133.316816 
L 197.392728 125.393975 
L 198.578031 134.846876 
L 199.763334 140.673862 
L 202.13394 146.865465 
L 203.319244 146.292942 
L 204.504547 150.264583 
L 205.68985 145.703683 
L 206.875153 149.30363 
L 208.060456 148.01721 
L 209.245759 147.776288 
L 210.431063 142.436841 
L 211.616366 144.774272 
L 212.801669 141.377659 
L 213.986972 144.339249 
L 215.172275 135.344469 
L 216.357579 135.320079 
L 217.542882 144.463218 
L 218.728185 133.494865 
L 219.913488 128.422977 
L 221.098791 124.286408 
L 222.284095 130.491239 
L 223.469398 124.466842 
L 224.654701 128.675912 
L 225.840004 123.587091 
L 227.025307 120.476323 
L 228.210611 126.386243 
L 229.395914 118.953902 
L 230.581217 132.82706 
L 231.76652 128.483421 
L 234.137127 135.717439 
L 235.32243 136.77006 
L 236.507733 146.615917 
L 237.693036 142.346814 
L 238.878339 151.684403 
L 240.063643 155.529373 
L 241.248946 159.790928 
L 242.434249 165.197819 
L 243.619552 169.313021 
L 244.804855 177.2808 
L 245.990159 178.542526 
L 247.175462 185.684346 
L 248.360765 188.739592 
L 249.546068 194.447195 
L 250.731371 195.303725 
L 251.916675 200.437954 
L 253.101978 214.067791 
L 254.287281 206.220761 
L 255.472584 216.241692 
L 256.657887 219.648524 
L 257.843191 217.296469 
L 259.028494 229.986507 
L 260.213797 229.890634 
L 261.3991 235.097106 
L 262.584403 236.915531 
L 264.95501 241.445557 
L 266.140313 237.110027 
L 267.325616 237.609867 
L 268.510919 239.668485 
L 269.696222 240.633069 
L 270.881526 245.400448 
L 272.066829 242.525909 
L 273.252132 245.418049 
L 274.437435 241.636864 
L 275.622738 247.159372 
L 276.808042 241.064447 
L 277.993345 250.025315 
L 279.178648 251.254853 
L 280.363951 245.948673 
L 281.549254 252.555287 
L 282.734558 248.015962 
L 283.919861 246.818081 
L 285.105164 248.669522 
L 286.290467 248.861102 
L 287.47577 254.006378 
L 288.661074 255.549713 
L 289.846377 244.212635 
L 291.03168 249.684343 
L 292.216983 252.343954 
L 293.402286 248.310736 
L 295.772893 248.27523 
L 296.958196 251.100831 
L 298.143499 248.500509 
L 299.328802 248.824366 
L 300.514106 250.429585 
L 301.699409 246.880574 
L 302.884712 256.459673 
L 304.070015 252.17989 
L 305.255318 249.466839 
L 306.440622 245.988811 
L 307.625925 259.933209 
L 308.811228 251.347232 
L 309.996531 253.669944 
L 311.181834 250.34012 
L 312.367138 251.651689 
L 314.737744 256.585598 
L 315.923047 252.523714 
L 317.10835 254.037092 
L 318.293654 246.969265 
L 319.478957 249.755478 
L 320.66426 256.764151 
L 321.849563 255.603743 
L 323.034866 252.567078 
L 324.22017 258.912439 
L 325.405473 253.134864 
L 326.590776 254.929295 
L 327.776079 250.672633 
L 328.961382 254.749699 
L 330.146686 255.968166 
L 331.331989 261.564574 
L 332.517292 250.199385 
L 333.702595 258.603212 
L 334.887898 253.15666 
L 336.073201 256.364776 
L 337.258505 261.768338 
L 338.443808 253.17841 
L 339.629111 252.234711 
L 340.814414 260.771214 
L 341.999717 264.081598 
L 343.185021 258.473705 
L 343.185021 258.473705 
" clip-path="url(#p0f2b97fcc5)" style="fill: none; stroke: #1f77b4; stroke-width: 1.5; stroke-linecap: square"/>
   </g>
   <g id="line2d_17">
    <path d="M 48.044525 22.161598 
L 52.785738 32.394961 
L 57.52695 42.198636 
L 62.268163 51.590666 
L 68.194679 62.778087 
L 74.121195 73.38142 
L 80.047711 83.431071 
L 85.974227 92.955526 
L 91.900743 101.980389 
L 97.827259 110.524889 
L 102.568472 117.017288 
L 107.309685 123.187727 
L 112.050897 128.985523 
L 115.606807 133.0257 
L 119.162717 136.715471 
L 121.533323 138.923892 
L 123.903929 140.879015 
L 126.274536 142.526337 
L 128.645142 143.803583 
L 131.015749 144.642832 
L 132.201052 144.876284 
L 133.386355 144.974082 
L 134.571658 144.927987 
L 135.756961 144.730352 
L 136.942265 144.374357 
L 138.127568 143.854262 
L 139.312871 143.165668 
L 140.498174 142.305783 
L 141.683477 141.27369 
L 142.86878 140.070593 
L 145.239387 137.16821 
L 147.609993 133.658896 
L 149.9806 129.64819 
L 153.536509 123.036368 
L 158.277722 114.223518 
L 160.648328 110.377633 
L 161.833632 108.70792 
L 163.018935 107.248035 
L 164.204238 106.026361 
L 165.389541 105.068648 
L 166.574844 104.397441 
L 167.760148 104.031557 
L 168.945451 103.985623 
L 170.130754 104.269704 
L 171.316057 104.889005 
L 172.50136 105.843684 
L 173.686664 107.128758 
L 174.871967 108.734122 
L 176.05727 110.644665 
L 177.242573 112.840499 
L 179.61318 117.986557 
L 181.983786 123.931665 
L 185.539696 133.707131 
L 189.095605 143.548158 
L 191.466212 149.613551 
L 193.836818 154.946929 
L 195.022121 157.262759 
L 196.207424 159.310942 
L 197.392728 161.071125 
L 198.578031 162.527237 
L 199.763334 163.667677 
L 200.948637 164.485461 
L 202.13394 164.978302 
L 203.319244 165.148638 
L 204.504547 165.003604 
L 205.68985 164.554951 
L 206.875153 163.818901 
L 208.060456 162.815958 
L 209.245759 161.570649 
L 210.431063 160.11122 
L 212.801669 156.679295 
L 216.357579 150.800177 
L 219.913488 145.004313 
L 222.284095 141.724137 
L 223.469398 140.371332 
L 224.654701 139.253931 
L 225.840004 138.400502 
L 227.025307 137.835556 
L 228.210611 137.579136 
L 229.395914 137.646508 
L 230.581217 138.047933 
L 231.76652 138.788549 
L 232.951823 139.868355 
L 234.137127 141.282302 
L 235.32243 143.020484 
L 236.507733 145.068429 
L 237.693036 147.407481 
L 240.063643 152.866156 
L 242.434249 159.182433 
L 245.990159 169.722138 
L 253.101978 191.538026 
L 255.472584 198.246589 
L 257.843191 204.424043 
L 260.213797 209.989227 
L 262.584403 214.904365 
L 264.95501 219.169217 
L 267.325616 222.813418 
L 269.696222 225.888116 
L 272.066829 228.457836 
L 274.437435 230.593259 
L 276.808042 232.36536 
L 279.178648 233.841082 
L 281.549254 235.080508 
L 285.105164 236.607353 
L 288.661074 237.854796 
L 293.402286 239.247087 
L 299.328802 240.740582 
L 307.625925 242.594199 
L 318.293654 244.742099 
L 330.146686 246.891735 
L 341.999717 248.822422 
L 343.185021 249.004346 
L 343.185021 249.004346 
" clip-path="url(#p0f2b97fcc5)" style="fill: none; stroke-dasharray: 5.55,2.4; stroke-dashoffset: 0; stroke: #ff7f0e; stroke-width: 1.5"/>
   </g>
   <g id="line2d_18">
    <path d="M 48.044525 117.145834 
L 53.971041 125.101638 
L 59.897557 132.631872 
L 65.824073 139.759272 
L 71.750589 146.505257 
L 77.677105 152.889693 
L 83.603621 158.929896 
L 89.530137 164.637389 
L 95.456653 170.008838 
L 100.197865 174.03924 
L 104.939078 177.774697 
L 108.494988 180.317186 
L 112.050897 182.550489 
L 114.421504 183.810071 
L 116.79211 184.832395 
L 119.162717 185.559489 
L 121.533323 185.922332 
L 122.718626 185.942625 
L 123.903929 185.841164 
L 125.089233 185.606519 
L 126.274536 185.226825 
L 127.459839 184.689895 
L 128.645142 183.983361 
L 129.830445 183.094841 
L 131.015749 182.012123 
L 132.201052 180.723383 
L 133.386355 179.217423 
L 134.571658 177.483927 
L 135.756961 175.513736 
L 136.942265 173.29914 
L 139.312871 168.114925 
L 141.683477 161.909915 
L 144.054084 154.704726 
L 146.42469 146.570028 
L 148.795296 137.632395 
L 152.351206 123.14115 
L 158.277722 98.370269 
L 160.648328 89.216916 
L 163.018935 81.035807 
L 164.204238 77.419492 
L 165.389541 74.17377 
L 166.574844 71.335693 
L 167.760148 68.938483 
L 168.945451 67.010901 
L 170.130754 65.57667 
L 171.316057 64.653972 
L 172.50136 64.255027 
L 173.686664 64.385754 
L 174.871967 65.045538 
L 176.05727 66.227099 
L 177.242573 67.916461 
L 178.427876 70.093041 
L 179.61318 72.729832 
L 180.798483 75.793698 
L 181.983786 79.245769 
L 184.354392 87.13338 
L 186.724999 95.987613 
L 193.836818 123.671074 
L 196.207424 131.693219 
L 197.392728 135.237751 
L 198.578031 138.414162 
L 199.763334 141.187221 
L 200.948637 143.528615 
L 202.13394 145.417562 
L 203.319244 146.841318 
L 204.504547 147.795556 
L 205.68985 148.28462 
L 206.875153 148.321617 
L 208.060456 147.928357 
L 209.245759 147.135113 
L 210.431063 145.98021 
L 211.616366 144.509424 
L 212.801669 142.775215 
L 215.172275 138.753988 
L 219.913488 130.351053 
L 221.098791 128.571486 
L 222.284095 127.049547 
L 223.469398 125.842414 
L 224.654701 125.000964 
L 225.840004 124.568683 
L 227.025307 124.580759 
L 228.210611 125.063392 
L 229.395914 126.033334 
L 230.581217 127.497676 
L 231.76652 129.453883 
L 232.951823 131.890083 
L 234.137127 134.785579 
L 235.32243 138.111586 
L 237.693036 145.905188 
L 240.063643 154.917148 
L 243.619552 169.812304 
L 248.360765 190.04655 
L 250.731371 199.50971 
L 253.101978 208.184534 
L 255.472584 215.912119 
L 257.843191 222.615642 
L 260.213797 228.289842 
L 262.584403 232.986034 
L 264.95501 236.795283 
L 267.325616 239.832039 
L 269.696222 242.219862 
L 272.066829 244.080231 
L 274.437435 245.524736 
L 276.808042 246.650487 
L 279.178648 247.538207 
L 282.734558 248.560337 
L 286.290467 249.345576 
L 292.216983 250.377907 
L 301.699409 251.729602 
L 314.737744 253.345629 
L 328.961382 254.894756 
L 343.185021 256.252312 
L 343.185021 256.252312 
" clip-path="url(#p0f2b97fcc5)" style="fill: none; stroke: #2ca02c; stroke-width: 1.5; stroke-linecap: square"/>
   </g>
   <g id="patch_3">
    <path d="M 33.2875 276.177598 
L 33.2875 10.065598 
" style="fill: none; stroke: #000000; stroke-width: 0.8; stroke-linejoin: miter; stroke-linecap: square"/>
   </g>
   <g id="patch_4">
    <path d="M 357.942045 276.177598 
L 357.942045 10.065598 
" style="fill: none; stroke: #000000; stroke-width: 0.8; stroke-linejoin: miter; stroke-linecap: square"/>
   </g>
   <g id="patch_5">
    <path d="M 33.2875 276.177598 
L 357.942045 276.177598 
" style="fill: none; stroke: #000000; stroke-width: 0.8; stroke-linejoin: miter; stroke-linecap: square"/>
   </g>
   <g id="patch_6">
    <path d="M 33.2875 10.065598 
L 357.942045 10.065598 
" style="fill: none; stroke: #000000; stroke-width: 0.8; stroke-linejoin: miter; stroke-linecap: square"/>
   </g>
   <g id="legend_1">
    <g id="patch_7">
     <path d="M 278.046733 47.421848 
L 350.942045 47.421848 
Q 352.942045 47.421848 352.942045 45.421848 
L 352.942045 17.065598 
Q 352.942045 15.065598 350.942045 15.065598 
L 278.046733 15.065598 
Q 276.046733 15.065598 276.046733 17.065598 
L 276.046733 45.421848 
Q 276.046733 47.421848 278.046733 47.421848 
z
" style="fill: #ffffff; opacity: 0.8; stroke: #cccccc; stroke-linejoin: miter"/>
    </g>
    <g id="line2d_19">
     <path d="M 280.046733 23.164035 
L 290.046733 23.164035 
L 300.046733 23.164035 
" style="fill: none; stroke-dasharray: 5.55,2.4; stroke-dashoffset: 0; stroke: #ff7f0e; stroke-width: 1.5"/>
    </g>
    <g id="text_16">
     <!-- initial fit -->
     <g transform="translate(308.046733 26.664035) scale(0.1 -0.1)">
      <defs>
       <path id="DejaVuSans-69" d="M 603 3500 
L 1178 3500 
L 1178 0 
L 603 0 
L 603 3500 
z
M 603 4863 
L 1178 4863 
L 1178 4134 
L 603 4134 
L 603 4863 
z
" transform="scale(0.015625)"/>
       <path id="DejaVuSans-6e" d="M 3513 2113 
L 3513 0 
L 2938 0 
L 2938 2094 
Q 2938 2591 2744 2837 
Q 2550 3084 2163 3084 
Q 1697 3084 1428 2787 
Q 1159 2491 1159 1978 
L 1159 0 
L 581 0 
L 581 3500 
L 1159 3500 
L 1159 2956 
Q 1366 3272 1645 3428 
Q 1925 3584 2291 3584 
Q 2894 3584 3203 3211 
Q 3513 2838 3513 2113 
z
" transform="scale(0.015625)"/>
       <path id="DejaVuSans-74" d="M 1172 4494 
L 1172 3500 
L 2356 3500 
L 2356 3053 
L 1172 3053 
L 1172 1153 
Q 1172 725 1289 603 
Q 1406 481 1766 481 
L 2356 481 
L 2356 0 
L 1766 0 
Q 1100 0 847 248 
Q 594 497 594 1153 
L 594 3053 
L 172 3053 
L 172 3500 
L 594 3500 
L 594 4494 
L 1172 4494 
z
" transform="scale(0.015625)"/>
       <path id="DejaVuSans-61" d="M 2194 1759 
Q 1497 1759 1228 1600 
Q 959 1441 959 1056 
Q 959 750 1161 570 
Q 1363 391 1709 391 
Q 2188 391 2477 730 
Q 2766 1069 2766 1631 
L 2766 1759 
L 2194 1759 
z
M 3341 1997 
L 3341 0 
L 2766 0 
L 2766 531 
Q 2569 213 2275 61 
Q 1981 -91 1556 -91 
Q 1019 -91 701 211 
Q 384 513 384 1019 
Q 384 1609 779 1909 
Q 1175 2209 1959 2209 
L 2766 2209 
L 2766 2266 
Q 2766 2663 2505 2880 
Q 2244 3097 1772 3097 
Q 1472 3097 1187 3025 
Q 903 2953 641 2809 
L 641 3341 
Q 956 3463 1253 3523 
Q 1550 3584 1831 3584 
Q 2591 3584 2966 3190 
Q 3341 2797 3341 1997 
z
" transform="scale(0.015625)"/>
       <path id="DejaVuSans-6c" d="M 603 4863 
L 1178 4863 
L 1178 0 
L 603 0 
L 603 4863 
z
" transform="scale(0.015625)"/>
       <path id="DejaVuSans-20" transform="scale(0.015625)"/>
       <path id="DejaVuSans-66" d="M 2375 4863 
L 2375 4384 
L 1825 4384 
Q 1516 4384 1395 4259 
Q 1275 4134 1275 3809 
L 1275 3500 
L 2222 3500 
L 2222 3053 
L 1275 3053 
L 1275 0 
L 697 0 
L 697 3053 
L 147 3053 
L 147 3500 
L 697 3500 
L 697 3744 
Q 697 4328 969 4595 
Q 1241 4863 1831 4863 
L 2375 4863 
z
" transform="scale(0.015625)"/>
      </defs>
      <use xlink:href="#DejaVuSans-69"/>
      <use xlink:href="#DejaVuSans-6e" x="27.783203"/>
      <use xlink:href="#DejaVuSans-69" x="91.162109"/>
      <use xlink:href="#DejaVuSans-74" x="118.945312"/>
      <use xlink:href="#DejaVuSans-69" x="158.154297"/>
      <use xlink:href="#DejaVuSans-61" x="185.9375"/>
      <use xlink:href="#DejaVuSans-6c" x="247.216797"/>
      <use xlink:href="#DejaVuSans-20" x="275"/>
      <use xlink:href="#DejaVuSans-66" x="306.787109"/>
      <use xlink:href="#DejaVuSans-69" x="341.992188"/>
      <use xlink:href="#DejaVuSans-74" x="369.775391"/>
     </g>
    </g>
    <g id="line2d_20">
     <path d="M 280.046733 37.84216 
L 290.046733 37.84216 
L 300.046733 37.84216 
" style="fill: none; stroke: #2ca02c; stroke-width: 1.5; stroke-linecap: square"/>
    </g>
    <g id="text_17">
     <!-- best fit -->
     <g transform="translate(308.046733 41.34216) scale(0.1 -0.1)">
      <defs>
       <path id="DejaVuSans-62" d="M 3116 1747 
Q 3116 2381 2855 2742 
Q 2594 3103 2138 3103 
Q 1681 3103 1420 2742 
Q 1159 2381 1159 1747 
Q 1159 1113 1420 752 
Q 1681 391 2138 391 
Q 2594 391 2855 752 
Q 3116 1113 3116 1747 
z
M 1159 2969 
Q 1341 3281 1617 3432 
Q 1894 3584 2278 3584 
Q 2916 3584 3314 3078 
Q 3713 2572 3713 1747 
Q 3713 922 3314 415 
Q 2916 -91 2278 -91 
Q 1894 -91 1617 61 
Q 1341 213 1159 525 
L 1159 0 
L 581 0 
L 581 4863 
L 1159 4863 
L 1159 2969 
z
" transform="scale(0.015625)"/>
       <path id="DejaVuSans-65" d="M 3597 1894 
L 3597 1613 
L 953 1613 
Q 991 1019 1311 708 
Q 1631 397 2203 397 
Q 2534 397 2845 478 
Q 3156 559 3463 722 
L 3463 178 
Q 3153 47 2828 -22 
Q 2503 -91 2169 -91 
Q 1331 -91 842 396 
Q 353 884 353 1716 
Q 353 2575 817 3079 
Q 1281 3584 2069 3584 
Q 2775 3584 3186 3129 
Q 3597 2675 3597 1894 
z
M 3022 2063 
Q 3016 2534 2758 2815 
Q 2500 3097 2075 3097 
Q 1594 3097 1305 2825 
Q 1016 2553 972 2059 
L 3022 2063 
z
" transform="scale(0.015625)"/>
       <path id="DejaVuSans-73" d="M 2834 3397 
L 2834 2853 
Q 2591 2978 2328 3040 
Q 2066 3103 1784 3103 
Q 1356 3103 1142 2972 
Q 928 2841 928 2578 
Q 928 2378 1081 2264 
Q 1234 2150 1697 2047 
L 1894 2003 
Q 2506 1872 2764 1633 
Q 3022 1394 3022 966 
Q 3022 478 2636 193 
Q 2250 -91 1575 -91 
Q 1294 -91 989 -36 
Q 684 19 347 128 
L 347 722 
Q 666 556 975 473 
Q 1284 391 1588 391 
Q 1994 391 2212 530 
Q 2431 669 2431 922 
Q 2431 1156 2273 1281 
Q 2116 1406 1581 1522 
L 1381 1569 
Q 847 1681 609 1914 
Q 372 2147 372 2553 
Q 372 3047 722 3315 
Q 1072 3584 1716 3584 
Q 2034 3584 2315 3537 
Q 2597 3491 2834 3397 
z
" transform="scale(0.015625)"/>
      </defs>
      <use xlink:href="#DejaVuSans-62"/>
      <use xlink:href="#DejaVuSans-65" x="63.476562"/>
      <use xlink:href="#DejaVuSans-73" x="125"/>
      <use xlink:href="#DejaVuSans-74" x="177.099609"/>
      <use xlink:href="#DejaVuSans-20" x="216.308594"/>
      <use xlink:href="#DejaVuSans-66" x="248.095703"/>
      <use xlink:href="#DejaVuSans-69" x="283.300781"/>
      <use xlink:href="#DejaVuSans-74" x="311.083984"/>
     </g>
    </g>
   </g>
  </g>
  <g id="axes_2">
   <g id="patch_8">
    <path d="M 422.872955 276.177598 
L 747.5275 276.177598 
L 747.5275 10.065598 
L 422.872955 10.065598 
z
" style="fill: #ffffff"/>
   </g>
   <g id="matplotlib.axis_3">
    <g id="xtick_7">
     <g id="line2d_21">
      <g>
       <use xlink:href="#m2d925900c3" x="436.444676" y="276.177598" style="stroke: #000000; stroke-width: 0.8"/>
      </g>
     </g>
     <g id="text_18">
      <!-- 0 -->
      <g transform="translate(433.263426 290.776035) scale(0.1 -0.1)">
       <use xlink:href="#DejaVuSans-30"/>
      </g>
     </g>
    </g>
    <g id="xtick_8">
     <g id="line2d_22">
      <g>
       <use xlink:href="#m2d925900c3" x="495.709836" y="276.177598" style="stroke: #000000; stroke-width: 0.8"/>
      </g>
     </g>
     <g id="text_19">
      <!-- 50 -->
      <g transform="translate(489.347336 290.776035) scale(0.1 -0.1)">
       <use xlink:href="#DejaVuSans-35"/>
       <use xlink:href="#DejaVuSans-30" x="63.623047"/>
      </g>
     </g>
    </g>
    <g id="xtick_9">
     <g id="line2d_23">
      <g>
       <use xlink:href="#m2d925900c3" x="554.974996" y="276.177598" style="stroke: #000000; stroke-width: 0.8"/>
      </g>
     </g>
     <g id="text_20">
      <!-- 100 -->
      <g transform="translate(545.431246 290.776035) scale(0.1 -0.1)">
       <use xlink:href="#DejaVuSans-31"/>
       <use xlink:href="#DejaVuSans-30" x="63.623047"/>
       <use xlink:href="#DejaVuSans-30" x="127.246094"/>
      </g>
     </g>
    </g>
    <g id="xtick_10">
     <g id="line2d_24">
      <g>
       <use xlink:href="#m2d925900c3" x="614.240156" y="276.177598" style="stroke: #000000; stroke-width: 0.8"/>
      </g>
     </g>
     <g id="text_21">
      <!-- 150 -->
      <g transform="translate(604.696406 290.776035) scale(0.1 -0.1)">
       <use xlink:href="#DejaVuSans-31"/>
       <use xlink:href="#DejaVuSans-35" x="63.623047"/>
       <use xlink:href="#DejaVuSans-30" x="127.246094"/>
      </g>
     </g>
    </g>
    <g id="xtick_11">
     <g id="line2d_25">
      <g>
       <use xlink:href="#m2d925900c3" x="673.505315" y="276.177598" style="stroke: #000000; stroke-width: 0.8"/>
      </g>
     </g>
     <g id="text_22">
      <!-- 200 -->
      <g transform="translate(663.961565 290.776035) scale(0.1 -0.1)">
       <use xlink:href="#DejaVuSans-32"/>
       <use xlink:href="#DejaVuSans-30" x="63.623047"/>
       <use xlink:href="#DejaVuSans-30" x="127.246094"/>
      </g>
     </g>
    </g>
    <g id="xtick_12">
     <g id="line2d_26">
      <g>
       <use xlink:href="#m2d925900c3" x="732.770475" y="276.177598" style="stroke: #000000; stroke-width: 0.8"/>
      </g>
     </g>
     <g id="text_23">
      <!-- 250 -->
      <g transform="translate(723.226725 290.776035) scale(0.1 -0.1)">
       <use xlink:href="#DejaVuSans-32"/>
       <use xlink:href="#DejaVuSans-35" x="63.623047"/>
       <use xlink:href="#DejaVuSans-30" x="127.246094"/>
      </g>
     </g>
    </g>
   </g>
   <g id="matplotlib.axis_4">
    <g id="ytick_10">
     <g id="line2d_27">
      <g>
       <use xlink:href="#m13f9630cbc" x="422.872955" y="264.081598" style="stroke: #000000; stroke-width: 0.8"/>
      </g>
     </g>
     <g id="text_24">
      <!-- 0 -->
      <g transform="translate(409.510455 267.880817) scale(0.1 -0.1)">
       <use xlink:href="#DejaVuSans-30"/>
      </g>
     </g>
    </g>
    <g id="ytick_11">
     <g id="line2d_28">
      <g>
       <use xlink:href="#m13f9630cbc" x="422.872955" y="227.926972" style="stroke: #000000; stroke-width: 0.8"/>
      </g>
     </g>
     <g id="text_25">
      <!-- 20 -->
      <g transform="translate(403.147955 231.726191) scale(0.1 -0.1)">
       <use xlink:href="#DejaVuSans-32"/>
       <use xlink:href="#DejaVuSans-30" x="63.623047"/>
      </g>
     </g>
    </g>
    <g id="ytick_12">
     <g id="line2d_29">
      <g>
       <use xlink:href="#m13f9630cbc" x="422.872955" y="191.772347" style="stroke: #000000; stroke-width: 0.8"/>
      </g>
     </g>
     <g id="text_26">
      <!-- 40 -->
      <g transform="translate(403.147955 195.571565) scale(0.1 -0.1)">
       <use xlink:href="#DejaVuSans-34"/>
       <use xlink:href="#DejaVuSans-30" x="63.623047"/>
      </g>
     </g>
    </g>
    <g id="ytick_13">
     <g id="line2d_30">
      <g>
       <use xlink:href="#m13f9630cbc" x="422.872955" y="155.617721" style="stroke: #000000; stroke-width: 0.8"/>
      </g>
     </g>
     <g id="text_27">
      <!-- 60 -->
      <g transform="translate(403.147955 159.41694) scale(0.1 -0.1)">
       <use xlink:href="#DejaVuSans-36"/>
       <use xlink:href="#DejaVuSans-30" x="63.623047"/>
      </g>
     </g>
    </g>
    <g id="ytick_14">
     <g id="line2d_31">
      <g>
       <use xlink:href="#m13f9630cbc" x="422.872955" y="119.463096" style="stroke: #000000; stroke-width: 0.8"/>
      </g>
     </g>
     <g id="text_28">
      <!-- 80 -->
      <g transform="translate(403.147955 123.262314) scale(0.1 -0.1)">
       <use xlink:href="#DejaVuSans-38"/>
       <use xlink:href="#DejaVuSans-30" x="63.623047"/>
      </g>
     </g>
    </g>
    <g id="ytick_15">
     <g id="line2d_32">
      <g>
       <use xlink:href="#m13f9630cbc" x="422.872955" y="83.30847" style="stroke: #000000; stroke-width: 0.8"/>
      </g>
     </g>
     <g id="text_29">
      <!-- 100 -->
      <g transform="translate(396.785455 87.107689) scale(0.1 -0.1)">
       <use xlink:href="#DejaVuSans-31"/>
       <use xlink:href="#DejaVuSans-30" x="63.623047"/>
       <use xlink:href="#DejaVuSans-30" x="127.246094"/>
      </g>
     </g>
    </g>
    <g id="ytick_16">
     <g id="line2d_33">
      <g>
       <use xlink:href="#m13f9630cbc" x="422.872955" y="47.153844" style="stroke: #000000; stroke-width: 0.8"/>
      </g>
     </g>
     <g id="text_30">
      <!-- 120 -->
      <g transform="translate(396.785455 50.953063) scale(0.1 -0.1)">
       <use xlink:href="#DejaVuSans-31"/>
       <use xlink:href="#DejaVuSans-32" x="63.623047"/>
       <use xlink:href="#DejaVuSans-30" x="127.246094"/>
      </g>
     </g>
    </g>
    <g id="ytick_17">
     <g id="line2d_34">
      <g>
       <use xlink:href="#m13f9630cbc" x="422.872955" y="10.999219" style="stroke: #000000; stroke-width: 0.8"/>
      </g>
     </g>
     <g id="text_31">
      <!-- 140 -->
      <g transform="translate(396.785455 14.798438) scale(0.1 -0.1)">
       <use xlink:href="#DejaVuSans-31"/>
       <use xlink:href="#DejaVuSans-34" x="63.623047"/>
       <use xlink:href="#DejaVuSans-30" x="127.246094"/>
      </g>
     </g>
    </g>
   </g>
   <g id="line2d_35">
    <path d="M 437.629979 87.669152 
L 438.815283 87.351569 
L 440.000586 89.514321 
L 441.185889 96.829631 
L 442.371192 99.305138 
L 443.556495 91.954342 
L 444.741799 100.999742 
L 445.927102 102.665024 
L 447.112405 98.647449 
L 448.297708 102.091413 
L 449.483011 107.600998 
L 450.668314 109.424474 
L 451.853618 106.572995 
L 453.038921 109.196266 
L 454.224224 119.375402 
L 455.409527 115.50552 
L 456.59483 106.373657 
L 457.780134 118.02763 
L 458.965437 117.138895 
L 460.15074 116.626042 
L 461.336043 120.860201 
L 462.521346 120.488531 
L 463.70665 123.255806 
L 464.891953 125.329762 
L 466.077256 124.57216 
L 467.262559 129.815105 
L 468.447862 131.902094 
L 469.633166 130.583788 
L 470.818469 133.059585 
L 472.003772 134.064286 
L 473.189075 143.105039 
L 474.374378 141.267317 
L 475.559682 138.332068 
L 476.744985 139.220405 
L 479.115591 148.605839 
L 480.300894 138.054943 
L 481.486198 149.099259 
L 482.671501 149.522883 
L 483.856804 155.584549 
L 485.042107 150.782383 
L 486.22741 145.12084 
L 487.412714 157.166874 
L 488.598017 161.710661 
L 489.78332 153.416176 
L 490.968623 165.76289 
L 492.153926 150.31306 
L 493.33923 161.671018 
L 494.524533 160.799366 
L 495.709836 158.696486 
L 496.895139 157.574699 
L 498.080442 158.326209 
L 499.265746 164.242678 
L 500.451049 158.684085 
L 501.636352 160.259306 
L 502.821655 170.632611 
L 504.006958 173.819189 
L 505.192262 166.992689 
L 506.377565 163.938491 
L 507.562868 168.457874 
L 508.748171 169.507442 
L 509.933474 166.487248 
L 511.118778 167.292809 
L 512.304081 162.034336 
L 513.489384 171.303839 
L 514.674687 168.060769 
L 515.85999 167.754269 
L 517.045293 174.046547 
L 518.230597 165.206579 
L 519.4159 162.096142 
L 520.601203 165.391003 
L 521.786506 165.767771 
L 522.971809 155.340162 
L 524.157113 156.001448 
L 525.342416 154.713946 
L 526.527719 145.785742 
L 527.713022 154.352291 
L 528.898325 148.895401 
L 530.083629 141.569136 
L 531.268932 147.1045 
L 532.454235 136.126889 
L 533.639538 136.841702 
L 534.824841 124.482099 
L 536.010145 120.318785 
L 537.195448 119.226698 
L 538.380751 109.198382 
L 539.566054 110.051197 
L 540.751357 100.942021 
L 541.936661 94.842645 
L 543.121964 90.783276 
L 544.307267 95.1131 
L 545.49257 72.798863 
L 546.677873 69.159538 
L 547.863177 57.890503 
L 549.04848 55.2852 
L 550.233783 49.845556 
L 551.419086 47.84494 
L 552.604389 43.187682 
L 553.789693 34.51726 
L 554.974996 36.848872 
L 556.160299 40.384433 
L 557.345602 27.893733 
L 558.530905 29.588481 
L 559.716209 25.77923 
L 560.901512 25.685408 
L 563.272118 25.240345 
L 564.457421 22.855405 
L 565.642725 22.161598 
L 566.828028 22.443062 
L 568.013331 32.17661 
L 570.383937 38.558082 
L 571.569241 50.043322 
L 572.754544 43.478004 
L 573.939847 55.820289 
L 575.12515 49.349153 
L 576.310453 63.895786 
L 577.495756 64.869069 
L 578.68106 73.957257 
L 579.866363 77.076859 
L 581.051666 93.173621 
L 582.236969 93.422256 
L 583.422272 93.107024 
L 584.607576 103.616433 
L 585.792879 106.289308 
L 586.978182 96.858446 
L 588.163485 108.110597 
L 589.348788 115.046681 
L 591.719395 122.416784 
L 592.904698 121.735287 
L 594.090001 126.462884 
L 595.275304 121.033869 
L 596.460608 125.319024 
L 597.645911 123.787749 
L 598.831214 123.500971 
L 600.016517 117.145222 
L 601.20182 119.927556 
L 602.387124 115.884438 
L 603.572427 119.409731 
L 604.75773 108.7029 
L 605.943033 108.673868 
L 607.128336 119.557296 
L 608.31364 106.501246 
L 609.498943 100.463984 
L 610.684246 95.540068 
L 611.869549 102.925916 
L 613.054852 95.754844 
L 614.240156 100.765062 
L 615.425459 94.707644 
L 616.610762 91.004777 
L 617.796065 98.039582 
L 618.981368 89.192581 
L 620.166672 105.706333 
L 621.351975 100.535932 
L 623.722581 109.146861 
L 624.907884 110.399836 
L 626.093188 122.119737 
L 627.278491 117.03806 
L 628.463794 128.15295 
L 629.649097 132.729764 
L 630.8344 137.802457 
L 632.019704 144.238487 
L 633.205007 149.136968 
L 634.39031 158.621321 
L 635.575613 160.123202 
L 636.760916 168.624384 
L 637.94622 172.26116 
L 639.131523 179.055138 
L 640.316826 180.074698 
L 641.502129 186.186168 
L 642.687432 202.410285 
L 643.872735 193.069665 
L 645.058039 204.997962 
L 646.243342 209.053245 
L 647.428645 206.253503 
L 648.613948 221.358942 
L 649.799251 221.24482 
L 650.984555 227.442283 
L 652.169858 229.606825 
L 654.540464 234.999088 
L 655.725767 229.838341 
L 656.911071 230.433319 
L 658.096374 232.883771 
L 659.281677 234.031952 
L 660.46698 239.706746 
L 661.652283 236.285072 
L 662.837587 239.727697 
L 664.02289 235.226808 
L 665.208193 241.80046 
L 666.393496 234.545438 
L 667.578799 245.211902 
L 668.764103 246.675469 
L 669.949406 240.359319 
L 671.134709 248.223425 
L 672.320012 242.820093 
L 673.505315 241.394209 
L 674.690619 243.59805 
L 675.875922 243.826095 
L 677.061225 249.950714 
L 678.246528 251.787805 
L 679.431831 238.292847 
L 680.617135 244.80603 
L 681.802438 247.971867 
L 682.987741 243.170974 
L 685.358347 243.128709 
L 686.543651 246.49213 
L 687.728954 243.396868 
L 688.914257 243.782366 
L 690.09956 245.69312 
L 691.284863 241.468597 
L 692.470167 252.870965 
L 693.65547 247.776576 
L 694.840773 244.547127 
L 696.026076 240.407097 
L 697.211379 257.005648 
L 698.396683 246.785431 
L 699.581986 249.550244 
L 700.767289 245.586627 
L 701.952592 247.147838 
L 704.323198 253.020858 
L 705.508502 248.185843 
L 706.693805 249.987274 
L 707.879108 241.574168 
L 709.064411 244.890705 
L 710.249714 253.233397 
L 711.435018 251.852119 
L 712.620321 248.23746 
L 713.805624 255.790587 
L 714.990927 248.913317 
L 716.17623 251.049298 
L 717.361534 245.98243 
L 718.546837 250.835517 
L 719.73214 252.285905 
L 720.917443 258.947524 
L 722.102746 245.419104 
L 723.28805 255.422502 
L 724.473353 248.939262 
L 725.658656 252.758005 
L 726.843959 259.190072 
L 728.029262 248.965152 
L 729.214566 247.841831 
L 730.399869 258.003157 
L 731.585172 261.943634 
L 732.770475 255.268344 
L 732.770475 255.268344 
" clip-path="url(#pcf3b483f40)" style="fill: none; stroke: #1f77b4; stroke-width: 1.5; stroke-linecap: square"/>
   </g>
   <g id="line2d_36">
    <path d="M 437.629979 264.081598 
L 486.22741 263.990058 
L 492.153926 263.799703 
L 496.895139 263.431847 
L 500.451049 262.911192 
L 502.821655 262.379761 
L 505.192262 261.642384 
L 507.562868 260.635463 
L 509.933474 259.282436 
L 512.304081 257.493666 
L 514.674687 255.167377 
L 515.85999 253.768076 
L 517.045293 252.19197 
L 518.230597 250.424225 
L 519.4159 248.449987 
L 520.601203 246.254611 
L 522.971809 241.144456 
L 525.342416 234.991094 
L 527.713022 227.71407 
L 530.083629 219.266235 
L 532.454235 209.645042 
L 534.824841 198.903008 
L 537.195448 187.156178 
L 540.751357 168.075327 
L 549.04848 122.125739 
L 551.419086 110.400028 
L 553.789693 100.08273 
L 554.974996 95.578903 
L 556.160299 91.573096 
L 557.345602 88.106262 
L 558.530905 85.214381 
L 559.716209 82.927842 
L 560.901512 81.270908 
L 562.086815 80.261294 
L 563.272118 79.909846 
L 564.457421 80.220349 
L 565.642725 81.189458 
L 566.828028 82.80676 
L 568.013331 85.054959 
L 569.198634 87.910184 
L 570.383937 91.342412 
L 571.569241 95.315991 
L 572.754544 99.790258 
L 575.12515 110.057361 
L 577.495756 121.745829 
L 581.051666 141.002616 
L 588.163485 180.571291 
L 590.534092 192.780974 
L 592.904698 204.075254 
L 595.275304 214.301975 
L 597.645911 223.375767 
L 600.016517 231.271144 
L 602.387124 238.012953 
L 604.75773 243.665382 
L 607.128336 248.320638 
L 609.498943 252.088244 
L 611.869549 255.085602 
L 614.240156 257.430269 
L 616.610762 259.234094 
L 618.981368 260.599199 
L 621.351975 261.615618 
L 623.722581 262.36032 
L 626.093188 262.897294 
L 629.649097 263.423692 
L 634.39031 263.79591 
L 640.316826 263.988723 
L 652.169858 264.074103 
L 730.399869 264.081598 
L 732.770475 264.081598 
L 732.770475 264.081598 
" clip-path="url(#pcf3b483f40)" style="fill: none; stroke-dasharray: 5.55,2.4; stroke-dashoffset: 0; stroke: #ff7f0e; stroke-width: 1.5"/>
   </g>
   <g id="line2d_37">
    <path d="M 437.629979 264.081598 
L 556.160299 263.981008 
L 560.901512 263.792761 
L 564.457421 263.478615 
L 566.828028 263.122162 
L 569.198634 262.58669 
L 571.569241 261.800731 
L 573.939847 260.673809 
L 576.310453 259.095822 
L 577.495756 258.098234 
L 578.68106 256.938609 
L 579.866363 255.598854 
L 581.051666 254.060518 
L 582.236969 252.305144 
L 583.422272 250.314692 
L 584.607576 248.072017 
L 585.792879 245.56141 
L 586.978182 242.769184 
L 589.348788 236.299017 
L 591.719395 228.616611 
L 594.090001 219.74991 
L 596.460608 209.817075 
L 600.016517 193.42834 
L 605.943033 165.318323 
L 608.31364 155.230327 
L 610.684246 146.602992 
L 611.869549 142.992751 
L 613.054852 139.924566 
L 614.240156 137.444686 
L 615.425459 135.591068 
L 616.610762 134.392419 
L 617.796065 133.867449 
L 618.981368 134.02439 
L 620.166672 134.860778 
L 621.351975 136.363521 
L 622.537278 138.509235 
L 623.722581 141.264855 
L 624.907884 144.588478 
L 626.093188 148.430426 
L 628.463794 157.439235 
L 630.8344 167.788149 
L 634.39031 184.646795 
L 639.131523 206.97736 
L 641.502129 217.164841 
L 643.872735 226.335254 
L 646.243342 234.343783 
L 648.613948 241.13964 
L 650.984555 246.749978 
L 652.169858 249.135555 
L 653.355161 251.260208 
L 654.540464 253.140377 
L 655.725767 254.793681 
L 656.911071 256.23841 
L 658.096374 257.493064 
L 659.281677 258.575972 
L 661.652283 260.297102 
L 664.02289 261.534201 
L 666.393496 262.402513 
L 668.764103 262.997831 
L 671.134709 263.396605 
L 674.690619 263.750676 
L 679.431831 263.965038 
L 687.728954 264.066259 
L 723.28805 264.081598 
L 732.770475 264.081598 
L 732.770475 264.081598 
" clip-path="url(#pcf3b483f40)" style="fill: none; stroke-dasharray: 5.55,2.4; stroke-dashoffset: 0; stroke: #2ca02c; stroke-width: 1.5"/>
   </g>
   <g id="line2d_38">
    <path d="M 437.629979 87.040369 
L 443.556495 96.510469 
L 449.483011 105.474004 
L 455.409527 113.958072 
L 461.336043 121.988319 
L 467.262559 129.589021 
L 473.189075 136.783154 
L 479.115591 143.592466 
L 485.042107 150.037542 
L 490.968623 156.137864 
L 496.895139 161.911875 
L 502.821655 167.377029 
L 508.748171 172.549846 
L 514.674687 177.445965 
L 520.601203 182.080185 
L 526.527719 186.466517 
L 532.454235 190.61822 
L 539.566054 195.308177 
L 546.677873 199.698723 
L 553.789693 203.808973 
L 560.901512 207.656823 
L 568.013331 211.259022 
L 575.12515 214.631255 
L 583.422272 218.294407 
L 591.719395 221.686202 
L 600.016517 224.826742 
L 608.31364 227.734639 
L 616.610762 230.427127 
L 626.093188 233.260904 
L 635.575613 235.856071 
L 645.058039 238.232719 
L 655.725767 240.668099 
L 666.393496 242.874027 
L 678.246528 245.082172 
L 690.09956 247.060403 
L 703.137895 248.999403 
L 716.17623 250.717518 
L 730.399869 252.369396 
L 732.770475 252.624135 
L 732.770475 252.624135 
" clip-path="url(#pcf3b483f40)" style="fill: none; stroke-dasharray: 5.55,2.4; stroke-dashoffset: 0; stroke: #d62728; stroke-width: 1.5"/>
   </g>
   <g id="patch_9">
    <path d="M 422.872955 276.177598 
L 422.872955 10.065598 
" style="fill: none; stroke: #000000; stroke-width: 0.8; stroke-linejoin: miter; stroke-linecap: square"/>
   </g>
   <g id="patch_10">
    <path d="M 747.5275 276.177598 
L 747.5275 10.065598 
" style="fill: none; stroke: #000000; stroke-width: 0.8; stroke-linejoin: miter; stroke-linecap: square"/>
   </g>
   <g id="patch_11">
    <path d="M 422.872955 276.177598 
L 747.5275 276.177598 
" style="fill: none; stroke: #000000; stroke-width: 0.8; stroke-linejoin: miter; stroke-linecap: square"/>
   </g>
   <g id="patch_12">
    <path d="M 422.872955 10.065598 
L 747.5275 10.065598 
" style="fill: none; stroke: #000000; stroke-width: 0.8; stroke-linejoin: miter; stroke-linecap: square"/>
   </g>
   <g id="legend_2">
    <g id="patch_13">
     <path d="M 589.638437 62.099973 
L 740.5275 62.099973 
Q 742.5275 62.099973 742.5275 60.099973 
L 742.5275 17.065598 
Q 742.5275 15.065598 740.5275 15.065598 
L 589.638437 15.065598 
Q 587.638437 15.065598 587.638437 17.065598 
L 587.638437 60.099973 
Q 587.638437 62.099973 589.638437 62.099973 
z
" style="fill: #ffffff; opacity: 0.8; stroke: #cccccc; stroke-linejoin: miter"/>
    </g>
    <g id="line2d_39">
     <path d="M 591.638437 23.164035 
L 601.638437 23.164035 
L 611.638437 23.164035 
" style="fill: none; stroke-dasharray: 5.55,2.4; stroke-dashoffset: 0; stroke: #ff7f0e; stroke-width: 1.5"/>
    </g>
    <g id="text_32">
     <!-- Gaussian component 1 -->
     <g transform="translate(619.638437 26.664035) scale(0.1 -0.1)">
      <defs>
       <path id="DejaVuSans-47" d="M 3809 666 
L 3809 1919 
L 2778 1919 
L 2778 2438 
L 4434 2438 
L 4434 434 
Q 4069 175 3628 42 
Q 3188 -91 2688 -91 
Q 1594 -91 976 548 
Q 359 1188 359 2328 
Q 359 3472 976 4111 
Q 1594 4750 2688 4750 
Q 3144 4750 3555 4637 
Q 3966 4525 4313 4306 
L 4313 3634 
Q 3963 3931 3569 4081 
Q 3175 4231 2741 4231 
Q 1884 4231 1454 3753 
Q 1025 3275 1025 2328 
Q 1025 1384 1454 906 
Q 1884 428 2741 428 
Q 3075 428 3337 486 
Q 3600 544 3809 666 
z
" transform="scale(0.015625)"/>
       <path id="DejaVuSans-75" d="M 544 1381 
L 544 3500 
L 1119 3500 
L 1119 1403 
Q 1119 906 1312 657 
Q 1506 409 1894 409 
Q 2359 409 2629 706 
Q 2900 1003 2900 1516 
L 2900 3500 
L 3475 3500 
L 3475 0 
L 2900 0 
L 2900 538 
Q 2691 219 2414 64 
Q 2138 -91 1772 -91 
Q 1169 -91 856 284 
Q 544 659 544 1381 
z
M 1991 3584 
L 1991 3584 
z
" transform="scale(0.015625)"/>
       <path id="DejaVuSans-63" d="M 3122 3366 
L 3122 2828 
Q 2878 2963 2633 3030 
Q 2388 3097 2138 3097 
Q 1578 3097 1268 2742 
Q 959 2388 959 1747 
Q 959 1106 1268 751 
Q 1578 397 2138 397 
Q 2388 397 2633 464 
Q 2878 531 3122 666 
L 3122 134 
Q 2881 22 2623 -34 
Q 2366 -91 2075 -91 
Q 1284 -91 818 406 
Q 353 903 353 1747 
Q 353 2603 823 3093 
Q 1294 3584 2113 3584 
Q 2378 3584 2631 3529 
Q 2884 3475 3122 3366 
z
" transform="scale(0.015625)"/>
       <path id="DejaVuSans-6f" d="M 1959 3097 
Q 1497 3097 1228 2736 
Q 959 2375 959 1747 
Q 959 1119 1226 758 
Q 1494 397 1959 397 
Q 2419 397 2687 759 
Q 2956 1122 2956 1747 
Q 2956 2369 2687 2733 
Q 2419 3097 1959 3097 
z
M 1959 3584 
Q 2709 3584 3137 3096 
Q 3566 2609 3566 1747 
Q 3566 888 3137 398 
Q 2709 -91 1959 -91 
Q 1206 -91 779 398 
Q 353 888 353 1747 
Q 353 2609 779 3096 
Q 1206 3584 1959 3584 
z
" transform="scale(0.015625)"/>
       <path id="DejaVuSans-6d" d="M 3328 2828 
Q 3544 3216 3844 3400 
Q 4144 3584 4550 3584 
Q 5097 3584 5394 3201 
Q 5691 2819 5691 2113 
L 5691 0 
L 5113 0 
L 5113 2094 
Q 5113 2597 4934 2840 
Q 4756 3084 4391 3084 
Q 3944 3084 3684 2787 
Q 3425 2491 3425 1978 
L 3425 0 
L 2847 0 
L 2847 2094 
Q 2847 2600 2669 2842 
Q 2491 3084 2119 3084 
Q 1678 3084 1418 2786 
Q 1159 2488 1159 1978 
L 1159 0 
L 581 0 
L 581 3500 
L 1159 3500 
L 1159 2956 
Q 1356 3278 1631 3431 
Q 1906 3584 2284 3584 
Q 2666 3584 2933 3390 
Q 3200 3197 3328 2828 
z
" transform="scale(0.015625)"/>
       <path id="DejaVuSans-70" d="M 1159 525 
L 1159 -1331 
L 581 -1331 
L 581 3500 
L 1159 3500 
L 1159 2969 
Q 1341 3281 1617 3432 
Q 1894 3584 2278 3584 
Q 2916 3584 3314 3078 
Q 3713 2572 3713 1747 
Q 3713 922 3314 415 
Q 2916 -91 2278 -91 
Q 1894 -91 1617 61 
Q 1341 213 1159 525 
z
M 3116 1747 
Q 3116 2381 2855 2742 
Q 2594 3103 2138 3103 
Q 1681 3103 1420 2742 
Q 1159 2381 1159 1747 
Q 1159 1113 1420 752 
Q 1681 391 2138 391 
Q 2594 391 2855 752 
Q 3116 1113 3116 1747 
z
" transform="scale(0.015625)"/>
      </defs>
      <use xlink:href="#DejaVuSans-47"/>
      <use xlink:href="#DejaVuSans-61" x="77.490234"/>
      <use xlink:href="#DejaVuSans-75" x="138.769531"/>
      <use xlink:href="#DejaVuSans-73" x="202.148438"/>
      <use xlink:href="#DejaVuSans-73" x="254.248047"/>
      <use xlink:href="#DejaVuSans-69" x="306.347656"/>
      <use xlink:href="#DejaVuSans-61" x="334.130859"/>
      <use xlink:href="#DejaVuSans-6e" x="395.410156"/>
      <use xlink:href="#DejaVuSans-20" x="458.789062"/>
      <use xlink:href="#DejaVuSans-63" x="490.576172"/>
      <use xlink:href="#DejaVuSans-6f" x="545.556641"/>
      <use xlink:href="#DejaVuSans-6d" x="606.738281"/>
      <use xlink:href="#DejaVuSans-70" x="704.150391"/>
      <use xlink:href="#DejaVuSans-6f" x="767.626953"/>
      <use xlink:href="#DejaVuSans-6e" x="828.808594"/>
      <use xlink:href="#DejaVuSans-65" x="892.1875"/>
      <use xlink:href="#DejaVuSans-6e" x="953.710938"/>
      <use xlink:href="#DejaVuSans-74" x="1017.089844"/>
      <use xlink:href="#DejaVuSans-20" x="1056.298828"/>
      <use xlink:href="#DejaVuSans-31" x="1088.085938"/>
     </g>
    </g>
    <g id="line2d_40">
     <path d="M 591.638437 37.84216 
L 601.638437 37.84216 
L 611.638437 37.84216 
" style="fill: none; stroke-dasharray: 5.55,2.4; stroke-dashoffset: 0; stroke: #2ca02c; stroke-width: 1.5"/>
    </g>
    <g id="text_33">
     <!-- Gaussian component 2 -->
     <g transform="translate(619.638437 41.34216) scale(0.1 -0.1)">
      <use xlink:href="#DejaVuSans-47"/>
      <use xlink:href="#DejaVuSans-61" x="77.490234"/>
      <use xlink:href="#DejaVuSans-75" x="138.769531"/>
      <use xlink:href="#DejaVuSans-73" x="202.148438"/>
      <use xlink:href="#DejaVuSans-73" x="254.248047"/>
      <use xlink:href="#DejaVuSans-69" x="306.347656"/>
      <use xlink:href="#DejaVuSans-61" x="334.130859"/>
      <use xlink:href="#DejaVuSans-6e" x="395.410156"/>
      <use xlink:href="#DejaVuSans-20" x="458.789062"/>
      <use xlink:href="#DejaVuSans-63" x="490.576172"/>
      <use xlink:href="#DejaVuSans-6f" x="545.556641"/>
      <use xlink:href="#DejaVuSans-6d" x="606.738281"/>
      <use xlink:href="#DejaVuSans-70" x="704.150391"/>
      <use xlink:href="#DejaVuSans-6f" x="767.626953"/>
      <use xlink:href="#DejaVuSans-6e" x="828.808594"/>
      <use xlink:href="#DejaVuSans-65" x="892.1875"/>
      <use xlink:href="#DejaVuSans-6e" x="953.710938"/>
      <use xlink:href="#DejaVuSans-74" x="1017.089844"/>
      <use xlink:href="#DejaVuSans-20" x="1056.298828"/>
      <use xlink:href="#DejaVuSans-32" x="1088.085938"/>
     </g>
    </g>
    <g id="line2d_41">
     <path d="M 591.638437 52.520285 
L 601.638437 52.520285 
L 611.638437 52.520285 
" style="fill: none; stroke-dasharray: 5.55,2.4; stroke-dashoffset: 0; stroke: #d62728; stroke-width: 1.5"/>
    </g>
    <g id="text_34">
     <!-- Exponential component -->
     <g transform="translate(619.638437 56.020285) scale(0.1 -0.1)">
      <defs>
       <path id="DejaVuSans-45" d="M 628 4666 
L 3578 4666 
L 3578 4134 
L 1259 4134 
L 1259 2753 
L 3481 2753 
L 3481 2222 
L 1259 2222 
L 1259 531 
L 3634 531 
L 3634 0 
L 628 0 
L 628 4666 
z
" transform="scale(0.015625)"/>
       <path id="DejaVuSans-78" d="M 3513 3500 
L 2247 1797 
L 3578 0 
L 2900 0 
L 1881 1375 
L 863 0 
L 184 0 
L 1544 1831 
L 300 3500 
L 978 3500 
L 1906 2253 
L 2834 3500 
L 3513 3500 
z
" transform="scale(0.015625)"/>
      </defs>
      <use xlink:href="#DejaVuSans-45"/>
      <use xlink:href="#DejaVuSans-78" x="63.183594"/>
      <use xlink:href="#DejaVuSans-70" x="122.363281"/>
      <use xlink:href="#DejaVuSans-6f" x="185.839844"/>
      <use xlink:href="#DejaVuSans-6e" x="247.021484"/>
      <use xlink:href="#DejaVuSans-65" x="310.400391"/>
      <use xlink:href="#DejaVuSans-6e" x="371.923828"/>
      <use xlink:href="#DejaVuSans-74" x="435.302734"/>
      <use xlink:href="#DejaVuSans-69" x="474.511719"/>
      <use xlink:href="#DejaVuSans-61" x="502.294922"/>
      <use xlink:href="#DejaVuSans-6c" x="563.574219"/>
      <use xlink:href="#DejaVuSans-20" x="591.357422"/>
      <use xlink:href="#DejaVuSans-63" x="623.144531"/>
      <use xlink:href="#DejaVuSans-6f" x="678.125"/>
      <use xlink:href="#DejaVuSans-6d" x="739.306641"/>
      <use xlink:href="#DejaVuSans-70" x="836.71875"/>
      <use xlink:href="#DejaVuSans-6f" x="900.195312"/>
      <use xlink:href="#DejaVuSans-6e" x="961.376953"/>
      <use xlink:href="#DejaVuSans-65" x="1024.755859"/>
      <use xlink:href="#DejaVuSans-6e" x="1086.279297"/>
      <use xlink:href="#DejaVuSans-74" x="1149.658203"/>
     </g>
    </g>
   </g>
  </g>
 </g>
 <defs>
  <clipPath id="p0f2b97fcc5">
   <rect x="33.2875" y="10.065598" width="324.654545" height="266.112"/>
  </clipPath>
  <clipPath id="pcf3b483f40">
   <rect x="422.872955" y="10.065598" width="324.654545" height="266.112"/>
  </clipPath>
 </defs>
</svg>
