<?xml version="1.0" encoding="utf-8" standalone="no"?>
<!DOCTYPE svg PUBLIC "-//W3C//DTD SVG 1.1//EN"
  "http://www.w3.org/Graphics/SVG/1.1/DTD/svg11.dtd">
<svg xmlns:xlink="http://www.w3.org/1999/xlink" width="397.6075pt" height="300.15525pt" viewBox="0 0 397.6075 300.15525" xmlns="http://www.w3.org/2000/svg" version="1.1">
 <metadata>
  <rdf:RDF xmlns:dc="http://purl.org/dc/elements/1.1/" xmlns:cc="http://creativecommons.org/ns#" xmlns:rdf="http://www.w3.org/1999/02/22-rdf-syntax-ns#">
   <cc:Work>
    <dc:type rdf:resource="http://purl.org/dc/dcmitype/StillImage"/>
    <dc:date>2022-11-27T22:58:03.824372</dc:date>
    <dc:format>image/svg+xml</dc:format>
    <dc:creator>
     <cc:Agent>
      <dc:title>Matplotlib v3.6.2, https://matplotlib.org/</dc:title>
     </cc:Agent>
    </dc:creator>
   </cc:Work>
  </rdf:RDF>
 </metadata>
 <defs>
  <style type="text/css">*{stroke-linejoin: round; stroke-linecap: butt}</style>
 </defs>
 <g id="figure_1">
  <g id="patch_1">
   <path d="M 0 300.15525 
L 397.6075 300.15525 
L 397.6075 0 
L 0 0 
z
" style="fill: #ffffff"/>
  </g>
  <g id="axes_1">
   <g id="patch_2">
    <path d="M 33.2875 276.277125 
L 390.4075 276.277125 
L 390.4075 10.165125 
L 33.2875 10.165125 
z
" style="fill: #ffffff"/>
   </g>
   <g id="matplotlib.axis_1">
    <g id="xtick_1">
     <g id="line2d_1">
      <defs>
       <path id="m9767a8396f" d="M 0 0 
L 0 3.5 
" style="stroke: #000000; stroke-width: 0.8"/>
      </defs>
      <g>
       <use xlink:href="#m9767a8396f" x="48.216394" y="276.277125" style="stroke: #000000; stroke-width: 0.8"/>
      </g>
     </g>
     <g id="text_1">
      <!-- 0 -->
      <g transform="translate(45.035144 290.875562) scale(0.1 -0.1)">
       <defs>
        <path id="DejaVuSans-30" d="M 2034 4250 
Q 1547 4250 1301 3770 
Q 1056 3291 1056 2328 
Q 1056 1369 1301 889 
Q 1547 409 2034 409 
Q 2525 409 2770 889 
Q 3016 1369 3016 2328 
Q 3016 3291 2770 3770 
Q 2525 4250 2034 4250 
z
M 2034 4750 
Q 2819 4750 3233 4129 
Q 3647 3509 3647 2328 
Q 3647 1150 3233 529 
Q 2819 -91 2034 -91 
Q 1250 -91 836 529 
Q 422 1150 422 2328 
Q 422 3509 836 4129 
Q 1250 4750 2034 4750 
z
" transform="scale(0.015625)"/>
       </defs>
       <use xlink:href="#DejaVuSans-30"/>
      </g>
     </g>
    </g>
    <g id="xtick_2">
     <g id="line2d_2">
      <g>
       <use xlink:href="#m9767a8396f" x="113.40807" y="276.277125" style="stroke: #000000; stroke-width: 0.8"/>
      </g>
     </g>
     <g id="text_2">
      <!-- 50 -->
      <g transform="translate(107.04557 290.875562) scale(0.1 -0.1)">
       <defs>
        <path id="DejaVuSans-35" d="M 691 4666 
L 3169 4666 
L 3169 4134 
L 1269 4134 
L 1269 2991 
Q 1406 3038 1543 3061 
Q 1681 3084 1819 3084 
Q 2600 3084 3056 2656 
Q 3513 2228 3513 1497 
Q 3513 744 3044 326 
Q 2575 -91 1722 -91 
Q 1428 -91 1123 -41 
Q 819 9 494 109 
L 494 744 
Q 775 591 1075 516 
Q 1375 441 1709 441 
Q 2250 441 2565 725 
Q 2881 1009 2881 1497 
Q 2881 1984 2565 2268 
Q 2250 2553 1709 2553 
Q 1456 2553 1204 2497 
Q 953 2441 691 2322 
L 691 4666 
z
" transform="scale(0.015625)"/>
       </defs>
       <use xlink:href="#DejaVuSans-35"/>
       <use xlink:href="#DejaVuSans-30" x="63.623047"/>
      </g>
     </g>
    </g>
    <g id="xtick_3">
     <g id="line2d_3">
      <g>
       <use xlink:href="#m9767a8396f" x="178.599745" y="276.277125" style="stroke: #000000; stroke-width: 0.8"/>
      </g>
     </g>
     <g id="text_3">
      <!-- 100 -->
      <g transform="translate(169.055995 290.875562) scale(0.1 -0.1)">
       <defs>
        <path id="DejaVuSans-31" d="M 794 531 
L 1825 531 
L 1825 4091 
L 703 3866 
L 703 4441 
L 1819 4666 
L 2450 4666 
L 2450 531 
L 3481 531 
L 3481 0 
L 794 0 
L 794 531 
z
" transform="scale(0.015625)"/>
       </defs>
       <use xlink:href="#DejaVuSans-31"/>
       <use xlink:href="#DejaVuSans-30" x="63.623047"/>
       <use xlink:href="#DejaVuSans-30" x="127.246094"/>
      </g>
     </g>
    </g>
    <g id="xtick_4">
     <g id="line2d_4">
      <g>
       <use xlink:href="#m9767a8396f" x="243.791421" y="276.277125" style="stroke: #000000; stroke-width: 0.8"/>
      </g>
     </g>
     <g id="text_4">
      <!-- 150 -->
      <g transform="translate(234.247671 290.875562) scale(0.1 -0.1)">
       <use xlink:href="#DejaVuSans-31"/>
       <use xlink:href="#DejaVuSans-35" x="63.623047"/>
       <use xlink:href="#DejaVuSans-30" x="127.246094"/>
      </g>
     </g>
    </g>
    <g id="xtick_5">
     <g id="line2d_5">
      <g>
       <use xlink:href="#m9767a8396f" x="308.983097" y="276.277125" style="stroke: #000000; stroke-width: 0.8"/>
      </g>
     </g>
     <g id="text_5">
      <!-- 200 -->
      <g transform="translate(299.439347 290.875562) scale(0.1 -0.1)">
       <defs>
        <path id="DejaVuSans-32" d="M 1228 531 
L 3431 531 
L 3431 0 
L 469 0 
L 469 531 
Q 828 903 1448 1529 
Q 2069 2156 2228 2338 
Q 2531 2678 2651 2914 
Q 2772 3150 2772 3378 
Q 2772 3750 2511 3984 
Q 2250 4219 1831 4219 
Q 1534 4219 1204 4116 
Q 875 4013 500 3803 
L 500 4441 
Q 881 4594 1212 4672 
Q 1544 4750 1819 4750 
Q 2544 4750 2975 4387 
Q 3406 4025 3406 3419 
Q 3406 3131 3298 2873 
Q 3191 2616 2906 2266 
Q 2828 2175 2409 1742 
Q 1991 1309 1228 531 
z
" transform="scale(0.015625)"/>
       </defs>
       <use xlink:href="#DejaVuSans-32"/>
       <use xlink:href="#DejaVuSans-30" x="63.623047"/>
       <use xlink:href="#DejaVuSans-30" x="127.246094"/>
      </g>
     </g>
    </g>
    <g id="xtick_6">
     <g id="line2d_6">
      <g>
       <use xlink:href="#m9767a8396f" x="374.174773" y="276.277125" style="stroke: #000000; stroke-width: 0.8"/>
      </g>
     </g>
     <g id="text_6">
      <!-- 250 -->
      <g transform="translate(364.631023 290.875562) scale(0.1 -0.1)">
       <use xlink:href="#DejaVuSans-32"/>
       <use xlink:href="#DejaVuSans-35" x="63.623047"/>
       <use xlink:href="#DejaVuSans-30" x="127.246094"/>
      </g>
     </g>
    </g>
   </g>
   <g id="matplotlib.axis_2">
    <g id="ytick_1">
     <g id="line2d_7">
      <defs>
       <path id="m2e3a0dee46" d="M 0 0 
L -3.5 0 
" style="stroke: #000000; stroke-width: 0.8"/>
      </defs>
      <g>
       <use xlink:href="#m2e3a0dee46" x="33.2875" y="266.338151" style="stroke: #000000; stroke-width: 0.8"/>
      </g>
     </g>
     <g id="text_7">
      <!-- 0 -->
      <g transform="translate(19.925 270.13737) scale(0.1 -0.1)">
       <use xlink:href="#DejaVuSans-30"/>
      </g>
     </g>
    </g>
    <g id="ytick_2">
     <g id="line2d_8">
      <g>
       <use xlink:href="#m2e3a0dee46" x="33.2875" y="229.861161" style="stroke: #000000; stroke-width: 0.8"/>
      </g>
     </g>
     <g id="text_8">
      <!-- 20 -->
      <g transform="translate(13.5625 233.66038) scale(0.1 -0.1)">
       <use xlink:href="#DejaVuSans-32"/>
       <use xlink:href="#DejaVuSans-30" x="63.623047"/>
      </g>
     </g>
    </g>
    <g id="ytick_3">
     <g id="line2d_9">
      <g>
       <use xlink:href="#m2e3a0dee46" x="33.2875" y="193.384171" style="stroke: #000000; stroke-width: 0.8"/>
      </g>
     </g>
     <g id="text_9">
      <!-- 40 -->
      <g transform="translate(13.5625 197.183389) scale(0.1 -0.1)">
       <defs>
        <path id="DejaVuSans-34" d="M 2419 4116 
L 825 1625 
L 2419 1625 
L 2419 4116 
z
M 2253 4666 
L 3047 4666 
L 3047 1625 
L 3713 1625 
L 3713 1100 
L 3047 1100 
L 3047 0 
L 2419 0 
L 2419 1100 
L 313 1100 
L 313 1709 
L 2253 4666 
z
" transform="scale(0.015625)"/>
       </defs>
       <use xlink:href="#DejaVuSans-34"/>
       <use xlink:href="#DejaVuSans-30" x="63.623047"/>
      </g>
     </g>
    </g>
    <g id="ytick_4">
     <g id="line2d_10">
      <g>
       <use xlink:href="#m2e3a0dee46" x="33.2875" y="156.90718" style="stroke: #000000; stroke-width: 0.8"/>
      </g>
     </g>
     <g id="text_10">
      <!-- 60 -->
      <g transform="translate(13.5625 160.706399) scale(0.1 -0.1)">
       <defs>
        <path id="DejaVuSans-36" d="M 2113 2584 
Q 1688 2584 1439 2293 
Q 1191 2003 1191 1497 
Q 1191 994 1439 701 
Q 1688 409 2113 409 
Q 2538 409 2786 701 
Q 3034 994 3034 1497 
Q 3034 2003 2786 2293 
Q 2538 2584 2113 2584 
z
M 3366 4563 
L 3366 3988 
Q 3128 4100 2886 4159 
Q 2644 4219 2406 4219 
Q 1781 4219 1451 3797 
Q 1122 3375 1075 2522 
Q 1259 2794 1537 2939 
Q 1816 3084 2150 3084 
Q 2853 3084 3261 2657 
Q 3669 2231 3669 1497 
Q 3669 778 3244 343 
Q 2819 -91 2113 -91 
Q 1303 -91 875 529 
Q 447 1150 447 2328 
Q 447 3434 972 4092 
Q 1497 4750 2381 4750 
Q 2619 4750 2861 4703 
Q 3103 4656 3366 4563 
z
" transform="scale(0.015625)"/>
       </defs>
       <use xlink:href="#DejaVuSans-36"/>
       <use xlink:href="#DejaVuSans-30" x="63.623047"/>
      </g>
     </g>
    </g>
    <g id="ytick_5">
     <g id="line2d_11">
      <g>
       <use xlink:href="#m2e3a0dee46" x="33.2875" y="120.43019" style="stroke: #000000; stroke-width: 0.8"/>
      </g>
     </g>
     <g id="text_11">
      <!-- 80 -->
      <g transform="translate(13.5625 124.229409) scale(0.1 -0.1)">
       <defs>
        <path id="DejaVuSans-38" d="M 2034 2216 
Q 1584 2216 1326 1975 
Q 1069 1734 1069 1313 
Q 1069 891 1326 650 
Q 1584 409 2034 409 
Q 2484 409 2743 651 
Q 3003 894 3003 1313 
Q 3003 1734 2745 1975 
Q 2488 2216 2034 2216 
z
M 1403 2484 
Q 997 2584 770 2862 
Q 544 3141 544 3541 
Q 544 4100 942 4425 
Q 1341 4750 2034 4750 
Q 2731 4750 3128 4425 
Q 3525 4100 3525 3541 
Q 3525 3141 3298 2862 
Q 3072 2584 2669 2484 
Q 3125 2378 3379 2068 
Q 3634 1759 3634 1313 
Q 3634 634 3220 271 
Q 2806 -91 2034 -91 
Q 1263 -91 848 271 
Q 434 634 434 1313 
Q 434 1759 690 2068 
Q 947 2378 1403 2484 
z
M 1172 3481 
Q 1172 3119 1398 2916 
Q 1625 2713 2034 2713 
Q 2441 2713 2670 2916 
Q 2900 3119 2900 3481 
Q 2900 3844 2670 4047 
Q 2441 4250 2034 4250 
Q 1625 4250 1398 4047 
Q 1172 3844 1172 3481 
z
" transform="scale(0.015625)"/>
       </defs>
       <use xlink:href="#DejaVuSans-38"/>
       <use xlink:href="#DejaVuSans-30" x="63.623047"/>
      </g>
     </g>
    </g>
    <g id="ytick_6">
     <g id="line2d_12">
      <g>
       <use xlink:href="#m2e3a0dee46" x="33.2875" y="83.9532" style="stroke: #000000; stroke-width: 0.8"/>
      </g>
     </g>
     <g id="text_12">
      <!-- 100 -->
      <g transform="translate(7.2 87.752418) scale(0.1 -0.1)">
       <use xlink:href="#DejaVuSans-31"/>
       <use xlink:href="#DejaVuSans-30" x="63.623047"/>
       <use xlink:href="#DejaVuSans-30" x="127.246094"/>
      </g>
     </g>
    </g>
    <g id="ytick_7">
     <g id="line2d_13">
      <g>
       <use xlink:href="#m2e3a0dee46" x="33.2875" y="47.476209" style="stroke: #000000; stroke-width: 0.8"/>
      </g>
     </g>
     <g id="text_13">
      <!-- 120 -->
      <g transform="translate(7.2 51.275428) scale(0.1 -0.1)">
       <use xlink:href="#DejaVuSans-31"/>
       <use xlink:href="#DejaVuSans-32" x="63.623047"/>
       <use xlink:href="#DejaVuSans-30" x="127.246094"/>
      </g>
     </g>
    </g>
    <g id="ytick_8">
     <g id="line2d_14">
      <g>
       <use xlink:href="#m2e3a0dee46" x="33.2875" y="10.999219" style="stroke: #000000; stroke-width: 0.8"/>
      </g>
     </g>
     <g id="text_14">
      <!-- 140 -->
      <g transform="translate(7.2 14.798437) scale(0.1 -0.1)">
       <use xlink:href="#DejaVuSans-31"/>
       <use xlink:href="#DejaVuSans-34" x="63.623047"/>
       <use xlink:href="#DejaVuSans-30" x="127.246094"/>
      </g>
     </g>
    </g>
   </g>
   <g id="line2d_15">
    <path d="M 49.520227 88.352762 
L 50.824061 88.032348 
L 52.127894 90.214384 
L 53.431728 97.594919 
L 54.735561 100.092499 
L 56.039395 92.676161 
L 57.343228 101.802212 
L 58.647062 103.482342 
L 59.950895 99.428946 
L 61.254729 102.903616 
L 62.558562 108.462326 
L 63.862396 110.302062 
L 65.166229 107.425158 
L 66.470063 110.071819 
L 67.773896 120.341715 
L 69.07773 116.437327 
L 70.381564 107.224042 
L 71.685397 118.981926 
L 72.989231 118.085267 
L 74.293064 117.56784 
L 75.596898 121.839752 
L 76.900731 121.464769 
L 78.204565 124.256717 
L 79.508398 126.349165 
L 80.812232 125.584808 
L 82.116065 130.874501 
L 83.419899 132.980098 
L 84.723732 131.650038 
L 86.027566 134.147909 
L 87.331399 135.161568 
L 88.635233 144.282932 
L 89.939066 142.428824 
L 91.2429 139.467404 
L 92.546733 140.363661 
L 95.1544 149.832778 
L 96.458234 139.187807 
L 97.762067 150.330598 
L 99.065901 150.757999 
L 100.369734 156.873713 
L 101.673568 152.028729 
L 102.977401 146.316706 
L 104.281235 158.470146 
L 105.585068 163.054447 
L 106.888902 154.686005 
L 108.192735 167.142806 
L 109.496569 151.555222 
L 110.800403 163.01445 
L 112.104236 162.135026 
L 113.40807 160.013397 
L 114.711903 158.881607 
L 116.015737 159.639818 
L 117.31957 165.60904 
L 118.623404 160.000885 
L 119.927237 161.590151 
L 121.231071 172.055947 
L 122.534904 175.270937 
L 123.838738 168.383571 
L 125.142571 165.302141 
L 126.446405 169.861819 
L 127.750238 170.920746 
L 129.054072 167.873623 
L 130.357905 168.686367 
L 131.661739 163.381007 
L 132.965572 172.73316 
L 134.269406 169.461174 
L 135.573239 169.151941 
L 136.877073 175.500323 
L 138.180906 166.581535 
L 139.48474 163.443365 
L 140.788573 166.767604 
L 142.092407 167.147731 
L 143.39624 156.627146 
L 144.700074 157.294329 
L 146.003907 155.995347 
L 147.307741 146.987536 
L 148.611574 155.630467 
L 149.915408 150.124922 
L 151.219242 142.733334 
L 152.523075 148.318053 
L 153.826909 137.242562 
L 155.130742 137.963749 
L 156.434576 125.493944 
L 157.738409 121.293509 
L 159.042243 120.191685 
L 160.346076 110.073953 
L 161.64991 110.934372 
L 162.953743 101.743976 
L 164.257577 95.590217 
L 165.56141 91.494653 
L 166.865244 95.863083 
L 168.169077 73.349886 
L 169.472911 69.678112 
L 170.776744 58.308599 
L 172.080578 55.680067 
L 173.384411 50.191921 
L 174.688245 48.173467 
L 175.992078 43.474683 
L 177.295912 34.726954 
L 178.599745 37.079355 
L 179.903579 40.64644 
L 181.207412 28.044369 
L 182.511246 29.754228 
L 183.815079 25.911012 
L 185.118913 25.816355 
L 187.72658 25.367323 
L 189.030413 22.961118 
L 190.334247 22.261125 
L 191.638081 22.545098 
L 192.941914 32.365433 
L 195.549581 38.803805 
L 196.853415 50.39145 
L 198.157248 43.767594 
L 199.461082 56.219926 
L 200.764915 49.691092 
L 202.068749 64.367427 
L 203.372582 65.349387 
L 204.676416 74.518608 
L 205.980249 77.666025 
L 207.284083 93.906311 
L 208.587916 94.157163 
L 209.89175 93.839121 
L 211.195583 104.442234 
L 212.499417 107.138941 
L 213.80325 97.623991 
L 215.107084 108.97647 
L 216.410917 115.974398 
L 219.018584 123.410214 
L 220.322418 122.722641 
L 221.626251 127.492391 
L 222.930085 122.014969 
L 224.233918 126.338332 
L 225.537752 124.793403 
L 226.841585 124.504068 
L 228.145419 118.09165 
L 229.449252 120.898792 
L 230.753086 116.819624 
L 232.056919 120.37635 
L 233.360753 109.574054 
L 234.664587 109.544763 
L 235.96842 120.525231 
L 237.272254 107.352769 
L 238.576087 101.261677 
L 239.879921 96.293858 
L 241.183754 103.74556 
L 242.487588 96.510549 
L 243.791421 101.56544 
L 245.095255 95.454012 
L 246.399088 91.718129 
L 247.702922 98.815658 
L 249.006755 89.889775 
L 250.310589 106.550768 
L 251.614422 101.334267 
L 254.222089 110.021973 
L 255.525923 111.28612 
L 256.829756 123.110519 
L 258.13359 117.983532 
L 259.437423 129.197526 
L 260.741257 133.815148 
L 262.04509 138.93307 
L 263.348924 145.426485 
L 264.652757 150.368643 
L 265.956591 159.937561 
L 267.260424 161.452833 
L 268.564258 170.029814 
L 269.868091 173.699016 
L 271.171925 180.553572 
L 272.475758 181.582223 
L 273.779592 187.748184 
L 275.083426 204.11696 
L 276.387259 194.693056 
L 277.691093 206.727709 
L 278.994926 210.819151 
L 280.29876 207.994446 
L 281.602593 223.234569 
L 282.906427 223.119429 
L 284.21026 229.372151 
L 285.514094 231.555991 
L 288.121761 236.996334 
L 289.425594 231.789572 
L 290.729428 232.389855 
L 292.033261 234.862156 
L 293.337095 236.020574 
L 294.640928 241.745966 
L 295.944762 238.293784 
L 297.248595 241.767105 
L 298.552429 237.226084 
L 299.856262 243.858349 
L 301.160096 236.538639 
L 302.463929 247.300208 
L 303.767763 248.776824 
L 305.071596 242.404358 
L 306.37543 250.338583 
L 307.679263 244.887073 
L 308.983097 243.448475 
L 310.28693 245.671967 
L 311.590764 245.902045 
L 312.894597 252.081273 
L 314.198431 253.934744 
L 315.502265 240.319461 
L 316.806098 246.890718 
L 318.109932 250.084782 
L 319.413765 245.241082 
L 322.021432 245.198441 
L 323.325266 248.591851 
L 324.629099 245.46899 
L 325.932933 245.857926 
L 327.236766 247.785717 
L 328.5406 243.523527 
L 329.844433 255.027561 
L 331.148267 249.887749 
L 332.4521 246.629506 
L 333.755934 242.452562 
L 335.059767 259.19911 
L 336.363601 248.887767 
L 337.667434 251.677232 
L 338.971268 247.678274 
L 340.275101 249.253405 
L 342.882768 255.178791 
L 344.186602 250.300665 
L 345.490435 252.118159 
L 346.794269 243.630039 
L 348.098102 246.976147 
L 349.401936 255.393225 
L 350.705769 253.999631 
L 352.009603 250.352743 
L 353.313436 257.973215 
L 354.61727 251.034626 
L 355.921104 253.189652 
L 357.224937 248.077606 
L 358.528771 252.973965 
L 359.832604 254.437285 
L 361.136438 261.1583 
L 362.440271 247.509258 
L 363.744105 257.601848 
L 365.047938 251.060802 
L 366.351772 254.913595 
L 367.655605 261.403012 
L 368.959439 251.086923 
L 370.263272 249.953587 
L 371.567106 260.205514 
L 372.870939 264.181125 
L 374.174773 257.446316 
L 374.174773 257.446316 
" clip-path="url(#p68d3fcc4e4)" style="fill: none; stroke: #1f77b4; stroke-width: 1.5; stroke-linecap: square"/>
   </g>
   <g id="line2d_16">
    <path d="M 49.520227 95.460082 
L 56.039395 102.973368 
L 62.558562 110.156304 
L 69.07773 117.023416 
L 75.596898 123.588586 
L 82.116065 129.86507 
L 88.635233 135.865436 
L 95.1544 141.601172 
L 101.673568 147.080887 
L 108.192735 152.303603 
L 114.711903 157.237496 
L 119.927237 160.902238 
L 123.838738 163.39726 
L 126.446405 164.881439 
L 129.054072 166.166514 
L 131.661739 167.187112 
L 134.269406 167.859619 
L 135.573239 168.033832 
L 136.877073 168.080716 
L 138.180906 167.984289 
L 139.48474 167.727465 
L 140.788573 167.292197 
L 142.092407 166.65966 
L 143.39624 165.810502 
L 144.700074 164.725149 
L 146.003907 163.384165 
L 147.307741 161.768682 
L 148.611574 159.860872 
L 149.915408 157.644485 
L 151.219242 155.105413 
L 152.523075 152.232299 
L 153.826909 149.017156 
L 155.130742 145.455984 
L 157.738409 137.303083 
L 160.346076 127.843128 
L 162.953743 117.241986 
L 166.865244 99.818896 
L 172.080578 75.930958 
L 174.688245 64.862051 
L 177.295912 55.114835 
L 178.599745 50.90216 
L 179.903579 47.209652 
L 181.207412 44.089054 
L 182.511246 41.584175 
L 183.815079 39.729716 
L 185.118913 38.550273 
L 186.422746 38.059554 
L 187.72658 38.259839 
L 189.030413 39.141691 
L 190.334247 40.683949 
L 191.638081 42.853989 
L 192.941914 45.608259 
L 194.245748 48.893074 
L 195.549581 52.645645 
L 198.157248 61.265027 
L 202.068749 75.760375 
L 205.980249 90.086435 
L 208.587916 98.469111 
L 209.89175 102.104896 
L 211.195583 105.297994 
L 212.499417 108.006313 
L 213.80325 110.198337 
L 215.107084 111.853583 
L 216.410917 112.962846 
L 217.714751 113.528206 
L 219.018584 113.562829 
L 220.322418 113.090561 
L 221.626251 112.145312 
L 222.930085 110.770279 
L 224.233918 109.016983 
L 225.537752 106.944183 
L 228.145419 102.103864 
L 233.360753 91.675461 
L 234.664587 89.344201 
L 235.96842 87.263976 
L 237.272254 85.497757 
L 238.576087 84.102416 
L 239.879921 83.127751 
L 241.183754 82.61567 
L 242.487588 82.599555 
L 243.791421 83.103809 
L 245.095255 84.143615 
L 246.399088 85.724878 
L 247.702922 87.844375 
L 249.006755 90.49009 
L 250.310589 93.641728 
L 251.614422 97.271388 
L 252.918256 101.344373 
L 255.525923 110.653189 
L 258.13359 121.19182 
L 262.04509 138.385299 
L 268.564258 167.313825 
L 271.171925 177.975496 
L 273.779592 187.753183 
L 276.387259 196.510073 
L 278.994926 204.182405 
L 281.602593 210.76971 
L 284.21026 216.321951 
L 286.817927 220.925423 
L 289.425594 224.689022 
L 292.033261 227.732042 
L 294.640928 230.174273 
L 297.248595 232.128676 
L 299.856262 233.696612 
L 302.463929 234.965314 
L 305.071596 236.007164 
L 308.983097 237.268164 
L 312.894597 238.290421 
L 318.109932 239.437946 
L 325.932933 240.925542 
L 337.667434 242.918582 
L 352.009603 245.125595 
L 367.655605 247.295586 
L 374.174773 248.132863 
L 374.174773 248.132863 
" clip-path="url(#p68d3fcc4e4)" style="fill: none; stroke-dasharray: 5.55,2.4; stroke-dashoffset: 0; stroke: #ff7f0e; stroke-width: 1.5"/>
   </g>
   <g id="line2d_17">
    <path d="M 49.520227 87.718374 
L 54.735561 95.403791 
L 59.950895 102.758527 
L 65.166229 109.796799 
L 70.381564 116.532191 
L 76.900731 124.545115 
L 83.419899 132.128308 
L 89.939066 139.301626 
L 96.458234 146.076555 
L 101.673568 151.204285 
L 106.888902 156.044603 
L 112.104236 160.530706 
L 116.015737 163.584113 
L 118.623404 165.421247 
L 121.231071 167.054325 
L 123.838738 168.43244 
L 126.446405 169.492452 
L 129.054072 170.158122 
L 130.357905 170.315623 
L 131.661739 170.339995 
L 132.965572 170.218145 
L 134.269406 169.936348 
L 135.573239 169.480353 
L 136.877073 168.835526 
L 138.180906 167.987014 
L 139.48474 166.919945 
L 140.788573 165.619652 
L 142.092407 164.071939 
L 143.39624 162.263354 
L 144.700074 160.181509 
L 146.003907 157.815405 
L 147.307741 155.155782 
L 148.611574 152.195479 
L 149.915408 148.929791 
L 152.523075 141.477873 
L 155.130742 132.82479 
L 157.738409 123.055411 
L 160.346076 112.321745 
L 164.257577 94.918459 
L 170.776744 65.169827 
L 173.384411 54.177091 
L 175.992078 44.351974 
L 177.295912 40.008955 
L 178.599745 36.110999 
L 179.903579 32.702606 
L 181.207412 29.823672 
L 182.511246 27.508739 
L 183.815079 25.786296 
L 185.118913 24.678182 
L 186.422746 24.199068 
L 187.72658 24.356064 
L 189.030413 25.148433 
L 190.334247 26.56743 
L 191.638081 28.596274 
L 192.941914 31.210241 
L 194.245748 34.376899 
L 195.549581 38.056455 
L 196.853415 42.202226 
L 199.461082 51.674867 
L 202.068749 62.308373 
L 209.89175 95.554873 
L 212.499417 105.189083 
L 213.80325 109.445893 
L 215.107084 113.26061 
L 216.410917 116.59092 
L 217.714751 119.402821 
L 219.018584 121.671355 
L 220.322418 123.381216 
L 221.626251 124.52721 
L 222.930085 125.114551 
L 224.233918 125.158982 
L 225.537752 124.686696 
L 226.841585 123.734048 
L 228.145419 122.347065 
L 229.449252 120.580721 
L 230.753086 118.49802 
L 233.360753 113.668719 
L 237.272254 105.94903 
L 238.576087 103.5772 
L 239.879921 101.440026 
L 241.183754 99.612251 
L 242.487588 98.162543 
L 243.791421 97.152002 
L 245.095255 96.632853 
L 246.399088 96.647356 
L 247.702922 97.226976 
L 249.006755 98.39183 
L 250.310589 100.150434 
L 251.614422 102.499745 
L 252.918256 105.425503 
L 254.222089 108.902855 
L 255.525923 112.897229 
L 256.829756 117.365439 
L 259.437423 127.515395 
L 262.04509 138.886818 
L 272.475758 186.633412 
L 275.083426 197.051456 
L 277.691093 206.331911 
L 280.29876 214.382518 
L 282.906427 221.196958 
L 284.21026 224.157769 
L 285.514094 226.836856 
L 286.817927 229.249216 
L 288.121761 231.41158 
L 289.425594 233.341849 
L 290.729428 235.058576 
L 292.033261 236.580517 
L 294.640928 239.113787 
L 297.248595 241.082531 
L 299.856262 242.612538 
L 302.463929 243.810708 
L 305.071596 244.764076 
L 308.983097 245.879694 
L 312.894597 246.757146 
L 319.413765 247.943203 
L 328.5406 249.346973 
L 341.578935 251.121297 
L 355.921104 252.85491 
L 371.567106 254.521519 
L 374.174773 254.77853 
L 374.174773 254.77853 
" clip-path="url(#p68d3fcc4e4)" style="fill: none; stroke: #2ca02c; stroke-width: 1.5; stroke-linecap: square"/>
   </g>
   <g id="patch_3">
    <path d="M 33.2875 276.277125 
L 33.2875 10.165125 
" style="fill: none; stroke: #000000; stroke-width: 0.8; stroke-linejoin: miter; stroke-linecap: square"/>
   </g>
   <g id="patch_4">
    <path d="M 390.4075 276.277125 
L 390.4075 10.165125 
" style="fill: none; stroke: #000000; stroke-width: 0.8; stroke-linejoin: miter; stroke-linecap: square"/>
   </g>
   <g id="patch_5">
    <path d="M 33.2875 276.277125 
L 390.4075 276.277125 
" style="fill: none; stroke: #000000; stroke-width: 0.8; stroke-linejoin: miter; stroke-linecap: square"/>
   </g>
   <g id="patch_6">
    <path d="M 33.2875 10.165125 
L 390.4075 10.165125 
" style="fill: none; stroke: #000000; stroke-width: 0.8; stroke-linejoin: miter; stroke-linecap: square"/>
   </g>
   <g id="legend_1">
    <g id="patch_7">
     <path d="M 310.512188 47.521375 
L 383.4075 47.521375 
Q 385.4075 47.521375 385.4075 45.521375 
L 385.4075 17.165125 
Q 385.4075 15.165125 383.4075 15.165125 
L 310.512188 15.165125 
Q 308.512188 15.165125 308.512188 17.165125 
L 308.512188 45.521375 
Q 308.512188 47.521375 310.512188 47.521375 
z
" style="fill: #ffffff; opacity: 0.8; stroke: #cccccc; stroke-linejoin: miter"/>
    </g>
    <g id="line2d_18">
     <path d="M 312.512188 23.263562 
L 322.512188 23.263562 
L 332.512188 23.263562 
" style="fill: none; stroke-dasharray: 5.55,2.4; stroke-dashoffset: 0; stroke: #ff7f0e; stroke-width: 1.5"/>
    </g>
    <g id="text_15">
     <!-- initial fit -->
     <g transform="translate(340.512188 26.763562) scale(0.1 -0.1)">
      <defs>
       <path id="DejaVuSans-69" d="M 603 3500 
L 1178 3500 
L 1178 0 
L 603 0 
L 603 3500 
z
M 603 4863 
L 1178 4863 
L 1178 4134 
L 603 4134 
L 603 4863 
z
" transform="scale(0.015625)"/>
       <path id="DejaVuSans-6e" d="M 3513 2113 
L 3513 0 
L 2938 0 
L 2938 2094 
Q 2938 2591 2744 2837 
Q 2550 3084 2163 3084 
Q 1697 3084 1428 2787 
Q 1159 2491 1159 1978 
L 1159 0 
L 581 0 
L 581 3500 
L 1159 3500 
L 1159 2956 
Q 1366 3272 1645 3428 
Q 1925 3584 2291 3584 
Q 2894 3584 3203 3211 
Q 3513 2838 3513 2113 
z
" transform="scale(0.015625)"/>
       <path id="DejaVuSans-74" d="M 1172 4494 
L 1172 3500 
L 2356 3500 
L 2356 3053 
L 1172 3053 
L 1172 1153 
Q 1172 725 1289 603 
Q 1406 481 1766 481 
L 2356 481 
L 2356 0 
L 1766 0 
Q 1100 0 847 248 
Q 594 497 594 1153 
L 594 3053 
L 172 3053 
L 172 3500 
L 594 3500 
L 594 4494 
L 1172 4494 
z
" transform="scale(0.015625)"/>
       <path id="DejaVuSans-61" d="M 2194 1759 
Q 1497 1759 1228 1600 
Q 959 1441 959 1056 
Q 959 750 1161 570 
Q 1363 391 1709 391 
Q 2188 391 2477 730 
Q 2766 1069 2766 1631 
L 2766 1759 
L 2194 1759 
z
M 3341 1997 
L 3341 0 
L 2766 0 
L 2766 531 
Q 2569 213 2275 61 
Q 1981 -91 1556 -91 
Q 1019 -91 701 211 
Q 384 513 384 1019 
Q 384 1609 779 1909 
Q 1175 2209 1959 2209 
L 2766 2209 
L 2766 2266 
Q 2766 2663 2505 2880 
Q 2244 3097 1772 3097 
Q 1472 3097 1187 3025 
Q 903 2953 641 2809 
L 641 3341 
Q 956 3463 1253 3523 
Q 1550 3584 1831 3584 
Q 2591 3584 2966 3190 
Q 3341 2797 3341 1997 
z
" transform="scale(0.015625)"/>
       <path id="DejaVuSans-6c" d="M 603 4863 
L 1178 4863 
L 1178 0 
L 603 0 
L 603 4863 
z
" transform="scale(0.015625)"/>
       <path id="DejaVuSans-20" transform="scale(0.015625)"/>
       <path id="DejaVuSans-66" d="M 2375 4863 
L 2375 4384 
L 1825 4384 
Q 1516 4384 1395 4259 
Q 1275 4134 1275 3809 
L 1275 3500 
L 2222 3500 
L 2222 3053 
L 1275 3053 
L 1275 0 
L 697 0 
L 697 3053 
L 147 3053 
L 147 3500 
L 697 3500 
L 697 3744 
Q 697 4328 969 4595 
Q 1241 4863 1831 4863 
L 2375 4863 
z
" transform="scale(0.015625)"/>
      </defs>
      <use xlink:href="#DejaVuSans-69"/>
      <use xlink:href="#DejaVuSans-6e" x="27.783203"/>
      <use xlink:href="#DejaVuSans-69" x="91.162109"/>
      <use xlink:href="#DejaVuSans-74" x="118.945312"/>
      <use xlink:href="#DejaVuSans-69" x="158.154297"/>
      <use xlink:href="#DejaVuSans-61" x="185.9375"/>
      <use xlink:href="#DejaVuSans-6c" x="247.216797"/>
      <use xlink:href="#DejaVuSans-20" x="275"/>
      <use xlink:href="#DejaVuSans-66" x="306.787109"/>
      <use xlink:href="#DejaVuSans-69" x="341.992188"/>
      <use xlink:href="#DejaVuSans-74" x="369.775391"/>
     </g>
    </g>
    <g id="line2d_19">
     <path d="M 312.512188 37.941687 
L 322.512188 37.941687 
L 332.512188 37.941687 
" style="fill: none; stroke: #2ca02c; stroke-width: 1.5; stroke-linecap: square"/>
    </g>
    <g id="text_16">
     <!-- best fit -->
     <g transform="translate(340.512188 41.441687) scale(0.1 -0.1)">
      <defs>
       <path id="DejaVuSans-62" d="M 3116 1747 
Q 3116 2381 2855 2742 
Q 2594 3103 2138 3103 
Q 1681 3103 1420 2742 
Q 1159 2381 1159 1747 
Q 1159 1113 1420 752 
Q 1681 391 2138 391 
Q 2594 391 2855 752 
Q 3116 1113 3116 1747 
z
M 1159 2969 
Q 1341 3281 1617 3432 
Q 1894 3584 2278 3584 
Q 2916 3584 3314 3078 
Q 3713 2572 3713 1747 
Q 3713 922 3314 415 
Q 2916 -91 2278 -91 
Q 1894 -91 1617 61 
Q 1341 213 1159 525 
L 1159 0 
L 581 0 
L 581 4863 
L 1159 4863 
L 1159 2969 
z
" transform="scale(0.015625)"/>
       <path id="DejaVuSans-65" d="M 3597 1894 
L 3597 1613 
L 953 1613 
Q 991 1019 1311 708 
Q 1631 397 2203 397 
Q 2534 397 2845 478 
Q 3156 559 3463 722 
L 3463 178 
Q 3153 47 2828 -22 
Q 2503 -91 2169 -91 
Q 1331 -91 842 396 
Q 353 884 353 1716 
Q 353 2575 817 3079 
Q 1281 3584 2069 3584 
Q 2775 3584 3186 3129 
Q 3597 2675 3597 1894 
z
M 3022 2063 
Q 3016 2534 2758 2815 
Q 2500 3097 2075 3097 
Q 1594 3097 1305 2825 
Q 1016 2553 972 2059 
L 3022 2063 
z
" transform="scale(0.015625)"/>
       <path id="DejaVuSans-73" d="M 2834 3397 
L 2834 2853 
Q 2591 2978 2328 3040 
Q 2066 3103 1784 3103 
Q 1356 3103 1142 2972 
Q 928 2841 928 2578 
Q 928 2378 1081 2264 
Q 1234 2150 1697 2047 
L 1894 2003 
Q 2506 1872 2764 1633 
Q 3022 1394 3022 966 
Q 3022 478 2636 193 
Q 2250 -91 1575 -91 
Q 1294 -91 989 -36 
Q 684 19 347 128 
L 347 722 
Q 666 556 975 473 
Q 1284 391 1588 391 
Q 1994 391 2212 530 
Q 2431 669 2431 922 
Q 2431 1156 2273 1281 
Q 2116 1406 1581 1522 
L 1381 1569 
Q 847 1681 609 1914 
Q 372 2147 372 2553 
Q 372 3047 722 3315 
Q 1072 3584 1716 3584 
Q 2034 3584 2315 3537 
Q 2597 3491 2834 3397 
z
" transform="scale(0.015625)"/>
      </defs>
      <use xlink:href="#DejaVuSans-62"/>
      <use xlink:href="#DejaVuSans-65" x="63.476562"/>
      <use xlink:href="#DejaVuSans-73" x="125"/>
      <use xlink:href="#DejaVuSans-74" x="177.099609"/>
      <use xlink:href="#DejaVuSans-20" x="216.308594"/>
      <use xlink:href="#DejaVuSans-66" x="248.095703"/>
      <use xlink:href="#DejaVuSans-69" x="283.300781"/>
      <use xlink:href="#DejaVuSans-74" x="311.083984"/>
     </g>
    </g>
   </g>
  </g>
 </g>
 <defs>
  <clipPath id="p68d3fcc4e4">
   <rect x="33.2875" y="10.165125" width="357.12" height="266.112"/>
  </clipPath>
 </defs>
</svg>
