<?xml version="1.0" encoding="utf-8" standalone="no"?>
<!DOCTYPE svg PUBLIC "-//W3C//DTD SVG 1.1//EN"
  "http://www.w3.org/Graphics/SVG/1.1/DTD/svg11.dtd">
<svg xmlns:xlink="http://www.w3.org/1999/xlink" width="391.245pt" height="297.190125pt" viewBox="0 0 391.245 297.190125" xmlns="http://www.w3.org/2000/svg" version="1.1">
 <metadata>
  <rdf:RDF xmlns:dc="http://purl.org/dc/elements/1.1/" xmlns:cc="http://creativecommons.org/ns#" xmlns:rdf="http://www.w3.org/1999/02/22-rdf-syntax-ns#">
   <cc:Work>
    <dc:type rdf:resource="http://purl.org/dc/dcmitype/StillImage"/>
    <dc:date>2023-05-02T12:51:09.794299</dc:date>
    <dc:format>image/svg+xml</dc:format>
    <dc:creator>
     <cc:Agent>
      <dc:title>Matplotlib v3.7.1, https://matplotlib.org/</dc:title>
     </cc:Agent>
    </dc:creator>
   </cc:Work>
  </rdf:RDF>
 </metadata>
 <defs>
  <style type="text/css">*{stroke-linejoin: round; stroke-linecap: butt}</style>
 </defs>
 <g id="figure_1">
  <g id="patch_1">
   <path d="M 0 297.190125 
L 391.245 297.190125 
L 391.245 0 
L 0 0 
z
" style="fill: #ffffff"/>
  </g>
  <g id="axes_1">
   <g id="patch_2">
    <path d="M 26.925 273.312 
L 384.045 273.312 
L 384.045 7.2 
L 26.925 7.2 
z
" style="fill: #ffffff"/>
   </g>
   <g id="matplotlib.axis_1">
    <g id="xtick_1">
     <g id="line2d_1">
      <defs>
       <path id="md5ab469c13" d="M 0 0 
L 0 3.5 
" style="stroke: #000000; stroke-width: 0.8"/>
      </defs>
      <g>
       <use xlink:href="#md5ab469c13" x="43.157727" y="273.312" style="stroke: #000000; stroke-width: 0.8"/>
      </g>
     </g>
     <g id="text_1">
      <!-- 0 -->
      <g transform="translate(39.976477 287.910437) scale(0.1 -0.1)">
       <defs>
        <path id="DejaVuSans-30" d="M 2034 4250 
Q 1547 4250 1301 3770 
Q 1056 3291 1056 2328 
Q 1056 1369 1301 889 
Q 1547 409 2034 409 
Q 2525 409 2770 889 
Q 3016 1369 3016 2328 
Q 3016 3291 2770 3770 
Q 2525 4250 2034 4250 
z
M 2034 4750 
Q 2819 4750 3233 4129 
Q 3647 3509 3647 2328 
Q 3647 1150 3233 529 
Q 2819 -91 2034 -91 
Q 1250 -91 836 529 
Q 422 1150 422 2328 
Q 422 3509 836 4129 
Q 1250 4750 2034 4750 
z
" transform="scale(0.015625)"/>
       </defs>
       <use xlink:href="#DejaVuSans-30"/>
      </g>
     </g>
    </g>
    <g id="xtick_2">
     <g id="line2d_2">
      <g>
       <use xlink:href="#md5ab469c13" x="108.088636" y="273.312" style="stroke: #000000; stroke-width: 0.8"/>
      </g>
     </g>
     <g id="text_2">
      <!-- 5 -->
      <g transform="translate(104.907386 287.910437) scale(0.1 -0.1)">
       <defs>
        <path id="DejaVuSans-35" d="M 691 4666 
L 3169 4666 
L 3169 4134 
L 1269 4134 
L 1269 2991 
Q 1406 3038 1543 3061 
Q 1681 3084 1819 3084 
Q 2600 3084 3056 2656 
Q 3513 2228 3513 1497 
Q 3513 744 3044 326 
Q 2575 -91 1722 -91 
Q 1428 -91 1123 -41 
Q 819 9 494 109 
L 494 744 
Q 775 591 1075 516 
Q 1375 441 1709 441 
Q 2250 441 2565 725 
Q 2881 1009 2881 1497 
Q 2881 1984 2565 2268 
Q 2250 2553 1709 2553 
Q 1456 2553 1204 2497 
Q 953 2441 691 2322 
L 691 4666 
z
" transform="scale(0.015625)"/>
       </defs>
       <use xlink:href="#DejaVuSans-35"/>
      </g>
     </g>
    </g>
    <g id="xtick_3">
     <g id="line2d_3">
      <g>
       <use xlink:href="#md5ab469c13" x="173.019545" y="273.312" style="stroke: #000000; stroke-width: 0.8"/>
      </g>
     </g>
     <g id="text_3">
      <!-- 10 -->
      <g transform="translate(166.657045 287.910437) scale(0.1 -0.1)">
       <defs>
        <path id="DejaVuSans-31" d="M 794 531 
L 1825 531 
L 1825 4091 
L 703 3866 
L 703 4441 
L 1819 4666 
L 2450 4666 
L 2450 531 
L 3481 531 
L 3481 0 
L 794 0 
L 794 531 
z
" transform="scale(0.015625)"/>
       </defs>
       <use xlink:href="#DejaVuSans-31"/>
       <use xlink:href="#DejaVuSans-30" x="63.623047"/>
      </g>
     </g>
    </g>
    <g id="xtick_4">
     <g id="line2d_4">
      <g>
       <use xlink:href="#md5ab469c13" x="237.950455" y="273.312" style="stroke: #000000; stroke-width: 0.8"/>
      </g>
     </g>
     <g id="text_4">
      <!-- 15 -->
      <g transform="translate(231.587955 287.910437) scale(0.1 -0.1)">
       <use xlink:href="#DejaVuSans-31"/>
       <use xlink:href="#DejaVuSans-35" x="63.623047"/>
      </g>
     </g>
    </g>
    <g id="xtick_5">
     <g id="line2d_5">
      <g>
       <use xlink:href="#md5ab469c13" x="302.881364" y="273.312" style="stroke: #000000; stroke-width: 0.8"/>
      </g>
     </g>
     <g id="text_5">
      <!-- 20 -->
      <g transform="translate(296.518864 287.910437) scale(0.1 -0.1)">
       <defs>
        <path id="DejaVuSans-32" d="M 1228 531 
L 3431 531 
L 3431 0 
L 469 0 
L 469 531 
Q 828 903 1448 1529 
Q 2069 2156 2228 2338 
Q 2531 2678 2651 2914 
Q 2772 3150 2772 3378 
Q 2772 3750 2511 3984 
Q 2250 4219 1831 4219 
Q 1534 4219 1204 4116 
Q 875 4013 500 3803 
L 500 4441 
Q 881 4594 1212 4672 
Q 1544 4750 1819 4750 
Q 2544 4750 2975 4387 
Q 3406 4025 3406 3419 
Q 3406 3131 3298 2873 
Q 3191 2616 2906 2266 
Q 2828 2175 2409 1742 
Q 1991 1309 1228 531 
z
" transform="scale(0.015625)"/>
       </defs>
       <use xlink:href="#DejaVuSans-32"/>
       <use xlink:href="#DejaVuSans-30" x="63.623047"/>
      </g>
     </g>
    </g>
    <g id="xtick_6">
     <g id="line2d_6">
      <g>
       <use xlink:href="#md5ab469c13" x="367.812273" y="273.312" style="stroke: #000000; stroke-width: 0.8"/>
      </g>
     </g>
     <g id="text_6">
      <!-- 25 -->
      <g transform="translate(361.449773 287.910437) scale(0.1 -0.1)">
       <use xlink:href="#DejaVuSans-32"/>
       <use xlink:href="#DejaVuSans-35" x="63.623047"/>
      </g>
     </g>
    </g>
   </g>
   <g id="matplotlib.axis_2">
    <g id="ytick_1">
     <g id="line2d_7">
      <defs>
       <path id="m79402d25b4" d="M 0 0 
L -3.5 0 
" style="stroke: #000000; stroke-width: 0.8"/>
      </defs>
      <g>
       <use xlink:href="#m79402d25b4" x="26.925" y="261.748111" style="stroke: #000000; stroke-width: 0.8"/>
      </g>
     </g>
     <g id="text_7">
      <!-- 2 -->
      <g transform="translate(13.5625 265.54733) scale(0.1 -0.1)">
       <use xlink:href="#DejaVuSans-32"/>
      </g>
     </g>
    </g>
    <g id="ytick_2">
     <g id="line2d_8">
      <g>
       <use xlink:href="#m79402d25b4" x="26.925" y="231.923985" style="stroke: #000000; stroke-width: 0.8"/>
      </g>
     </g>
     <g id="text_8">
      <!-- 3 -->
      <g transform="translate(13.5625 235.723204) scale(0.1 -0.1)">
       <defs>
        <path id="DejaVuSans-33" d="M 2597 2516 
Q 3050 2419 3304 2112 
Q 3559 1806 3559 1356 
Q 3559 666 3084 287 
Q 2609 -91 1734 -91 
Q 1441 -91 1130 -33 
Q 819 25 488 141 
L 488 750 
Q 750 597 1062 519 
Q 1375 441 1716 441 
Q 2309 441 2620 675 
Q 2931 909 2931 1356 
Q 2931 1769 2642 2001 
Q 2353 2234 1838 2234 
L 1294 2234 
L 1294 2753 
L 1863 2753 
Q 2328 2753 2575 2939 
Q 2822 3125 2822 3475 
Q 2822 3834 2567 4026 
Q 2313 4219 1838 4219 
Q 1578 4219 1281 4162 
Q 984 4106 628 3988 
L 628 4550 
Q 988 4650 1302 4700 
Q 1616 4750 1894 4750 
Q 2613 4750 3031 4423 
Q 3450 4097 3450 3541 
Q 3450 3153 3228 2886 
Q 3006 2619 2597 2516 
z
" transform="scale(0.015625)"/>
       </defs>
       <use xlink:href="#DejaVuSans-33"/>
      </g>
     </g>
    </g>
    <g id="ytick_3">
     <g id="line2d_9">
      <g>
       <use xlink:href="#m79402d25b4" x="26.925" y="202.099859" style="stroke: #000000; stroke-width: 0.8"/>
      </g>
     </g>
     <g id="text_9">
      <!-- 4 -->
      <g transform="translate(13.5625 205.899077) scale(0.1 -0.1)">
       <defs>
        <path id="DejaVuSans-34" d="M 2419 4116 
L 825 1625 
L 2419 1625 
L 2419 4116 
z
M 2253 4666 
L 3047 4666 
L 3047 1625 
L 3713 1625 
L 3713 1100 
L 3047 1100 
L 3047 0 
L 2419 0 
L 2419 1100 
L 313 1100 
L 313 1709 
L 2253 4666 
z
" transform="scale(0.015625)"/>
       </defs>
       <use xlink:href="#DejaVuSans-34"/>
      </g>
     </g>
    </g>
    <g id="ytick_4">
     <g id="line2d_10">
      <g>
       <use xlink:href="#m79402d25b4" x="26.925" y="172.275733" style="stroke: #000000; stroke-width: 0.8"/>
      </g>
     </g>
     <g id="text_10">
      <!-- 5 -->
      <g transform="translate(13.5625 176.074951) scale(0.1 -0.1)">
       <use xlink:href="#DejaVuSans-35"/>
      </g>
     </g>
    </g>
    <g id="ytick_5">
     <g id="line2d_11">
      <g>
       <use xlink:href="#m79402d25b4" x="26.925" y="142.451606" style="stroke: #000000; stroke-width: 0.8"/>
      </g>
     </g>
     <g id="text_11">
      <!-- 6 -->
      <g transform="translate(13.5625 146.250825) scale(0.1 -0.1)">
       <defs>
        <path id="DejaVuSans-36" d="M 2113 2584 
Q 1688 2584 1439 2293 
Q 1191 2003 1191 1497 
Q 1191 994 1439 701 
Q 1688 409 2113 409 
Q 2538 409 2786 701 
Q 3034 994 3034 1497 
Q 3034 2003 2786 2293 
Q 2538 2584 2113 2584 
z
M 3366 4563 
L 3366 3988 
Q 3128 4100 2886 4159 
Q 2644 4219 2406 4219 
Q 1781 4219 1451 3797 
Q 1122 3375 1075 2522 
Q 1259 2794 1537 2939 
Q 1816 3084 2150 3084 
Q 2853 3084 3261 2657 
Q 3669 2231 3669 1497 
Q 3669 778 3244 343 
Q 2819 -91 2113 -91 
Q 1303 -91 875 529 
Q 447 1150 447 2328 
Q 447 3434 972 4092 
Q 1497 4750 2381 4750 
Q 2619 4750 2861 4703 
Q 3103 4656 3366 4563 
z
" transform="scale(0.015625)"/>
       </defs>
       <use xlink:href="#DejaVuSans-36"/>
      </g>
     </g>
    </g>
    <g id="ytick_6">
     <g id="line2d_12">
      <g>
       <use xlink:href="#m79402d25b4" x="26.925" y="112.62748" style="stroke: #000000; stroke-width: 0.8"/>
      </g>
     </g>
     <g id="text_12">
      <!-- 7 -->
      <g transform="translate(13.5625 116.426699) scale(0.1 -0.1)">
       <defs>
        <path id="DejaVuSans-37" d="M 525 4666 
L 3525 4666 
L 3525 4397 
L 1831 0 
L 1172 0 
L 2766 4134 
L 525 4134 
L 525 4666 
z
" transform="scale(0.015625)"/>
       </defs>
       <use xlink:href="#DejaVuSans-37"/>
      </g>
     </g>
    </g>
    <g id="ytick_7">
     <g id="line2d_13">
      <g>
       <use xlink:href="#m79402d25b4" x="26.925" y="82.803354" style="stroke: #000000; stroke-width: 0.8"/>
      </g>
     </g>
     <g id="text_13">
      <!-- 8 -->
      <g transform="translate(13.5625 86.602573) scale(0.1 -0.1)">
       <defs>
        <path id="DejaVuSans-38" d="M 2034 2216 
Q 1584 2216 1326 1975 
Q 1069 1734 1069 1313 
Q 1069 891 1326 650 
Q 1584 409 2034 409 
Q 2484 409 2743 651 
Q 3003 894 3003 1313 
Q 3003 1734 2745 1975 
Q 2488 2216 2034 2216 
z
M 1403 2484 
Q 997 2584 770 2862 
Q 544 3141 544 3541 
Q 544 4100 942 4425 
Q 1341 4750 2034 4750 
Q 2731 4750 3128 4425 
Q 3525 4100 3525 3541 
Q 3525 3141 3298 2862 
Q 3072 2584 2669 2484 
Q 3125 2378 3379 2068 
Q 3634 1759 3634 1313 
Q 3634 634 3220 271 
Q 2806 -91 2034 -91 
Q 1263 -91 848 271 
Q 434 634 434 1313 
Q 434 1759 690 2068 
Q 947 2378 1403 2484 
z
M 1172 3481 
Q 1172 3119 1398 2916 
Q 1625 2713 2034 2713 
Q 2441 2713 2670 2916 
Q 2900 3119 2900 3481 
Q 2900 3844 2670 4047 
Q 2441 4250 2034 4250 
Q 1625 4250 1398 4047 
Q 1172 3844 1172 3481 
z
" transform="scale(0.015625)"/>
       </defs>
       <use xlink:href="#DejaVuSans-38"/>
      </g>
     </g>
    </g>
    <g id="ytick_8">
     <g id="line2d_14">
      <g>
       <use xlink:href="#m79402d25b4" x="26.925" y="52.979228" style="stroke: #000000; stroke-width: 0.8"/>
      </g>
     </g>
     <g id="text_14">
      <!-- 9 -->
      <g transform="translate(13.5625 56.778446) scale(0.1 -0.1)">
       <defs>
        <path id="DejaVuSans-39" d="M 703 97 
L 703 672 
Q 941 559 1184 500 
Q 1428 441 1663 441 
Q 2288 441 2617 861 
Q 2947 1281 2994 2138 
Q 2813 1869 2534 1725 
Q 2256 1581 1919 1581 
Q 1219 1581 811 2004 
Q 403 2428 403 3163 
Q 403 3881 828 4315 
Q 1253 4750 1959 4750 
Q 2769 4750 3195 4129 
Q 3622 3509 3622 2328 
Q 3622 1225 3098 567 
Q 2575 -91 1691 -91 
Q 1453 -91 1209 -44 
Q 966 3 703 97 
z
M 1959 2075 
Q 2384 2075 2632 2365 
Q 2881 2656 2881 3163 
Q 2881 3666 2632 3958 
Q 2384 4250 1959 4250 
Q 1534 4250 1286 3958 
Q 1038 3666 1038 3163 
Q 1038 2656 1286 2365 
Q 1534 2075 1959 2075 
z
" transform="scale(0.015625)"/>
       </defs>
       <use xlink:href="#DejaVuSans-39"/>
      </g>
     </g>
    </g>
    <g id="ytick_9">
     <g id="line2d_15">
      <g>
       <use xlink:href="#m79402d25b4" x="26.925" y="23.155101" style="stroke: #000000; stroke-width: 0.8"/>
      </g>
     </g>
     <g id="text_15">
      <!-- 10 -->
      <g transform="translate(7.2 26.95432) scale(0.1 -0.1)">
       <use xlink:href="#DejaVuSans-31"/>
       <use xlink:href="#DejaVuSans-30" x="63.623047"/>
      </g>
     </g>
    </g>
   </g>
   <g id="line2d_16">
    <defs>
     <path id="m22f0f85721" d="M 0 3 
C 0.795609 3 1.55874 2.683901 2.12132 2.12132 
C 2.683901 1.55874 3 0.795609 3 0 
C 3 -0.795609 2.683901 -1.55874 2.12132 -2.12132 
C 1.55874 -2.683901 0.795609 -3 0 -3 
C -0.795609 -3 -1.55874 -2.683901 -2.12132 -2.12132 
C -2.683901 -1.55874 -3 -0.795609 -3 0 
C -3 0.795609 -2.683901 1.55874 -2.12132 2.12132 
C -1.55874 2.683901 -0.795609 3 0 3 
z
" style="stroke: #1f77b4"/>
    </defs>
    <g clip-path="url(#p18bf2f65d1)">
     <use xlink:href="#m22f0f85721" x="43.157727" y="232.920222" style="fill: #1f77b4; stroke: #1f77b4"/>
     <use xlink:href="#m22f0f85721" x="43.807036" y="231.776656" style="fill: #1f77b4; stroke: #1f77b4"/>
     <use xlink:href="#m22f0f85721" x="44.456345" y="230.097659" style="fill: #1f77b4; stroke: #1f77b4"/>
     <use xlink:href="#m22f0f85721" x="45.105655" y="246.164218" style="fill: #1f77b4; stroke: #1f77b4"/>
     <use xlink:href="#m22f0f85721" x="45.754964" y="205.793895" style="fill: #1f77b4; stroke: #1f77b4"/>
     <use xlink:href="#m22f0f85721" x="46.404273" y="202.035279" style="fill: #1f77b4; stroke: #1f77b4"/>
     <use xlink:href="#m22f0f85721" x="47.053582" y="216.841233" style="fill: #1f77b4; stroke: #1f77b4"/>
     <use xlink:href="#m22f0f85721" x="47.702891" y="218.997498" style="fill: #1f77b4; stroke: #1f77b4"/>
     <use xlink:href="#m22f0f85721" x="48.3522" y="210.071177" style="fill: #1f77b4; stroke: #1f77b4"/>
     <use xlink:href="#m22f0f85721" x="49.001509" y="214.058494" style="fill: #1f77b4; stroke: #1f77b4"/>
     <use xlink:href="#m22f0f85721" x="49.650818" y="202.428156" style="fill: #1f77b4; stroke: #1f77b4"/>
     <use xlink:href="#m22f0f85721" x="50.300127" y="218.722631" style="fill: #1f77b4; stroke: #1f77b4"/>
     <use xlink:href="#m22f0f85721" x="50.949436" y="224.795232" style="fill: #1f77b4; stroke: #1f77b4"/>
     <use xlink:href="#m22f0f85721" x="51.598745" y="209.709728" style="fill: #1f77b4; stroke: #1f77b4"/>
     <use xlink:href="#m22f0f85721" x="52.248055" y="213.554918" style="fill: #1f77b4; stroke: #1f77b4"/>
     <use xlink:href="#m22f0f85721" x="52.897364" y="224.239019" style="fill: #1f77b4; stroke: #1f77b4"/>
     <use xlink:href="#m22f0f85721" x="53.546673" y="217.736693" style="fill: #1f77b4; stroke: #1f77b4"/>
     <use xlink:href="#m22f0f85721" x="54.195982" y="215.291852" style="fill: #1f77b4; stroke: #1f77b4"/>
     <use xlink:href="#m22f0f85721" x="54.845291" y="208.373893" style="fill: #1f77b4; stroke: #1f77b4"/>
     <use xlink:href="#m22f0f85721" x="55.4946" y="219.501746" style="fill: #1f77b4; stroke: #1f77b4"/>
     <use xlink:href="#m22f0f85721" x="56.143909" y="206.811647" style="fill: #1f77b4; stroke: #1f77b4"/>
     <use xlink:href="#m22f0f85721" x="56.793218" y="203.788035" style="fill: #1f77b4; stroke: #1f77b4"/>
     <use xlink:href="#m22f0f85721" x="57.442527" y="218.088644" style="fill: #1f77b4; stroke: #1f77b4"/>
     <use xlink:href="#m22f0f85721" x="58.091836" y="214.85322" style="fill: #1f77b4; stroke: #1f77b4"/>
     <use xlink:href="#m22f0f85721" x="58.741145" y="208.456926" style="fill: #1f77b4; stroke: #1f77b4"/>
     <use xlink:href="#m22f0f85721" x="59.390455" y="213.453559" style="fill: #1f77b4; stroke: #1f77b4"/>
     <use xlink:href="#m22f0f85721" x="60.039764" y="235.205506" style="fill: #1f77b4; stroke: #1f77b4"/>
     <use xlink:href="#m22f0f85721" x="60.689073" y="214.163068" style="fill: #1f77b4; stroke: #1f77b4"/>
     <use xlink:href="#m22f0f85721" x="61.338382" y="208.48714" style="fill: #1f77b4; stroke: #1f77b4"/>
     <use xlink:href="#m22f0f85721" x="61.987691" y="228.357347" style="fill: #1f77b4; stroke: #1f77b4"/>
     <use xlink:href="#m22f0f85721" x="62.637" y="204.300576" style="fill: #1f77b4; stroke: #1f77b4"/>
     <use xlink:href="#m22f0f85721" x="63.286309" y="208.776781" style="fill: #1f77b4; stroke: #1f77b4"/>
     <use xlink:href="#m22f0f85721" x="63.935618" y="228.588789" style="fill: #1f77b4; stroke: #1f77b4"/>
     <use xlink:href="#m22f0f85721" x="64.584927" y="225.799805" style="fill: #1f77b4; stroke: #1f77b4"/>
     <use xlink:href="#m22f0f85721" x="65.234236" y="209.254022" style="fill: #1f77b4; stroke: #1f77b4"/>
     <use xlink:href="#m22f0f85721" x="65.883545" y="224.46879" style="fill: #1f77b4; stroke: #1f77b4"/>
     <use xlink:href="#m22f0f85721" x="66.532855" y="204.974796" style="fill: #1f77b4; stroke: #1f77b4"/>
     <use xlink:href="#m22f0f85721" x="67.182164" y="223.542694" style="fill: #1f77b4; stroke: #1f77b4"/>
     <use xlink:href="#m22f0f85721" x="67.831473" y="196.057765" style="fill: #1f77b4; stroke: #1f77b4"/>
     <use xlink:href="#m22f0f85721" x="68.480782" y="227.475514" style="fill: #1f77b4; stroke: #1f77b4"/>
     <use xlink:href="#m22f0f85721" x="69.130091" y="218.278316" style="fill: #1f77b4; stroke: #1f77b4"/>
     <use xlink:href="#m22f0f85721" x="69.7794" y="219.88134" style="fill: #1f77b4; stroke: #1f77b4"/>
     <use xlink:href="#m22f0f85721" x="70.428709" y="204.921251" style="fill: #1f77b4; stroke: #1f77b4"/>
     <use xlink:href="#m22f0f85721" x="71.078018" y="223.662855" style="fill: #1f77b4; stroke: #1f77b4"/>
     <use xlink:href="#m22f0f85721" x="71.727327" y="199.474816" style="fill: #1f77b4; stroke: #1f77b4"/>
     <use xlink:href="#m22f0f85721" x="72.376636" y="219.96706" style="fill: #1f77b4; stroke: #1f77b4"/>
     <use xlink:href="#m22f0f85721" x="73.025945" y="189.107995" style="fill: #1f77b4; stroke: #1f77b4"/>
     <use xlink:href="#m22f0f85721" x="73.675255" y="215.902404" style="fill: #1f77b4; stroke: #1f77b4"/>
     <use xlink:href="#m22f0f85721" x="74.324564" y="216.612009" style="fill: #1f77b4; stroke: #1f77b4"/>
     <use xlink:href="#m22f0f85721" x="74.973873" y="193.778974" style="fill: #1f77b4; stroke: #1f77b4"/>
     <use xlink:href="#m22f0f85721" x="75.623182" y="190.534844" style="fill: #1f77b4; stroke: #1f77b4"/>
     <use xlink:href="#m22f0f85721" x="76.272491" y="191.620151" style="fill: #1f77b4; stroke: #1f77b4"/>
     <use xlink:href="#m22f0f85721" x="76.9218" y="218.461847" style="fill: #1f77b4; stroke: #1f77b4"/>
     <use xlink:href="#m22f0f85721" x="77.571109" y="205.199684" style="fill: #1f77b4; stroke: #1f77b4"/>
     <use xlink:href="#m22f0f85721" x="78.220418" y="220.567474" style="fill: #1f77b4; stroke: #1f77b4"/>
     <use xlink:href="#m22f0f85721" x="78.869727" y="210.224739" style="fill: #1f77b4; stroke: #1f77b4"/>
     <use xlink:href="#m22f0f85721" x="79.519036" y="203.488282" style="fill: #1f77b4; stroke: #1f77b4"/>
     <use xlink:href="#m22f0f85721" x="80.168345" y="212.827224" style="fill: #1f77b4; stroke: #1f77b4"/>
     <use xlink:href="#m22f0f85721" x="80.817655" y="204.296796" style="fill: #1f77b4; stroke: #1f77b4"/>
     <use xlink:href="#m22f0f85721" x="81.466964" y="185.72537" style="fill: #1f77b4; stroke: #1f77b4"/>
     <use xlink:href="#m22f0f85721" x="82.116273" y="207.020761" style="fill: #1f77b4; stroke: #1f77b4"/>
     <use xlink:href="#m22f0f85721" x="82.765582" y="206.04039" style="fill: #1f77b4; stroke: #1f77b4"/>
     <use xlink:href="#m22f0f85721" x="83.414891" y="195.967908" style="fill: #1f77b4; stroke: #1f77b4"/>
     <use xlink:href="#m22f0f85721" x="84.0642" y="208.227915" style="fill: #1f77b4; stroke: #1f77b4"/>
     <use xlink:href="#m22f0f85721" x="84.713509" y="189.456932" style="fill: #1f77b4; stroke: #1f77b4"/>
     <use xlink:href="#m22f0f85721" x="85.362818" y="224.232013" style="fill: #1f77b4; stroke: #1f77b4"/>
     <use xlink:href="#m22f0f85721" x="86.012127" y="185.87699" style="fill: #1f77b4; stroke: #1f77b4"/>
     <use xlink:href="#m22f0f85721" x="86.661436" y="211.830507" style="fill: #1f77b4; stroke: #1f77b4"/>
     <use xlink:href="#m22f0f85721" x="87.310745" y="200.162695" style="fill: #1f77b4; stroke: #1f77b4"/>
     <use xlink:href="#m22f0f85721" x="87.960055" y="200.169753" style="fill: #1f77b4; stroke: #1f77b4"/>
     <use xlink:href="#m22f0f85721" x="88.609364" y="202.97866" style="fill: #1f77b4; stroke: #1f77b4"/>
     <use xlink:href="#m22f0f85721" x="89.258673" y="195.511009" style="fill: #1f77b4; stroke: #1f77b4"/>
     <use xlink:href="#m22f0f85721" x="89.907982" y="197.121564" style="fill: #1f77b4; stroke: #1f77b4"/>
     <use xlink:href="#m22f0f85721" x="90.557291" y="205.358196" style="fill: #1f77b4; stroke: #1f77b4"/>
     <use xlink:href="#m22f0f85721" x="91.2066" y="215.610766" style="fill: #1f77b4; stroke: #1f77b4"/>
     <use xlink:href="#m22f0f85721" x="91.855909" y="194.875809" style="fill: #1f77b4; stroke: #1f77b4"/>
     <use xlink:href="#m22f0f85721" x="92.505218" y="219.839289" style="fill: #1f77b4; stroke: #1f77b4"/>
     <use xlink:href="#m22f0f85721" x="93.154527" y="220.849818" style="fill: #1f77b4; stroke: #1f77b4"/>
     <use xlink:href="#m22f0f85721" x="93.803836" y="214.992386" style="fill: #1f77b4; stroke: #1f77b4"/>
     <use xlink:href="#m22f0f85721" x="94.453145" y="198.722948" style="fill: #1f77b4; stroke: #1f77b4"/>
     <use xlink:href="#m22f0f85721" x="95.102455" y="195.904516" style="fill: #1f77b4; stroke: #1f77b4"/>
     <use xlink:href="#m22f0f85721" x="95.751764" y="201.587958" style="fill: #1f77b4; stroke: #1f77b4"/>
     <use xlink:href="#m22f0f85721" x="96.401073" y="187.849092" style="fill: #1f77b4; stroke: #1f77b4"/>
     <use xlink:href="#m22f0f85721" x="97.050382" y="189.719957" style="fill: #1f77b4; stroke: #1f77b4"/>
     <use xlink:href="#m22f0f85721" x="97.699691" y="188.0555" style="fill: #1f77b4; stroke: #1f77b4"/>
     <use xlink:href="#m22f0f85721" x="98.349" y="206.181605" style="fill: #1f77b4; stroke: #1f77b4"/>
     <use xlink:href="#m22f0f85721" x="98.998309" y="198.954587" style="fill: #1f77b4; stroke: #1f77b4"/>
     <use xlink:href="#m22f0f85721" x="99.647618" y="193.778909" style="fill: #1f77b4; stroke: #1f77b4"/>
     <use xlink:href="#m22f0f85721" x="100.296927" y="210.36379" style="fill: #1f77b4; stroke: #1f77b4"/>
     <use xlink:href="#m22f0f85721" x="100.946236" y="199.879666" style="fill: #1f77b4; stroke: #1f77b4"/>
     <use xlink:href="#m22f0f85721" x="101.595545" y="187.280843" style="fill: #1f77b4; stroke: #1f77b4"/>
     <use xlink:href="#m22f0f85721" x="102.244855" y="192.489332" style="fill: #1f77b4; stroke: #1f77b4"/>
     <use xlink:href="#m22f0f85721" x="102.894164" y="201.738018" style="fill: #1f77b4; stroke: #1f77b4"/>
     <use xlink:href="#m22f0f85721" x="103.543473" y="191.802468" style="fill: #1f77b4; stroke: #1f77b4"/>
     <use xlink:href="#m22f0f85721" x="104.192782" y="192.590293" style="fill: #1f77b4; stroke: #1f77b4"/>
     <use xlink:href="#m22f0f85721" x="104.842091" y="182.556701" style="fill: #1f77b4; stroke: #1f77b4"/>
     <use xlink:href="#m22f0f85721" x="105.4914" y="198.378421" style="fill: #1f77b4; stroke: #1f77b4"/>
     <use xlink:href="#m22f0f85721" x="106.140709" y="194.13675" style="fill: #1f77b4; stroke: #1f77b4"/>
     <use xlink:href="#m22f0f85721" x="106.790018" y="180.234228" style="fill: #1f77b4; stroke: #1f77b4"/>
     <use xlink:href="#m22f0f85721" x="107.439327" y="214.692237" style="fill: #1f77b4; stroke: #1f77b4"/>
     <use xlink:href="#m22f0f85721" x="108.088636" y="183.720941" style="fill: #1f77b4; stroke: #1f77b4"/>
     <use xlink:href="#m22f0f85721" x="108.737945" y="194.306695" style="fill: #1f77b4; stroke: #1f77b4"/>
     <use xlink:href="#m22f0f85721" x="109.387255" y="189.858603" style="fill: #1f77b4; stroke: #1f77b4"/>
     <use xlink:href="#m22f0f85721" x="110.036564" y="195.966236" style="fill: #1f77b4; stroke: #1f77b4"/>
     <use xlink:href="#m22f0f85721" x="110.685873" y="199.269519" style="fill: #1f77b4; stroke: #1f77b4"/>
     <use xlink:href="#m22f0f85721" x="111.335182" y="186.906334" style="fill: #1f77b4; stroke: #1f77b4"/>
     <use xlink:href="#m22f0f85721" x="111.984491" y="196.875693" style="fill: #1f77b4; stroke: #1f77b4"/>
     <use xlink:href="#m22f0f85721" x="112.6338" y="191.810742" style="fill: #1f77b4; stroke: #1f77b4"/>
     <use xlink:href="#m22f0f85721" x="113.283109" y="195.371266" style="fill: #1f77b4; stroke: #1f77b4"/>
     <use xlink:href="#m22f0f85721" x="113.932418" y="197.054568" style="fill: #1f77b4; stroke: #1f77b4"/>
     <use xlink:href="#m22f0f85721" x="114.581727" y="195.537006" style="fill: #1f77b4; stroke: #1f77b4"/>
     <use xlink:href="#m22f0f85721" x="115.231036" y="205.338557" style="fill: #1f77b4; stroke: #1f77b4"/>
     <use xlink:href="#m22f0f85721" x="115.880345" y="187.266901" style="fill: #1f77b4; stroke: #1f77b4"/>
     <use xlink:href="#m22f0f85721" x="116.529655" y="178.367699" style="fill: #1f77b4; stroke: #1f77b4"/>
     <use xlink:href="#m22f0f85721" x="117.178964" y="192.508593" style="fill: #1f77b4; stroke: #1f77b4"/>
     <use xlink:href="#m22f0f85721" x="117.828273" y="187.758318" style="fill: #1f77b4; stroke: #1f77b4"/>
     <use xlink:href="#m22f0f85721" x="118.477582" y="180.898678" style="fill: #1f77b4; stroke: #1f77b4"/>
     <use xlink:href="#m22f0f85721" x="119.126891" y="188.093604" style="fill: #1f77b4; stroke: #1f77b4"/>
     <use xlink:href="#m22f0f85721" x="119.7762" y="190.507743" style="fill: #1f77b4; stroke: #1f77b4"/>
     <use xlink:href="#m22f0f85721" x="120.425509" y="211.819628" style="fill: #1f77b4; stroke: #1f77b4"/>
     <use xlink:href="#m22f0f85721" x="121.074818" y="198.702563" style="fill: #1f77b4; stroke: #1f77b4"/>
     <use xlink:href="#m22f0f85721" x="121.724127" y="188.184131" style="fill: #1f77b4; stroke: #1f77b4"/>
     <use xlink:href="#m22f0f85721" x="122.373436" y="184.500819" style="fill: #1f77b4; stroke: #1f77b4"/>
     <use xlink:href="#m22f0f85721" x="123.022745" y="184.564391" style="fill: #1f77b4; stroke: #1f77b4"/>
     <use xlink:href="#m22f0f85721" x="123.672055" y="186.951642" style="fill: #1f77b4; stroke: #1f77b4"/>
     <use xlink:href="#m22f0f85721" x="124.321364" y="191.866893" style="fill: #1f77b4; stroke: #1f77b4"/>
     <use xlink:href="#m22f0f85721" x="124.970673" y="192.863558" style="fill: #1f77b4; stroke: #1f77b4"/>
     <use xlink:href="#m22f0f85721" x="125.619982" y="199.420108" style="fill: #1f77b4; stroke: #1f77b4"/>
     <use xlink:href="#m22f0f85721" x="126.269291" y="197.722915" style="fill: #1f77b4; stroke: #1f77b4"/>
     <use xlink:href="#m22f0f85721" x="126.9186" y="173.373568" style="fill: #1f77b4; stroke: #1f77b4"/>
     <use xlink:href="#m22f0f85721" x="127.567909" y="185.471059" style="fill: #1f77b4; stroke: #1f77b4"/>
     <use xlink:href="#m22f0f85721" x="128.217218" y="178.616217" style="fill: #1f77b4; stroke: #1f77b4"/>
     <use xlink:href="#m22f0f85721" x="128.866527" y="183.475035" style="fill: #1f77b4; stroke: #1f77b4"/>
     <use xlink:href="#m22f0f85721" x="129.515836" y="181.786893" style="fill: #1f77b4; stroke: #1f77b4"/>
     <use xlink:href="#m22f0f85721" x="130.165145" y="203.857769" style="fill: #1f77b4; stroke: #1f77b4"/>
     <use xlink:href="#m22f0f85721" x="130.814455" y="201.331955" style="fill: #1f77b4; stroke: #1f77b4"/>
     <use xlink:href="#m22f0f85721" x="131.463764" y="186.439891" style="fill: #1f77b4; stroke: #1f77b4"/>
     <use xlink:href="#m22f0f85721" x="132.113073" y="195.561802" style="fill: #1f77b4; stroke: #1f77b4"/>
     <use xlink:href="#m22f0f85721" x="132.762382" y="181.403634" style="fill: #1f77b4; stroke: #1f77b4"/>
     <use xlink:href="#m22f0f85721" x="133.411691" y="209.229811" style="fill: #1f77b4; stroke: #1f77b4"/>
     <use xlink:href="#m22f0f85721" x="134.061" y="186.188138" style="fill: #1f77b4; stroke: #1f77b4"/>
     <use xlink:href="#m22f0f85721" x="134.710309" y="181.317896" style="fill: #1f77b4; stroke: #1f77b4"/>
     <use xlink:href="#m22f0f85721" x="135.359618" y="172.151485" style="fill: #1f77b4; stroke: #1f77b4"/>
     <use xlink:href="#m22f0f85721" x="136.008927" y="186.594413" style="fill: #1f77b4; stroke: #1f77b4"/>
     <use xlink:href="#m22f0f85721" x="136.658236" y="180.597978" style="fill: #1f77b4; stroke: #1f77b4"/>
     <use xlink:href="#m22f0f85721" x="137.307545" y="184.451948" style="fill: #1f77b4; stroke: #1f77b4"/>
     <use xlink:href="#m22f0f85721" x="137.956855" y="200.265651" style="fill: #1f77b4; stroke: #1f77b4"/>
     <use xlink:href="#m22f0f85721" x="138.606164" y="179.021969" style="fill: #1f77b4; stroke: #1f77b4"/>
     <use xlink:href="#m22f0f85721" x="139.255473" y="191.407446" style="fill: #1f77b4; stroke: #1f77b4"/>
     <use xlink:href="#m22f0f85721" x="139.904782" y="186.097" style="fill: #1f77b4; stroke: #1f77b4"/>
     <use xlink:href="#m22f0f85721" x="140.554091" y="204.313002" style="fill: #1f77b4; stroke: #1f77b4"/>
     <use xlink:href="#m22f0f85721" x="141.2034" y="180.80085" style="fill: #1f77b4; stroke: #1f77b4"/>
     <use xlink:href="#m22f0f85721" x="141.852709" y="194.446025" style="fill: #1f77b4; stroke: #1f77b4"/>
     <use xlink:href="#m22f0f85721" x="142.502018" y="185.912164" style="fill: #1f77b4; stroke: #1f77b4"/>
     <use xlink:href="#m22f0f85721" x="143.151327" y="184.123733" style="fill: #1f77b4; stroke: #1f77b4"/>
     <use xlink:href="#m22f0f85721" x="143.800636" y="196.617018" style="fill: #1f77b4; stroke: #1f77b4"/>
     <use xlink:href="#m22f0f85721" x="144.449945" y="189.978238" style="fill: #1f77b4; stroke: #1f77b4"/>
     <use xlink:href="#m22f0f85721" x="145.099255" y="200.360364" style="fill: #1f77b4; stroke: #1f77b4"/>
     <use xlink:href="#m22f0f85721" x="145.748564" y="189.839245" style="fill: #1f77b4; stroke: #1f77b4"/>
     <use xlink:href="#m22f0f85721" x="146.397873" y="196.92195" style="fill: #1f77b4; stroke: #1f77b4"/>
     <use xlink:href="#m22f0f85721" x="147.047182" y="187.228216" style="fill: #1f77b4; stroke: #1f77b4"/>
     <use xlink:href="#m22f0f85721" x="147.696491" y="197.643104" style="fill: #1f77b4; stroke: #1f77b4"/>
     <use xlink:href="#m22f0f85721" x="148.3458" y="178.88162" style="fill: #1f77b4; stroke: #1f77b4"/>
     <use xlink:href="#m22f0f85721" x="148.995109" y="209.710204" style="fill: #1f77b4; stroke: #1f77b4"/>
     <use xlink:href="#m22f0f85721" x="149.644418" y="202.524542" style="fill: #1f77b4; stroke: #1f77b4"/>
     <use xlink:href="#m22f0f85721" x="150.293727" y="182.951405" style="fill: #1f77b4; stroke: #1f77b4"/>
     <use xlink:href="#m22f0f85721" x="150.943036" y="201.34892" style="fill: #1f77b4; stroke: #1f77b4"/>
     <use xlink:href="#m22f0f85721" x="151.592345" y="192.900664" style="fill: #1f77b4; stroke: #1f77b4"/>
     <use xlink:href="#m22f0f85721" x="152.241655" y="186.306244" style="fill: #1f77b4; stroke: #1f77b4"/>
     <use xlink:href="#m22f0f85721" x="152.890964" y="180.248913" style="fill: #1f77b4; stroke: #1f77b4"/>
     <use xlink:href="#m22f0f85721" x="153.540273" y="183.789697" style="fill: #1f77b4; stroke: #1f77b4"/>
     <use xlink:href="#m22f0f85721" x="154.189582" y="172.529672" style="fill: #1f77b4; stroke: #1f77b4"/>
     <use xlink:href="#m22f0f85721" x="154.838891" y="211.82477" style="fill: #1f77b4; stroke: #1f77b4"/>
     <use xlink:href="#m22f0f85721" x="155.4882" y="188.788253" style="fill: #1f77b4; stroke: #1f77b4"/>
     <use xlink:href="#m22f0f85721" x="156.137509" y="185.397116" style="fill: #1f77b4; stroke: #1f77b4"/>
     <use xlink:href="#m22f0f85721" x="156.786818" y="201.320272" style="fill: #1f77b4; stroke: #1f77b4"/>
     <use xlink:href="#m22f0f85721" x="157.436127" y="195.766912" style="fill: #1f77b4; stroke: #1f77b4"/>
     <use xlink:href="#m22f0f85721" x="158.085436" y="198.696304" style="fill: #1f77b4; stroke: #1f77b4"/>
     <use xlink:href="#m22f0f85721" x="158.734745" y="194.207056" style="fill: #1f77b4; stroke: #1f77b4"/>
     <use xlink:href="#m22f0f85721" x="159.384055" y="188.976098" style="fill: #1f77b4; stroke: #1f77b4"/>
     <use xlink:href="#m22f0f85721" x="160.033364" y="197.022316" style="fill: #1f77b4; stroke: #1f77b4"/>
     <use xlink:href="#m22f0f85721" x="160.682673" y="191.875566" style="fill: #1f77b4; stroke: #1f77b4"/>
     <use xlink:href="#m22f0f85721" x="161.331982" y="181.873735" style="fill: #1f77b4; stroke: #1f77b4"/>
     <use xlink:href="#m22f0f85721" x="161.981291" y="195.657905" style="fill: #1f77b4; stroke: #1f77b4"/>
     <use xlink:href="#m22f0f85721" x="162.6306" y="185.791498" style="fill: #1f77b4; stroke: #1f77b4"/>
     <use xlink:href="#m22f0f85721" x="163.279909" y="173.882944" style="fill: #1f77b4; stroke: #1f77b4"/>
     <use xlink:href="#m22f0f85721" x="163.929218" y="207.403397" style="fill: #1f77b4; stroke: #1f77b4"/>
     <use xlink:href="#m22f0f85721" x="164.578527" y="196.21819" style="fill: #1f77b4; stroke: #1f77b4"/>
     <use xlink:href="#m22f0f85721" x="165.227836" y="184.382667" style="fill: #1f77b4; stroke: #1f77b4"/>
     <use xlink:href="#m22f0f85721" x="165.877145" y="186.971181" style="fill: #1f77b4; stroke: #1f77b4"/>
     <use xlink:href="#m22f0f85721" x="166.526455" y="170.8029" style="fill: #1f77b4; stroke: #1f77b4"/>
     <use xlink:href="#m22f0f85721" x="167.175764" y="197.171611" style="fill: #1f77b4; stroke: #1f77b4"/>
     <use xlink:href="#m22f0f85721" x="167.825073" y="204.889805" style="fill: #1f77b4; stroke: #1f77b4"/>
     <use xlink:href="#m22f0f85721" x="168.474382" y="179.082286" style="fill: #1f77b4; stroke: #1f77b4"/>
     <use xlink:href="#m22f0f85721" x="169.123691" y="180.116581" style="fill: #1f77b4; stroke: #1f77b4"/>
     <use xlink:href="#m22f0f85721" x="169.773" y="186.785008" style="fill: #1f77b4; stroke: #1f77b4"/>
     <use xlink:href="#m22f0f85721" x="170.422309" y="188.894816" style="fill: #1f77b4; stroke: #1f77b4"/>
     <use xlink:href="#m22f0f85721" x="171.071618" y="171.39239" style="fill: #1f77b4; stroke: #1f77b4"/>
     <use xlink:href="#m22f0f85721" x="171.720927" y="203.550631" style="fill: #1f77b4; stroke: #1f77b4"/>
     <use xlink:href="#m22f0f85721" x="172.370236" y="213.980183" style="fill: #1f77b4; stroke: #1f77b4"/>
     <use xlink:href="#m22f0f85721" x="173.019545" y="193.462408" style="fill: #1f77b4; stroke: #1f77b4"/>
     <use xlink:href="#m22f0f85721" x="173.668855" y="216.102179" style="fill: #1f77b4; stroke: #1f77b4"/>
     <use xlink:href="#m22f0f85721" x="174.318164" y="186.320605" style="fill: #1f77b4; stroke: #1f77b4"/>
     <use xlink:href="#m22f0f85721" x="174.967473" y="193.365109" style="fill: #1f77b4; stroke: #1f77b4"/>
     <use xlink:href="#m22f0f85721" x="175.616782" y="202.597456" style="fill: #1f77b4; stroke: #1f77b4"/>
     <use xlink:href="#m22f0f85721" x="176.266091" y="194.532017" style="fill: #1f77b4; stroke: #1f77b4"/>
     <use xlink:href="#m22f0f85721" x="176.9154" y="192.398285" style="fill: #1f77b4; stroke: #1f77b4"/>
     <use xlink:href="#m22f0f85721" x="177.564709" y="192.486743" style="fill: #1f77b4; stroke: #1f77b4"/>
     <use xlink:href="#m22f0f85721" x="178.214018" y="198.876998" style="fill: #1f77b4; stroke: #1f77b4"/>
     <use xlink:href="#m22f0f85721" x="178.863327" y="193.946693" style="fill: #1f77b4; stroke: #1f77b4"/>
     <use xlink:href="#m22f0f85721" x="179.512636" y="177.495013" style="fill: #1f77b4; stroke: #1f77b4"/>
     <use xlink:href="#m22f0f85721" x="180.161945" y="199.464398" style="fill: #1f77b4; stroke: #1f77b4"/>
     <use xlink:href="#m22f0f85721" x="180.811255" y="208.650943" style="fill: #1f77b4; stroke: #1f77b4"/>
     <use xlink:href="#m22f0f85721" x="181.460564" y="197.952197" style="fill: #1f77b4; stroke: #1f77b4"/>
     <use xlink:href="#m22f0f85721" x="182.109873" y="194.919364" style="fill: #1f77b4; stroke: #1f77b4"/>
     <use xlink:href="#m22f0f85721" x="182.759182" y="202.661566" style="fill: #1f77b4; stroke: #1f77b4"/>
     <use xlink:href="#m22f0f85721" x="183.408491" y="196.584763" style="fill: #1f77b4; stroke: #1f77b4"/>
     <use xlink:href="#m22f0f85721" x="184.0578" y="198.332288" style="fill: #1f77b4; stroke: #1f77b4"/>
     <use xlink:href="#m22f0f85721" x="184.707109" y="200.481481" style="fill: #1f77b4; stroke: #1f77b4"/>
     <use xlink:href="#m22f0f85721" x="185.356418" y="183.547986" style="fill: #1f77b4; stroke: #1f77b4"/>
     <use xlink:href="#m22f0f85721" x="186.005727" y="199.016213" style="fill: #1f77b4; stroke: #1f77b4"/>
     <use xlink:href="#m22f0f85721" x="186.655036" y="212.380283" style="fill: #1f77b4; stroke: #1f77b4"/>
     <use xlink:href="#m22f0f85721" x="187.304345" y="213.266358" style="fill: #1f77b4; stroke: #1f77b4"/>
     <use xlink:href="#m22f0f85721" x="187.953655" y="209.8783" style="fill: #1f77b4; stroke: #1f77b4"/>
     <use xlink:href="#m22f0f85721" x="188.602964" y="211.596405" style="fill: #1f77b4; stroke: #1f77b4"/>
     <use xlink:href="#m22f0f85721" x="189.252273" y="196.358101" style="fill: #1f77b4; stroke: #1f77b4"/>
     <use xlink:href="#m22f0f85721" x="189.901582" y="195.170567" style="fill: #1f77b4; stroke: #1f77b4"/>
     <use xlink:href="#m22f0f85721" x="190.550891" y="202.857779" style="fill: #1f77b4; stroke: #1f77b4"/>
     <use xlink:href="#m22f0f85721" x="191.2002" y="201.803308" style="fill: #1f77b4; stroke: #1f77b4"/>
     <use xlink:href="#m22f0f85721" x="191.849509" y="203.864767" style="fill: #1f77b4; stroke: #1f77b4"/>
     <use xlink:href="#m22f0f85721" x="192.498818" y="202.568151" style="fill: #1f77b4; stroke: #1f77b4"/>
     <use xlink:href="#m22f0f85721" x="193.148127" y="216.103847" style="fill: #1f77b4; stroke: #1f77b4"/>
     <use xlink:href="#m22f0f85721" x="193.797436" y="211.495041" style="fill: #1f77b4; stroke: #1f77b4"/>
     <use xlink:href="#m22f0f85721" x="194.446745" y="205.193079" style="fill: #1f77b4; stroke: #1f77b4"/>
     <use xlink:href="#m22f0f85721" x="195.096055" y="219.771826" style="fill: #1f77b4; stroke: #1f77b4"/>
     <use xlink:href="#m22f0f85721" x="195.745364" y="206.663241" style="fill: #1f77b4; stroke: #1f77b4"/>
     <use xlink:href="#m22f0f85721" x="196.394673" y="203.086708" style="fill: #1f77b4; stroke: #1f77b4"/>
     <use xlink:href="#m22f0f85721" x="197.043982" y="220.490019" style="fill: #1f77b4; stroke: #1f77b4"/>
     <use xlink:href="#m22f0f85721" x="197.693291" y="224.720037" style="fill: #1f77b4; stroke: #1f77b4"/>
     <use xlink:href="#m22f0f85721" x="198.3426" y="222.093127" style="fill: #1f77b4; stroke: #1f77b4"/>
     <use xlink:href="#m22f0f85721" x="198.991909" y="206.705892" style="fill: #1f77b4; stroke: #1f77b4"/>
     <use xlink:href="#m22f0f85721" x="199.641218" y="205.479152" style="fill: #1f77b4; stroke: #1f77b4"/>
     <use xlink:href="#m22f0f85721" x="200.290527" y="216.440027" style="fill: #1f77b4; stroke: #1f77b4"/>
     <use xlink:href="#m22f0f85721" x="200.939836" y="206.547418" style="fill: #1f77b4; stroke: #1f77b4"/>
     <use xlink:href="#m22f0f85721" x="201.589145" y="212.658583" style="fill: #1f77b4; stroke: #1f77b4"/>
     <use xlink:href="#m22f0f85721" x="202.238455" y="202.003791" style="fill: #1f77b4; stroke: #1f77b4"/>
     <use xlink:href="#m22f0f85721" x="202.887764" y="204.580248" style="fill: #1f77b4; stroke: #1f77b4"/>
     <use xlink:href="#m22f0f85721" x="203.537073" y="208.700169" style="fill: #1f77b4; stroke: #1f77b4"/>
     <use xlink:href="#m22f0f85721" x="204.186382" y="217.271627" style="fill: #1f77b4; stroke: #1f77b4"/>
     <use xlink:href="#m22f0f85721" x="204.835691" y="226.272047" style="fill: #1f77b4; stroke: #1f77b4"/>
     <use xlink:href="#m22f0f85721" x="205.485" y="212.207791" style="fill: #1f77b4; stroke: #1f77b4"/>
     <use xlink:href="#m22f0f85721" x="206.134309" y="209.580802" style="fill: #1f77b4; stroke: #1f77b4"/>
     <use xlink:href="#m22f0f85721" x="206.783618" y="210.186525" style="fill: #1f77b4; stroke: #1f77b4"/>
     <use xlink:href="#m22f0f85721" x="207.432927" y="223.764913" style="fill: #1f77b4; stroke: #1f77b4"/>
     <use xlink:href="#m22f0f85721" x="208.082236" y="201.262287" style="fill: #1f77b4; stroke: #1f77b4"/>
     <use xlink:href="#m22f0f85721" x="208.731545" y="234.789497" style="fill: #1f77b4; stroke: #1f77b4"/>
     <use xlink:href="#m22f0f85721" x="209.380855" y="217.862536" style="fill: #1f77b4; stroke: #1f77b4"/>
     <use xlink:href="#m22f0f85721" x="210.030164" y="216.00478" style="fill: #1f77b4; stroke: #1f77b4"/>
     <use xlink:href="#m22f0f85721" x="210.679473" y="211.758699" style="fill: #1f77b4; stroke: #1f77b4"/>
     <use xlink:href="#m22f0f85721" x="211.328782" y="206.101944" style="fill: #1f77b4; stroke: #1f77b4"/>
     <use xlink:href="#m22f0f85721" x="211.978091" y="201.124962" style="fill: #1f77b4; stroke: #1f77b4"/>
     <use xlink:href="#m22f0f85721" x="212.6274" y="208.202357" style="fill: #1f77b4; stroke: #1f77b4"/>
     <use xlink:href="#m22f0f85721" x="213.276709" y="217.052925" style="fill: #1f77b4; stroke: #1f77b4"/>
     <use xlink:href="#m22f0f85721" x="213.926018" y="214.60561" style="fill: #1f77b4; stroke: #1f77b4"/>
     <use xlink:href="#m22f0f85721" x="214.575327" y="210.385379" style="fill: #1f77b4; stroke: #1f77b4"/>
     <use xlink:href="#m22f0f85721" x="215.224636" y="209.143198" style="fill: #1f77b4; stroke: #1f77b4"/>
     <use xlink:href="#m22f0f85721" x="215.873945" y="210.800719" style="fill: #1f77b4; stroke: #1f77b4"/>
     <use xlink:href="#m22f0f85721" x="216.523255" y="227.292775" style="fill: #1f77b4; stroke: #1f77b4"/>
     <use xlink:href="#m22f0f85721" x="217.172564" y="208.558838" style="fill: #1f77b4; stroke: #1f77b4"/>
     <use xlink:href="#m22f0f85721" x="217.821873" y="205.397637" style="fill: #1f77b4; stroke: #1f77b4"/>
     <use xlink:href="#m22f0f85721" x="218.471182" y="222.782979" style="fill: #1f77b4; stroke: #1f77b4"/>
     <use xlink:href="#m22f0f85721" x="219.120491" y="213.627782" style="fill: #1f77b4; stroke: #1f77b4"/>
     <use xlink:href="#m22f0f85721" x="219.7698" y="225.930701" style="fill: #1f77b4; stroke: #1f77b4"/>
     <use xlink:href="#m22f0f85721" x="220.419109" y="213.000645" style="fill: #1f77b4; stroke: #1f77b4"/>
     <use xlink:href="#m22f0f85721" x="221.068418" y="191.026674" style="fill: #1f77b4; stroke: #1f77b4"/>
     <use xlink:href="#m22f0f85721" x="221.717727" y="229.097898" style="fill: #1f77b4; stroke: #1f77b4"/>
     <use xlink:href="#m22f0f85721" x="222.367036" y="212.669807" style="fill: #1f77b4; stroke: #1f77b4"/>
     <use xlink:href="#m22f0f85721" x="223.016345" y="210.772459" style="fill: #1f77b4; stroke: #1f77b4"/>
     <use xlink:href="#m22f0f85721" x="223.665655" y="210.646296" style="fill: #1f77b4; stroke: #1f77b4"/>
     <use xlink:href="#m22f0f85721" x="224.314964" y="233.449992" style="fill: #1f77b4; stroke: #1f77b4"/>
     <use xlink:href="#m22f0f85721" x="224.964273" y="213.316254" style="fill: #1f77b4; stroke: #1f77b4"/>
     <use xlink:href="#m22f0f85721" x="225.613582" y="233.076955" style="fill: #1f77b4; stroke: #1f77b4"/>
     <use xlink:href="#m22f0f85721" x="226.262891" y="216.916924" style="fill: #1f77b4; stroke: #1f77b4"/>
     <use xlink:href="#m22f0f85721" x="226.9122" y="211.103085" style="fill: #1f77b4; stroke: #1f77b4"/>
     <use xlink:href="#m22f0f85721" x="227.561509" y="225.610028" style="fill: #1f77b4; stroke: #1f77b4"/>
     <use xlink:href="#m22f0f85721" x="228.210818" y="209.409783" style="fill: #1f77b4; stroke: #1f77b4"/>
     <use xlink:href="#m22f0f85721" x="228.860127" y="207.081813" style="fill: #1f77b4; stroke: #1f77b4"/>
     <use xlink:href="#m22f0f85721" x="229.509436" y="221.362832" style="fill: #1f77b4; stroke: #1f77b4"/>
     <use xlink:href="#m22f0f85721" x="230.158745" y="212.425828" style="fill: #1f77b4; stroke: #1f77b4"/>
     <use xlink:href="#m22f0f85721" x="230.808055" y="196.081643" style="fill: #1f77b4; stroke: #1f77b4"/>
     <use xlink:href="#m22f0f85721" x="231.457364" y="219.189017" style="fill: #1f77b4; stroke: #1f77b4"/>
     <use xlink:href="#m22f0f85721" x="232.106673" y="233.09019" style="fill: #1f77b4; stroke: #1f77b4"/>
     <use xlink:href="#m22f0f85721" x="232.755982" y="212.847549" style="fill: #1f77b4; stroke: #1f77b4"/>
     <use xlink:href="#m22f0f85721" x="233.405291" y="218.460422" style="fill: #1f77b4; stroke: #1f77b4"/>
     <use xlink:href="#m22f0f85721" x="234.0546" y="217.813335" style="fill: #1f77b4; stroke: #1f77b4"/>
     <use xlink:href="#m22f0f85721" x="234.703909" y="211.434192" style="fill: #1f77b4; stroke: #1f77b4"/>
     <use xlink:href="#m22f0f85721" x="235.353218" y="209.833749" style="fill: #1f77b4; stroke: #1f77b4"/>
     <use xlink:href="#m22f0f85721" x="236.002527" y="207.952385" style="fill: #1f77b4; stroke: #1f77b4"/>
     <use xlink:href="#m22f0f85721" x="236.651836" y="197.218859" style="fill: #1f77b4; stroke: #1f77b4"/>
     <use xlink:href="#m22f0f85721" x="237.301145" y="192.211848" style="fill: #1f77b4; stroke: #1f77b4"/>
     <use xlink:href="#m22f0f85721" x="237.950455" y="190.150488" style="fill: #1f77b4; stroke: #1f77b4"/>
     <use xlink:href="#m22f0f85721" x="238.599764" y="198.54057" style="fill: #1f77b4; stroke: #1f77b4"/>
     <use xlink:href="#m22f0f85721" x="239.249073" y="173.660801" style="fill: #1f77b4; stroke: #1f77b4"/>
     <use xlink:href="#m22f0f85721" x="239.898382" y="186.569719" style="fill: #1f77b4; stroke: #1f77b4"/>
     <use xlink:href="#m22f0f85721" x="240.547691" y="176.873819" style="fill: #1f77b4; stroke: #1f77b4"/>
     <use xlink:href="#m22f0f85721" x="241.197" y="179.448508" style="fill: #1f77b4; stroke: #1f77b4"/>
     <use xlink:href="#m22f0f85721" x="241.846309" y="163.692185" style="fill: #1f77b4; stroke: #1f77b4"/>
     <use xlink:href="#m22f0f85721" x="242.495618" y="142.74624" style="fill: #1f77b4; stroke: #1f77b4"/>
     <use xlink:href="#m22f0f85721" x="243.144927" y="150.347788" style="fill: #1f77b4; stroke: #1f77b4"/>
     <use xlink:href="#m22f0f85721" x="243.794236" y="144.450545" style="fill: #1f77b4; stroke: #1f77b4"/>
     <use xlink:href="#m22f0f85721" x="244.443545" y="134.508829" style="fill: #1f77b4; stroke: #1f77b4"/>
     <use xlink:href="#m22f0f85721" x="245.092855" y="120.324509" style="fill: #1f77b4; stroke: #1f77b4"/>
     <use xlink:href="#m22f0f85721" x="245.742164" y="127.775245" style="fill: #1f77b4; stroke: #1f77b4"/>
     <use xlink:href="#m22f0f85721" x="246.391473" y="116.456273" style="fill: #1f77b4; stroke: #1f77b4"/>
     <use xlink:href="#m22f0f85721" x="247.040782" y="115.626545" style="fill: #1f77b4; stroke: #1f77b4"/>
     <use xlink:href="#m22f0f85721" x="247.690091" y="107.767721" style="fill: #1f77b4; stroke: #1f77b4"/>
     <use xlink:href="#m22f0f85721" x="248.3394" y="89.276143" style="fill: #1f77b4; stroke: #1f77b4"/>
     <use xlink:href="#m22f0f85721" x="248.988709" y="81.835327" style="fill: #1f77b4; stroke: #1f77b4"/>
     <use xlink:href="#m22f0f85721" x="249.638018" y="51.526168" style="fill: #1f77b4; stroke: #1f77b4"/>
     <use xlink:href="#m22f0f85721" x="250.287327" y="38.95664" style="fill: #1f77b4; stroke: #1f77b4"/>
     <use xlink:href="#m22f0f85721" x="250.936636" y="67.445615" style="fill: #1f77b4; stroke: #1f77b4"/>
     <use xlink:href="#m22f0f85721" x="251.585945" y="64.077908" style="fill: #1f77b4; stroke: #1f77b4"/>
     <use xlink:href="#m22f0f85721" x="252.235255" y="58.408711" style="fill: #1f77b4; stroke: #1f77b4"/>
     <use xlink:href="#m22f0f85721" x="252.884564" y="38.721445" style="fill: #1f77b4; stroke: #1f77b4"/>
     <use xlink:href="#m22f0f85721" x="253.533873" y="42.743912" style="fill: #1f77b4; stroke: #1f77b4"/>
     <use xlink:href="#m22f0f85721" x="254.183182" y="19.296" style="fill: #1f77b4; stroke: #1f77b4"/>
     <use xlink:href="#m22f0f85721" x="254.832491" y="24.926951" style="fill: #1f77b4; stroke: #1f77b4"/>
     <use xlink:href="#m22f0f85721" x="255.4818" y="38.9968" style="fill: #1f77b4; stroke: #1f77b4"/>
     <use xlink:href="#m22f0f85721" x="256.131109" y="39.036436" style="fill: #1f77b4; stroke: #1f77b4"/>
     <use xlink:href="#m22f0f85721" x="256.780418" y="20.834107" style="fill: #1f77b4; stroke: #1f77b4"/>
     <use xlink:href="#m22f0f85721" x="257.429727" y="34.998079" style="fill: #1f77b4; stroke: #1f77b4"/>
     <use xlink:href="#m22f0f85721" x="258.079036" y="32.537007" style="fill: #1f77b4; stroke: #1f77b4"/>
     <use xlink:href="#m22f0f85721" x="258.728345" y="21.423774" style="fill: #1f77b4; stroke: #1f77b4"/>
     <use xlink:href="#m22f0f85721" x="259.377655" y="36.69112" style="fill: #1f77b4; stroke: #1f77b4"/>
     <use xlink:href="#m22f0f85721" x="260.026964" y="50.48023" style="fill: #1f77b4; stroke: #1f77b4"/>
     <use xlink:href="#m22f0f85721" x="260.676273" y="57.168777" style="fill: #1f77b4; stroke: #1f77b4"/>
     <use xlink:href="#m22f0f85721" x="261.325582" y="59.666174" style="fill: #1f77b4; stroke: #1f77b4"/>
     <use xlink:href="#m22f0f85721" x="261.974891" y="40.149478" style="fill: #1f77b4; stroke: #1f77b4"/>
     <use xlink:href="#m22f0f85721" x="262.6242" y="72.146098" style="fill: #1f77b4; stroke: #1f77b4"/>
     <use xlink:href="#m22f0f85721" x="263.273509" y="63.373824" style="fill: #1f77b4; stroke: #1f77b4"/>
     <use xlink:href="#m22f0f85721" x="263.922818" y="77.71767" style="fill: #1f77b4; stroke: #1f77b4"/>
     <use xlink:href="#m22f0f85721" x="264.572127" y="91.203598" style="fill: #1f77b4; stroke: #1f77b4"/>
     <use xlink:href="#m22f0f85721" x="265.221436" y="93.521067" style="fill: #1f77b4; stroke: #1f77b4"/>
     <use xlink:href="#m22f0f85721" x="265.870745" y="109.546091" style="fill: #1f77b4; stroke: #1f77b4"/>
     <use xlink:href="#m22f0f85721" x="266.520055" y="115.932801" style="fill: #1f77b4; stroke: #1f77b4"/>
     <use xlink:href="#m22f0f85721" x="267.169364" y="127.763218" style="fill: #1f77b4; stroke: #1f77b4"/>
     <use xlink:href="#m22f0f85721" x="267.818673" y="117.449937" style="fill: #1f77b4; stroke: #1f77b4"/>
     <use xlink:href="#m22f0f85721" x="268.467982" y="146.363892" style="fill: #1f77b4; stroke: #1f77b4"/>
     <use xlink:href="#m22f0f85721" x="269.117291" y="142.661505" style="fill: #1f77b4; stroke: #1f77b4"/>
     <use xlink:href="#m22f0f85721" x="269.7666" y="177.75036" style="fill: #1f77b4; stroke: #1f77b4"/>
     <use xlink:href="#m22f0f85721" x="270.415909" y="169.961169" style="fill: #1f77b4; stroke: #1f77b4"/>
     <use xlink:href="#m22f0f85721" x="271.065218" y="165.962566" style="fill: #1f77b4; stroke: #1f77b4"/>
     <use xlink:href="#m22f0f85721" x="271.714527" y="183.642282" style="fill: #1f77b4; stroke: #1f77b4"/>
     <use xlink:href="#m22f0f85721" x="272.363836" y="183.900918" style="fill: #1f77b4; stroke: #1f77b4"/>
     <use xlink:href="#m22f0f85721" x="273.013145" y="180.262675" style="fill: #1f77b4; stroke: #1f77b4"/>
     <use xlink:href="#m22f0f85721" x="273.662455" y="209.047883" style="fill: #1f77b4; stroke: #1f77b4"/>
     <use xlink:href="#m22f0f85721" x="274.311764" y="211.484662" style="fill: #1f77b4; stroke: #1f77b4"/>
     <use xlink:href="#m22f0f85721" x="274.961073" y="211.667645" style="fill: #1f77b4; stroke: #1f77b4"/>
     <use xlink:href="#m22f0f85721" x="275.610382" y="213.409087" style="fill: #1f77b4; stroke: #1f77b4"/>
     <use xlink:href="#m22f0f85721" x="276.259691" y="212.899509" style="fill: #1f77b4; stroke: #1f77b4"/>
     <use xlink:href="#m22f0f85721" x="276.909" y="235.054566" style="fill: #1f77b4; stroke: #1f77b4"/>
     <use xlink:href="#m22f0f85721" x="277.558309" y="216.856661" style="fill: #1f77b4; stroke: #1f77b4"/>
     <use xlink:href="#m22f0f85721" x="278.207618" y="236.477608" style="fill: #1f77b4; stroke: #1f77b4"/>
     <use xlink:href="#m22f0f85721" x="278.856927" y="193.828189" style="fill: #1f77b4; stroke: #1f77b4"/>
     <use xlink:href="#m22f0f85721" x="279.506236" y="215.541005" style="fill: #1f77b4; stroke: #1f77b4"/>
     <use xlink:href="#m22f0f85721" x="280.155545" y="223.333602" style="fill: #1f77b4; stroke: #1f77b4"/>
     <use xlink:href="#m22f0f85721" x="280.804855" y="226.673136" style="fill: #1f77b4; stroke: #1f77b4"/>
     <use xlink:href="#m22f0f85721" x="281.454164" y="228.733543" style="fill: #1f77b4; stroke: #1f77b4"/>
     <use xlink:href="#m22f0f85721" x="282.103473" y="217.540433" style="fill: #1f77b4; stroke: #1f77b4"/>
     <use xlink:href="#m22f0f85721" x="282.752782" y="225.429782" style="fill: #1f77b4; stroke: #1f77b4"/>
     <use xlink:href="#m22f0f85721" x="283.402091" y="214.624486" style="fill: #1f77b4; stroke: #1f77b4"/>
     <use xlink:href="#m22f0f85721" x="284.0514" y="223.785268" style="fill: #1f77b4; stroke: #1f77b4"/>
     <use xlink:href="#m22f0f85721" x="284.700709" y="235.253583" style="fill: #1f77b4; stroke: #1f77b4"/>
     <use xlink:href="#m22f0f85721" x="285.350018" y="236.31781" style="fill: #1f77b4; stroke: #1f77b4"/>
     <use xlink:href="#m22f0f85721" x="285.999327" y="234.128951" style="fill: #1f77b4; stroke: #1f77b4"/>
     <use xlink:href="#m22f0f85721" x="286.648636" y="247.881943" style="fill: #1f77b4; stroke: #1f77b4"/>
     <use xlink:href="#m22f0f85721" x="287.297945" y="230.800061" style="fill: #1f77b4; stroke: #1f77b4"/>
     <use xlink:href="#m22f0f85721" x="287.947255" y="244.602753" style="fill: #1f77b4; stroke: #1f77b4"/>
     <use xlink:href="#m22f0f85721" x="288.596564" y="223.07645" style="fill: #1f77b4; stroke: #1f77b4"/>
     <use xlink:href="#m22f0f85721" x="289.245873" y="235.211994" style="fill: #1f77b4; stroke: #1f77b4"/>
     <use xlink:href="#m22f0f85721" x="289.895182" y="240.620744" style="fill: #1f77b4; stroke: #1f77b4"/>
     <use xlink:href="#m22f0f85721" x="290.544491" y="231.707096" style="fill: #1f77b4; stroke: #1f77b4"/>
     <use xlink:href="#m22f0f85721" x="291.1938" y="223.156876" style="fill: #1f77b4; stroke: #1f77b4"/>
     <use xlink:href="#m22f0f85721" x="291.843109" y="240.91401" style="fill: #1f77b4; stroke: #1f77b4"/>
     <use xlink:href="#m22f0f85721" x="292.492418" y="236.032828" style="fill: #1f77b4; stroke: #1f77b4"/>
     <use xlink:href="#m22f0f85721" x="293.141727" y="223.589613" style="fill: #1f77b4; stroke: #1f77b4"/>
     <use xlink:href="#m22f0f85721" x="293.791036" y="230.224579" style="fill: #1f77b4; stroke: #1f77b4"/>
     <use xlink:href="#m22f0f85721" x="294.440345" y="238.518233" style="fill: #1f77b4; stroke: #1f77b4"/>
     <use xlink:href="#m22f0f85721" x="295.089655" y="243.1948" style="fill: #1f77b4; stroke: #1f77b4"/>
     <use xlink:href="#m22f0f85721" x="295.738964" y="246.607196" style="fill: #1f77b4; stroke: #1f77b4"/>
     <use xlink:href="#m22f0f85721" x="296.388273" y="253.262923" style="fill: #1f77b4; stroke: #1f77b4"/>
     <use xlink:href="#m22f0f85721" x="297.037582" y="253.312508" style="fill: #1f77b4; stroke: #1f77b4"/>
     <use xlink:href="#m22f0f85721" x="297.686891" y="230.382142" style="fill: #1f77b4; stroke: #1f77b4"/>
     <use xlink:href="#m22f0f85721" x="298.3362" y="229.625717" style="fill: #1f77b4; stroke: #1f77b4"/>
     <use xlink:href="#m22f0f85721" x="298.985509" y="229.623425" style="fill: #1f77b4; stroke: #1f77b4"/>
     <use xlink:href="#m22f0f85721" x="299.634818" y="229.483817" style="fill: #1f77b4; stroke: #1f77b4"/>
     <use xlink:href="#m22f0f85721" x="300.284127" y="233.788935" style="fill: #1f77b4; stroke: #1f77b4"/>
     <use xlink:href="#m22f0f85721" x="300.933436" y="233.752892" style="fill: #1f77b4; stroke: #1f77b4"/>
     <use xlink:href="#m22f0f85721" x="301.582745" y="235.099168" style="fill: #1f77b4; stroke: #1f77b4"/>
     <use xlink:href="#m22f0f85721" x="302.232055" y="236.627378" style="fill: #1f77b4; stroke: #1f77b4"/>
     <use xlink:href="#m22f0f85721" x="302.881364" y="227.471407" style="fill: #1f77b4; stroke: #1f77b4"/>
     <use xlink:href="#m22f0f85721" x="303.530673" y="234.219182" style="fill: #1f77b4; stroke: #1f77b4"/>
     <use xlink:href="#m22f0f85721" x="304.179982" y="246.331624" style="fill: #1f77b4; stroke: #1f77b4"/>
     <use xlink:href="#m22f0f85721" x="304.829291" y="212.076571" style="fill: #1f77b4; stroke: #1f77b4"/>
     <use xlink:href="#m22f0f85721" x="305.4786" y="240.10709" style="fill: #1f77b4; stroke: #1f77b4"/>
     <use xlink:href="#m22f0f85721" x="306.127909" y="234.2646" style="fill: #1f77b4; stroke: #1f77b4"/>
     <use xlink:href="#m22f0f85721" x="306.777218" y="243.501854" style="fill: #1f77b4; stroke: #1f77b4"/>
     <use xlink:href="#m22f0f85721" x="307.426527" y="220.141084" style="fill: #1f77b4; stroke: #1f77b4"/>
     <use xlink:href="#m22f0f85721" x="308.075836" y="235.802932" style="fill: #1f77b4; stroke: #1f77b4"/>
     <use xlink:href="#m22f0f85721" x="308.725145" y="248.438618" style="fill: #1f77b4; stroke: #1f77b4"/>
     <use xlink:href="#m22f0f85721" x="309.374455" y="230.868885" style="fill: #1f77b4; stroke: #1f77b4"/>
     <use xlink:href="#m22f0f85721" x="310.023764" y="254.163529" style="fill: #1f77b4; stroke: #1f77b4"/>
     <use xlink:href="#m22f0f85721" x="310.673073" y="239.639122" style="fill: #1f77b4; stroke: #1f77b4"/>
     <use xlink:href="#m22f0f85721" x="311.322382" y="246.878063" style="fill: #1f77b4; stroke: #1f77b4"/>
     <use xlink:href="#m22f0f85721" x="311.971691" y="218.011829" style="fill: #1f77b4; stroke: #1f77b4"/>
     <use xlink:href="#m22f0f85721" x="312.621" y="237.924231" style="fill: #1f77b4; stroke: #1f77b4"/>
     <use xlink:href="#m22f0f85721" x="313.270309" y="227.618848" style="fill: #1f77b4; stroke: #1f77b4"/>
     <use xlink:href="#m22f0f85721" x="313.919618" y="224.551013" style="fill: #1f77b4; stroke: #1f77b4"/>
     <use xlink:href="#m22f0f85721" x="314.568927" y="257.95378" style="fill: #1f77b4; stroke: #1f77b4"/>
     <use xlink:href="#m22f0f85721" x="315.218236" y="254.755757" style="fill: #1f77b4; stroke: #1f77b4"/>
     <use xlink:href="#m22f0f85721" x="315.867545" y="225.362568" style="fill: #1f77b4; stroke: #1f77b4"/>
     <use xlink:href="#m22f0f85721" x="316.516855" y="238.144214" style="fill: #1f77b4; stroke: #1f77b4"/>
     <use xlink:href="#m22f0f85721" x="317.166164" y="245.182319" style="fill: #1f77b4; stroke: #1f77b4"/>
     <use xlink:href="#m22f0f85721" x="317.815473" y="229.014811" style="fill: #1f77b4; stroke: #1f77b4"/>
     <use xlink:href="#m22f0f85721" x="318.464782" y="233.990442" style="fill: #1f77b4; stroke: #1f77b4"/>
     <use xlink:href="#m22f0f85721" x="319.114091" y="227.154473" style="fill: #1f77b4; stroke: #1f77b4"/>
     <use xlink:href="#m22f0f85721" x="319.7634" y="243.647919" style="fill: #1f77b4; stroke: #1f77b4"/>
     <use xlink:href="#m22f0f85721" x="320.412709" y="220.318851" style="fill: #1f77b4; stroke: #1f77b4"/>
     <use xlink:href="#m22f0f85721" x="321.062018" y="226.72585" style="fill: #1f77b4; stroke: #1f77b4"/>
     <use xlink:href="#m22f0f85721" x="321.711327" y="223.384898" style="fill: #1f77b4; stroke: #1f77b4"/>
     <use xlink:href="#m22f0f85721" x="322.360636" y="232.31299" style="fill: #1f77b4; stroke: #1f77b4"/>
     <use xlink:href="#m22f0f85721" x="323.009945" y="232.339223" style="fill: #1f77b4; stroke: #1f77b4"/>
     <use xlink:href="#m22f0f85721" x="323.659255" y="228.945609" style="fill: #1f77b4; stroke: #1f77b4"/>
     <use xlink:href="#m22f0f85721" x="324.308564" y="237.148939" style="fill: #1f77b4; stroke: #1f77b4"/>
     <use xlink:href="#m22f0f85721" x="324.957873" y="234.953041" style="fill: #1f77b4; stroke: #1f77b4"/>
     <use xlink:href="#m22f0f85721" x="325.607182" y="225.936537" style="fill: #1f77b4; stroke: #1f77b4"/>
     <use xlink:href="#m22f0f85721" x="326.256491" y="225.674612" style="fill: #1f77b4; stroke: #1f77b4"/>
     <use xlink:href="#m22f0f85721" x="326.9058" y="215.965975" style="fill: #1f77b4; stroke: #1f77b4"/>
     <use xlink:href="#m22f0f85721" x="327.555109" y="239.183891" style="fill: #1f77b4; stroke: #1f77b4"/>
     <use xlink:href="#m22f0f85721" x="328.204418" y="237.960709" style="fill: #1f77b4; stroke: #1f77b4"/>
     <use xlink:href="#m22f0f85721" x="328.853727" y="235.796998" style="fill: #1f77b4; stroke: #1f77b4"/>
     <use xlink:href="#m22f0f85721" x="329.503036" y="238.076713" style="fill: #1f77b4; stroke: #1f77b4"/>
     <use xlink:href="#m22f0f85721" x="330.152345" y="236.71996" style="fill: #1f77b4; stroke: #1f77b4"/>
     <use xlink:href="#m22f0f85721" x="330.801655" y="231.811586" style="fill: #1f77b4; stroke: #1f77b4"/>
     <use xlink:href="#m22f0f85721" x="331.450964" y="230.810703" style="fill: #1f77b4; stroke: #1f77b4"/>
     <use xlink:href="#m22f0f85721" x="332.100273" y="220.318794" style="fill: #1f77b4; stroke: #1f77b4"/>
     <use xlink:href="#m22f0f85721" x="332.749582" y="226.339453" style="fill: #1f77b4; stroke: #1f77b4"/>
     <use xlink:href="#m22f0f85721" x="333.398891" y="236.44389" style="fill: #1f77b4; stroke: #1f77b4"/>
     <use xlink:href="#m22f0f85721" x="334.0482" y="217.765425" style="fill: #1f77b4; stroke: #1f77b4"/>
     <use xlink:href="#m22f0f85721" x="334.697509" y="231.309481" style="fill: #1f77b4; stroke: #1f77b4"/>
     <use xlink:href="#m22f0f85721" x="335.346818" y="213.078209" style="fill: #1f77b4; stroke: #1f77b4"/>
     <use xlink:href="#m22f0f85721" x="335.996127" y="235.926815" style="fill: #1f77b4; stroke: #1f77b4"/>
     <use xlink:href="#m22f0f85721" x="336.645436" y="230.586264" style="fill: #1f77b4; stroke: #1f77b4"/>
     <use xlink:href="#m22f0f85721" x="337.294745" y="223.751376" style="fill: #1f77b4; stroke: #1f77b4"/>
     <use xlink:href="#m22f0f85721" x="337.944055" y="245.176635" style="fill: #1f77b4; stroke: #1f77b4"/>
     <use xlink:href="#m22f0f85721" x="338.593364" y="220.359336" style="fill: #1f77b4; stroke: #1f77b4"/>
     <use xlink:href="#m22f0f85721" x="339.242673" y="209.394695" style="fill: #1f77b4; stroke: #1f77b4"/>
     <use xlink:href="#m22f0f85721" x="339.891982" y="222.480414" style="fill: #1f77b4; stroke: #1f77b4"/>
     <use xlink:href="#m22f0f85721" x="340.541291" y="214.927821" style="fill: #1f77b4; stroke: #1f77b4"/>
     <use xlink:href="#m22f0f85721" x="341.1906" y="216.773096" style="fill: #1f77b4; stroke: #1f77b4"/>
     <use xlink:href="#m22f0f85721" x="341.839909" y="220.59249" style="fill: #1f77b4; stroke: #1f77b4"/>
     <use xlink:href="#m22f0f85721" x="342.489218" y="223.77717" style="fill: #1f77b4; stroke: #1f77b4"/>
     <use xlink:href="#m22f0f85721" x="343.138527" y="219.606587" style="fill: #1f77b4; stroke: #1f77b4"/>
     <use xlink:href="#m22f0f85721" x="343.787836" y="227.364916" style="fill: #1f77b4; stroke: #1f77b4"/>
     <use xlink:href="#m22f0f85721" x="344.437145" y="216.001785" style="fill: #1f77b4; stroke: #1f77b4"/>
     <use xlink:href="#m22f0f85721" x="345.086455" y="229.90082" style="fill: #1f77b4; stroke: #1f77b4"/>
     <use xlink:href="#m22f0f85721" x="345.735764" y="212.975479" style="fill: #1f77b4; stroke: #1f77b4"/>
     <use xlink:href="#m22f0f85721" x="346.385073" y="229.497361" style="fill: #1f77b4; stroke: #1f77b4"/>
     <use xlink:href="#m22f0f85721" x="347.034382" y="219.095474" style="fill: #1f77b4; stroke: #1f77b4"/>
     <use xlink:href="#m22f0f85721" x="347.683691" y="228.021216" style="fill: #1f77b4; stroke: #1f77b4"/>
     <use xlink:href="#m22f0f85721" x="348.333" y="246.083455" style="fill: #1f77b4; stroke: #1f77b4"/>
     <use xlink:href="#m22f0f85721" x="348.982309" y="218.601704" style="fill: #1f77b4; stroke: #1f77b4"/>
     <use xlink:href="#m22f0f85721" x="349.631618" y="225.134239" style="fill: #1f77b4; stroke: #1f77b4"/>
     <use xlink:href="#m22f0f85721" x="350.280927" y="216.744535" style="fill: #1f77b4; stroke: #1f77b4"/>
     <use xlink:href="#m22f0f85721" x="350.930236" y="206.13484" style="fill: #1f77b4; stroke: #1f77b4"/>
     <use xlink:href="#m22f0f85721" x="351.579545" y="232.885631" style="fill: #1f77b4; stroke: #1f77b4"/>
     <use xlink:href="#m22f0f85721" x="352.228855" y="232.744714" style="fill: #1f77b4; stroke: #1f77b4"/>
     <use xlink:href="#m22f0f85721" x="352.878164" y="228.51822" style="fill: #1f77b4; stroke: #1f77b4"/>
     <use xlink:href="#m22f0f85721" x="353.527473" y="211.200379" style="fill: #1f77b4; stroke: #1f77b4"/>
     <use xlink:href="#m22f0f85721" x="354.176782" y="207.738613" style="fill: #1f77b4; stroke: #1f77b4"/>
     <use xlink:href="#m22f0f85721" x="354.826091" y="200.647641" style="fill: #1f77b4; stroke: #1f77b4"/>
     <use xlink:href="#m22f0f85721" x="355.4754" y="220.248019" style="fill: #1f77b4; stroke: #1f77b4"/>
     <use xlink:href="#m22f0f85721" x="356.124709" y="218.185876" style="fill: #1f77b4; stroke: #1f77b4"/>
     <use xlink:href="#m22f0f85721" x="356.774018" y="223.392411" style="fill: #1f77b4; stroke: #1f77b4"/>
     <use xlink:href="#m22f0f85721" x="357.423327" y="210.552356" style="fill: #1f77b4; stroke: #1f77b4"/>
     <use xlink:href="#m22f0f85721" x="358.072636" y="208.38637" style="fill: #1f77b4; stroke: #1f77b4"/>
     <use xlink:href="#m22f0f85721" x="358.721945" y="216.165821" style="fill: #1f77b4; stroke: #1f77b4"/>
     <use xlink:href="#m22f0f85721" x="359.371255" y="209.316445" style="fill: #1f77b4; stroke: #1f77b4"/>
     <use xlink:href="#m22f0f85721" x="360.020564" y="222.369476" style="fill: #1f77b4; stroke: #1f77b4"/>
     <use xlink:href="#m22f0f85721" x="360.669873" y="217.068265" style="fill: #1f77b4; stroke: #1f77b4"/>
     <use xlink:href="#m22f0f85721" x="361.319182" y="209.817156" style="fill: #1f77b4; stroke: #1f77b4"/>
     <use xlink:href="#m22f0f85721" x="361.968491" y="227.894051" style="fill: #1f77b4; stroke: #1f77b4"/>
     <use xlink:href="#m22f0f85721" x="362.6178" y="222.339161" style="fill: #1f77b4; stroke: #1f77b4"/>
     <use xlink:href="#m22f0f85721" x="363.267109" y="208.841954" style="fill: #1f77b4; stroke: #1f77b4"/>
     <use xlink:href="#m22f0f85721" x="363.916418" y="211.26883" style="fill: #1f77b4; stroke: #1f77b4"/>
     <use xlink:href="#m22f0f85721" x="364.565727" y="201.460331" style="fill: #1f77b4; stroke: #1f77b4"/>
     <use xlink:href="#m22f0f85721" x="365.215036" y="216.697242" style="fill: #1f77b4; stroke: #1f77b4"/>
     <use xlink:href="#m22f0f85721" x="365.864345" y="197.841363" style="fill: #1f77b4; stroke: #1f77b4"/>
     <use xlink:href="#m22f0f85721" x="366.513655" y="202.851504" style="fill: #1f77b4; stroke: #1f77b4"/>
     <use xlink:href="#m22f0f85721" x="367.162964" y="225.595093" style="fill: #1f77b4; stroke: #1f77b4"/>
     <use xlink:href="#m22f0f85721" x="367.812273" y="204.847155" style="fill: #1f77b4; stroke: #1f77b4"/>
    </g>
   </g>
   <g id="line2d_17">
    <path d="M 43.157727 219.299708 
L 46.404273 219.105873 
L 49.650818 218.653964 
L 52.897364 217.967445 
L 56.143909 217.069782 
L 60.039764 215.746912 
L 63.935618 214.19433 
L 68.480782 212.146746 
L 74.324564 209.239426 
L 83.414891 204.404865 
L 92.505218 199.644176 
L 97.699691 197.155178 
L 102.244855 195.21062 
L 106.140709 193.768422 
L 110.036564 192.576317 
L 113.283109 191.80319 
L 116.529655 191.254801 
L 119.7762 190.929204 
L 123.672055 190.781407 
L 128.217218 190.859441 
L 134.710309 191.237183 
L 143.800636 191.755138 
L 148.3458 191.774351 
L 152.241655 191.555417 
L 156.786818 191.033502 
L 163.929218 190.191522 
L 167.175764 190.033901 
L 169.773 190.100631 
L 172.370236 190.391646 
L 174.967473 190.955766 
L 176.9154 191.587446 
L 178.863327 192.420802 
L 180.811255 193.476427 
L 182.759182 194.774918 
L 184.707109 196.336868 
L 186.655036 198.182873 
L 188.602964 200.330237 
L 191.2002 203.597637 
L 194.446745 208.086361 
L 200.290527 216.259084 
L 202.887764 219.500795 
L 204.835691 221.62033 
L 206.783618 223.390154 
L 208.082236 224.339085 
L 209.380855 225.077588 
L 210.679473 225.583663 
L 211.978091 225.835311 
L 213.276709 225.81053 
L 214.575327 225.487322 
L 215.873945 224.843685 
L 217.172564 223.85762 
L 218.471182 222.507127 
L 219.7698 220.770206 
L 221.068418 218.624856 
L 222.367036 216.049078 
L 223.665655 213.020886 
L 224.964273 209.533323 
L 226.9122 203.522401 
L 228.860127 196.707956 
L 231.457364 186.628714 
L 234.703909 172.92815 
L 243.794236 133.662309 
L 246.391473 123.716392 
L 248.3394 117.032374 
L 250.287327 111.177963 
L 251.585945 107.809233 
L 252.884564 104.919193 
L 254.183182 102.551832 
L 255.4818 100.751142 
L 256.780418 99.561111 
L 257.429727 99.20884 
L 258.079036 99.02573 
L 258.728345 99.01728 
L 259.377655 99.188989 
L 260.026964 99.545804 
L 260.676273 100.086248 
L 261.325582 100.804704 
L 262.6242 102.752903 
L 263.922818 105.344905 
L 265.221436 108.535213 
L 266.520055 112.278329 
L 268.467982 118.829996 
L 270.415909 126.369563 
L 272.363836 134.743478 
L 274.961073 146.941175 
L 278.207618 163.335795 
L 287.297945 210.22477 
L 289.895182 222.318336 
L 291.843109 230.590384 
L 293.791036 238.007709 
L 295.738964 244.416764 
L 297.037582 248.066326 
L 298.3362 251.223187 
L 299.634818 253.90737 
L 300.933436 256.138901 
L 302.232055 257.937803 
L 303.530673 259.324102 
L 304.829291 260.317821 
L 306.127909 260.938987 
L 307.426527 261.207623 
L 308.725145 261.143754 
L 310.023764 260.767405 
L 311.322382 260.0986 
L 312.621 259.157364 
L 313.919618 257.963722 
L 315.218236 256.537698 
L 317.166164 254.00675 
L 319.114091 251.065582 
L 321.711327 246.622716 
L 324.957873 240.45659 
L 330.152345 229.912711 
L 334.697509 220.878297 
L 337.294745 216.144777 
L 339.891982 211.923504 
L 341.839909 209.190081 
L 343.787836 206.902492 
L 345.086455 205.658492 
L 346.385073 204.662702 
L 347.683691 203.935147 
L 348.982309 203.49585 
L 350.280927 203.364838 
L 351.579545 203.562134 
L 352.878164 204.107763 
L 354.176782 205.02175 
L 355.4754 206.324119 
L 356.774018 208.034896 
L 358.072636 210.174104 
L 359.371255 212.761768 
L 360.669873 215.817913 
L 361.968491 219.362564 
L 363.267109 223.415746 
L 364.565727 227.997482 
L 366.513655 235.904931 
L 367.812273 241.895663 
L 367.812273 241.895663 
" clip-path="url(#p18bf2f65d1)" style="fill: none; stroke: #ff7f0e; stroke-width: 1.5; stroke-linecap: square"/>
   </g>
   <g id="line2d_18">
    <path d="M 43.157727 223.276831 
L 45.754964 221.270049 
L 48.3522 219.495309 
L 51.598745 217.566335 
L 54.845291 215.914867 
L 58.091836 214.493652 
L 61.987691 213.025594 
L 67.182164 211.336965 
L 79.519036 207.490959 
L 83.414891 206.012647 
L 86.661436 204.58004 
L 89.907982 202.914633 
L 93.803836 200.60681 
L 103.543473 194.597228 
L 106.790018 192.946299 
L 109.387255 191.894754 
L 111.335182 191.304654 
L 113.283109 190.914161 
L 115.231036 190.727868 
L 117.828273 190.737844 
L 121.074818 191.039464 
L 130.165145 192.164763 
L 132.762382 192.175626 
L 134.710309 191.990202 
L 136.658236 191.597729 
L 138.606164 191.000379 
L 141.2034 189.981945 
L 148.995109 186.742759 
L 150.943036 186.203501 
L 152.890964 185.89131 
L 154.838891 185.865611 
L 156.137509 186.036987 
L 157.436127 186.379712 
L 158.734745 186.911394 
L 160.033364 187.64679 
L 161.981291 189.097929 
L 163.929218 190.879102 
L 166.526455 193.59638 
L 173.019545 200.647917 
L 174.967473 202.430424 
L 176.9154 203.883367 
L 178.214018 204.620046 
L 179.512636 205.136963 
L 180.811255 205.404803 
L 182.109873 205.39425 
L 183.408491 205.084576 
L 184.707109 204.508043 
L 186.005727 203.717109 
L 187.953655 202.243543 
L 193.797436 197.408921 
L 195.096055 196.5871 
L 196.394673 195.970856 
L 197.693291 195.612686 
L 198.991909 195.565086 
L 200.290527 195.880554 
L 201.589145 196.611588 
L 202.887764 197.810685 
L 204.186382 199.530341 
L 205.485 201.823055 
L 206.783618 204.711983 
L 208.082236 208.102927 
L 210.030164 213.860382 
L 215.873945 232.07276 
L 217.172564 235.518733 
L 218.471182 238.478414 
L 219.7698 240.828263 
L 220.419109 241.735895 
L 221.068418 242.444742 
L 221.717727 242.939362 
L 222.367036 243.204312 
L 223.016345 243.22415 
L 223.665655 242.983435 
L 224.314964 242.466723 
L 224.964273 241.658572 
L 225.613582 240.54354 
L 226.262891 239.106184 
L 226.9122 237.331063 
L 228.210818 232.705754 
L 229.509436 226.558363 
L 230.808055 218.960962 
L 232.106673 210.110262 
L 234.0546 194.919942 
L 236.651836 172.138472 
L 243.794236 106.91708 
L 245.742164 91.611433 
L 247.040782 82.662493 
L 248.3394 74.949766 
L 249.638018 68.672413 
L 250.936636 64.029595 
L 251.585945 62.383375 
L 252.235255 61.219096 
L 252.884564 60.537118 
L 253.533873 60.318589 
L 254.183182 60.544076 
L 254.832491 61.194144 
L 255.4818 62.249358 
L 256.131109 63.690286 
L 256.780418 65.497491 
L 258.079036 70.133003 
L 259.377655 76.00042 
L 260.676273 82.944269 
L 262.6242 95.038256 
L 264.572127 108.679681 
L 267.818673 133.428971 
L 272.363836 168.225335 
L 274.311764 181.733133 
L 276.259691 193.665986 
L 278.207618 203.885496 
L 280.155545 212.517095 
L 281.454164 217.454249 
L 282.752782 221.783059 
L 284.0514 225.542479 
L 285.350018 228.771468 
L 286.648636 231.508981 
L 287.947255 233.793977 
L 289.245873 235.665412 
L 290.544491 237.162243 
L 291.843109 238.323426 
L 293.141727 239.18792 
L 294.440345 239.79468 
L 295.738964 240.182664 
L 297.037582 240.390828 
L 298.985509 240.450165 
L 300.933436 240.279906 
L 302.881364 239.910723 
L 305.4786 239.154877 
L 308.075836 238.155397 
L 311.322382 236.659204 
L 317.166164 233.646181 
L 321.711327 231.403402 
L 325.607182 229.770312 
L 330.152345 228.14318 
L 338.593364 225.450388 
L 343.787836 223.681851 
L 347.683691 222.143499 
L 350.930236 220.650779 
L 354.176782 218.91135 
L 357.423327 216.873548 
L 360.020564 214.993761 
L 362.6178 212.863499 
L 365.215036 210.45631 
L 367.812273 207.745743 
L 367.812273 207.745743 
" clip-path="url(#p18bf2f65d1)" style="fill: none; stroke: #2ca02c; stroke-width: 1.5; stroke-linecap: square"/>
   </g>
   <g id="line2d_19">
    <path d="M 43.157727 223.448596 
L 45.754964 221.265531 
L 48.3522 219.394574 
L 50.949436 217.797261 
L 53.546673 216.435126 
L 56.793218 215.004581 
L 60.689073 213.587873 
L 65.883545 211.994771 
L 73.675255 209.614018 
L 77.571109 208.146384 
L 80.817655 206.686811 
L 85.362818 204.391308 
L 95.102455 199.396863 
L 99.647618 197.415688 
L 104.842091 195.422377 
L 112.6338 192.719858 
L 118.477582 190.84993 
L 122.373436 189.826572 
L 125.619982 189.198314 
L 128.217218 188.885931 
L 130.814455 188.769621 
L 134.061 188.875506 
L 137.307545 189.205956 
L 141.2034 189.816448 
L 148.995109 191.342758 
L 152.890964 191.999046 
L 156.137509 192.331595 
L 158.734745 192.387213 
L 161.331982 192.201774 
L 163.279909 191.874897 
L 167.175764 190.892703 
L 169.773 190.326129 
L 171.720927 190.128208 
L 173.019545 190.16393 
L 174.318164 190.370853 
L 175.616782 190.780747 
L 176.9154 191.425383 
L 178.214018 192.336531 
L 179.512636 193.545962 
L 180.811255 195.078609 
L 182.759182 197.891758 
L 185.356418 202.231793 
L 189.252273 208.854449 
L 191.2002 211.698994 
L 192.498818 213.26031 
L 193.797436 214.47103 
L 195.096055 215.260392 
L 195.745364 215.47495 
L 196.394673 215.557633 
L 197.043982 215.49961 
L 197.693291 215.29803 
L 198.991909 214.515242 
L 200.290527 213.322964 
L 202.238455 211.020546 
L 206.134309 206.001061 
L 207.432927 204.630446 
L 208.731545 203.604471 
L 209.380855 203.25698 
L 210.030164 203.039156 
L 210.679473 202.965503 
L 211.328782 203.050522 
L 211.978091 203.308716 
L 212.6274 203.754588 
L 213.276709 204.402639 
L 213.926018 205.267373 
L 215.224636 207.660268 
L 216.523255 210.778236 
L 218.471182 216.318853 
L 221.717727 225.967191 
L 223.016345 229.310221 
L 224.314964 232.018176 
L 224.964273 233.063157 
L 225.613582 233.864359 
L 226.262891 234.393444 
L 226.9122 234.622074 
L 227.561509 234.521914 
L 228.210818 234.064626 
L 228.860127 233.221873 
L 229.509436 231.965319 
L 230.158745 230.266625 
L 230.808055 228.097455 
L 231.457364 225.430989 
L 232.755982 218.651457 
L 234.0546 210.167387 
L 235.353218 200.251435 
L 237.301145 183.289159 
L 239.898382 158.205976 
L 244.443545 113.650035 
L 246.391473 96.683071 
L 247.690091 86.762877 
L 248.988709 78.262803 
L 250.287327 71.285309 
L 251.585945 65.811903 
L 252.884564 61.821072 
L 253.533873 60.374901 
L 254.183182 59.291308 
L 254.832491 58.567603 
L 255.4818 58.201099 
L 256.131109 58.189106 
L 256.780418 58.528935 
L 257.429727 59.217898 
L 258.079036 60.253306 
L 258.728345 61.63247 
L 259.377655 63.352701 
L 260.676273 67.80561 
L 261.974891 73.590523 
L 263.273509 80.685928 
L 264.572127 89.070317 
L 265.870745 98.718946 
L 267.818673 115.262856 
L 270.415909 139.954298 
L 276.259691 197.226286 
L 278.207618 213.98795 
L 279.506236 223.821021 
L 280.804855 232.303223 
L 282.103473 239.196468 
L 283.402091 244.298716 
L 284.0514 246.193305 
L 284.700709 247.683562 
L 285.350018 248.794675 
L 285.999327 249.551832 
L 286.648636 249.980224 
L 287.297945 250.105037 
L 287.947255 249.951461 
L 288.596564 249.544685 
L 289.245873 248.909897 
L 290.544491 247.05704 
L 291.843109 244.5944 
L 293.791036 240.1979 
L 297.037582 232.676204 
L 298.3362 230.187293 
L 299.634818 228.297545 
L 300.284127 227.628181 
L 300.933436 227.137733 
L 301.582745 226.814603 
L 302.232055 226.647192 
L 302.881364 226.623902 
L 303.530673 226.733133 
L 304.829291 227.302766 
L 306.127909 228.263301 
L 307.426527 229.52195 
L 309.374455 231.76591 
L 313.270309 236.387111 
L 314.568927 237.626774 
L 315.867545 238.56142 
L 317.166164 239.100769 
L 318.464782 239.220076 
L 319.7634 238.964789 
L 321.062018 238.383798 
L 322.360636 237.525994 
L 323.659255 236.440267 
L 325.607182 234.49127 
L 328.853727 230.795944 
L 332.100273 227.20393 
L 334.0482 225.41574 
L 335.996127 224.037258 
L 337.944055 223.021672 
L 339.891982 222.303249 
L 341.839909 221.816255 
L 344.437145 221.413317 
L 351.579545 220.552048 
L 353.527473 220.073224 
L 355.4754 219.365695 
L 357.423327 218.363725 
L 359.371255 217.001583 
L 360.669873 215.860931 
L 361.968491 214.51151 
L 363.267109 212.933845 
L 364.565727 211.108457 
L 365.864345 209.015872 
L 367.812273 205.333391 
L 367.812273 205.333391 
" clip-path="url(#p18bf2f65d1)" style="fill: none; stroke: #d62728; stroke-width: 1.5; stroke-linecap: square"/>
   </g>
   <g id="line2d_20">
    <path d="M 43.157727 227.643121 
L 44.456345 224.608499 
L 45.754964 222.030401 
L 47.053582 219.873844 
L 48.3522 218.103845 
L 49.650818 216.685422 
L 50.949436 215.583592 
L 52.248055 214.763373 
L 53.546673 214.189781 
L 54.845291 213.827835 
L 56.143909 213.642551 
L 58.091836 213.619343 
L 60.689073 213.880214 
L 64.584927 214.328368 
L 66.532855 214.322216 
L 67.831473 214.152677 
L 69.130091 213.809974 
L 70.428709 213.259186 
L 71.727327 212.48629 
L 73.675255 210.994285 
L 76.272491 208.619755 
L 80.168345 204.962335 
L 82.116273 203.418996 
L 83.414891 202.598715 
L 84.713509 201.991719 
L 86.012127 201.584714 
L 87.960055 201.261235 
L 90.557291 201.15363 
L 94.453145 201.0294 
L 96.401073 200.688608 
L 97.699691 200.266086 
L 99.647618 199.313792 
L 101.595545 198.077298 
L 105.4914 195.222884 
L 108.088636 193.415508 
L 110.036564 192.308655 
L 111.335182 191.753865 
L 113.283109 191.213947 
L 115.231036 190.947433 
L 117.828273 190.859876 
L 123.022745 190.7929 
L 124.970673 190.527672 
L 127.567909 189.874886 
L 133.411691 188.215807 
L 135.359618 187.946142 
L 136.658236 187.928182 
L 137.956855 188.072911 
L 139.255473 188.39441 
L 141.2034 189.137854 
L 144.449945 190.743376 
L 147.047182 192.001123 
L 148.995109 192.720931 
L 150.293727 193.020107 
L 151.592345 193.128582 
L 152.890964 193.028284 
L 154.838891 192.564499 
L 157.436127 191.584308 
L 161.331982 190.029238 
L 163.279909 189.524285 
L 164.578527 189.385987 
L 165.877145 189.451149 
L 167.175764 189.715823 
L 168.474382 190.15461 
L 170.422309 191.083309 
L 172.370236 192.259905 
L 175.616782 194.53735 
L 180.161945 197.734588 
L 188.602964 203.308281 
L 191.2002 205.369182 
L 193.797436 207.760452 
L 198.3426 212.069311 
L 200.290527 213.580627 
L 201.589145 214.366388 
L 202.887764 214.923389 
L 204.186382 215.207628 
L 205.485 215.175104 
L 206.783618 214.804961 
L 208.082236 214.168926 
L 210.030164 212.923855 
L 212.6274 211.218604 
L 213.926018 210.560086 
L 215.224636 210.157468 
L 216.523255 210.105622 
L 217.172564 210.240886 
L 217.821873 210.49942 
L 218.471182 210.893082 
L 219.120491 211.433703 
L 220.419109 212.938284 
L 222.367036 215.873474 
L 224.964273 219.937271 
L 226.262891 221.555267 
L 226.9122 222.16779 
L 227.561509 222.613902 
L 228.210818 222.867032 
L 228.860127 222.900608 
L 229.509436 222.688061 
L 230.158745 222.202818 
L 230.808055 221.418308 
L 231.457364 220.307961 
L 232.106673 218.845206 
L 232.755982 217.003731 
L 234.0546 212.165862 
L 235.353218 205.885916 
L 236.651836 198.28792 
L 237.950455 189.4959 
L 239.898382 174.340384 
L 241.846309 157.195965 
L 244.443545 131.966378 
L 251.585945 60.06972 
L 252.884564 49.805042 
L 254.183182 41.447252 
L 254.832491 38.114495 
L 255.4818 35.415724 
L 256.131109 33.403363 
L 256.780418 32.129833 
L 257.429727 31.647555 
L 258.079036 32.008953 
L 258.728345 33.266447 
L 259.377655 35.47246 
L 260.026964 38.672725 
L 260.676273 42.835234 
L 261.974891 53.717479 
L 263.273509 67.456012 
L 265.221436 91.966808 
L 268.467982 137.692628 
L 271.065218 172.68415 
L 272.363836 187.824146 
L 273.662455 200.520035 
L 274.961073 210.534841 
L 276.259691 218.147935 
L 277.558309 223.670968 
L 278.207618 225.746101 
L 278.856927 227.415588 
L 279.506236 228.718384 
L 280.155545 229.693445 
L 280.804855 230.379728 
L 281.454164 230.816188 
L 282.103473 231.041782 
L 282.752782 231.095467 
L 284.0514 230.842931 
L 286.648636 229.989011 
L 287.947255 229.94844 
L 289.245873 230.247733 
L 290.544491 230.823622 
L 291.843109 231.612838 
L 293.791036 233.058249 
L 297.686891 236.107834 
L 299.634818 237.284944 
L 300.933436 237.799021 
L 302.232055 238.076059 
L 303.530673 238.145351 
L 304.829291 238.037322 
L 306.777218 237.609352 
L 309.374455 236.702056 
L 315.218236 234.429069 
L 318.464782 233.499694 
L 324.957873 231.746675 
L 327.555109 230.812302 
L 330.152345 229.641607 
L 334.0482 227.599769 
L 339.891982 224.494739 
L 343.138527 223.054066 
L 347.683691 221.336603 
L 352.228855 219.588895 
L 355.4754 218.088544 
L 358.072636 216.619106 
L 360.020564 215.30841 
L 361.968491 213.782034 
L 363.916418 212.006802 
L 365.864345 209.949535 
L 367.812273 207.577057 
L 367.812273 207.577057 
" clip-path="url(#p18bf2f65d1)" style="fill: none; stroke: #9467bd; stroke-width: 1.5; stroke-linecap: square"/>
   </g>
   <g id="patch_3">
    <path d="M 26.925 273.312 
L 26.925 7.2 
" style="fill: none; stroke: #000000; stroke-width: 0.8; stroke-linejoin: miter; stroke-linecap: square"/>
   </g>
   <g id="patch_4">
    <path d="M 384.045 273.312 
L 384.045 7.2 
" style="fill: none; stroke: #000000; stroke-width: 0.8; stroke-linejoin: miter; stroke-linecap: square"/>
   </g>
   <g id="patch_5">
    <path d="M 26.925 273.312 
L 384.045 273.312 
" style="fill: none; stroke: #000000; stroke-width: 0.8; stroke-linejoin: miter; stroke-linecap: square"/>
   </g>
   <g id="patch_6">
    <path d="M 26.925 7.2 
L 384.045 7.2 
" style="fill: none; stroke: #000000; stroke-width: 0.8; stroke-linejoin: miter; stroke-linecap: square"/>
   </g>
   <g id="legend_1">
    <g id="patch_7">
     <path d="M 33.925 88.590625 
L 155.64375 88.590625 
Q 157.64375 88.590625 157.64375 86.590625 
L 157.64375 14.2 
Q 157.64375 12.2 155.64375 12.2 
L 33.925 12.2 
Q 31.925 12.2 31.925 14.2 
L 31.925 86.590625 
Q 31.925 88.590625 33.925 88.590625 
z
" style="fill: #ffffff; opacity: 0.8; stroke: #cccccc; stroke-linejoin: miter"/>
    </g>
    <g id="line2d_21">
     <g>
      <use xlink:href="#m22f0f85721" x="45.925" y="20.298437" style="fill: #1f77b4; stroke: #1f77b4"/>
     </g>
    </g>
    <g id="text_16">
     <!-- data -->
     <g transform="translate(63.925 23.798437) scale(0.1 -0.1)">
      <defs>
       <path id="DejaVuSans-64" d="M 2906 2969 
L 2906 4863 
L 3481 4863 
L 3481 0 
L 2906 0 
L 2906 525 
Q 2725 213 2448 61 
Q 2172 -91 1784 -91 
Q 1150 -91 751 415 
Q 353 922 353 1747 
Q 353 2572 751 3078 
Q 1150 3584 1784 3584 
Q 2172 3584 2448 3432 
Q 2725 3281 2906 2969 
z
M 947 1747 
Q 947 1113 1208 752 
Q 1469 391 1925 391 
Q 2381 391 2643 752 
Q 2906 1113 2906 1747 
Q 2906 2381 2643 2742 
Q 2381 3103 1925 3103 
Q 1469 3103 1208 2742 
Q 947 2381 947 1747 
z
" transform="scale(0.015625)"/>
       <path id="DejaVuSans-61" d="M 2194 1759 
Q 1497 1759 1228 1600 
Q 959 1441 959 1056 
Q 959 750 1161 570 
Q 1363 391 1709 391 
Q 2188 391 2477 730 
Q 2766 1069 2766 1631 
L 2766 1759 
L 2194 1759 
z
M 3341 1997 
L 3341 0 
L 2766 0 
L 2766 531 
Q 2569 213 2275 61 
Q 1981 -91 1556 -91 
Q 1019 -91 701 211 
Q 384 513 384 1019 
Q 384 1609 779 1909 
Q 1175 2209 1959 2209 
L 2766 2209 
L 2766 2266 
Q 2766 2663 2505 2880 
Q 2244 3097 1772 3097 
Q 1472 3097 1187 3025 
Q 903 2953 641 2809 
L 641 3341 
Q 956 3463 1253 3523 
Q 1550 3584 1831 3584 
Q 2591 3584 2966 3190 
Q 3341 2797 3341 1997 
z
" transform="scale(0.015625)"/>
       <path id="DejaVuSans-74" d="M 1172 4494 
L 1172 3500 
L 2356 3500 
L 2356 3053 
L 1172 3053 
L 1172 1153 
Q 1172 725 1289 603 
Q 1406 481 1766 481 
L 2356 481 
L 2356 0 
L 1766 0 
Q 1100 0 847 248 
Q 594 497 594 1153 
L 594 3053 
L 172 3053 
L 172 3500 
L 594 3500 
L 594 4494 
L 1172 4494 
z
" transform="scale(0.015625)"/>
      </defs>
      <use xlink:href="#DejaVuSans-64"/>
      <use xlink:href="#DejaVuSans-61" x="63.476562"/>
      <use xlink:href="#DejaVuSans-74" x="124.755859"/>
      <use xlink:href="#DejaVuSans-61" x="163.964844"/>
     </g>
    </g>
    <g id="line2d_22">
     <path d="M 35.925 34.976562 
L 45.925 34.976562 
L 55.925 34.976562 
" style="fill: none; stroke: #ff7f0e; stroke-width: 1.5; stroke-linecap: square"/>
    </g>
    <g id="text_17">
     <!-- best-fit (10 knots) -->
     <g transform="translate(63.925 38.476562) scale(0.1 -0.1)">
      <defs>
       <path id="DejaVuSans-62" d="M 3116 1747 
Q 3116 2381 2855 2742 
Q 2594 3103 2138 3103 
Q 1681 3103 1420 2742 
Q 1159 2381 1159 1747 
Q 1159 1113 1420 752 
Q 1681 391 2138 391 
Q 2594 391 2855 752 
Q 3116 1113 3116 1747 
z
M 1159 2969 
Q 1341 3281 1617 3432 
Q 1894 3584 2278 3584 
Q 2916 3584 3314 3078 
Q 3713 2572 3713 1747 
Q 3713 922 3314 415 
Q 2916 -91 2278 -91 
Q 1894 -91 1617 61 
Q 1341 213 1159 525 
L 1159 0 
L 581 0 
L 581 4863 
L 1159 4863 
L 1159 2969 
z
" transform="scale(0.015625)"/>
       <path id="DejaVuSans-65" d="M 3597 1894 
L 3597 1613 
L 953 1613 
Q 991 1019 1311 708 
Q 1631 397 2203 397 
Q 2534 397 2845 478 
Q 3156 559 3463 722 
L 3463 178 
Q 3153 47 2828 -22 
Q 2503 -91 2169 -91 
Q 1331 -91 842 396 
Q 353 884 353 1716 
Q 353 2575 817 3079 
Q 1281 3584 2069 3584 
Q 2775 3584 3186 3129 
Q 3597 2675 3597 1894 
z
M 3022 2063 
Q 3016 2534 2758 2815 
Q 2500 3097 2075 3097 
Q 1594 3097 1305 2825 
Q 1016 2553 972 2059 
L 3022 2063 
z
" transform="scale(0.015625)"/>
       <path id="DejaVuSans-73" d="M 2834 3397 
L 2834 2853 
Q 2591 2978 2328 3040 
Q 2066 3103 1784 3103 
Q 1356 3103 1142 2972 
Q 928 2841 928 2578 
Q 928 2378 1081 2264 
Q 1234 2150 1697 2047 
L 1894 2003 
Q 2506 1872 2764 1633 
Q 3022 1394 3022 966 
Q 3022 478 2636 193 
Q 2250 -91 1575 -91 
Q 1294 -91 989 -36 
Q 684 19 347 128 
L 347 722 
Q 666 556 975 473 
Q 1284 391 1588 391 
Q 1994 391 2212 530 
Q 2431 669 2431 922 
Q 2431 1156 2273 1281 
Q 2116 1406 1581 1522 
L 1381 1569 
Q 847 1681 609 1914 
Q 372 2147 372 2553 
Q 372 3047 722 3315 
Q 1072 3584 1716 3584 
Q 2034 3584 2315 3537 
Q 2597 3491 2834 3397 
z
" transform="scale(0.015625)"/>
       <path id="DejaVuSans-2d" d="M 313 2009 
L 1997 2009 
L 1997 1497 
L 313 1497 
L 313 2009 
z
" transform="scale(0.015625)"/>
       <path id="DejaVuSans-66" d="M 2375 4863 
L 2375 4384 
L 1825 4384 
Q 1516 4384 1395 4259 
Q 1275 4134 1275 3809 
L 1275 3500 
L 2222 3500 
L 2222 3053 
L 1275 3053 
L 1275 0 
L 697 0 
L 697 3053 
L 147 3053 
L 147 3500 
L 697 3500 
L 697 3744 
Q 697 4328 969 4595 
Q 1241 4863 1831 4863 
L 2375 4863 
z
" transform="scale(0.015625)"/>
       <path id="DejaVuSans-69" d="M 603 3500 
L 1178 3500 
L 1178 0 
L 603 0 
L 603 3500 
z
M 603 4863 
L 1178 4863 
L 1178 4134 
L 603 4134 
L 603 4863 
z
" transform="scale(0.015625)"/>
       <path id="DejaVuSans-20" transform="scale(0.015625)"/>
       <path id="DejaVuSans-28" d="M 1984 4856 
Q 1566 4138 1362 3434 
Q 1159 2731 1159 2009 
Q 1159 1288 1364 580 
Q 1569 -128 1984 -844 
L 1484 -844 
Q 1016 -109 783 600 
Q 550 1309 550 2009 
Q 550 2706 781 3412 
Q 1013 4119 1484 4856 
L 1984 4856 
z
" transform="scale(0.015625)"/>
       <path id="DejaVuSans-6b" d="M 581 4863 
L 1159 4863 
L 1159 1991 
L 2875 3500 
L 3609 3500 
L 1753 1863 
L 3688 0 
L 2938 0 
L 1159 1709 
L 1159 0 
L 581 0 
L 581 4863 
z
" transform="scale(0.015625)"/>
       <path id="DejaVuSans-6e" d="M 3513 2113 
L 3513 0 
L 2938 0 
L 2938 2094 
Q 2938 2591 2744 2837 
Q 2550 3084 2163 3084 
Q 1697 3084 1428 2787 
Q 1159 2491 1159 1978 
L 1159 0 
L 581 0 
L 581 3500 
L 1159 3500 
L 1159 2956 
Q 1366 3272 1645 3428 
Q 1925 3584 2291 3584 
Q 2894 3584 3203 3211 
Q 3513 2838 3513 2113 
z
" transform="scale(0.015625)"/>
       <path id="DejaVuSans-6f" d="M 1959 3097 
Q 1497 3097 1228 2736 
Q 959 2375 959 1747 
Q 959 1119 1226 758 
Q 1494 397 1959 397 
Q 2419 397 2687 759 
Q 2956 1122 2956 1747 
Q 2956 2369 2687 2733 
Q 2419 3097 1959 3097 
z
M 1959 3584 
Q 2709 3584 3137 3096 
Q 3566 2609 3566 1747 
Q 3566 888 3137 398 
Q 2709 -91 1959 -91 
Q 1206 -91 779 398 
Q 353 888 353 1747 
Q 353 2609 779 3096 
Q 1206 3584 1959 3584 
z
" transform="scale(0.015625)"/>
       <path id="DejaVuSans-29" d="M 513 4856 
L 1013 4856 
Q 1481 4119 1714 3412 
Q 1947 2706 1947 2009 
Q 1947 1309 1714 600 
Q 1481 -109 1013 -844 
L 513 -844 
Q 928 -128 1133 580 
Q 1338 1288 1338 2009 
Q 1338 2731 1133 3434 
Q 928 4138 513 4856 
z
" transform="scale(0.015625)"/>
      </defs>
      <use xlink:href="#DejaVuSans-62"/>
      <use xlink:href="#DejaVuSans-65" x="63.476562"/>
      <use xlink:href="#DejaVuSans-73" x="125"/>
      <use xlink:href="#DejaVuSans-74" x="177.099609"/>
      <use xlink:href="#DejaVuSans-2d" x="216.308594"/>
      <use xlink:href="#DejaVuSans-66" x="252.392578"/>
      <use xlink:href="#DejaVuSans-69" x="287.597656"/>
      <use xlink:href="#DejaVuSans-74" x="315.380859"/>
      <use xlink:href="#DejaVuSans-20" x="354.589844"/>
      <use xlink:href="#DejaVuSans-28" x="386.376953"/>
      <use xlink:href="#DejaVuSans-31" x="425.390625"/>
      <use xlink:href="#DejaVuSans-30" x="489.013672"/>
      <use xlink:href="#DejaVuSans-20" x="552.636719"/>
      <use xlink:href="#DejaVuSans-6b" x="584.423828"/>
      <use xlink:href="#DejaVuSans-6e" x="642.333984"/>
      <use xlink:href="#DejaVuSans-6f" x="705.712891"/>
      <use xlink:href="#DejaVuSans-74" x="766.894531"/>
      <use xlink:href="#DejaVuSans-73" x="806.103516"/>
      <use xlink:href="#DejaVuSans-29" x="858.203125"/>
     </g>
    </g>
    <g id="line2d_23">
     <path d="M 35.925 49.654687 
L 45.925 49.654687 
L 55.925 49.654687 
" style="fill: none; stroke: #2ca02c; stroke-width: 1.5; stroke-linecap: square"/>
    </g>
    <g id="text_18">
     <!-- best-fit (15 knots) -->
     <g transform="translate(63.925 53.154687) scale(0.1 -0.1)">
      <use xlink:href="#DejaVuSans-62"/>
      <use xlink:href="#DejaVuSans-65" x="63.476562"/>
      <use xlink:href="#DejaVuSans-73" x="125"/>
      <use xlink:href="#DejaVuSans-74" x="177.099609"/>
      <use xlink:href="#DejaVuSans-2d" x="216.308594"/>
      <use xlink:href="#DejaVuSans-66" x="252.392578"/>
      <use xlink:href="#DejaVuSans-69" x="287.597656"/>
      <use xlink:href="#DejaVuSans-74" x="315.380859"/>
      <use xlink:href="#DejaVuSans-20" x="354.589844"/>
      <use xlink:href="#DejaVuSans-28" x="386.376953"/>
      <use xlink:href="#DejaVuSans-31" x="425.390625"/>
      <use xlink:href="#DejaVuSans-35" x="489.013672"/>
      <use xlink:href="#DejaVuSans-20" x="552.636719"/>
      <use xlink:href="#DejaVuSans-6b" x="584.423828"/>
      <use xlink:href="#DejaVuSans-6e" x="642.333984"/>
      <use xlink:href="#DejaVuSans-6f" x="705.712891"/>
      <use xlink:href="#DejaVuSans-74" x="766.894531"/>
      <use xlink:href="#DejaVuSans-73" x="806.103516"/>
      <use xlink:href="#DejaVuSans-29" x="858.203125"/>
     </g>
    </g>
    <g id="line2d_24">
     <path d="M 35.925 64.332812 
L 45.925 64.332812 
L 55.925 64.332812 
" style="fill: none; stroke: #d62728; stroke-width: 1.5; stroke-linecap: square"/>
    </g>
    <g id="text_19">
     <!-- best-fit (20 knots) -->
     <g transform="translate(63.925 67.832812) scale(0.1 -0.1)">
      <use xlink:href="#DejaVuSans-62"/>
      <use xlink:href="#DejaVuSans-65" x="63.476562"/>
      <use xlink:href="#DejaVuSans-73" x="125"/>
      <use xlink:href="#DejaVuSans-74" x="177.099609"/>
      <use xlink:href="#DejaVuSans-2d" x="216.308594"/>
      <use xlink:href="#DejaVuSans-66" x="252.392578"/>
      <use xlink:href="#DejaVuSans-69" x="287.597656"/>
      <use xlink:href="#DejaVuSans-74" x="315.380859"/>
      <use xlink:href="#DejaVuSans-20" x="354.589844"/>
      <use xlink:href="#DejaVuSans-28" x="386.376953"/>
      <use xlink:href="#DejaVuSans-32" x="425.390625"/>
      <use xlink:href="#DejaVuSans-30" x="489.013672"/>
      <use xlink:href="#DejaVuSans-20" x="552.636719"/>
      <use xlink:href="#DejaVuSans-6b" x="584.423828"/>
      <use xlink:href="#DejaVuSans-6e" x="642.333984"/>
      <use xlink:href="#DejaVuSans-6f" x="705.712891"/>
      <use xlink:href="#DejaVuSans-74" x="766.894531"/>
      <use xlink:href="#DejaVuSans-73" x="806.103516"/>
      <use xlink:href="#DejaVuSans-29" x="858.203125"/>
     </g>
    </g>
    <g id="line2d_25">
     <path d="M 35.925 79.010937 
L 45.925 79.010937 
L 55.925 79.010937 
" style="fill: none; stroke: #9467bd; stroke-width: 1.5; stroke-linecap: square"/>
    </g>
    <g id="text_20">
     <!-- best-fit (25 knots) -->
     <g transform="translate(63.925 82.510937) scale(0.1 -0.1)">
      <use xlink:href="#DejaVuSans-62"/>
      <use xlink:href="#DejaVuSans-65" x="63.476562"/>
      <use xlink:href="#DejaVuSans-73" x="125"/>
      <use xlink:href="#DejaVuSans-74" x="177.099609"/>
      <use xlink:href="#DejaVuSans-2d" x="216.308594"/>
      <use xlink:href="#DejaVuSans-66" x="252.392578"/>
      <use xlink:href="#DejaVuSans-69" x="287.597656"/>
      <use xlink:href="#DejaVuSans-74" x="315.380859"/>
      <use xlink:href="#DejaVuSans-20" x="354.589844"/>
      <use xlink:href="#DejaVuSans-28" x="386.376953"/>
      <use xlink:href="#DejaVuSans-32" x="425.390625"/>
      <use xlink:href="#DejaVuSans-35" x="489.013672"/>
      <use xlink:href="#DejaVuSans-20" x="552.636719"/>
      <use xlink:href="#DejaVuSans-6b" x="584.423828"/>
      <use xlink:href="#DejaVuSans-6e" x="642.333984"/>
      <use xlink:href="#DejaVuSans-6f" x="705.712891"/>
      <use xlink:href="#DejaVuSans-74" x="766.894531"/>
      <use xlink:href="#DejaVuSans-73" x="806.103516"/>
      <use xlink:href="#DejaVuSans-29" x="858.203125"/>
     </g>
    </g>
   </g>
  </g>
 </g>
 <defs>
  <clipPath id="p18bf2f65d1">
   <rect x="26.925" y="7.2" width="357.12" height="266.112"/>
  </clipPath>
 </defs>
</svg>
