<?xml version="1.0" encoding="utf-8" standalone="no"?>
<!DOCTYPE svg PUBLIC "-//W3C//DTD SVG 1.1//EN"
  "http://www.w3.org/Graphics/SVG/1.1/DTD/svg11.dtd">
<svg xmlns:xlink="http://www.w3.org/1999/xlink" width="754.7275pt" height="294.88991pt" viewBox="0 0 754.7275 294.88991" xmlns="http://www.w3.org/2000/svg" version="1.1">
 <metadata>
  <rdf:RDF xmlns:dc="http://purl.org/dc/elements/1.1/" xmlns:cc="http://creativecommons.org/ns#" xmlns:rdf="http://www.w3.org/1999/02/22-rdf-syntax-ns#">
   <cc:Work>
    <dc:type rdf:resource="http://purl.org/dc/dcmitype/StillImage"/>
    <dc:date>2022-10-26T21:52:47.105173</dc:date>
    <dc:format>image/svg+xml</dc:format>
    <dc:creator>
     <cc:Agent>
      <dc:title>Matplotlib v3.5.3, https://matplotlib.org/</dc:title>
     </cc:Agent>
    </dc:creator>
   </cc:Work>
  </rdf:RDF>
 </metadata>
 <defs>
  <style type="text/css">*{stroke-linejoin: round; stroke-linecap: butt}</style>
 </defs>
 <g id="figure_1">
  <g id="patch_1">
   <path d="M 0 294.88991 
L 754.7275 294.88991 
L 754.7275 0 
L 0 0 
L 0 294.88991 
z
" style="fill: none"/>
  </g>
  <g id="axes_1">
   <g id="patch_2">
    <path d="M 33.2875 271.011785 
L 357.942045 271.011785 
L 357.942045 10.083785 
L 33.2875 10.083785 
z
" style="fill: #ffffff"/>
   </g>
   <g id="matplotlib.axis_1">
    <g id="xtick_1">
     <g id="line2d_1">
      <defs>
       <path id="m12709ffe55" d="M 0 0 
L 0 3.5 
" style="stroke: #000000; stroke-width: 0.8"/>
      </defs>
      <g>
       <use xlink:href="#m12709ffe55" x="46.859222" y="271.011785" style="stroke: #000000; stroke-width: 0.8"/>
      </g>
     </g>
     <g id="text_1">
      <!-- 0 -->
      <g transform="translate(43.677972 285.610223)scale(0.1 -0.1)">
       <defs>
        <path id="DejaVuSans-30" d="M 2034 4250 
Q 1547 4250 1301 3770 
Q 1056 3291 1056 2328 
Q 1056 1369 1301 889 
Q 1547 409 2034 409 
Q 2525 409 2770 889 
Q 3016 1369 3016 2328 
Q 3016 3291 2770 3770 
Q 2525 4250 2034 4250 
z
M 2034 4750 
Q 2819 4750 3233 4129 
Q 3647 3509 3647 2328 
Q 3647 1150 3233 529 
Q 2819 -91 2034 -91 
Q 1250 -91 836 529 
Q 422 1150 422 2328 
Q 422 3509 836 4129 
Q 1250 4750 2034 4750 
z
" transform="scale(0.015625)"/>
       </defs>
       <use xlink:href="#DejaVuSans-30"/>
      </g>
     </g>
    </g>
    <g id="xtick_2">
     <g id="line2d_2">
      <g>
       <use xlink:href="#m12709ffe55" x="106.124381" y="271.011785" style="stroke: #000000; stroke-width: 0.8"/>
      </g>
     </g>
     <g id="text_2">
      <!-- 50 -->
      <g transform="translate(99.761881 285.610223)scale(0.1 -0.1)">
       <defs>
        <path id="DejaVuSans-35" d="M 691 4666 
L 3169 4666 
L 3169 4134 
L 1269 4134 
L 1269 2991 
Q 1406 3038 1543 3061 
Q 1681 3084 1819 3084 
Q 2600 3084 3056 2656 
Q 3513 2228 3513 1497 
Q 3513 744 3044 326 
Q 2575 -91 1722 -91 
Q 1428 -91 1123 -41 
Q 819 9 494 109 
L 494 744 
Q 775 591 1075 516 
Q 1375 441 1709 441 
Q 2250 441 2565 725 
Q 2881 1009 2881 1497 
Q 2881 1984 2565 2268 
Q 2250 2553 1709 2553 
Q 1456 2553 1204 2497 
Q 953 2441 691 2322 
L 691 4666 
z
" transform="scale(0.015625)"/>
       </defs>
       <use xlink:href="#DejaVuSans-35"/>
       <use xlink:href="#DejaVuSans-30" x="63.623047"/>
      </g>
     </g>
    </g>
    <g id="xtick_3">
     <g id="line2d_3">
      <g>
       <use xlink:href="#m12709ffe55" x="165.389541" y="271.011785" style="stroke: #000000; stroke-width: 0.8"/>
      </g>
     </g>
     <g id="text_3">
      <!-- 100 -->
      <g transform="translate(155.845791 285.610223)scale(0.1 -0.1)">
       <defs>
        <path id="DejaVuSans-31" d="M 794 531 
L 1825 531 
L 1825 4091 
L 703 3866 
L 703 4441 
L 1819 4666 
L 2450 4666 
L 2450 531 
L 3481 531 
L 3481 0 
L 794 0 
L 794 531 
z
" transform="scale(0.015625)"/>
       </defs>
       <use xlink:href="#DejaVuSans-31"/>
       <use xlink:href="#DejaVuSans-30" x="63.623047"/>
       <use xlink:href="#DejaVuSans-30" x="127.246094"/>
      </g>
     </g>
    </g>
    <g id="xtick_4">
     <g id="line2d_4">
      <g>
       <use xlink:href="#m12709ffe55" x="224.654701" y="271.011785" style="stroke: #000000; stroke-width: 0.8"/>
      </g>
     </g>
     <g id="text_4">
      <!-- 150 -->
      <g transform="translate(215.110951 285.610223)scale(0.1 -0.1)">
       <use xlink:href="#DejaVuSans-31"/>
       <use xlink:href="#DejaVuSans-35" x="63.623047"/>
       <use xlink:href="#DejaVuSans-30" x="127.246094"/>
      </g>
     </g>
    </g>
    <g id="xtick_5">
     <g id="line2d_5">
      <g>
       <use xlink:href="#m12709ffe55" x="283.919861" y="271.011785" style="stroke: #000000; stroke-width: 0.8"/>
      </g>
     </g>
     <g id="text_5">
      <!-- 200 -->
      <g transform="translate(274.376111 285.610223)scale(0.1 -0.1)">
       <defs>
        <path id="DejaVuSans-32" d="M 1228 531 
L 3431 531 
L 3431 0 
L 469 0 
L 469 531 
Q 828 903 1448 1529 
Q 2069 2156 2228 2338 
Q 2531 2678 2651 2914 
Q 2772 3150 2772 3378 
Q 2772 3750 2511 3984 
Q 2250 4219 1831 4219 
Q 1534 4219 1204 4116 
Q 875 4013 500 3803 
L 500 4441 
Q 881 4594 1212 4672 
Q 1544 4750 1819 4750 
Q 2544 4750 2975 4387 
Q 3406 4025 3406 3419 
Q 3406 3131 3298 2873 
Q 3191 2616 2906 2266 
Q 2828 2175 2409 1742 
Q 1991 1309 1228 531 
z
" transform="scale(0.015625)"/>
       </defs>
       <use xlink:href="#DejaVuSans-32"/>
       <use xlink:href="#DejaVuSans-30" x="63.623047"/>
       <use xlink:href="#DejaVuSans-30" x="127.246094"/>
      </g>
     </g>
    </g>
    <g id="xtick_6">
     <g id="line2d_6">
      <g>
       <use xlink:href="#m12709ffe55" x="343.185021" y="271.011785" style="stroke: #000000; stroke-width: 0.8"/>
      </g>
     </g>
     <g id="text_6">
      <!-- 250 -->
      <g transform="translate(333.641271 285.610223)scale(0.1 -0.1)">
       <use xlink:href="#DejaVuSans-32"/>
       <use xlink:href="#DejaVuSans-35" x="63.623047"/>
       <use xlink:href="#DejaVuSans-30" x="127.246094"/>
      </g>
     </g>
    </g>
   </g>
   <g id="matplotlib.axis_2">
    <g id="ytick_1">
     <g id="line2d_7">
      <defs>
       <path id="mfaffb36012" d="M 0 0 
L -3.5 0 
" style="stroke: #000000; stroke-width: 0.8"/>
      </defs>
      <g>
       <use xlink:href="#mfaffb36012" x="33.2875" y="260.912531" style="stroke: #000000; stroke-width: 0.8"/>
      </g>
     </g>
     <g id="text_7">
      <!-- 0 -->
      <g transform="translate(19.925 264.711749)scale(0.1 -0.1)">
       <use xlink:href="#DejaVuSans-30"/>
      </g>
     </g>
    </g>
    <g id="ytick_2">
     <g id="line2d_8">
      <g>
       <use xlink:href="#mfaffb36012" x="33.2875" y="231.130816" style="stroke: #000000; stroke-width: 0.8"/>
      </g>
     </g>
     <g id="text_8">
      <!-- 20 -->
      <g transform="translate(13.5625 234.930035)scale(0.1 -0.1)">
       <use xlink:href="#DejaVuSans-32"/>
       <use xlink:href="#DejaVuSans-30" x="63.623047"/>
      </g>
     </g>
    </g>
    <g id="ytick_3">
     <g id="line2d_9">
      <g>
       <use xlink:href="#mfaffb36012" x="33.2875" y="201.349102" style="stroke: #000000; stroke-width: 0.8"/>
      </g>
     </g>
     <g id="text_9">
      <!-- 40 -->
      <g transform="translate(13.5625 205.148321)scale(0.1 -0.1)">
       <defs>
        <path id="DejaVuSans-34" d="M 2419 4116 
L 825 1625 
L 2419 1625 
L 2419 4116 
z
M 2253 4666 
L 3047 4666 
L 3047 1625 
L 3713 1625 
L 3713 1100 
L 3047 1100 
L 3047 0 
L 2419 0 
L 2419 1100 
L 313 1100 
L 313 1709 
L 2253 4666 
z
" transform="scale(0.015625)"/>
       </defs>
       <use xlink:href="#DejaVuSans-34"/>
       <use xlink:href="#DejaVuSans-30" x="63.623047"/>
      </g>
     </g>
    </g>
    <g id="ytick_4">
     <g id="line2d_10">
      <g>
       <use xlink:href="#mfaffb36012" x="33.2875" y="171.567388" style="stroke: #000000; stroke-width: 0.8"/>
      </g>
     </g>
     <g id="text_10">
      <!-- 60 -->
      <g transform="translate(13.5625 175.366606)scale(0.1 -0.1)">
       <defs>
        <path id="DejaVuSans-36" d="M 2113 2584 
Q 1688 2584 1439 2293 
Q 1191 2003 1191 1497 
Q 1191 994 1439 701 
Q 1688 409 2113 409 
Q 2538 409 2786 701 
Q 3034 994 3034 1497 
Q 3034 2003 2786 2293 
Q 2538 2584 2113 2584 
z
M 3366 4563 
L 3366 3988 
Q 3128 4100 2886 4159 
Q 2644 4219 2406 4219 
Q 1781 4219 1451 3797 
Q 1122 3375 1075 2522 
Q 1259 2794 1537 2939 
Q 1816 3084 2150 3084 
Q 2853 3084 3261 2657 
Q 3669 2231 3669 1497 
Q 3669 778 3244 343 
Q 2819 -91 2113 -91 
Q 1303 -91 875 529 
Q 447 1150 447 2328 
Q 447 3434 972 4092 
Q 1497 4750 2381 4750 
Q 2619 4750 2861 4703 
Q 3103 4656 3366 4563 
z
" transform="scale(0.015625)"/>
       </defs>
       <use xlink:href="#DejaVuSans-36"/>
       <use xlink:href="#DejaVuSans-30" x="63.623047"/>
      </g>
     </g>
    </g>
    <g id="ytick_5">
     <g id="line2d_11">
      <g>
       <use xlink:href="#mfaffb36012" x="33.2875" y="141.785673" style="stroke: #000000; stroke-width: 0.8"/>
      </g>
     </g>
     <g id="text_11">
      <!-- 80 -->
      <g transform="translate(13.5625 145.584892)scale(0.1 -0.1)">
       <defs>
        <path id="DejaVuSans-38" d="M 2034 2216 
Q 1584 2216 1326 1975 
Q 1069 1734 1069 1313 
Q 1069 891 1326 650 
Q 1584 409 2034 409 
Q 2484 409 2743 651 
Q 3003 894 3003 1313 
Q 3003 1734 2745 1975 
Q 2488 2216 2034 2216 
z
M 1403 2484 
Q 997 2584 770 2862 
Q 544 3141 544 3541 
Q 544 4100 942 4425 
Q 1341 4750 2034 4750 
Q 2731 4750 3128 4425 
Q 3525 4100 3525 3541 
Q 3525 3141 3298 2862 
Q 3072 2584 2669 2484 
Q 3125 2378 3379 2068 
Q 3634 1759 3634 1313 
Q 3634 634 3220 271 
Q 2806 -91 2034 -91 
Q 1263 -91 848 271 
Q 434 634 434 1313 
Q 434 1759 690 2068 
Q 947 2378 1403 2484 
z
M 1172 3481 
Q 1172 3119 1398 2916 
Q 1625 2713 2034 2713 
Q 2441 2713 2670 2916 
Q 2900 3119 2900 3481 
Q 2900 3844 2670 4047 
Q 2441 4250 2034 4250 
Q 1625 4250 1398 4047 
Q 1172 3844 1172 3481 
z
" transform="scale(0.015625)"/>
       </defs>
       <use xlink:href="#DejaVuSans-38"/>
       <use xlink:href="#DejaVuSans-30" x="63.623047"/>
      </g>
     </g>
    </g>
    <g id="ytick_6">
     <g id="line2d_12">
      <g>
       <use xlink:href="#mfaffb36012" x="33.2875" y="112.003959" style="stroke: #000000; stroke-width: 0.8"/>
      </g>
     </g>
     <g id="text_12">
      <!-- 100 -->
      <g transform="translate(7.2 115.803178)scale(0.1 -0.1)">
       <use xlink:href="#DejaVuSans-31"/>
       <use xlink:href="#DejaVuSans-30" x="63.623047"/>
       <use xlink:href="#DejaVuSans-30" x="127.246094"/>
      </g>
     </g>
    </g>
    <g id="ytick_7">
     <g id="line2d_13">
      <g>
       <use xlink:href="#mfaffb36012" x="33.2875" y="82.222245" style="stroke: #000000; stroke-width: 0.8"/>
      </g>
     </g>
     <g id="text_13">
      <!-- 120 -->
      <g transform="translate(7.2 86.021464)scale(0.1 -0.1)">
       <use xlink:href="#DejaVuSans-31"/>
       <use xlink:href="#DejaVuSans-32" x="63.623047"/>
       <use xlink:href="#DejaVuSans-30" x="127.246094"/>
      </g>
     </g>
    </g>
    <g id="ytick_8">
     <g id="line2d_14">
      <g>
       <use xlink:href="#mfaffb36012" x="33.2875" y="52.44053" style="stroke: #000000; stroke-width: 0.8"/>
      </g>
     </g>
     <g id="text_14">
      <!-- 140 -->
      <g transform="translate(7.2 56.239749)scale(0.1 -0.1)">
       <use xlink:href="#DejaVuSans-31"/>
       <use xlink:href="#DejaVuSans-34" x="63.623047"/>
       <use xlink:href="#DejaVuSans-30" x="127.246094"/>
      </g>
     </g>
    </g>
    <g id="ytick_9">
     <g id="line2d_15">
      <g>
       <use xlink:href="#mfaffb36012" x="33.2875" y="22.658816" style="stroke: #000000; stroke-width: 0.8"/>
      </g>
     </g>
     <g id="text_15">
      <!-- 160 -->
      <g transform="translate(7.2 26.458035)scale(0.1 -0.1)">
       <use xlink:href="#DejaVuSans-31"/>
       <use xlink:href="#DejaVuSans-36" x="63.623047"/>
       <use xlink:href="#DejaVuSans-30" x="127.246094"/>
      </g>
     </g>
    </g>
   </g>
   <g id="line2d_16">
    <path d="M 48.044525 115.595991 
L 49.229828 115.334389 
L 50.415131 117.115916 
L 51.600434 123.141769 
L 52.785738 125.180923 
L 53.971041 119.125839 
L 55.156344 126.576822 
L 56.341647 127.948568 
L 57.52695 124.639164 
L 58.712254 127.476066 
L 59.897557 132.014486 
L 61.08286 133.516542 
L 62.268163 131.167688 
L 63.453466 133.32856 
L 64.63877 141.713438 
L 65.824073 138.525692 
L 67.009376 131.003487 
L 68.194679 140.603235 
L 69.379982 139.871156 
L 70.565286 139.448702 
L 71.750589 142.936513 
L 72.935892 142.630357 
L 74.121195 144.90985 
L 75.306498 146.618233 
L 76.491802 145.994172 
L 77.677105 150.312952 
L 78.862408 152.032072 
L 80.047711 150.946142 
L 81.233014 152.985534 
L 82.418317 153.813138 
L 83.603621 161.260294 
L 84.788924 159.746504 
L 85.974227 157.328646 
L 87.15953 158.060397 
L 89.530137 165.791477 
L 90.71544 157.100369 
L 91.900743 166.197923 
L 93.086046 166.546876 
L 94.271349 171.540063 
L 95.456653 167.584366 
L 96.641956 162.920773 
L 97.827259 172.843475 
L 99.012562 176.586336 
L 100.197865 169.753905 
L 101.383169 179.924286 
L 102.568472 167.19777 
L 103.753775 176.553681 
L 104.939078 175.835673 
L 106.124381 174.103464 
L 107.309685 173.179412 
L 108.494988 173.798455 
L 109.680291 178.672039 
L 110.865594 174.093249 
L 112.050897 175.390809 
L 113.236201 183.935629 
L 114.421504 186.560515 
L 115.606807 180.937311 
L 116.79211 178.421471 
L 117.977413 182.144229 
L 119.162717 183.008793 
L 120.34802 180.520962 
L 121.533323 181.184529 
L 122.718626 176.852957 
L 123.903929 184.488542 
L 125.089233 181.817122 
L 126.274536 181.564648 
L 127.459839 186.747798 
L 128.645142 179.466034 
L 129.830445 176.903869 
L 131.015749 179.617951 
L 132.201052 179.928306 
L 133.386355 171.338753 
L 134.571658 171.883476 
L 135.756961 170.822919 
L 136.942265 163.468474 
L 138.127568 170.525013 
L 139.312871 166.029999 
L 140.498174 159.995122 
L 141.683477 164.554777 
L 142.86878 155.51217 
L 144.054084 156.100984 
L 145.239387 145.919986 
L 146.42469 142.490532 
L 147.609993 141.590946 
L 148.795296 133.330302 
L 149.9806 134.032793 
L 151.165903 126.529275 
L 152.351206 121.505026 
L 153.536509 118.161194 
L 154.721812 121.727808 
L 155.907116 103.346861 
L 157.092419 100.349034 
L 158.277722 91.066372 
L 159.463025 88.920301 
L 160.648328 84.439493 
L 161.833632 82.791522 
L 163.018935 78.955191 
L 164.204238 71.813089 
L 165.389541 73.733712 
L 166.574844 76.646065 
L 167.760148 66.357079 
L 168.945451 67.753097 
L 170.130754 64.615295 
L 172.50136 64.35411 
L 173.686664 64.171399 
L 174.871967 62.206848 
L 176.05727 61.635337 
L 177.242573 61.867188 
L 178.427876 69.885021 
L 180.798483 75.141642 
L 181.983786 84.602399 
L 183.169089 79.194338 
L 184.354392 89.361071 
L 185.539696 84.03059 
L 186.724999 96.013114 
L 187.910302 96.814838 
L 189.095605 104.301068 
L 190.280908 106.870783 
L 191.466212 120.130198 
L 192.651515 120.335006 
L 193.836818 120.07534 
L 195.022121 128.732274 
L 196.207424 130.934006 
L 197.392728 123.165505 
L 198.578031 132.43426 
L 199.763334 138.147733 
L 202.13394 144.21872 
L 203.319244 143.65735 
L 204.504547 147.551622 
L 205.68985 143.07957 
L 206.875153 146.609388 
L 208.060456 145.348028 
L 209.245759 145.111799 
L 210.431063 139.876368 
L 211.616366 142.168264 
L 212.801669 138.83782 
L 213.986972 141.741716 
L 215.172275 132.922159 
L 216.357579 132.898244 
L 217.542882 141.86327 
L 218.728185 131.108586 
L 219.913488 126.135502 
L 221.098791 122.079515 
L 222.284095 128.163473 
L 223.469398 122.256433 
L 224.654701 126.383509 
L 225.840004 121.393821 
L 227.025307 118.343652 
L 228.210611 124.138444 
L 229.395914 116.850888 
L 230.581217 130.453791 
L 231.76652 126.194767 
L 234.137127 133.287863 
L 235.32243 134.319978 
L 236.507733 143.974034 
L 237.693036 139.788095 
L 238.878339 148.943783 
L 240.063643 152.71385 
L 241.248946 156.892388 
L 242.434249 162.19395 
L 243.619552 166.228986 
L 244.804855 174.041548 
L 245.990159 175.278696 
L 247.175462 182.281389 
L 248.360765 185.277117 
L 249.546068 190.873533 
L 250.731371 191.713377 
L 251.916675 196.747589 
L 253.101978 210.11191 
L 254.287281 202.417744 
L 255.472584 212.243462 
L 256.657887 215.583928 
L 257.843191 213.277691 
L 259.028494 225.720521 
L 260.213797 225.626515 
L 261.3991 230.731563 
L 262.584403 232.514564 
L 264.95501 236.956343 
L 266.140313 232.705271 
L 267.325616 233.195374 
L 268.510919 235.213889 
L 269.696222 236.159682 
L 270.881526 240.83419 
L 272.066829 238.015649 
L 273.252132 240.851449 
L 274.437435 237.143923 
L 275.622738 242.558849 
L 276.808042 236.582657 
L 277.993345 245.368962 
L 279.178648 246.574549 
L 280.363951 241.371735 
L 281.549254 247.84965 
L 282.734558 243.398753 
L 283.919861 242.224207 
L 285.105164 244.039581 
L 286.290467 244.227429 
L 287.47577 249.272473 
L 288.661074 250.785743 
L 289.846377 239.669517 
L 291.03168 245.034633 
L 292.216983 247.642433 
L 293.402286 243.687785 
L 295.772893 243.65297 
L 296.958196 246.423527 
L 298.143499 243.873861 
L 299.328802 244.191408 
L 300.514106 245.765357 
L 301.699409 242.285483 
L 302.884712 251.677976 
L 304.070015 247.481566 
L 305.255318 244.821366 
L 306.440622 241.411092 
L 307.625925 255.083846 
L 308.811228 246.665128 
L 309.996531 248.942592 
L 311.181834 245.677635 
L 312.367138 246.963654 
L 314.737744 251.801448 
L 315.923047 247.818692 
L 317.10835 249.302588 
L 318.293654 242.372445 
L 319.478957 245.104382 
L 320.66426 251.976523 
L 321.849563 250.83872 
L 323.034866 247.861211 
L 324.22017 254.082961 
L 325.405473 248.417935 
L 326.590776 250.177411 
L 327.776079 246.00367 
L 328.961382 250.001313 
L 330.146686 251.196044 
L 331.331989 256.68343 
L 332.517292 245.539641 
L 333.702595 253.779758 
L 334.887898 248.439307 
L 336.073201 251.584927 
L 337.258505 256.883225 
L 338.443808 248.460633 
L 339.629111 247.535319 
L 340.814414 255.905526 
L 341.999717 259.151422 
L 343.185021 253.652773 
L 343.185021 253.652773 
" clip-path="url(#pc9434ee92d)" style="fill: none; stroke: #1f77b4; stroke-width: 1.5; stroke-linecap: square"/>
   </g>
   <g id="line2d_17">
    <path d="M 48.044525 21.944149 
L 52.785738 31.978161 
L 57.52695 41.590855 
L 62.268163 50.799924 
L 68.194679 61.769408 
L 74.121195 72.166182 
L 80.047711 82.020061 
L 85.974227 91.358974 
L 91.900743 100.208029 
L 97.827259 108.586077 
L 102.568472 114.952001 
L 107.309685 121.002236 
L 112.050897 126.687088 
L 115.606807 130.648561 
L 119.162717 134.266453 
L 121.533323 136.431853 
L 123.903929 138.348889 
L 126.274536 139.96412 
L 128.645142 141.216485 
L 131.015749 142.039385 
L 132.201052 142.26829 
L 133.386355 142.364182 
L 134.571658 142.318985 
L 135.756961 142.1252 
L 136.942265 141.77614 
L 138.127568 141.266177 
L 139.312871 140.590997 
L 140.498174 139.747863 
L 141.683477 138.735875 
L 142.86878 137.556215 
L 145.239387 134.710372 
L 147.609993 131.269422 
L 149.9806 127.336847 
L 153.536509 120.853826 
L 158.277722 112.212655 
L 160.648328 108.44169 
L 161.833632 106.804504 
L 163.018935 105.373058 
L 164.204238 104.175182 
L 165.389541 103.236127 
L 166.574844 102.577995 
L 167.760148 102.219239 
L 168.945451 102.1742 
L 170.130754 102.452747 
L 171.316057 103.059984 
L 172.50136 103.996065 
L 173.686664 105.256105 
L 174.871967 106.830195 
L 176.05727 108.70352 
L 177.242573 110.856578 
L 179.61318 115.902388 
L 181.983786 121.731682 
L 185.539696 131.316717 
L 189.095605 140.966036 
L 191.466212 146.913272 
L 193.836818 152.142753 
L 195.022121 154.41347 
L 196.207424 156.421752 
L 197.392728 158.147647 
L 198.578031 159.575392 
L 199.763334 160.693616 
L 200.948637 161.495469 
L 202.13394 161.978709 
L 203.319244 162.145727 
L 204.504547 162.003519 
L 205.68985 161.563605 
L 206.875153 160.841894 
L 208.060456 159.858489 
L 209.245759 158.63744 
L 210.431063 157.20644 
L 212.801669 153.841372 
L 216.357579 148.076782 
L 219.913488 142.393825 
L 222.284095 139.177548 
L 223.469398 137.851096 
L 224.654701 136.755462 
L 225.840004 135.918659 
L 227.025307 135.364718 
L 228.210611 135.113294 
L 229.395914 135.179353 
L 230.581217 135.572958 
L 231.76652 136.299146 
L 232.951823 137.357917 
L 234.137127 138.744319 
L 235.32243 140.448641 
L 236.507733 142.456691 
L 237.693036 144.750178 
L 240.063643 150.102514 
L 242.434249 156.295747 
L 245.990159 166.630133 
L 253.101978 188.021036 
L 255.472584 194.598913 
L 257.843191 200.656027 
L 260.213797 206.112798 
L 262.584403 210.932187 
L 264.95501 215.113958 
L 267.325616 218.687167 
L 269.696222 221.701969 
L 272.066829 224.221629 
L 274.437435 226.315453 
L 276.808042 228.053033 
L 279.178648 229.500007 
L 281.549254 230.715288 
L 285.105164 232.21239 
L 288.661074 233.435531 
L 293.402286 234.8007 
L 299.328802 236.2651 
L 307.625925 238.082608 
L 318.293654 240.188666 
L 330.146686 242.296426 
L 341.999717 244.189503 
L 343.185021 244.367882 
L 343.185021 244.367882 
" clip-path="url(#pc9434ee92d)" style="fill: none; stroke-dasharray: 5.55,2.4; stroke-dashoffset: 0; stroke: #ff7f0e; stroke-width: 1.5"/>
   </g>
   <g id="line2d_18">
    <path d="M 48.044525 115.078042 
L 53.971041 122.878863 
L 59.897557 130.262404 
L 65.824073 137.250959 
L 71.750589 143.865529 
L 77.677105 150.125592 
L 83.603621 156.048129 
L 89.530137 161.644437 
L 95.456653 166.911248 
L 100.197865 170.863135 
L 104.939078 174.525823 
L 108.494988 177.018784 
L 112.050897 179.208582 
L 114.421504 180.443627 
L 116.79211 181.446035 
L 119.162717 182.158965 
L 121.533323 182.51474 
L 122.718626 182.534639 
L 123.903929 182.435155 
L 125.089233 182.205081 
L 126.274536 181.832783 
L 127.459839 181.306313 
L 128.645142 180.613544 
L 129.830445 179.742333 
L 131.015749 178.680707 
L 132.201052 177.417073 
L 133.386355 175.94045 
L 134.571658 174.240723 
L 135.756961 172.308913 
L 136.942265 170.137459 
L 139.312871 165.054235 
L 141.683477 158.970101 
L 144.054084 151.905273 
L 146.42469 143.929043 
L 148.795296 135.165519 
L 152.351206 120.956569 
L 158.277722 96.668233 
L 160.648328 87.693191 
L 163.018935 79.671453 
L 164.204238 76.125587 
L 165.389541 72.943092 
L 166.574844 70.160302 
L 167.760148 67.809791 
L 168.945451 65.919759 
L 170.130754 64.513468 
L 171.316057 63.608745 
L 172.50136 63.217572 
L 173.686664 63.345753 
L 174.871967 63.992685 
L 176.05727 65.151228 
L 177.242573 66.807682 
L 178.427876 68.941862 
L 179.61318 71.527287 
L 180.798483 74.531469 
L 181.983786 77.916293 
L 184.354392 85.650251 
L 186.724999 94.332 
L 193.836818 121.476172 
L 196.207424 129.342042 
L 197.392728 132.817523 
L 198.578031 135.932056 
L 199.763334 138.651093 
L 200.948637 140.946874 
L 202.13394 142.799023 
L 203.319244 144.195042 
L 204.504547 145.130691 
L 205.68985 145.610226 
L 206.875153 145.646501 
L 208.060456 145.260902 
L 209.245759 144.483111 
L 210.431063 143.350705 
L 211.616366 141.90857 
L 212.801669 140.208145 
L 215.172275 136.265253 
L 219.913488 128.026015 
L 221.098791 126.281116 
L 222.284095 124.788826 
L 223.469398 123.60521 
L 224.654701 122.780152 
L 225.840004 122.356293 
L 227.025307 122.368134 
L 228.210611 122.841366 
L 229.395914 123.792414 
L 230.581217 125.22823 
L 231.76652 127.14633 
L 232.951823 129.535071 
L 234.137127 132.374161 
L 235.32243 135.635376 
L 237.693036 143.277153 
L 240.063643 152.113554 
L 243.619552 166.718543 
L 248.360765 186.558612 
L 250.731371 195.837424 
L 253.101978 204.343256 
L 255.472584 211.920304 
L 257.843191 218.493238 
L 260.213797 224.056903 
L 262.584403 228.66161 
L 264.95501 232.396654 
L 267.325616 235.374253 
L 269.696222 237.715561 
L 272.066829 239.539689 
L 274.437435 240.956055 
L 276.808042 242.059876 
L 279.178648 242.930303 
L 282.734558 243.932523 
L 287.47577 244.925579 
L 293.402286 245.893937 
L 302.884712 247.193051 
L 315.923047 248.758991 
L 331.331989 250.377768 
L 343.185021 251.474654 
L 343.185021 251.474654 
" clip-path="url(#pc9434ee92d)" style="fill: none; stroke: #2ca02c; stroke-width: 1.5; stroke-linecap: square"/>
   </g>
   <g id="patch_3">
    <path d="M 33.2875 271.011785 
L 33.2875 10.083785 
" style="fill: none; stroke: #000000; stroke-width: 0.8; stroke-linejoin: miter; stroke-linecap: square"/>
   </g>
   <g id="patch_4">
    <path d="M 357.942045 271.011785 
L 357.942045 10.083785 
" style="fill: none; stroke: #000000; stroke-width: 0.8; stroke-linejoin: miter; stroke-linecap: square"/>
   </g>
   <g id="patch_5">
    <path d="M 33.2875 271.011785 
L 357.942045 271.011785 
" style="fill: none; stroke: #000000; stroke-width: 0.8; stroke-linejoin: miter; stroke-linecap: square"/>
   </g>
   <g id="patch_6">
    <path d="M 33.2875 10.083785 
L 357.942045 10.083785 
" style="fill: none; stroke: #000000; stroke-width: 0.8; stroke-linejoin: miter; stroke-linecap: square"/>
   </g>
   <g id="legend_1">
    <g id="patch_7">
     <path d="M 278.046733 47.440035 
L 350.942045 47.440035 
Q 352.942045 47.440035 352.942045 45.440035 
L 352.942045 17.083785 
Q 352.942045 15.083785 350.942045 15.083785 
L 278.046733 15.083785 
Q 276.046733 15.083785 276.046733 17.083785 
L 276.046733 45.440035 
Q 276.046733 47.440035 278.046733 47.440035 
z
" style="fill: #ffffff; opacity: 0.8; stroke: #cccccc; stroke-linejoin: miter"/>
    </g>
    <g id="line2d_19">
     <path d="M 280.046733 23.182223 
L 290.046733 23.182223 
L 300.046733 23.182223 
" style="fill: none; stroke-dasharray: 5.55,2.4; stroke-dashoffset: 0; stroke: #ff7f0e; stroke-width: 1.5"/>
    </g>
    <g id="text_16">
     <!-- initial fit -->
     <g transform="translate(308.046733 26.682223)scale(0.1 -0.1)">
      <defs>
       <path id="DejaVuSans-69" d="M 603 3500 
L 1178 3500 
L 1178 0 
L 603 0 
L 603 3500 
z
M 603 4863 
L 1178 4863 
L 1178 4134 
L 603 4134 
L 603 4863 
z
" transform="scale(0.015625)"/>
       <path id="DejaVuSans-6e" d="M 3513 2113 
L 3513 0 
L 2938 0 
L 2938 2094 
Q 2938 2591 2744 2837 
Q 2550 3084 2163 3084 
Q 1697 3084 1428 2787 
Q 1159 2491 1159 1978 
L 1159 0 
L 581 0 
L 581 3500 
L 1159 3500 
L 1159 2956 
Q 1366 3272 1645 3428 
Q 1925 3584 2291 3584 
Q 2894 3584 3203 3211 
Q 3513 2838 3513 2113 
z
" transform="scale(0.015625)"/>
       <path id="DejaVuSans-74" d="M 1172 4494 
L 1172 3500 
L 2356 3500 
L 2356 3053 
L 1172 3053 
L 1172 1153 
Q 1172 725 1289 603 
Q 1406 481 1766 481 
L 2356 481 
L 2356 0 
L 1766 0 
Q 1100 0 847 248 
Q 594 497 594 1153 
L 594 3053 
L 172 3053 
L 172 3500 
L 594 3500 
L 594 4494 
L 1172 4494 
z
" transform="scale(0.015625)"/>
       <path id="DejaVuSans-61" d="M 2194 1759 
Q 1497 1759 1228 1600 
Q 959 1441 959 1056 
Q 959 750 1161 570 
Q 1363 391 1709 391 
Q 2188 391 2477 730 
Q 2766 1069 2766 1631 
L 2766 1759 
L 2194 1759 
z
M 3341 1997 
L 3341 0 
L 2766 0 
L 2766 531 
Q 2569 213 2275 61 
Q 1981 -91 1556 -91 
Q 1019 -91 701 211 
Q 384 513 384 1019 
Q 384 1609 779 1909 
Q 1175 2209 1959 2209 
L 2766 2209 
L 2766 2266 
Q 2766 2663 2505 2880 
Q 2244 3097 1772 3097 
Q 1472 3097 1187 3025 
Q 903 2953 641 2809 
L 641 3341 
Q 956 3463 1253 3523 
Q 1550 3584 1831 3584 
Q 2591 3584 2966 3190 
Q 3341 2797 3341 1997 
z
" transform="scale(0.015625)"/>
       <path id="DejaVuSans-6c" d="M 603 4863 
L 1178 4863 
L 1178 0 
L 603 0 
L 603 4863 
z
" transform="scale(0.015625)"/>
       <path id="DejaVuSans-20" transform="scale(0.015625)"/>
       <path id="DejaVuSans-66" d="M 2375 4863 
L 2375 4384 
L 1825 4384 
Q 1516 4384 1395 4259 
Q 1275 4134 1275 3809 
L 1275 3500 
L 2222 3500 
L 2222 3053 
L 1275 3053 
L 1275 0 
L 697 0 
L 697 3053 
L 147 3053 
L 147 3500 
L 697 3500 
L 697 3744 
Q 697 4328 969 4595 
Q 1241 4863 1831 4863 
L 2375 4863 
z
" transform="scale(0.015625)"/>
      </defs>
      <use xlink:href="#DejaVuSans-69"/>
      <use xlink:href="#DejaVuSans-6e" x="27.783203"/>
      <use xlink:href="#DejaVuSans-69" x="91.162109"/>
      <use xlink:href="#DejaVuSans-74" x="118.945312"/>
      <use xlink:href="#DejaVuSans-69" x="158.154297"/>
      <use xlink:href="#DejaVuSans-61" x="185.9375"/>
      <use xlink:href="#DejaVuSans-6c" x="247.216797"/>
      <use xlink:href="#DejaVuSans-20" x="275"/>
      <use xlink:href="#DejaVuSans-66" x="306.787109"/>
      <use xlink:href="#DejaVuSans-69" x="341.992188"/>
      <use xlink:href="#DejaVuSans-74" x="369.775391"/>
     </g>
    </g>
    <g id="line2d_20">
     <path d="M 280.046733 37.860348 
L 290.046733 37.860348 
L 300.046733 37.860348 
" style="fill: none; stroke: #2ca02c; stroke-width: 1.5; stroke-linecap: square"/>
    </g>
    <g id="text_17">
     <!-- best fit -->
     <g transform="translate(308.046733 41.360348)scale(0.1 -0.1)">
      <defs>
       <path id="DejaVuSans-62" d="M 3116 1747 
Q 3116 2381 2855 2742 
Q 2594 3103 2138 3103 
Q 1681 3103 1420 2742 
Q 1159 2381 1159 1747 
Q 1159 1113 1420 752 
Q 1681 391 2138 391 
Q 2594 391 2855 752 
Q 3116 1113 3116 1747 
z
M 1159 2969 
Q 1341 3281 1617 3432 
Q 1894 3584 2278 3584 
Q 2916 3584 3314 3078 
Q 3713 2572 3713 1747 
Q 3713 922 3314 415 
Q 2916 -91 2278 -91 
Q 1894 -91 1617 61 
Q 1341 213 1159 525 
L 1159 0 
L 581 0 
L 581 4863 
L 1159 4863 
L 1159 2969 
z
" transform="scale(0.015625)"/>
       <path id="DejaVuSans-65" d="M 3597 1894 
L 3597 1613 
L 953 1613 
Q 991 1019 1311 708 
Q 1631 397 2203 397 
Q 2534 397 2845 478 
Q 3156 559 3463 722 
L 3463 178 
Q 3153 47 2828 -22 
Q 2503 -91 2169 -91 
Q 1331 -91 842 396 
Q 353 884 353 1716 
Q 353 2575 817 3079 
Q 1281 3584 2069 3584 
Q 2775 3584 3186 3129 
Q 3597 2675 3597 1894 
z
M 3022 2063 
Q 3016 2534 2758 2815 
Q 2500 3097 2075 3097 
Q 1594 3097 1305 2825 
Q 1016 2553 972 2059 
L 3022 2063 
z
" transform="scale(0.015625)"/>
       <path id="DejaVuSans-73" d="M 2834 3397 
L 2834 2853 
Q 2591 2978 2328 3040 
Q 2066 3103 1784 3103 
Q 1356 3103 1142 2972 
Q 928 2841 928 2578 
Q 928 2378 1081 2264 
Q 1234 2150 1697 2047 
L 1894 2003 
Q 2506 1872 2764 1633 
Q 3022 1394 3022 966 
Q 3022 478 2636 193 
Q 2250 -91 1575 -91 
Q 1294 -91 989 -36 
Q 684 19 347 128 
L 347 722 
Q 666 556 975 473 
Q 1284 391 1588 391 
Q 1994 391 2212 530 
Q 2431 669 2431 922 
Q 2431 1156 2273 1281 
Q 2116 1406 1581 1522 
L 1381 1569 
Q 847 1681 609 1914 
Q 372 2147 372 2553 
Q 372 3047 722 3315 
Q 1072 3584 1716 3584 
Q 2034 3584 2315 3537 
Q 2597 3491 2834 3397 
z
" transform="scale(0.015625)"/>
      </defs>
      <use xlink:href="#DejaVuSans-62"/>
      <use xlink:href="#DejaVuSans-65" x="63.476562"/>
      <use xlink:href="#DejaVuSans-73" x="125"/>
      <use xlink:href="#DejaVuSans-74" x="177.099609"/>
      <use xlink:href="#DejaVuSans-20" x="216.308594"/>
      <use xlink:href="#DejaVuSans-66" x="248.095703"/>
      <use xlink:href="#DejaVuSans-69" x="283.300781"/>
      <use xlink:href="#DejaVuSans-74" x="311.083984"/>
     </g>
    </g>
   </g>
  </g>
  <g id="axes_2">
   <g id="patch_8">
    <path d="M 422.872955 271.011785 
L 747.5275 271.011785 
L 747.5275 10.083785 
L 422.872955 10.083785 
z
" style="fill: #ffffff"/>
   </g>
   <g id="matplotlib.axis_3">
    <g id="xtick_7">
     <g id="line2d_21">
      <g>
       <use xlink:href="#m12709ffe55" x="436.444676" y="271.011785" style="stroke: #000000; stroke-width: 0.8"/>
      </g>
     </g>
     <g id="text_18">
      <!-- 0 -->
      <g transform="translate(433.263426 285.610223)scale(0.1 -0.1)">
       <use xlink:href="#DejaVuSans-30"/>
      </g>
     </g>
    </g>
    <g id="xtick_8">
     <g id="line2d_22">
      <g>
       <use xlink:href="#m12709ffe55" x="495.709836" y="271.011785" style="stroke: #000000; stroke-width: 0.8"/>
      </g>
     </g>
     <g id="text_19">
      <!-- 50 -->
      <g transform="translate(489.347336 285.610223)scale(0.1 -0.1)">
       <use xlink:href="#DejaVuSans-35"/>
       <use xlink:href="#DejaVuSans-30" x="63.623047"/>
      </g>
     </g>
    </g>
    <g id="xtick_9">
     <g id="line2d_23">
      <g>
       <use xlink:href="#m12709ffe55" x="554.974996" y="271.011785" style="stroke: #000000; stroke-width: 0.8"/>
      </g>
     </g>
     <g id="text_20">
      <!-- 100 -->
      <g transform="translate(545.431246 285.610223)scale(0.1 -0.1)">
       <use xlink:href="#DejaVuSans-31"/>
       <use xlink:href="#DejaVuSans-30" x="63.623047"/>
       <use xlink:href="#DejaVuSans-30" x="127.246094"/>
      </g>
     </g>
    </g>
    <g id="xtick_10">
     <g id="line2d_24">
      <g>
       <use xlink:href="#m12709ffe55" x="614.240156" y="271.011785" style="stroke: #000000; stroke-width: 0.8"/>
      </g>
     </g>
     <g id="text_21">
      <!-- 150 -->
      <g transform="translate(604.696406 285.610223)scale(0.1 -0.1)">
       <use xlink:href="#DejaVuSans-31"/>
       <use xlink:href="#DejaVuSans-35" x="63.623047"/>
       <use xlink:href="#DejaVuSans-30" x="127.246094"/>
      </g>
     </g>
    </g>
    <g id="xtick_11">
     <g id="line2d_25">
      <g>
       <use xlink:href="#m12709ffe55" x="673.505315" y="271.011785" style="stroke: #000000; stroke-width: 0.8"/>
      </g>
     </g>
     <g id="text_22">
      <!-- 200 -->
      <g transform="translate(663.961565 285.610223)scale(0.1 -0.1)">
       <use xlink:href="#DejaVuSans-32"/>
       <use xlink:href="#DejaVuSans-30" x="63.623047"/>
       <use xlink:href="#DejaVuSans-30" x="127.246094"/>
      </g>
     </g>
    </g>
    <g id="xtick_12">
     <g id="line2d_26">
      <g>
       <use xlink:href="#m12709ffe55" x="732.770475" y="271.011785" style="stroke: #000000; stroke-width: 0.8"/>
      </g>
     </g>
     <g id="text_23">
      <!-- 250 -->
      <g transform="translate(723.226725 285.610223)scale(0.1 -0.1)">
       <use xlink:href="#DejaVuSans-32"/>
       <use xlink:href="#DejaVuSans-35" x="63.623047"/>
       <use xlink:href="#DejaVuSans-30" x="127.246094"/>
      </g>
     </g>
    </g>
   </g>
   <g id="matplotlib.axis_4">
    <g id="ytick_10">
     <g id="line2d_27">
      <g>
       <use xlink:href="#mfaffb36012" x="422.872955" y="259.151422" style="stroke: #000000; stroke-width: 0.8"/>
      </g>
     </g>
     <g id="text_24">
      <!-- 0 -->
      <g transform="translate(409.510455 262.95064)scale(0.1 -0.1)">
       <use xlink:href="#DejaVuSans-30"/>
      </g>
     </g>
    </g>
    <g id="ytick_11">
     <g id="line2d_28">
      <g>
       <use xlink:href="#mfaffb36012" x="422.872955" y="223.701107" style="stroke: #000000; stroke-width: 0.8"/>
      </g>
     </g>
     <g id="text_25">
      <!-- 20 -->
      <g transform="translate(403.147955 227.500326)scale(0.1 -0.1)">
       <use xlink:href="#DejaVuSans-32"/>
       <use xlink:href="#DejaVuSans-30" x="63.623047"/>
      </g>
     </g>
    </g>
    <g id="ytick_12">
     <g id="line2d_29">
      <g>
       <use xlink:href="#mfaffb36012" x="422.872955" y="188.250792" style="stroke: #000000; stroke-width: 0.8"/>
      </g>
     </g>
     <g id="text_26">
      <!-- 40 -->
      <g transform="translate(403.147955 192.050011)scale(0.1 -0.1)">
       <use xlink:href="#DejaVuSans-34"/>
       <use xlink:href="#DejaVuSans-30" x="63.623047"/>
      </g>
     </g>
    </g>
    <g id="ytick_13">
     <g id="line2d_30">
      <g>
       <use xlink:href="#mfaffb36012" x="422.872955" y="152.800478" style="stroke: #000000; stroke-width: 0.8"/>
      </g>
     </g>
     <g id="text_27">
      <!-- 60 -->
      <g transform="translate(403.147955 156.599696)scale(0.1 -0.1)">
       <use xlink:href="#DejaVuSans-36"/>
       <use xlink:href="#DejaVuSans-30" x="63.623047"/>
      </g>
     </g>
    </g>
    <g id="ytick_14">
     <g id="line2d_31">
      <g>
       <use xlink:href="#mfaffb36012" x="422.872955" y="117.350163" style="stroke: #000000; stroke-width: 0.8"/>
      </g>
     </g>
     <g id="text_28">
      <!-- 80 -->
      <g transform="translate(403.147955 121.149382)scale(0.1 -0.1)">
       <use xlink:href="#DejaVuSans-38"/>
       <use xlink:href="#DejaVuSans-30" x="63.623047"/>
      </g>
     </g>
    </g>
    <g id="ytick_15">
     <g id="line2d_32">
      <g>
       <use xlink:href="#mfaffb36012" x="422.872955" y="81.899848" style="stroke: #000000; stroke-width: 0.8"/>
      </g>
     </g>
     <g id="text_29">
      <!-- 100 -->
      <g transform="translate(396.785455 85.699067)scale(0.1 -0.1)">
       <use xlink:href="#DejaVuSans-31"/>
       <use xlink:href="#DejaVuSans-30" x="63.623047"/>
       <use xlink:href="#DejaVuSans-30" x="127.246094"/>
      </g>
     </g>
    </g>
    <g id="ytick_16">
     <g id="line2d_33">
      <g>
       <use xlink:href="#mfaffb36012" x="422.872955" y="46.449533" style="stroke: #000000; stroke-width: 0.8"/>
      </g>
     </g>
     <g id="text_30">
      <!-- 120 -->
      <g transform="translate(396.785455 50.248752)scale(0.1 -0.1)">
       <use xlink:href="#DejaVuSans-31"/>
       <use xlink:href="#DejaVuSans-32" x="63.623047"/>
       <use xlink:href="#DejaVuSans-30" x="127.246094"/>
      </g>
     </g>
    </g>
    <g id="ytick_17">
     <g id="line2d_34">
      <g>
       <use xlink:href="#mfaffb36012" x="422.872955" y="10.999219" style="stroke: #000000; stroke-width: 0.8"/>
      </g>
     </g>
     <g id="text_31">
      <!-- 140 -->
      <g transform="translate(396.785455 14.798437)scale(0.1 -0.1)">
       <use xlink:href="#DejaVuSans-31"/>
       <use xlink:href="#DejaVuSans-34" x="63.623047"/>
       <use xlink:href="#DejaVuSans-30" x="127.246094"/>
      </g>
     </g>
    </g>
   </g>
   <g id="line2d_35">
    <path d="M 437.629979 86.175582 
L 438.815283 85.864186 
L 440.000586 87.984806 
L 441.185889 95.15761 
L 442.371192 97.584893 
L 443.556495 90.377295 
L 444.741799 99.246485 
L 445.927102 100.879326 
L 447.112405 96.940016 
L 448.297708 100.316889 
L 449.483011 105.719145 
L 450.668314 107.507099 
L 451.853618 104.711168 
L 453.038921 107.283337 
L 454.224224 117.264178 
L 455.409527 113.469683 
L 456.59483 104.515713 
L 457.780134 115.942661 
L 458.965437 115.071239 
L 460.15074 114.568377 
L 461.336043 118.720052 
L 462.521346 118.355622 
L 463.70665 121.068989 
L 464.891953 123.102544 
L 466.077256 122.3597 
L 467.262559 127.50051 
L 468.447862 129.546844 
L 469.633166 128.254219 
L 470.818469 130.681785 
L 472.003772 131.666914 
L 473.189075 140.531549 
L 474.374378 138.729627 
L 475.559682 135.851558 
L 476.744985 136.72259 
L 479.115591 145.92519 
L 480.300894 135.579831 
L 481.486198 146.408999 
L 482.671501 146.82437 
L 483.856804 152.767952 
L 485.042107 148.059335 
L 486.22741 142.508081 
L 487.412714 154.319453 
L 488.598017 158.774724 
L 489.78332 150.641819 
L 490.968623 162.748013 
L 492.153926 147.599154 
L 493.33923 158.735853 
L 494.524533 157.881181 
L 495.709836 155.819267 
L 496.895139 154.719332 
L 498.080442 155.456202 
L 499.265746 161.257416 
L 500.451049 155.807107 
L 501.636352 157.351642 
L 502.821655 167.522869 
L 504.006958 170.647371 
L 505.192262 163.953856 
L 506.377565 160.959155 
L 507.562868 165.390497 
L 508.748171 166.41962 
L 509.933474 163.45826 
L 511.118778 164.248129 
L 512.304081 159.092093 
L 513.489384 168.181022 
L 514.674687 165.001129 
L 515.85999 164.700599 
L 517.045293 170.870301 
L 518.230597 162.202539 
L 519.4159 159.152695 
L 520.601203 162.383371 
L 521.786506 162.752799 
L 522.971809 152.528325 
L 524.157113 153.176729 
L 525.342416 151.914308 
L 526.527719 143.16003 
L 527.713022 151.559699 
L 528.898325 146.209112 
L 530.083629 139.025566 
L 531.268932 144.453098 
L 532.454235 133.689337 
L 533.639538 134.390225 
L 534.824841 122.271393 
L 536.010145 118.189183 
L 537.195448 117.118371 
L 538.380751 107.285411 
L 539.566054 108.121613 
L 540.751357 99.189888 
L 541.936661 93.209332 
L 543.121964 89.229041 
L 544.307267 93.474518 
L 545.49257 71.594973 
L 546.677873 68.026545 
L 547.863177 56.977036 
L 549.04848 54.422486 
L 550.233783 49.088809 
L 551.419086 47.127166 
L 552.604389 42.560634 
L 553.789693 34.059117 
L 554.974996 36.345308 
L 556.160299 39.811994 
L 557.345602 27.564619 
L 558.530905 29.226353 
L 559.716209 25.491307 
L 560.901512 25.399314 
L 563.272118 24.96292 
L 564.457421 22.62444 
L 565.642725 21.944149 
L 566.828028 22.22013 
L 568.013331 31.764063 
L 570.383937 38.021221 
L 571.569241 49.282723 
L 572.754544 42.8453 
L 573.939847 54.947151 
L 575.12515 48.602077 
L 576.310453 62.865333 
L 577.495756 63.819656 
L 578.68106 72.730802 
L 579.866363 75.789632 
L 581.051666 91.572821 
L 582.236969 91.816613 
L 583.422272 91.507522 
L 584.607576 101.812201 
L 585.792879 104.433008 
L 586.978182 95.185864 
L 588.163485 106.218817 
L 589.348788 113.019783 
L 591.719395 120.246312 
L 592.904698 119.578091 
L 594.090001 124.213592 
L 595.275304 118.890337 
L 596.460608 123.092015 
L 597.645911 121.59057 
L 598.831214 121.309378 
L 600.016517 115.077443 
L 601.20182 117.805575 
L 602.387124 113.84122 
L 603.572427 117.297838 
L 604.75773 106.799582 
L 605.943033 106.771115 
L 607.128336 117.442529 
L 608.31364 104.640817 
L 609.498943 98.721164 
L 610.684246 93.893168 
L 611.869549 101.135136 
L 613.054852 94.103761 
L 614.240156 99.016377 
L 615.425459 93.07696 
L 616.610762 89.446228 
L 617.796065 96.34399 
L 618.981368 87.669334 
L 620.166672 103.861389 
L 621.351975 98.79171 
L 623.722581 107.234894 
L 624.907884 108.46346 
L 626.093188 119.955052 
L 627.278491 114.972368 
L 628.463794 125.870735 
L 629.649097 130.35839 
L 630.8344 135.332264 
L 632.019704 141.642916 
L 633.205007 146.445973 
L 634.39031 155.745566 
L 635.575613 157.218189 
L 636.760916 165.553764 
L 637.94622 169.119693 
L 639.131523 175.781321 
L 640.316826 176.78102 
L 641.502129 182.773435 
L 642.687432 198.681498 
L 643.872735 189.522838 
L 645.058039 201.218766 
L 646.243342 205.19505 
L 647.428645 202.449849 
L 648.613948 217.261026 
L 649.799251 217.149127 
L 650.984555 223.22586 
L 652.169858 225.348235 
L 654.540464 230.635454 
L 655.725767 225.575241 
L 656.911071 226.158629 
L 658.096374 228.561345 
L 659.281677 229.687158 
L 660.46698 235.251404 
L 661.652283 231.896387 
L 662.837587 235.271948 
L 664.02289 230.858738 
L 665.208193 237.304332 
L 666.393496 230.190642 
L 667.578799 240.649317 
L 668.764103 242.084373 
L 669.949406 235.891265 
L 671.134709 243.602174 
L 672.320012 238.304102 
L 673.505315 236.905995 
L 674.690619 239.066904 
L 675.875922 239.290507 
L 677.061225 245.295815 
L 678.246528 247.097118 
L 679.431831 233.865049 
L 680.617135 240.251352 
L 681.802438 243.355516 
L 682.987741 238.648147 
L 685.358347 238.606706 
L 686.543651 241.904606 
L 687.728954 238.869641 
L 688.914257 239.24763 
L 690.09956 241.121161 
L 691.284863 236.978934 
L 692.470167 248.159178 
L 693.65547 243.16403 
L 694.840773 239.997493 
L 696.026076 235.938112 
L 697.211379 252.213315 
L 698.396683 242.192193 
L 699.581986 244.903146 
L 700.767289 241.016742 
L 701.952592 242.54754 
L 704.323198 248.306151 
L 705.508502 243.565324 
L 706.693805 245.331662 
L 707.879108 237.082449 
L 709.064411 240.334377 
L 710.249714 248.514549 
L 711.435018 247.160179 
L 712.620321 243.615936 
L 713.805624 251.021924 
L 714.990927 244.278627 
L 716.17623 246.372998 
L 717.361534 241.404835 
L 718.546837 246.163382 
L 719.73214 247.585515 
L 720.917443 254.117362 
L 722.102746 240.852483 
L 723.28805 250.661009 
L 724.473353 244.304066 
L 725.658656 248.048419 
L 726.843959 254.355185 
L 728.029262 244.329452 
L 729.214566 243.228014 
L 730.399869 253.191392 
L 731.585172 257.055106 
L 732.770475 250.509854 
L 732.770475 250.509854 
" clip-path="url(#p4964646531)" style="fill: none; stroke: #1f77b4; stroke-width: 1.5; stroke-linecap: square"/>
   </g>
   <g id="line2d_36">
    <path d="M 437.629979 259.151421 
L 486.22741 259.061665 
L 492.153926 258.875018 
L 496.895139 258.514329 
L 500.451049 258.003817 
L 502.821655 257.482739 
L 505.192262 256.759727 
L 507.562868 255.772421 
L 509.933474 254.445752 
L 512.304081 252.691829 
L 514.674687 250.410858 
L 515.85999 249.038817 
L 517.045293 247.493414 
L 518.230597 245.760106 
L 519.4159 243.824328 
L 520.601203 241.67172 
L 522.971809 236.661114 
L 525.342416 230.627623 
L 527.713022 223.492359 
L 530.083629 215.209093 
L 532.454235 205.775325 
L 534.824841 195.242551 
L 537.195448 183.724555 
L 540.751357 165.015406 
L 549.04848 119.960935 
L 551.419086 108.463645 
L 553.789693 98.347333 
L 554.974996 93.931242 
L 556.160299 90.00347 
L 557.345602 86.604172 
L 558.530905 83.768627 
L 559.716209 81.52663 
L 560.901512 79.901975 
L 562.086815 78.91203 
L 563.272118 78.567429 
L 564.457421 78.871883 
L 565.642725 79.822115 
L 566.828028 81.407912 
L 568.013331 83.612316 
L 569.198634 86.411922 
L 570.383937 89.77729 
L 571.569241 93.673463 
L 572.754544 98.060571 
L 575.12515 108.127668 
L 577.495756 119.588441 
L 581.051666 138.4701 
L 588.163485 177.26796 
L 590.534092 189.239793 
L 592.904698 200.314053 
L 595.275304 210.341552 
L 597.645911 219.23858 
L 600.016517 226.980149 
L 602.387124 233.590622 
L 604.75773 239.132937 
L 607.128336 243.697505 
L 609.498943 247.391714 
L 611.869549 250.33068 
L 614.240156 252.62967 
L 616.610762 254.398354 
L 618.981368 255.736865 
L 621.351975 256.733483 
L 623.722581 257.463677 
L 626.093188 257.99019 
L 629.649097 258.506333 
L 634.39031 258.8713 
L 640.316826 259.060356 
L 652.169858 259.144073 
L 731.585172 259.151422 
L 732.770475 259.151422 
L 732.770475 259.151422 
" clip-path="url(#p4964646531)" style="fill: none; stroke-dasharray: 5.55,2.4; stroke-dashoffset: 0; stroke: #ff7f0e; stroke-width: 1.5"/>
   </g>
   <g id="line2d_37">
    <path d="M 437.629979 259.151422 
L 556.160299 259.052791 
L 560.901512 258.868211 
L 564.457421 258.560184 
L 566.828028 258.210674 
L 569.198634 257.685633 
L 571.569241 256.914984 
L 573.939847 255.810013 
L 576.310453 254.262765 
L 577.495756 253.284609 
L 578.68106 252.147573 
L 579.866363 250.833917 
L 581.051666 249.325547 
L 582.236969 247.604368 
L 583.422272 245.65269 
L 584.607576 243.453702 
L 585.792879 240.992001 
L 586.978182 238.254168 
L 589.348788 231.910041 
L 591.719395 224.377291 
L 594.090001 215.683316 
L 596.460608 205.943977 
L 600.016517 189.874504 
L 605.943033 162.31209 
L 608.31364 152.420617 
L 610.684246 143.961351 
L 611.869549 140.421441 
L 613.054852 137.413028 
L 614.240156 134.981458 
L 615.425459 133.163952 
L 616.610762 131.988655 
L 617.796065 131.473913 
L 618.981368 131.627798 
L 620.166672 132.447894 
L 621.351975 133.921363 
L 622.537278 136.025278 
L 623.722581 138.727217 
L 624.907884 141.986094 
L 626.093188 145.753199 
L 628.463794 154.58651 
L 630.8344 164.733821 
L 634.39031 181.264049 
L 639.131523 203.1596 
L 641.502129 213.148622 
L 643.872735 222.14039 
L 646.243342 229.992908 
L 648.613948 236.656379 
L 650.984555 242.157425 
L 652.169858 244.49653 
L 653.355161 246.579794 
L 654.540464 248.423336 
L 655.725767 250.044434 
L 656.911071 251.461019 
L 658.096374 252.691232 
L 659.281677 253.753045 
L 661.652283 255.440647 
L 664.02289 256.653647 
L 666.393496 257.505045 
L 668.764103 258.088767 
L 671.134709 258.479772 
L 674.690619 258.826946 
L 679.431831 259.037132 
L 687.728954 259.136382 
L 724.473353 259.151422 
L 732.770475 259.151422 
L 732.770475 259.151422 
" clip-path="url(#p4964646531)" style="fill: none; stroke-dasharray: 5.55,2.4; stroke-dashoffset: 0; stroke: #2ca02c; stroke-width: 1.5"/>
   </g>
   <g id="line2d_38">
    <path d="M 437.629979 85.559047 
L 443.556495 94.844664 
L 449.483011 103.633585 
L 455.409527 111.952379 
L 461.336043 119.826193 
L 467.262559 127.278829 
L 473.189075 134.332816 
L 479.115591 141.00948 
L 485.042107 147.329002 
L 490.968623 153.310487 
L 496.895139 158.972017 
L 502.821655 164.330707 
L 508.748171 169.402755 
L 514.674687 174.203495 
L 520.601203 178.747438 
L 526.527719 183.048322 
L 533.639538 187.9068 
L 540.751357 192.45511 
L 547.863177 196.713052 
L 554.974996 200.699164 
L 562.086815 204.4308 
L 569.198634 207.924205 
L 576.310453 211.194588 
L 584.607576 214.747105 
L 592.904698 218.036461 
L 601.20182 221.082149 
L 609.498943 223.902222 
L 618.981368 226.870278 
L 628.463794 229.588418 
L 637.94622 232.077684 
L 648.613948 234.628466 
L 659.281677 236.938923 
L 669.949406 239.031697 
L 681.802438 241.126575 
L 693.65547 243.003332 
L 706.693805 244.842871 
L 720.917443 246.611491 
L 732.770475 247.917156 
L 732.770475 247.917156 
" clip-path="url(#p4964646531)" style="fill: none; stroke-dasharray: 5.55,2.4; stroke-dashoffset: 0; stroke: #d62728; stroke-width: 1.5"/>
   </g>
   <g id="patch_9">
    <path d="M 422.872955 271.011785 
L 422.872955 10.083785 
" style="fill: none; stroke: #000000; stroke-width: 0.8; stroke-linejoin: miter; stroke-linecap: square"/>
   </g>
   <g id="patch_10">
    <path d="M 747.5275 271.011785 
L 747.5275 10.083785 
" style="fill: none; stroke: #000000; stroke-width: 0.8; stroke-linejoin: miter; stroke-linecap: square"/>
   </g>
   <g id="patch_11">
    <path d="M 422.872955 271.011785 
L 747.5275 271.011785 
" style="fill: none; stroke: #000000; stroke-width: 0.8; stroke-linejoin: miter; stroke-linecap: square"/>
   </g>
   <g id="patch_12">
    <path d="M 422.872955 10.083785 
L 747.5275 10.083785 
" style="fill: none; stroke: #000000; stroke-width: 0.8; stroke-linejoin: miter; stroke-linecap: square"/>
   </g>
   <g id="legend_2">
    <g id="patch_13">
     <path d="M 589.638437 62.11816 
L 740.5275 62.11816 
Q 742.5275 62.11816 742.5275 60.11816 
L 742.5275 17.083785 
Q 742.5275 15.083785 740.5275 15.083785 
L 589.638437 15.083785 
Q 587.638437 15.083785 587.638437 17.083785 
L 587.638437 60.11816 
Q 587.638437 62.11816 589.638437 62.11816 
z
" style="fill: #ffffff; opacity: 0.8; stroke: #cccccc; stroke-linejoin: miter"/>
    </g>
    <g id="line2d_39">
     <path d="M 591.638437 23.182223 
L 601.638437 23.182223 
L 611.638437 23.182223 
" style="fill: none; stroke-dasharray: 5.55,2.4; stroke-dashoffset: 0; stroke: #ff7f0e; stroke-width: 1.5"/>
    </g>
    <g id="text_32">
     <!-- Gaussian component 1 -->
     <g transform="translate(619.638437 26.682223)scale(0.1 -0.1)">
      <defs>
       <path id="DejaVuSans-47" d="M 3809 666 
L 3809 1919 
L 2778 1919 
L 2778 2438 
L 4434 2438 
L 4434 434 
Q 4069 175 3628 42 
Q 3188 -91 2688 -91 
Q 1594 -91 976 548 
Q 359 1188 359 2328 
Q 359 3472 976 4111 
Q 1594 4750 2688 4750 
Q 3144 4750 3555 4637 
Q 3966 4525 4313 4306 
L 4313 3634 
Q 3963 3931 3569 4081 
Q 3175 4231 2741 4231 
Q 1884 4231 1454 3753 
Q 1025 3275 1025 2328 
Q 1025 1384 1454 906 
Q 1884 428 2741 428 
Q 3075 428 3337 486 
Q 3600 544 3809 666 
z
" transform="scale(0.015625)"/>
       <path id="DejaVuSans-75" d="M 544 1381 
L 544 3500 
L 1119 3500 
L 1119 1403 
Q 1119 906 1312 657 
Q 1506 409 1894 409 
Q 2359 409 2629 706 
Q 2900 1003 2900 1516 
L 2900 3500 
L 3475 3500 
L 3475 0 
L 2900 0 
L 2900 538 
Q 2691 219 2414 64 
Q 2138 -91 1772 -91 
Q 1169 -91 856 284 
Q 544 659 544 1381 
z
M 1991 3584 
L 1991 3584 
z
" transform="scale(0.015625)"/>
       <path id="DejaVuSans-63" d="M 3122 3366 
L 3122 2828 
Q 2878 2963 2633 3030 
Q 2388 3097 2138 3097 
Q 1578 3097 1268 2742 
Q 959 2388 959 1747 
Q 959 1106 1268 751 
Q 1578 397 2138 397 
Q 2388 397 2633 464 
Q 2878 531 3122 666 
L 3122 134 
Q 2881 22 2623 -34 
Q 2366 -91 2075 -91 
Q 1284 -91 818 406 
Q 353 903 353 1747 
Q 353 2603 823 3093 
Q 1294 3584 2113 3584 
Q 2378 3584 2631 3529 
Q 2884 3475 3122 3366 
z
" transform="scale(0.015625)"/>
       <path id="DejaVuSans-6f" d="M 1959 3097 
Q 1497 3097 1228 2736 
Q 959 2375 959 1747 
Q 959 1119 1226 758 
Q 1494 397 1959 397 
Q 2419 397 2687 759 
Q 2956 1122 2956 1747 
Q 2956 2369 2687 2733 
Q 2419 3097 1959 3097 
z
M 1959 3584 
Q 2709 3584 3137 3096 
Q 3566 2609 3566 1747 
Q 3566 888 3137 398 
Q 2709 -91 1959 -91 
Q 1206 -91 779 398 
Q 353 888 353 1747 
Q 353 2609 779 3096 
Q 1206 3584 1959 3584 
z
" transform="scale(0.015625)"/>
       <path id="DejaVuSans-6d" d="M 3328 2828 
Q 3544 3216 3844 3400 
Q 4144 3584 4550 3584 
Q 5097 3584 5394 3201 
Q 5691 2819 5691 2113 
L 5691 0 
L 5113 0 
L 5113 2094 
Q 5113 2597 4934 2840 
Q 4756 3084 4391 3084 
Q 3944 3084 3684 2787 
Q 3425 2491 3425 1978 
L 3425 0 
L 2847 0 
L 2847 2094 
Q 2847 2600 2669 2842 
Q 2491 3084 2119 3084 
Q 1678 3084 1418 2786 
Q 1159 2488 1159 1978 
L 1159 0 
L 581 0 
L 581 3500 
L 1159 3500 
L 1159 2956 
Q 1356 3278 1631 3431 
Q 1906 3584 2284 3584 
Q 2666 3584 2933 3390 
Q 3200 3197 3328 2828 
z
" transform="scale(0.015625)"/>
       <path id="DejaVuSans-70" d="M 1159 525 
L 1159 -1331 
L 581 -1331 
L 581 3500 
L 1159 3500 
L 1159 2969 
Q 1341 3281 1617 3432 
Q 1894 3584 2278 3584 
Q 2916 3584 3314 3078 
Q 3713 2572 3713 1747 
Q 3713 922 3314 415 
Q 2916 -91 2278 -91 
Q 1894 -91 1617 61 
Q 1341 213 1159 525 
z
M 3116 1747 
Q 3116 2381 2855 2742 
Q 2594 3103 2138 3103 
Q 1681 3103 1420 2742 
Q 1159 2381 1159 1747 
Q 1159 1113 1420 752 
Q 1681 391 2138 391 
Q 2594 391 2855 752 
Q 3116 1113 3116 1747 
z
" transform="scale(0.015625)"/>
      </defs>
      <use xlink:href="#DejaVuSans-47"/>
      <use xlink:href="#DejaVuSans-61" x="77.490234"/>
      <use xlink:href="#DejaVuSans-75" x="138.769531"/>
      <use xlink:href="#DejaVuSans-73" x="202.148438"/>
      <use xlink:href="#DejaVuSans-73" x="254.248047"/>
      <use xlink:href="#DejaVuSans-69" x="306.347656"/>
      <use xlink:href="#DejaVuSans-61" x="334.130859"/>
      <use xlink:href="#DejaVuSans-6e" x="395.410156"/>
      <use xlink:href="#DejaVuSans-20" x="458.789062"/>
      <use xlink:href="#DejaVuSans-63" x="490.576172"/>
      <use xlink:href="#DejaVuSans-6f" x="545.556641"/>
      <use xlink:href="#DejaVuSans-6d" x="606.738281"/>
      <use xlink:href="#DejaVuSans-70" x="704.150391"/>
      <use xlink:href="#DejaVuSans-6f" x="767.626953"/>
      <use xlink:href="#DejaVuSans-6e" x="828.808594"/>
      <use xlink:href="#DejaVuSans-65" x="892.1875"/>
      <use xlink:href="#DejaVuSans-6e" x="953.710938"/>
      <use xlink:href="#DejaVuSans-74" x="1017.089844"/>
      <use xlink:href="#DejaVuSans-20" x="1056.298828"/>
      <use xlink:href="#DejaVuSans-31" x="1088.085938"/>
     </g>
    </g>
    <g id="line2d_40">
     <path d="M 591.638437 37.860348 
L 601.638437 37.860348 
L 611.638437 37.860348 
" style="fill: none; stroke-dasharray: 5.55,2.4; stroke-dashoffset: 0; stroke: #2ca02c; stroke-width: 1.5"/>
    </g>
    <g id="text_33">
     <!-- Gaussian component 2 -->
     <g transform="translate(619.638437 41.360348)scale(0.1 -0.1)">
      <use xlink:href="#DejaVuSans-47"/>
      <use xlink:href="#DejaVuSans-61" x="77.490234"/>
      <use xlink:href="#DejaVuSans-75" x="138.769531"/>
      <use xlink:href="#DejaVuSans-73" x="202.148438"/>
      <use xlink:href="#DejaVuSans-73" x="254.248047"/>
      <use xlink:href="#DejaVuSans-69" x="306.347656"/>
      <use xlink:href="#DejaVuSans-61" x="334.130859"/>
      <use xlink:href="#DejaVuSans-6e" x="395.410156"/>
      <use xlink:href="#DejaVuSans-20" x="458.789062"/>
      <use xlink:href="#DejaVuSans-63" x="490.576172"/>
      <use xlink:href="#DejaVuSans-6f" x="545.556641"/>
      <use xlink:href="#DejaVuSans-6d" x="606.738281"/>
      <use xlink:href="#DejaVuSans-70" x="704.150391"/>
      <use xlink:href="#DejaVuSans-6f" x="767.626953"/>
      <use xlink:href="#DejaVuSans-6e" x="828.808594"/>
      <use xlink:href="#DejaVuSans-65" x="892.1875"/>
      <use xlink:href="#DejaVuSans-6e" x="953.710938"/>
      <use xlink:href="#DejaVuSans-74" x="1017.089844"/>
      <use xlink:href="#DejaVuSans-20" x="1056.298828"/>
      <use xlink:href="#DejaVuSans-32" x="1088.085938"/>
     </g>
    </g>
    <g id="line2d_41">
     <path d="M 591.638437 52.538473 
L 601.638437 52.538473 
L 611.638437 52.538473 
" style="fill: none; stroke-dasharray: 5.55,2.4; stroke-dashoffset: 0; stroke: #d62728; stroke-width: 1.5"/>
    </g>
    <g id="text_34">
     <!-- Exponential component -->
     <g transform="translate(619.638437 56.038473)scale(0.1 -0.1)">
      <defs>
       <path id="DejaVuSans-45" d="M 628 4666 
L 3578 4666 
L 3578 4134 
L 1259 4134 
L 1259 2753 
L 3481 2753 
L 3481 2222 
L 1259 2222 
L 1259 531 
L 3634 531 
L 3634 0 
L 628 0 
L 628 4666 
z
" transform="scale(0.015625)"/>
       <path id="DejaVuSans-78" d="M 3513 3500 
L 2247 1797 
L 3578 0 
L 2900 0 
L 1881 1375 
L 863 0 
L 184 0 
L 1544 1831 
L 300 3500 
L 978 3500 
L 1906 2253 
L 2834 3500 
L 3513 3500 
z
" transform="scale(0.015625)"/>
      </defs>
      <use xlink:href="#DejaVuSans-45"/>
      <use xlink:href="#DejaVuSans-78" x="63.183594"/>
      <use xlink:href="#DejaVuSans-70" x="122.363281"/>
      <use xlink:href="#DejaVuSans-6f" x="185.839844"/>
      <use xlink:href="#DejaVuSans-6e" x="247.021484"/>
      <use xlink:href="#DejaVuSans-65" x="310.400391"/>
      <use xlink:href="#DejaVuSans-6e" x="371.923828"/>
      <use xlink:href="#DejaVuSans-74" x="435.302734"/>
      <use xlink:href="#DejaVuSans-69" x="474.511719"/>
      <use xlink:href="#DejaVuSans-61" x="502.294922"/>
      <use xlink:href="#DejaVuSans-6c" x="563.574219"/>
      <use xlink:href="#DejaVuSans-20" x="591.357422"/>
      <use xlink:href="#DejaVuSans-63" x="623.144531"/>
      <use xlink:href="#DejaVuSans-6f" x="678.125"/>
      <use xlink:href="#DejaVuSans-6d" x="739.306641"/>
      <use xlink:href="#DejaVuSans-70" x="836.71875"/>
      <use xlink:href="#DejaVuSans-6f" x="900.195312"/>
      <use xlink:href="#DejaVuSans-6e" x="961.376953"/>
      <use xlink:href="#DejaVuSans-65" x="1024.755859"/>
      <use xlink:href="#DejaVuSans-6e" x="1086.279297"/>
      <use xlink:href="#DejaVuSans-74" x="1149.658203"/>
     </g>
    </g>
   </g>
  </g>
 </g>
 <defs>
  <clipPath id="pc9434ee92d">
   <rect x="33.2875" y="10.083785" width="324.654545" height="260.928"/>
  </clipPath>
  <clipPath id="p4964646531">
   <rect x="422.872955" y="10.083785" width="324.654545" height="260.928"/>
  </clipPath>
 </defs>
</svg>
