<?xml version="1.0" encoding="utf-8" standalone="no"?>
<!DOCTYPE svg PUBLIC "-//W3C//DTD SVG 1.1//EN"
  "http://www.w3.org/Graphics/SVG/1.1/DTD/svg11.dtd">
<svg height="251.635806pt" version="1.1" viewBox="0 0 375.2875 251.635806" width="375.2875pt" xmlns="http://www.w3.org/2000/svg" xmlns:xlink="http://www.w3.org/1999/xlink">
 <metadata>
  <rdf:RDF xmlns:cc="http://creativecommons.org/ns#" xmlns:dc="http://purl.org/dc/elements/1.1/" xmlns:rdf="http://www.w3.org/1999/02/22-rdf-syntax-ns#">
   <cc:Work>
    <dc:type rdf:resource="http://purl.org/dc/dcmitype/StillImage"/>
    <dc:date>2021-10-14T14:44:29.026016</dc:date>
    <dc:format>image/svg+xml</dc:format>
    <dc:creator>
     <cc:Agent>
      <dc:title>Matplotlib v3.4.2, https://matplotlib.org/</dc:title>
     </cc:Agent>
    </dc:creator>
   </cc:Work>
  </rdf:RDF>
 </metadata>
 <defs>
  <style type="text/css">*{stroke-linecap:butt;stroke-linejoin:round;}</style>
 </defs>
 <g id="figure_1">
  <g id="patch_1">
   <path d="M 0 251.635806 
L 375.2875 251.635806 
L 375.2875 0 
L 0 0 
z
" style="fill:none;"/>
  </g>
  <g id="axes_1">
   <g id="patch_2">
    <path d="M 33.2875 227.757681 
L 368.0875 227.757681 
L 368.0875 10.317681 
L 33.2875 10.317681 
z
" style="fill:#ffffff;"/>
   </g>
   <g id="matplotlib.axis_1">
    <g id="xtick_1">
     <g id="line2d_1">
      <defs>
       <path d="M 0 0 
L 0 3.5 
" id="m906dc44d4f" style="stroke:#000000;stroke-width:0.8;"/>
      </defs>
      <g>
       <use style="stroke:#000000;stroke-width:0.8;" x="47.283338" xlink:href="#m906dc44d4f" y="227.757681"/>
      </g>
     </g>
     <g id="text_1">
      <!-- 0 -->
      <g transform="translate(44.102088 242.356118)scale(0.1 -0.1)">
       <defs>
        <path d="M 2034 4250 
Q 1547 4250 1301 3770 
Q 1056 3291 1056 2328 
Q 1056 1369 1301 889 
Q 1547 409 2034 409 
Q 2525 409 2770 889 
Q 3016 1369 3016 2328 
Q 3016 3291 2770 3770 
Q 2525 4250 2034 4250 
z
M 2034 4750 
Q 2819 4750 3233 4129 
Q 3647 3509 3647 2328 
Q 3647 1150 3233 529 
Q 2819 -91 2034 -91 
Q 1250 -91 836 529 
Q 422 1150 422 2328 
Q 422 3509 836 4129 
Q 1250 4750 2034 4750 
z
" id="DejaVuSans-30" transform="scale(0.015625)"/>
       </defs>
       <use xlink:href="#DejaVuSans-30"/>
      </g>
     </g>
    </g>
    <g id="xtick_2">
     <g id="line2d_2">
      <g>
       <use style="stroke:#000000;stroke-width:0.8;" x="108.400534" xlink:href="#m906dc44d4f" y="227.757681"/>
      </g>
     </g>
     <g id="text_2">
      <!-- 50 -->
      <g transform="translate(102.038034 242.356118)scale(0.1 -0.1)">
       <defs>
        <path d="M 691 4666 
L 3169 4666 
L 3169 4134 
L 1269 4134 
L 1269 2991 
Q 1406 3038 1543 3061 
Q 1681 3084 1819 3084 
Q 2600 3084 3056 2656 
Q 3513 2228 3513 1497 
Q 3513 744 3044 326 
Q 2575 -91 1722 -91 
Q 1428 -91 1123 -41 
Q 819 9 494 109 
L 494 744 
Q 775 591 1075 516 
Q 1375 441 1709 441 
Q 2250 441 2565 725 
Q 2881 1009 2881 1497 
Q 2881 1984 2565 2268 
Q 2250 2553 1709 2553 
Q 1456 2553 1204 2497 
Q 953 2441 691 2322 
L 691 4666 
z
" id="DejaVuSans-35" transform="scale(0.015625)"/>
       </defs>
       <use xlink:href="#DejaVuSans-35"/>
       <use x="63.623047" xlink:href="#DejaVuSans-30"/>
      </g>
     </g>
    </g>
    <g id="xtick_3">
     <g id="line2d_3">
      <g>
       <use style="stroke:#000000;stroke-width:0.8;" x="169.51773" xlink:href="#m906dc44d4f" y="227.757681"/>
      </g>
     </g>
     <g id="text_3">
      <!-- 100 -->
      <g transform="translate(159.97398 242.356118)scale(0.1 -0.1)">
       <defs>
        <path d="M 794 531 
L 1825 531 
L 1825 4091 
L 703 3866 
L 703 4441 
L 1819 4666 
L 2450 4666 
L 2450 531 
L 3481 531 
L 3481 0 
L 794 0 
L 794 531 
z
" id="DejaVuSans-31" transform="scale(0.015625)"/>
       </defs>
       <use xlink:href="#DejaVuSans-31"/>
       <use x="63.623047" xlink:href="#DejaVuSans-30"/>
       <use x="127.246094" xlink:href="#DejaVuSans-30"/>
      </g>
     </g>
    </g>
    <g id="xtick_4">
     <g id="line2d_4">
      <g>
       <use style="stroke:#000000;stroke-width:0.8;" x="230.634926" xlink:href="#m906dc44d4f" y="227.757681"/>
      </g>
     </g>
     <g id="text_4">
      <!-- 150 -->
      <g transform="translate(221.091176 242.356118)scale(0.1 -0.1)">
       <use xlink:href="#DejaVuSans-31"/>
       <use x="63.623047" xlink:href="#DejaVuSans-35"/>
       <use x="127.246094" xlink:href="#DejaVuSans-30"/>
      </g>
     </g>
    </g>
    <g id="xtick_5">
     <g id="line2d_5">
      <g>
       <use style="stroke:#000000;stroke-width:0.8;" x="291.752122" xlink:href="#m906dc44d4f" y="227.757681"/>
      </g>
     </g>
     <g id="text_5">
      <!-- 200 -->
      <g transform="translate(282.208372 242.356118)scale(0.1 -0.1)">
       <defs>
        <path d="M 1228 531 
L 3431 531 
L 3431 0 
L 469 0 
L 469 531 
Q 828 903 1448 1529 
Q 2069 2156 2228 2338 
Q 2531 2678 2651 2914 
Q 2772 3150 2772 3378 
Q 2772 3750 2511 3984 
Q 2250 4219 1831 4219 
Q 1534 4219 1204 4116 
Q 875 4013 500 3803 
L 500 4441 
Q 881 4594 1212 4672 
Q 1544 4750 1819 4750 
Q 2544 4750 2975 4387 
Q 3406 4025 3406 3419 
Q 3406 3131 3298 2873 
Q 3191 2616 2906 2266 
Q 2828 2175 2409 1742 
Q 1991 1309 1228 531 
z
" id="DejaVuSans-32" transform="scale(0.015625)"/>
       </defs>
       <use xlink:href="#DejaVuSans-32"/>
       <use x="63.623047" xlink:href="#DejaVuSans-30"/>
       <use x="127.246094" xlink:href="#DejaVuSans-30"/>
      </g>
     </g>
    </g>
    <g id="xtick_6">
     <g id="line2d_6">
      <g>
       <use style="stroke:#000000;stroke-width:0.8;" x="352.869318" xlink:href="#m906dc44d4f" y="227.757681"/>
      </g>
     </g>
     <g id="text_6">
      <!-- 250 -->
      <g transform="translate(343.325568 242.356118)scale(0.1 -0.1)">
       <use xlink:href="#DejaVuSans-32"/>
       <use x="63.623047" xlink:href="#DejaVuSans-35"/>
       <use x="127.246094" xlink:href="#DejaVuSans-30"/>
      </g>
     </g>
    </g>
   </g>
   <g id="matplotlib.axis_2">
    <g id="ytick_1">
     <g id="line2d_7">
      <defs>
       <path d="M 0 0 
L -3.5 0 
" id="m6056699f89" style="stroke:#000000;stroke-width:0.8;"/>
      </defs>
      <g>
       <use style="stroke:#000000;stroke-width:0.8;" x="33.2875" xlink:href="#m6056699f89" y="219.63655"/>
      </g>
     </g>
     <g id="text_7">
      <!-- 0 -->
      <g transform="translate(19.925 223.435769)scale(0.1 -0.1)">
       <use xlink:href="#DejaVuSans-30"/>
      </g>
     </g>
    </g>
    <g id="ytick_2">
     <g id="line2d_8">
      <g>
       <use style="stroke:#000000;stroke-width:0.8;" x="33.2875" xlink:href="#m6056699f89" y="189.831217"/>
      </g>
     </g>
     <g id="text_8">
      <!-- 20 -->
      <g transform="translate(13.5625 193.630436)scale(0.1 -0.1)">
       <use xlink:href="#DejaVuSans-32"/>
       <use x="63.623047" xlink:href="#DejaVuSans-30"/>
      </g>
     </g>
    </g>
    <g id="ytick_3">
     <g id="line2d_9">
      <g>
       <use style="stroke:#000000;stroke-width:0.8;" x="33.2875" xlink:href="#m6056699f89" y="160.025884"/>
      </g>
     </g>
     <g id="text_9">
      <!-- 40 -->
      <g transform="translate(13.5625 163.825103)scale(0.1 -0.1)">
       <defs>
        <path d="M 2419 4116 
L 825 1625 
L 2419 1625 
L 2419 4116 
z
M 2253 4666 
L 3047 4666 
L 3047 1625 
L 3713 1625 
L 3713 1100 
L 3047 1100 
L 3047 0 
L 2419 0 
L 2419 1100 
L 313 1100 
L 313 1709 
L 2253 4666 
z
" id="DejaVuSans-34" transform="scale(0.015625)"/>
       </defs>
       <use xlink:href="#DejaVuSans-34"/>
       <use x="63.623047" xlink:href="#DejaVuSans-30"/>
      </g>
     </g>
    </g>
    <g id="ytick_4">
     <g id="line2d_10">
      <g>
       <use style="stroke:#000000;stroke-width:0.8;" x="33.2875" xlink:href="#m6056699f89" y="130.220551"/>
      </g>
     </g>
     <g id="text_10">
      <!-- 60 -->
      <g transform="translate(13.5625 134.01977)scale(0.1 -0.1)">
       <defs>
        <path d="M 2113 2584 
Q 1688 2584 1439 2293 
Q 1191 2003 1191 1497 
Q 1191 994 1439 701 
Q 1688 409 2113 409 
Q 2538 409 2786 701 
Q 3034 994 3034 1497 
Q 3034 2003 2786 2293 
Q 2538 2584 2113 2584 
z
M 3366 4563 
L 3366 3988 
Q 3128 4100 2886 4159 
Q 2644 4219 2406 4219 
Q 1781 4219 1451 3797 
Q 1122 3375 1075 2522 
Q 1259 2794 1537 2939 
Q 1816 3084 2150 3084 
Q 2853 3084 3261 2657 
Q 3669 2231 3669 1497 
Q 3669 778 3244 343 
Q 2819 -91 2113 -91 
Q 1303 -91 875 529 
Q 447 1150 447 2328 
Q 447 3434 972 4092 
Q 1497 4750 2381 4750 
Q 2619 4750 2861 4703 
Q 3103 4656 3366 4563 
z
" id="DejaVuSans-36" transform="scale(0.015625)"/>
       </defs>
       <use xlink:href="#DejaVuSans-36"/>
       <use x="63.623047" xlink:href="#DejaVuSans-30"/>
      </g>
     </g>
    </g>
    <g id="ytick_5">
     <g id="line2d_11">
      <g>
       <use style="stroke:#000000;stroke-width:0.8;" x="33.2875" xlink:href="#m6056699f89" y="100.415218"/>
      </g>
     </g>
     <g id="text_11">
      <!-- 80 -->
      <g transform="translate(13.5625 104.214437)scale(0.1 -0.1)">
       <defs>
        <path d="M 2034 2216 
Q 1584 2216 1326 1975 
Q 1069 1734 1069 1313 
Q 1069 891 1326 650 
Q 1584 409 2034 409 
Q 2484 409 2743 651 
Q 3003 894 3003 1313 
Q 3003 1734 2745 1975 
Q 2488 2216 2034 2216 
z
M 1403 2484 
Q 997 2584 770 2862 
Q 544 3141 544 3541 
Q 544 4100 942 4425 
Q 1341 4750 2034 4750 
Q 2731 4750 3128 4425 
Q 3525 4100 3525 3541 
Q 3525 3141 3298 2862 
Q 3072 2584 2669 2484 
Q 3125 2378 3379 2068 
Q 3634 1759 3634 1313 
Q 3634 634 3220 271 
Q 2806 -91 2034 -91 
Q 1263 -91 848 271 
Q 434 634 434 1313 
Q 434 1759 690 2068 
Q 947 2378 1403 2484 
z
M 1172 3481 
Q 1172 3119 1398 2916 
Q 1625 2713 2034 2713 
Q 2441 2713 2670 2916 
Q 2900 3119 2900 3481 
Q 2900 3844 2670 4047 
Q 2441 4250 2034 4250 
Q 1625 4250 1398 4047 
Q 1172 3844 1172 3481 
z
" id="DejaVuSans-38" transform="scale(0.015625)"/>
       </defs>
       <use xlink:href="#DejaVuSans-38"/>
       <use x="63.623047" xlink:href="#DejaVuSans-30"/>
      </g>
     </g>
    </g>
    <g id="ytick_6">
     <g id="line2d_12">
      <g>
       <use style="stroke:#000000;stroke-width:0.8;" x="33.2875" xlink:href="#m6056699f89" y="70.609885"/>
      </g>
     </g>
     <g id="text_12">
      <!-- 100 -->
      <g transform="translate(7.2 74.409104)scale(0.1 -0.1)">
       <use xlink:href="#DejaVuSans-31"/>
       <use x="63.623047" xlink:href="#DejaVuSans-30"/>
       <use x="127.246094" xlink:href="#DejaVuSans-30"/>
      </g>
     </g>
    </g>
    <g id="ytick_7">
     <g id="line2d_13">
      <g>
       <use style="stroke:#000000;stroke-width:0.8;" x="33.2875" xlink:href="#m6056699f89" y="40.804552"/>
      </g>
     </g>
     <g id="text_13">
      <!-- 120 -->
      <g transform="translate(7.2 44.603771)scale(0.1 -0.1)">
       <use xlink:href="#DejaVuSans-31"/>
       <use x="63.623047" xlink:href="#DejaVuSans-32"/>
       <use x="127.246094" xlink:href="#DejaVuSans-30"/>
      </g>
     </g>
    </g>
    <g id="ytick_8">
     <g id="line2d_14">
      <g>
       <use style="stroke:#000000;stroke-width:0.8;" x="33.2875" xlink:href="#m6056699f89" y="10.999219"/>
      </g>
     </g>
     <g id="text_14">
      <!-- 140 -->
      <g transform="translate(7.2 14.798438)scale(0.1 -0.1)">
       <use xlink:href="#DejaVuSans-31"/>
       <use x="63.623047" xlink:href="#DejaVuSans-34"/>
       <use x="127.246094" xlink:href="#DejaVuSans-30"/>
      </g>
     </g>
    </g>
   </g>
   <g id="line2d_15">
    <path clip-path="url(#p747a0728ef)" d="M 48.505682 74.204766 
L 49.728026 73.942956 
L 50.95037 75.725896 
L 52.172714 81.756528 
L 53.395058 83.797299 
L 54.617401 77.737413 
L 55.839745 85.194305 
L 57.062089 86.567139 
L 58.284433 83.25511 
L 59.506777 86.094262 
L 60.729121 90.636282 
L 61.951465 92.139529 
L 63.173809 89.788812 
L 64.396153 91.951397 
L 65.618497 100.342925 
L 66.840841 97.152652 
L 68.063185 89.62448 
L 69.285528 99.231842 
L 70.507872 98.499182 
L 71.730216 98.076393 
L 72.95256 101.56697 
L 74.174904 101.260572 
L 75.397248 103.541872 
L 76.619592 105.25161 
L 77.841936 104.627054 
L 79.06428 108.94926 
L 80.286624 110.669743 
L 81.508968 109.582951 
L 82.731312 111.62396 
L 83.953656 112.452221 
L 85.175999 119.905283 
L 86.398343 118.390293 
L 87.620687 115.970517 
L 88.843031 116.702849 
L 91.287719 124.44006 
L 92.510063 115.742059 
L 93.732407 124.846828 
L 94.954751 125.196057 
L 96.177095 130.193205 
L 97.399439 126.234371 
L 98.621783 121.567079 
L 99.844127 131.49765 
L 101.06647 135.24348 
L 102.288814 128.40563 
L 103.511158 138.584076 
L 104.733502 125.847468 
L 105.955846 135.210798 
L 107.17819 134.492221 
L 108.400534 132.758639 
L 109.622878 131.833854 
L 110.845222 132.453388 
L 112.067566 137.330837 
L 113.28991 132.748416 
L 114.512254 134.047004 
L 115.734597 142.598601 
L 116.956941 145.225569 
L 118.179285 139.597905 
L 119.401629 137.08007 
L 120.623973 140.805781 
L 121.846317 141.67103 
L 123.068661 139.181226 
L 124.291005 139.845319 
L 125.513349 135.510312 
L 126.735693 143.151952 
L 127.958037 140.478414 
L 129.180381 140.225739 
L 130.402725 145.413 
L 131.625068 138.125462 
L 132.847412 135.561264 
L 134.069756 138.277499 
L 135.2921 138.5881 
L 136.514444 129.991735 
L 137.736788 130.53689 
L 138.959132 129.475492 
L 140.181476 122.115214 
L 141.40382 129.177349 
L 142.626164 124.678771 
L 143.848508 118.639108 
L 145.070852 123.202379 
L 146.293196 114.1526 
L 147.515539 114.741881 
L 148.737883 104.552809 
L 149.960227 101.120636 
L 151.182571 100.220336 
L 152.404915 91.953141 
L 153.627259 92.656189 
L 154.849603 85.146721 
L 156.071947 80.118487 
L 157.294291 76.772003 
L 158.516635 80.341445 
L 159.738979 61.945922 
L 160.961323 58.945717 
L 162.183666 49.655693 
L 163.40601 47.50792 
L 164.628354 43.023559 
L 165.850698 41.374281 
L 167.073042 37.534907 
L 168.295386 30.387141 
L 169.51773 32.309287 
L 170.740074 35.22395 
L 171.962418 24.926804 
L 173.184762 26.323929 
L 174.407106 23.183639 
L 176.851794 22.922246 
L 178.074137 22.73939 
L 179.296481 20.773282 
L 180.518825 20.201317 
L 181.741169 20.433352 
L 182.963513 28.457544 
L 185.408201 33.718334 
L 186.630545 43.186594 
L 187.852889 37.774244 
L 189.075233 47.949039 
L 190.297577 42.614332 
L 191.519921 54.606358 
L 192.742265 55.408718 
L 193.964608 62.900884 
L 195.186952 65.472638 
L 196.409296 78.742568 
L 197.63164 78.947539 
L 198.853984 78.687667 
L 200.076328 87.351466 
L 201.298672 89.554944 
L 202.521016 81.780283 
L 203.74336 91.056388 
L 204.965704 96.774392 
L 207.410392 102.850194 
L 208.632735 102.288379 
L 209.855079 106.185739 
L 211.077423 101.71014 
L 212.299767 105.242758 
L 213.522111 103.980398 
L 214.744455 103.743982 
L 215.966799 98.504398 
L 217.189143 100.798112 
L 218.411487 97.465026 
L 219.633831 100.371225 
L 220.856175 91.544674 
L 222.078519 91.52074 
L 223.300863 100.492876 
L 224.523206 89.729663 
L 225.74555 84.752635 
L 226.967894 80.693431 
L 228.190238 86.782214 
L 229.412582 80.87049 
L 230.634926 85.000839 
L 231.85727 80.007193 
L 233.079614 76.954606 
L 234.301958 82.753993 
L 235.524302 75.460658 
L 236.746646 89.074348 
L 237.96899 84.811947 
L 240.413677 91.910668 
L 241.636021 92.943602 
L 242.858365 102.605314 
L 244.080709 98.416055 
L 245.303053 107.579004 
L 246.525397 111.352061 
L 247.747741 115.533913 
L 248.970085 120.83968 
L 250.192429 124.877915 
L 251.414773 132.696674 
L 252.637117 133.934802 
L 253.859461 140.943049 
L 255.081804 143.941153 
L 256.304148 149.542007 
L 257.526492 150.382518 
L 258.748836 155.420722 
L 259.97118 168.795641 
L 261.193524 161.095374 
L 262.415868 170.928883 
L 263.638212 174.271999 
L 264.860556 171.963933 
L 266.0829 184.416631 
L 267.305244 184.322551 
L 268.527588 189.431647 
L 269.749932 191.216062 
L 272.194619 195.661364 
L 273.416963 191.406921 
L 274.639307 191.897412 
L 275.861651 193.917528 
L 277.083995 194.864071 
L 278.306339 199.542286 
L 279.528683 196.72151 
L 280.751027 199.559559 
L 281.973371 195.849093 
L 283.195715 201.268313 
L 284.418059 195.287381 
L 285.640403 204.080655 
L 286.862746 205.287197 
L 288.08509 200.080258 
L 289.307434 206.56331 
L 290.529778 202.108883 
L 291.752122 200.933406 
L 292.974466 202.750219 
L 294.19681 202.938217 
L 295.419154 207.987261 
L 296.641498 209.501731 
L 297.863842 198.376689 
L 299.086186 203.74606 
L 300.30853 206.355929 
L 301.530873 202.398144 
L 303.975561 202.363302 
L 305.197905 205.136056 
L 306.420249 202.584368 
L 307.642593 202.902167 
L 308.864937 204.477364 
L 310.087281 200.99473 
L 311.309625 210.394672 
L 312.531969 206.194934 
L 313.754313 203.532624 
L 314.976657 200.119645 
L 316.199001 213.803243 
L 317.421344 205.377849 
L 318.643688 207.657119 
L 319.866032 204.389572 
L 321.088376 205.676611 
L 323.533064 210.518242 
L 324.755408 206.532327 
L 325.977752 208.0174 
L 327.200096 201.081762 
L 328.42244 203.815864 
L 329.644784 210.693455 
L 330.867128 209.55475 
L 332.089472 206.57488 
L 333.311815 212.801564 
L 334.534159 207.132046 
L 335.756503 208.892917 
L 336.978847 204.715866 
L 338.201191 208.716679 
L 339.423535 209.912358 
L 340.645879 215.404096 
L 341.868223 204.251469 
L 343.090567 212.498121 
L 344.312911 207.153434 
L 345.535255 210.30155 
L 346.757599 215.60405 
L 347.979942 207.174778 
L 349.202286 206.248729 
L 350.42463 214.625575 
L 351.646974 217.874045 
L 352.869318 212.371035 
L 352.869318 212.371035 
" style="fill:none;stroke:#1f77b4;stroke-linecap:square;stroke-width:1.5;"/>
   </g>
   <g id="line2d_16">
    <path clip-path="url(#p747a0728ef)" d="M 48.505682 80.012154 
L 54.617401 86.151256 
L 60.729121 92.02043 
L 68.063185 98.723807 
L 75.397248 105.075064 
L 82.731312 111.092638 
L 90.065375 116.793588 
L 97.399439 122.191491 
L 104.733502 127.285795 
L 110.845222 131.262012 
L 115.734597 134.188615 
L 119.401629 136.147484 
L 121.846317 137.284677 
L 124.291005 138.234228 
L 126.735693 138.935477 
L 129.180381 139.312133 
L 130.402725 139.350442 
L 131.625068 139.271651 
L 132.847412 139.061801 
L 134.069756 138.706143 
L 135.2921 138.189298 
L 136.514444 137.495451 
L 137.736788 136.60861 
L 138.959132 135.512893 
L 140.181476 134.192882 
L 141.40382 132.634012 
L 142.626164 130.823002 
L 143.848508 128.748328 
L 145.070852 126.400708 
L 146.293196 123.773615 
L 148.737883 117.671697 
L 151.182571 110.464167 
L 153.627259 102.246028 
L 156.071947 93.194918 
L 160.961323 73.724851 
L 164.628354 59.425887 
L 167.073042 50.865586 
L 168.295386 47.046069 
L 169.51773 43.603895 
L 170.740074 40.586748 
L 171.962418 38.036909 
L 173.184762 35.990173 
L 174.407106 34.474895 
L 175.62945 33.511173 
L 176.851794 33.110207 
L 178.074137 33.27386 
L 179.296481 33.994421 
L 180.518825 35.254599 
L 181.741169 37.027738 
L 182.963513 39.278251 
L 184.185857 41.962272 
L 185.408201 45.028496 
L 187.852889 52.071389 
L 191.519921 63.915531 
L 195.186952 75.621349 
L 197.63164 82.47083 
L 198.853984 85.441628 
L 200.076328 88.050707 
L 201.298672 90.263674 
L 202.521016 92.054775 
L 203.74336 93.407277 
L 204.965704 94.313655 
L 206.188048 94.77561 
L 207.410392 94.803901 
L 208.632735 94.41801 
L 209.855079 93.645648 
L 211.077423 92.522109 
L 212.299767 91.089492 
L 213.522111 89.395808 
L 215.966799 85.440785 
L 220.856175 76.919741 
L 223.300863 73.315119 
L 224.523206 71.871942 
L 225.74555 70.73181 
L 226.967894 69.935411 
L 228.190238 69.51699 
L 229.412582 69.503822 
L 230.634926 69.915848 
L 231.85727 70.765473 
L 233.079614 72.057523 
L 234.301958 73.789363 
L 235.524302 75.951175 
L 236.746646 78.526378 
L 237.96899 81.492171 
L 239.191334 84.820205 
L 241.636021 92.426435 
L 244.080709 101.037545 
L 247.747741 115.08633 
L 253.859461 138.723816 
L 256.304148 147.435463 
L 258.748836 155.424807 
L 261.193524 162.580057 
L 263.638212 168.849116 
L 266.0829 174.231601 
L 268.527588 178.768334 
L 270.972275 182.529829 
L 273.416963 185.605064 
L 275.861651 188.091515 
L 278.306339 190.087061 
L 280.751027 191.684003 
L 283.195715 192.965162 
L 285.640403 194.001818 
L 289.307434 195.224518 
L 292.974466 196.17908 
L 297.863842 197.206248 
L 305.197905 198.483235 
L 316.199001 200.152181 
L 330.867128 202.147193 
L 346.757599 204.076878 
L 352.869318 204.761016 
L 352.869318 204.761016 
" style="fill:none;stroke:#ff7f0e;stroke-dasharray:5.55,2.4;stroke-dashoffset:0;stroke-width:1.5;"/>
   </g>
   <g id="line2d_17">
    <path clip-path="url(#p747a0728ef)" d="M 48.505682 73.686407 
L 54.617401 81.493414 
L 60.729121 88.882811 
L 66.840841 95.876908 
L 72.95256 102.496723 
L 79.06428 108.761751 
L 85.175999 114.688984 
L 91.287719 120.289731 
L 97.399439 125.560718 
L 102.288814 129.515739 
L 107.17819 133.181332 
L 110.845222 135.67627 
L 114.512254 137.867804 
L 116.956941 139.103828 
L 119.401629 140.107031 
L 121.846317 140.820527 
L 124.291005 141.176583 
L 125.513349 141.196498 
L 126.735693 141.096934 
L 127.958037 140.866678 
L 129.180381 140.494085 
L 130.402725 139.967197 
L 131.625068 139.273878 
L 132.847412 138.401976 
L 134.069756 137.339508 
L 135.2921 136.074872 
L 136.514444 134.597078 
L 137.736788 132.896003 
L 138.959132 130.962661 
L 140.181476 128.789485 
L 141.40382 126.370622 
L 143.848508 120.782765 
L 146.293196 114.197637 
L 148.737883 106.659149 
L 151.182571 98.263535 
L 153.627259 89.163639 
L 158.516635 69.745184 
L 162.183666 55.261999 
L 164.628354 46.27984 
L 167.073042 38.251741 
L 168.295386 34.703062 
L 169.51773 31.518044 
L 170.740074 28.733047 
L 171.962418 26.380672 
L 173.184762 24.489141 
L 174.407106 23.081734 
L 175.62945 22.176293 
L 176.851794 21.78481 
L 178.074137 21.913091 
L 179.296481 22.560536 
L 180.518825 23.719998 
L 181.741169 25.377765 
L 182.963513 27.513636 
L 184.185857 30.101112 
L 185.408201 33.107675 
L 186.630545 36.495183 
L 189.075233 44.235273 
L 191.519921 52.923907 
L 198.853984 80.089607 
L 201.298672 87.961716 
L 202.521016 91.439954 
L 203.74336 94.556958 
L 204.965704 97.278152 
L 206.188048 99.575755 
L 207.410392 101.429373 
L 208.632735 102.8265 
L 209.855079 103.762891 
L 211.077423 104.242807 
L 212.299767 104.279112 
L 213.522111 103.893207 
L 214.744455 103.114799 
L 215.966799 101.981495 
L 217.189143 100.538217 
L 218.411487 98.836443 
L 220.856175 94.890423 
L 224.523206 88.582669 
L 226.967894 84.898363 
L 228.190238 83.404889 
L 229.412582 82.220333 
L 230.634926 81.394621 
L 231.85727 80.970424 
L 233.079614 80.982275 
L 234.301958 81.455881 
L 235.524302 82.407683 
L 236.746646 83.844638 
L 237.96899 85.764259 
L 239.191334 88.154895 
L 240.413677 90.996237 
L 241.636021 94.260038 
L 244.080709 101.907878 
L 246.525397 110.751289 
L 250.192429 125.367863 
L 255.081804 145.22367 
L 257.526492 154.509842 
L 259.97118 163.022421 
L 262.415868 170.605477 
L 264.860556 177.183624 
L 267.305244 182.7517 
L 269.749932 187.360059 
L 272.194619 191.098064 
L 274.639307 194.078023 
L 277.083995 196.421186 
L 279.528683 198.24676 
L 281.973371 199.664249 
L 284.418059 200.768945 
L 286.862746 201.640062 
L 290.529778 202.643076 
L 295.419154 203.636919 
L 301.530873 204.606045 
L 311.309625 205.906189 
L 324.755408 207.473372 
L 340.645879 209.093432 
L 352.869318 210.191188 
L 352.869318 210.191188 
" style="fill:none;stroke:#2ca02c;stroke-linecap:square;stroke-width:1.5;"/>
   </g>
   <g id="patch_3">
    <path d="M 33.2875 227.757681 
L 33.2875 10.317681 
" style="fill:none;stroke:#000000;stroke-linecap:square;stroke-linejoin:miter;stroke-width:0.8;"/>
   </g>
   <g id="patch_4">
    <path d="M 368.0875 227.757681 
L 368.0875 10.317681 
" style="fill:none;stroke:#000000;stroke-linecap:square;stroke-linejoin:miter;stroke-width:0.8;"/>
   </g>
   <g id="patch_5">
    <path d="M 33.2875 227.757681 
L 368.0875 227.757681 
" style="fill:none;stroke:#000000;stroke-linecap:square;stroke-linejoin:miter;stroke-width:0.8;"/>
   </g>
   <g id="patch_6">
    <path d="M 33.2875 10.317681 
L 368.0875 10.317681 
" style="fill:none;stroke:#000000;stroke-linecap:square;stroke-linejoin:miter;stroke-width:0.8;"/>
   </g>
   <g id="legend_1">
    <g id="patch_7">
     <path d="M 288.192188 47.673931 
L 361.0875 47.673931 
Q 363.0875 47.673931 363.0875 45.673931 
L 363.0875 17.317681 
Q 363.0875 15.317681 361.0875 15.317681 
L 288.192188 15.317681 
Q 286.192188 15.317681 286.192188 17.317681 
L 286.192188 45.673931 
Q 286.192188 47.673931 288.192188 47.673931 
z
" style="fill:#ffffff;opacity:0.8;stroke:#cccccc;stroke-linejoin:miter;"/>
    </g>
    <g id="line2d_18">
     <path d="M 290.192188 23.416118 
L 310.192188 23.416118 
" style="fill:none;stroke:#ff7f0e;stroke-dasharray:5.55,2.4;stroke-dashoffset:0;stroke-width:1.5;"/>
    </g>
    <g id="line2d_19"/>
    <g id="text_15">
     <!-- initial fit -->
     <g transform="translate(318.192188 26.916118)scale(0.1 -0.1)">
      <defs>
       <path d="M 603 3500 
L 1178 3500 
L 1178 0 
L 603 0 
L 603 3500 
z
M 603 4863 
L 1178 4863 
L 1178 4134 
L 603 4134 
L 603 4863 
z
" id="DejaVuSans-69" transform="scale(0.015625)"/>
       <path d="M 3513 2113 
L 3513 0 
L 2938 0 
L 2938 2094 
Q 2938 2591 2744 2837 
Q 2550 3084 2163 3084 
Q 1697 3084 1428 2787 
Q 1159 2491 1159 1978 
L 1159 0 
L 581 0 
L 581 3500 
L 1159 3500 
L 1159 2956 
Q 1366 3272 1645 3428 
Q 1925 3584 2291 3584 
Q 2894 3584 3203 3211 
Q 3513 2838 3513 2113 
z
" id="DejaVuSans-6e" transform="scale(0.015625)"/>
       <path d="M 1172 4494 
L 1172 3500 
L 2356 3500 
L 2356 3053 
L 1172 3053 
L 1172 1153 
Q 1172 725 1289 603 
Q 1406 481 1766 481 
L 2356 481 
L 2356 0 
L 1766 0 
Q 1100 0 847 248 
Q 594 497 594 1153 
L 594 3053 
L 172 3053 
L 172 3500 
L 594 3500 
L 594 4494 
L 1172 4494 
z
" id="DejaVuSans-74" transform="scale(0.015625)"/>
       <path d="M 2194 1759 
Q 1497 1759 1228 1600 
Q 959 1441 959 1056 
Q 959 750 1161 570 
Q 1363 391 1709 391 
Q 2188 391 2477 730 
Q 2766 1069 2766 1631 
L 2766 1759 
L 2194 1759 
z
M 3341 1997 
L 3341 0 
L 2766 0 
L 2766 531 
Q 2569 213 2275 61 
Q 1981 -91 1556 -91 
Q 1019 -91 701 211 
Q 384 513 384 1019 
Q 384 1609 779 1909 
Q 1175 2209 1959 2209 
L 2766 2209 
L 2766 2266 
Q 2766 2663 2505 2880 
Q 2244 3097 1772 3097 
Q 1472 3097 1187 3025 
Q 903 2953 641 2809 
L 641 3341 
Q 956 3463 1253 3523 
Q 1550 3584 1831 3584 
Q 2591 3584 2966 3190 
Q 3341 2797 3341 1997 
z
" id="DejaVuSans-61" transform="scale(0.015625)"/>
       <path d="M 603 4863 
L 1178 4863 
L 1178 0 
L 603 0 
L 603 4863 
z
" id="DejaVuSans-6c" transform="scale(0.015625)"/>
       <path id="DejaVuSans-20" transform="scale(0.015625)"/>
       <path d="M 2375 4863 
L 2375 4384 
L 1825 4384 
Q 1516 4384 1395 4259 
Q 1275 4134 1275 3809 
L 1275 3500 
L 2222 3500 
L 2222 3053 
L 1275 3053 
L 1275 0 
L 697 0 
L 697 3053 
L 147 3053 
L 147 3500 
L 697 3500 
L 697 3744 
Q 697 4328 969 4595 
Q 1241 4863 1831 4863 
L 2375 4863 
z
" id="DejaVuSans-66" transform="scale(0.015625)"/>
      </defs>
      <use xlink:href="#DejaVuSans-69"/>
      <use x="27.783203" xlink:href="#DejaVuSans-6e"/>
      <use x="91.162109" xlink:href="#DejaVuSans-69"/>
      <use x="118.945312" xlink:href="#DejaVuSans-74"/>
      <use x="158.154297" xlink:href="#DejaVuSans-69"/>
      <use x="185.9375" xlink:href="#DejaVuSans-61"/>
      <use x="247.216797" xlink:href="#DejaVuSans-6c"/>
      <use x="275" xlink:href="#DejaVuSans-20"/>
      <use x="306.787109" xlink:href="#DejaVuSans-66"/>
      <use x="341.992188" xlink:href="#DejaVuSans-69"/>
      <use x="369.775391" xlink:href="#DejaVuSans-74"/>
     </g>
    </g>
    <g id="line2d_20">
     <path d="M 290.192188 38.094243 
L 310.192188 38.094243 
" style="fill:none;stroke:#2ca02c;stroke-linecap:square;stroke-width:1.5;"/>
    </g>
    <g id="line2d_21"/>
    <g id="text_16">
     <!-- best fit -->
     <g transform="translate(318.192188 41.594243)scale(0.1 -0.1)">
      <defs>
       <path d="M 3116 1747 
Q 3116 2381 2855 2742 
Q 2594 3103 2138 3103 
Q 1681 3103 1420 2742 
Q 1159 2381 1159 1747 
Q 1159 1113 1420 752 
Q 1681 391 2138 391 
Q 2594 391 2855 752 
Q 3116 1113 3116 1747 
z
M 1159 2969 
Q 1341 3281 1617 3432 
Q 1894 3584 2278 3584 
Q 2916 3584 3314 3078 
Q 3713 2572 3713 1747 
Q 3713 922 3314 415 
Q 2916 -91 2278 -91 
Q 1894 -91 1617 61 
Q 1341 213 1159 525 
L 1159 0 
L 581 0 
L 581 4863 
L 1159 4863 
L 1159 2969 
z
" id="DejaVuSans-62" transform="scale(0.015625)"/>
       <path d="M 3597 1894 
L 3597 1613 
L 953 1613 
Q 991 1019 1311 708 
Q 1631 397 2203 397 
Q 2534 397 2845 478 
Q 3156 559 3463 722 
L 3463 178 
Q 3153 47 2828 -22 
Q 2503 -91 2169 -91 
Q 1331 -91 842 396 
Q 353 884 353 1716 
Q 353 2575 817 3079 
Q 1281 3584 2069 3584 
Q 2775 3584 3186 3129 
Q 3597 2675 3597 1894 
z
M 3022 2063 
Q 3016 2534 2758 2815 
Q 2500 3097 2075 3097 
Q 1594 3097 1305 2825 
Q 1016 2553 972 2059 
L 3022 2063 
z
" id="DejaVuSans-65" transform="scale(0.015625)"/>
       <path d="M 2834 3397 
L 2834 2853 
Q 2591 2978 2328 3040 
Q 2066 3103 1784 3103 
Q 1356 3103 1142 2972 
Q 928 2841 928 2578 
Q 928 2378 1081 2264 
Q 1234 2150 1697 2047 
L 1894 2003 
Q 2506 1872 2764 1633 
Q 3022 1394 3022 966 
Q 3022 478 2636 193 
Q 2250 -91 1575 -91 
Q 1294 -91 989 -36 
Q 684 19 347 128 
L 347 722 
Q 666 556 975 473 
Q 1284 391 1588 391 
Q 1994 391 2212 530 
Q 2431 669 2431 922 
Q 2431 1156 2273 1281 
Q 2116 1406 1581 1522 
L 1381 1569 
Q 847 1681 609 1914 
Q 372 2147 372 2553 
Q 372 3047 722 3315 
Q 1072 3584 1716 3584 
Q 2034 3584 2315 3537 
Q 2597 3491 2834 3397 
z
" id="DejaVuSans-73" transform="scale(0.015625)"/>
      </defs>
      <use xlink:href="#DejaVuSans-62"/>
      <use x="63.476562" xlink:href="#DejaVuSans-65"/>
      <use x="125" xlink:href="#DejaVuSans-73"/>
      <use x="177.099609" xlink:href="#DejaVuSans-74"/>
      <use x="216.308594" xlink:href="#DejaVuSans-20"/>
      <use x="248.095703" xlink:href="#DejaVuSans-66"/>
      <use x="283.300781" xlink:href="#DejaVuSans-69"/>
      <use x="311.083984" xlink:href="#DejaVuSans-74"/>
     </g>
    </g>
   </g>
  </g>
 </g>
 <defs>
  <clipPath id="p747a0728ef">
   <rect height="217.44" width="334.8" x="33.2875" y="10.317681"/>
  </clipPath>
 </defs>
</svg>
