<?xml version="1.0" encoding="utf-8" standalone="no"?>
<!DOCTYPE svg PUBLIC "-//W3C//DTD SVG 1.1//EN"
  "http://www.w3.org/Graphics/SVG/1.1/DTD/svg11.dtd">
<!-- Created with matplotlib (https://matplotlib.org/) -->
<svg height="251.635806pt" version="1.1" viewBox="0 0 375.2875 251.635806" width="375.2875pt" xmlns="http://www.w3.org/2000/svg" xmlns:xlink="http://www.w3.org/1999/xlink">
 <metadata>
  <rdf:RDF xmlns:cc="http://creativecommons.org/ns#" xmlns:dc="http://purl.org/dc/elements/1.1/" xmlns:rdf="http://www.w3.org/1999/02/22-rdf-syntax-ns#">
   <cc:Work>
    <dc:type rdf:resource="http://purl.org/dc/dcmitype/StillImage"/>
    <dc:date>2021-02-07T16:35:51.414977</dc:date>
    <dc:format>image/svg+xml</dc:format>
    <dc:creator>
     <cc:Agent>
      <dc:title>Matplotlib v3.3.2, https://matplotlib.org/</dc:title>
     </cc:Agent>
    </dc:creator>
   </cc:Work>
  </rdf:RDF>
 </metadata>
 <defs>
  <style type="text/css">*{stroke-linecap:butt;stroke-linejoin:round;}</style>
 </defs>
 <g id="figure_1">
  <g id="patch_1">
   <path d="M 0 251.635806 
L 375.2875 251.635806 
L 375.2875 0 
L 0 0 
z
" style="fill:none;"/>
  </g>
  <g id="axes_1">
   <g id="patch_2">
    <path d="M 33.2875 227.757681 
L 368.0875 227.757681 
L 368.0875 10.317681 
L 33.2875 10.317681 
z
" style="fill:#ffffff;"/>
   </g>
   <g id="matplotlib.axis_1">
    <g id="xtick_1">
     <g id="line2d_1">
      <defs>
       <path d="M 0 0 
L 0 3.5 
" id="mb5ab66e41d" style="stroke:#000000;stroke-width:0.8;"/>
      </defs>
      <g>
       <use style="stroke:#000000;stroke-width:0.8;" x="47.283338" xlink:href="#mb5ab66e41d" y="227.757681"/>
      </g>
     </g>
     <g id="text_1">
      <!-- 0 -->
      <g transform="translate(44.102088 242.356118)scale(0.1 -0.1)">
       <defs>
        <path d="M 31.78125 66.40625 
Q 24.171875 66.40625 20.328125 58.90625 
Q 16.5 51.421875 16.5 36.375 
Q 16.5 21.390625 20.328125 13.890625 
Q 24.171875 6.390625 31.78125 6.390625 
Q 39.453125 6.390625 43.28125 13.890625 
Q 47.125 21.390625 47.125 36.375 
Q 47.125 51.421875 43.28125 58.90625 
Q 39.453125 66.40625 31.78125 66.40625 
z
M 31.78125 74.21875 
Q 44.046875 74.21875 50.515625 64.515625 
Q 56.984375 54.828125 56.984375 36.375 
Q 56.984375 17.96875 50.515625 8.265625 
Q 44.046875 -1.421875 31.78125 -1.421875 
Q 19.53125 -1.421875 13.0625 8.265625 
Q 6.59375 17.96875 6.59375 36.375 
Q 6.59375 54.828125 13.0625 64.515625 
Q 19.53125 74.21875 31.78125 74.21875 
z
" id="DejaVuSans-48"/>
       </defs>
       <use xlink:href="#DejaVuSans-48"/>
      </g>
     </g>
    </g>
    <g id="xtick_2">
     <g id="line2d_2">
      <g>
       <use style="stroke:#000000;stroke-width:0.8;" x="108.400534" xlink:href="#mb5ab66e41d" y="227.757681"/>
      </g>
     </g>
     <g id="text_2">
      <!-- 50 -->
      <g transform="translate(102.038034 242.356118)scale(0.1 -0.1)">
       <defs>
        <path d="M 10.796875 72.90625 
L 49.515625 72.90625 
L 49.515625 64.59375 
L 19.828125 64.59375 
L 19.828125 46.734375 
Q 21.96875 47.46875 24.109375 47.828125 
Q 26.265625 48.1875 28.421875 48.1875 
Q 40.625 48.1875 47.75 41.5 
Q 54.890625 34.8125 54.890625 23.390625 
Q 54.890625 11.625 47.5625 5.09375 
Q 40.234375 -1.421875 26.90625 -1.421875 
Q 22.3125 -1.421875 17.546875 -0.640625 
Q 12.796875 0.140625 7.71875 1.703125 
L 7.71875 11.625 
Q 12.109375 9.234375 16.796875 8.0625 
Q 21.484375 6.890625 26.703125 6.890625 
Q 35.15625 6.890625 40.078125 11.328125 
Q 45.015625 15.765625 45.015625 23.390625 
Q 45.015625 31 40.078125 35.4375 
Q 35.15625 39.890625 26.703125 39.890625 
Q 22.75 39.890625 18.8125 39.015625 
Q 14.890625 38.140625 10.796875 36.28125 
z
" id="DejaVuSans-53"/>
       </defs>
       <use xlink:href="#DejaVuSans-53"/>
       <use x="63.623047" xlink:href="#DejaVuSans-48"/>
      </g>
     </g>
    </g>
    <g id="xtick_3">
     <g id="line2d_3">
      <g>
       <use style="stroke:#000000;stroke-width:0.8;" x="169.51773" xlink:href="#mb5ab66e41d" y="227.757681"/>
      </g>
     </g>
     <g id="text_3">
      <!-- 100 -->
      <g transform="translate(159.97398 242.356118)scale(0.1 -0.1)">
       <defs>
        <path d="M 12.40625 8.296875 
L 28.515625 8.296875 
L 28.515625 63.921875 
L 10.984375 60.40625 
L 10.984375 69.390625 
L 28.421875 72.90625 
L 38.28125 72.90625 
L 38.28125 8.296875 
L 54.390625 8.296875 
L 54.390625 0 
L 12.40625 0 
z
" id="DejaVuSans-49"/>
       </defs>
       <use xlink:href="#DejaVuSans-49"/>
       <use x="63.623047" xlink:href="#DejaVuSans-48"/>
       <use x="127.246094" xlink:href="#DejaVuSans-48"/>
      </g>
     </g>
    </g>
    <g id="xtick_4">
     <g id="line2d_4">
      <g>
       <use style="stroke:#000000;stroke-width:0.8;" x="230.634926" xlink:href="#mb5ab66e41d" y="227.757681"/>
      </g>
     </g>
     <g id="text_4">
      <!-- 150 -->
      <g transform="translate(221.091176 242.356118)scale(0.1 -0.1)">
       <use xlink:href="#DejaVuSans-49"/>
       <use x="63.623047" xlink:href="#DejaVuSans-53"/>
       <use x="127.246094" xlink:href="#DejaVuSans-48"/>
      </g>
     </g>
    </g>
    <g id="xtick_5">
     <g id="line2d_5">
      <g>
       <use style="stroke:#000000;stroke-width:0.8;" x="291.752122" xlink:href="#mb5ab66e41d" y="227.757681"/>
      </g>
     </g>
     <g id="text_5">
      <!-- 200 -->
      <g transform="translate(282.208372 242.356118)scale(0.1 -0.1)">
       <defs>
        <path d="M 19.1875 8.296875 
L 53.609375 8.296875 
L 53.609375 0 
L 7.328125 0 
L 7.328125 8.296875 
Q 12.9375 14.109375 22.625 23.890625 
Q 32.328125 33.6875 34.8125 36.53125 
Q 39.546875 41.84375 41.421875 45.53125 
Q 43.3125 49.21875 43.3125 52.78125 
Q 43.3125 58.59375 39.234375 62.25 
Q 35.15625 65.921875 28.609375 65.921875 
Q 23.96875 65.921875 18.8125 64.3125 
Q 13.671875 62.703125 7.8125 59.421875 
L 7.8125 69.390625 
Q 13.765625 71.78125 18.9375 73 
Q 24.125 74.21875 28.421875 74.21875 
Q 39.75 74.21875 46.484375 68.546875 
Q 53.21875 62.890625 53.21875 53.421875 
Q 53.21875 48.921875 51.53125 44.890625 
Q 49.859375 40.875 45.40625 35.40625 
Q 44.1875 33.984375 37.640625 27.21875 
Q 31.109375 20.453125 19.1875 8.296875 
z
" id="DejaVuSans-50"/>
       </defs>
       <use xlink:href="#DejaVuSans-50"/>
       <use x="63.623047" xlink:href="#DejaVuSans-48"/>
       <use x="127.246094" xlink:href="#DejaVuSans-48"/>
      </g>
     </g>
    </g>
    <g id="xtick_6">
     <g id="line2d_6">
      <g>
       <use style="stroke:#000000;stroke-width:0.8;" x="352.869318" xlink:href="#mb5ab66e41d" y="227.757681"/>
      </g>
     </g>
     <g id="text_6">
      <!-- 250 -->
      <g transform="translate(343.325568 242.356118)scale(0.1 -0.1)">
       <use xlink:href="#DejaVuSans-50"/>
       <use x="63.623047" xlink:href="#DejaVuSans-53"/>
       <use x="127.246094" xlink:href="#DejaVuSans-48"/>
      </g>
     </g>
    </g>
   </g>
   <g id="matplotlib.axis_2">
    <g id="ytick_1">
     <g id="line2d_7">
      <defs>
       <path d="M 0 0 
L -3.5 0 
" id="m702a67012f" style="stroke:#000000;stroke-width:0.8;"/>
      </defs>
      <g>
       <use style="stroke:#000000;stroke-width:0.8;" x="33.2875" xlink:href="#m702a67012f" y="219.63655"/>
      </g>
     </g>
     <g id="text_7">
      <!-- 0 -->
      <g transform="translate(19.925 223.435769)scale(0.1 -0.1)">
       <use xlink:href="#DejaVuSans-48"/>
      </g>
     </g>
    </g>
    <g id="ytick_2">
     <g id="line2d_8">
      <g>
       <use style="stroke:#000000;stroke-width:0.8;" x="33.2875" xlink:href="#m702a67012f" y="189.831217"/>
      </g>
     </g>
     <g id="text_8">
      <!-- 20 -->
      <g transform="translate(13.5625 193.630436)scale(0.1 -0.1)">
       <use xlink:href="#DejaVuSans-50"/>
       <use x="63.623047" xlink:href="#DejaVuSans-48"/>
      </g>
     </g>
    </g>
    <g id="ytick_3">
     <g id="line2d_9">
      <g>
       <use style="stroke:#000000;stroke-width:0.8;" x="33.2875" xlink:href="#m702a67012f" y="160.025884"/>
      </g>
     </g>
     <g id="text_9">
      <!-- 40 -->
      <g transform="translate(13.5625 163.825103)scale(0.1 -0.1)">
       <defs>
        <path d="M 37.796875 64.3125 
L 12.890625 25.390625 
L 37.796875 25.390625 
z
M 35.203125 72.90625 
L 47.609375 72.90625 
L 47.609375 25.390625 
L 58.015625 25.390625 
L 58.015625 17.1875 
L 47.609375 17.1875 
L 47.609375 0 
L 37.796875 0 
L 37.796875 17.1875 
L 4.890625 17.1875 
L 4.890625 26.703125 
z
" id="DejaVuSans-52"/>
       </defs>
       <use xlink:href="#DejaVuSans-52"/>
       <use x="63.623047" xlink:href="#DejaVuSans-48"/>
      </g>
     </g>
    </g>
    <g id="ytick_4">
     <g id="line2d_10">
      <g>
       <use style="stroke:#000000;stroke-width:0.8;" x="33.2875" xlink:href="#m702a67012f" y="130.220551"/>
      </g>
     </g>
     <g id="text_10">
      <!-- 60 -->
      <g transform="translate(13.5625 134.01977)scale(0.1 -0.1)">
       <defs>
        <path d="M 33.015625 40.375 
Q 26.375 40.375 22.484375 35.828125 
Q 18.609375 31.296875 18.609375 23.390625 
Q 18.609375 15.53125 22.484375 10.953125 
Q 26.375 6.390625 33.015625 6.390625 
Q 39.65625 6.390625 43.53125 10.953125 
Q 47.40625 15.53125 47.40625 23.390625 
Q 47.40625 31.296875 43.53125 35.828125 
Q 39.65625 40.375 33.015625 40.375 
z
M 52.59375 71.296875 
L 52.59375 62.3125 
Q 48.875 64.0625 45.09375 64.984375 
Q 41.3125 65.921875 37.59375 65.921875 
Q 27.828125 65.921875 22.671875 59.328125 
Q 17.53125 52.734375 16.796875 39.40625 
Q 19.671875 43.65625 24.015625 45.921875 
Q 28.375 48.1875 33.59375 48.1875 
Q 44.578125 48.1875 50.953125 41.515625 
Q 57.328125 34.859375 57.328125 23.390625 
Q 57.328125 12.15625 50.6875 5.359375 
Q 44.046875 -1.421875 33.015625 -1.421875 
Q 20.359375 -1.421875 13.671875 8.265625 
Q 6.984375 17.96875 6.984375 36.375 
Q 6.984375 53.65625 15.1875 63.9375 
Q 23.390625 74.21875 37.203125 74.21875 
Q 40.921875 74.21875 44.703125 73.484375 
Q 48.484375 72.75 52.59375 71.296875 
z
" id="DejaVuSans-54"/>
       </defs>
       <use xlink:href="#DejaVuSans-54"/>
       <use x="63.623047" xlink:href="#DejaVuSans-48"/>
      </g>
     </g>
    </g>
    <g id="ytick_5">
     <g id="line2d_11">
      <g>
       <use style="stroke:#000000;stroke-width:0.8;" x="33.2875" xlink:href="#m702a67012f" y="100.415218"/>
      </g>
     </g>
     <g id="text_11">
      <!-- 80 -->
      <g transform="translate(13.5625 104.214437)scale(0.1 -0.1)">
       <defs>
        <path d="M 31.78125 34.625 
Q 24.75 34.625 20.71875 30.859375 
Q 16.703125 27.09375 16.703125 20.515625 
Q 16.703125 13.921875 20.71875 10.15625 
Q 24.75 6.390625 31.78125 6.390625 
Q 38.8125 6.390625 42.859375 10.171875 
Q 46.921875 13.96875 46.921875 20.515625 
Q 46.921875 27.09375 42.890625 30.859375 
Q 38.875 34.625 31.78125 34.625 
z
M 21.921875 38.8125 
Q 15.578125 40.375 12.03125 44.71875 
Q 8.5 49.078125 8.5 55.328125 
Q 8.5 64.0625 14.71875 69.140625 
Q 20.953125 74.21875 31.78125 74.21875 
Q 42.671875 74.21875 48.875 69.140625 
Q 55.078125 64.0625 55.078125 55.328125 
Q 55.078125 49.078125 51.53125 44.71875 
Q 48 40.375 41.703125 38.8125 
Q 48.828125 37.15625 52.796875 32.3125 
Q 56.78125 27.484375 56.78125 20.515625 
Q 56.78125 9.90625 50.3125 4.234375 
Q 43.84375 -1.421875 31.78125 -1.421875 
Q 19.734375 -1.421875 13.25 4.234375 
Q 6.78125 9.90625 6.78125 20.515625 
Q 6.78125 27.484375 10.78125 32.3125 
Q 14.796875 37.15625 21.921875 38.8125 
z
M 18.3125 54.390625 
Q 18.3125 48.734375 21.84375 45.5625 
Q 25.390625 42.390625 31.78125 42.390625 
Q 38.140625 42.390625 41.71875 45.5625 
Q 45.3125 48.734375 45.3125 54.390625 
Q 45.3125 60.0625 41.71875 63.234375 
Q 38.140625 66.40625 31.78125 66.40625 
Q 25.390625 66.40625 21.84375 63.234375 
Q 18.3125 60.0625 18.3125 54.390625 
z
" id="DejaVuSans-56"/>
       </defs>
       <use xlink:href="#DejaVuSans-56"/>
       <use x="63.623047" xlink:href="#DejaVuSans-48"/>
      </g>
     </g>
    </g>
    <g id="ytick_6">
     <g id="line2d_12">
      <g>
       <use style="stroke:#000000;stroke-width:0.8;" x="33.2875" xlink:href="#m702a67012f" y="70.609885"/>
      </g>
     </g>
     <g id="text_12">
      <!-- 100 -->
      <g transform="translate(7.2 74.409104)scale(0.1 -0.1)">
       <use xlink:href="#DejaVuSans-49"/>
       <use x="63.623047" xlink:href="#DejaVuSans-48"/>
       <use x="127.246094" xlink:href="#DejaVuSans-48"/>
      </g>
     </g>
    </g>
    <g id="ytick_7">
     <g id="line2d_13">
      <g>
       <use style="stroke:#000000;stroke-width:0.8;" x="33.2875" xlink:href="#m702a67012f" y="40.804552"/>
      </g>
     </g>
     <g id="text_13">
      <!-- 120 -->
      <g transform="translate(7.2 44.603771)scale(0.1 -0.1)">
       <use xlink:href="#DejaVuSans-49"/>
       <use x="63.623047" xlink:href="#DejaVuSans-50"/>
       <use x="127.246094" xlink:href="#DejaVuSans-48"/>
      </g>
     </g>
    </g>
    <g id="ytick_8">
     <g id="line2d_14">
      <g>
       <use style="stroke:#000000;stroke-width:0.8;" x="33.2875" xlink:href="#m702a67012f" y="10.999219"/>
      </g>
     </g>
     <g id="text_14">
      <!-- 140 -->
      <g transform="translate(7.2 14.798438)scale(0.1 -0.1)">
       <use xlink:href="#DejaVuSans-49"/>
       <use x="63.623047" xlink:href="#DejaVuSans-52"/>
       <use x="127.246094" xlink:href="#DejaVuSans-48"/>
      </g>
     </g>
    </g>
   </g>
   <g id="line2d_15">
    <path clip-path="url(#p4b5dd19d9b)" d="M 48.505682 74.204766 
L 49.728026 73.942956 
L 50.95037 75.725896 
L 52.172714 81.756528 
L 53.395058 83.797299 
L 54.617401 77.737413 
L 55.839745 85.194305 
L 57.062089 86.567139 
L 58.284433 83.25511 
L 59.506777 86.094262 
L 60.729121 90.636282 
L 61.951465 92.139529 
L 63.173809 89.788812 
L 64.396153 91.951397 
L 65.618497 100.342925 
L 66.840841 97.152652 
L 68.063185 89.62448 
L 69.285528 99.231842 
L 70.507872 98.499182 
L 71.730216 98.076393 
L 72.95256 101.56697 
L 74.174904 101.260572 
L 75.397248 103.541872 
L 76.619592 105.25161 
L 77.841936 104.627054 
L 79.06428 108.94926 
L 80.286624 110.669743 
L 81.508968 109.582951 
L 82.731312 111.62396 
L 83.953656 112.452221 
L 85.175999 119.905283 
L 86.398343 118.390293 
L 87.620687 115.970517 
L 88.843031 116.702849 
L 91.287719 124.44006 
L 92.510063 115.742059 
L 93.732407 124.846828 
L 94.954751 125.196057 
L 96.177095 130.193205 
L 97.399439 126.234371 
L 98.621783 121.567079 
L 99.844127 131.49765 
L 101.06647 135.24348 
L 102.288814 128.40563 
L 103.511158 138.584076 
L 104.733502 125.847468 
L 105.955846 135.210798 
L 107.17819 134.492221 
L 108.400534 132.758639 
L 109.622878 131.833854 
L 110.845222 132.453388 
L 112.067566 137.330837 
L 113.28991 132.748416 
L 114.512254 134.047004 
L 115.734597 142.598601 
L 116.956941 145.225569 
L 118.179285 139.597905 
L 119.401629 137.08007 
L 120.623973 140.805781 
L 121.846317 141.67103 
L 123.068661 139.181226 
L 124.291005 139.845319 
L 125.513349 135.510312 
L 126.735693 143.151952 
L 127.958037 140.478414 
L 129.180381 140.225739 
L 130.402725 145.413 
L 131.625068 138.125462 
L 132.847412 135.561264 
L 134.069756 138.277499 
L 135.2921 138.5881 
L 136.514444 129.991735 
L 137.736788 130.53689 
L 138.959132 129.475492 
L 140.181476 122.115214 
L 141.40382 129.177349 
L 142.626164 124.678771 
L 143.848508 118.639108 
L 145.070852 123.202379 
L 146.293196 114.1526 
L 147.515539 114.741881 
L 148.737883 104.552809 
L 149.960227 101.120636 
L 151.182571 100.220336 
L 152.404915 91.953141 
L 153.627259 92.656189 
L 154.849603 85.146721 
L 156.071947 80.118487 
L 157.294291 76.772003 
L 158.516635 80.341445 
L 159.738979 61.945922 
L 160.961323 58.945717 
L 162.183666 49.655693 
L 163.40601 47.50792 
L 164.628354 43.023559 
L 165.850698 41.374281 
L 167.073042 37.534907 
L 168.295386 30.387141 
L 169.51773 32.309287 
L 170.740074 35.22395 
L 171.962418 24.926804 
L 173.184762 26.323929 
L 174.407106 23.183639 
L 176.851794 22.922246 
L 178.074137 22.73939 
L 179.296481 20.773282 
L 180.518825 20.201317 
L 181.741169 20.433352 
L 182.963513 28.457544 
L 185.408201 33.718334 
L 186.630545 43.186594 
L 187.852889 37.774244 
L 189.075233 47.949039 
L 190.297577 42.614332 
L 191.519921 54.606358 
L 192.742265 55.408718 
L 193.964608 62.900884 
L 195.186952 65.472638 
L 196.409296 78.742568 
L 197.63164 78.947539 
L 198.853984 78.687667 
L 200.076328 87.351466 
L 201.298672 89.554944 
L 202.521016 81.780283 
L 203.74336 91.056388 
L 204.965704 96.774392 
L 207.410392 102.850194 
L 208.632735 102.288379 
L 209.855079 106.185739 
L 211.077423 101.71014 
L 212.299767 105.242758 
L 213.522111 103.980398 
L 214.744455 103.743982 
L 215.966799 98.504398 
L 217.189143 100.798112 
L 218.411487 97.465026 
L 219.633831 100.371225 
L 220.856175 91.544674 
L 222.078519 91.52074 
L 223.300863 100.492876 
L 224.523206 89.729663 
L 225.74555 84.752635 
L 226.967894 80.693431 
L 228.190238 86.782214 
L 229.412582 80.87049 
L 230.634926 85.000839 
L 231.85727 80.007193 
L 233.079614 76.954606 
L 234.301958 82.753993 
L 235.524302 75.460658 
L 236.746646 89.074348 
L 237.96899 84.811947 
L 240.413677 91.910668 
L 241.636021 92.943602 
L 242.858365 102.605314 
L 244.080709 98.416055 
L 245.303053 107.579004 
L 246.525397 111.352061 
L 247.747741 115.533913 
L 248.970085 120.83968 
L 250.192429 124.877915 
L 251.414773 132.696674 
L 252.637117 133.934802 
L 253.859461 140.943049 
L 255.081804 143.941153 
L 256.304148 149.542007 
L 257.526492 150.382518 
L 258.748836 155.420722 
L 259.97118 168.795641 
L 261.193524 161.095374 
L 262.415868 170.928883 
L 263.638212 174.271999 
L 264.860556 171.963933 
L 266.0829 184.416631 
L 267.305244 184.322551 
L 268.527588 189.431647 
L 269.749932 191.216062 
L 272.194619 195.661364 
L 273.416963 191.406921 
L 274.639307 191.897412 
L 275.861651 193.917528 
L 277.083995 194.864071 
L 278.306339 199.542286 
L 279.528683 196.72151 
L 280.751027 199.559559 
L 281.973371 195.849093 
L 283.195715 201.268313 
L 284.418059 195.287381 
L 285.640403 204.080655 
L 286.862746 205.287197 
L 288.08509 200.080258 
L 289.307434 206.56331 
L 290.529778 202.108883 
L 291.752122 200.933406 
L 292.974466 202.750219 
L 294.19681 202.938217 
L 295.419154 207.987261 
L 296.641498 209.501731 
L 297.863842 198.376689 
L 299.086186 203.74606 
L 300.30853 206.355929 
L 301.530873 202.398144 
L 303.975561 202.363302 
L 305.197905 205.136056 
L 306.420249 202.584368 
L 307.642593 202.902167 
L 308.864937 204.477364 
L 310.087281 200.99473 
L 311.309625 210.394672 
L 312.531969 206.194934 
L 313.754313 203.532624 
L 314.976657 200.119645 
L 316.199001 213.803243 
L 317.421344 205.377849 
L 318.643688 207.657119 
L 319.866032 204.389572 
L 321.088376 205.676611 
L 323.533064 210.518242 
L 324.755408 206.532327 
L 325.977752 208.0174 
L 327.200096 201.081762 
L 328.42244 203.815864 
L 329.644784 210.693455 
L 330.867128 209.55475 
L 332.089472 206.57488 
L 333.311815 212.801564 
L 334.534159 207.132046 
L 335.756503 208.892917 
L 336.978847 204.715866 
L 338.201191 208.716679 
L 339.423535 209.912358 
L 340.645879 215.404096 
L 341.868223 204.251469 
L 343.090567 212.498121 
L 344.312911 207.153434 
L 345.535255 210.30155 
L 346.757599 215.60405 
L 347.979942 207.174778 
L 349.202286 206.248729 
L 350.42463 214.625575 
L 351.646974 217.874045 
L 352.869318 212.371035 
L 352.869318 212.371035 
" style="fill:none;stroke:#0000ff;stroke-linecap:square;stroke-width:1.5;"/>
   </g>
   <g id="line2d_16">
    <path clip-path="url(#p4b5dd19d9b)" d="M 48.505682 80.012154 
L 54.617401 86.151256 
L 60.729121 92.02043 
L 68.063185 98.723807 
L 75.397248 105.075064 
L 82.731312 111.092638 
L 90.065375 116.793588 
L 97.399439 122.191491 
L 104.733502 127.285795 
L 110.845222 131.262012 
L 115.734597 134.188615 
L 119.401629 136.147484 
L 121.846317 137.284677 
L 124.291005 138.234228 
L 126.735693 138.935477 
L 129.180381 139.312133 
L 130.402725 139.350442 
L 131.625068 139.271651 
L 132.847412 139.061801 
L 134.069756 138.706143 
L 135.2921 138.189298 
L 136.514444 137.495451 
L 137.736788 136.60861 
L 138.959132 135.512893 
L 140.181476 134.192882 
L 141.40382 132.634012 
L 142.626164 130.823002 
L 143.848508 128.748328 
L 145.070852 126.400708 
L 146.293196 123.773615 
L 148.737883 117.671697 
L 151.182571 110.464167 
L 153.627259 102.246028 
L 156.071947 93.194918 
L 160.961323 73.724851 
L 164.628354 59.425887 
L 167.073042 50.865586 
L 168.295386 47.046069 
L 169.51773 43.603895 
L 170.740074 40.586748 
L 171.962418 38.036909 
L 173.184762 35.990173 
L 174.407106 34.474895 
L 175.62945 33.511173 
L 176.851794 33.110207 
L 178.074137 33.27386 
L 179.296481 33.994421 
L 180.518825 35.254599 
L 181.741169 37.027738 
L 182.963513 39.278251 
L 184.185857 41.962272 
L 185.408201 45.028496 
L 187.852889 52.071389 
L 191.519921 63.915531 
L 195.186952 75.621349 
L 197.63164 82.47083 
L 198.853984 85.441628 
L 200.076328 88.050707 
L 201.298672 90.263674 
L 202.521016 92.054775 
L 203.74336 93.407277 
L 204.965704 94.313655 
L 206.188048 94.77561 
L 207.410392 94.803901 
L 208.632735 94.41801 
L 209.855079 93.645648 
L 211.077423 92.522109 
L 212.299767 91.089492 
L 213.522111 89.395808 
L 215.966799 85.440785 
L 220.856175 76.919741 
L 223.300863 73.315119 
L 224.523206 71.871942 
L 225.74555 70.73181 
L 226.967894 69.935411 
L 228.190238 69.51699 
L 229.412582 69.503822 
L 230.634926 69.915848 
L 231.85727 70.765473 
L 233.079614 72.057523 
L 234.301958 73.789363 
L 235.524302 75.951175 
L 236.746646 78.526378 
L 237.96899 81.492171 
L 239.191334 84.820205 
L 241.636021 92.426435 
L 244.080709 101.037545 
L 247.747741 115.08633 
L 253.859461 138.723816 
L 256.304148 147.435463 
L 258.748836 155.424807 
L 261.193524 162.580057 
L 263.638212 168.849116 
L 266.0829 174.231601 
L 268.527588 178.768334 
L 270.972275 182.529829 
L 273.416963 185.605064 
L 275.861651 188.091515 
L 278.306339 190.087061 
L 280.751027 191.684003 
L 283.195715 192.965162 
L 285.640403 194.001818 
L 289.307434 195.224518 
L 292.974466 196.17908 
L 297.863842 197.206248 
L 305.197905 198.483235 
L 316.199001 200.152181 
L 330.867128 202.147193 
L 346.757599 204.076878 
L 352.869318 204.761016 
L 352.869318 204.761016 
" style="fill:none;stroke:#000000;stroke-dasharray:5.55,2.4;stroke-dashoffset:0;stroke-width:1.5;"/>
   </g>
   <g id="line2d_17">
    <path clip-path="url(#p4b5dd19d9b)" d="M 48.505682 73.686407 
L 54.617401 81.493414 
L 60.729121 88.882811 
L 66.840841 95.876908 
L 72.95256 102.496723 
L 79.06428 108.761751 
L 85.175999 114.688984 
L 91.287719 120.289731 
L 97.399439 125.560718 
L 102.288814 129.515739 
L 107.17819 133.181332 
L 110.845222 135.67627 
L 114.512254 137.867804 
L 116.956941 139.103828 
L 119.401629 140.107031 
L 121.846317 140.820527 
L 124.291005 141.176583 
L 125.513349 141.196498 
L 126.735693 141.096934 
L 127.958037 140.866678 
L 129.180381 140.494085 
L 130.402725 139.967197 
L 131.625068 139.273878 
L 132.847412 138.401976 
L 134.069756 137.339508 
L 135.2921 136.074872 
L 136.514444 134.597078 
L 137.736788 132.896003 
L 138.959132 130.962661 
L 140.181476 128.789485 
L 141.40382 126.370622 
L 143.848508 120.782765 
L 146.293196 114.197637 
L 148.737883 106.659149 
L 151.182571 98.263535 
L 153.627259 89.163639 
L 158.516635 69.745184 
L 162.183666 55.261999 
L 164.628354 46.27984 
L 167.073042 38.251741 
L 168.295386 34.703062 
L 169.51773 31.518044 
L 170.740074 28.733047 
L 171.962418 26.380672 
L 173.184762 24.489141 
L 174.407106 23.081734 
L 175.62945 22.176293 
L 176.851794 21.78481 
L 178.074137 21.913091 
L 179.296481 22.560536 
L 180.518825 23.719998 
L 181.741169 25.377765 
L 182.963513 27.513636 
L 184.185857 30.101112 
L 185.408201 33.107675 
L 186.630545 36.495183 
L 189.075233 44.235273 
L 191.519921 52.923907 
L 198.853984 80.089607 
L 201.298672 87.961716 
L 202.521016 91.439954 
L 203.74336 94.556958 
L 204.965704 97.278152 
L 206.188048 99.575755 
L 207.410392 101.429373 
L 208.632735 102.8265 
L 209.855079 103.762891 
L 211.077423 104.242807 
L 212.299767 104.279112 
L 213.522111 103.893207 
L 214.744455 103.114799 
L 215.966799 101.981495 
L 217.189143 100.538217 
L 218.411487 98.836443 
L 220.856175 94.890423 
L 224.523206 88.582669 
L 226.967894 84.898363 
L 228.190238 83.404889 
L 229.412582 82.220333 
L 230.634926 81.394621 
L 231.85727 80.970424 
L 233.079614 80.982275 
L 234.301958 81.455881 
L 235.524302 82.407683 
L 236.746646 83.844638 
L 237.96899 85.764259 
L 239.191334 88.154895 
L 240.413677 90.996237 
L 241.636021 94.260038 
L 244.080709 101.907878 
L 246.525397 110.751289 
L 250.192429 125.367863 
L 255.081804 145.22367 
L 257.526492 154.509842 
L 259.97118 163.022421 
L 262.415868 170.605477 
L 264.860556 177.183624 
L 267.305244 182.7517 
L 269.749932 187.360059 
L 272.194619 191.098064 
L 274.639307 194.078023 
L 277.083995 196.421186 
L 279.528683 198.246761 
L 281.973371 199.664249 
L 284.418059 200.768945 
L 286.862746 201.640062 
L 290.529778 202.643076 
L 295.419154 203.636919 
L 301.530873 204.606045 
L 311.309625 205.906189 
L 324.755408 207.473372 
L 340.645879 209.093432 
L 352.869318 210.191188 
L 352.869318 210.191188 
" style="fill:none;stroke:#ff0000;stroke-linecap:square;stroke-width:1.5;"/>
   </g>
   <g id="patch_3">
    <path d="M 33.2875 227.757681 
L 33.2875 10.317681 
" style="fill:none;stroke:#000000;stroke-linecap:square;stroke-linejoin:miter;stroke-width:0.8;"/>
   </g>
   <g id="patch_4">
    <path d="M 368.0875 227.757681 
L 368.0875 10.317681 
" style="fill:none;stroke:#000000;stroke-linecap:square;stroke-linejoin:miter;stroke-width:0.8;"/>
   </g>
   <g id="patch_5">
    <path d="M 33.2875 227.757681 
L 368.0875 227.757681 
" style="fill:none;stroke:#000000;stroke-linecap:square;stroke-linejoin:miter;stroke-width:0.8;"/>
   </g>
   <g id="patch_6">
    <path d="M 33.2875 10.317681 
L 368.0875 10.317681 
" style="fill:none;stroke:#000000;stroke-linecap:square;stroke-linejoin:miter;stroke-width:0.8;"/>
   </g>
   <g id="legend_1">
    <g id="patch_7">
     <path d="M 288.192188 47.673931 
L 361.0875 47.673931 
Q 363.0875 47.673931 363.0875 45.673931 
L 363.0875 17.317681 
Q 363.0875 15.317681 361.0875 15.317681 
L 288.192188 15.317681 
Q 286.192188 15.317681 286.192188 17.317681 
L 286.192188 45.673931 
Q 286.192188 47.673931 288.192188 47.673931 
z
" style="fill:#ffffff;opacity:0.8;stroke:#cccccc;stroke-linejoin:miter;"/>
    </g>
    <g id="line2d_18">
     <path d="M 290.192188 23.416118 
L 310.192188 23.416118 
" style="fill:none;stroke:#000000;stroke-dasharray:5.55,2.4;stroke-dashoffset:0;stroke-width:1.5;"/>
    </g>
    <g id="line2d_19"/>
    <g id="text_15">
     <!-- initial fit -->
     <g transform="translate(318.192188 26.916118)scale(0.1 -0.1)">
      <defs>
       <path d="M 9.421875 54.6875 
L 18.40625 54.6875 
L 18.40625 0 
L 9.421875 0 
z
M 9.421875 75.984375 
L 18.40625 75.984375 
L 18.40625 64.59375 
L 9.421875 64.59375 
z
" id="DejaVuSans-105"/>
       <path d="M 54.890625 33.015625 
L 54.890625 0 
L 45.90625 0 
L 45.90625 32.71875 
Q 45.90625 40.484375 42.875 44.328125 
Q 39.84375 48.1875 33.796875 48.1875 
Q 26.515625 48.1875 22.3125 43.546875 
Q 18.109375 38.921875 18.109375 30.90625 
L 18.109375 0 
L 9.078125 0 
L 9.078125 54.6875 
L 18.109375 54.6875 
L 18.109375 46.1875 
Q 21.34375 51.125 25.703125 53.5625 
Q 30.078125 56 35.796875 56 
Q 45.21875 56 50.046875 50.171875 
Q 54.890625 44.34375 54.890625 33.015625 
z
" id="DejaVuSans-110"/>
       <path d="M 18.3125 70.21875 
L 18.3125 54.6875 
L 36.8125 54.6875 
L 36.8125 47.703125 
L 18.3125 47.703125 
L 18.3125 18.015625 
Q 18.3125 11.328125 20.140625 9.421875 
Q 21.96875 7.515625 27.59375 7.515625 
L 36.8125 7.515625 
L 36.8125 0 
L 27.59375 0 
Q 17.1875 0 13.234375 3.875 
Q 9.28125 7.765625 9.28125 18.015625 
L 9.28125 47.703125 
L 2.6875 47.703125 
L 2.6875 54.6875 
L 9.28125 54.6875 
L 9.28125 70.21875 
z
" id="DejaVuSans-116"/>
       <path d="M 34.28125 27.484375 
Q 23.390625 27.484375 19.1875 25 
Q 14.984375 22.515625 14.984375 16.5 
Q 14.984375 11.71875 18.140625 8.90625 
Q 21.296875 6.109375 26.703125 6.109375 
Q 34.1875 6.109375 38.703125 11.40625 
Q 43.21875 16.703125 43.21875 25.484375 
L 43.21875 27.484375 
z
M 52.203125 31.203125 
L 52.203125 0 
L 43.21875 0 
L 43.21875 8.296875 
Q 40.140625 3.328125 35.546875 0.953125 
Q 30.953125 -1.421875 24.3125 -1.421875 
Q 15.921875 -1.421875 10.953125 3.296875 
Q 6 8.015625 6 15.921875 
Q 6 25.140625 12.171875 29.828125 
Q 18.359375 34.515625 30.609375 34.515625 
L 43.21875 34.515625 
L 43.21875 35.40625 
Q 43.21875 41.609375 39.140625 45 
Q 35.0625 48.390625 27.6875 48.390625 
Q 23 48.390625 18.546875 47.265625 
Q 14.109375 46.140625 10.015625 43.890625 
L 10.015625 52.203125 
Q 14.9375 54.109375 19.578125 55.046875 
Q 24.21875 56 28.609375 56 
Q 40.484375 56 46.34375 49.84375 
Q 52.203125 43.703125 52.203125 31.203125 
z
" id="DejaVuSans-97"/>
       <path d="M 9.421875 75.984375 
L 18.40625 75.984375 
L 18.40625 0 
L 9.421875 0 
z
" id="DejaVuSans-108"/>
       <path id="DejaVuSans-32"/>
       <path d="M 37.109375 75.984375 
L 37.109375 68.5 
L 28.515625 68.5 
Q 23.6875 68.5 21.796875 66.546875 
Q 19.921875 64.59375 19.921875 59.515625 
L 19.921875 54.6875 
L 34.71875 54.6875 
L 34.71875 47.703125 
L 19.921875 47.703125 
L 19.921875 0 
L 10.890625 0 
L 10.890625 47.703125 
L 2.296875 47.703125 
L 2.296875 54.6875 
L 10.890625 54.6875 
L 10.890625 58.5 
Q 10.890625 67.625 15.140625 71.796875 
Q 19.390625 75.984375 28.609375 75.984375 
z
" id="DejaVuSans-102"/>
      </defs>
      <use xlink:href="#DejaVuSans-105"/>
      <use x="27.783203" xlink:href="#DejaVuSans-110"/>
      <use x="91.162109" xlink:href="#DejaVuSans-105"/>
      <use x="118.945312" xlink:href="#DejaVuSans-116"/>
      <use x="158.154297" xlink:href="#DejaVuSans-105"/>
      <use x="185.9375" xlink:href="#DejaVuSans-97"/>
      <use x="247.216797" xlink:href="#DejaVuSans-108"/>
      <use x="275" xlink:href="#DejaVuSans-32"/>
      <use x="306.787109" xlink:href="#DejaVuSans-102"/>
      <use x="341.992188" xlink:href="#DejaVuSans-105"/>
      <use x="369.775391" xlink:href="#DejaVuSans-116"/>
     </g>
    </g>
    <g id="line2d_20">
     <path d="M 290.192188 38.094243 
L 310.192188 38.094243 
" style="fill:none;stroke:#ff0000;stroke-linecap:square;stroke-width:1.5;"/>
    </g>
    <g id="line2d_21"/>
    <g id="text_16">
     <!-- best fit -->
     <g transform="translate(318.192188 41.594243)scale(0.1 -0.1)">
      <defs>
       <path d="M 48.6875 27.296875 
Q 48.6875 37.203125 44.609375 42.84375 
Q 40.53125 48.484375 33.40625 48.484375 
Q 26.265625 48.484375 22.1875 42.84375 
Q 18.109375 37.203125 18.109375 27.296875 
Q 18.109375 17.390625 22.1875 11.75 
Q 26.265625 6.109375 33.40625 6.109375 
Q 40.53125 6.109375 44.609375 11.75 
Q 48.6875 17.390625 48.6875 27.296875 
z
M 18.109375 46.390625 
Q 20.953125 51.265625 25.265625 53.625 
Q 29.59375 56 35.59375 56 
Q 45.5625 56 51.78125 48.09375 
Q 58.015625 40.1875 58.015625 27.296875 
Q 58.015625 14.40625 51.78125 6.484375 
Q 45.5625 -1.421875 35.59375 -1.421875 
Q 29.59375 -1.421875 25.265625 0.953125 
Q 20.953125 3.328125 18.109375 8.203125 
L 18.109375 0 
L 9.078125 0 
L 9.078125 75.984375 
L 18.109375 75.984375 
z
" id="DejaVuSans-98"/>
       <path d="M 56.203125 29.59375 
L 56.203125 25.203125 
L 14.890625 25.203125 
Q 15.484375 15.921875 20.484375 11.0625 
Q 25.484375 6.203125 34.421875 6.203125 
Q 39.59375 6.203125 44.453125 7.46875 
Q 49.3125 8.734375 54.109375 11.28125 
L 54.109375 2.78125 
Q 49.265625 0.734375 44.1875 -0.34375 
Q 39.109375 -1.421875 33.890625 -1.421875 
Q 20.796875 -1.421875 13.15625 6.1875 
Q 5.515625 13.8125 5.515625 26.8125 
Q 5.515625 40.234375 12.765625 48.109375 
Q 20.015625 56 32.328125 56 
Q 43.359375 56 49.78125 48.890625 
Q 56.203125 41.796875 56.203125 29.59375 
z
M 47.21875 32.234375 
Q 47.125 39.59375 43.09375 43.984375 
Q 39.0625 48.390625 32.421875 48.390625 
Q 24.90625 48.390625 20.390625 44.140625 
Q 15.875 39.890625 15.1875 32.171875 
z
" id="DejaVuSans-101"/>
       <path d="M 44.28125 53.078125 
L 44.28125 44.578125 
Q 40.484375 46.53125 36.375 47.5 
Q 32.28125 48.484375 27.875 48.484375 
Q 21.1875 48.484375 17.84375 46.4375 
Q 14.5 44.390625 14.5 40.28125 
Q 14.5 37.15625 16.890625 35.375 
Q 19.28125 33.59375 26.515625 31.984375 
L 29.59375 31.296875 
Q 39.15625 29.25 43.1875 25.515625 
Q 47.21875 21.78125 47.21875 15.09375 
Q 47.21875 7.46875 41.1875 3.015625 
Q 35.15625 -1.421875 24.609375 -1.421875 
Q 20.21875 -1.421875 15.453125 -0.5625 
Q 10.6875 0.296875 5.421875 2 
L 5.421875 11.28125 
Q 10.40625 8.6875 15.234375 7.390625 
Q 20.0625 6.109375 24.8125 6.109375 
Q 31.15625 6.109375 34.5625 8.28125 
Q 37.984375 10.453125 37.984375 14.40625 
Q 37.984375 18.0625 35.515625 20.015625 
Q 33.0625 21.96875 24.703125 23.78125 
L 21.578125 24.515625 
Q 13.234375 26.265625 9.515625 29.90625 
Q 5.8125 33.546875 5.8125 39.890625 
Q 5.8125 47.609375 11.28125 51.796875 
Q 16.75 56 26.8125 56 
Q 31.78125 56 36.171875 55.265625 
Q 40.578125 54.546875 44.28125 53.078125 
z
" id="DejaVuSans-115"/>
      </defs>
      <use xlink:href="#DejaVuSans-98"/>
      <use x="63.476562" xlink:href="#DejaVuSans-101"/>
      <use x="125" xlink:href="#DejaVuSans-115"/>
      <use x="177.099609" xlink:href="#DejaVuSans-116"/>
      <use x="216.308594" xlink:href="#DejaVuSans-32"/>
      <use x="248.095703" xlink:href="#DejaVuSans-102"/>
      <use x="283.300781" xlink:href="#DejaVuSans-105"/>
      <use x="311.083984" xlink:href="#DejaVuSans-116"/>
     </g>
    </g>
   </g>
  </g>
 </g>
 <defs>
  <clipPath id="p4b5dd19d9b">
   <rect height="217.44" width="334.8" x="33.2875" y="10.317681"/>
  </clipPath>
 </defs>
</svg>
