<?xml version="1.0" encoding="utf-8" standalone="no"?>
<!DOCTYPE svg PUBLIC "-//W3C//DTD SVG 1.1//EN"
  "http://www.w3.org/Graphics/SVG/1.1/DTD/svg11.dtd">
<svg xmlns:xlink="http://www.w3.org/1999/xlink" width="391.245pt" height="297.190125pt" viewBox="0 0 391.245 297.190125" xmlns="http://www.w3.org/2000/svg" version="1.1">
 <metadata>
  <rdf:RDF xmlns:dc="http://purl.org/dc/elements/1.1/" xmlns:cc="http://creativecommons.org/ns#" xmlns:rdf="http://www.w3.org/1999/02/22-rdf-syntax-ns#">
   <cc:Work>
    <dc:type rdf:resource="http://purl.org/dc/dcmitype/StillImage"/>
    <dc:date>2022-11-27T22:58:02.951065</dc:date>
    <dc:format>image/svg+xml</dc:format>
    <dc:creator>
     <cc:Agent>
      <dc:title>Matplotlib v3.6.2, https://matplotlib.org/</dc:title>
     </cc:Agent>
    </dc:creator>
   </cc:Work>
  </rdf:RDF>
 </metadata>
 <defs>
  <style type="text/css">*{stroke-linejoin: round; stroke-linecap: butt}</style>
 </defs>
 <g id="figure_1">
  <g id="patch_1">
   <path d="M 0 297.190125 
L 391.245 297.190125 
L 391.245 0 
L 0 0 
z
" style="fill: #ffffff"/>
  </g>
  <g id="axes_1">
   <g id="patch_2">
    <path d="M 26.925 273.312 
L 384.045 273.312 
L 384.045 7.2 
L 26.925 7.2 
z
" style="fill: #ffffff"/>
   </g>
   <g id="matplotlib.axis_1">
    <g id="xtick_1">
     <g id="line2d_1">
      <defs>
       <path id="m6541ad4ca7" d="M 0 0 
L 0 3.5 
" style="stroke: #000000; stroke-width: 0.8"/>
      </defs>
      <g>
       <use xlink:href="#m6541ad4ca7" x="43.157727" y="273.312" style="stroke: #000000; stroke-width: 0.8"/>
      </g>
     </g>
     <g id="text_1">
      <!-- 0.0 -->
      <g transform="translate(35.206165 287.910437) scale(0.1 -0.1)">
       <defs>
        <path id="DejaVuSans-30" d="M 2034 4250 
Q 1547 4250 1301 3770 
Q 1056 3291 1056 2328 
Q 1056 1369 1301 889 
Q 1547 409 2034 409 
Q 2525 409 2770 889 
Q 3016 1369 3016 2328 
Q 3016 3291 2770 3770 
Q 2525 4250 2034 4250 
z
M 2034 4750 
Q 2819 4750 3233 4129 
Q 3647 3509 3647 2328 
Q 3647 1150 3233 529 
Q 2819 -91 2034 -91 
Q 1250 -91 836 529 
Q 422 1150 422 2328 
Q 422 3509 836 4129 
Q 1250 4750 2034 4750 
z
" transform="scale(0.015625)"/>
        <path id="DejaVuSans-2e" d="M 684 794 
L 1344 794 
L 1344 0 
L 684 0 
L 684 794 
z
" transform="scale(0.015625)"/>
       </defs>
       <use xlink:href="#DejaVuSans-30"/>
       <use xlink:href="#DejaVuSans-2e" x="63.623047"/>
       <use xlink:href="#DejaVuSans-30" x="95.410156"/>
      </g>
     </g>
    </g>
    <g id="xtick_2">
     <g id="line2d_2">
      <g>
       <use xlink:href="#m6541ad4ca7" x="83.739545" y="273.312" style="stroke: #000000; stroke-width: 0.8"/>
      </g>
     </g>
     <g id="text_2">
      <!-- 2.5 -->
      <g transform="translate(75.787983 287.910437) scale(0.1 -0.1)">
       <defs>
        <path id="DejaVuSans-32" d="M 1228 531 
L 3431 531 
L 3431 0 
L 469 0 
L 469 531 
Q 828 903 1448 1529 
Q 2069 2156 2228 2338 
Q 2531 2678 2651 2914 
Q 2772 3150 2772 3378 
Q 2772 3750 2511 3984 
Q 2250 4219 1831 4219 
Q 1534 4219 1204 4116 
Q 875 4013 500 3803 
L 500 4441 
Q 881 4594 1212 4672 
Q 1544 4750 1819 4750 
Q 2544 4750 2975 4387 
Q 3406 4025 3406 3419 
Q 3406 3131 3298 2873 
Q 3191 2616 2906 2266 
Q 2828 2175 2409 1742 
Q 1991 1309 1228 531 
z
" transform="scale(0.015625)"/>
        <path id="DejaVuSans-35" d="M 691 4666 
L 3169 4666 
L 3169 4134 
L 1269 4134 
L 1269 2991 
Q 1406 3038 1543 3061 
Q 1681 3084 1819 3084 
Q 2600 3084 3056 2656 
Q 3513 2228 3513 1497 
Q 3513 744 3044 326 
Q 2575 -91 1722 -91 
Q 1428 -91 1123 -41 
Q 819 9 494 109 
L 494 744 
Q 775 591 1075 516 
Q 1375 441 1709 441 
Q 2250 441 2565 725 
Q 2881 1009 2881 1497 
Q 2881 1984 2565 2268 
Q 2250 2553 1709 2553 
Q 1456 2553 1204 2497 
Q 953 2441 691 2322 
L 691 4666 
z
" transform="scale(0.015625)"/>
       </defs>
       <use xlink:href="#DejaVuSans-32"/>
       <use xlink:href="#DejaVuSans-2e" x="63.623047"/>
       <use xlink:href="#DejaVuSans-35" x="95.410156"/>
      </g>
     </g>
    </g>
    <g id="xtick_3">
     <g id="line2d_3">
      <g>
       <use xlink:href="#m6541ad4ca7" x="124.321364" y="273.312" style="stroke: #000000; stroke-width: 0.8"/>
      </g>
     </g>
     <g id="text_3">
      <!-- 5.0 -->
      <g transform="translate(116.369801 287.910437) scale(0.1 -0.1)">
       <use xlink:href="#DejaVuSans-35"/>
       <use xlink:href="#DejaVuSans-2e" x="63.623047"/>
       <use xlink:href="#DejaVuSans-30" x="95.410156"/>
      </g>
     </g>
    </g>
    <g id="xtick_4">
     <g id="line2d_4">
      <g>
       <use xlink:href="#m6541ad4ca7" x="164.903182" y="273.312" style="stroke: #000000; stroke-width: 0.8"/>
      </g>
     </g>
     <g id="text_4">
      <!-- 7.5 -->
      <g transform="translate(156.951619 287.910437) scale(0.1 -0.1)">
       <defs>
        <path id="DejaVuSans-37" d="M 525 4666 
L 3525 4666 
L 3525 4397 
L 1831 0 
L 1172 0 
L 2766 4134 
L 525 4134 
L 525 4666 
z
" transform="scale(0.015625)"/>
       </defs>
       <use xlink:href="#DejaVuSans-37"/>
       <use xlink:href="#DejaVuSans-2e" x="63.623047"/>
       <use xlink:href="#DejaVuSans-35" x="95.410156"/>
      </g>
     </g>
    </g>
    <g id="xtick_5">
     <g id="line2d_5">
      <g>
       <use xlink:href="#m6541ad4ca7" x="205.485" y="273.312" style="stroke: #000000; stroke-width: 0.8"/>
      </g>
     </g>
     <g id="text_5">
      <!-- 10.0 -->
      <g transform="translate(194.352188 287.910437) scale(0.1 -0.1)">
       <defs>
        <path id="DejaVuSans-31" d="M 794 531 
L 1825 531 
L 1825 4091 
L 703 3866 
L 703 4441 
L 1819 4666 
L 2450 4666 
L 2450 531 
L 3481 531 
L 3481 0 
L 794 0 
L 794 531 
z
" transform="scale(0.015625)"/>
       </defs>
       <use xlink:href="#DejaVuSans-31"/>
       <use xlink:href="#DejaVuSans-30" x="63.623047"/>
       <use xlink:href="#DejaVuSans-2e" x="127.246094"/>
       <use xlink:href="#DejaVuSans-30" x="159.033203"/>
      </g>
     </g>
    </g>
    <g id="xtick_6">
     <g id="line2d_6">
      <g>
       <use xlink:href="#m6541ad4ca7" x="246.066818" y="273.312" style="stroke: #000000; stroke-width: 0.8"/>
      </g>
     </g>
     <g id="text_6">
      <!-- 12.5 -->
      <g transform="translate(234.934006 287.910437) scale(0.1 -0.1)">
       <use xlink:href="#DejaVuSans-31"/>
       <use xlink:href="#DejaVuSans-32" x="63.623047"/>
       <use xlink:href="#DejaVuSans-2e" x="127.246094"/>
       <use xlink:href="#DejaVuSans-35" x="159.033203"/>
      </g>
     </g>
    </g>
    <g id="xtick_7">
     <g id="line2d_7">
      <g>
       <use xlink:href="#m6541ad4ca7" x="286.648636" y="273.312" style="stroke: #000000; stroke-width: 0.8"/>
      </g>
     </g>
     <g id="text_7">
      <!-- 15.0 -->
      <g transform="translate(275.515824 287.910437) scale(0.1 -0.1)">
       <use xlink:href="#DejaVuSans-31"/>
       <use xlink:href="#DejaVuSans-35" x="63.623047"/>
       <use xlink:href="#DejaVuSans-2e" x="127.246094"/>
       <use xlink:href="#DejaVuSans-30" x="159.033203"/>
      </g>
     </g>
    </g>
    <g id="xtick_8">
     <g id="line2d_8">
      <g>
       <use xlink:href="#m6541ad4ca7" x="327.230455" y="273.312" style="stroke: #000000; stroke-width: 0.8"/>
      </g>
     </g>
     <g id="text_8">
      <!-- 17.5 -->
      <g transform="translate(316.097642 287.910437) scale(0.1 -0.1)">
       <use xlink:href="#DejaVuSans-31"/>
       <use xlink:href="#DejaVuSans-37" x="63.623047"/>
       <use xlink:href="#DejaVuSans-2e" x="127.246094"/>
       <use xlink:href="#DejaVuSans-35" x="159.033203"/>
      </g>
     </g>
    </g>
    <g id="xtick_9">
     <g id="line2d_9">
      <g>
       <use xlink:href="#m6541ad4ca7" x="367.812273" y="273.312" style="stroke: #000000; stroke-width: 0.8"/>
      </g>
     </g>
     <g id="text_9">
      <!-- 20.0 -->
      <g transform="translate(356.67946 287.910437) scale(0.1 -0.1)">
       <use xlink:href="#DejaVuSans-32"/>
       <use xlink:href="#DejaVuSans-30" x="63.623047"/>
       <use xlink:href="#DejaVuSans-2e" x="127.246094"/>
       <use xlink:href="#DejaVuSans-30" x="159.033203"/>
      </g>
     </g>
    </g>
   </g>
   <g id="matplotlib.axis_2">
    <g id="ytick_1">
     <g id="line2d_10">
      <defs>
       <path id="mc94a377e04" d="M 0 0 
L -3.5 0 
" style="stroke: #000000; stroke-width: 0.8"/>
      </defs>
      <g>
       <use xlink:href="#mc94a377e04" x="26.925" y="254.060882" style="stroke: #000000; stroke-width: 0.8"/>
      </g>
     </g>
     <g id="text_10">
      <!-- 0 -->
      <g transform="translate(13.5625 257.8601) scale(0.1 -0.1)">
       <use xlink:href="#DejaVuSans-30"/>
      </g>
     </g>
    </g>
    <g id="ytick_2">
     <g id="line2d_11">
      <g>
       <use xlink:href="#mc94a377e04" x="26.925" y="209.14009" style="stroke: #000000; stroke-width: 0.8"/>
      </g>
     </g>
     <g id="text_11">
      <!-- 2 -->
      <g transform="translate(13.5625 212.939309) scale(0.1 -0.1)">
       <use xlink:href="#DejaVuSans-32"/>
      </g>
     </g>
    </g>
    <g id="ytick_3">
     <g id="line2d_12">
      <g>
       <use xlink:href="#mc94a377e04" x="26.925" y="164.219299" style="stroke: #000000; stroke-width: 0.8"/>
      </g>
     </g>
     <g id="text_12">
      <!-- 4 -->
      <g transform="translate(13.5625 168.018518) scale(0.1 -0.1)">
       <defs>
        <path id="DejaVuSans-34" d="M 2419 4116 
L 825 1625 
L 2419 1625 
L 2419 4116 
z
M 2253 4666 
L 3047 4666 
L 3047 1625 
L 3713 1625 
L 3713 1100 
L 3047 1100 
L 3047 0 
L 2419 0 
L 2419 1100 
L 313 1100 
L 313 1709 
L 2253 4666 
z
" transform="scale(0.015625)"/>
       </defs>
       <use xlink:href="#DejaVuSans-34"/>
      </g>
     </g>
    </g>
    <g id="ytick_4">
     <g id="line2d_13">
      <g>
       <use xlink:href="#mc94a377e04" x="26.925" y="119.298508" style="stroke: #000000; stroke-width: 0.8"/>
      </g>
     </g>
     <g id="text_13">
      <!-- 6 -->
      <g transform="translate(13.5625 123.097727) scale(0.1 -0.1)">
       <defs>
        <path id="DejaVuSans-36" d="M 2113 2584 
Q 1688 2584 1439 2293 
Q 1191 2003 1191 1497 
Q 1191 994 1439 701 
Q 1688 409 2113 409 
Q 2538 409 2786 701 
Q 3034 994 3034 1497 
Q 3034 2003 2786 2293 
Q 2538 2584 2113 2584 
z
M 3366 4563 
L 3366 3988 
Q 3128 4100 2886 4159 
Q 2644 4219 2406 4219 
Q 1781 4219 1451 3797 
Q 1122 3375 1075 2522 
Q 1259 2794 1537 2939 
Q 1816 3084 2150 3084 
Q 2853 3084 3261 2657 
Q 3669 2231 3669 1497 
Q 3669 778 3244 343 
Q 2819 -91 2113 -91 
Q 1303 -91 875 529 
Q 447 1150 447 2328 
Q 447 3434 972 4092 
Q 1497 4750 2381 4750 
Q 2619 4750 2861 4703 
Q 3103 4656 3366 4563 
z
" transform="scale(0.015625)"/>
       </defs>
       <use xlink:href="#DejaVuSans-36"/>
      </g>
     </g>
    </g>
    <g id="ytick_5">
     <g id="line2d_14">
      <g>
       <use xlink:href="#mc94a377e04" x="26.925" y="74.377717" style="stroke: #000000; stroke-width: 0.8"/>
      </g>
     </g>
     <g id="text_14">
      <!-- 8 -->
      <g transform="translate(13.5625 78.176936) scale(0.1 -0.1)">
       <defs>
        <path id="DejaVuSans-38" d="M 2034 2216 
Q 1584 2216 1326 1975 
Q 1069 1734 1069 1313 
Q 1069 891 1326 650 
Q 1584 409 2034 409 
Q 2484 409 2743 651 
Q 3003 894 3003 1313 
Q 3003 1734 2745 1975 
Q 2488 2216 2034 2216 
z
M 1403 2484 
Q 997 2584 770 2862 
Q 544 3141 544 3541 
Q 544 4100 942 4425 
Q 1341 4750 2034 4750 
Q 2731 4750 3128 4425 
Q 3525 4100 3525 3541 
Q 3525 3141 3298 2862 
Q 3072 2584 2669 2484 
Q 3125 2378 3379 2068 
Q 3634 1759 3634 1313 
Q 3634 634 3220 271 
Q 2806 -91 2034 -91 
Q 1263 -91 848 271 
Q 434 634 434 1313 
Q 434 1759 690 2068 
Q 947 2378 1403 2484 
z
M 1172 3481 
Q 1172 3119 1398 2916 
Q 1625 2713 2034 2713 
Q 2441 2713 2670 2916 
Q 2900 3119 2900 3481 
Q 2900 3844 2670 4047 
Q 2441 4250 2034 4250 
Q 1625 4250 1398 4047 
Q 1172 3844 1172 3481 
z
" transform="scale(0.015625)"/>
       </defs>
       <use xlink:href="#DejaVuSans-38"/>
      </g>
     </g>
    </g>
    <g id="ytick_6">
     <g id="line2d_15">
      <g>
       <use xlink:href="#mc94a377e04" x="26.925" y="29.456926" style="stroke: #000000; stroke-width: 0.8"/>
      </g>
     </g>
     <g id="text_15">
      <!-- 10 -->
      <g transform="translate(7.2 33.256144) scale(0.1 -0.1)">
       <use xlink:href="#DejaVuSans-31"/>
       <use xlink:href="#DejaVuSans-30" x="63.623047"/>
      </g>
     </g>
    </g>
   </g>
   <g id="line2d_16">
    <path d="M 43.157727 253.574524 
L 43.969364 253.62917 
L 44.781 257.359887 
L 46.404273 245.405386 
L 47.215909 244.487587 
L 48.027545 253.628721 
L 48.839182 252.363594 
L 49.650818 249.719197 
L 50.462455 248.724067 
L 51.274091 256.465739 
L 52.085727 249.410996 
L 52.897364 251.736657 
L 53.709 250.129571 
L 54.520636 253.565091 
L 55.332273 252.477199 
L 56.143909 244.985961 
L 57.767182 257.175038 
L 58.578818 250.696696 
L 59.390455 249.286138 
L 60.202091 251.056938 
L 61.013727 249.791947 
L 61.825364 259.770921 
L 62.637 248.37364 
L 63.448636 252.720827 
L 64.260273 249.848816 
L 65.071909 248.361691 
L 65.883545 254.898789 
L 66.695182 252.252528 
L 67.506818 253.777723 
L 68.318455 249.019084 
L 69.130091 247.964793 
L 69.941727 251.408915 
L 70.753364 255.806571 
L 71.565 250.369965 
L 72.376636 253.485581 
L 73.188273 254.843941 
L 73.999909 252.511833 
L 74.811545 256.379648 
L 75.623182 252.569085 
L 76.434818 247.955023 
L 77.246455 250.937786 
L 78.058091 250.421534 
L 78.869727 254.832329 
L 79.681364 251.01049 
L 80.493 252.536764 
L 81.304636 257.694794 
L 82.116273 250.608674 
L 82.927909 252.464981 
L 83.739545 255.161666 
L 84.551182 249.494548 
L 85.362818 250.437099 
L 86.174455 249.584996 
L 86.986091 248.391518 
L 87.797727 246.075919 
L 88.609364 256.254723 
L 89.421 248.34397 
L 90.232636 249.182776 
L 91.044273 250.593558 
L 91.855909 255.450731 
L 92.667545 251.178247 
L 93.479182 249.435365 
L 94.290818 246.207267 
L 95.102455 252.144089 
L 95.914091 251.240013 
L 96.725727 248.347384 
L 97.537364 253.915877 
L 98.349 252.18153 
L 99.160636 251.216812 
L 99.972273 251.095481 
L 100.783909 245.812728 
L 102.407182 254.151936 
L 103.218818 252.441218 
L 104.030455 245.452576 
L 104.842091 249.0709 
L 105.653727 251.846399 
L 106.465364 246.771181 
L 107.277 251.243921 
L 108.088636 249.244991 
L 108.900273 247.60354 
L 109.711909 248.881986 
L 110.523545 250.89318 
L 111.335182 246.396923 
L 112.146818 250.399994 
L 112.958455 250.136219 
L 113.770091 243.210332 
L 114.581727 239.809738 
L 115.393364 250.640882 
L 116.205 244.160002 
L 117.016636 251.247066 
L 117.828273 247.26513 
L 118.639909 240.299981 
L 119.451545 254.582547 
L 120.263182 243.252962 
L 121.074818 251.790225 
L 121.886455 241.209111 
L 122.698091 245.197448 
L 123.509727 243.70491 
L 124.321364 256.451589 
L 125.133 239.787188 
L 125.944636 244.163147 
L 126.756273 246.51466 
L 127.567909 241.316943 
L 128.379545 240.839323 
L 129.191182 251.785441 
L 130.002818 245.733241 
L 130.814455 242.11422 
L 131.626091 246.265687 
L 132.437727 245.349348 
L 133.249364 244.73436 
L 134.061 243.733592 
L 134.872636 241.498558 
L 135.684273 242.218144 
L 136.495909 239.254495 
L 137.307545 239.536755 
L 138.119182 234.472564 
L 138.930818 242.688375 
L 139.742455 235.354943 
L 140.554091 239.186979 
L 141.365727 239.096868 
L 142.177364 237.316971 
L 142.989 236.69219 
L 143.800636 235.624401 
L 144.612273 232.727257 
L 145.423909 231.606146 
L 146.235545 227.222551 
L 147.047182 232.775255 
L 147.858818 230.821807 
L 148.670455 231.495686 
L 149.482091 228.103358 
L 150.293727 219.441483 
L 151.105364 223.909552 
L 151.917 220.864731 
L 152.728636 223.162677 
L 153.540273 214.441171 
L 154.351909 217.261657 
L 155.163545 216.942001 
L 155.975182 206.32304 
L 156.786818 212.597172 
L 157.598455 208.947066 
L 158.410091 209.873939 
L 159.221727 199.688105 
L 160.033364 186.986661 
L 160.845 190.810858 
L 161.656636 191.637064 
L 162.468273 198.974381 
L 163.279909 182.571531 
L 164.091545 178.926164 
L 164.903182 181.951647 
L 165.714818 172.513429 
L 166.526455 169.014886 
L 167.338091 157.743788 
L 168.149727 161.798271 
L 168.961364 159.201849 
L 169.773 145.750408 
L 170.584636 145.066714 
L 171.396273 138.30984 
L 172.207909 129.615579 
L 173.019545 125.157931 
L 173.831182 120.074964 
L 174.642818 121.690428 
L 175.454455 107.61059 
L 177.077727 97.224184 
L 177.889364 99.717288 
L 178.701 88.26745 
L 179.512636 90.207512 
L 180.324273 79.538667 
L 181.135909 77.632116 
L 181.947545 70.364157 
L 182.759182 57.807201 
L 183.570818 59.568949 
L 184.382455 57.26321 
L 185.194091 44.608551 
L 186.005727 36.334703 
L 186.817364 40.840798 
L 187.629 33.046703 
L 188.440636 38.634625 
L 189.252273 31.832831 
L 190.063909 34.361849 
L 190.875545 34.23962 
L 191.687182 30.703837 
L 193.310455 19.296 
L 194.122091 25.001861 
L 194.933727 24.511236 
L 195.745364 27.401373 
L 196.557 33.860152 
L 197.368636 29.985711 
L 198.180273 37.430905 
L 198.991909 37.264339 
L 199.803545 43.719367 
L 200.615182 48.737783 
L 201.426818 49.142272 
L 202.238455 59.308184 
L 203.050091 55.718474 
L 203.861727 60.617086 
L 204.673364 69.872948 
L 206.296636 79.183119 
L 207.108273 80.457521 
L 207.919909 90.389149 
L 208.731545 101.923169 
L 209.543182 100.86351 
L 210.354818 101.532515 
L 211.166455 112.009032 
L 211.978091 117.580243 
L 212.789727 124.487466 
L 213.601364 124.081764 
L 214.413 129.322807 
L 215.224636 138.899358 
L 216.036273 143.954295 
L 216.847909 143.33358 
L 217.659545 160.374843 
L 218.471182 157.396685 
L 219.282818 169.440331 
L 220.906091 168.377684 
L 222.529364 184.918216 
L 223.341 191.40206 
L 224.152636 195.211725 
L 224.964273 199.786885 
L 225.775909 199.464871 
L 226.587545 203.107565 
L 227.399182 203.850712 
L 228.210818 202.146754 
L 229.022455 209.022825 
L 229.834091 209.808759 
L 230.645727 211.206851 
L 231.457364 214.799661 
L 232.269 220.781089 
L 233.080636 219.940688 
L 233.892273 214.134878 
L 234.703909 228.554991 
L 235.515545 223.832311 
L 236.327182 230.549856 
L 237.138818 230.693625 
L 237.950455 234.104506 
L 238.762091 231.714091 
L 239.573727 231.555363 
L 240.385364 226.303449 
L 241.197 230.908841 
L 242.008636 233.97884 
L 242.820273 235.207985 
L 243.631909 241.376081 
L 244.443545 241.864348 
L 245.255182 230.079288 
L 246.066818 241.280041 
L 246.878455 241.793103 
L 247.690091 236.81689 
L 248.501727 245.687781 
L 249.313364 242.695045 
L 250.125 251.94947 
L 250.936636 239.292026 
L 251.748273 238.566645 
L 252.559909 248.781027 
L 253.371545 242.563854 
L 254.183182 242.92659 
L 254.994818 237.884725 
L 255.806455 243.752189 
L 256.618091 242.491442 
L 257.429727 244.009405 
L 258.241364 247.112129 
L 259.053 246.514189 
L 259.864636 244.992654 
L 260.676273 250.156389 
L 261.487909 241.876881 
L 262.299545 244.274708 
L 263.111182 242.767772 
L 263.922818 248.293995 
L 264.734455 248.002325 
L 265.546091 249.47649 
L 266.357727 249.127366 
L 267.169364 240.672105 
L 267.981 247.938088 
L 268.792636 248.937104 
L 269.604273 247.139486 
L 270.415909 252.593589 
L 271.227545 243.026269 
L 272.039182 242.947074 
L 272.850818 246.833508 
L 273.662455 249.630187 
L 274.474091 240.536107 
L 275.285727 250.579161 
L 276.097364 246.573304 
L 276.909 248.220325 
L 277.720636 250.712261 
L 278.532273 250.359004 
L 279.343909 253.341902 
L 280.155545 243.709335 
L 280.967182 247.874772 
L 281.778818 246.350048 
L 282.590455 246.224495 
L 283.402091 246.531079 
L 284.213727 249.034896 
L 285.025364 252.802628 
L 285.837 250.775667 
L 286.648636 247.413121 
L 287.460273 253.40378 
L 288.271909 249.822156 
L 289.083545 249.889694 
L 289.895182 254.290607 
L 290.706818 255.755249 
L 291.518455 255.183385 
L 292.330091 250.544819 
L 293.141727 250.946299 
L 293.953364 244.389368 
L 294.765 251.652386 
L 295.576636 248.027817 
L 296.388273 249.745948 
L 297.199909 256.061699 
L 298.011545 252.339315 
L 298.823182 242.951835 
L 299.634818 247.224589 
L 300.446455 247.055394 
L 302.069727 254.853689 
L 302.881364 244.121775 
L 303.693 251.158774 
L 304.504636 249.51045 
L 305.316273 254.918824 
L 306.127909 250.356174 
L 306.939545 252.045578 
L 307.751182 254.719825 
L 308.562818 246.835799 
L 309.374455 254.01805 
L 310.997727 238.198272 
L 311.809364 249.807354 
L 312.621 249.40026 
L 313.432636 248.383343 
L 314.244273 246.477084 
L 316.679182 258.560171 
L 317.490818 252.631951 
L 318.302455 253.734914 
L 319.114091 252.019726 
L 319.925727 248.184186 
L 320.737364 250.900008 
L 321.549 246.166839 
L 322.360636 259.068809 
L 323.172273 249.736716 
L 323.983909 255.932192 
L 325.607182 245.262763 
L 326.418818 256.112841 
L 327.230455 256.731108 
L 328.042091 255.2927 
L 328.853727 250.011385 
L 329.665364 252.591994 
L 330.477 246.895679 
L 331.288636 250.325089 
L 332.100273 249.414387 
L 332.911909 251.62157 
L 333.723545 252.140675 
L 334.535182 247.981234 
L 335.346818 248.657023 
L 336.158455 247.326761 
L 336.970091 254.959477 
L 337.781727 247.181734 
L 338.593364 254.901731 
L 339.405 253.923244 
L 340.216636 249.024565 
L 341.028273 252.8325 
L 341.839909 250.918268 
L 342.651545 255.848909 
L 343.463182 258.898581 
L 344.274818 255.48085 
L 345.086455 253.778779 
L 345.898091 257.169041 
L 346.709727 246.724822 
L 348.333 255.251485 
L 349.144636 254.711335 
L 349.956273 252.866191 
L 350.767909 248.682515 
L 351.579545 248.983282 
L 352.391182 254.43168 
L 353.202818 250.571345 
L 354.014455 249.875971 
L 354.826091 252.334149 
L 355.637727 249.913794 
L 356.449364 249.681576 
L 357.261 250.605911 
L 358.072636 252.295517 
L 358.884273 252.216299 
L 359.695909 252.499502 
L 360.507545 250.264176 
L 362.130818 257.32961 
L 362.942455 261.130426 
L 363.754091 244.859127 
L 364.565727 255.660444 
L 365.377364 261.216 
L 366.189 250.487455 
L 367.000636 254.379595 
L 367.812273 256.115424 
L 367.812273 256.115424 
" clip-path="url(#pef71a996e0)" style="fill: none; stroke: #1f77b4; stroke-width: 1.5; stroke-linecap: square"/>
   </g>
   <g id="line2d_17">
    <path d="M 43.157727 254.060882 
L 114.581727 253.963367 
L 121.074818 253.729532 
L 125.133 253.386268 
L 128.379545 252.904242 
L 130.814455 252.35756 
L 133.249364 251.589391 
L 135.684273 250.527541 
L 137.307545 249.613604 
L 138.930818 248.500015 
L 140.554091 247.153231 
L 142.177364 245.5366 
L 143.800636 243.610678 
L 145.423909 241.333728 
L 147.047182 238.662419 
L 148.670455 235.552732 
L 150.293727 231.961089 
L 151.917 227.845695 
L 153.540273 223.168082 
L 155.163545 217.894828 
L 156.786818 211.999402 
L 158.410091 205.464099 
L 160.845 194.449574 
L 163.279909 182.014234 
L 165.714818 168.265698 
L 168.961364 148.237039 
L 173.831182 116.082475 
L 177.889364 89.559872 
L 180.324273 74.834596 
L 182.759182 61.663641 
L 184.382455 54.003442 
L 186.005727 47.403877 
L 187.629 41.988013 
L 188.440636 39.757051 
L 189.252273 37.858912 
L 190.063909 36.302817 
L 190.875545 35.096367 
L 191.687182 34.24548 
L 192.498818 33.754344 
L 193.310455 33.625378 
L 194.122091 33.859221 
L 194.933727 34.454718 
L 195.745364 35.408935 
L 196.557 36.717179 
L 197.368636 38.37304 
L 198.180273 40.368443 
L 199.803545 45.337644 
L 201.426818 51.529648 
L 203.050091 58.828088 
L 204.673364 67.098994 
L 207.108273 81.003461 
L 210.354818 101.505267 
L 219.282818 159.907495 
L 221.717727 174.324395 
L 224.152636 187.527095 
L 226.587545 199.36037 
L 229.022455 209.750597 
L 230.645727 215.871929 
L 232.269 221.363686 
L 233.892273 226.249483 
L 235.515545 230.560511 
L 237.138818 234.33365 
L 238.762091 237.609699 
L 240.385364 240.431766 
L 242.008636 242.843854 
L 243.631909 244.889655 
L 245.255182 246.611561 
L 246.878455 248.0499 
L 248.501727 249.242361 
L 250.125 250.223618 
L 252.559909 251.367362 
L 254.994818 252.198011 
L 257.429727 252.791451 
L 260.676273 253.317007 
L 264.734455 253.693369 
L 270.415909 253.933085 
L 279.343909 254.040236 
L 310.997727 254.060875 
L 367.812273 254.060882 
L 367.812273 254.060882 
" clip-path="url(#pef71a996e0)" style="fill: none; stroke: #ff7f0e; stroke-width: 1.5; stroke-linecap: square"/>
   </g>
   <g id="patch_3">
    <path d="M 26.925 273.312 
L 26.925 7.2 
" style="fill: none; stroke: #000000; stroke-width: 0.8; stroke-linejoin: miter; stroke-linecap: square"/>
   </g>
   <g id="patch_4">
    <path d="M 384.045 273.312 
L 384.045 7.2 
" style="fill: none; stroke: #000000; stroke-width: 0.8; stroke-linejoin: miter; stroke-linecap: square"/>
   </g>
   <g id="patch_5">
    <path d="M 26.925 273.312 
L 384.045 273.312 
" style="fill: none; stroke: #000000; stroke-width: 0.8; stroke-linejoin: miter; stroke-linecap: square"/>
   </g>
   <g id="patch_6">
    <path d="M 26.925 7.2 
L 384.045 7.2 
" style="fill: none; stroke: #000000; stroke-width: 0.8; stroke-linejoin: miter; stroke-linecap: square"/>
   </g>
   <g id="legend_1">
    <g id="patch_7">
     <path d="M 265.96375 29.878125 
L 377.045 29.878125 
Q 379.045 29.878125 379.045 27.878125 
L 379.045 14.2 
Q 379.045 12.2 377.045 12.2 
L 265.96375 12.2 
Q 263.96375 12.2 263.96375 14.2 
L 263.96375 27.878125 
Q 263.96375 29.878125 265.96375 29.878125 
z
" style="fill: #ffffff; opacity: 0.8; stroke: #cccccc; stroke-linejoin: miter"/>
    </g>
    <g id="line2d_18">
     <path d="M 267.96375 20.298437 
L 277.96375 20.298437 
L 287.96375 20.298437 
" style="fill: none; stroke: #ff7f0e; stroke-width: 1.5; stroke-linecap: square"/>
    </g>
    <g id="text_16">
     <!-- Gaussian Model -->
     <g transform="translate(295.96375 23.798437) scale(0.1 -0.1)">
      <defs>
       <path id="DejaVuSans-47" d="M 3809 666 
L 3809 1919 
L 2778 1919 
L 2778 2438 
L 4434 2438 
L 4434 434 
Q 4069 175 3628 42 
Q 3188 -91 2688 -91 
Q 1594 -91 976 548 
Q 359 1188 359 2328 
Q 359 3472 976 4111 
Q 1594 4750 2688 4750 
Q 3144 4750 3555 4637 
Q 3966 4525 4313 4306 
L 4313 3634 
Q 3963 3931 3569 4081 
Q 3175 4231 2741 4231 
Q 1884 4231 1454 3753 
Q 1025 3275 1025 2328 
Q 1025 1384 1454 906 
Q 1884 428 2741 428 
Q 3075 428 3337 486 
Q 3600 544 3809 666 
z
" transform="scale(0.015625)"/>
       <path id="DejaVuSans-61" d="M 2194 1759 
Q 1497 1759 1228 1600 
Q 959 1441 959 1056 
Q 959 750 1161 570 
Q 1363 391 1709 391 
Q 2188 391 2477 730 
Q 2766 1069 2766 1631 
L 2766 1759 
L 2194 1759 
z
M 3341 1997 
L 3341 0 
L 2766 0 
L 2766 531 
Q 2569 213 2275 61 
Q 1981 -91 1556 -91 
Q 1019 -91 701 211 
Q 384 513 384 1019 
Q 384 1609 779 1909 
Q 1175 2209 1959 2209 
L 2766 2209 
L 2766 2266 
Q 2766 2663 2505 2880 
Q 2244 3097 1772 3097 
Q 1472 3097 1187 3025 
Q 903 2953 641 2809 
L 641 3341 
Q 956 3463 1253 3523 
Q 1550 3584 1831 3584 
Q 2591 3584 2966 3190 
Q 3341 2797 3341 1997 
z
" transform="scale(0.015625)"/>
       <path id="DejaVuSans-75" d="M 544 1381 
L 544 3500 
L 1119 3500 
L 1119 1403 
Q 1119 906 1312 657 
Q 1506 409 1894 409 
Q 2359 409 2629 706 
Q 2900 1003 2900 1516 
L 2900 3500 
L 3475 3500 
L 3475 0 
L 2900 0 
L 2900 538 
Q 2691 219 2414 64 
Q 2138 -91 1772 -91 
Q 1169 -91 856 284 
Q 544 659 544 1381 
z
M 1991 3584 
L 1991 3584 
z
" transform="scale(0.015625)"/>
       <path id="DejaVuSans-73" d="M 2834 3397 
L 2834 2853 
Q 2591 2978 2328 3040 
Q 2066 3103 1784 3103 
Q 1356 3103 1142 2972 
Q 928 2841 928 2578 
Q 928 2378 1081 2264 
Q 1234 2150 1697 2047 
L 1894 2003 
Q 2506 1872 2764 1633 
Q 3022 1394 3022 966 
Q 3022 478 2636 193 
Q 2250 -91 1575 -91 
Q 1294 -91 989 -36 
Q 684 19 347 128 
L 347 722 
Q 666 556 975 473 
Q 1284 391 1588 391 
Q 1994 391 2212 530 
Q 2431 669 2431 922 
Q 2431 1156 2273 1281 
Q 2116 1406 1581 1522 
L 1381 1569 
Q 847 1681 609 1914 
Q 372 2147 372 2553 
Q 372 3047 722 3315 
Q 1072 3584 1716 3584 
Q 2034 3584 2315 3537 
Q 2597 3491 2834 3397 
z
" transform="scale(0.015625)"/>
       <path id="DejaVuSans-69" d="M 603 3500 
L 1178 3500 
L 1178 0 
L 603 0 
L 603 3500 
z
M 603 4863 
L 1178 4863 
L 1178 4134 
L 603 4134 
L 603 4863 
z
" transform="scale(0.015625)"/>
       <path id="DejaVuSans-6e" d="M 3513 2113 
L 3513 0 
L 2938 0 
L 2938 2094 
Q 2938 2591 2744 2837 
Q 2550 3084 2163 3084 
Q 1697 3084 1428 2787 
Q 1159 2491 1159 1978 
L 1159 0 
L 581 0 
L 581 3500 
L 1159 3500 
L 1159 2956 
Q 1366 3272 1645 3428 
Q 1925 3584 2291 3584 
Q 2894 3584 3203 3211 
Q 3513 2838 3513 2113 
z
" transform="scale(0.015625)"/>
       <path id="DejaVuSans-20" transform="scale(0.015625)"/>
       <path id="DejaVuSans-4d" d="M 628 4666 
L 1569 4666 
L 2759 1491 
L 3956 4666 
L 4897 4666 
L 4897 0 
L 4281 0 
L 4281 4097 
L 3078 897 
L 2444 897 
L 1241 4097 
L 1241 0 
L 628 0 
L 628 4666 
z
" transform="scale(0.015625)"/>
       <path id="DejaVuSans-6f" d="M 1959 3097 
Q 1497 3097 1228 2736 
Q 959 2375 959 1747 
Q 959 1119 1226 758 
Q 1494 397 1959 397 
Q 2419 397 2687 759 
Q 2956 1122 2956 1747 
Q 2956 2369 2687 2733 
Q 2419 3097 1959 3097 
z
M 1959 3584 
Q 2709 3584 3137 3096 
Q 3566 2609 3566 1747 
Q 3566 888 3137 398 
Q 2709 -91 1959 -91 
Q 1206 -91 779 398 
Q 353 888 353 1747 
Q 353 2609 779 3096 
Q 1206 3584 1959 3584 
z
" transform="scale(0.015625)"/>
       <path id="DejaVuSans-64" d="M 2906 2969 
L 2906 4863 
L 3481 4863 
L 3481 0 
L 2906 0 
L 2906 525 
Q 2725 213 2448 61 
Q 2172 -91 1784 -91 
Q 1150 -91 751 415 
Q 353 922 353 1747 
Q 353 2572 751 3078 
Q 1150 3584 1784 3584 
Q 2172 3584 2448 3432 
Q 2725 3281 2906 2969 
z
M 947 1747 
Q 947 1113 1208 752 
Q 1469 391 1925 391 
Q 2381 391 2643 752 
Q 2906 1113 2906 1747 
Q 2906 2381 2643 2742 
Q 2381 3103 1925 3103 
Q 1469 3103 1208 2742 
Q 947 2381 947 1747 
z
" transform="scale(0.015625)"/>
       <path id="DejaVuSans-65" d="M 3597 1894 
L 3597 1613 
L 953 1613 
Q 991 1019 1311 708 
Q 1631 397 2203 397 
Q 2534 397 2845 478 
Q 3156 559 3463 722 
L 3463 178 
Q 3153 47 2828 -22 
Q 2503 -91 2169 -91 
Q 1331 -91 842 396 
Q 353 884 353 1716 
Q 353 2575 817 3079 
Q 1281 3584 2069 3584 
Q 2775 3584 3186 3129 
Q 3597 2675 3597 1894 
z
M 3022 2063 
Q 3016 2534 2758 2815 
Q 2500 3097 2075 3097 
Q 1594 3097 1305 2825 
Q 1016 2553 972 2059 
L 3022 2063 
z
" transform="scale(0.015625)"/>
       <path id="DejaVuSans-6c" d="M 603 4863 
L 1178 4863 
L 1178 0 
L 603 0 
L 603 4863 
z
" transform="scale(0.015625)"/>
      </defs>
      <use xlink:href="#DejaVuSans-47"/>
      <use xlink:href="#DejaVuSans-61" x="77.490234"/>
      <use xlink:href="#DejaVuSans-75" x="138.769531"/>
      <use xlink:href="#DejaVuSans-73" x="202.148438"/>
      <use xlink:href="#DejaVuSans-73" x="254.248047"/>
      <use xlink:href="#DejaVuSans-69" x="306.347656"/>
      <use xlink:href="#DejaVuSans-61" x="334.130859"/>
      <use xlink:href="#DejaVuSans-6e" x="395.410156"/>
      <use xlink:href="#DejaVuSans-20" x="458.789062"/>
      <use xlink:href="#DejaVuSans-4d" x="490.576172"/>
      <use xlink:href="#DejaVuSans-6f" x="576.855469"/>
      <use xlink:href="#DejaVuSans-64" x="638.037109"/>
      <use xlink:href="#DejaVuSans-65" x="701.513672"/>
      <use xlink:href="#DejaVuSans-6c" x="763.037109"/>
     </g>
    </g>
   </g>
  </g>
 </g>
 <defs>
  <clipPath id="pef71a996e0">
   <rect x="26.925" y="7.2" width="357.12" height="266.112"/>
  </clipPath>
 </defs>
</svg>
