<?xml version="1.0" encoding="utf-8" standalone="no"?>
<!DOCTYPE svg PUBLIC "-//W3C//DTD SVG 1.1//EN"
  "http://www.w3.org/Graphics/SVG/1.1/DTD/svg11.dtd">
<svg xmlns:xlink="http://www.w3.org/1999/xlink" width="748.365pt" height="292.006125pt" viewBox="0 0 748.365 292.006125" xmlns="http://www.w3.org/2000/svg" version="1.1">
 <metadata>
  <rdf:RDF xmlns:dc="http://purl.org/dc/elements/1.1/" xmlns:cc="http://creativecommons.org/ns#" xmlns:rdf="http://www.w3.org/1999/02/22-rdf-syntax-ns#">
   <cc:Work>
    <dc:type rdf:resource="http://purl.org/dc/dcmitype/StillImage"/>
    <dc:date>2022-10-26T21:52:46.387792</dc:date>
    <dc:format>image/svg+xml</dc:format>
    <dc:creator>
     <cc:Agent>
      <dc:title>Matplotlib v3.5.3, https://matplotlib.org/</dc:title>
     </cc:Agent>
    </dc:creator>
   </cc:Work>
  </rdf:RDF>
 </metadata>
 <defs>
  <style type="text/css">*{stroke-linejoin: round; stroke-linecap: butt}</style>
 </defs>
 <g id="figure_1">
  <g id="patch_1">
   <path d="M 0 292.006125 
L 748.365 292.006125 
L 748.365 0 
L 0 0 
L 0 292.006125 
z
" style="fill: none"/>
  </g>
  <g id="axes_1">
   <g id="patch_2">
    <path d="M 26.925 268.128 
L 351.579545 268.128 
L 351.579545 7.2 
L 26.925 7.2 
z
" style="fill: #ffffff"/>
   </g>
   <g id="matplotlib.axis_1">
    <g id="xtick_1">
     <g id="line2d_1">
      <defs>
       <path id="m622455cbbd" d="M 0 0 
L 0 3.5 
" style="stroke: #000000; stroke-width: 0.8"/>
      </defs>
      <g>
       <use xlink:href="#m622455cbbd" x="41.682025" y="268.128" style="stroke: #000000; stroke-width: 0.8"/>
      </g>
     </g>
     <g id="text_1">
      <!-- 0.0 -->
      <g transform="translate(33.730462 282.726437)scale(0.1 -0.1)">
       <defs>
        <path id="DejaVuSans-30" d="M 2034 4250 
Q 1547 4250 1301 3770 
Q 1056 3291 1056 2328 
Q 1056 1369 1301 889 
Q 1547 409 2034 409 
Q 2525 409 2770 889 
Q 3016 1369 3016 2328 
Q 3016 3291 2770 3770 
Q 2525 4250 2034 4250 
z
M 2034 4750 
Q 2819 4750 3233 4129 
Q 3647 3509 3647 2328 
Q 3647 1150 3233 529 
Q 2819 -91 2034 -91 
Q 1250 -91 836 529 
Q 422 1150 422 2328 
Q 422 3509 836 4129 
Q 1250 4750 2034 4750 
z
" transform="scale(0.015625)"/>
        <path id="DejaVuSans-2e" d="M 684 794 
L 1344 794 
L 1344 0 
L 684 0 
L 684 794 
z
" transform="scale(0.015625)"/>
       </defs>
       <use xlink:href="#DejaVuSans-30"/>
       <use xlink:href="#DejaVuSans-2e" x="63.623047"/>
       <use xlink:href="#DejaVuSans-30" x="95.410156"/>
      </g>
     </g>
    </g>
    <g id="xtick_2">
     <g id="line2d_2">
      <g>
       <use xlink:href="#m622455cbbd" x="78.574587" y="268.128" style="stroke: #000000; stroke-width: 0.8"/>
      </g>
     </g>
     <g id="text_2">
      <!-- 2.5 -->
      <g transform="translate(70.623024 282.726437)scale(0.1 -0.1)">
       <defs>
        <path id="DejaVuSans-32" d="M 1228 531 
L 3431 531 
L 3431 0 
L 469 0 
L 469 531 
Q 828 903 1448 1529 
Q 2069 2156 2228 2338 
Q 2531 2678 2651 2914 
Q 2772 3150 2772 3378 
Q 2772 3750 2511 3984 
Q 2250 4219 1831 4219 
Q 1534 4219 1204 4116 
Q 875 4013 500 3803 
L 500 4441 
Q 881 4594 1212 4672 
Q 1544 4750 1819 4750 
Q 2544 4750 2975 4387 
Q 3406 4025 3406 3419 
Q 3406 3131 3298 2873 
Q 3191 2616 2906 2266 
Q 2828 2175 2409 1742 
Q 1991 1309 1228 531 
z
" transform="scale(0.015625)"/>
        <path id="DejaVuSans-35" d="M 691 4666 
L 3169 4666 
L 3169 4134 
L 1269 4134 
L 1269 2991 
Q 1406 3038 1543 3061 
Q 1681 3084 1819 3084 
Q 2600 3084 3056 2656 
Q 3513 2228 3513 1497 
Q 3513 744 3044 326 
Q 2575 -91 1722 -91 
Q 1428 -91 1123 -41 
Q 819 9 494 109 
L 494 744 
Q 775 591 1075 516 
Q 1375 441 1709 441 
Q 2250 441 2565 725 
Q 2881 1009 2881 1497 
Q 2881 1984 2565 2268 
Q 2250 2553 1709 2553 
Q 1456 2553 1204 2497 
Q 953 2441 691 2322 
L 691 4666 
z
" transform="scale(0.015625)"/>
       </defs>
       <use xlink:href="#DejaVuSans-32"/>
       <use xlink:href="#DejaVuSans-2e" x="63.623047"/>
       <use xlink:href="#DejaVuSans-35" x="95.410156"/>
      </g>
     </g>
    </g>
    <g id="xtick_3">
     <g id="line2d_3">
      <g>
       <use xlink:href="#m622455cbbd" x="115.467149" y="268.128" style="stroke: #000000; stroke-width: 0.8"/>
      </g>
     </g>
     <g id="text_3">
      <!-- 5.0 -->
      <g transform="translate(107.515586 282.726437)scale(0.1 -0.1)">
       <use xlink:href="#DejaVuSans-35"/>
       <use xlink:href="#DejaVuSans-2e" x="63.623047"/>
       <use xlink:href="#DejaVuSans-30" x="95.410156"/>
      </g>
     </g>
    </g>
    <g id="xtick_4">
     <g id="line2d_4">
      <g>
       <use xlink:href="#m622455cbbd" x="152.359711" y="268.128" style="stroke: #000000; stroke-width: 0.8"/>
      </g>
     </g>
     <g id="text_4">
      <!-- 7.5 -->
      <g transform="translate(144.408148 282.726437)scale(0.1 -0.1)">
       <defs>
        <path id="DejaVuSans-37" d="M 525 4666 
L 3525 4666 
L 3525 4397 
L 1831 0 
L 1172 0 
L 2766 4134 
L 525 4134 
L 525 4666 
z
" transform="scale(0.015625)"/>
       </defs>
       <use xlink:href="#DejaVuSans-37"/>
       <use xlink:href="#DejaVuSans-2e" x="63.623047"/>
       <use xlink:href="#DejaVuSans-35" x="95.410156"/>
      </g>
     </g>
    </g>
    <g id="xtick_5">
     <g id="line2d_5">
      <g>
       <use xlink:href="#m622455cbbd" x="189.252273" y="268.128" style="stroke: #000000; stroke-width: 0.8"/>
      </g>
     </g>
     <g id="text_5">
      <!-- 10.0 -->
      <g transform="translate(178.11946 282.726437)scale(0.1 -0.1)">
       <defs>
        <path id="DejaVuSans-31" d="M 794 531 
L 1825 531 
L 1825 4091 
L 703 3866 
L 703 4441 
L 1819 4666 
L 2450 4666 
L 2450 531 
L 3481 531 
L 3481 0 
L 794 0 
L 794 531 
z
" transform="scale(0.015625)"/>
       </defs>
       <use xlink:href="#DejaVuSans-31"/>
       <use xlink:href="#DejaVuSans-30" x="63.623047"/>
       <use xlink:href="#DejaVuSans-2e" x="127.246094"/>
       <use xlink:href="#DejaVuSans-30" x="159.033203"/>
      </g>
     </g>
    </g>
    <g id="xtick_6">
     <g id="line2d_6">
      <g>
       <use xlink:href="#m622455cbbd" x="226.144835" y="268.128" style="stroke: #000000; stroke-width: 0.8"/>
      </g>
     </g>
     <g id="text_6">
      <!-- 12.5 -->
      <g transform="translate(215.012022 282.726437)scale(0.1 -0.1)">
       <use xlink:href="#DejaVuSans-31"/>
       <use xlink:href="#DejaVuSans-32" x="63.623047"/>
       <use xlink:href="#DejaVuSans-2e" x="127.246094"/>
       <use xlink:href="#DejaVuSans-35" x="159.033203"/>
      </g>
     </g>
    </g>
    <g id="xtick_7">
     <g id="line2d_7">
      <g>
       <use xlink:href="#m622455cbbd" x="263.037397" y="268.128" style="stroke: #000000; stroke-width: 0.8"/>
      </g>
     </g>
     <g id="text_7">
      <!-- 15.0 -->
      <g transform="translate(251.904584 282.726437)scale(0.1 -0.1)">
       <use xlink:href="#DejaVuSans-31"/>
       <use xlink:href="#DejaVuSans-35" x="63.623047"/>
       <use xlink:href="#DejaVuSans-2e" x="127.246094"/>
       <use xlink:href="#DejaVuSans-30" x="159.033203"/>
      </g>
     </g>
    </g>
    <g id="xtick_8">
     <g id="line2d_8">
      <g>
       <use xlink:href="#m622455cbbd" x="299.929959" y="268.128" style="stroke: #000000; stroke-width: 0.8"/>
      </g>
     </g>
     <g id="text_8">
      <!-- 17.5 -->
      <g transform="translate(288.797146 282.726437)scale(0.1 -0.1)">
       <use xlink:href="#DejaVuSans-31"/>
       <use xlink:href="#DejaVuSans-37" x="63.623047"/>
       <use xlink:href="#DejaVuSans-2e" x="127.246094"/>
       <use xlink:href="#DejaVuSans-35" x="159.033203"/>
      </g>
     </g>
    </g>
    <g id="xtick_9">
     <g id="line2d_9">
      <g>
       <use xlink:href="#m622455cbbd" x="336.822521" y="268.128" style="stroke: #000000; stroke-width: 0.8"/>
      </g>
     </g>
     <g id="text_9">
      <!-- 20.0 -->
      <g transform="translate(325.689708 282.726437)scale(0.1 -0.1)">
       <use xlink:href="#DejaVuSans-32"/>
       <use xlink:href="#DejaVuSans-30" x="63.623047"/>
       <use xlink:href="#DejaVuSans-2e" x="127.246094"/>
       <use xlink:href="#DejaVuSans-30" x="159.033203"/>
      </g>
     </g>
    </g>
   </g>
   <g id="matplotlib.axis_2">
    <g id="ytick_1">
     <g id="line2d_10">
      <defs>
       <path id="m48bc872a36" d="M 0 0 
L -3.5 0 
" style="stroke: #000000; stroke-width: 0.8"/>
      </defs>
      <g>
       <use xlink:href="#m48bc872a36" x="26.925" y="249.251903" style="stroke: #000000; stroke-width: 0.8"/>
      </g>
     </g>
     <g id="text_10">
      <!-- 0 -->
      <g transform="translate(13.5625 253.051122)scale(0.1 -0.1)">
       <use xlink:href="#DejaVuSans-30"/>
      </g>
     </g>
    </g>
    <g id="ytick_2">
     <g id="line2d_11">
      <g>
       <use xlink:href="#m48bc872a36" x="26.925" y="205.206193" style="stroke: #000000; stroke-width: 0.8"/>
      </g>
     </g>
     <g id="text_11">
      <!-- 2 -->
      <g transform="translate(13.5625 209.005411)scale(0.1 -0.1)">
       <use xlink:href="#DejaVuSans-32"/>
      </g>
     </g>
    </g>
    <g id="ytick_3">
     <g id="line2d_12">
      <g>
       <use xlink:href="#m48bc872a36" x="26.925" y="161.160482" style="stroke: #000000; stroke-width: 0.8"/>
      </g>
     </g>
     <g id="text_12">
      <!-- 4 -->
      <g transform="translate(13.5625 164.9597)scale(0.1 -0.1)">
       <defs>
        <path id="DejaVuSans-34" d="M 2419 4116 
L 825 1625 
L 2419 1625 
L 2419 4116 
z
M 2253 4666 
L 3047 4666 
L 3047 1625 
L 3713 1625 
L 3713 1100 
L 3047 1100 
L 3047 0 
L 2419 0 
L 2419 1100 
L 313 1100 
L 313 1709 
L 2253 4666 
z
" transform="scale(0.015625)"/>
       </defs>
       <use xlink:href="#DejaVuSans-34"/>
      </g>
     </g>
    </g>
    <g id="ytick_4">
     <g id="line2d_13">
      <g>
       <use xlink:href="#m48bc872a36" x="26.925" y="117.114771" style="stroke: #000000; stroke-width: 0.8"/>
      </g>
     </g>
     <g id="text_13">
      <!-- 6 -->
      <g transform="translate(13.5625 120.91399)scale(0.1 -0.1)">
       <defs>
        <path id="DejaVuSans-36" d="M 2113 2584 
Q 1688 2584 1439 2293 
Q 1191 2003 1191 1497 
Q 1191 994 1439 701 
Q 1688 409 2113 409 
Q 2538 409 2786 701 
Q 3034 994 3034 1497 
Q 3034 2003 2786 2293 
Q 2538 2584 2113 2584 
z
M 3366 4563 
L 3366 3988 
Q 3128 4100 2886 4159 
Q 2644 4219 2406 4219 
Q 1781 4219 1451 3797 
Q 1122 3375 1075 2522 
Q 1259 2794 1537 2939 
Q 1816 3084 2150 3084 
Q 2853 3084 3261 2657 
Q 3669 2231 3669 1497 
Q 3669 778 3244 343 
Q 2819 -91 2113 -91 
Q 1303 -91 875 529 
Q 447 1150 447 2328 
Q 447 3434 972 4092 
Q 1497 4750 2381 4750 
Q 2619 4750 2861 4703 
Q 3103 4656 3366 4563 
z
" transform="scale(0.015625)"/>
       </defs>
       <use xlink:href="#DejaVuSans-36"/>
      </g>
     </g>
    </g>
    <g id="ytick_5">
     <g id="line2d_14">
      <g>
       <use xlink:href="#m48bc872a36" x="26.925" y="73.06906" style="stroke: #000000; stroke-width: 0.8"/>
      </g>
     </g>
     <g id="text_14">
      <!-- 8 -->
      <g transform="translate(13.5625 76.868279)scale(0.1 -0.1)">
       <defs>
        <path id="DejaVuSans-38" d="M 2034 2216 
Q 1584 2216 1326 1975 
Q 1069 1734 1069 1313 
Q 1069 891 1326 650 
Q 1584 409 2034 409 
Q 2484 409 2743 651 
Q 3003 894 3003 1313 
Q 3003 1734 2745 1975 
Q 2488 2216 2034 2216 
z
M 1403 2484 
Q 997 2584 770 2862 
Q 544 3141 544 3541 
Q 544 4100 942 4425 
Q 1341 4750 2034 4750 
Q 2731 4750 3128 4425 
Q 3525 4100 3525 3541 
Q 3525 3141 3298 2862 
Q 3072 2584 2669 2484 
Q 3125 2378 3379 2068 
Q 3634 1759 3634 1313 
Q 3634 634 3220 271 
Q 2806 -91 2034 -91 
Q 1263 -91 848 271 
Q 434 634 434 1313 
Q 434 1759 690 2068 
Q 947 2378 1403 2484 
z
M 1172 3481 
Q 1172 3119 1398 2916 
Q 1625 2713 2034 2713 
Q 2441 2713 2670 2916 
Q 2900 3119 2900 3481 
Q 2900 3844 2670 4047 
Q 2441 4250 2034 4250 
Q 1625 4250 1398 4047 
Q 1172 3844 1172 3481 
z
" transform="scale(0.015625)"/>
       </defs>
       <use xlink:href="#DejaVuSans-38"/>
      </g>
     </g>
    </g>
    <g id="ytick_6">
     <g id="line2d_15">
      <g>
       <use xlink:href="#m48bc872a36" x="26.925" y="29.023349" style="stroke: #000000; stroke-width: 0.8"/>
      </g>
     </g>
     <g id="text_15">
      <!-- 10 -->
      <g transform="translate(7.2 32.822568)scale(0.1 -0.1)">
       <use xlink:href="#DejaVuSans-31"/>
       <use xlink:href="#DejaVuSans-30" x="63.623047"/>
      </g>
     </g>
    </g>
   </g>
   <g id="line2d_16">
    <path d="M 41.682025 248.77502 
L 42.419876 248.828602 
L 43.157727 252.486642 
L 44.63343 240.765022 
L 45.371281 239.865102 
L 46.109132 248.828162 
L 46.846983 247.58768 
L 47.584835 244.994797 
L 48.322686 244.019053 
L 49.060537 251.609913 
L 49.798388 244.6926 
L 50.53624 246.972956 
L 51.274091 245.397177 
L 52.011942 248.765771 
L 52.749793 247.699072 
L 53.487645 240.353767 
L 54.963347 252.305394 
L 55.701198 245.953254 
L 56.43905 244.570175 
L 57.176901 246.306479 
L 57.914752 245.066129 
L 58.652603 254.850708 
L 59.390455 243.675452 
L 60.128306 247.937954 
L 60.866157 245.121891 
L 61.604008 243.663736 
L 62.34186 250.073488 
L 63.079711 247.478777 
L 63.817562 248.974261 
L 64.555413 244.308323 
L 65.293264 243.27457 
L 66.031116 246.651599 
L 66.768967 250.963586 
L 67.506818 245.632888 
L 68.244669 248.68781 
L 68.982521 250.019708 
L 69.720372 247.733031 
L 70.458223 251.525499 
L 71.196074 247.789167 
L 71.933926 243.26499 
L 72.671777 246.189647 
L 73.409628 245.683452 
L 74.147479 250.008322 
L 74.885331 246.260935 
L 75.623182 247.757476 
L 76.361033 252.815025 
L 77.098884 245.866946 
L 77.836736 247.687091 
L 78.574587 250.331244 
L 79.312438 244.774525 
L 80.050289 245.698714 
L 80.78814 244.863211 
L 81.525992 243.692982 
L 82.263843 241.422492 
L 83.001694 251.403008 
L 83.739545 243.64636 
L 84.477397 244.468826 
L 85.215248 245.852125 
L 85.953099 250.614678 
L 86.69095 246.425424 
L 87.428802 244.716495 
L 88.166653 241.551282 
L 88.904504 247.372451 
L 89.642355 246.485987 
L 90.380207 243.649707 
L 91.118058 249.109724 
L 91.855909 247.409163 
L 92.59376 246.463237 
L 93.331612 246.34427 
L 94.069463 241.164428 
L 95.545165 249.341184 
L 96.283017 247.663791 
L 97.020868 240.811292 
L 97.758719 244.35913 
L 98.49657 247.08056 
L 99.234421 242.104209 
L 99.972273 246.489819 
L 100.710124 244.529829 
L 101.447975 242.920354 
L 102.185826 244.173895 
L 102.923678 246.14591 
L 103.661529 241.737243 
L 104.39938 245.662332 
L 105.137231 245.403696 
L 105.875083 238.612728 
L 106.612934 235.27838 
L 107.350785 245.898527 
L 108.088636 239.543898 
L 108.826488 246.492902 
L 109.564339 242.588536 
L 110.30219 235.759072 
L 111.040041 249.763406 
L 111.777893 238.654527 
L 112.515744 247.025481 
L 113.253595 236.650492 
L 113.991446 240.561134 
L 114.729298 239.097671 
L 115.467149 251.596038 
L 116.205 235.256269 
L 116.942851 239.546982 
L 117.680702 241.852686 
L 118.418554 236.756223 
L 119.156405 236.287907 
L 119.894256 247.02079 
L 120.632107 241.086489 
L 121.369959 237.537969 
L 122.10781 241.608563 
L 122.845661 240.710075 
L 123.583512 240.107067 
L 124.321364 239.125794 
L 125.059215 236.9343 
L 125.797066 237.639868 
L 126.534917 234.733953 
L 127.272769 235.010714 
L 128.01062 230.045177 
L 128.748471 238.100939 
L 129.486322 230.910366 
L 130.224174 234.667752 
L 130.962025 234.579396 
L 131.699876 232.834173 
L 132.437727 232.221563 
L 133.175579 231.174575 
L 133.91343 228.333869 
L 134.651281 227.234598 
L 135.389132 222.936397 
L 136.126983 228.380931 
L 136.864835 226.465538 
L 137.602686 227.126289 
L 138.340537 223.800045 
L 139.078388 215.306909 
L 139.81624 219.687938 
L 140.554091 216.702431 
L 141.291942 218.955612 
L 142.029793 210.404005 
L 142.767645 213.169547 
L 143.505496 212.856118 
L 144.243347 202.44402 
L 144.981198 208.595928 
L 145.71905 205.016928 
L 146.456901 205.925745 
L 147.194752 195.938336 
L 147.932603 183.484324 
L 148.670455 187.234023 
L 149.408306 188.044134 
L 150.146157 195.238516 
L 150.884008 179.155203 
L 151.62186 175.580849 
L 152.359711 178.547394 
L 153.097562 169.293038 
L 153.835413 165.862648 
L 154.573264 154.811116 
L 155.311116 158.786616 
L 156.048967 156.240774 
L 156.786818 143.051374 
L 157.524669 142.380998 
L 158.262521 135.755753 
L 159.000372 127.230859 
L 160.476074 117.876101 
L 161.213926 119.460095 
L 161.951777 105.654539 
L 163.427479 95.470466 
L 164.165331 97.915003 
L 164.903182 86.688214 
L 165.641033 88.590482 
L 166.378884 78.129472 
L 167.116736 76.260062 
L 167.854587 69.133686 
L 168.592438 56.821346 
L 169.330289 58.548775 
L 170.06814 56.287953 
L 170.805992 43.879813 
L 171.543843 35.767144 
L 172.281694 40.185457 
L 173.019545 32.543196 
L 173.757397 38.022262 
L 174.495248 31.352971 
L 175.233099 33.832722 
L 175.97095 33.712874 
L 176.708802 30.24597 
L 178.184504 19.060364 
L 178.922355 24.655072 
L 179.660207 24.174005 
L 180.398058 27.00784 
L 181.135909 33.340798 
L 181.87376 29.541833 
L 182.611612 36.841991 
L 183.349463 36.67867 
L 184.087314 43.007951 
L 184.825165 47.928605 
L 185.563017 48.325215 
L 186.300868 58.29309 
L 187.038719 54.773309 
L 187.77657 59.576493 
L 188.514421 68.652046 
L 189.990124 77.78085 
L 190.727975 79.030427 
L 191.465826 88.768581 
L 192.203678 100.077912 
L 192.941529 99.038896 
L 193.67938 99.694868 
L 194.417231 109.967297 
L 195.155083 115.429978 
L 195.892934 122.202645 
L 196.630785 121.804846 
L 197.368636 126.943792 
L 198.106488 136.333786 
L 198.844339 141.29025 
L 199.58219 140.681627 
L 200.320041 157.390918 
L 201.057893 154.470775 
L 201.795744 166.279805 
L 203.271446 165.237859 
L 204.747149 181.456173 
L 205.485 187.813709 
L 206.222851 191.549159 
L 206.960702 196.035193 
L 207.698554 195.719451 
L 208.436405 199.291184 
L 209.174256 200.019854 
L 209.912107 198.34909 
L 210.649959 205.091211 
L 211.38781 205.861835 
L 212.125661 207.232692 
L 212.863512 210.755512 
L 213.601364 216.620418 
L 214.339215 215.796389 
L 215.077066 210.103679 
L 215.814917 224.242881 
L 216.552769 219.612201 
L 217.29062 226.198885 
L 218.028471 226.339853 
L 218.766322 229.684288 
L 219.504174 227.34044 
L 220.242025 227.184804 
L 220.979876 222.0352 
L 221.717727 226.550876 
L 222.455579 229.56107 
L 223.19343 230.766271 
L 223.931281 236.81421 
L 224.669132 237.292964 
L 225.406983 225.737484 
L 226.144835 236.72004 
L 226.882686 237.223108 
L 227.620537 232.343834 
L 228.358388 241.041915 
L 229.09624 238.10748 
L 229.834091 247.181623 
L 230.571942 234.770753 
L 231.309793 234.059503 
L 232.047645 244.074903 
L 232.785496 237.978844 
L 233.523347 238.334513 
L 234.261198 233.390867 
L 234.99905 239.144029 
L 235.736901 237.907842 
L 236.474752 239.396235 
L 237.212603 242.438516 
L 237.950455 241.852224 
L 238.688306 240.36033 
L 239.426157 245.423472 
L 240.164008 237.305253 
L 240.90186 239.656369 
L 241.639711 238.17879 
L 242.377562 243.597359 
L 243.115413 243.31137 
L 243.853264 244.756818 
L 244.591116 244.414495 
L 245.328967 236.123947 
L 246.066818 243.248385 
L 246.804669 244.22794 
L 247.542521 242.46534 
L 248.280372 247.813194 
L 249.018223 238.432251 
L 249.756074 238.354598 
L 250.493926 242.165323 
L 251.231777 244.907521 
L 251.969628 235.990599 
L 252.707479 245.838008 
L 253.445331 241.910188 
L 254.183182 243.525124 
L 254.921033 245.968516 
L 255.658884 245.62214 
L 256.396736 248.54693 
L 257.134587 239.10201 
L 257.872438 243.186302 
L 258.610289 241.691281 
L 259.34814 241.568173 
L 260.085992 241.868785 
L 260.823843 244.323827 
L 261.561694 248.018161 
L 262.299545 246.030686 
L 263.037397 242.733645 
L 263.775248 248.607603 
L 264.513099 245.09575 
L 265.25095 245.161973 
L 265.988802 249.477153 
L 266.726653 250.913264 
L 267.464504 250.35254 
L 268.202355 245.804336 
L 268.940207 246.197994 
L 269.678058 239.768796 
L 270.415909 246.890327 
L 271.15376 243.336366 
L 271.891612 245.021027 
L 272.629463 251.213743 
L 273.367314 247.563874 
L 274.105165 238.359267 
L 274.843017 242.548785 
L 275.580868 242.382887 
L 277.05657 250.029266 
L 277.794421 239.506415 
L 278.532273 246.40633 
L 279.270124 244.790117 
L 280.007975 250.093132 
L 280.745826 245.619366 
L 281.483678 247.275859 
L 282.221529 249.89801 
L 282.95938 242.167569 
L 283.697231 249.209906 
L 285.172934 233.698306 
L 285.910785 245.081237 
L 286.648636 244.682073 
L 287.386488 243.684966 
L 288.124339 241.815842 
L 290.337893 253.663544 
L 291.075744 247.850809 
L 291.813595 248.932286 
L 292.551446 247.25051 
L 293.289298 243.489689 
L 294.027149 246.152605 
L 294.765 241.511641 
L 295.502851 254.162273 
L 296.240702 245.011975 
L 296.978554 251.08676 
L 298.454256 240.625177 
L 299.192107 251.263889 
L 299.929959 251.870113 
L 300.66781 250.459725 
L 301.405661 245.281293 
L 302.143512 247.811631 
L 302.881364 242.226282 
L 303.619215 245.588886 
L 304.357066 244.695925 
L 305.094917 246.860111 
L 305.832769 247.369103 
L 306.57062 243.290691 
L 307.308471 243.953315 
L 308.046322 242.648967 
L 308.784174 250.132994 
L 309.522025 242.506765 
L 310.259876 250.076373 
L 310.997727 249.116947 
L 311.735579 244.313697 
L 312.47343 248.047451 
L 313.211281 246.17051 
L 313.949132 251.005099 
L 314.686983 253.995362 
L 315.424835 250.64421 
L 316.162686 248.975296 
L 316.900537 252.299514 
L 317.638388 242.058754 
L 319.114091 250.419313 
L 319.851942 249.889685 
L 320.589793 248.080486 
L 321.327645 243.97831 
L 322.065496 244.273219 
L 322.803347 249.615479 
L 323.541198 245.830344 
L 324.27905 245.148517 
L 325.016901 247.558808 
L 325.754752 245.185603 
L 326.492603 244.957909 
L 327.230455 245.864238 
L 327.968306 247.520929 
L 328.706157 247.443254 
L 329.444008 247.720941 
L 330.18186 245.52916 
L 331.657562 252.456956 
L 332.395413 256.183729 
L 333.133264 240.229404 
L 333.871116 250.820305 
L 334.608967 256.267636 
L 335.346818 245.748089 
L 336.084669 249.564408 
L 336.822521 251.266422 
L 336.822521 251.266422 
" clip-path="url(#pf343784aa3)" style="fill: none; stroke: #1f77b4; stroke-width: 1.5; stroke-linecap: square"/>
   </g>
   <g id="line2d_17">
    <path d="M 41.682025 247.083007 
L 57.914752 246.447179 
L 70.458223 245.740997 
L 80.78814 244.93584 
L 88.904504 244.089212 
L 95.545165 243.193722 
L 101.447975 242.183289 
L 106.612934 241.072302 
L 111.040041 239.892797 
L 114.729298 238.698623 
L 118.418554 237.254023 
L 121.369959 235.867209 
L 124.321364 234.217785 
L 126.534917 232.766115 
L 128.748471 231.087807 
L 130.962025 229.133747 
L 133.175579 226.84224 
L 135.389132 224.136091 
L 137.602686 220.91957 
L 139.078388 218.434867 
L 140.554091 215.631575 
L 142.029793 212.464929 
L 143.505496 208.885968 
L 144.981198 204.842233 
L 146.456901 200.278969 
L 147.932603 195.140912 
L 149.408306 189.374764 
L 150.884008 182.932381 
L 152.359711 175.774682 
L 154.573264 163.646103 
L 156.786818 149.852906 
L 159.000372 134.525568 
L 161.951777 112.24184 
L 167.854587 66.558046 
L 170.06814 51.533583 
L 171.543843 42.893611 
L 173.019545 35.656007 
L 174.495248 30.044751 
L 175.233099 27.907151 
L 175.97095 26.239385 
L 176.708802 25.055227 
L 177.446653 24.364528 
L 178.184504 24.173057 
L 178.922355 24.482416 
L 179.660207 25.290017 
L 180.398058 26.589119 
L 181.135909 28.368932 
L 181.87376 30.614783 
L 182.611612 33.308335 
L 184.087314 39.948587 
L 185.563017 48.081298 
L 187.038719 57.461241 
L 189.252273 73.279007 
L 192.941529 102.013361 
L 196.630785 130.406123 
L 198.844339 146.084172 
L 201.057893 160.286773 
L 203.271446 172.843939 
L 205.485 183.72761 
L 206.960702 190.088108 
L 208.436405 195.777652 
L 209.912107 200.845183 
L 211.38781 205.344381 
L 212.863512 209.330566 
L 214.339215 212.858302 
L 215.814917 215.979688 
L 217.29062 218.74322 
L 219.504174 222.313089 
L 221.717727 225.306512 
L 223.931281 227.831422 
L 226.144835 229.975556 
L 228.358388 231.809356 
L 230.571942 233.389 
L 233.523347 235.175754 
L 236.474752 236.670866 
L 239.426157 237.935197 
L 243.115413 239.259784 
L 246.804669 240.360951 
L 251.231777 241.454439 
L 256.396736 242.490047 
L 262.299545 243.436991 
L 268.940207 244.280535 
L 277.05657 245.082077 
L 286.648636 245.800926 
L 298.454256 246.455407 
L 313.211281 247.040461 
L 332.395413 247.561318 
L 336.822521 247.655183 
L 336.822521 247.655183 
" clip-path="url(#pf343784aa3)" style="fill: none; stroke: #ff7f0e; stroke-width: 1.5; stroke-linecap: square"/>
   </g>
   <g id="patch_3">
    <path d="M 26.925 268.128 
L 26.925 7.2 
" style="fill: none; stroke: #000000; stroke-width: 0.8; stroke-linejoin: miter; stroke-linecap: square"/>
   </g>
   <g id="patch_4">
    <path d="M 351.579545 268.128 
L 351.579545 7.2 
" style="fill: none; stroke: #000000; stroke-width: 0.8; stroke-linejoin: miter; stroke-linecap: square"/>
   </g>
   <g id="patch_5">
    <path d="M 26.925 268.128 
L 351.579545 268.128 
" style="fill: none; stroke: #000000; stroke-width: 0.8; stroke-linejoin: miter; stroke-linecap: square"/>
   </g>
   <g id="patch_6">
    <path d="M 26.925 7.2 
L 351.579545 7.2 
" style="fill: none; stroke: #000000; stroke-width: 0.8; stroke-linejoin: miter; stroke-linecap: square"/>
   </g>
   <g id="legend_1">
    <g id="patch_7">
     <path d="M 212.374858 41.075937 
L 344.579545 41.075937 
Q 346.579545 41.075937 346.579545 39.075937 
L 346.579545 14.2 
Q 346.579545 12.2 344.579545 12.2 
L 212.374858 12.2 
Q 210.374858 12.2 210.374858 14.2 
L 210.374858 39.075937 
Q 210.374858 41.075937 212.374858 41.075937 
z
" style="fill: #ffffff; opacity: 0.8; stroke: #cccccc; stroke-linejoin: miter"/>
    </g>
    <g id="line2d_18">
     <path d="M 214.374858 26.937187 
L 224.374858 26.937187 
L 234.374858 26.937187 
" style="fill: none; stroke: #ff7f0e; stroke-width: 1.5; stroke-linecap: square"/>
    </g>
    <g id="text_16">
     <!-- Voigt Model -->
     <g transform="translate(242.374858 23.798437)scale(0.1 -0.1)">
      <defs>
       <path id="DejaVuSans-56" d="M 1831 0 
L 50 4666 
L 709 4666 
L 2188 738 
L 3669 4666 
L 4325 4666 
L 2547 0 
L 1831 0 
z
" transform="scale(0.015625)"/>
       <path id="DejaVuSans-6f" d="M 1959 3097 
Q 1497 3097 1228 2736 
Q 959 2375 959 1747 
Q 959 1119 1226 758 
Q 1494 397 1959 397 
Q 2419 397 2687 759 
Q 2956 1122 2956 1747 
Q 2956 2369 2687 2733 
Q 2419 3097 1959 3097 
z
M 1959 3584 
Q 2709 3584 3137 3096 
Q 3566 2609 3566 1747 
Q 3566 888 3137 398 
Q 2709 -91 1959 -91 
Q 1206 -91 779 398 
Q 353 888 353 1747 
Q 353 2609 779 3096 
Q 1206 3584 1959 3584 
z
" transform="scale(0.015625)"/>
       <path id="DejaVuSans-69" d="M 603 3500 
L 1178 3500 
L 1178 0 
L 603 0 
L 603 3500 
z
M 603 4863 
L 1178 4863 
L 1178 4134 
L 603 4134 
L 603 4863 
z
" transform="scale(0.015625)"/>
       <path id="DejaVuSans-67" d="M 2906 1791 
Q 2906 2416 2648 2759 
Q 2391 3103 1925 3103 
Q 1463 3103 1205 2759 
Q 947 2416 947 1791 
Q 947 1169 1205 825 
Q 1463 481 1925 481 
Q 2391 481 2648 825 
Q 2906 1169 2906 1791 
z
M 3481 434 
Q 3481 -459 3084 -895 
Q 2688 -1331 1869 -1331 
Q 1566 -1331 1297 -1286 
Q 1028 -1241 775 -1147 
L 775 -588 
Q 1028 -725 1275 -790 
Q 1522 -856 1778 -856 
Q 2344 -856 2625 -561 
Q 2906 -266 2906 331 
L 2906 616 
Q 2728 306 2450 153 
Q 2172 0 1784 0 
Q 1141 0 747 490 
Q 353 981 353 1791 
Q 353 2603 747 3093 
Q 1141 3584 1784 3584 
Q 2172 3584 2450 3431 
Q 2728 3278 2906 2969 
L 2906 3500 
L 3481 3500 
L 3481 434 
z
" transform="scale(0.015625)"/>
       <path id="DejaVuSans-74" d="M 1172 4494 
L 1172 3500 
L 2356 3500 
L 2356 3053 
L 1172 3053 
L 1172 1153 
Q 1172 725 1289 603 
Q 1406 481 1766 481 
L 2356 481 
L 2356 0 
L 1766 0 
Q 1100 0 847 248 
Q 594 497 594 1153 
L 594 3053 
L 172 3053 
L 172 3500 
L 594 3500 
L 594 4494 
L 1172 4494 
z
" transform="scale(0.015625)"/>
       <path id="DejaVuSans-20" transform="scale(0.015625)"/>
       <path id="DejaVuSans-4d" d="M 628 4666 
L 1569 4666 
L 2759 1491 
L 3956 4666 
L 4897 4666 
L 4897 0 
L 4281 0 
L 4281 4097 
L 3078 897 
L 2444 897 
L 1241 4097 
L 1241 0 
L 628 0 
L 628 4666 
z
" transform="scale(0.015625)"/>
       <path id="DejaVuSans-64" d="M 2906 2969 
L 2906 4863 
L 3481 4863 
L 3481 0 
L 2906 0 
L 2906 525 
Q 2725 213 2448 61 
Q 2172 -91 1784 -91 
Q 1150 -91 751 415 
Q 353 922 353 1747 
Q 353 2572 751 3078 
Q 1150 3584 1784 3584 
Q 2172 3584 2448 3432 
Q 2725 3281 2906 2969 
z
M 947 1747 
Q 947 1113 1208 752 
Q 1469 391 1925 391 
Q 2381 391 2643 752 
Q 2906 1113 2906 1747 
Q 2906 2381 2643 2742 
Q 2381 3103 1925 3103 
Q 1469 3103 1208 2742 
Q 947 2381 947 1747 
z
" transform="scale(0.015625)"/>
       <path id="DejaVuSans-65" d="M 3597 1894 
L 3597 1613 
L 953 1613 
Q 991 1019 1311 708 
Q 1631 397 2203 397 
Q 2534 397 2845 478 
Q 3156 559 3463 722 
L 3463 178 
Q 3153 47 2828 -22 
Q 2503 -91 2169 -91 
Q 1331 -91 842 396 
Q 353 884 353 1716 
Q 353 2575 817 3079 
Q 1281 3584 2069 3584 
Q 2775 3584 3186 3129 
Q 3597 2675 3597 1894 
z
M 3022 2063 
Q 3016 2534 2758 2815 
Q 2500 3097 2075 3097 
Q 1594 3097 1305 2825 
Q 1016 2553 972 2059 
L 3022 2063 
z
" transform="scale(0.015625)"/>
       <path id="DejaVuSans-6c" d="M 603 4863 
L 1178 4863 
L 1178 0 
L 603 0 
L 603 4863 
z
" transform="scale(0.015625)"/>
      </defs>
      <use xlink:href="#DejaVuSans-56"/>
      <use xlink:href="#DejaVuSans-6f" x="60.658203"/>
      <use xlink:href="#DejaVuSans-69" x="121.839844"/>
      <use xlink:href="#DejaVuSans-67" x="149.623047"/>
      <use xlink:href="#DejaVuSans-74" x="213.099609"/>
      <use xlink:href="#DejaVuSans-20" x="252.308594"/>
      <use xlink:href="#DejaVuSans-4d" x="284.095703"/>
      <use xlink:href="#DejaVuSans-6f" x="370.375"/>
      <use xlink:href="#DejaVuSans-64" x="431.556641"/>
      <use xlink:href="#DejaVuSans-65" x="495.033203"/>
      <use xlink:href="#DejaVuSans-6c" x="556.556641"/>
     </g>
     <!-- gamma constrained -->
     <g transform="translate(242.374858 34.99625)scale(0.1 -0.1)">
      <defs>
       <path id="DejaVuSans-61" d="M 2194 1759 
Q 1497 1759 1228 1600 
Q 959 1441 959 1056 
Q 959 750 1161 570 
Q 1363 391 1709 391 
Q 2188 391 2477 730 
Q 2766 1069 2766 1631 
L 2766 1759 
L 2194 1759 
z
M 3341 1997 
L 3341 0 
L 2766 0 
L 2766 531 
Q 2569 213 2275 61 
Q 1981 -91 1556 -91 
Q 1019 -91 701 211 
Q 384 513 384 1019 
Q 384 1609 779 1909 
Q 1175 2209 1959 2209 
L 2766 2209 
L 2766 2266 
Q 2766 2663 2505 2880 
Q 2244 3097 1772 3097 
Q 1472 3097 1187 3025 
Q 903 2953 641 2809 
L 641 3341 
Q 956 3463 1253 3523 
Q 1550 3584 1831 3584 
Q 2591 3584 2966 3190 
Q 3341 2797 3341 1997 
z
" transform="scale(0.015625)"/>
       <path id="DejaVuSans-6d" d="M 3328 2828 
Q 3544 3216 3844 3400 
Q 4144 3584 4550 3584 
Q 5097 3584 5394 3201 
Q 5691 2819 5691 2113 
L 5691 0 
L 5113 0 
L 5113 2094 
Q 5113 2597 4934 2840 
Q 4756 3084 4391 3084 
Q 3944 3084 3684 2787 
Q 3425 2491 3425 1978 
L 3425 0 
L 2847 0 
L 2847 2094 
Q 2847 2600 2669 2842 
Q 2491 3084 2119 3084 
Q 1678 3084 1418 2786 
Q 1159 2488 1159 1978 
L 1159 0 
L 581 0 
L 581 3500 
L 1159 3500 
L 1159 2956 
Q 1356 3278 1631 3431 
Q 1906 3584 2284 3584 
Q 2666 3584 2933 3390 
Q 3200 3197 3328 2828 
z
" transform="scale(0.015625)"/>
       <path id="DejaVuSans-63" d="M 3122 3366 
L 3122 2828 
Q 2878 2963 2633 3030 
Q 2388 3097 2138 3097 
Q 1578 3097 1268 2742 
Q 959 2388 959 1747 
Q 959 1106 1268 751 
Q 1578 397 2138 397 
Q 2388 397 2633 464 
Q 2878 531 3122 666 
L 3122 134 
Q 2881 22 2623 -34 
Q 2366 -91 2075 -91 
Q 1284 -91 818 406 
Q 353 903 353 1747 
Q 353 2603 823 3093 
Q 1294 3584 2113 3584 
Q 2378 3584 2631 3529 
Q 2884 3475 3122 3366 
z
" transform="scale(0.015625)"/>
       <path id="DejaVuSans-6e" d="M 3513 2113 
L 3513 0 
L 2938 0 
L 2938 2094 
Q 2938 2591 2744 2837 
Q 2550 3084 2163 3084 
Q 1697 3084 1428 2787 
Q 1159 2491 1159 1978 
L 1159 0 
L 581 0 
L 581 3500 
L 1159 3500 
L 1159 2956 
Q 1366 3272 1645 3428 
Q 1925 3584 2291 3584 
Q 2894 3584 3203 3211 
Q 3513 2838 3513 2113 
z
" transform="scale(0.015625)"/>
       <path id="DejaVuSans-73" d="M 2834 3397 
L 2834 2853 
Q 2591 2978 2328 3040 
Q 2066 3103 1784 3103 
Q 1356 3103 1142 2972 
Q 928 2841 928 2578 
Q 928 2378 1081 2264 
Q 1234 2150 1697 2047 
L 1894 2003 
Q 2506 1872 2764 1633 
Q 3022 1394 3022 966 
Q 3022 478 2636 193 
Q 2250 -91 1575 -91 
Q 1294 -91 989 -36 
Q 684 19 347 128 
L 347 722 
Q 666 556 975 473 
Q 1284 391 1588 391 
Q 1994 391 2212 530 
Q 2431 669 2431 922 
Q 2431 1156 2273 1281 
Q 2116 1406 1581 1522 
L 1381 1569 
Q 847 1681 609 1914 
Q 372 2147 372 2553 
Q 372 3047 722 3315 
Q 1072 3584 1716 3584 
Q 2034 3584 2315 3537 
Q 2597 3491 2834 3397 
z
" transform="scale(0.015625)"/>
       <path id="DejaVuSans-72" d="M 2631 2963 
Q 2534 3019 2420 3045 
Q 2306 3072 2169 3072 
Q 1681 3072 1420 2755 
Q 1159 2438 1159 1844 
L 1159 0 
L 581 0 
L 581 3500 
L 1159 3500 
L 1159 2956 
Q 1341 3275 1631 3429 
Q 1922 3584 2338 3584 
Q 2397 3584 2469 3576 
Q 2541 3569 2628 3553 
L 2631 2963 
z
" transform="scale(0.015625)"/>
      </defs>
      <use xlink:href="#DejaVuSans-67"/>
      <use xlink:href="#DejaVuSans-61" x="63.476562"/>
      <use xlink:href="#DejaVuSans-6d" x="124.755859"/>
      <use xlink:href="#DejaVuSans-6d" x="222.167969"/>
      <use xlink:href="#DejaVuSans-61" x="319.580078"/>
      <use xlink:href="#DejaVuSans-20" x="380.859375"/>
      <use xlink:href="#DejaVuSans-63" x="412.646484"/>
      <use xlink:href="#DejaVuSans-6f" x="467.626953"/>
      <use xlink:href="#DejaVuSans-6e" x="528.808594"/>
      <use xlink:href="#DejaVuSans-73" x="592.1875"/>
      <use xlink:href="#DejaVuSans-74" x="644.287109"/>
      <use xlink:href="#DejaVuSans-72" x="683.496094"/>
      <use xlink:href="#DejaVuSans-61" x="724.609375"/>
      <use xlink:href="#DejaVuSans-69" x="785.888672"/>
      <use xlink:href="#DejaVuSans-6e" x="813.671875"/>
      <use xlink:href="#DejaVuSans-65" x="877.050781"/>
      <use xlink:href="#DejaVuSans-64" x="938.574219"/>
     </g>
    </g>
   </g>
  </g>
  <g id="axes_2">
   <g id="patch_8">
    <path d="M 416.510455 268.128 
L 741.165 268.128 
L 741.165 7.2 
L 416.510455 7.2 
z
" style="fill: #ffffff"/>
   </g>
   <g id="matplotlib.axis_3">
    <g id="xtick_10">
     <g id="line2d_19">
      <g>
       <use xlink:href="#m622455cbbd" x="431.267479" y="268.128" style="stroke: #000000; stroke-width: 0.8"/>
      </g>
     </g>
     <g id="text_17">
      <!-- 0.0 -->
      <g transform="translate(423.315917 282.726437)scale(0.1 -0.1)">
       <use xlink:href="#DejaVuSans-30"/>
       <use xlink:href="#DejaVuSans-2e" x="63.623047"/>
       <use xlink:href="#DejaVuSans-30" x="95.410156"/>
      </g>
     </g>
    </g>
    <g id="xtick_11">
     <g id="line2d_20">
      <g>
       <use xlink:href="#m622455cbbd" x="468.160041" y="268.128" style="stroke: #000000; stroke-width: 0.8"/>
      </g>
     </g>
     <g id="text_18">
      <!-- 2.5 -->
      <g transform="translate(460.208479 282.726437)scale(0.1 -0.1)">
       <use xlink:href="#DejaVuSans-32"/>
       <use xlink:href="#DejaVuSans-2e" x="63.623047"/>
       <use xlink:href="#DejaVuSans-35" x="95.410156"/>
      </g>
     </g>
    </g>
    <g id="xtick_12">
     <g id="line2d_21">
      <g>
       <use xlink:href="#m622455cbbd" x="505.052603" y="268.128" style="stroke: #000000; stroke-width: 0.8"/>
      </g>
     </g>
     <g id="text_19">
      <!-- 5.0 -->
      <g transform="translate(497.101041 282.726437)scale(0.1 -0.1)">
       <use xlink:href="#DejaVuSans-35"/>
       <use xlink:href="#DejaVuSans-2e" x="63.623047"/>
       <use xlink:href="#DejaVuSans-30" x="95.410156"/>
      </g>
     </g>
    </g>
    <g id="xtick_13">
     <g id="line2d_22">
      <g>
       <use xlink:href="#m622455cbbd" x="541.945165" y="268.128" style="stroke: #000000; stroke-width: 0.8"/>
      </g>
     </g>
     <g id="text_20">
      <!-- 7.5 -->
      <g transform="translate(533.993603 282.726437)scale(0.1 -0.1)">
       <use xlink:href="#DejaVuSans-37"/>
       <use xlink:href="#DejaVuSans-2e" x="63.623047"/>
       <use xlink:href="#DejaVuSans-35" x="95.410156"/>
      </g>
     </g>
    </g>
    <g id="xtick_14">
     <g id="line2d_23">
      <g>
       <use xlink:href="#m622455cbbd" x="578.837727" y="268.128" style="stroke: #000000; stroke-width: 0.8"/>
      </g>
     </g>
     <g id="text_21">
      <!-- 10.0 -->
      <g transform="translate(567.704915 282.726437)scale(0.1 -0.1)">
       <use xlink:href="#DejaVuSans-31"/>
       <use xlink:href="#DejaVuSans-30" x="63.623047"/>
       <use xlink:href="#DejaVuSans-2e" x="127.246094"/>
       <use xlink:href="#DejaVuSans-30" x="159.033203"/>
      </g>
     </g>
    </g>
    <g id="xtick_15">
     <g id="line2d_24">
      <g>
       <use xlink:href="#m622455cbbd" x="615.730289" y="268.128" style="stroke: #000000; stroke-width: 0.8"/>
      </g>
     </g>
     <g id="text_22">
      <!-- 12.5 -->
      <g transform="translate(604.597477 282.726437)scale(0.1 -0.1)">
       <use xlink:href="#DejaVuSans-31"/>
       <use xlink:href="#DejaVuSans-32" x="63.623047"/>
       <use xlink:href="#DejaVuSans-2e" x="127.246094"/>
       <use xlink:href="#DejaVuSans-35" x="159.033203"/>
      </g>
     </g>
    </g>
    <g id="xtick_16">
     <g id="line2d_25">
      <g>
       <use xlink:href="#m622455cbbd" x="652.622851" y="268.128" style="stroke: #000000; stroke-width: 0.8"/>
      </g>
     </g>
     <g id="text_23">
      <!-- 15.0 -->
      <g transform="translate(641.490039 282.726437)scale(0.1 -0.1)">
       <use xlink:href="#DejaVuSans-31"/>
       <use xlink:href="#DejaVuSans-35" x="63.623047"/>
       <use xlink:href="#DejaVuSans-2e" x="127.246094"/>
       <use xlink:href="#DejaVuSans-30" x="159.033203"/>
      </g>
     </g>
    </g>
    <g id="xtick_17">
     <g id="line2d_26">
      <g>
       <use xlink:href="#m622455cbbd" x="689.515413" y="268.128" style="stroke: #000000; stroke-width: 0.8"/>
      </g>
     </g>
     <g id="text_24">
      <!-- 17.5 -->
      <g transform="translate(678.382601 282.726437)scale(0.1 -0.1)">
       <use xlink:href="#DejaVuSans-31"/>
       <use xlink:href="#DejaVuSans-37" x="63.623047"/>
       <use xlink:href="#DejaVuSans-2e" x="127.246094"/>
       <use xlink:href="#DejaVuSans-35" x="159.033203"/>
      </g>
     </g>
    </g>
    <g id="xtick_18">
     <g id="line2d_27">
      <g>
       <use xlink:href="#m622455cbbd" x="726.407975" y="268.128" style="stroke: #000000; stroke-width: 0.8"/>
      </g>
     </g>
     <g id="text_25">
      <!-- 20.0 -->
      <g transform="translate(715.275163 282.726437)scale(0.1 -0.1)">
       <use xlink:href="#DejaVuSans-32"/>
       <use xlink:href="#DejaVuSans-30" x="63.623047"/>
       <use xlink:href="#DejaVuSans-2e" x="127.246094"/>
       <use xlink:href="#DejaVuSans-30" x="159.033203"/>
      </g>
     </g>
    </g>
   </g>
   <g id="matplotlib.axis_4">
    <g id="ytick_7">
     <g id="line2d_28">
      <g>
       <use xlink:href="#m48bc872a36" x="416.510455" y="249.251903" style="stroke: #000000; stroke-width: 0.8"/>
      </g>
     </g>
     <g id="text_26">
      <!-- 0 -->
      <g transform="translate(403.147955 253.051122)scale(0.1 -0.1)">
       <use xlink:href="#DejaVuSans-30"/>
      </g>
     </g>
    </g>
    <g id="ytick_8">
     <g id="line2d_29">
      <g>
       <use xlink:href="#m48bc872a36" x="416.510455" y="205.206193" style="stroke: #000000; stroke-width: 0.8"/>
      </g>
     </g>
     <g id="text_27">
      <!-- 2 -->
      <g transform="translate(403.147955 209.005411)scale(0.1 -0.1)">
       <use xlink:href="#DejaVuSans-32"/>
      </g>
     </g>
    </g>
    <g id="ytick_9">
     <g id="line2d_30">
      <g>
       <use xlink:href="#m48bc872a36" x="416.510455" y="161.160482" style="stroke: #000000; stroke-width: 0.8"/>
      </g>
     </g>
     <g id="text_28">
      <!-- 4 -->
      <g transform="translate(403.147955 164.9597)scale(0.1 -0.1)">
       <use xlink:href="#DejaVuSans-34"/>
      </g>
     </g>
    </g>
    <g id="ytick_10">
     <g id="line2d_31">
      <g>
       <use xlink:href="#m48bc872a36" x="416.510455" y="117.114771" style="stroke: #000000; stroke-width: 0.8"/>
      </g>
     </g>
     <g id="text_29">
      <!-- 6 -->
      <g transform="translate(403.147955 120.91399)scale(0.1 -0.1)">
       <use xlink:href="#DejaVuSans-36"/>
      </g>
     </g>
    </g>
    <g id="ytick_11">
     <g id="line2d_32">
      <g>
       <use xlink:href="#m48bc872a36" x="416.510455" y="73.06906" style="stroke: #000000; stroke-width: 0.8"/>
      </g>
     </g>
     <g id="text_30">
      <!-- 8 -->
      <g transform="translate(403.147955 76.868279)scale(0.1 -0.1)">
       <use xlink:href="#DejaVuSans-38"/>
      </g>
     </g>
    </g>
    <g id="ytick_12">
     <g id="line2d_33">
      <g>
       <use xlink:href="#m48bc872a36" x="416.510455" y="29.023349" style="stroke: #000000; stroke-width: 0.8"/>
      </g>
     </g>
     <g id="text_31">
      <!-- 10 -->
      <g transform="translate(396.785455 32.822568)scale(0.1 -0.1)">
       <use xlink:href="#DejaVuSans-31"/>
       <use xlink:href="#DejaVuSans-30" x="63.623047"/>
      </g>
     </g>
    </g>
   </g>
   <g id="line2d_34">
    <path d="M 431.267479 248.77502 
L 432.005331 248.828602 
L 432.743182 252.486642 
L 434.218884 240.765022 
L 434.956736 239.865102 
L 435.694587 248.828162 
L 436.432438 247.58768 
L 437.170289 244.994797 
L 437.90814 244.019053 
L 438.645992 251.609913 
L 439.383843 244.6926 
L 440.121694 246.972956 
L 440.859545 245.397177 
L 441.597397 248.765771 
L 442.335248 247.699072 
L 443.073099 240.353767 
L 444.548802 252.305394 
L 445.286653 245.953254 
L 446.024504 244.570175 
L 446.762355 246.306479 
L 447.500207 245.066129 
L 448.238058 254.850708 
L 448.975909 243.675452 
L 449.71376 247.937954 
L 450.451612 245.121891 
L 451.189463 243.663736 
L 451.927314 250.073488 
L 452.665165 247.478777 
L 453.403017 248.974261 
L 454.140868 244.308323 
L 454.878719 243.27457 
L 455.61657 246.651599 
L 456.354421 250.963586 
L 457.092273 245.632888 
L 457.830124 248.68781 
L 458.567975 250.019708 
L 459.305826 247.733031 
L 460.043678 251.525499 
L 460.781529 247.789167 
L 461.51938 243.26499 
L 462.257231 246.189647 
L 462.995083 245.683452 
L 463.732934 250.008322 
L 464.470785 246.260935 
L 465.208636 247.757476 
L 465.946488 252.815025 
L 466.684339 245.866946 
L 467.42219 247.687091 
L 468.160041 250.331244 
L 468.897893 244.774525 
L 469.635744 245.698714 
L 470.373595 244.863211 
L 471.111446 243.692982 
L 471.849298 241.422492 
L 472.587149 251.403008 
L 473.325 243.64636 
L 474.062851 244.468826 
L 474.800702 245.852125 
L 475.538554 250.614678 
L 476.276405 246.425424 
L 477.014256 244.716495 
L 477.752107 241.551282 
L 478.489959 247.372451 
L 479.22781 246.485987 
L 479.965661 243.649707 
L 480.703512 249.109724 
L 481.441364 247.409163 
L 482.179215 246.463237 
L 482.917066 246.34427 
L 483.654917 241.164428 
L 485.13062 249.341184 
L 485.868471 247.663791 
L 486.606322 240.811292 
L 487.344174 244.35913 
L 488.082025 247.08056 
L 488.819876 242.104209 
L 489.557727 246.489819 
L 490.295579 244.529829 
L 491.03343 242.920354 
L 491.771281 244.173895 
L 492.509132 246.14591 
L 493.246983 241.737243 
L 493.984835 245.662332 
L 494.722686 245.403696 
L 495.460537 238.612728 
L 496.198388 235.27838 
L 496.93624 245.898527 
L 497.674091 239.543898 
L 498.411942 246.492902 
L 499.149793 242.588536 
L 499.887645 235.759072 
L 500.625496 249.763406 
L 501.363347 238.654527 
L 502.101198 247.025481 
L 502.83905 236.650492 
L 503.576901 240.561134 
L 504.314752 239.097671 
L 505.052603 251.596038 
L 505.790455 235.256269 
L 506.528306 239.546982 
L 507.266157 241.852686 
L 508.004008 236.756223 
L 508.74186 236.287907 
L 509.479711 247.02079 
L 510.217562 241.086489 
L 510.955413 237.537969 
L 511.693264 241.608563 
L 512.431116 240.710075 
L 513.168967 240.107067 
L 513.906818 239.125794 
L 514.644669 236.9343 
L 515.382521 237.639868 
L 516.120372 234.733953 
L 516.858223 235.010714 
L 517.596074 230.045177 
L 518.333926 238.100939 
L 519.071777 230.910366 
L 519.809628 234.667752 
L 520.547479 234.579396 
L 521.285331 232.834173 
L 522.023182 232.221563 
L 522.761033 231.174575 
L 523.498884 228.333869 
L 524.236736 227.234598 
L 524.974587 222.936397 
L 525.712438 228.380931 
L 526.450289 226.465538 
L 527.18814 227.126289 
L 527.925992 223.800045 
L 528.663843 215.306909 
L 529.401694 219.687938 
L 530.139545 216.702431 
L 530.877397 218.955612 
L 531.615248 210.404005 
L 532.353099 213.169547 
L 533.09095 212.856118 
L 533.828802 202.44402 
L 534.566653 208.595928 
L 535.304504 205.016928 
L 536.042355 205.925745 
L 536.780207 195.938336 
L 537.518058 183.484324 
L 538.255909 187.234023 
L 538.99376 188.044134 
L 539.731612 195.238516 
L 540.469463 179.155203 
L 541.207314 175.580849 
L 541.945165 178.547394 
L 542.683017 169.293038 
L 543.420868 165.862648 
L 544.158719 154.811116 
L 544.89657 158.786616 
L 545.634421 156.240774 
L 546.372273 143.051374 
L 547.110124 142.380998 
L 547.847975 135.755753 
L 548.585826 127.230859 
L 550.061529 117.876101 
L 550.79938 119.460095 
L 551.537231 105.654539 
L 553.012934 95.470466 
L 553.750785 97.915003 
L 554.488636 86.688214 
L 555.226488 88.590482 
L 555.964339 78.129472 
L 556.70219 76.260062 
L 557.440041 69.133686 
L 558.177893 56.821346 
L 558.915744 58.548775 
L 559.653595 56.287953 
L 560.391446 43.879813 
L 561.129298 35.767144 
L 561.867149 40.185457 
L 562.605 32.543196 
L 563.342851 38.022262 
L 564.080702 31.352971 
L 564.818554 33.832722 
L 565.556405 33.712874 
L 566.294256 30.24597 
L 567.769959 19.060364 
L 568.50781 24.655072 
L 569.245661 24.174005 
L 569.983512 27.00784 
L 570.721364 33.340798 
L 571.459215 29.541833 
L 572.197066 36.841991 
L 572.934917 36.67867 
L 573.672769 43.007951 
L 574.41062 47.928605 
L 575.148471 48.325215 
L 575.886322 58.29309 
L 576.624174 54.773309 
L 577.362025 59.576493 
L 578.099876 68.652046 
L 579.575579 77.78085 
L 580.31343 79.030427 
L 581.051281 88.768581 
L 581.789132 100.077912 
L 582.526983 99.038896 
L 583.264835 99.694868 
L 584.002686 109.967297 
L 584.740537 115.429978 
L 585.478388 122.202645 
L 586.21624 121.804846 
L 586.954091 126.943792 
L 587.691942 136.333786 
L 588.429793 141.29025 
L 589.167645 140.681627 
L 589.905496 157.390918 
L 590.643347 154.470775 
L 591.381198 166.279805 
L 592.856901 165.237859 
L 594.332603 181.456173 
L 595.070455 187.813709 
L 595.808306 191.549159 
L 596.546157 196.035193 
L 597.284008 195.719451 
L 598.02186 199.291184 
L 598.759711 200.019854 
L 599.497562 198.34909 
L 600.235413 205.091211 
L 600.973264 205.861835 
L 601.711116 207.232692 
L 602.448967 210.755512 
L 603.186818 216.620418 
L 603.924669 215.796389 
L 604.662521 210.103679 
L 605.400372 224.242881 
L 606.138223 219.612201 
L 606.876074 226.198885 
L 607.613926 226.339853 
L 608.351777 229.684288 
L 609.089628 227.34044 
L 609.827479 227.184804 
L 610.565331 222.0352 
L 611.303182 226.550876 
L 612.041033 229.56107 
L 612.778884 230.766271 
L 613.516736 236.81421 
L 614.254587 237.292964 
L 614.992438 225.737484 
L 615.730289 236.72004 
L 616.46814 237.223108 
L 617.205992 232.343834 
L 617.943843 241.041915 
L 618.681694 238.10748 
L 619.419545 247.181623 
L 620.157397 234.770753 
L 620.895248 234.059503 
L 621.633099 244.074903 
L 622.37095 237.978844 
L 623.108802 238.334513 
L 623.846653 233.390867 
L 624.584504 239.144029 
L 625.322355 237.907842 
L 626.060207 239.396235 
L 626.798058 242.438516 
L 627.535909 241.852224 
L 628.27376 240.36033 
L 629.011612 245.423472 
L 629.749463 237.305253 
L 630.487314 239.656369 
L 631.225165 238.17879 
L 631.963017 243.597359 
L 632.700868 243.31137 
L 633.438719 244.756818 
L 634.17657 244.414495 
L 634.914421 236.123947 
L 635.652273 243.248385 
L 636.390124 244.22794 
L 637.127975 242.46534 
L 637.865826 247.813194 
L 638.603678 238.432251 
L 639.341529 238.354598 
L 640.07938 242.165323 
L 640.817231 244.907521 
L 641.555083 235.990599 
L 642.292934 245.838008 
L 643.030785 241.910188 
L 643.768636 243.525124 
L 644.506488 245.968516 
L 645.244339 245.62214 
L 645.98219 248.54693 
L 646.720041 239.10201 
L 647.457893 243.186302 
L 648.195744 241.691281 
L 648.933595 241.568173 
L 649.671446 241.868785 
L 650.409298 244.323827 
L 651.147149 248.018161 
L 651.885 246.030686 
L 652.622851 242.733645 
L 653.360702 248.607603 
L 654.098554 245.09575 
L 654.836405 245.161973 
L 655.574256 249.477153 
L 656.312107 250.913264 
L 657.049959 250.35254 
L 657.78781 245.804336 
L 658.525661 246.197994 
L 659.263512 239.768796 
L 660.001364 246.890327 
L 660.739215 243.336366 
L 661.477066 245.021027 
L 662.214917 251.213743 
L 662.952769 247.563874 
L 663.69062 238.359267 
L 664.428471 242.548785 
L 665.166322 242.382887 
L 666.642025 250.029266 
L 667.379876 239.506415 
L 668.117727 246.40633 
L 668.855579 244.790117 
L 669.59343 250.093132 
L 670.331281 245.619366 
L 671.069132 247.275859 
L 671.806983 249.89801 
L 672.544835 242.167569 
L 673.282686 249.209906 
L 674.758388 233.698306 
L 675.49624 245.081237 
L 676.234091 244.682073 
L 676.971942 243.684966 
L 677.709793 241.815842 
L 679.923347 253.663544 
L 680.661198 247.850809 
L 681.39905 248.932286 
L 682.136901 247.25051 
L 682.874752 243.489689 
L 683.612603 246.152605 
L 684.350455 241.511641 
L 685.088306 254.162273 
L 685.826157 245.011975 
L 686.564008 251.08676 
L 688.039711 240.625177 
L 688.777562 251.263889 
L 689.515413 251.870113 
L 690.253264 250.459725 
L 690.991116 245.281293 
L 691.728967 247.811631 
L 692.466818 242.226282 
L 693.204669 245.588886 
L 693.942521 244.695925 
L 694.680372 246.860111 
L 695.418223 247.369103 
L 696.156074 243.290691 
L 696.893926 243.953315 
L 697.631777 242.648967 
L 698.369628 250.132994 
L 699.107479 242.506765 
L 699.845331 250.076373 
L 700.583182 249.116947 
L 701.321033 244.313697 
L 702.058884 248.047451 
L 702.796736 246.17051 
L 703.534587 251.005099 
L 704.272438 253.995362 
L 705.010289 250.64421 
L 705.74814 248.975296 
L 706.485992 252.299514 
L 707.223843 242.058754 
L 708.699545 250.419313 
L 709.437397 249.889685 
L 710.175248 248.080486 
L 710.913099 243.97831 
L 711.65095 244.273219 
L 712.388802 249.615479 
L 713.126653 245.830344 
L 713.864504 245.148517 
L 714.602355 247.558808 
L 715.340207 245.185603 
L 716.078058 244.957909 
L 716.815909 245.864238 
L 717.55376 247.520929 
L 718.291612 247.443254 
L 719.029463 247.720941 
L 719.767314 245.52916 
L 721.243017 252.456956 
L 721.980868 256.183729 
L 722.718719 240.229404 
L 723.45657 250.820305 
L 724.194421 256.267636 
L 724.932273 245.748089 
L 725.670124 249.564408 
L 726.407975 251.266422 
L 726.407975 251.266422 
" clip-path="url(#p59d8191589)" style="fill: none; stroke: #1f77b4; stroke-width: 1.5; stroke-linecap: square"/>
   </g>
   <g id="line2d_35">
    <path d="M 431.267479 247.739797 
L 449.71376 247.211592 
L 463.732934 246.596231 
L 474.062851 245.940586 
L 482.917066 245.157338 
L 489.557727 244.364219 
L 495.460537 243.438053 
L 499.887645 242.547893 
L 504.314752 241.419895 
L 508.004008 240.226791 
L 510.955413 239.044684 
L 513.906818 237.590152 
L 516.120372 236.266399 
L 518.333926 234.686987 
L 520.547479 232.786664 
L 522.761033 230.483674 
L 524.236736 228.675783 
L 525.712438 226.609808 
L 527.18814 224.246842 
L 528.663843 221.544059 
L 530.139545 218.455137 
L 531.615248 214.931008 
L 533.09095 210.920989 
L 534.566653 206.374335 
L 536.042355 201.242262 
L 537.518058 195.480423 
L 538.99376 189.051817 
L 541.207314 178.104765 
L 543.420868 165.575721 
L 545.634421 151.537127 
L 547.847975 136.183057 
L 551.537231 108.634439 
L 555.964339 75.460299 
L 558.177893 60.441489 
L 559.653595 51.522498 
L 561.129298 43.730049 
L 562.605 37.259406 
L 564.080702 32.278156 
L 564.818554 30.388949 
L 565.556405 28.918573 
L 566.294256 27.87703 
L 567.032107 27.27144 
L 567.769959 27.105957 
L 568.50781 27.381719 
L 569.245661 28.09683 
L 569.983512 29.24639 
L 570.721364 30.822547 
L 571.459215 32.814597 
L 572.197066 35.209111 
L 573.672769 41.139172 
L 575.148471 48.457559 
L 576.624174 56.97842 
L 578.837727 71.55487 
L 581.789132 93.166637 
L 587.691942 137.50598 
L 589.905496 152.761107 
L 592.11905 166.679478 
L 594.332603 179.077901 
L 596.546157 189.893083 
L 598.02186 196.236629 
L 599.497562 201.917524 
L 600.973264 206.973858 
L 602.448967 211.450686 
L 603.924669 215.397162 
L 605.400372 218.864124 
L 606.876074 221.90213 
L 608.351777 224.559958 
L 609.827479 226.883526 
L 611.303182 228.915188 
L 613.516736 231.498238 
L 615.730289 233.622342 
L 617.943843 235.380017 
L 620.157397 236.845824 
L 622.37095 238.078927 
L 625.322355 239.439839 
L 628.27376 240.551328 
L 631.963017 241.6788 
L 636.390124 242.750387 
L 641.555083 243.724637 
L 647.457893 244.583548 
L 654.098554 245.324604 
L 662.214917 246.008707 
L 672.544835 246.644925 
L 685.826157 247.218189 
L 702.796736 247.709976 
L 725.670124 248.132204 
L 726.407975 248.142789 
L 726.407975 248.142789 
" clip-path="url(#p59d8191589)" style="fill: none; stroke: #ff7f0e; stroke-width: 1.5; stroke-linecap: square"/>
   </g>
   <g id="patch_9">
    <path d="M 416.510455 268.128 
L 416.510455 7.2 
" style="fill: none; stroke: #000000; stroke-width: 0.8; stroke-linejoin: miter; stroke-linecap: square"/>
   </g>
   <g id="patch_10">
    <path d="M 741.165 268.128 
L 741.165 7.2 
" style="fill: none; stroke: #000000; stroke-width: 0.8; stroke-linejoin: miter; stroke-linecap: square"/>
   </g>
   <g id="patch_11">
    <path d="M 416.510455 268.128 
L 741.165 268.128 
" style="fill: none; stroke: #000000; stroke-width: 0.8; stroke-linejoin: miter; stroke-linecap: square"/>
   </g>
   <g id="patch_12">
    <path d="M 416.510455 7.2 
L 741.165 7.2 
" style="fill: none; stroke: #000000; stroke-width: 0.8; stroke-linejoin: miter; stroke-linecap: square"/>
   </g>
   <g id="legend_2">
    <g id="patch_13">
     <path d="M 589.285312 41.075937 
L 734.165 41.075937 
Q 736.165 41.075937 736.165 39.075937 
L 736.165 14.2 
Q 736.165 12.2 734.165 12.2 
L 589.285312 12.2 
Q 587.285312 12.2 587.285312 14.2 
L 587.285312 39.075937 
Q 587.285312 41.075937 589.285312 41.075937 
z
" style="fill: #ffffff; opacity: 0.8; stroke: #cccccc; stroke-linejoin: miter"/>
    </g>
    <g id="line2d_36">
     <path d="M 591.285312 26.937187 
L 601.285312 26.937187 
L 611.285312 26.937187 
" style="fill: none; stroke: #ff7f0e; stroke-width: 1.5; stroke-linecap: square"/>
    </g>
    <g id="text_32">
     <!-- Voigt Model -->
     <g transform="translate(619.285312 23.798437)scale(0.1 -0.1)">
      <use xlink:href="#DejaVuSans-56"/>
      <use xlink:href="#DejaVuSans-6f" x="60.658203"/>
      <use xlink:href="#DejaVuSans-69" x="121.839844"/>
      <use xlink:href="#DejaVuSans-67" x="149.623047"/>
      <use xlink:href="#DejaVuSans-74" x="213.099609"/>
      <use xlink:href="#DejaVuSans-20" x="252.308594"/>
      <use xlink:href="#DejaVuSans-4d" x="284.095703"/>
      <use xlink:href="#DejaVuSans-6f" x="370.375"/>
      <use xlink:href="#DejaVuSans-64" x="431.556641"/>
      <use xlink:href="#DejaVuSans-65" x="495.033203"/>
      <use xlink:href="#DejaVuSans-6c" x="556.556641"/>
     </g>
     <!-- gamma unconstrained -->
     <g transform="translate(619.285312 34.99625)scale(0.1 -0.1)">
      <defs>
       <path id="DejaVuSans-75" d="M 544 1381 
L 544 3500 
L 1119 3500 
L 1119 1403 
Q 1119 906 1312 657 
Q 1506 409 1894 409 
Q 2359 409 2629 706 
Q 2900 1003 2900 1516 
L 2900 3500 
L 3475 3500 
L 3475 0 
L 2900 0 
L 2900 538 
Q 2691 219 2414 64 
Q 2138 -91 1772 -91 
Q 1169 -91 856 284 
Q 544 659 544 1381 
z
M 1991 3584 
L 1991 3584 
z
" transform="scale(0.015625)"/>
      </defs>
      <use xlink:href="#DejaVuSans-67"/>
      <use xlink:href="#DejaVuSans-61" x="63.476562"/>
      <use xlink:href="#DejaVuSans-6d" x="124.755859"/>
      <use xlink:href="#DejaVuSans-6d" x="222.167969"/>
      <use xlink:href="#DejaVuSans-61" x="319.580078"/>
      <use xlink:href="#DejaVuSans-20" x="380.859375"/>
      <use xlink:href="#DejaVuSans-75" x="412.646484"/>
      <use xlink:href="#DejaVuSans-6e" x="476.025391"/>
      <use xlink:href="#DejaVuSans-63" x="539.404297"/>
      <use xlink:href="#DejaVuSans-6f" x="594.384766"/>
      <use xlink:href="#DejaVuSans-6e" x="655.566406"/>
      <use xlink:href="#DejaVuSans-73" x="718.945312"/>
      <use xlink:href="#DejaVuSans-74" x="771.044922"/>
      <use xlink:href="#DejaVuSans-72" x="810.253906"/>
      <use xlink:href="#DejaVuSans-61" x="851.367188"/>
      <use xlink:href="#DejaVuSans-69" x="912.646484"/>
      <use xlink:href="#DejaVuSans-6e" x="940.429688"/>
      <use xlink:href="#DejaVuSans-65" x="1003.808594"/>
      <use xlink:href="#DejaVuSans-64" x="1065.332031"/>
     </g>
    </g>
   </g>
  </g>
 </g>
 <defs>
  <clipPath id="pf343784aa3">
   <rect x="26.925" y="7.2" width="324.654545" height="260.928"/>
  </clipPath>
  <clipPath id="p59d8191589">
   <rect x="416.510455" y="7.2" width="324.654545" height="260.928"/>
  </clipPath>
 </defs>
</svg>
