<?xml version="1.0" encoding="utf-8" standalone="no"?>
<!DOCTYPE svg PUBLIC "-//W3C//DTD SVG 1.1//EN"
  "http://www.w3.org/Graphics/SVG/1.1/DTD/svg11.dtd">
<svg xmlns:xlink="http://www.w3.org/1999/xlink" width="391.245pt" height="297.190125pt" viewBox="0 0 391.245 297.190125" xmlns="http://www.w3.org/2000/svg" version="1.1">
 <metadata>
  <rdf:RDF xmlns:dc="http://purl.org/dc/elements/1.1/" xmlns:cc="http://creativecommons.org/ns#" xmlns:rdf="http://www.w3.org/1999/02/22-rdf-syntax-ns#">
   <cc:Work>
    <dc:type rdf:resource="http://purl.org/dc/dcmitype/StillImage"/>
    <dc:date>2025-03-12T13:28:21.674732</dc:date>
    <dc:format>image/svg+xml</dc:format>
    <dc:creator>
     <cc:Agent>
      <dc:title>Matplotlib v3.9.2, https://matplotlib.org/</dc:title>
     </cc:Agent>
    </dc:creator>
   </cc:Work>
  </rdf:RDF>
 </metadata>
 <defs>
  <style type="text/css">*{stroke-linejoin: round; stroke-linecap: butt}</style>
 </defs>
 <g id="figure_1">
  <g id="patch_1">
   <path d="M 0 297.190125 
L 391.245 297.190125 
L 391.245 0 
L 0 0 
z
" style="fill: #ffffff"/>
  </g>
  <g id="axes_1">
   <g id="patch_2">
    <path d="M 26.925 273.312 
L 384.045 273.312 
L 384.045 7.2 
L 26.925 7.2 
z
" style="fill: #ffffff"/>
   </g>
   <g id="matplotlib.axis_1">
    <g id="xtick_1">
     <g id="line2d_1">
      <defs>
       <path id="mfefc932027" d="M 0 0 
L 0 3.5 
" style="stroke: #000000; stroke-width: 0.8"/>
      </defs>
      <g>
       <use xlink:href="#mfefc932027" x="43.157727" y="273.312" style="stroke: #000000; stroke-width: 0.8"/>
      </g>
     </g>
     <g id="text_1">
      <!-- 0.0 -->
      <g transform="translate(35.206165 287.910437) scale(0.1 -0.1)">
       <defs>
        <path id="DejaVuSans-30" d="M 2034 4250 
Q 1547 4250 1301 3770 
Q 1056 3291 1056 2328 
Q 1056 1369 1301 889 
Q 1547 409 2034 409 
Q 2525 409 2770 889 
Q 3016 1369 3016 2328 
Q 3016 3291 2770 3770 
Q 2525 4250 2034 4250 
z
M 2034 4750 
Q 2819 4750 3233 4129 
Q 3647 3509 3647 2328 
Q 3647 1150 3233 529 
Q 2819 -91 2034 -91 
Q 1250 -91 836 529 
Q 422 1150 422 2328 
Q 422 3509 836 4129 
Q 1250 4750 2034 4750 
z
" transform="scale(0.015625)"/>
        <path id="DejaVuSans-2e" d="M 684 794 
L 1344 794 
L 1344 0 
L 684 0 
L 684 794 
z
" transform="scale(0.015625)"/>
       </defs>
       <use xlink:href="#DejaVuSans-30"/>
       <use xlink:href="#DejaVuSans-2e" x="63.623047"/>
       <use xlink:href="#DejaVuSans-30" x="95.410156"/>
      </g>
     </g>
    </g>
    <g id="xtick_2">
     <g id="line2d_2">
      <g>
       <use xlink:href="#mfefc932027" x="83.739545" y="273.312" style="stroke: #000000; stroke-width: 0.8"/>
      </g>
     </g>
     <g id="text_2">
      <!-- 2.5 -->
      <g transform="translate(75.787983 287.910437) scale(0.1 -0.1)">
       <defs>
        <path id="DejaVuSans-32" d="M 1228 531 
L 3431 531 
L 3431 0 
L 469 0 
L 469 531 
Q 828 903 1448 1529 
Q 2069 2156 2228 2338 
Q 2531 2678 2651 2914 
Q 2772 3150 2772 3378 
Q 2772 3750 2511 3984 
Q 2250 4219 1831 4219 
Q 1534 4219 1204 4116 
Q 875 4013 500 3803 
L 500 4441 
Q 881 4594 1212 4672 
Q 1544 4750 1819 4750 
Q 2544 4750 2975 4387 
Q 3406 4025 3406 3419 
Q 3406 3131 3298 2873 
Q 3191 2616 2906 2266 
Q 2828 2175 2409 1742 
Q 1991 1309 1228 531 
z
" transform="scale(0.015625)"/>
        <path id="DejaVuSans-35" d="M 691 4666 
L 3169 4666 
L 3169 4134 
L 1269 4134 
L 1269 2991 
Q 1406 3038 1543 3061 
Q 1681 3084 1819 3084 
Q 2600 3084 3056 2656 
Q 3513 2228 3513 1497 
Q 3513 744 3044 326 
Q 2575 -91 1722 -91 
Q 1428 -91 1123 -41 
Q 819 9 494 109 
L 494 744 
Q 775 591 1075 516 
Q 1375 441 1709 441 
Q 2250 441 2565 725 
Q 2881 1009 2881 1497 
Q 2881 1984 2565 2268 
Q 2250 2553 1709 2553 
Q 1456 2553 1204 2497 
Q 953 2441 691 2322 
L 691 4666 
z
" transform="scale(0.015625)"/>
       </defs>
       <use xlink:href="#DejaVuSans-32"/>
       <use xlink:href="#DejaVuSans-2e" x="63.623047"/>
       <use xlink:href="#DejaVuSans-35" x="95.410156"/>
      </g>
     </g>
    </g>
    <g id="xtick_3">
     <g id="line2d_3">
      <g>
       <use xlink:href="#mfefc932027" x="124.321364" y="273.312" style="stroke: #000000; stroke-width: 0.8"/>
      </g>
     </g>
     <g id="text_3">
      <!-- 5.0 -->
      <g transform="translate(116.369801 287.910437) scale(0.1 -0.1)">
       <use xlink:href="#DejaVuSans-35"/>
       <use xlink:href="#DejaVuSans-2e" x="63.623047"/>
       <use xlink:href="#DejaVuSans-30" x="95.410156"/>
      </g>
     </g>
    </g>
    <g id="xtick_4">
     <g id="line2d_4">
      <g>
       <use xlink:href="#mfefc932027" x="164.903182" y="273.312" style="stroke: #000000; stroke-width: 0.8"/>
      </g>
     </g>
     <g id="text_4">
      <!-- 7.5 -->
      <g transform="translate(156.951619 287.910437) scale(0.1 -0.1)">
       <defs>
        <path id="DejaVuSans-37" d="M 525 4666 
L 3525 4666 
L 3525 4397 
L 1831 0 
L 1172 0 
L 2766 4134 
L 525 4134 
L 525 4666 
z
" transform="scale(0.015625)"/>
       </defs>
       <use xlink:href="#DejaVuSans-37"/>
       <use xlink:href="#DejaVuSans-2e" x="63.623047"/>
       <use xlink:href="#DejaVuSans-35" x="95.410156"/>
      </g>
     </g>
    </g>
    <g id="xtick_5">
     <g id="line2d_5">
      <g>
       <use xlink:href="#mfefc932027" x="205.485" y="273.312" style="stroke: #000000; stroke-width: 0.8"/>
      </g>
     </g>
     <g id="text_5">
      <!-- 10.0 -->
      <g transform="translate(194.352188 287.910437) scale(0.1 -0.1)">
       <defs>
        <path id="DejaVuSans-31" d="M 794 531 
L 1825 531 
L 1825 4091 
L 703 3866 
L 703 4441 
L 1819 4666 
L 2450 4666 
L 2450 531 
L 3481 531 
L 3481 0 
L 794 0 
L 794 531 
z
" transform="scale(0.015625)"/>
       </defs>
       <use xlink:href="#DejaVuSans-31"/>
       <use xlink:href="#DejaVuSans-30" x="63.623047"/>
       <use xlink:href="#DejaVuSans-2e" x="127.246094"/>
       <use xlink:href="#DejaVuSans-30" x="159.033203"/>
      </g>
     </g>
    </g>
    <g id="xtick_6">
     <g id="line2d_6">
      <g>
       <use xlink:href="#mfefc932027" x="246.066818" y="273.312" style="stroke: #000000; stroke-width: 0.8"/>
      </g>
     </g>
     <g id="text_6">
      <!-- 12.5 -->
      <g transform="translate(234.934006 287.910437) scale(0.1 -0.1)">
       <use xlink:href="#DejaVuSans-31"/>
       <use xlink:href="#DejaVuSans-32" x="63.623047"/>
       <use xlink:href="#DejaVuSans-2e" x="127.246094"/>
       <use xlink:href="#DejaVuSans-35" x="159.033203"/>
      </g>
     </g>
    </g>
    <g id="xtick_7">
     <g id="line2d_7">
      <g>
       <use xlink:href="#mfefc932027" x="286.648636" y="273.312" style="stroke: #000000; stroke-width: 0.8"/>
      </g>
     </g>
     <g id="text_7">
      <!-- 15.0 -->
      <g transform="translate(275.515824 287.910437) scale(0.1 -0.1)">
       <use xlink:href="#DejaVuSans-31"/>
       <use xlink:href="#DejaVuSans-35" x="63.623047"/>
       <use xlink:href="#DejaVuSans-2e" x="127.246094"/>
       <use xlink:href="#DejaVuSans-30" x="159.033203"/>
      </g>
     </g>
    </g>
    <g id="xtick_8">
     <g id="line2d_8">
      <g>
       <use xlink:href="#mfefc932027" x="327.230455" y="273.312" style="stroke: #000000; stroke-width: 0.8"/>
      </g>
     </g>
     <g id="text_8">
      <!-- 17.5 -->
      <g transform="translate(316.097642 287.910437) scale(0.1 -0.1)">
       <use xlink:href="#DejaVuSans-31"/>
       <use xlink:href="#DejaVuSans-37" x="63.623047"/>
       <use xlink:href="#DejaVuSans-2e" x="127.246094"/>
       <use xlink:href="#DejaVuSans-35" x="159.033203"/>
      </g>
     </g>
    </g>
    <g id="xtick_9">
     <g id="line2d_9">
      <g>
       <use xlink:href="#mfefc932027" x="367.812273" y="273.312" style="stroke: #000000; stroke-width: 0.8"/>
      </g>
     </g>
     <g id="text_9">
      <!-- 20.0 -->
      <g transform="translate(356.67946 287.910437) scale(0.1 -0.1)">
       <use xlink:href="#DejaVuSans-32"/>
       <use xlink:href="#DejaVuSans-30" x="63.623047"/>
       <use xlink:href="#DejaVuSans-2e" x="127.246094"/>
       <use xlink:href="#DejaVuSans-30" x="159.033203"/>
      </g>
     </g>
    </g>
   </g>
   <g id="matplotlib.axis_2">
    <g id="ytick_1">
     <g id="line2d_10">
      <defs>
       <path id="m08a1dce013" d="M 0 0 
L -3.5 0 
" style="stroke: #000000; stroke-width: 0.8"/>
      </defs>
      <g>
       <use xlink:href="#m08a1dce013" x="26.925" y="254.248164" style="stroke: #000000; stroke-width: 0.8"/>
      </g>
     </g>
     <g id="text_10">
      <!-- 0 -->
      <g transform="translate(13.5625 258.047383) scale(0.1 -0.1)">
       <use xlink:href="#DejaVuSans-30"/>
      </g>
     </g>
    </g>
    <g id="ytick_2">
     <g id="line2d_11">
      <g>
       <use xlink:href="#m08a1dce013" x="26.925" y="210.503159" style="stroke: #000000; stroke-width: 0.8"/>
      </g>
     </g>
     <g id="text_11">
      <!-- 2 -->
      <g transform="translate(13.5625 214.302378) scale(0.1 -0.1)">
       <use xlink:href="#DejaVuSans-32"/>
      </g>
     </g>
    </g>
    <g id="ytick_3">
     <g id="line2d_12">
      <g>
       <use xlink:href="#m08a1dce013" x="26.925" y="166.758154" style="stroke: #000000; stroke-width: 0.8"/>
      </g>
     </g>
     <g id="text_12">
      <!-- 4 -->
      <g transform="translate(13.5625 170.557373) scale(0.1 -0.1)">
       <defs>
        <path id="DejaVuSans-34" d="M 2419 4116 
L 825 1625 
L 2419 1625 
L 2419 4116 
z
M 2253 4666 
L 3047 4666 
L 3047 1625 
L 3713 1625 
L 3713 1100 
L 3047 1100 
L 3047 0 
L 2419 0 
L 2419 1100 
L 313 1100 
L 313 1709 
L 2253 4666 
z
" transform="scale(0.015625)"/>
       </defs>
       <use xlink:href="#DejaVuSans-34"/>
      </g>
     </g>
    </g>
    <g id="ytick_4">
     <g id="line2d_13">
      <g>
       <use xlink:href="#m08a1dce013" x="26.925" y="123.013149" style="stroke: #000000; stroke-width: 0.8"/>
      </g>
     </g>
     <g id="text_13">
      <!-- 6 -->
      <g transform="translate(13.5625 126.812368) scale(0.1 -0.1)">
       <defs>
        <path id="DejaVuSans-36" d="M 2113 2584 
Q 1688 2584 1439 2293 
Q 1191 2003 1191 1497 
Q 1191 994 1439 701 
Q 1688 409 2113 409 
Q 2538 409 2786 701 
Q 3034 994 3034 1497 
Q 3034 2003 2786 2293 
Q 2538 2584 2113 2584 
z
M 3366 4563 
L 3366 3988 
Q 3128 4100 2886 4159 
Q 2644 4219 2406 4219 
Q 1781 4219 1451 3797 
Q 1122 3375 1075 2522 
Q 1259 2794 1537 2939 
Q 1816 3084 2150 3084 
Q 2853 3084 3261 2657 
Q 3669 2231 3669 1497 
Q 3669 778 3244 343 
Q 2819 -91 2113 -91 
Q 1303 -91 875 529 
Q 447 1150 447 2328 
Q 447 3434 972 4092 
Q 1497 4750 2381 4750 
Q 2619 4750 2861 4703 
Q 3103 4656 3366 4563 
z
" transform="scale(0.015625)"/>
       </defs>
       <use xlink:href="#DejaVuSans-36"/>
      </g>
     </g>
    </g>
    <g id="ytick_5">
     <g id="line2d_14">
      <g>
       <use xlink:href="#m08a1dce013" x="26.925" y="79.268144" style="stroke: #000000; stroke-width: 0.8"/>
      </g>
     </g>
     <g id="text_14">
      <!-- 8 -->
      <g transform="translate(13.5625 83.067363) scale(0.1 -0.1)">
       <defs>
        <path id="DejaVuSans-38" d="M 2034 2216 
Q 1584 2216 1326 1975 
Q 1069 1734 1069 1313 
Q 1069 891 1326 650 
Q 1584 409 2034 409 
Q 2484 409 2743 651 
Q 3003 894 3003 1313 
Q 3003 1734 2745 1975 
Q 2488 2216 2034 2216 
z
M 1403 2484 
Q 997 2584 770 2862 
Q 544 3141 544 3541 
Q 544 4100 942 4425 
Q 1341 4750 2034 4750 
Q 2731 4750 3128 4425 
Q 3525 4100 3525 3541 
Q 3525 3141 3298 2862 
Q 3072 2584 2669 2484 
Q 3125 2378 3379 2068 
Q 3634 1759 3634 1313 
Q 3634 634 3220 271 
Q 2806 -91 2034 -91 
Q 1263 -91 848 271 
Q 434 634 434 1313 
Q 434 1759 690 2068 
Q 947 2378 1403 2484 
z
M 1172 3481 
Q 1172 3119 1398 2916 
Q 1625 2713 2034 2713 
Q 2441 2713 2670 2916 
Q 2900 3119 2900 3481 
Q 2900 3844 2670 4047 
Q 2441 4250 2034 4250 
Q 1625 4250 1398 4047 
Q 1172 3844 1172 3481 
z
" transform="scale(0.015625)"/>
       </defs>
       <use xlink:href="#DejaVuSans-38"/>
      </g>
     </g>
    </g>
    <g id="ytick_6">
     <g id="line2d_15">
      <g>
       <use xlink:href="#m08a1dce013" x="26.925" y="35.523139" style="stroke: #000000; stroke-width: 0.8"/>
      </g>
     </g>
     <g id="text_15">
      <!-- 10 -->
      <g transform="translate(7.2 39.322357) scale(0.1 -0.1)">
       <use xlink:href="#DejaVuSans-31"/>
       <use xlink:href="#DejaVuSans-30" x="63.623047"/>
      </g>
     </g>
    </g>
   </g>
   <g id="line2d_16">
    <path d="M 43.157727 253.774537 
L 43.969364 253.827753 
L 44.781 257.460819 
L 46.404273 245.819224 
L 47.215909 244.925448 
L 48.027545 253.827316 
L 48.839182 252.595303 
L 49.650818 250.020122 
L 50.462455 249.051039 
L 51.274091 256.590075 
L 52.085727 249.719988 
L 52.897364 251.984776 
L 53.709 250.419755 
L 54.520636 253.765351 
L 55.332273 252.705934 
L 56.143909 245.410777 
L 57.767182 257.280809 
L 58.578818 250.972035 
L 59.390455 249.598398 
L 60.202091 251.322848 
L 61.013727 250.090967 
L 61.825364 259.808745 
L 62.637 248.709784 
L 63.448636 252.943185 
L 64.260273 250.146348 
L 65.071909 248.698148 
L 65.883545 255.06414 
L 66.695182 252.487144 
L 67.506818 253.972418 
L 68.318455 249.338334 
L 69.130091 248.311639 
L 69.941727 251.665612 
L 70.753364 255.948161 
L 71.565 250.653856 
L 72.376636 253.687922 
L 73.188273 255.010727 
L 73.999909 252.739662 
L 74.811545 256.506238 
L 75.623182 252.795415 
L 76.434818 248.302125 
L 77.246455 251.206815 
L 78.058091 250.704075 
L 78.869727 254.999419 
L 79.681364 251.277616 
L 80.493 252.76394 
L 81.304636 257.78696 
L 82.116273 250.886317 
L 82.927909 252.694036 
L 83.739545 255.320136 
L 84.551182 249.801353 
L 85.362818 250.719233 
L 86.174455 249.889434 
L 86.986091 248.727195 
L 87.797727 246.472205 
L 88.609364 256.384583 
L 89.421 248.680891 
L 90.232636 249.497741 
L 91.044273 250.871597 
L 91.855909 255.601635 
L 92.667545 251.440982 
L 93.479182 249.743719 
L 94.290818 246.600116 
L 95.102455 252.381543 
L 95.914091 251.501131 
L 96.725727 248.684215 
L 97.537364 254.106955 
L 98.349 252.418005 
L 99.160636 251.478537 
L 99.972273 251.360382 
L 100.783909 246.215903 
L 102.407182 254.336835 
L 103.218818 252.670894 
L 104.030455 245.865178 
L 104.842091 249.388794 
L 105.653727 252.091645 
L 106.465364 247.149269 
L 107.277 251.504937 
L 108.088636 249.558328 
L 108.900273 247.959842 
L 109.711909 249.204825 
L 110.523545 251.163376 
L 111.335182 246.784807 
L 112.146818 250.6831 
L 112.958455 250.426229 
L 113.770091 243.681624 
L 114.581727 240.37004 
L 115.393364 250.917682 
L 116.205 244.606437 
L 117.016636 251.507999 
L 117.828273 247.630289 
L 118.639909 240.847451 
L 119.451545 254.756175 
L 120.263182 243.723138 
L 121.074818 252.036942 
L 121.886455 241.732784 
L 122.698091 245.616728 
L 123.509727 244.163256 
L 124.321364 256.576295 
L 125.133 240.34808 
L 125.944636 244.609499 
L 126.756273 246.899463 
L 127.567909 241.837794 
L 128.379545 241.372675 
L 129.191182 252.032283 
L 130.002818 246.138497 
L 130.814455 242.614202 
L 131.626091 246.657006 
L 132.437727 245.764652 
L 133.249364 245.165761 
L 134.061 244.191188 
L 134.872636 242.014655 
L 135.684273 242.715406 
L 136.495909 239.829329 
L 137.307545 240.104201 
L 138.119182 235.172564 
L 138.930818 243.173329 
L 139.742455 236.031847 
L 140.554091 239.763581 
L 141.365727 239.675828 
L 142.177364 237.94252 
L 142.989 237.334092 
L 143.800636 236.294252 
L 144.612273 233.47294 
L 145.423909 232.381174 
L 146.235545 228.112317 
L 147.047182 233.519681 
L 147.858818 231.617364 
L 148.670455 232.273605 
L 149.482091 228.970069 
L 150.293727 220.534917 
L 151.105364 224.886036 
L 151.917 221.920912 
L 152.728636 224.158709 
L 153.540273 215.665485 
L 154.351909 218.412147 
L 155.163545 218.100857 
L 155.975182 207.759844 
L 156.786818 213.869753 
L 157.598455 210.315187 
L 158.410091 211.217799 
L 159.221727 201.298576 
L 160.033364 188.929588 
L 160.845 192.653688 
L 161.656636 193.458268 
L 162.468273 200.603533 
L 163.279909 184.630023 
L 164.091545 181.080072 
L 164.903182 184.026364 
L 165.714818 174.835188 
L 166.526455 171.428218 
L 167.338091 160.452137 
L 168.149727 164.400495 
L 168.961364 161.872034 
L 169.773 148.77268 
L 170.584636 148.106881 
L 171.396273 141.526866 
L 172.207909 133.060174 
L 173.019545 128.719204 
L 173.831182 123.769281 
L 174.642818 125.342461 
L 175.454455 111.631158 
L 177.077727 101.516613 
L 177.889364 103.944461 
L 178.701 92.794318 
L 179.512636 94.683599 
L 180.324273 84.294007 
L 181.135909 82.43736 
L 181.947545 75.359637 
L 182.759182 63.131355 
L 183.570818 64.84699 
L 184.382455 62.601603 
L 185.194091 50.278176 
L 186.005727 42.220893 
L 186.817364 46.609042 
L 187.629 39.018955 
L 188.440636 44.460615 
L 189.252273 37.836856 
L 190.063909 40.299678 
L 190.875545 40.180647 
L 191.687182 36.737412 
L 193.310455 25.628172 
L 194.122091 31.184684 
L 194.933727 30.706901 
L 195.745364 33.521389 
L 196.557 39.811112 
L 197.368636 36.038083 
L 198.180273 43.288402 
L 198.991909 43.126195 
L 199.803545 49.412265 
L 200.615182 54.299326 
L 201.426818 54.693228 
L 202.238455 64.593051 
L 203.050091 61.0973 
L 203.861727 65.867693 
L 204.673364 74.881285 
L 206.296636 83.947766 
L 207.108273 85.188811 
L 207.919909 94.860482 
L 208.731545 106.092603 
L 209.543182 105.06068 
L 210.354818 105.712174 
L 211.166455 115.914472 
L 211.978091 121.339859 
L 212.789727 128.066288 
L 213.601364 127.671205 
L 214.413 132.775066 
L 215.224636 142.100954 
L 216.036273 147.023579 
L 216.847909 146.419111 
L 217.659545 163.014325 
L 218.471182 160.114119 
L 219.282818 171.842527 
L 220.906091 170.807695 
L 222.529364 186.915284 
L 223.341 193.229416 
L 224.152636 196.939364 
L 224.964273 201.394771 
L 225.775909 201.081185 
L 226.587545 204.628533 
L 227.399182 205.352229 
L 228.210818 203.692871 
L 229.022455 210.388963 
L 229.834091 211.154325 
L 230.645727 212.515823 
L 231.457364 216.014592 
L 232.269 221.839459 
L 233.080636 221.021055 
L 233.892273 215.36721 
L 234.703909 229.409882 
L 235.515545 224.810816 
L 236.327182 231.352532 
L 237.138818 231.492538 
L 237.950455 234.81414 
L 238.762091 232.486293 
L 239.573727 232.33172 
L 240.385364 227.217273 
L 241.197 231.70212 
L 242.008636 234.691763 
L 242.820273 235.888736 
L 243.631909 241.895384 
L 244.443545 242.370871 
L 245.255182 230.894281 
L 246.066818 241.801857 
L 246.878455 242.301491 
L 247.690091 237.455529 
L 248.501727 246.094227 
L 249.313364 243.179825 
L 250.125 252.192018 
L 250.936636 239.865878 
L 251.748273 239.159484 
L 252.559909 249.106508 
L 253.371545 243.052068 
L 254.183182 243.405309 
L 254.994818 238.495413 
L 255.806455 244.209298 
L 256.618091 242.981551 
L 257.429727 244.459782 
L 258.241364 247.481293 
L 259.053 246.899003 
L 259.864636 245.417295 
L 260.676273 250.44587 
L 261.487909 242.383075 
L 262.299545 244.71814 
L 263.111182 243.250648 
L 263.922818 248.632224 
L 264.734455 248.348188 
L 265.546091 249.783768 
L 266.357727 249.443782 
L 267.169364 241.209834 
L 267.981 248.285633 
L 268.792636 249.2585 
L 269.604273 247.507934 
L 270.415909 252.819277 
L 271.227545 243.502379 
L 272.039182 243.425256 
L 272.850818 247.209965 
L 273.662455 249.933441 
L 274.474091 241.077396 
L 275.285727 250.857576 
L 276.097364 246.956572 
L 276.909 248.560483 
L 277.720636 250.987193 
L 278.532273 250.643182 
L 279.343909 253.548004 
L 280.155545 244.167565 
L 280.967182 248.223974 
L 281.778818 246.739159 
L 282.590455 246.616892 
L 283.402091 246.915452 
L 284.213727 249.353733 
L 285.025364 253.022845 
L 285.837 251.048939 
L 286.648636 247.774407 
L 287.460273 253.608262 
L 288.271909 250.120386 
L 289.083545 250.186156 
L 289.895182 254.471876 
L 290.706818 255.898182 
L 291.518455 255.341286 
L 292.330091 250.824133 
L 293.141727 251.215104 
L 293.953364 244.829799 
L 294.765 251.90271 
L 295.576636 248.373013 
L 296.388273 250.046172 
L 297.199909 256.196611 
L 298.011545 252.571659 
L 298.823182 243.429893 
L 299.634818 247.590809 
L 300.446455 247.426043 
L 302.069727 255.02022 
L 302.881364 244.56921 
L 303.693 251.422018 
L 304.504636 249.816839 
L 305.316273 255.08365 
L 306.127909 250.640426 
L 306.939545 252.28561 
L 307.751182 254.88986 
L 308.562818 247.212196 
L 309.374455 254.206453 
L 310.997727 238.800753 
L 311.809364 250.105972 
L 312.621 249.709533 
L 313.432636 248.719233 
L 314.244273 246.86287 
L 316.679182 258.629686 
L 317.490818 252.856636 
L 318.302455 253.930729 
L 319.114091 252.260435 
L 319.925727 248.52529 
L 320.737364 251.170025 
L 321.549 246.560745 
L 322.360636 259.125011 
L 323.172273 250.037183 
L 323.983909 256.070494 
L 325.607182 245.680333 
L 326.418818 256.246414 
L 327.230455 256.848499 
L 328.042091 255.44774 
L 328.853727 250.304661 
L 329.665364 252.817725 
L 330.477 247.270508 
L 331.288636 250.610155 
L 332.100273 249.72329 
L 332.911909 251.872701 
L 333.723545 252.378218 
L 334.535182 248.32765 
L 335.346818 248.98575 
L 336.158455 247.690307 
L 336.970091 255.123239 
L 337.781727 247.549076 
L 338.593364 255.067005 
L 339.405 254.11413 
L 340.216636 249.343671 
L 341.028273 253.051935 
L 341.839909 251.187808 
L 342.651545 255.989391 
L 343.463182 258.959239 
L 344.274818 255.630966 
L 345.086455 253.973446 
L 345.898091 257.274969 
L 346.709727 247.104124 
L 348.333 255.407604 
L 349.144636 254.881592 
L 349.956273 253.084744 
L 350.767909 249.010575 
L 351.579545 249.30347 
L 352.391182 254.609257 
L 353.202818 250.849965 
L 354.014455 250.172792 
L 354.826091 252.566628 
L 355.637727 250.209625 
L 356.449364 249.983486 
L 357.261 250.883627 
L 358.072636 252.529008 
L 358.884273 252.451863 
L 359.695909 252.727654 
L 360.507545 250.550837 
L 362.130818 257.431335 
L 362.942455 261.132666 
L 363.754091 245.287263 
L 364.565727 255.805858 
L 365.377364 261.216 
L 366.189 250.768271 
L 367.000636 254.558535 
L 367.812273 256.24893 
L 367.812273 256.24893 
" clip-path="url(#pab877ac769)" style="fill: none; stroke: #1f77b4; stroke-width: 1.5; stroke-linecap: square"/>
   </g>
   <g id="line2d_17">
    <path d="M 43.157727 250.637849 
L 57.767182 249.832481 
L 69.941727 248.93794 
L 79.681364 248.013023 
L 88.609364 246.937852 
L 95.914091 245.839834 
L 102.407182 244.645354 
L 108.088636 243.382095 
L 112.958455 242.09378 
L 117.828273 240.567248 
L 121.886455 239.069756 
L 125.944636 237.319246 
L 129.191182 235.697941 
L 132.437727 233.840085 
L 135.684273 231.699235 
L 138.119182 229.873616 
L 140.554091 227.826974 
L 142.989 225.524109 
L 145.423909 222.923036 
L 147.858818 219.973524 
L 150.293727 216.615328 
L 152.728636 212.776065 
L 155.163545 208.368745 
L 157.598455 203.28897 
L 159.221727 199.468192 
L 160.845 195.251031 
L 162.468273 190.590114 
L 164.091545 185.433163 
L 165.714818 179.723213 
L 167.338091 173.399325 
L 168.961364 166.398051 
L 170.584636 158.656056 
L 172.207909 150.114379 
L 173.831182 140.725 
L 176.266091 125.000194 
L 178.701 107.38299 
L 181.947545 81.682459 
L 185.194091 55.682968 
L 186.817364 43.832018 
L 188.440636 33.627719 
L 189.252273 29.362231 
L 190.063909 25.764615 
L 190.875545 22.907168 
L 191.687182 20.849831 
L 192.498818 19.637167 
L 193.310455 19.296 
L 194.122091 19.833952 
L 194.933727 21.239021 
L 195.745364 23.480242 
L 196.557 26.50937 
L 197.368636 30.263411 
L 198.991909 39.639683 
L 200.615182 50.935524 
L 203.050091 69.968557 
L 207.919909 108.759193 
L 210.354818 126.243364 
L 212.789727 141.821044 
L 215.224636 155.440821 
L 216.847909 163.486423 
L 218.471182 170.767612 
L 220.094455 177.346646 
L 221.717727 183.287314 
L 223.341 188.651759 
L 224.964273 193.498604 
L 227.399182 199.915486 
L 229.834091 205.450646 
L 232.269 210.242159 
L 234.703909 214.40611 
L 237.138818 218.03944 
L 239.573727 221.222858 
L 242.008636 224.023514 
L 244.443545 226.497331 
L 246.878455 228.69098 
L 249.313364 230.643517 
L 252.559909 232.927746 
L 255.806455 234.904892 
L 259.053 236.626097 
L 263.111182 238.479745 
L 267.169364 240.061287 
L 271.227545 241.420477 
L 276.097364 242.812455 
L 281.778818 244.171778 
L 287.460273 245.305248 
L 293.953364 246.383628 
L 301.258091 247.381122 
L 310.186091 248.364178 
L 320.737364 249.27787 
L 332.911909 250.091807 
L 347.521364 250.830698 
L 365.377364 251.494969 
L 367.812273 251.570357 
L 367.812273 251.570357 
" clip-path="url(#pab877ac769)" style="fill: none; stroke: #ff7f0e; stroke-width: 1.5; stroke-linecap: square"/>
   </g>
   <g id="patch_3">
    <path d="M 26.925 273.312 
L 26.925 7.2 
" style="fill: none; stroke: #000000; stroke-width: 0.8; stroke-linejoin: miter; stroke-linecap: square"/>
   </g>
   <g id="patch_4">
    <path d="M 384.045 273.312 
L 384.045 7.2 
" style="fill: none; stroke: #000000; stroke-width: 0.8; stroke-linejoin: miter; stroke-linecap: square"/>
   </g>
   <g id="patch_5">
    <path d="M 26.925 273.312 
L 384.045 273.312 
" style="fill: none; stroke: #000000; stroke-width: 0.8; stroke-linejoin: miter; stroke-linecap: square"/>
   </g>
   <g id="patch_6">
    <path d="M 26.925 7.2 
L 384.045 7.2 
" style="fill: none; stroke: #000000; stroke-width: 0.8; stroke-linejoin: miter; stroke-linecap: square"/>
   </g>
   <g id="legend_1">
    <g id="patch_7">
     <path d="M 259.535625 29.878125 
L 377.045 29.878125 
Q 379.045 29.878125 379.045 27.878125 
L 379.045 14.2 
Q 379.045 12.2 377.045 12.2 
L 259.535625 12.2 
Q 257.535625 12.2 257.535625 14.2 
L 257.535625 27.878125 
Q 257.535625 29.878125 259.535625 29.878125 
z
" style="fill: #ffffff; opacity: 0.8; stroke: #cccccc; stroke-linejoin: miter"/>
    </g>
    <g id="line2d_18">
     <path d="M 261.535625 20.298438 
L 271.535625 20.298438 
L 281.535625 20.298438 
" style="fill: none; stroke: #ff7f0e; stroke-width: 1.5; stroke-linecap: square"/>
    </g>
    <g id="text_16">
     <!-- Lorentzian Model -->
     <g transform="translate(289.535625 23.798438) scale(0.1 -0.1)">
      <defs>
       <path id="DejaVuSans-4c" d="M 628 4666 
L 1259 4666 
L 1259 531 
L 3531 531 
L 3531 0 
L 628 0 
L 628 4666 
z
" transform="scale(0.015625)"/>
       <path id="DejaVuSans-6f" d="M 1959 3097 
Q 1497 3097 1228 2736 
Q 959 2375 959 1747 
Q 959 1119 1226 758 
Q 1494 397 1959 397 
Q 2419 397 2687 759 
Q 2956 1122 2956 1747 
Q 2956 2369 2687 2733 
Q 2419 3097 1959 3097 
z
M 1959 3584 
Q 2709 3584 3137 3096 
Q 3566 2609 3566 1747 
Q 3566 888 3137 398 
Q 2709 -91 1959 -91 
Q 1206 -91 779 398 
Q 353 888 353 1747 
Q 353 2609 779 3096 
Q 1206 3584 1959 3584 
z
" transform="scale(0.015625)"/>
       <path id="DejaVuSans-72" d="M 2631 2963 
Q 2534 3019 2420 3045 
Q 2306 3072 2169 3072 
Q 1681 3072 1420 2755 
Q 1159 2438 1159 1844 
L 1159 0 
L 581 0 
L 581 3500 
L 1159 3500 
L 1159 2956 
Q 1341 3275 1631 3429 
Q 1922 3584 2338 3584 
Q 2397 3584 2469 3576 
Q 2541 3569 2628 3553 
L 2631 2963 
z
" transform="scale(0.015625)"/>
       <path id="DejaVuSans-65" d="M 3597 1894 
L 3597 1613 
L 953 1613 
Q 991 1019 1311 708 
Q 1631 397 2203 397 
Q 2534 397 2845 478 
Q 3156 559 3463 722 
L 3463 178 
Q 3153 47 2828 -22 
Q 2503 -91 2169 -91 
Q 1331 -91 842 396 
Q 353 884 353 1716 
Q 353 2575 817 3079 
Q 1281 3584 2069 3584 
Q 2775 3584 3186 3129 
Q 3597 2675 3597 1894 
z
M 3022 2063 
Q 3016 2534 2758 2815 
Q 2500 3097 2075 3097 
Q 1594 3097 1305 2825 
Q 1016 2553 972 2059 
L 3022 2063 
z
" transform="scale(0.015625)"/>
       <path id="DejaVuSans-6e" d="M 3513 2113 
L 3513 0 
L 2938 0 
L 2938 2094 
Q 2938 2591 2744 2837 
Q 2550 3084 2163 3084 
Q 1697 3084 1428 2787 
Q 1159 2491 1159 1978 
L 1159 0 
L 581 0 
L 581 3500 
L 1159 3500 
L 1159 2956 
Q 1366 3272 1645 3428 
Q 1925 3584 2291 3584 
Q 2894 3584 3203 3211 
Q 3513 2838 3513 2113 
z
" transform="scale(0.015625)"/>
       <path id="DejaVuSans-74" d="M 1172 4494 
L 1172 3500 
L 2356 3500 
L 2356 3053 
L 1172 3053 
L 1172 1153 
Q 1172 725 1289 603 
Q 1406 481 1766 481 
L 2356 481 
L 2356 0 
L 1766 0 
Q 1100 0 847 248 
Q 594 497 594 1153 
L 594 3053 
L 172 3053 
L 172 3500 
L 594 3500 
L 594 4494 
L 1172 4494 
z
" transform="scale(0.015625)"/>
       <path id="DejaVuSans-7a" d="M 353 3500 
L 3084 3500 
L 3084 2975 
L 922 459 
L 3084 459 
L 3084 0 
L 275 0 
L 275 525 
L 2438 3041 
L 353 3041 
L 353 3500 
z
" transform="scale(0.015625)"/>
       <path id="DejaVuSans-69" d="M 603 3500 
L 1178 3500 
L 1178 0 
L 603 0 
L 603 3500 
z
M 603 4863 
L 1178 4863 
L 1178 4134 
L 603 4134 
L 603 4863 
z
" transform="scale(0.015625)"/>
       <path id="DejaVuSans-61" d="M 2194 1759 
Q 1497 1759 1228 1600 
Q 959 1441 959 1056 
Q 959 750 1161 570 
Q 1363 391 1709 391 
Q 2188 391 2477 730 
Q 2766 1069 2766 1631 
L 2766 1759 
L 2194 1759 
z
M 3341 1997 
L 3341 0 
L 2766 0 
L 2766 531 
Q 2569 213 2275 61 
Q 1981 -91 1556 -91 
Q 1019 -91 701 211 
Q 384 513 384 1019 
Q 384 1609 779 1909 
Q 1175 2209 1959 2209 
L 2766 2209 
L 2766 2266 
Q 2766 2663 2505 2880 
Q 2244 3097 1772 3097 
Q 1472 3097 1187 3025 
Q 903 2953 641 2809 
L 641 3341 
Q 956 3463 1253 3523 
Q 1550 3584 1831 3584 
Q 2591 3584 2966 3190 
Q 3341 2797 3341 1997 
z
" transform="scale(0.015625)"/>
       <path id="DejaVuSans-20" transform="scale(0.015625)"/>
       <path id="DejaVuSans-4d" d="M 628 4666 
L 1569 4666 
L 2759 1491 
L 3956 4666 
L 4897 4666 
L 4897 0 
L 4281 0 
L 4281 4097 
L 3078 897 
L 2444 897 
L 1241 4097 
L 1241 0 
L 628 0 
L 628 4666 
z
" transform="scale(0.015625)"/>
       <path id="DejaVuSans-64" d="M 2906 2969 
L 2906 4863 
L 3481 4863 
L 3481 0 
L 2906 0 
L 2906 525 
Q 2725 213 2448 61 
Q 2172 -91 1784 -91 
Q 1150 -91 751 415 
Q 353 922 353 1747 
Q 353 2572 751 3078 
Q 1150 3584 1784 3584 
Q 2172 3584 2448 3432 
Q 2725 3281 2906 2969 
z
M 947 1747 
Q 947 1113 1208 752 
Q 1469 391 1925 391 
Q 2381 391 2643 752 
Q 2906 1113 2906 1747 
Q 2906 2381 2643 2742 
Q 2381 3103 1925 3103 
Q 1469 3103 1208 2742 
Q 947 2381 947 1747 
z
" transform="scale(0.015625)"/>
       <path id="DejaVuSans-6c" d="M 603 4863 
L 1178 4863 
L 1178 0 
L 603 0 
L 603 4863 
z
" transform="scale(0.015625)"/>
      </defs>
      <use xlink:href="#DejaVuSans-4c"/>
      <use xlink:href="#DejaVuSans-6f" x="53.962891"/>
      <use xlink:href="#DejaVuSans-72" x="115.144531"/>
      <use xlink:href="#DejaVuSans-65" x="154.007812"/>
      <use xlink:href="#DejaVuSans-6e" x="215.53125"/>
      <use xlink:href="#DejaVuSans-74" x="278.910156"/>
      <use xlink:href="#DejaVuSans-7a" x="318.119141"/>
      <use xlink:href="#DejaVuSans-69" x="370.609375"/>
      <use xlink:href="#DejaVuSans-61" x="398.392578"/>
      <use xlink:href="#DejaVuSans-6e" x="459.671875"/>
      <use xlink:href="#DejaVuSans-20" x="523.050781"/>
      <use xlink:href="#DejaVuSans-4d" x="554.837891"/>
      <use xlink:href="#DejaVuSans-6f" x="641.117188"/>
      <use xlink:href="#DejaVuSans-64" x="702.298828"/>
      <use xlink:href="#DejaVuSans-65" x="765.775391"/>
      <use xlink:href="#DejaVuSans-6c" x="827.298828"/>
     </g>
    </g>
   </g>
  </g>
 </g>
 <defs>
  <clipPath id="pab877ac769">
   <rect x="26.925" y="7.2" width="357.12" height="266.112"/>
  </clipPath>
 </defs>
</svg>
