<?xml version="1.0" encoding="utf-8" standalone="no"?>
<!DOCTYPE svg PUBLIC "-//W3C//DTD SVG 1.1//EN"
  "http://www.w3.org/Graphics/SVG/1.1/DTD/svg11.dtd">
<svg xmlns:xlink="http://www.w3.org/1999/xlink" width="391.245pt" height="297.190125pt" viewBox="0 0 391.245 297.190125" xmlns="http://www.w3.org/2000/svg" version="1.1">
 <metadata>
  <rdf:RDF xmlns:dc="http://purl.org/dc/elements/1.1/" xmlns:cc="http://creativecommons.org/ns#" xmlns:rdf="http://www.w3.org/1999/02/22-rdf-syntax-ns#">
   <cc:Work>
    <dc:type rdf:resource="http://purl.org/dc/dcmitype/StillImage"/>
    <dc:date>2022-11-28T20:27:40.089725</dc:date>
    <dc:format>image/svg+xml</dc:format>
    <dc:creator>
     <cc:Agent>
      <dc:title>Matplotlib v3.6.2, https://matplotlib.org/</dc:title>
     </cc:Agent>
    </dc:creator>
   </cc:Work>
  </rdf:RDF>
 </metadata>
 <defs>
  <style type="text/css">*{stroke-linejoin: round; stroke-linecap: butt}</style>
 </defs>
 <g id="figure_1">
  <g id="patch_1">
   <path d="M 0 297.190125 
L 391.245 297.190125 
L 391.245 0 
L 0 0 
z
" style="fill: #ffffff"/>
  </g>
  <g id="axes_1">
   <g id="patch_2">
    <path d="M 26.925 273.312 
L 384.045 273.312 
L 384.045 7.2 
L 26.925 7.2 
z
" style="fill: #ffffff"/>
   </g>
   <g id="matplotlib.axis_1">
    <g id="xtick_1">
     <g id="line2d_1">
      <defs>
       <path id="m4092277789" d="M 0 0 
L 0 3.5 
" style="stroke: #000000; stroke-width: 0.8"/>
      </defs>
      <g>
       <use xlink:href="#m4092277789" x="43.157727" y="273.312" style="stroke: #000000; stroke-width: 0.8"/>
      </g>
     </g>
     <g id="text_1">
      <!-- 0.0 -->
      <g transform="translate(35.206165 287.910437) scale(0.1 -0.1)">
       <defs>
        <path id="DejaVuSans-30" d="M 2034 4250 
Q 1547 4250 1301 3770 
Q 1056 3291 1056 2328 
Q 1056 1369 1301 889 
Q 1547 409 2034 409 
Q 2525 409 2770 889 
Q 3016 1369 3016 2328 
Q 3016 3291 2770 3770 
Q 2525 4250 2034 4250 
z
M 2034 4750 
Q 2819 4750 3233 4129 
Q 3647 3509 3647 2328 
Q 3647 1150 3233 529 
Q 2819 -91 2034 -91 
Q 1250 -91 836 529 
Q 422 1150 422 2328 
Q 422 3509 836 4129 
Q 1250 4750 2034 4750 
z
" transform="scale(0.015625)"/>
        <path id="DejaVuSans-2e" d="M 684 794 
L 1344 794 
L 1344 0 
L 684 0 
L 684 794 
z
" transform="scale(0.015625)"/>
       </defs>
       <use xlink:href="#DejaVuSans-30"/>
       <use xlink:href="#DejaVuSans-2e" x="63.623047"/>
       <use xlink:href="#DejaVuSans-30" x="95.410156"/>
      </g>
     </g>
    </g>
    <g id="xtick_2">
     <g id="line2d_2">
      <g>
       <use xlink:href="#m4092277789" x="83.739545" y="273.312" style="stroke: #000000; stroke-width: 0.8"/>
      </g>
     </g>
     <g id="text_2">
      <!-- 2.5 -->
      <g transform="translate(75.787983 287.910437) scale(0.1 -0.1)">
       <defs>
        <path id="DejaVuSans-32" d="M 1228 531 
L 3431 531 
L 3431 0 
L 469 0 
L 469 531 
Q 828 903 1448 1529 
Q 2069 2156 2228 2338 
Q 2531 2678 2651 2914 
Q 2772 3150 2772 3378 
Q 2772 3750 2511 3984 
Q 2250 4219 1831 4219 
Q 1534 4219 1204 4116 
Q 875 4013 500 3803 
L 500 4441 
Q 881 4594 1212 4672 
Q 1544 4750 1819 4750 
Q 2544 4750 2975 4387 
Q 3406 4025 3406 3419 
Q 3406 3131 3298 2873 
Q 3191 2616 2906 2266 
Q 2828 2175 2409 1742 
Q 1991 1309 1228 531 
z
" transform="scale(0.015625)"/>
        <path id="DejaVuSans-35" d="M 691 4666 
L 3169 4666 
L 3169 4134 
L 1269 4134 
L 1269 2991 
Q 1406 3038 1543 3061 
Q 1681 3084 1819 3084 
Q 2600 3084 3056 2656 
Q 3513 2228 3513 1497 
Q 3513 744 3044 326 
Q 2575 -91 1722 -91 
Q 1428 -91 1123 -41 
Q 819 9 494 109 
L 494 744 
Q 775 591 1075 516 
Q 1375 441 1709 441 
Q 2250 441 2565 725 
Q 2881 1009 2881 1497 
Q 2881 1984 2565 2268 
Q 2250 2553 1709 2553 
Q 1456 2553 1204 2497 
Q 953 2441 691 2322 
L 691 4666 
z
" transform="scale(0.015625)"/>
       </defs>
       <use xlink:href="#DejaVuSans-32"/>
       <use xlink:href="#DejaVuSans-2e" x="63.623047"/>
       <use xlink:href="#DejaVuSans-35" x="95.410156"/>
      </g>
     </g>
    </g>
    <g id="xtick_3">
     <g id="line2d_3">
      <g>
       <use xlink:href="#m4092277789" x="124.321364" y="273.312" style="stroke: #000000; stroke-width: 0.8"/>
      </g>
     </g>
     <g id="text_3">
      <!-- 5.0 -->
      <g transform="translate(116.369801 287.910437) scale(0.1 -0.1)">
       <use xlink:href="#DejaVuSans-35"/>
       <use xlink:href="#DejaVuSans-2e" x="63.623047"/>
       <use xlink:href="#DejaVuSans-30" x="95.410156"/>
      </g>
     </g>
    </g>
    <g id="xtick_4">
     <g id="line2d_4">
      <g>
       <use xlink:href="#m4092277789" x="164.903182" y="273.312" style="stroke: #000000; stroke-width: 0.8"/>
      </g>
     </g>
     <g id="text_4">
      <!-- 7.5 -->
      <g transform="translate(156.951619 287.910437) scale(0.1 -0.1)">
       <defs>
        <path id="DejaVuSans-37" d="M 525 4666 
L 3525 4666 
L 3525 4397 
L 1831 0 
L 1172 0 
L 2766 4134 
L 525 4134 
L 525 4666 
z
" transform="scale(0.015625)"/>
       </defs>
       <use xlink:href="#DejaVuSans-37"/>
       <use xlink:href="#DejaVuSans-2e" x="63.623047"/>
       <use xlink:href="#DejaVuSans-35" x="95.410156"/>
      </g>
     </g>
    </g>
    <g id="xtick_5">
     <g id="line2d_5">
      <g>
       <use xlink:href="#m4092277789" x="205.485" y="273.312" style="stroke: #000000; stroke-width: 0.8"/>
      </g>
     </g>
     <g id="text_5">
      <!-- 10.0 -->
      <g transform="translate(194.352188 287.910437) scale(0.1 -0.1)">
       <defs>
        <path id="DejaVuSans-31" d="M 794 531 
L 1825 531 
L 1825 4091 
L 703 3866 
L 703 4441 
L 1819 4666 
L 2450 4666 
L 2450 531 
L 3481 531 
L 3481 0 
L 794 0 
L 794 531 
z
" transform="scale(0.015625)"/>
       </defs>
       <use xlink:href="#DejaVuSans-31"/>
       <use xlink:href="#DejaVuSans-30" x="63.623047"/>
       <use xlink:href="#DejaVuSans-2e" x="127.246094"/>
       <use xlink:href="#DejaVuSans-30" x="159.033203"/>
      </g>
     </g>
    </g>
    <g id="xtick_6">
     <g id="line2d_6">
      <g>
       <use xlink:href="#m4092277789" x="246.066818" y="273.312" style="stroke: #000000; stroke-width: 0.8"/>
      </g>
     </g>
     <g id="text_6">
      <!-- 12.5 -->
      <g transform="translate(234.934006 287.910437) scale(0.1 -0.1)">
       <use xlink:href="#DejaVuSans-31"/>
       <use xlink:href="#DejaVuSans-32" x="63.623047"/>
       <use xlink:href="#DejaVuSans-2e" x="127.246094"/>
       <use xlink:href="#DejaVuSans-35" x="159.033203"/>
      </g>
     </g>
    </g>
    <g id="xtick_7">
     <g id="line2d_7">
      <g>
       <use xlink:href="#m4092277789" x="286.648636" y="273.312" style="stroke: #000000; stroke-width: 0.8"/>
      </g>
     </g>
     <g id="text_7">
      <!-- 15.0 -->
      <g transform="translate(275.515824 287.910437) scale(0.1 -0.1)">
       <use xlink:href="#DejaVuSans-31"/>
       <use xlink:href="#DejaVuSans-35" x="63.623047"/>
       <use xlink:href="#DejaVuSans-2e" x="127.246094"/>
       <use xlink:href="#DejaVuSans-30" x="159.033203"/>
      </g>
     </g>
    </g>
    <g id="xtick_8">
     <g id="line2d_8">
      <g>
       <use xlink:href="#m4092277789" x="327.230455" y="273.312" style="stroke: #000000; stroke-width: 0.8"/>
      </g>
     </g>
     <g id="text_8">
      <!-- 17.5 -->
      <g transform="translate(316.097642 287.910437) scale(0.1 -0.1)">
       <use xlink:href="#DejaVuSans-31"/>
       <use xlink:href="#DejaVuSans-37" x="63.623047"/>
       <use xlink:href="#DejaVuSans-2e" x="127.246094"/>
       <use xlink:href="#DejaVuSans-35" x="159.033203"/>
      </g>
     </g>
    </g>
    <g id="xtick_9">
     <g id="line2d_9">
      <g>
       <use xlink:href="#m4092277789" x="367.812273" y="273.312" style="stroke: #000000; stroke-width: 0.8"/>
      </g>
     </g>
     <g id="text_9">
      <!-- 20.0 -->
      <g transform="translate(356.67946 287.910437) scale(0.1 -0.1)">
       <use xlink:href="#DejaVuSans-32"/>
       <use xlink:href="#DejaVuSans-30" x="63.623047"/>
       <use xlink:href="#DejaVuSans-2e" x="127.246094"/>
       <use xlink:href="#DejaVuSans-30" x="159.033203"/>
      </g>
     </g>
    </g>
   </g>
   <g id="matplotlib.axis_2">
    <g id="ytick_1">
     <g id="line2d_10">
      <defs>
       <path id="m46c5880c84" d="M 0 0 
L -3.5 0 
" style="stroke: #000000; stroke-width: 0.8"/>
      </defs>
      <g>
       <use xlink:href="#m46c5880c84" x="26.925" y="254.24816" style="stroke: #000000; stroke-width: 0.8"/>
      </g>
     </g>
     <g id="text_10">
      <!-- 0 -->
      <g transform="translate(13.5625 258.047379) scale(0.1 -0.1)">
       <use xlink:href="#DejaVuSans-30"/>
      </g>
     </g>
    </g>
    <g id="ytick_2">
     <g id="line2d_11">
      <g>
       <use xlink:href="#m46c5880c84" x="26.925" y="210.503129" style="stroke: #000000; stroke-width: 0.8"/>
      </g>
     </g>
     <g id="text_11">
      <!-- 2 -->
      <g transform="translate(13.5625 214.302348) scale(0.1 -0.1)">
       <use xlink:href="#DejaVuSans-32"/>
      </g>
     </g>
    </g>
    <g id="ytick_3">
     <g id="line2d_12">
      <g>
       <use xlink:href="#m46c5880c84" x="26.925" y="166.758099" style="stroke: #000000; stroke-width: 0.8"/>
      </g>
     </g>
     <g id="text_12">
      <!-- 4 -->
      <g transform="translate(13.5625 170.557317) scale(0.1 -0.1)">
       <defs>
        <path id="DejaVuSans-34" d="M 2419 4116 
L 825 1625 
L 2419 1625 
L 2419 4116 
z
M 2253 4666 
L 3047 4666 
L 3047 1625 
L 3713 1625 
L 3713 1100 
L 3047 1100 
L 3047 0 
L 2419 0 
L 2419 1100 
L 313 1100 
L 313 1709 
L 2253 4666 
z
" transform="scale(0.015625)"/>
       </defs>
       <use xlink:href="#DejaVuSans-34"/>
      </g>
     </g>
    </g>
    <g id="ytick_4">
     <g id="line2d_13">
      <g>
       <use xlink:href="#m46c5880c84" x="26.925" y="123.013068" style="stroke: #000000; stroke-width: 0.8"/>
      </g>
     </g>
     <g id="text_13">
      <!-- 6 -->
      <g transform="translate(13.5625 126.812287) scale(0.1 -0.1)">
       <defs>
        <path id="DejaVuSans-36" d="M 2113 2584 
Q 1688 2584 1439 2293 
Q 1191 2003 1191 1497 
Q 1191 994 1439 701 
Q 1688 409 2113 409 
Q 2538 409 2786 701 
Q 3034 994 3034 1497 
Q 3034 2003 2786 2293 
Q 2538 2584 2113 2584 
z
M 3366 4563 
L 3366 3988 
Q 3128 4100 2886 4159 
Q 2644 4219 2406 4219 
Q 1781 4219 1451 3797 
Q 1122 3375 1075 2522 
Q 1259 2794 1537 2939 
Q 1816 3084 2150 3084 
Q 2853 3084 3261 2657 
Q 3669 2231 3669 1497 
Q 3669 778 3244 343 
Q 2819 -91 2113 -91 
Q 1303 -91 875 529 
Q 447 1150 447 2328 
Q 447 3434 972 4092 
Q 1497 4750 2381 4750 
Q 2619 4750 2861 4703 
Q 3103 4656 3366 4563 
z
" transform="scale(0.015625)"/>
       </defs>
       <use xlink:href="#DejaVuSans-36"/>
      </g>
     </g>
    </g>
    <g id="ytick_5">
     <g id="line2d_14">
      <g>
       <use xlink:href="#m46c5880c84" x="26.925" y="79.268037" style="stroke: #000000; stroke-width: 0.8"/>
      </g>
     </g>
     <g id="text_14">
      <!-- 8 -->
      <g transform="translate(13.5625 83.067256) scale(0.1 -0.1)">
       <defs>
        <path id="DejaVuSans-38" d="M 2034 2216 
Q 1584 2216 1326 1975 
Q 1069 1734 1069 1313 
Q 1069 891 1326 650 
Q 1584 409 2034 409 
Q 2484 409 2743 651 
Q 3003 894 3003 1313 
Q 3003 1734 2745 1975 
Q 2488 2216 2034 2216 
z
M 1403 2484 
Q 997 2584 770 2862 
Q 544 3141 544 3541 
Q 544 4100 942 4425 
Q 1341 4750 2034 4750 
Q 2731 4750 3128 4425 
Q 3525 4100 3525 3541 
Q 3525 3141 3298 2862 
Q 3072 2584 2669 2484 
Q 3125 2378 3379 2068 
Q 3634 1759 3634 1313 
Q 3634 634 3220 271 
Q 2806 -91 2034 -91 
Q 1263 -91 848 271 
Q 434 634 434 1313 
Q 434 1759 690 2068 
Q 947 2378 1403 2484 
z
M 1172 3481 
Q 1172 3119 1398 2916 
Q 1625 2713 2034 2713 
Q 2441 2713 2670 2916 
Q 2900 3119 2900 3481 
Q 2900 3844 2670 4047 
Q 2441 4250 2034 4250 
Q 1625 4250 1398 4047 
Q 1172 3844 1172 3481 
z
" transform="scale(0.015625)"/>
       </defs>
       <use xlink:href="#DejaVuSans-38"/>
      </g>
     </g>
    </g>
    <g id="ytick_6">
     <g id="line2d_15">
      <g>
       <use xlink:href="#m46c5880c84" x="26.925" y="35.523006" style="stroke: #000000; stroke-width: 0.8"/>
      </g>
     </g>
     <g id="text_15">
      <!-- 10 -->
      <g transform="translate(7.2 39.322225) scale(0.1 -0.1)">
       <use xlink:href="#DejaVuSans-31"/>
       <use xlink:href="#DejaVuSans-30" x="63.623047"/>
      </g>
     </g>
    </g>
   </g>
   <g id="line2d_16">
    <path d="M 43.157727 253.774533 
L 43.969364 253.827749 
L 44.781 257.460817 
L 46.404273 245.819215 
L 47.215909 244.925438 
L 48.027545 253.827311 
L 48.839182 252.595298 
L 49.650818 250.020116 
L 50.462455 249.051032 
L 51.274091 256.590072 
L 52.085727 249.719981 
L 52.897364 251.98477 
L 53.709 250.419748 
L 54.520636 253.765346 
L 55.332273 252.705929 
L 56.143909 245.410767 
L 57.767182 257.280806 
L 58.578818 250.972029 
L 59.390455 249.598392 
L 60.202091 251.322843 
L 61.013727 250.090961 
L 61.825364 259.808744 
L 62.637 248.709777 
L 63.448636 252.94318 
L 64.260273 250.146342 
L 65.071909 248.698141 
L 65.883545 255.064136 
L 66.695182 252.487138 
L 67.506818 253.972413 
L 68.318455 249.338327 
L 69.130091 248.311631 
L 69.941727 251.665607 
L 70.753364 255.948158 
L 71.565 250.65385 
L 72.376636 253.687918 
L 73.188273 255.010724 
L 73.999909 252.739657 
L 74.811545 256.506235 
L 75.623182 252.79541 
L 76.434818 248.302117 
L 77.246455 251.206809 
L 78.058091 250.704069 
L 78.869727 254.999416 
L 79.681364 251.27761 
L 80.493 252.763935 
L 81.304636 257.786958 
L 82.116273 250.886311 
L 82.927909 252.694031 
L 83.739545 255.320132 
L 84.551182 249.801347 
L 85.362818 250.719227 
L 86.174455 249.889427 
L 86.986091 248.727187 
L 87.797727 246.472197 
L 88.609364 256.38458 
L 89.421 248.680883 
L 90.232636 249.497734 
L 91.044273 250.871591 
L 91.855909 255.601632 
L 92.667545 251.440976 
L 93.479182 249.743713 
L 94.290818 246.600107 
L 95.102455 252.381538 
L 95.914091 251.501125 
L 96.725727 248.684208 
L 97.537364 254.106951 
L 98.349 252.417999 
L 99.160636 251.478531 
L 99.972273 251.360376 
L 100.783909 246.215895 
L 102.407182 254.336831 
L 103.218818 252.670889 
L 104.030455 245.865169 
L 104.842091 249.388787 
L 105.653727 252.09164 
L 106.465364 247.14926 
L 107.277 251.504931 
L 108.088636 249.558321 
L 108.900273 247.959834 
L 109.711909 249.204818 
L 110.523545 251.16337 
L 111.335182 246.784799 
L 112.146818 250.683093 
L 112.958455 250.426223 
L 113.770091 243.681614 
L 114.581727 240.370027 
L 115.393364 250.917676 
L 116.205 244.606427 
L 117.016636 251.507993 
L 117.828273 247.630281 
L 118.639909 240.847439 
L 119.451545 254.756171 
L 120.263182 243.723128 
L 121.074818 252.036936 
L 121.886455 241.732773 
L 122.698091 245.616719 
L 123.509727 244.163246 
L 124.321364 256.576293 
L 125.133 240.348067 
L 125.944636 244.60949 
L 126.756273 246.899454 
L 127.567909 241.837783 
L 128.379545 241.372663 
L 129.191182 252.032278 
L 130.002818 246.138488 
L 130.814455 242.614191 
L 131.626091 246.656998 
L 132.437727 245.764643 
L 133.249364 245.165751 
L 134.061 244.191178 
L 134.872636 242.014644 
L 135.684273 242.715395 
L 136.495909 239.829317 
L 137.307545 240.104189 
L 138.119182 235.172549 
L 138.930818 243.173318 
L 139.742455 236.031833 
L 140.554091 239.763568 
L 141.365727 239.675816 
L 142.177364 237.942506 
L 142.989 237.334078 
L 143.800636 236.294237 
L 144.612273 233.472923 
L 145.423909 232.381157 
L 146.235545 228.112298 
L 147.047182 233.519665 
L 147.858818 231.617347 
L 148.670455 232.273588 
L 149.482091 228.97005 
L 150.293727 220.534893 
L 151.105364 224.886014 
L 151.917 221.920889 
L 152.728636 224.158688 
L 153.540273 215.665459 
L 154.351909 218.412122 
L 155.163545 218.100832 
L 155.975182 207.759813 
L 156.786818 213.869725 
L 157.598455 210.315157 
L 158.410091 211.21777 
L 159.221727 201.298541 
L 160.033364 188.929546 
L 160.845 192.653648 
L 161.656636 193.458228 
L 162.468273 200.603498 
L 163.279909 184.629978 
L 164.091545 181.080025 
L 164.903182 184.026318 
L 165.714818 174.835137 
L 166.526455 171.428165 
L 167.338091 160.452078 
L 168.149727 164.400438 
L 168.961364 161.871976 
L 169.773 148.772614 
L 170.584636 148.106814 
L 171.396273 141.526796 
L 172.207909 133.060099 
L 173.019545 128.719126 
L 173.831182 123.769201 
L 174.642818 125.342381 
L 175.454455 111.63107 
L 177.077727 101.516519 
L 177.889364 103.944368 
L 178.701 92.794219 
L 179.512636 94.683502 
L 180.324273 84.293904 
L 181.135909 82.437255 
L 181.947545 75.359528 
L 182.759182 63.131239 
L 183.570818 64.846875 
L 184.382455 62.601487 
L 185.194091 50.278052 
L 186.005727 42.220764 
L 186.817364 46.608916 
L 187.629 39.018825 
L 188.440636 44.460488 
L 189.252273 37.836725 
L 190.063909 40.299548 
L 190.875545 40.180518 
L 191.687182 36.737281 
L 193.310455 25.628034 
L 194.122091 31.184549 
L 194.933727 30.706766 
L 195.745364 33.521256 
L 196.557 39.810982 
L 197.368636 36.037951 
L 198.180273 43.288274 
L 198.991909 43.126068 
L 199.803545 49.412141 
L 200.615182 54.299205 
L 201.426818 54.693107 
L 202.238455 64.592935 
L 203.050091 61.097183 
L 203.861727 65.867578 
L 204.673364 74.881176 
L 206.296636 83.947662 
L 207.108273 85.188708 
L 207.919909 94.860385 
L 208.731545 106.092512 
L 209.543182 105.060589 
L 210.354818 105.712083 
L 211.166455 115.914387 
L 211.978091 121.339777 
L 212.789727 128.06621 
L 213.601364 127.671126 
L 214.413 132.77499 
L 215.224636 142.100884 
L 216.036273 147.023512 
L 216.847909 146.419044 
L 217.659545 163.014268 
L 218.471182 160.11406 
L 219.282818 171.842474 
L 220.906091 170.807642 
L 222.529364 186.91524 
L 223.341 193.229376 
L 224.152636 196.939327 
L 224.964273 201.394736 
L 225.775909 201.08115 
L 226.587545 204.6285 
L 227.399182 205.352196 
L 228.210818 203.692837 
L 229.022455 210.388933 
L 229.834091 211.154296 
L 230.645727 212.515795 
L 231.457364 216.014566 
L 232.269 221.839435 
L 233.080636 221.021032 
L 233.892273 215.367183 
L 234.703909 229.409863 
L 235.515545 224.810795 
L 236.327182 231.352514 
L 237.138818 231.49252 
L 237.950455 234.814124 
L 238.762091 232.486276 
L 239.573727 232.331703 
L 240.385364 227.217253 
L 241.197 231.702103 
L 242.008636 234.691747 
L 242.820273 235.888721 
L 243.631909 241.895373 
L 244.443545 242.370859 
L 245.255182 230.894263 
L 246.066818 241.801846 
L 246.878455 242.30148 
L 247.690091 237.455515 
L 248.501727 246.094218 
L 249.313364 243.179814 
L 250.125 252.192013 
L 250.936636 239.865866 
L 251.748273 239.159471 
L 252.559909 249.106501 
L 253.371545 243.052057 
L 254.183182 243.405298 
L 254.994818 238.4954 
L 255.806455 244.209288 
L 256.618091 242.98154 
L 257.429727 244.459772 
L 258.241364 247.481285 
L 259.053 246.898995 
L 259.864636 245.417285 
L 260.676273 250.445864 
L 261.487909 242.383064 
L 262.299545 244.71813 
L 263.111182 243.250638 
L 263.922818 248.632217 
L 264.734455 248.34818 
L 265.546091 249.783761 
L 266.357727 249.443775 
L 267.169364 241.209823 
L 267.981 248.285625 
L 268.792636 249.258493 
L 269.604273 247.507926 
L 270.415909 252.819273 
L 271.227545 243.502368 
L 272.039182 243.425246 
L 272.850818 247.209957 
L 273.662455 249.933435 
L 274.474091 241.077385 
L 275.285727 250.85757 
L 276.097364 246.956564 
L 276.909 248.560475 
L 277.720636 250.987187 
L 278.532273 250.643176 
L 279.343909 253.547999 
L 280.155545 244.167555 
L 280.967182 248.223966 
L 281.778818 246.739151 
L 282.590455 246.616883 
L 283.402091 246.915443 
L 284.213727 249.353726 
L 285.025364 253.02284 
L 285.837 251.048933 
L 286.648636 247.774399 
L 287.460273 253.608258 
L 288.271909 250.120379 
L 289.083545 250.18615 
L 289.895182 254.471872 
L 290.706818 255.898179 
L 291.518455 255.341283 
L 292.330091 250.824127 
L 293.141727 251.215099 
L 293.953364 244.82979 
L 294.765 251.902705 
L 295.576636 248.373006 
L 296.388273 250.046166 
L 297.199909 256.196608 
L 298.011545 252.571654 
L 298.823182 243.429883 
L 299.634818 247.590801 
L 300.446455 247.426035 
L 302.069727 255.020216 
L 302.881364 244.5692 
L 303.693 251.422013 
L 304.504636 249.816832 
L 305.316273 255.083647 
L 306.127909 250.64042 
L 306.939545 252.285605 
L 307.751182 254.889856 
L 308.562818 247.212188 
L 309.374455 254.206449 
L 310.997727 238.80074 
L 311.809364 250.105965 
L 312.621 249.709526 
L 313.432636 248.719226 
L 314.244273 246.862862 
L 316.679182 258.629684 
L 317.490818 252.856631 
L 318.302455 253.930724 
L 319.114091 252.26043 
L 319.925727 248.525282 
L 320.737364 251.170019 
L 321.549 246.560737 
L 322.360636 259.125009 
L 323.172273 250.037176 
L 323.983909 256.070491 
L 325.607182 245.680324 
L 326.418818 256.246411 
L 327.230455 256.848496 
L 328.042091 255.447736 
L 328.853727 250.304655 
L 329.665364 252.81772 
L 330.477 247.2705 
L 331.288636 250.610149 
L 332.100273 249.723284 
L 332.911909 251.872696 
L 333.723545 252.378213 
L 334.535182 248.327642 
L 335.346818 248.985742 
L 336.158455 247.690299 
L 336.970091 255.123236 
L 337.781727 247.549068 
L 338.593364 255.067002 
L 339.405 254.114125 
L 340.216636 249.343664 
L 341.028273 253.051931 
L 341.839909 251.187802 
L 342.651545 255.989387 
L 343.463182 258.959238 
L 344.274818 255.630963 
L 345.086455 253.973441 
L 345.898091 257.274966 
L 346.709727 247.104116 
L 348.333 255.4076 
L 349.144636 254.881588 
L 349.956273 253.084739 
L 350.767909 249.010568 
L 351.579545 249.303463 
L 352.391182 254.609254 
L 353.202818 250.849959 
L 354.014455 250.172786 
L 354.826091 252.566623 
L 355.637727 250.209619 
L 356.449364 249.983479 
L 357.261 250.883621 
L 358.072636 252.529002 
L 358.884273 252.451858 
L 359.695909 252.727649 
L 360.507545 250.55083 
L 362.130818 257.431333 
L 362.942455 261.132666 
L 363.754091 245.287253 
L 364.565727 255.805855 
L 365.377364 261.216 
L 366.189 250.768265 
L 367.000636 254.558531 
L 367.812273 256.248927 
L 367.812273 256.248927 
" clip-path="url(#p9cbd185d8b)" style="fill: none; stroke: #1f77b4; stroke-width: 1.5; stroke-linecap: square"/>
   </g>
   <g id="line2d_17">
    <path d="M 43.157727 250.637833 
L 57.767182 249.832462 
L 69.941727 248.937918 
L 79.681364 248.012998 
L 88.609364 246.937821 
L 95.914091 245.839799 
L 102.407182 244.645314 
L 108.088636 243.382049 
L 112.958455 242.093728 
L 117.828273 240.567189 
L 121.886455 239.06969 
L 125.944636 237.319171 
L 129.191182 235.697858 
L 132.437727 233.839993 
L 135.684273 231.699132 
L 138.119182 229.873503 
L 140.554091 227.82685 
L 142.989 225.523973 
L 145.423909 222.922885 
L 147.858818 219.973358 
L 150.293727 216.615142 
L 152.728636 212.775858 
L 155.163545 208.368513 
L 157.598455 203.288709 
L 159.221727 199.467909 
L 160.845 195.250724 
L 162.468273 190.58978 
L 164.091545 185.4328 
L 165.714818 179.722819 
L 167.338091 173.398896 
L 168.961364 166.397585 
L 170.584636 158.655551 
L 172.207909 150.113834 
L 173.831182 140.724413 
L 176.266091 124.999548 
L 178.701 107.382297 
L 181.947545 81.681747 
L 185.194091 55.682323 
L 186.817364 43.831452 
L 188.440636 33.627263 
L 189.252273 29.361841 
L 190.063909 25.764297 
L 190.875545 22.906926 
L 191.687182 20.849669 
L 192.498818 19.637086 
L 193.310455 19.296 
L 194.122091 19.834031 
L 194.933727 21.239174 
L 195.745364 23.480464 
L 196.557 26.509655 
L 197.368636 30.263752 
L 198.991909 39.640108 
L 200.615182 50.936001 
L 203.050091 69.969057 
L 207.919909 108.759618 
L 210.354818 126.243728 
L 212.789727 141.821348 
L 215.224636 155.44107 
L 216.847909 163.486639 
L 218.471182 170.7678 
L 220.094455 177.346808 
L 221.717727 183.287454 
L 223.341 188.651878 
L 224.964273 193.498707 
L 227.399182 199.915567 
L 229.834091 205.45071 
L 232.269 210.242209 
L 234.703909 214.406148 
L 237.138818 218.039469 
L 239.573727 221.22288 
L 242.008636 224.023529 
L 244.443545 226.497342 
L 246.878455 228.690987 
L 249.313364 230.64352 
L 252.559909 232.927746 
L 255.806455 234.904889 
L 259.053 236.626092 
L 263.111182 238.479738 
L 267.169364 240.06128 
L 271.227545 241.420469 
L 276.097364 242.812446 
L 281.778818 244.171768 
L 287.460273 245.305238 
L 293.953364 246.383618 
L 301.258091 247.381112 
L 310.186091 248.364168 
L 320.737364 249.27786 
L 332.911909 250.091798 
L 347.521364 250.830689 
L 365.377364 251.494961 
L 367.812273 251.570349 
L 367.812273 251.570349 
" clip-path="url(#p9cbd185d8b)" style="fill: none; stroke: #ff7f0e; stroke-width: 1.5; stroke-linecap: square"/>
   </g>
   <g id="patch_3">
    <path d="M 26.925 273.312 
L 26.925 7.2 
" style="fill: none; stroke: #000000; stroke-width: 0.8; stroke-linejoin: miter; stroke-linecap: square"/>
   </g>
   <g id="patch_4">
    <path d="M 384.045 273.312 
L 384.045 7.2 
" style="fill: none; stroke: #000000; stroke-width: 0.8; stroke-linejoin: miter; stroke-linecap: square"/>
   </g>
   <g id="patch_5">
    <path d="M 26.925 273.312 
L 384.045 273.312 
" style="fill: none; stroke: #000000; stroke-width: 0.8; stroke-linejoin: miter; stroke-linecap: square"/>
   </g>
   <g id="patch_6">
    <path d="M 26.925 7.2 
L 384.045 7.2 
" style="fill: none; stroke: #000000; stroke-width: 0.8; stroke-linejoin: miter; stroke-linecap: square"/>
   </g>
   <g id="legend_1">
    <g id="patch_7">
     <path d="M 259.535625 29.878125 
L 377.045 29.878125 
Q 379.045 29.878125 379.045 27.878125 
L 379.045 14.2 
Q 379.045 12.2 377.045 12.2 
L 259.535625 12.2 
Q 257.535625 12.2 257.535625 14.2 
L 257.535625 27.878125 
Q 257.535625 29.878125 259.535625 29.878125 
z
" style="fill: #ffffff; opacity: 0.8; stroke: #cccccc; stroke-linejoin: miter"/>
    </g>
    <g id="line2d_18">
     <path d="M 261.535625 20.298437 
L 271.535625 20.298437 
L 281.535625 20.298437 
" style="fill: none; stroke: #ff7f0e; stroke-width: 1.5; stroke-linecap: square"/>
    </g>
    <g id="text_16">
     <!-- Lorentzian Model -->
     <g transform="translate(289.535625 23.798437) scale(0.1 -0.1)">
      <defs>
       <path id="DejaVuSans-4c" d="M 628 4666 
L 1259 4666 
L 1259 531 
L 3531 531 
L 3531 0 
L 628 0 
L 628 4666 
z
" transform="scale(0.015625)"/>
       <path id="DejaVuSans-6f" d="M 1959 3097 
Q 1497 3097 1228 2736 
Q 959 2375 959 1747 
Q 959 1119 1226 758 
Q 1494 397 1959 397 
Q 2419 397 2687 759 
Q 2956 1122 2956 1747 
Q 2956 2369 2687 2733 
Q 2419 3097 1959 3097 
z
M 1959 3584 
Q 2709 3584 3137 3096 
Q 3566 2609 3566 1747 
Q 3566 888 3137 398 
Q 2709 -91 1959 -91 
Q 1206 -91 779 398 
Q 353 888 353 1747 
Q 353 2609 779 3096 
Q 1206 3584 1959 3584 
z
" transform="scale(0.015625)"/>
       <path id="DejaVuSans-72" d="M 2631 2963 
Q 2534 3019 2420 3045 
Q 2306 3072 2169 3072 
Q 1681 3072 1420 2755 
Q 1159 2438 1159 1844 
L 1159 0 
L 581 0 
L 581 3500 
L 1159 3500 
L 1159 2956 
Q 1341 3275 1631 3429 
Q 1922 3584 2338 3584 
Q 2397 3584 2469 3576 
Q 2541 3569 2628 3553 
L 2631 2963 
z
" transform="scale(0.015625)"/>
       <path id="DejaVuSans-65" d="M 3597 1894 
L 3597 1613 
L 953 1613 
Q 991 1019 1311 708 
Q 1631 397 2203 397 
Q 2534 397 2845 478 
Q 3156 559 3463 722 
L 3463 178 
Q 3153 47 2828 -22 
Q 2503 -91 2169 -91 
Q 1331 -91 842 396 
Q 353 884 353 1716 
Q 353 2575 817 3079 
Q 1281 3584 2069 3584 
Q 2775 3584 3186 3129 
Q 3597 2675 3597 1894 
z
M 3022 2063 
Q 3016 2534 2758 2815 
Q 2500 3097 2075 3097 
Q 1594 3097 1305 2825 
Q 1016 2553 972 2059 
L 3022 2063 
z
" transform="scale(0.015625)"/>
       <path id="DejaVuSans-6e" d="M 3513 2113 
L 3513 0 
L 2938 0 
L 2938 2094 
Q 2938 2591 2744 2837 
Q 2550 3084 2163 3084 
Q 1697 3084 1428 2787 
Q 1159 2491 1159 1978 
L 1159 0 
L 581 0 
L 581 3500 
L 1159 3500 
L 1159 2956 
Q 1366 3272 1645 3428 
Q 1925 3584 2291 3584 
Q 2894 3584 3203 3211 
Q 3513 2838 3513 2113 
z
" transform="scale(0.015625)"/>
       <path id="DejaVuSans-74" d="M 1172 4494 
L 1172 3500 
L 2356 3500 
L 2356 3053 
L 1172 3053 
L 1172 1153 
Q 1172 725 1289 603 
Q 1406 481 1766 481 
L 2356 481 
L 2356 0 
L 1766 0 
Q 1100 0 847 248 
Q 594 497 594 1153 
L 594 3053 
L 172 3053 
L 172 3500 
L 594 3500 
L 594 4494 
L 1172 4494 
z
" transform="scale(0.015625)"/>
       <path id="DejaVuSans-7a" d="M 353 3500 
L 3084 3500 
L 3084 2975 
L 922 459 
L 3084 459 
L 3084 0 
L 275 0 
L 275 525 
L 2438 3041 
L 353 3041 
L 353 3500 
z
" transform="scale(0.015625)"/>
       <path id="DejaVuSans-69" d="M 603 3500 
L 1178 3500 
L 1178 0 
L 603 0 
L 603 3500 
z
M 603 4863 
L 1178 4863 
L 1178 4134 
L 603 4134 
L 603 4863 
z
" transform="scale(0.015625)"/>
       <path id="DejaVuSans-61" d="M 2194 1759 
Q 1497 1759 1228 1600 
Q 959 1441 959 1056 
Q 959 750 1161 570 
Q 1363 391 1709 391 
Q 2188 391 2477 730 
Q 2766 1069 2766 1631 
L 2766 1759 
L 2194 1759 
z
M 3341 1997 
L 3341 0 
L 2766 0 
L 2766 531 
Q 2569 213 2275 61 
Q 1981 -91 1556 -91 
Q 1019 -91 701 211 
Q 384 513 384 1019 
Q 384 1609 779 1909 
Q 1175 2209 1959 2209 
L 2766 2209 
L 2766 2266 
Q 2766 2663 2505 2880 
Q 2244 3097 1772 3097 
Q 1472 3097 1187 3025 
Q 903 2953 641 2809 
L 641 3341 
Q 956 3463 1253 3523 
Q 1550 3584 1831 3584 
Q 2591 3584 2966 3190 
Q 3341 2797 3341 1997 
z
" transform="scale(0.015625)"/>
       <path id="DejaVuSans-20" transform="scale(0.015625)"/>
       <path id="DejaVuSans-4d" d="M 628 4666 
L 1569 4666 
L 2759 1491 
L 3956 4666 
L 4897 4666 
L 4897 0 
L 4281 0 
L 4281 4097 
L 3078 897 
L 2444 897 
L 1241 4097 
L 1241 0 
L 628 0 
L 628 4666 
z
" transform="scale(0.015625)"/>
       <path id="DejaVuSans-64" d="M 2906 2969 
L 2906 4863 
L 3481 4863 
L 3481 0 
L 2906 0 
L 2906 525 
Q 2725 213 2448 61 
Q 2172 -91 1784 -91 
Q 1150 -91 751 415 
Q 353 922 353 1747 
Q 353 2572 751 3078 
Q 1150 3584 1784 3584 
Q 2172 3584 2448 3432 
Q 2725 3281 2906 2969 
z
M 947 1747 
Q 947 1113 1208 752 
Q 1469 391 1925 391 
Q 2381 391 2643 752 
Q 2906 1113 2906 1747 
Q 2906 2381 2643 2742 
Q 2381 3103 1925 3103 
Q 1469 3103 1208 2742 
Q 947 2381 947 1747 
z
" transform="scale(0.015625)"/>
       <path id="DejaVuSans-6c" d="M 603 4863 
L 1178 4863 
L 1178 0 
L 603 0 
L 603 4863 
z
" transform="scale(0.015625)"/>
      </defs>
      <use xlink:href="#DejaVuSans-4c"/>
      <use xlink:href="#DejaVuSans-6f" x="53.962891"/>
      <use xlink:href="#DejaVuSans-72" x="115.144531"/>
      <use xlink:href="#DejaVuSans-65" x="154.007812"/>
      <use xlink:href="#DejaVuSans-6e" x="215.53125"/>
      <use xlink:href="#DejaVuSans-74" x="278.910156"/>
      <use xlink:href="#DejaVuSans-7a" x="318.119141"/>
      <use xlink:href="#DejaVuSans-69" x="370.609375"/>
      <use xlink:href="#DejaVuSans-61" x="398.392578"/>
      <use xlink:href="#DejaVuSans-6e" x="459.671875"/>
      <use xlink:href="#DejaVuSans-20" x="523.050781"/>
      <use xlink:href="#DejaVuSans-4d" x="554.837891"/>
      <use xlink:href="#DejaVuSans-6f" x="641.117188"/>
      <use xlink:href="#DejaVuSans-64" x="702.298828"/>
      <use xlink:href="#DejaVuSans-65" x="765.775391"/>
      <use xlink:href="#DejaVuSans-6c" x="827.298828"/>
     </g>
    </g>
   </g>
  </g>
 </g>
 <defs>
  <clipPath id="p9cbd185d8b">
   <rect x="26.925" y="7.2" width="357.12" height="266.112"/>
  </clipPath>
 </defs>
</svg>
