<?xml version="1.0" encoding="utf-8" standalone="no"?>
<!DOCTYPE svg PUBLIC "-//W3C//DTD SVG 1.1//EN"
  "http://www.w3.org/Graphics/SVG/1.1/DTD/svg11.dtd">
<!-- Created with matplotlib (https://matplotlib.org/) -->
<svg height="248.518125pt" version="1.1" viewBox="0 0 368.925 248.518125" width="368.925pt" xmlns="http://www.w3.org/2000/svg" xmlns:xlink="http://www.w3.org/1999/xlink">
 <metadata>
  <rdf:RDF xmlns:cc="http://creativecommons.org/ns#" xmlns:dc="http://purl.org/dc/elements/1.1/" xmlns:rdf="http://www.w3.org/1999/02/22-rdf-syntax-ns#">
   <cc:Work>
    <dc:type rdf:resource="http://purl.org/dc/dcmitype/StillImage"/>
    <dc:date>2021-02-07T16:21:48.193427</dc:date>
    <dc:format>image/svg+xml</dc:format>
    <dc:creator>
     <cc:Agent>
      <dc:title>Matplotlib v3.3.2, https://matplotlib.org/</dc:title>
     </cc:Agent>
    </dc:creator>
   </cc:Work>
  </rdf:RDF>
 </metadata>
 <defs>
  <style type="text/css">*{stroke-linecap:butt;stroke-linejoin:round;}</style>
 </defs>
 <g id="figure_1">
  <g id="patch_1">
   <path d="M -0 248.518125 
L 368.925 248.518125 
L 368.925 0 
L -0 0 
z
" style="fill:none;"/>
  </g>
  <g id="axes_1">
   <g id="patch_2">
    <path d="M 26.925 224.64 
L 361.725 224.64 
L 361.725 7.2 
L 26.925 7.2 
z
" style="fill:#ffffff;"/>
   </g>
   <g id="matplotlib.axis_1">
    <g id="xtick_1">
     <g id="line2d_1">
      <defs>
       <path d="M 0 0 
L 0 3.5 
" id="m2fda6906cf" style="stroke:#000000;stroke-width:0.8;"/>
      </defs>
      <g>
       <use style="stroke:#000000;stroke-width:0.8;" x="42.143182" xlink:href="#m2fda6906cf" y="224.64"/>
      </g>
     </g>
     <g id="text_1">
      <!-- 0.0 -->
      <g transform="translate(34.191619 239.238437)scale(0.1 -0.1)">
       <defs>
        <path d="M 31.78125 66.40625 
Q 24.171875 66.40625 20.328125 58.90625 
Q 16.5 51.421875 16.5 36.375 
Q 16.5 21.390625 20.328125 13.890625 
Q 24.171875 6.390625 31.78125 6.390625 
Q 39.453125 6.390625 43.28125 13.890625 
Q 47.125 21.390625 47.125 36.375 
Q 47.125 51.421875 43.28125 58.90625 
Q 39.453125 66.40625 31.78125 66.40625 
z
M 31.78125 74.21875 
Q 44.046875 74.21875 50.515625 64.515625 
Q 56.984375 54.828125 56.984375 36.375 
Q 56.984375 17.96875 50.515625 8.265625 
Q 44.046875 -1.421875 31.78125 -1.421875 
Q 19.53125 -1.421875 13.0625 8.265625 
Q 6.59375 17.96875 6.59375 36.375 
Q 6.59375 54.828125 13.0625 64.515625 
Q 19.53125 74.21875 31.78125 74.21875 
z
" id="DejaVuSans-48"/>
        <path d="M 10.6875 12.40625 
L 21 12.40625 
L 21 0 
L 10.6875 0 
z
" id="DejaVuSans-46"/>
       </defs>
       <use xlink:href="#DejaVuSans-48"/>
       <use x="63.623047" xlink:href="#DejaVuSans-46"/>
       <use x="95.410156" xlink:href="#DejaVuSans-48"/>
      </g>
     </g>
    </g>
    <g id="xtick_2">
     <g id="line2d_2">
      <g>
       <use style="stroke:#000000;stroke-width:0.8;" x="80.188636" xlink:href="#m2fda6906cf" y="224.64"/>
      </g>
     </g>
     <g id="text_2">
      <!-- 2.5 -->
      <g transform="translate(72.237074 239.238437)scale(0.1 -0.1)">
       <defs>
        <path d="M 19.1875 8.296875 
L 53.609375 8.296875 
L 53.609375 0 
L 7.328125 0 
L 7.328125 8.296875 
Q 12.9375 14.109375 22.625 23.890625 
Q 32.328125 33.6875 34.8125 36.53125 
Q 39.546875 41.84375 41.421875 45.53125 
Q 43.3125 49.21875 43.3125 52.78125 
Q 43.3125 58.59375 39.234375 62.25 
Q 35.15625 65.921875 28.609375 65.921875 
Q 23.96875 65.921875 18.8125 64.3125 
Q 13.671875 62.703125 7.8125 59.421875 
L 7.8125 69.390625 
Q 13.765625 71.78125 18.9375 73 
Q 24.125 74.21875 28.421875 74.21875 
Q 39.75 74.21875 46.484375 68.546875 
Q 53.21875 62.890625 53.21875 53.421875 
Q 53.21875 48.921875 51.53125 44.890625 
Q 49.859375 40.875 45.40625 35.40625 
Q 44.1875 33.984375 37.640625 27.21875 
Q 31.109375 20.453125 19.1875 8.296875 
z
" id="DejaVuSans-50"/>
        <path d="M 10.796875 72.90625 
L 49.515625 72.90625 
L 49.515625 64.59375 
L 19.828125 64.59375 
L 19.828125 46.734375 
Q 21.96875 47.46875 24.109375 47.828125 
Q 26.265625 48.1875 28.421875 48.1875 
Q 40.625 48.1875 47.75 41.5 
Q 54.890625 34.8125 54.890625 23.390625 
Q 54.890625 11.625 47.5625 5.09375 
Q 40.234375 -1.421875 26.90625 -1.421875 
Q 22.3125 -1.421875 17.546875 -0.640625 
Q 12.796875 0.140625 7.71875 1.703125 
L 7.71875 11.625 
Q 12.109375 9.234375 16.796875 8.0625 
Q 21.484375 6.890625 26.703125 6.890625 
Q 35.15625 6.890625 40.078125 11.328125 
Q 45.015625 15.765625 45.015625 23.390625 
Q 45.015625 31 40.078125 35.4375 
Q 35.15625 39.890625 26.703125 39.890625 
Q 22.75 39.890625 18.8125 39.015625 
Q 14.890625 38.140625 10.796875 36.28125 
z
" id="DejaVuSans-53"/>
       </defs>
       <use xlink:href="#DejaVuSans-50"/>
       <use x="63.623047" xlink:href="#DejaVuSans-46"/>
       <use x="95.410156" xlink:href="#DejaVuSans-53"/>
      </g>
     </g>
    </g>
    <g id="xtick_3">
     <g id="line2d_3">
      <g>
       <use style="stroke:#000000;stroke-width:0.8;" x="118.234091" xlink:href="#m2fda6906cf" y="224.64"/>
      </g>
     </g>
     <g id="text_3">
      <!-- 5.0 -->
      <g transform="translate(110.282528 239.238437)scale(0.1 -0.1)">
       <use xlink:href="#DejaVuSans-53"/>
       <use x="63.623047" xlink:href="#DejaVuSans-46"/>
       <use x="95.410156" xlink:href="#DejaVuSans-48"/>
      </g>
     </g>
    </g>
    <g id="xtick_4">
     <g id="line2d_4">
      <g>
       <use style="stroke:#000000;stroke-width:0.8;" x="156.279545" xlink:href="#m2fda6906cf" y="224.64"/>
      </g>
     </g>
     <g id="text_4">
      <!-- 7.5 -->
      <g transform="translate(148.327983 239.238437)scale(0.1 -0.1)">
       <defs>
        <path d="M 8.203125 72.90625 
L 55.078125 72.90625 
L 55.078125 68.703125 
L 28.609375 0 
L 18.3125 0 
L 43.21875 64.59375 
L 8.203125 64.59375 
z
" id="DejaVuSans-55"/>
       </defs>
       <use xlink:href="#DejaVuSans-55"/>
       <use x="63.623047" xlink:href="#DejaVuSans-46"/>
       <use x="95.410156" xlink:href="#DejaVuSans-53"/>
      </g>
     </g>
    </g>
    <g id="xtick_5">
     <g id="line2d_5">
      <g>
       <use style="stroke:#000000;stroke-width:0.8;" x="194.325" xlink:href="#m2fda6906cf" y="224.64"/>
      </g>
     </g>
     <g id="text_5">
      <!-- 10.0 -->
      <g transform="translate(183.192188 239.238437)scale(0.1 -0.1)">
       <defs>
        <path d="M 12.40625 8.296875 
L 28.515625 8.296875 
L 28.515625 63.921875 
L 10.984375 60.40625 
L 10.984375 69.390625 
L 28.421875 72.90625 
L 38.28125 72.90625 
L 38.28125 8.296875 
L 54.390625 8.296875 
L 54.390625 0 
L 12.40625 0 
z
" id="DejaVuSans-49"/>
       </defs>
       <use xlink:href="#DejaVuSans-49"/>
       <use x="63.623047" xlink:href="#DejaVuSans-48"/>
       <use x="127.246094" xlink:href="#DejaVuSans-46"/>
       <use x="159.033203" xlink:href="#DejaVuSans-48"/>
      </g>
     </g>
    </g>
    <g id="xtick_6">
     <g id="line2d_6">
      <g>
       <use style="stroke:#000000;stroke-width:0.8;" x="232.370455" xlink:href="#m2fda6906cf" y="224.64"/>
      </g>
     </g>
     <g id="text_6">
      <!-- 12.5 -->
      <g transform="translate(221.237642 239.238437)scale(0.1 -0.1)">
       <use xlink:href="#DejaVuSans-49"/>
       <use x="63.623047" xlink:href="#DejaVuSans-50"/>
       <use x="127.246094" xlink:href="#DejaVuSans-46"/>
       <use x="159.033203" xlink:href="#DejaVuSans-53"/>
      </g>
     </g>
    </g>
    <g id="xtick_7">
     <g id="line2d_7">
      <g>
       <use style="stroke:#000000;stroke-width:0.8;" x="270.415909" xlink:href="#m2fda6906cf" y="224.64"/>
      </g>
     </g>
     <g id="text_7">
      <!-- 15.0 -->
      <g transform="translate(259.283097 239.238437)scale(0.1 -0.1)">
       <use xlink:href="#DejaVuSans-49"/>
       <use x="63.623047" xlink:href="#DejaVuSans-53"/>
       <use x="127.246094" xlink:href="#DejaVuSans-46"/>
       <use x="159.033203" xlink:href="#DejaVuSans-48"/>
      </g>
     </g>
    </g>
    <g id="xtick_8">
     <g id="line2d_8">
      <g>
       <use style="stroke:#000000;stroke-width:0.8;" x="308.461364" xlink:href="#m2fda6906cf" y="224.64"/>
      </g>
     </g>
     <g id="text_8">
      <!-- 17.5 -->
      <g transform="translate(297.328551 239.238437)scale(0.1 -0.1)">
       <use xlink:href="#DejaVuSans-49"/>
       <use x="63.623047" xlink:href="#DejaVuSans-55"/>
       <use x="127.246094" xlink:href="#DejaVuSans-46"/>
       <use x="159.033203" xlink:href="#DejaVuSans-53"/>
      </g>
     </g>
    </g>
    <g id="xtick_9">
     <g id="line2d_9">
      <g>
       <use style="stroke:#000000;stroke-width:0.8;" x="346.506818" xlink:href="#m2fda6906cf" y="224.64"/>
      </g>
     </g>
     <g id="text_9">
      <!-- 20.0 -->
      <g transform="translate(335.374006 239.238437)scale(0.1 -0.1)">
       <use xlink:href="#DejaVuSans-50"/>
       <use x="63.623047" xlink:href="#DejaVuSans-48"/>
       <use x="127.246094" xlink:href="#DejaVuSans-46"/>
       <use x="159.033203" xlink:href="#DejaVuSans-48"/>
      </g>
     </g>
    </g>
   </g>
   <g id="matplotlib.axis_2">
    <g id="ytick_1">
     <g id="line2d_10">
      <defs>
       <path d="M 0 0 
L -3.5 0 
" id="m2fd0501ec3" style="stroke:#000000;stroke-width:0.8;"/>
      </defs>
      <g>
       <use style="stroke:#000000;stroke-width:0.8;" x="26.925" xlink:href="#m2fd0501ec3" y="208.90992"/>
      </g>
     </g>
     <g id="text_10">
      <!-- 0 -->
      <g transform="translate(13.5625 212.709138)scale(0.1 -0.1)">
       <use xlink:href="#DejaVuSans-48"/>
      </g>
     </g>
    </g>
    <g id="ytick_2">
     <g id="line2d_11">
      <g>
       <use style="stroke:#000000;stroke-width:0.8;" x="26.925" xlink:href="#m2fd0501ec3" y="172.20516"/>
      </g>
     </g>
     <g id="text_11">
      <!-- 2 -->
      <g transform="translate(13.5625 176.004379)scale(0.1 -0.1)">
       <use xlink:href="#DejaVuSans-50"/>
      </g>
     </g>
    </g>
    <g id="ytick_3">
     <g id="line2d_12">
      <g>
       <use style="stroke:#000000;stroke-width:0.8;" x="26.925" xlink:href="#m2fd0501ec3" y="135.500401"/>
      </g>
     </g>
     <g id="text_12">
      <!-- 4 -->
      <g transform="translate(13.5625 139.29962)scale(0.1 -0.1)">
       <defs>
        <path d="M 37.796875 64.3125 
L 12.890625 25.390625 
L 37.796875 25.390625 
z
M 35.203125 72.90625 
L 47.609375 72.90625 
L 47.609375 25.390625 
L 58.015625 25.390625 
L 58.015625 17.1875 
L 47.609375 17.1875 
L 47.609375 0 
L 37.796875 0 
L 37.796875 17.1875 
L 4.890625 17.1875 
L 4.890625 26.703125 
z
" id="DejaVuSans-52"/>
       </defs>
       <use xlink:href="#DejaVuSans-52"/>
      </g>
     </g>
    </g>
    <g id="ytick_4">
     <g id="line2d_13">
      <g>
       <use style="stroke:#000000;stroke-width:0.8;" x="26.925" xlink:href="#m2fd0501ec3" y="98.795642"/>
      </g>
     </g>
     <g id="text_13">
      <!-- 6 -->
      <g transform="translate(13.5625 102.594861)scale(0.1 -0.1)">
       <defs>
        <path d="M 33.015625 40.375 
Q 26.375 40.375 22.484375 35.828125 
Q 18.609375 31.296875 18.609375 23.390625 
Q 18.609375 15.53125 22.484375 10.953125 
Q 26.375 6.390625 33.015625 6.390625 
Q 39.65625 6.390625 43.53125 10.953125 
Q 47.40625 15.53125 47.40625 23.390625 
Q 47.40625 31.296875 43.53125 35.828125 
Q 39.65625 40.375 33.015625 40.375 
z
M 52.59375 71.296875 
L 52.59375 62.3125 
Q 48.875 64.0625 45.09375 64.984375 
Q 41.3125 65.921875 37.59375 65.921875 
Q 27.828125 65.921875 22.671875 59.328125 
Q 17.53125 52.734375 16.796875 39.40625 
Q 19.671875 43.65625 24.015625 45.921875 
Q 28.375 48.1875 33.59375 48.1875 
Q 44.578125 48.1875 50.953125 41.515625 
Q 57.328125 34.859375 57.328125 23.390625 
Q 57.328125 12.15625 50.6875 5.359375 
Q 44.046875 -1.421875 33.015625 -1.421875 
Q 20.359375 -1.421875 13.671875 8.265625 
Q 6.984375 17.96875 6.984375 36.375 
Q 6.984375 53.65625 15.1875 63.9375 
Q 23.390625 74.21875 37.203125 74.21875 
Q 40.921875 74.21875 44.703125 73.484375 
Q 48.484375 72.75 52.59375 71.296875 
z
" id="DejaVuSans-54"/>
       </defs>
       <use xlink:href="#DejaVuSans-54"/>
      </g>
     </g>
    </g>
    <g id="ytick_5">
     <g id="line2d_14">
      <g>
       <use style="stroke:#000000;stroke-width:0.8;" x="26.925" xlink:href="#m2fd0501ec3" y="62.090883"/>
      </g>
     </g>
     <g id="text_14">
      <!-- 8 -->
      <g transform="translate(13.5625 65.890102)scale(0.1 -0.1)">
       <defs>
        <path d="M 31.78125 34.625 
Q 24.75 34.625 20.71875 30.859375 
Q 16.703125 27.09375 16.703125 20.515625 
Q 16.703125 13.921875 20.71875 10.15625 
Q 24.75 6.390625 31.78125 6.390625 
Q 38.8125 6.390625 42.859375 10.171875 
Q 46.921875 13.96875 46.921875 20.515625 
Q 46.921875 27.09375 42.890625 30.859375 
Q 38.875 34.625 31.78125 34.625 
z
M 21.921875 38.8125 
Q 15.578125 40.375 12.03125 44.71875 
Q 8.5 49.078125 8.5 55.328125 
Q 8.5 64.0625 14.71875 69.140625 
Q 20.953125 74.21875 31.78125 74.21875 
Q 42.671875 74.21875 48.875 69.140625 
Q 55.078125 64.0625 55.078125 55.328125 
Q 55.078125 49.078125 51.53125 44.71875 
Q 48 40.375 41.703125 38.8125 
Q 48.828125 37.15625 52.796875 32.3125 
Q 56.78125 27.484375 56.78125 20.515625 
Q 56.78125 9.90625 50.3125 4.234375 
Q 43.84375 -1.421875 31.78125 -1.421875 
Q 19.734375 -1.421875 13.25 4.234375 
Q 6.78125 9.90625 6.78125 20.515625 
Q 6.78125 27.484375 10.78125 32.3125 
Q 14.796875 37.15625 21.921875 38.8125 
z
M 18.3125 54.390625 
Q 18.3125 48.734375 21.84375 45.5625 
Q 25.390625 42.390625 31.78125 42.390625 
Q 38.140625 42.390625 41.71875 45.5625 
Q 45.3125 48.734375 45.3125 54.390625 
Q 45.3125 60.0625 41.71875 63.234375 
Q 38.140625 66.40625 31.78125 66.40625 
Q 25.390625 66.40625 21.84375 63.234375 
Q 18.3125 60.0625 18.3125 54.390625 
z
" id="DejaVuSans-56"/>
       </defs>
       <use xlink:href="#DejaVuSans-56"/>
      </g>
     </g>
    </g>
    <g id="ytick_6">
     <g id="line2d_15">
      <g>
       <use style="stroke:#000000;stroke-width:0.8;" x="26.925" xlink:href="#m2fd0501ec3" y="25.386124"/>
      </g>
     </g>
     <g id="text_15">
      <!-- 10 -->
      <g transform="translate(7.2 29.185343)scale(0.1 -0.1)">
       <use xlink:href="#DejaVuSans-49"/>
       <use x="63.623047" xlink:href="#DejaVuSans-48"/>
      </g>
     </g>
    </g>
   </g>
   <g id="line2d_16">
    <path clip-path="url(#p9a48e6bdfc)" d="M 42.143182 208.512517 
L 42.904091 208.557168 
L 43.665 211.605535 
L 45.186818 201.837518 
L 45.947727 201.087585 
L 46.708636 208.556801 
L 47.469545 207.523067 
L 48.230455 205.362331 
L 48.991364 204.549211 
L 49.752273 210.874927 
L 50.513182 205.1105 
L 51.274091 207.010797 
L 52.035 205.697647 
L 52.795909 208.504809 
L 53.556818 207.615893 
L 54.317727 201.494806 
L 55.839545 211.454495 
L 56.600455 206.161045 
L 57.361364 205.008479 
L 58.122273 206.455399 
L 58.883182 205.421774 
L 59.644091 213.57559 
L 60.405 204.262877 
L 61.165909 207.814961 
L 61.926818 205.468243 
L 62.687727 204.253113 
L 63.448636 209.594573 
L 64.209545 207.432314 
L 64.970455 208.678551 
L 65.731364 204.790269 
L 66.492273 203.928808 
L 67.253182 206.742999 
L 68.014091 210.336321 
L 68.775 205.894073 
L 69.535909 208.439842 
L 70.296818 209.549757 
L 71.057727 207.644193 
L 71.818636 210.804582 
L 72.579545 207.690973 
L 73.340455 203.920825 
L 74.101364 206.358039 
L 74.862273 205.93621 
L 75.623182 209.540269 
L 76.384091 206.417446 
L 77.145 207.664564 
L 77.905909 211.879188 
L 78.666818 206.089122 
L 79.427727 207.60591 
L 80.188636 209.80937 
L 80.949545 205.178771 
L 81.710455 205.948928 
L 82.471364 205.252676 
L 83.232273 204.277485 
L 83.993182 202.38541 
L 84.754091 210.702507 
L 85.515 204.238633 
L 86.275909 204.924021 
L 87.036818 206.076771 
L 87.797727 210.045565 
L 88.558636 206.55452 
L 89.319545 205.130412 
L 90.080455 202.492735 
L 90.841364 207.343709 
L 91.602273 206.604989 
L 92.363182 204.241423 
L 93.124091 208.791437 
L 93.885 207.374303 
L 94.645909 206.586031 
L 95.406818 206.486892 
L 96.167727 202.170357 
L 97.689545 208.98432 
L 98.450455 207.586493 
L 99.211364 201.876076 
L 99.972273 204.832608 
L 100.733182 207.100467 
L 101.494091 202.953508 
L 102.255 206.608182 
L 103.015909 204.974857 
L 103.776818 203.633629 
L 104.537727 204.678246 
L 105.298636 206.321592 
L 106.059545 202.647702 
L 106.820455 205.91861 
L 107.581364 205.70308 
L 108.342273 200.04394 
L 109.103182 197.265316 
L 109.864091 206.115439 
L 110.625 200.819915 
L 111.385909 206.610752 
L 112.146818 203.357113 
L 112.907727 197.665894 
L 113.668636 209.336172 
L 114.429545 200.078773 
L 115.190455 207.054567 
L 115.951364 198.408743 
L 116.712273 201.667612 
L 117.473182 200.448059 
L 118.234091 210.863365 
L 118.995 197.246891 
L 119.755909 200.822485 
L 120.516818 202.743905 
L 121.277727 198.496853 
L 122.038636 198.106589 
L 122.799545 207.050658 
L 123.560455 202.105408 
L 124.321364 199.148307 
L 125.082273 202.540469 
L 125.843182 201.791729 
L 126.604091 201.289222 
L 127.365 200.471495 
L 128.125909 198.64525 
L 128.886818 199.233224 
L 129.647727 196.811627 
L 130.408636 197.042262 
L 131.169545 192.904314 
L 131.930455 199.617449 
L 132.691364 193.625305 
L 133.452273 196.75646 
L 134.213182 196.68283 
L 134.974091 195.228478 
L 135.735 194.717969 
L 136.495909 193.845479 
L 137.256818 191.478224 
L 138.017727 190.562165 
L 138.778636 186.980331 
L 139.539545 191.517443 
L 140.300455 189.921281 
L 141.061364 190.471908 
L 141.822273 187.700038 
L 142.583182 180.622424 
L 143.344091 184.273281 
L 144.105 181.78536 
L 144.865909 183.66301 
L 145.626818 176.536671 
L 146.387727 178.841289 
L 147.148636 178.580098 
L 147.909545 169.90335 
L 148.670455 175.02994 
L 149.431364 172.04744 
L 150.192273 172.804788 
L 150.953182 164.481947 
L 151.714091 154.103603 
L 152.475 157.228352 
L 153.235909 157.903445 
L 153.996818 163.898763 
L 154.757727 150.496002 
L 155.518636 147.517374 
L 156.279545 149.989495 
L 157.040455 142.277531 
L 157.801364 139.418873 
L 158.562273 130.209264 
L 159.323182 133.52218 
L 160.084091 131.400645 
L 160.845 120.409478 
L 161.605909 119.850832 
L 162.366818 114.329794 
L 163.127727 107.225716 
L 164.649545 99.430084 
L 165.410455 100.750079 
L 166.171364 89.24545 
L 167.693182 80.758722 
L 168.454091 82.795836 
L 169.215 73.440178 
L 169.975909 75.025402 
L 170.736818 66.307893 
L 171.497727 64.750051 
L 172.258636 58.811405 
L 173.019545 48.551122 
L 173.780455 49.990646 
L 174.541364 48.106627 
L 175.302273 37.766511 
L 176.063182 31.005953 
L 176.824091 34.687881 
L 177.585 28.31933 
L 178.345909 32.885219 
L 179.106818 27.327476 
L 179.867727 29.393935 
L 180.628636 29.294062 
L 181.389545 26.404975 
L 182.911364 17.083636 
L 183.672273 21.745893 
L 184.433182 21.345004 
L 185.194091 23.706533 
L 185.955 28.983998 
L 186.715909 25.818194 
L 187.476818 31.90166 
L 188.237727 31.765558 
L 188.998636 37.039959 
L 189.759545 41.140504 
L 190.520455 41.471012 
L 191.281364 49.777575 
L 192.042273 46.844424 
L 192.803182 50.847078 
L 193.564091 58.410038 
L 195.085909 66.017375 
L 195.846818 67.058689 
L 196.607727 75.173818 
L 197.368636 84.59826 
L 198.129545 83.732413 
L 198.890455 84.279057 
L 199.651364 92.839414 
L 200.412273 97.391649 
L 201.173182 103.035538 
L 201.934091 102.704039 
L 202.695 106.986493 
L 203.455909 114.811489 
L 204.216818 118.941875 
L 204.977727 118.434689 
L 205.738636 132.359098 
L 206.499545 129.925646 
L 207.260455 139.766504 
L 208.782273 138.898216 
L 210.304091 152.413477 
L 211.065 157.711424 
L 211.825909 160.824299 
L 212.586818 164.562661 
L 213.347727 164.299543 
L 214.108636 167.275987 
L 214.869545 167.883212 
L 215.630455 166.490909 
L 216.391364 172.109343 
L 217.152273 172.751529 
L 217.913182 173.89391 
L 218.674091 176.829593 
L 219.435 181.717015 
L 220.195909 181.030324 
L 220.956818 176.286399 
L 221.717727 188.069067 
L 222.478636 184.210168 
L 223.239545 189.699071 
L 224.000455 189.816544 
L 224.761364 192.603573 
L 225.522273 190.650366 
L 226.283182 190.52067 
L 227.044091 186.229333 
L 227.805 189.992397 
L 228.565909 192.500892 
L 229.326818 193.505226 
L 230.087727 198.545175 
L 230.848636 198.944137 
L 231.609545 189.31457 
L 232.370455 198.4667 
L 233.131364 198.885923 
L 233.892273 194.819862 
L 234.653182 202.068263 
L 235.414091 199.6229 
L 236.175 207.184686 
L 236.935909 196.842294 
L 237.696818 196.249586 
L 238.457727 204.595752 
L 239.218636 199.515703 
L 239.979545 199.812094 
L 240.740455 195.692389 
L 241.501364 200.486691 
L 242.262273 199.456535 
L 243.023182 200.696863 
L 243.784091 203.232097 
L 244.545 202.74352 
L 245.305909 201.500275 
L 246.066818 205.71956 
L 246.827727 198.954378 
L 247.588636 200.913641 
L 248.349545 199.682325 
L 249.110455 204.197799 
L 249.871364 203.959475 
L 250.632273 205.164015 
L 251.393182 204.878746 
L 252.154091 197.969956 
L 252.915 203.906987 
L 253.675909 204.723283 
L 254.436818 203.25445 
L 255.197727 207.710995 
L 255.958636 199.893542 
L 256.719545 199.828832 
L 257.480455 203.004436 
L 258.241364 205.289601 
L 259.002273 197.858832 
L 259.763182 206.065007 
L 260.524091 202.791823 
L 261.285 204.137603 
L 262.045909 206.173763 
L 262.806818 205.885117 
L 263.567727 208.322441 
L 264.328636 200.451675 
L 265.089545 203.855252 
L 265.850455 202.609401 
L 266.611364 202.506811 
L 267.372273 202.757321 
L 268.133182 204.803189 
L 268.894091 207.881801 
L 269.655 206.225572 
L 270.415909 203.478037 
L 271.176818 208.373002 
L 271.937727 205.446458 
L 272.698636 205.501644 
L 273.459545 209.097628 
L 274.220455 210.294386 
L 274.981364 209.827116 
L 275.742273 206.036946 
L 276.503182 206.364995 
L 277.264091 201.00733 
L 278.025 206.941939 
L 278.785909 203.980305 
L 279.546818 205.384189 
L 280.307727 210.544786 
L 281.068636 207.503228 
L 281.829545 199.832722 
L 282.590455 203.323987 
L 283.351364 203.185739 
L 284.873182 209.557722 
L 285.634091 200.78868 
L 286.395 206.538609 
L 287.155909 205.191764 
L 287.916818 209.610944 
L 288.677727 205.882805 
L 289.438636 207.263216 
L 290.199545 209.448342 
L 290.960455 203.006308 
L 291.721364 208.874922 
L 293.243182 195.948588 
L 294.004091 205.434364 
L 294.765 205.101727 
L 295.525909 204.270805 
L 296.286818 202.713202 
L 298.569545 212.586287 
L 299.330455 207.742341 
L 300.091364 208.643571 
L 300.852273 207.242092 
L 301.613182 204.108074 
L 302.374091 206.327171 
L 303.135 202.4597 
L 303.895909 213.001895 
L 304.656818 205.376646 
L 305.417727 210.438966 
L 306.939545 201.72098 
L 307.700455 210.586575 
L 308.461364 211.09176 
L 309.222273 209.916437 
L 309.983182 205.601077 
L 310.744091 207.709692 
L 311.505 203.055235 
L 312.265909 205.857405 
L 313.026818 205.113271 
L 313.787727 206.916759 
L 314.548636 207.34092 
L 315.309545 203.942242 
L 316.070455 204.494429 
L 316.831364 203.407472 
L 317.592273 209.644162 
L 318.353182 203.288971 
L 319.114091 209.596978 
L 319.875 208.797456 
L 320.635909 204.794747 
L 321.396818 207.90621 
L 322.157727 206.342091 
L 322.918636 210.370916 
L 323.679545 212.862802 
L 324.440455 210.070175 
L 325.201364 208.679414 
L 325.962273 211.449595 
L 326.723182 202.915629 
L 328.245 209.882761 
L 329.005909 209.441404 
L 329.766818 207.933738 
L 330.527727 204.515259 
L 331.288636 204.761015 
L 332.049545 209.212899 
L 332.810455 206.05862 
L 333.571364 205.490431 
L 334.332273 207.499007 
L 335.093182 205.521336 
L 335.854091 205.331591 
L 336.615 206.086865 
L 337.375909 207.467441 
L 338.136818 207.402712 
L 338.897727 207.634117 
L 339.658636 205.807633 
L 341.180455 211.580796 
L 341.941364 214.686441 
L 342.702273 201.39117 
L 343.463182 210.216921 
L 344.224091 214.756364 
L 344.985 205.990074 
L 345.745909 209.17034 
L 346.506818 210.588685 
L 346.506818 210.588685 
" style="fill:none;stroke:#0000ff;stroke-linecap:square;stroke-width:1.5;"/>
   </g>
   <g id="line2d_17">
    <path clip-path="url(#p9a48e6bdfc)" d="M 42.143182 208.90992 
L 110.625 208.800665 
L 116.712273 208.548331 
L 120.516818 208.185764 
L 123.560455 207.684587 
L 125.843182 207.123178 
L 128.125909 206.342875 
L 130.408636 205.276051 
L 131.930455 204.366137 
L 133.452273 203.265681 
L 134.974091 201.944733 
L 136.495909 200.371063 
L 138.017727 198.510568 
L 139.539545 196.327842 
L 141.061364 193.786918 
L 142.583182 190.852188 
L 144.105 187.489502 
L 145.626818 183.667427 
L 147.148636 179.358653 
L 148.670455 174.541503 
L 150.953182 166.333286 
L 153.235909 156.94059 
L 155.518636 146.408927 
L 157.801364 134.848726 
L 160.845 118.159031 
L 169.975909 66.355479 
L 172.258636 55.121647 
L 173.780455 48.471155 
L 175.302273 42.631857 
L 176.824091 37.71134 
L 178.345909 33.802352 
L 179.106818 32.251384 
L 179.867727 30.979899 
L 180.628636 29.99411 
L 181.389545 29.29885 
L 182.150455 28.897543 
L 182.911364 28.792165 
L 183.672273 28.983238 
L 184.433182 29.469819 
L 185.194091 30.249508 
L 185.955 31.318474 
L 186.715909 32.671478 
L 187.476818 34.301921 
L 188.998636 38.362252 
L 190.520455 43.421736 
L 192.042273 49.385288 
L 193.564091 56.143442 
L 195.846818 67.504776 
L 198.890455 84.256793 
L 208.021364 136.003391 
L 210.304091 147.471189 
L 212.586818 157.896781 
L 214.869545 167.176318 
L 217.152273 175.270098 
L 218.674091 180.01266 
L 220.195909 184.249571 
L 221.717727 188.003421 
L 223.239545 191.302206 
L 224.761364 194.177836 
L 226.283182 196.664746 
L 227.805 198.79866 
L 229.326818 200.615516 
L 230.848636 202.150575 
L 232.370455 203.437699 
L 233.892273 204.508811 
L 236.175 205.774493 
L 238.457727 206.709046 
L 240.740455 207.387769 
L 243.784091 208.000154 
L 246.827727 208.380306 
L 251.393182 208.686021 
L 258.241364 208.854849 
L 272.698636 208.90808 
L 346.506818 208.90992 
L 346.506818 208.90992 
" style="fill:none;stroke:#ff0000;stroke-linecap:square;stroke-width:1.5;"/>
   </g>
   <g id="patch_3">
    <path d="M 26.925 224.64 
L 26.925 7.2 
" style="fill:none;stroke:#000000;stroke-linecap:square;stroke-linejoin:miter;stroke-width:0.8;"/>
   </g>
   <g id="patch_4">
    <path d="M 361.725 224.64 
L 361.725 7.2 
" style="fill:none;stroke:#000000;stroke-linecap:square;stroke-linejoin:miter;stroke-width:0.8;"/>
   </g>
   <g id="patch_5">
    <path d="M 26.925 224.64 
L 361.725 224.64 
" style="fill:none;stroke:#000000;stroke-linecap:square;stroke-linejoin:miter;stroke-width:0.8;"/>
   </g>
   <g id="patch_6">
    <path d="M 26.925 7.2 
L 361.725 7.2 
" style="fill:none;stroke:#000000;stroke-linecap:square;stroke-linejoin:miter;stroke-width:0.8;"/>
   </g>
   <g id="legend_1">
    <g id="patch_7">
     <path d="M 243.64375 29.878125 
L 354.725 29.878125 
Q 356.725 29.878125 356.725 27.878125 
L 356.725 14.2 
Q 356.725 12.2 354.725 12.2 
L 243.64375 12.2 
Q 241.64375 12.2 241.64375 14.2 
L 241.64375 27.878125 
Q 241.64375 29.878125 243.64375 29.878125 
z
" style="fill:#ffffff;opacity:0.8;stroke:#cccccc;stroke-linejoin:miter;"/>
    </g>
    <g id="line2d_18">
     <path d="M 245.64375 20.298437 
L 265.64375 20.298437 
" style="fill:none;stroke:#ff0000;stroke-linecap:square;stroke-width:1.5;"/>
    </g>
    <g id="line2d_19"/>
    <g id="text_16">
     <!-- Gaussian Model -->
     <g transform="translate(273.64375 23.798437)scale(0.1 -0.1)">
      <defs>
       <path d="M 59.515625 10.40625 
L 59.515625 29.984375 
L 43.40625 29.984375 
L 43.40625 38.09375 
L 69.28125 38.09375 
L 69.28125 6.78125 
Q 63.578125 2.734375 56.6875 0.65625 
Q 49.8125 -1.421875 42 -1.421875 
Q 24.90625 -1.421875 15.25 8.5625 
Q 5.609375 18.5625 5.609375 36.375 
Q 5.609375 54.25 15.25 64.234375 
Q 24.90625 74.21875 42 74.21875 
Q 49.125 74.21875 55.546875 72.453125 
Q 61.96875 70.703125 67.390625 67.28125 
L 67.390625 56.78125 
Q 61.921875 61.421875 55.765625 63.765625 
Q 49.609375 66.109375 42.828125 66.109375 
Q 29.4375 66.109375 22.71875 58.640625 
Q 16.015625 51.171875 16.015625 36.375 
Q 16.015625 21.625 22.71875 14.15625 
Q 29.4375 6.6875 42.828125 6.6875 
Q 48.046875 6.6875 52.140625 7.59375 
Q 56.25 8.5 59.515625 10.40625 
z
" id="DejaVuSans-71"/>
       <path d="M 34.28125 27.484375 
Q 23.390625 27.484375 19.1875 25 
Q 14.984375 22.515625 14.984375 16.5 
Q 14.984375 11.71875 18.140625 8.90625 
Q 21.296875 6.109375 26.703125 6.109375 
Q 34.1875 6.109375 38.703125 11.40625 
Q 43.21875 16.703125 43.21875 25.484375 
L 43.21875 27.484375 
z
M 52.203125 31.203125 
L 52.203125 0 
L 43.21875 0 
L 43.21875 8.296875 
Q 40.140625 3.328125 35.546875 0.953125 
Q 30.953125 -1.421875 24.3125 -1.421875 
Q 15.921875 -1.421875 10.953125 3.296875 
Q 6 8.015625 6 15.921875 
Q 6 25.140625 12.171875 29.828125 
Q 18.359375 34.515625 30.609375 34.515625 
L 43.21875 34.515625 
L 43.21875 35.40625 
Q 43.21875 41.609375 39.140625 45 
Q 35.0625 48.390625 27.6875 48.390625 
Q 23 48.390625 18.546875 47.265625 
Q 14.109375 46.140625 10.015625 43.890625 
L 10.015625 52.203125 
Q 14.9375 54.109375 19.578125 55.046875 
Q 24.21875 56 28.609375 56 
Q 40.484375 56 46.34375 49.84375 
Q 52.203125 43.703125 52.203125 31.203125 
z
" id="DejaVuSans-97"/>
       <path d="M 8.5 21.578125 
L 8.5 54.6875 
L 17.484375 54.6875 
L 17.484375 21.921875 
Q 17.484375 14.15625 20.5 10.265625 
Q 23.53125 6.390625 29.59375 6.390625 
Q 36.859375 6.390625 41.078125 11.03125 
Q 45.3125 15.671875 45.3125 23.6875 
L 45.3125 54.6875 
L 54.296875 54.6875 
L 54.296875 0 
L 45.3125 0 
L 45.3125 8.40625 
Q 42.046875 3.421875 37.71875 1 
Q 33.40625 -1.421875 27.6875 -1.421875 
Q 18.265625 -1.421875 13.375 4.4375 
Q 8.5 10.296875 8.5 21.578125 
z
M 31.109375 56 
z
" id="DejaVuSans-117"/>
       <path d="M 44.28125 53.078125 
L 44.28125 44.578125 
Q 40.484375 46.53125 36.375 47.5 
Q 32.28125 48.484375 27.875 48.484375 
Q 21.1875 48.484375 17.84375 46.4375 
Q 14.5 44.390625 14.5 40.28125 
Q 14.5 37.15625 16.890625 35.375 
Q 19.28125 33.59375 26.515625 31.984375 
L 29.59375 31.296875 
Q 39.15625 29.25 43.1875 25.515625 
Q 47.21875 21.78125 47.21875 15.09375 
Q 47.21875 7.46875 41.1875 3.015625 
Q 35.15625 -1.421875 24.609375 -1.421875 
Q 20.21875 -1.421875 15.453125 -0.5625 
Q 10.6875 0.296875 5.421875 2 
L 5.421875 11.28125 
Q 10.40625 8.6875 15.234375 7.390625 
Q 20.0625 6.109375 24.8125 6.109375 
Q 31.15625 6.109375 34.5625 8.28125 
Q 37.984375 10.453125 37.984375 14.40625 
Q 37.984375 18.0625 35.515625 20.015625 
Q 33.0625 21.96875 24.703125 23.78125 
L 21.578125 24.515625 
Q 13.234375 26.265625 9.515625 29.90625 
Q 5.8125 33.546875 5.8125 39.890625 
Q 5.8125 47.609375 11.28125 51.796875 
Q 16.75 56 26.8125 56 
Q 31.78125 56 36.171875 55.265625 
Q 40.578125 54.546875 44.28125 53.078125 
z
" id="DejaVuSans-115"/>
       <path d="M 9.421875 54.6875 
L 18.40625 54.6875 
L 18.40625 0 
L 9.421875 0 
z
M 9.421875 75.984375 
L 18.40625 75.984375 
L 18.40625 64.59375 
L 9.421875 64.59375 
z
" id="DejaVuSans-105"/>
       <path d="M 54.890625 33.015625 
L 54.890625 0 
L 45.90625 0 
L 45.90625 32.71875 
Q 45.90625 40.484375 42.875 44.328125 
Q 39.84375 48.1875 33.796875 48.1875 
Q 26.515625 48.1875 22.3125 43.546875 
Q 18.109375 38.921875 18.109375 30.90625 
L 18.109375 0 
L 9.078125 0 
L 9.078125 54.6875 
L 18.109375 54.6875 
L 18.109375 46.1875 
Q 21.34375 51.125 25.703125 53.5625 
Q 30.078125 56 35.796875 56 
Q 45.21875 56 50.046875 50.171875 
Q 54.890625 44.34375 54.890625 33.015625 
z
" id="DejaVuSans-110"/>
       <path id="DejaVuSans-32"/>
       <path d="M 9.8125 72.90625 
L 24.515625 72.90625 
L 43.109375 23.296875 
L 61.8125 72.90625 
L 76.515625 72.90625 
L 76.515625 0 
L 66.890625 0 
L 66.890625 64.015625 
L 48.09375 14.015625 
L 38.1875 14.015625 
L 19.390625 64.015625 
L 19.390625 0 
L 9.8125 0 
z
" id="DejaVuSans-77"/>
       <path d="M 30.609375 48.390625 
Q 23.390625 48.390625 19.1875 42.75 
Q 14.984375 37.109375 14.984375 27.296875 
Q 14.984375 17.484375 19.15625 11.84375 
Q 23.34375 6.203125 30.609375 6.203125 
Q 37.796875 6.203125 41.984375 11.859375 
Q 46.1875 17.53125 46.1875 27.296875 
Q 46.1875 37.015625 41.984375 42.703125 
Q 37.796875 48.390625 30.609375 48.390625 
z
M 30.609375 56 
Q 42.328125 56 49.015625 48.375 
Q 55.71875 40.765625 55.71875 27.296875 
Q 55.71875 13.875 49.015625 6.21875 
Q 42.328125 -1.421875 30.609375 -1.421875 
Q 18.84375 -1.421875 12.171875 6.21875 
Q 5.515625 13.875 5.515625 27.296875 
Q 5.515625 40.765625 12.171875 48.375 
Q 18.84375 56 30.609375 56 
z
" id="DejaVuSans-111"/>
       <path d="M 45.40625 46.390625 
L 45.40625 75.984375 
L 54.390625 75.984375 
L 54.390625 0 
L 45.40625 0 
L 45.40625 8.203125 
Q 42.578125 3.328125 38.25 0.953125 
Q 33.9375 -1.421875 27.875 -1.421875 
Q 17.96875 -1.421875 11.734375 6.484375 
Q 5.515625 14.40625 5.515625 27.296875 
Q 5.515625 40.1875 11.734375 48.09375 
Q 17.96875 56 27.875 56 
Q 33.9375 56 38.25 53.625 
Q 42.578125 51.265625 45.40625 46.390625 
z
M 14.796875 27.296875 
Q 14.796875 17.390625 18.875 11.75 
Q 22.953125 6.109375 30.078125 6.109375 
Q 37.203125 6.109375 41.296875 11.75 
Q 45.40625 17.390625 45.40625 27.296875 
Q 45.40625 37.203125 41.296875 42.84375 
Q 37.203125 48.484375 30.078125 48.484375 
Q 22.953125 48.484375 18.875 42.84375 
Q 14.796875 37.203125 14.796875 27.296875 
z
" id="DejaVuSans-100"/>
       <path d="M 56.203125 29.59375 
L 56.203125 25.203125 
L 14.890625 25.203125 
Q 15.484375 15.921875 20.484375 11.0625 
Q 25.484375 6.203125 34.421875 6.203125 
Q 39.59375 6.203125 44.453125 7.46875 
Q 49.3125 8.734375 54.109375 11.28125 
L 54.109375 2.78125 
Q 49.265625 0.734375 44.1875 -0.34375 
Q 39.109375 -1.421875 33.890625 -1.421875 
Q 20.796875 -1.421875 13.15625 6.1875 
Q 5.515625 13.8125 5.515625 26.8125 
Q 5.515625 40.234375 12.765625 48.109375 
Q 20.015625 56 32.328125 56 
Q 43.359375 56 49.78125 48.890625 
Q 56.203125 41.796875 56.203125 29.59375 
z
M 47.21875 32.234375 
Q 47.125 39.59375 43.09375 43.984375 
Q 39.0625 48.390625 32.421875 48.390625 
Q 24.90625 48.390625 20.390625 44.140625 
Q 15.875 39.890625 15.1875 32.171875 
z
" id="DejaVuSans-101"/>
       <path d="M 9.421875 75.984375 
L 18.40625 75.984375 
L 18.40625 0 
L 9.421875 0 
z
" id="DejaVuSans-108"/>
      </defs>
      <use xlink:href="#DejaVuSans-71"/>
      <use x="77.490234" xlink:href="#DejaVuSans-97"/>
      <use x="138.769531" xlink:href="#DejaVuSans-117"/>
      <use x="202.148438" xlink:href="#DejaVuSans-115"/>
      <use x="254.248047" xlink:href="#DejaVuSans-115"/>
      <use x="306.347656" xlink:href="#DejaVuSans-105"/>
      <use x="334.130859" xlink:href="#DejaVuSans-97"/>
      <use x="395.410156" xlink:href="#DejaVuSans-110"/>
      <use x="458.789062" xlink:href="#DejaVuSans-32"/>
      <use x="490.576172" xlink:href="#DejaVuSans-77"/>
      <use x="576.855469" xlink:href="#DejaVuSans-111"/>
      <use x="638.037109" xlink:href="#DejaVuSans-100"/>
      <use x="701.513672" xlink:href="#DejaVuSans-101"/>
      <use x="763.037109" xlink:href="#DejaVuSans-108"/>
     </g>
    </g>
   </g>
  </g>
 </g>
 <defs>
  <clipPath id="p9a48e6bdfc">
   <rect height="217.44" width="334.8" x="26.925" y="7.2"/>
  </clipPath>
 </defs>
</svg>
