<?xml version="1.0" encoding="utf-8" standalone="no"?>
<!DOCTYPE svg PUBLIC "-//W3C//DTD SVG 1.1//EN"
  "http://www.w3.org/Graphics/SVG/1.1/DTD/svg11.dtd">
<svg xmlns:xlink="http://www.w3.org/1999/xlink" width="391.245pt" height="297.190125pt" viewBox="0 0 391.245 297.190125" xmlns="http://www.w3.org/2000/svg" version="1.1">
 <metadata>
  <rdf:RDF xmlns:dc="http://purl.org/dc/elements/1.1/" xmlns:cc="http://creativecommons.org/ns#" xmlns:rdf="http://www.w3.org/1999/02/22-rdf-syntax-ns#">
   <cc:Work>
    <dc:type rdf:resource="http://purl.org/dc/dcmitype/StillImage"/>
    <dc:date>2023-04-08T23:56:29.907187</dc:date>
    <dc:format>image/svg+xml</dc:format>
    <dc:creator>
     <cc:Agent>
      <dc:title>Matplotlib v3.7.1, https://matplotlib.org/</dc:title>
     </cc:Agent>
    </dc:creator>
   </cc:Work>
  </rdf:RDF>
 </metadata>
 <defs>
  <style type="text/css">*{stroke-linejoin: round; stroke-linecap: butt}</style>
 </defs>
 <g id="figure_1">
  <g id="patch_1">
   <path d="M 0 297.190125 
L 391.245 297.190125 
L 391.245 0 
L 0 0 
z
" style="fill: #ffffff"/>
  </g>
  <g id="axes_1">
   <g id="patch_2">
    <path d="M 26.925 273.312 
L 384.045 273.312 
L 384.045 7.2 
L 26.925 7.2 
z
" style="fill: #ffffff"/>
   </g>
   <g id="matplotlib.axis_1">
    <g id="xtick_1">
     <g id="line2d_1">
      <defs>
       <path id="me60979c8d7" d="M 0 0 
L 0 3.5 
" style="stroke: #000000; stroke-width: 0.8"/>
      </defs>
      <g>
       <use xlink:href="#me60979c8d7" x="43.157727" y="273.312" style="stroke: #000000; stroke-width: 0.8"/>
      </g>
     </g>
     <g id="text_1">
      <!-- 0 -->
      <g transform="translate(39.976477 287.910437) scale(0.1 -0.1)">
       <defs>
        <path id="DejaVuSans-30" d="M 2034 4250 
Q 1547 4250 1301 3770 
Q 1056 3291 1056 2328 
Q 1056 1369 1301 889 
Q 1547 409 2034 409 
Q 2525 409 2770 889 
Q 3016 1369 3016 2328 
Q 3016 3291 2770 3770 
Q 2525 4250 2034 4250 
z
M 2034 4750 
Q 2819 4750 3233 4129 
Q 3647 3509 3647 2328 
Q 3647 1150 3233 529 
Q 2819 -91 2034 -91 
Q 1250 -91 836 529 
Q 422 1150 422 2328 
Q 422 3509 836 4129 
Q 1250 4750 2034 4750 
z
" transform="scale(0.015625)"/>
       </defs>
       <use xlink:href="#DejaVuSans-30"/>
      </g>
     </g>
    </g>
    <g id="xtick_2">
     <g id="line2d_2">
      <g>
       <use xlink:href="#me60979c8d7" x="108.088636" y="273.312" style="stroke: #000000; stroke-width: 0.8"/>
      </g>
     </g>
     <g id="text_2">
      <!-- 5 -->
      <g transform="translate(104.907386 287.910437) scale(0.1 -0.1)">
       <defs>
        <path id="DejaVuSans-35" d="M 691 4666 
L 3169 4666 
L 3169 4134 
L 1269 4134 
L 1269 2991 
Q 1406 3038 1543 3061 
Q 1681 3084 1819 3084 
Q 2600 3084 3056 2656 
Q 3513 2228 3513 1497 
Q 3513 744 3044 326 
Q 2575 -91 1722 -91 
Q 1428 -91 1123 -41 
Q 819 9 494 109 
L 494 744 
Q 775 591 1075 516 
Q 1375 441 1709 441 
Q 2250 441 2565 725 
Q 2881 1009 2881 1497 
Q 2881 1984 2565 2268 
Q 2250 2553 1709 2553 
Q 1456 2553 1204 2497 
Q 953 2441 691 2322 
L 691 4666 
z
" transform="scale(0.015625)"/>
       </defs>
       <use xlink:href="#DejaVuSans-35"/>
      </g>
     </g>
    </g>
    <g id="xtick_3">
     <g id="line2d_3">
      <g>
       <use xlink:href="#me60979c8d7" x="173.019545" y="273.312" style="stroke: #000000; stroke-width: 0.8"/>
      </g>
     </g>
     <g id="text_3">
      <!-- 10 -->
      <g transform="translate(166.657045 287.910437) scale(0.1 -0.1)">
       <defs>
        <path id="DejaVuSans-31" d="M 794 531 
L 1825 531 
L 1825 4091 
L 703 3866 
L 703 4441 
L 1819 4666 
L 2450 4666 
L 2450 531 
L 3481 531 
L 3481 0 
L 794 0 
L 794 531 
z
" transform="scale(0.015625)"/>
       </defs>
       <use xlink:href="#DejaVuSans-31"/>
       <use xlink:href="#DejaVuSans-30" x="63.623047"/>
      </g>
     </g>
    </g>
    <g id="xtick_4">
     <g id="line2d_4">
      <g>
       <use xlink:href="#me60979c8d7" x="237.950455" y="273.312" style="stroke: #000000; stroke-width: 0.8"/>
      </g>
     </g>
     <g id="text_4">
      <!-- 15 -->
      <g transform="translate(231.587955 287.910437) scale(0.1 -0.1)">
       <use xlink:href="#DejaVuSans-31"/>
       <use xlink:href="#DejaVuSans-35" x="63.623047"/>
      </g>
     </g>
    </g>
    <g id="xtick_5">
     <g id="line2d_5">
      <g>
       <use xlink:href="#me60979c8d7" x="302.881364" y="273.312" style="stroke: #000000; stroke-width: 0.8"/>
      </g>
     </g>
     <g id="text_5">
      <!-- 20 -->
      <g transform="translate(296.518864 287.910437) scale(0.1 -0.1)">
       <defs>
        <path id="DejaVuSans-32" d="M 1228 531 
L 3431 531 
L 3431 0 
L 469 0 
L 469 531 
Q 828 903 1448 1529 
Q 2069 2156 2228 2338 
Q 2531 2678 2651 2914 
Q 2772 3150 2772 3378 
Q 2772 3750 2511 3984 
Q 2250 4219 1831 4219 
Q 1534 4219 1204 4116 
Q 875 4013 500 3803 
L 500 4441 
Q 881 4594 1212 4672 
Q 1544 4750 1819 4750 
Q 2544 4750 2975 4387 
Q 3406 4025 3406 3419 
Q 3406 3131 3298 2873 
Q 3191 2616 2906 2266 
Q 2828 2175 2409 1742 
Q 1991 1309 1228 531 
z
" transform="scale(0.015625)"/>
       </defs>
       <use xlink:href="#DejaVuSans-32"/>
       <use xlink:href="#DejaVuSans-30" x="63.623047"/>
      </g>
     </g>
    </g>
    <g id="xtick_6">
     <g id="line2d_6">
      <g>
       <use xlink:href="#me60979c8d7" x="367.812273" y="273.312" style="stroke: #000000; stroke-width: 0.8"/>
      </g>
     </g>
     <g id="text_6">
      <!-- 25 -->
      <g transform="translate(361.449773 287.910437) scale(0.1 -0.1)">
       <use xlink:href="#DejaVuSans-32"/>
       <use xlink:href="#DejaVuSans-35" x="63.623047"/>
      </g>
     </g>
    </g>
   </g>
   <g id="matplotlib.axis_2">
    <g id="ytick_1">
     <g id="line2d_7">
      <defs>
       <path id="m6ca8ce4125" d="M 0 0 
L -3.5 0 
" style="stroke: #000000; stroke-width: 0.8"/>
      </defs>
      <g>
       <use xlink:href="#m6ca8ce4125" x="26.925" y="265.062196" style="stroke: #000000; stroke-width: 0.8"/>
      </g>
     </g>
     <g id="text_7">
      <!-- 2 -->
      <g transform="translate(13.5625 268.861415) scale(0.1 -0.1)">
       <use xlink:href="#DejaVuSans-32"/>
      </g>
     </g>
    </g>
    <g id="ytick_2">
     <g id="line2d_8">
      <g>
       <use xlink:href="#m6ca8ce4125" x="26.925" y="234.830403" style="stroke: #000000; stroke-width: 0.8"/>
      </g>
     </g>
     <g id="text_8">
      <!-- 3 -->
      <g transform="translate(13.5625 238.629622) scale(0.1 -0.1)">
       <defs>
        <path id="DejaVuSans-33" d="M 2597 2516 
Q 3050 2419 3304 2112 
Q 3559 1806 3559 1356 
Q 3559 666 3084 287 
Q 2609 -91 1734 -91 
Q 1441 -91 1130 -33 
Q 819 25 488 141 
L 488 750 
Q 750 597 1062 519 
Q 1375 441 1716 441 
Q 2309 441 2620 675 
Q 2931 909 2931 1356 
Q 2931 1769 2642 2001 
Q 2353 2234 1838 2234 
L 1294 2234 
L 1294 2753 
L 1863 2753 
Q 2328 2753 2575 2939 
Q 2822 3125 2822 3475 
Q 2822 3834 2567 4026 
Q 2313 4219 1838 4219 
Q 1578 4219 1281 4162 
Q 984 4106 628 3988 
L 628 4550 
Q 988 4650 1302 4700 
Q 1616 4750 1894 4750 
Q 2613 4750 3031 4423 
Q 3450 4097 3450 3541 
Q 3450 3153 3228 2886 
Q 3006 2619 2597 2516 
z
" transform="scale(0.015625)"/>
       </defs>
       <use xlink:href="#DejaVuSans-33"/>
      </g>
     </g>
    </g>
    <g id="ytick_3">
     <g id="line2d_9">
      <g>
       <use xlink:href="#m6ca8ce4125" x="26.925" y="204.59861" style="stroke: #000000; stroke-width: 0.8"/>
      </g>
     </g>
     <g id="text_9">
      <!-- 4 -->
      <g transform="translate(13.5625 208.397829) scale(0.1 -0.1)">
       <defs>
        <path id="DejaVuSans-34" d="M 2419 4116 
L 825 1625 
L 2419 1625 
L 2419 4116 
z
M 2253 4666 
L 3047 4666 
L 3047 1625 
L 3713 1625 
L 3713 1100 
L 3047 1100 
L 3047 0 
L 2419 0 
L 2419 1100 
L 313 1100 
L 313 1709 
L 2253 4666 
z
" transform="scale(0.015625)"/>
       </defs>
       <use xlink:href="#DejaVuSans-34"/>
      </g>
     </g>
    </g>
    <g id="ytick_4">
     <g id="line2d_10">
      <g>
       <use xlink:href="#m6ca8ce4125" x="26.925" y="174.366817" style="stroke: #000000; stroke-width: 0.8"/>
      </g>
     </g>
     <g id="text_10">
      <!-- 5 -->
      <g transform="translate(13.5625 178.166036) scale(0.1 -0.1)">
       <use xlink:href="#DejaVuSans-35"/>
      </g>
     </g>
    </g>
    <g id="ytick_5">
     <g id="line2d_11">
      <g>
       <use xlink:href="#m6ca8ce4125" x="26.925" y="144.135024" style="stroke: #000000; stroke-width: 0.8"/>
      </g>
     </g>
     <g id="text_11">
      <!-- 6 -->
      <g transform="translate(13.5625 147.934243) scale(0.1 -0.1)">
       <defs>
        <path id="DejaVuSans-36" d="M 2113 2584 
Q 1688 2584 1439 2293 
Q 1191 2003 1191 1497 
Q 1191 994 1439 701 
Q 1688 409 2113 409 
Q 2538 409 2786 701 
Q 3034 994 3034 1497 
Q 3034 2003 2786 2293 
Q 2538 2584 2113 2584 
z
M 3366 4563 
L 3366 3988 
Q 3128 4100 2886 4159 
Q 2644 4219 2406 4219 
Q 1781 4219 1451 3797 
Q 1122 3375 1075 2522 
Q 1259 2794 1537 2939 
Q 1816 3084 2150 3084 
Q 2853 3084 3261 2657 
Q 3669 2231 3669 1497 
Q 3669 778 3244 343 
Q 2819 -91 2113 -91 
Q 1303 -91 875 529 
Q 447 1150 447 2328 
Q 447 3434 972 4092 
Q 1497 4750 2381 4750 
Q 2619 4750 2861 4703 
Q 3103 4656 3366 4563 
z
" transform="scale(0.015625)"/>
       </defs>
       <use xlink:href="#DejaVuSans-36"/>
      </g>
     </g>
    </g>
    <g id="ytick_6">
     <g id="line2d_12">
      <g>
       <use xlink:href="#m6ca8ce4125" x="26.925" y="113.903231" style="stroke: #000000; stroke-width: 0.8"/>
      </g>
     </g>
     <g id="text_12">
      <!-- 7 -->
      <g transform="translate(13.5625 117.70245) scale(0.1 -0.1)">
       <defs>
        <path id="DejaVuSans-37" d="M 525 4666 
L 3525 4666 
L 3525 4397 
L 1831 0 
L 1172 0 
L 2766 4134 
L 525 4134 
L 525 4666 
z
" transform="scale(0.015625)"/>
       </defs>
       <use xlink:href="#DejaVuSans-37"/>
      </g>
     </g>
    </g>
    <g id="ytick_7">
     <g id="line2d_13">
      <g>
       <use xlink:href="#m6ca8ce4125" x="26.925" y="83.671438" style="stroke: #000000; stroke-width: 0.8"/>
      </g>
     </g>
     <g id="text_13">
      <!-- 8 -->
      <g transform="translate(13.5625 87.470657) scale(0.1 -0.1)">
       <defs>
        <path id="DejaVuSans-38" d="M 2034 2216 
Q 1584 2216 1326 1975 
Q 1069 1734 1069 1313 
Q 1069 891 1326 650 
Q 1584 409 2034 409 
Q 2484 409 2743 651 
Q 3003 894 3003 1313 
Q 3003 1734 2745 1975 
Q 2488 2216 2034 2216 
z
M 1403 2484 
Q 997 2584 770 2862 
Q 544 3141 544 3541 
Q 544 4100 942 4425 
Q 1341 4750 2034 4750 
Q 2731 4750 3128 4425 
Q 3525 4100 3525 3541 
Q 3525 3141 3298 2862 
Q 3072 2584 2669 2484 
Q 3125 2378 3379 2068 
Q 3634 1759 3634 1313 
Q 3634 634 3220 271 
Q 2806 -91 2034 -91 
Q 1263 -91 848 271 
Q 434 634 434 1313 
Q 434 1759 690 2068 
Q 947 2378 1403 2484 
z
M 1172 3481 
Q 1172 3119 1398 2916 
Q 1625 2713 2034 2713 
Q 2441 2713 2670 2916 
Q 2900 3119 2900 3481 
Q 2900 3844 2670 4047 
Q 2441 4250 2034 4250 
Q 1625 4250 1398 4047 
Q 1172 3844 1172 3481 
z
" transform="scale(0.015625)"/>
       </defs>
       <use xlink:href="#DejaVuSans-38"/>
      </g>
     </g>
    </g>
    <g id="ytick_8">
     <g id="line2d_14">
      <g>
       <use xlink:href="#m6ca8ce4125" x="26.925" y="53.439645" style="stroke: #000000; stroke-width: 0.8"/>
      </g>
     </g>
     <g id="text_14">
      <!-- 9 -->
      <g transform="translate(13.5625 57.238863) scale(0.1 -0.1)">
       <defs>
        <path id="DejaVuSans-39" d="M 703 97 
L 703 672 
Q 941 559 1184 500 
Q 1428 441 1663 441 
Q 2288 441 2617 861 
Q 2947 1281 2994 2138 
Q 2813 1869 2534 1725 
Q 2256 1581 1919 1581 
Q 1219 1581 811 2004 
Q 403 2428 403 3163 
Q 403 3881 828 4315 
Q 1253 4750 1959 4750 
Q 2769 4750 3195 4129 
Q 3622 3509 3622 2328 
Q 3622 1225 3098 567 
Q 2575 -91 1691 -91 
Q 1453 -91 1209 -44 
Q 966 3 703 97 
z
M 1959 2075 
Q 2384 2075 2632 2365 
Q 2881 2656 2881 3163 
Q 2881 3666 2632 3958 
Q 2384 4250 1959 4250 
Q 1534 4250 1286 3958 
Q 1038 3666 1038 3163 
Q 1038 2656 1286 2365 
Q 1534 2075 1959 2075 
z
" transform="scale(0.015625)"/>
       </defs>
       <use xlink:href="#DejaVuSans-39"/>
      </g>
     </g>
    </g>
    <g id="ytick_9">
     <g id="line2d_15">
      <g>
       <use xlink:href="#m6ca8ce4125" x="26.925" y="23.207852" style="stroke: #000000; stroke-width: 0.8"/>
      </g>
     </g>
     <g id="text_15">
      <!-- 10 -->
      <g transform="translate(7.2 27.00707) scale(0.1 -0.1)">
       <use xlink:href="#DejaVuSans-31"/>
       <use xlink:href="#DejaVuSans-30" x="63.623047"/>
      </g>
     </g>
    </g>
   </g>
   <g id="line2d_16">
    <path d="M 43.157727 235.840258 
L 43.807036 234.681061 
L 44.456345 232.979113 
L 45.105655 249.265286 
L 45.754964 208.343141 
L 46.404273 204.533148 
L 47.053582 219.541485 
L 47.702891 221.727224 
L 48.3522 212.678889 
L 49.001509 216.720708 
L 49.650818 204.931395 
L 50.300127 221.448599 
L 50.949436 227.604207 
L 51.598745 212.312499 
L 52.248055 216.210249 
L 52.897364 227.040391 
L 53.546673 220.449185 
L 54.195982 217.970925 
L 54.845291 210.958405 
L 55.4946 222.238364 
L 56.143909 209.374804 
L 56.793218 206.309862 
L 57.442527 220.805947 
L 58.091836 217.526298 
L 58.741145 211.042573 
L 59.390455 216.107504 
L 60.039764 238.15678 
L 60.689073 216.826712 
L 61.338382 211.073199 
L 61.987691 231.215013 
L 62.637 206.829409 
L 63.286309 211.366799 
L 63.935618 231.449619 
L 64.584927 228.622512 
L 65.234236 211.850564 
L 65.883545 227.273303 
L 66.532855 207.512845 
L 67.182164 226.334548 
L 67.831473 198.473927 
L 68.480782 230.321126 
L 69.130091 220.998211 
L 69.7794 222.623147 
L 70.428709 207.458569 
L 71.078018 226.456352 
L 71.727327 201.937686 
L 72.376636 222.710039 
L 73.025945 191.42916 
L 73.675255 218.589823 
L 74.324564 219.309128 
L 74.973873 196.163987 
L 75.623182 192.875513 
L 76.272491 193.975655 
L 76.9218 221.184251 
L 77.571109 207.740807 
L 78.220418 223.31866 
L 78.869727 212.834549 
L 79.519036 206.006012 
L 80.168345 215.472608 
L 80.817655 206.825577 
L 81.466964 188.000298 
L 82.116273 209.586776 
L 82.765582 208.593005 
L 83.414891 198.382842 
L 84.0642 210.810431 
L 84.713509 191.782867 
L 85.362818 227.03329 
L 86.012127 188.15399 
L 86.661436 214.462267 
L 87.310745 202.634967 
L 87.960055 202.642122 
L 88.609364 205.489423 
L 89.258673 197.919698 
L 89.907982 199.552267 
L 90.557291 207.901486 
L 91.2066 218.294198 
L 91.855909 197.275814 
L 92.505218 222.580522 
L 93.154527 223.604863 
L 93.803836 217.667365 
L 94.453145 201.17554 
L 95.102455 198.318583 
L 95.751764 204.079713 
L 96.401073 190.153049 
L 97.050382 192.049487 
L 97.699691 190.362279 
L 98.349 208.73615 
L 98.998309 201.410346 
L 99.647618 196.163921 
L 100.296927 212.975502 
L 100.946236 202.34807 
L 101.595545 189.577033 
L 102.244855 194.856717 
L 102.894164 204.231823 
L 103.543473 194.160464 
L 104.192782 194.959058 
L 104.842091 184.788316 
L 105.4914 200.826305 
L 106.140709 196.526653 
L 106.790018 182.434097 
L 107.439327 217.363115 
L 108.088636 185.96847 
L 108.737945 196.698921 
L 109.387255 192.190029 
L 110.036564 198.381147 
L 110.685873 201.729582 
L 111.335182 189.197405 
L 111.984491 199.303035 
L 112.6338 194.168851 
L 113.283109 197.778044 
L 113.932418 199.484355 
L 114.581727 197.94605 
L 115.231036 207.881578 
L 115.880345 189.5629 
L 116.529655 180.542055 
L 117.178964 194.876241 
L 117.828273 190.061034 
L 118.477582 183.10763 
L 119.126891 190.400903 
L 119.7762 192.848041 
L 120.425509 214.45124 
L 121.074818 201.154877 
L 121.724127 190.492668 
L 122.373436 186.759009 
L 123.022745 186.82345 
L 123.672055 189.243332 
L 124.321364 194.22577 
L 124.970673 195.236058 
L 125.619982 201.88223 
L 126.269291 200.161838 
L 126.9186 175.479659 
L 127.567909 187.74251 
L 128.217218 180.79397 
L 128.866527 185.719203 
L 129.515836 184.007986 
L 130.165145 206.380549 
L 130.814455 203.82021 
L 131.463764 188.724586 
L 132.113073 197.971184 
L 132.762382 183.619488 
L 133.411691 211.826022 
L 134.061 188.469392 
L 134.710309 183.532579 
L 135.359618 174.240872 
L 136.008927 188.88122 
L 136.658236 182.802819 
L 137.307545 186.70947 
L 137.956855 202.739331 
L 138.606164 181.205268 
L 139.255473 193.760043 
L 139.904782 188.377008 
L 140.554091 206.842005 
L 141.2034 183.008464 
L 141.852709 196.840156 
L 142.502018 188.189646 
L 143.151327 186.376769 
L 143.800636 199.040824 
L 144.449945 192.311299 
L 145.099255 202.835338 
L 145.748564 192.170405 
L 146.397873 199.349924 
L 147.047182 189.523686 
L 147.696491 200.080936 
L 148.3458 181.063 
L 148.995109 212.312981 
L 149.644418 205.029099 
L 150.293727 185.188416 
L 150.943036 203.837407 
L 151.592345 195.273672 
L 152.890964 182.448983 
L 153.540273 186.038167 
L 154.189582 174.624227 
L 154.838891 214.456451 
L 155.4882 191.105047 
L 156.137509 187.667558 
L 156.786818 203.808367 
L 157.436127 198.179098 
L 158.085436 201.148533 
L 159.384055 191.29546 
L 160.033364 199.451663 
L 160.682673 194.234561 
L 161.331982 184.096015 
L 161.981291 198.068602 
L 162.6306 188.06733 
L 163.279909 175.995997 
L 163.929218 209.974642 
L 165.227836 186.639242 
L 165.877145 189.263138 
L 166.526455 172.873852 
L 167.175764 199.602998 
L 167.825073 207.426692 
L 168.474382 181.266409 
L 169.123691 182.314843 
L 169.773 189.074421 
L 170.422309 191.213068 
L 171.071618 173.4714 
L 171.720927 206.069214 
L 172.370236 216.641327 
L 173.019545 195.843094 
L 173.668855 218.792328 
L 174.318164 188.60367 
L 174.967473 195.744465 
L 175.616782 205.103009 
L 176.266091 196.927323 
L 176.9154 194.764426 
L 177.564709 194.854092 
L 178.214018 201.331696 
L 178.863327 196.333998 
L 179.512636 179.65744 
L 180.161945 201.927125 
L 180.811255 211.239241 
L 181.460564 200.394254 
L 182.109873 197.319965 
L 182.759182 205.167995 
L 183.408491 199.008128 
L 184.0578 200.779541 
L 184.707109 202.958111 
L 185.356418 185.793152 
L 186.655036 215.019558 
L 187.304345 215.917744 
L 187.953655 212.483376 
L 188.602964 214.224965 
L 189.252273 198.778368 
L 189.901582 197.574602 
L 190.550891 205.36689 
L 191.2002 204.298006 
L 191.849509 206.387644 
L 192.498818 205.073304 
L 193.148127 218.794019 
L 193.797436 214.122216 
L 194.446745 207.734111 
L 195.096055 222.512136 
L 195.745364 209.224369 
L 196.394673 205.598949 
L 197.043982 223.240146 
L 197.693291 227.527984 
L 198.3426 224.865167 
L 198.991909 209.267604 
L 199.641218 208.024095 
L 200.290527 219.134795 
L 200.939836 209.106964 
L 201.589145 215.301662 
L 202.238455 204.50123 
L 202.887764 207.112904 
L 203.537073 211.289141 
L 204.835691 229.101208 
L 205.485 214.844708 
L 206.134309 212.181811 
L 206.783618 212.795814 
L 207.432927 226.559805 
L 208.082236 203.74959 
L 208.731545 237.735084 
L 209.380855 220.576748 
L 210.030164 218.693598 
L 210.679473 214.389478 
L 211.978091 203.610388 
L 212.6274 210.784523 
L 213.276709 219.75607 
L 213.926018 217.275303 
L 214.575327 212.997385 
L 215.224636 211.738225 
L 215.873945 213.418403 
L 216.523255 230.135889 
L 217.172564 211.145877 
L 217.821873 207.941466 
L 218.471182 225.564449 
L 219.120491 216.284109 
L 219.7698 228.755197 
L 220.419109 215.6484 
L 221.068418 193.374066 
L 221.717727 231.965687 
L 222.367036 215.313039 
L 223.016345 213.389757 
L 223.665655 213.261869 
L 224.314964 236.377269 
L 224.964273 215.968323 
L 225.613582 235.999134 
L 226.262891 219.61821 
L 226.9122 213.724902 
L 227.561509 228.43014 
L 228.210818 212.008454 
L 228.860127 209.648663 
L 229.509436 224.12489 
L 230.158745 215.065726 
L 230.808055 198.498131 
L 231.457364 221.921361 
L 232.106673 236.012549 
L 232.755982 215.493211 
L 233.405291 221.182807 
L 234.0546 220.526874 
L 234.703909 214.060535 
L 236.002527 210.531134 
L 236.651836 199.650892 
L 237.301145 194.57544 
L 237.950455 192.485903 
L 238.599764 200.99067 
L 239.249073 175.770818 
L 239.898382 188.856189 
L 240.547691 179.027755 
L 241.197 181.637638 
L 241.846309 165.665941 
L 242.495618 144.433685 
L 243.144927 152.139139 
L 243.794236 146.161286 
L 244.443545 136.083676 
L 245.092855 121.705471 
L 245.742164 129.258051 
L 246.391473 117.78436 
L 247.040782 116.94329 
L 247.690091 108.977044 
L 248.3394 90.232704 
L 248.988709 82.690179 
L 249.638018 51.966723 
L 250.287327 39.225382 
L 250.936636 68.103774 
L 251.585945 64.690034 
L 252.235255 58.943344 
L 252.884564 38.986972 
L 253.533873 43.064422 
L 254.183182 19.296 
L 254.832491 25.00392 
L 255.4818 39.266091 
L 256.131109 39.306269 
L 256.780418 20.855131 
L 257.429727 35.212711 
L 258.079036 32.717998 
L 258.728345 21.452859 
L 260.026964 50.906488 
L 260.676273 57.686461 
L 261.325582 60.217996 
L 261.974891 40.434525 
L 262.6242 72.868507 
L 263.273509 63.976325 
L 264.572127 92.186505 
L 265.221436 94.535651 
L 265.870745 110.779722 
L 266.520055 117.253732 
L 267.169364 129.24586 
L 267.818673 118.791606 
L 268.467982 148.100787 
L 269.117291 144.347791 
L 269.7666 179.916277 
L 270.415909 172.020616 
L 271.065218 167.967356 
L 271.714527 185.888737 
L 272.363836 186.150908 
L 273.013145 182.462933 
L 273.662455 211.641607 
L 274.311764 214.111694 
L 274.961073 214.297179 
L 275.610382 216.062425 
L 276.259691 215.545881 
L 276.909 238.003776 
L 277.558309 219.557124 
L 278.207618 239.44627 
L 278.856927 196.213875 
L 279.506236 218.223484 
L 280.155545 226.122598 
L 280.804855 229.50778 
L 281.454164 231.596352 
L 282.103473 220.250242 
L 282.752782 228.247431 
L 283.402091 217.294437 
L 284.0514 226.580438 
L 284.700709 238.205513 
L 285.350018 239.284288 
L 285.999327 237.065509 
L 286.648636 251.006491 
L 287.297945 233.691117 
L 287.947255 247.682478 
L 288.596564 225.861931 
L 289.245873 238.163356 
L 289.895182 243.646039 
L 291.1938 225.943457 
L 291.843109 243.943313 
L 292.492418 238.99541 
L 293.141727 226.382109 
L 293.791036 233.107768 
L 294.440345 241.514788 
L 295.089655 246.25528 
L 295.738964 249.71432 
L 296.388273 256.461024 
L 297.037582 256.511287 
L 297.686891 233.267485 
L 298.3362 232.50072 
L 298.985509 232.498397 
L 299.634818 232.356881 
L 300.284127 236.720846 
L 300.933436 236.68431 
L 302.232055 239.598088 
L 302.881364 230.316963 
L 303.530673 237.156974 
L 304.179982 249.434981 
L 304.829291 214.711695 
L 305.4786 243.125364 
L 306.127909 237.203012 
L 306.777218 246.56653 
L 307.426527 222.886442 
L 308.075836 238.762371 
L 308.725145 251.570775 
L 309.374455 233.760881 
L 310.023764 257.37394 
L 310.673073 242.650999 
L 311.322382 249.988889 
L 311.971691 220.728081 
L 312.621 240.912667 
L 313.270309 230.466419 
L 313.919618 227.35665 
L 314.568927 261.216 
L 315.218236 257.974263 
L 315.867545 228.179298 
L 316.516855 241.135657 
L 317.166164 248.269965 
L 317.815473 231.881464 
L 318.464782 236.925107 
L 319.114091 229.995696 
L 319.7634 246.714592 
L 320.412709 223.066638 
L 321.062018 229.561215 
L 321.711327 226.174595 
L 322.360636 235.224725 
L 323.009945 235.251317 
L 323.659255 231.811316 
L 324.308564 240.126777 
L 324.957873 237.900864 
L 325.607182 228.761113 
L 326.256491 228.495608 
L 326.9058 218.654263 
L 327.555109 242.189545 
L 328.204418 240.949643 
L 328.853727 238.756357 
L 329.503036 241.067233 
L 330.152345 239.691934 
L 330.801655 234.716468 
L 331.450964 233.701904 
L 332.100273 223.06658 
L 332.749582 229.169536 
L 333.398891 239.412091 
L 334.0482 220.47831 
L 334.697509 234.207499 
L 335.346818 215.727024 
L 335.996127 238.887948 
L 336.645436 233.474397 
L 337.294745 226.546083 
L 337.944055 248.264204 
L 338.593364 223.107677 
L 339.242673 211.99316 
L 339.891982 225.257748 
L 340.541291 217.601919 
L 341.1906 219.472416 
L 342.489218 226.57223 
L 343.138527 222.344639 
L 343.787836 230.209016 
L 344.437145 218.690562 
L 345.086455 232.779584 
L 345.735764 215.62289 
L 346.385073 232.37061 
L 347.034382 221.82654 
L 347.683691 230.874288 
L 348.333 249.183419 
L 348.982309 221.32602 
L 349.631618 227.947848 
L 350.280927 219.443465 
L 350.930236 208.688746 
L 351.579545 235.805194 
L 352.228855 235.662351 
L 352.878164 231.378085 
L 353.527473 213.823525 
L 354.176782 210.314441 
L 354.826091 203.126542 
L 355.4754 222.994838 
L 356.124709 220.904508 
L 356.774018 226.182211 
L 357.423327 213.166645 
L 358.072636 210.971052 
L 358.721945 218.856841 
L 359.371255 211.913841 
L 360.020564 225.145294 
L 360.669873 219.77162 
L 361.319182 212.421396 
L 361.968491 230.745384 
L 362.6178 225.114564 
L 363.267109 211.432864 
L 363.916418 213.892912 
L 364.565727 203.950341 
L 365.215036 219.395526 
L 365.864345 200.281905 
L 366.513655 205.360529 
L 367.162964 228.415001 
L 367.812273 207.383459 
L 367.812273 207.383459 
" clip-path="url(#p15cbb4ca35)" style="fill: none; stroke: #1f77b4; stroke-width: 1.5; stroke-linecap: square"/>
   </g>
   <g id="patch_3">
    <path d="M 26.925 273.312 
L 26.925 7.2 
" style="fill: none; stroke: #000000; stroke-width: 0.8; stroke-linejoin: miter; stroke-linecap: square"/>
   </g>
   <g id="patch_4">
    <path d="M 384.045 273.312 
L 384.045 7.2 
" style="fill: none; stroke: #000000; stroke-width: 0.8; stroke-linejoin: miter; stroke-linecap: square"/>
   </g>
   <g id="patch_5">
    <path d="M 26.925 273.312 
L 384.045 273.312 
" style="fill: none; stroke: #000000; stroke-width: 0.8; stroke-linejoin: miter; stroke-linecap: square"/>
   </g>
   <g id="patch_6">
    <path d="M 26.925 7.2 
L 384.045 7.2 
" style="fill: none; stroke: #000000; stroke-width: 0.8; stroke-linejoin: miter; stroke-linecap: square"/>
   </g>
   <g id="legend_1">
    <g id="patch_7">
     <path d="M 322.52 29.878125 
L 377.045 29.878125 
Q 379.045 29.878125 379.045 27.878125 
L 379.045 14.2 
Q 379.045 12.2 377.045 12.2 
L 322.52 12.2 
Q 320.52 12.2 320.52 14.2 
L 320.52 27.878125 
Q 320.52 29.878125 322.52 29.878125 
z
" style="fill: #ffffff; opacity: 0.8; stroke: #cccccc; stroke-linejoin: miter"/>
    </g>
    <g id="line2d_17">
     <path d="M 324.52 20.298437 
L 334.52 20.298437 
L 344.52 20.298437 
" style="fill: none; stroke: #1f77b4; stroke-width: 1.5; stroke-linecap: square"/>
    </g>
    <g id="text_16">
     <!-- data -->
     <g transform="translate(352.52 23.798437) scale(0.1 -0.1)">
      <defs>
       <path id="DejaVuSans-64" d="M 2906 2969 
L 2906 4863 
L 3481 4863 
L 3481 0 
L 2906 0 
L 2906 525 
Q 2725 213 2448 61 
Q 2172 -91 1784 -91 
Q 1150 -91 751 415 
Q 353 922 353 1747 
Q 353 2572 751 3078 
Q 1150 3584 1784 3584 
Q 2172 3584 2448 3432 
Q 2725 3281 2906 2969 
z
M 947 1747 
Q 947 1113 1208 752 
Q 1469 391 1925 391 
Q 2381 391 2643 752 
Q 2906 1113 2906 1747 
Q 2906 2381 2643 2742 
Q 2381 3103 1925 3103 
Q 1469 3103 1208 2742 
Q 947 2381 947 1747 
z
" transform="scale(0.015625)"/>
       <path id="DejaVuSans-61" d="M 2194 1759 
Q 1497 1759 1228 1600 
Q 959 1441 959 1056 
Q 959 750 1161 570 
Q 1363 391 1709 391 
Q 2188 391 2477 730 
Q 2766 1069 2766 1631 
L 2766 1759 
L 2194 1759 
z
M 3341 1997 
L 3341 0 
L 2766 0 
L 2766 531 
Q 2569 213 2275 61 
Q 1981 -91 1556 -91 
Q 1019 -91 701 211 
Q 384 513 384 1019 
Q 384 1609 779 1909 
Q 1175 2209 1959 2209 
L 2766 2209 
L 2766 2266 
Q 2766 2663 2505 2880 
Q 2244 3097 1772 3097 
Q 1472 3097 1187 3025 
Q 903 2953 641 2809 
L 641 3341 
Q 956 3463 1253 3523 
Q 1550 3584 1831 3584 
Q 2591 3584 2966 3190 
Q 3341 2797 3341 1997 
z
" transform="scale(0.015625)"/>
       <path id="DejaVuSans-74" d="M 1172 4494 
L 1172 3500 
L 2356 3500 
L 2356 3053 
L 1172 3053 
L 1172 1153 
Q 1172 725 1289 603 
Q 1406 481 1766 481 
L 2356 481 
L 2356 0 
L 1766 0 
Q 1100 0 847 248 
Q 594 497 594 1153 
L 594 3053 
L 172 3053 
L 172 3500 
L 594 3500 
L 594 4494 
L 1172 4494 
z
" transform="scale(0.015625)"/>
      </defs>
      <use xlink:href="#DejaVuSans-64"/>
      <use xlink:href="#DejaVuSans-61" x="63.476562"/>
      <use xlink:href="#DejaVuSans-74" x="124.755859"/>
      <use xlink:href="#DejaVuSans-61" x="163.964844"/>
     </g>
    </g>
   </g>
  </g>
 </g>
 <defs>
  <clipPath id="p15cbb4ca35">
   <rect x="26.925" y="7.2" width="357.12" height="266.112"/>
  </clipPath>
 </defs>
</svg>
