<?xml version="1.0" encoding="utf-8" standalone="no"?>
<!DOCTYPE svg PUBLIC "-//W3C//DTD SVG 1.1//EN"
  "http://www.w3.org/Graphics/SVG/1.1/DTD/svg11.dtd">
<svg height="248.518125pt" version="1.1" viewBox="0 0 368.925 248.518125" width="368.925pt" xmlns="http://www.w3.org/2000/svg" xmlns:xlink="http://www.w3.org/1999/xlink">
 <metadata>
  <rdf:RDF xmlns:cc="http://creativecommons.org/ns#" xmlns:dc="http://purl.org/dc/elements/1.1/" xmlns:rdf="http://www.w3.org/1999/02/22-rdf-syntax-ns#">
   <cc:Work>
    <dc:type rdf:resource="http://purl.org/dc/dcmitype/StillImage"/>
    <dc:date>2021-10-14T14:44:27.828393</dc:date>
    <dc:format>image/svg+xml</dc:format>
    <dc:creator>
     <cc:Agent>
      <dc:title>Matplotlib v3.4.2, https://matplotlib.org/</dc:title>
     </cc:Agent>
    </dc:creator>
   </cc:Work>
  </rdf:RDF>
 </metadata>
 <defs>
  <style type="text/css">*{stroke-linecap:butt;stroke-linejoin:round;}</style>
 </defs>
 <g id="figure_1">
  <g id="patch_1">
   <path d="M -0 248.518125 
L 368.925 248.518125 
L 368.925 0 
L -0 0 
z
" style="fill:none;"/>
  </g>
  <g id="axes_1">
   <g id="patch_2">
    <path d="M 26.925 224.64 
L 361.725 224.64 
L 361.725 7.2 
L 26.925 7.2 
z
" style="fill:#ffffff;"/>
   </g>
   <g id="matplotlib.axis_1">
    <g id="xtick_1">
     <g id="line2d_1">
      <defs>
       <path d="M 0 0 
L 0 3.5 
" id="m4b23fabab4" style="stroke:#000000;stroke-width:0.8;"/>
      </defs>
      <g>
       <use style="stroke:#000000;stroke-width:0.8;" x="42.143182" xlink:href="#m4b23fabab4" y="224.64"/>
      </g>
     </g>
     <g id="text_1">
      <!-- 0.0 -->
      <g transform="translate(34.191619 239.238437)scale(0.1 -0.1)">
       <defs>
        <path d="M 2034 4250 
Q 1547 4250 1301 3770 
Q 1056 3291 1056 2328 
Q 1056 1369 1301 889 
Q 1547 409 2034 409 
Q 2525 409 2770 889 
Q 3016 1369 3016 2328 
Q 3016 3291 2770 3770 
Q 2525 4250 2034 4250 
z
M 2034 4750 
Q 2819 4750 3233 4129 
Q 3647 3509 3647 2328 
Q 3647 1150 3233 529 
Q 2819 -91 2034 -91 
Q 1250 -91 836 529 
Q 422 1150 422 2328 
Q 422 3509 836 4129 
Q 1250 4750 2034 4750 
z
" id="DejaVuSans-30" transform="scale(0.015625)"/>
        <path d="M 684 794 
L 1344 794 
L 1344 0 
L 684 0 
L 684 794 
z
" id="DejaVuSans-2e" transform="scale(0.015625)"/>
       </defs>
       <use xlink:href="#DejaVuSans-30"/>
       <use x="63.623047" xlink:href="#DejaVuSans-2e"/>
       <use x="95.410156" xlink:href="#DejaVuSans-30"/>
      </g>
     </g>
    </g>
    <g id="xtick_2">
     <g id="line2d_2">
      <g>
       <use style="stroke:#000000;stroke-width:0.8;" x="80.188636" xlink:href="#m4b23fabab4" y="224.64"/>
      </g>
     </g>
     <g id="text_2">
      <!-- 2.5 -->
      <g transform="translate(72.237074 239.238437)scale(0.1 -0.1)">
       <defs>
        <path d="M 1228 531 
L 3431 531 
L 3431 0 
L 469 0 
L 469 531 
Q 828 903 1448 1529 
Q 2069 2156 2228 2338 
Q 2531 2678 2651 2914 
Q 2772 3150 2772 3378 
Q 2772 3750 2511 3984 
Q 2250 4219 1831 4219 
Q 1534 4219 1204 4116 
Q 875 4013 500 3803 
L 500 4441 
Q 881 4594 1212 4672 
Q 1544 4750 1819 4750 
Q 2544 4750 2975 4387 
Q 3406 4025 3406 3419 
Q 3406 3131 3298 2873 
Q 3191 2616 2906 2266 
Q 2828 2175 2409 1742 
Q 1991 1309 1228 531 
z
" id="DejaVuSans-32" transform="scale(0.015625)"/>
        <path d="M 691 4666 
L 3169 4666 
L 3169 4134 
L 1269 4134 
L 1269 2991 
Q 1406 3038 1543 3061 
Q 1681 3084 1819 3084 
Q 2600 3084 3056 2656 
Q 3513 2228 3513 1497 
Q 3513 744 3044 326 
Q 2575 -91 1722 -91 
Q 1428 -91 1123 -41 
Q 819 9 494 109 
L 494 744 
Q 775 591 1075 516 
Q 1375 441 1709 441 
Q 2250 441 2565 725 
Q 2881 1009 2881 1497 
Q 2881 1984 2565 2268 
Q 2250 2553 1709 2553 
Q 1456 2553 1204 2497 
Q 953 2441 691 2322 
L 691 4666 
z
" id="DejaVuSans-35" transform="scale(0.015625)"/>
       </defs>
       <use xlink:href="#DejaVuSans-32"/>
       <use x="63.623047" xlink:href="#DejaVuSans-2e"/>
       <use x="95.410156" xlink:href="#DejaVuSans-35"/>
      </g>
     </g>
    </g>
    <g id="xtick_3">
     <g id="line2d_3">
      <g>
       <use style="stroke:#000000;stroke-width:0.8;" x="118.234091" xlink:href="#m4b23fabab4" y="224.64"/>
      </g>
     </g>
     <g id="text_3">
      <!-- 5.0 -->
      <g transform="translate(110.282528 239.238437)scale(0.1 -0.1)">
       <use xlink:href="#DejaVuSans-35"/>
       <use x="63.623047" xlink:href="#DejaVuSans-2e"/>
       <use x="95.410156" xlink:href="#DejaVuSans-30"/>
      </g>
     </g>
    </g>
    <g id="xtick_4">
     <g id="line2d_4">
      <g>
       <use style="stroke:#000000;stroke-width:0.8;" x="156.279545" xlink:href="#m4b23fabab4" y="224.64"/>
      </g>
     </g>
     <g id="text_4">
      <!-- 7.5 -->
      <g transform="translate(148.327983 239.238437)scale(0.1 -0.1)">
       <defs>
        <path d="M 525 4666 
L 3525 4666 
L 3525 4397 
L 1831 0 
L 1172 0 
L 2766 4134 
L 525 4134 
L 525 4666 
z
" id="DejaVuSans-37" transform="scale(0.015625)"/>
       </defs>
       <use xlink:href="#DejaVuSans-37"/>
       <use x="63.623047" xlink:href="#DejaVuSans-2e"/>
       <use x="95.410156" xlink:href="#DejaVuSans-35"/>
      </g>
     </g>
    </g>
    <g id="xtick_5">
     <g id="line2d_5">
      <g>
       <use style="stroke:#000000;stroke-width:0.8;" x="194.325" xlink:href="#m4b23fabab4" y="224.64"/>
      </g>
     </g>
     <g id="text_5">
      <!-- 10.0 -->
      <g transform="translate(183.192188 239.238437)scale(0.1 -0.1)">
       <defs>
        <path d="M 794 531 
L 1825 531 
L 1825 4091 
L 703 3866 
L 703 4441 
L 1819 4666 
L 2450 4666 
L 2450 531 
L 3481 531 
L 3481 0 
L 794 0 
L 794 531 
z
" id="DejaVuSans-31" transform="scale(0.015625)"/>
       </defs>
       <use xlink:href="#DejaVuSans-31"/>
       <use x="63.623047" xlink:href="#DejaVuSans-30"/>
       <use x="127.246094" xlink:href="#DejaVuSans-2e"/>
       <use x="159.033203" xlink:href="#DejaVuSans-30"/>
      </g>
     </g>
    </g>
    <g id="xtick_6">
     <g id="line2d_6">
      <g>
       <use style="stroke:#000000;stroke-width:0.8;" x="232.370455" xlink:href="#m4b23fabab4" y="224.64"/>
      </g>
     </g>
     <g id="text_6">
      <!-- 12.5 -->
      <g transform="translate(221.237642 239.238437)scale(0.1 -0.1)">
       <use xlink:href="#DejaVuSans-31"/>
       <use x="63.623047" xlink:href="#DejaVuSans-32"/>
       <use x="127.246094" xlink:href="#DejaVuSans-2e"/>
       <use x="159.033203" xlink:href="#DejaVuSans-35"/>
      </g>
     </g>
    </g>
    <g id="xtick_7">
     <g id="line2d_7">
      <g>
       <use style="stroke:#000000;stroke-width:0.8;" x="270.415909" xlink:href="#m4b23fabab4" y="224.64"/>
      </g>
     </g>
     <g id="text_7">
      <!-- 15.0 -->
      <g transform="translate(259.283097 239.238437)scale(0.1 -0.1)">
       <use xlink:href="#DejaVuSans-31"/>
       <use x="63.623047" xlink:href="#DejaVuSans-35"/>
       <use x="127.246094" xlink:href="#DejaVuSans-2e"/>
       <use x="159.033203" xlink:href="#DejaVuSans-30"/>
      </g>
     </g>
    </g>
    <g id="xtick_8">
     <g id="line2d_8">
      <g>
       <use style="stroke:#000000;stroke-width:0.8;" x="308.461364" xlink:href="#m4b23fabab4" y="224.64"/>
      </g>
     </g>
     <g id="text_8">
      <!-- 17.5 -->
      <g transform="translate(297.328551 239.238437)scale(0.1 -0.1)">
       <use xlink:href="#DejaVuSans-31"/>
       <use x="63.623047" xlink:href="#DejaVuSans-37"/>
       <use x="127.246094" xlink:href="#DejaVuSans-2e"/>
       <use x="159.033203" xlink:href="#DejaVuSans-35"/>
      </g>
     </g>
    </g>
    <g id="xtick_9">
     <g id="line2d_9">
      <g>
       <use style="stroke:#000000;stroke-width:0.8;" x="346.506818" xlink:href="#m4b23fabab4" y="224.64"/>
      </g>
     </g>
     <g id="text_9">
      <!-- 20.0 -->
      <g transform="translate(335.374006 239.238437)scale(0.1 -0.1)">
       <use xlink:href="#DejaVuSans-32"/>
       <use x="63.623047" xlink:href="#DejaVuSans-30"/>
       <use x="127.246094" xlink:href="#DejaVuSans-2e"/>
       <use x="159.033203" xlink:href="#DejaVuSans-30"/>
      </g>
     </g>
    </g>
   </g>
   <g id="matplotlib.axis_2">
    <g id="ytick_1">
     <g id="line2d_10">
      <defs>
       <path d="M 0 0 
L -3.5 0 
" id="m00ddec8ae8" style="stroke:#000000;stroke-width:0.8;"/>
      </defs>
      <g>
       <use style="stroke:#000000;stroke-width:0.8;" x="26.925" xlink:href="#m00ddec8ae8" y="208.90992"/>
      </g>
     </g>
     <g id="text_10">
      <!-- 0 -->
      <g transform="translate(13.5625 212.709138)scale(0.1 -0.1)">
       <use xlink:href="#DejaVuSans-30"/>
      </g>
     </g>
    </g>
    <g id="ytick_2">
     <g id="line2d_11">
      <g>
       <use style="stroke:#000000;stroke-width:0.8;" x="26.925" xlink:href="#m00ddec8ae8" y="172.20516"/>
      </g>
     </g>
     <g id="text_11">
      <!-- 2 -->
      <g transform="translate(13.5625 176.004379)scale(0.1 -0.1)">
       <use xlink:href="#DejaVuSans-32"/>
      </g>
     </g>
    </g>
    <g id="ytick_3">
     <g id="line2d_12">
      <g>
       <use style="stroke:#000000;stroke-width:0.8;" x="26.925" xlink:href="#m00ddec8ae8" y="135.500401"/>
      </g>
     </g>
     <g id="text_12">
      <!-- 4 -->
      <g transform="translate(13.5625 139.29962)scale(0.1 -0.1)">
       <defs>
        <path d="M 2419 4116 
L 825 1625 
L 2419 1625 
L 2419 4116 
z
M 2253 4666 
L 3047 4666 
L 3047 1625 
L 3713 1625 
L 3713 1100 
L 3047 1100 
L 3047 0 
L 2419 0 
L 2419 1100 
L 313 1100 
L 313 1709 
L 2253 4666 
z
" id="DejaVuSans-34" transform="scale(0.015625)"/>
       </defs>
       <use xlink:href="#DejaVuSans-34"/>
      </g>
     </g>
    </g>
    <g id="ytick_4">
     <g id="line2d_13">
      <g>
       <use style="stroke:#000000;stroke-width:0.8;" x="26.925" xlink:href="#m00ddec8ae8" y="98.795642"/>
      </g>
     </g>
     <g id="text_13">
      <!-- 6 -->
      <g transform="translate(13.5625 102.594861)scale(0.1 -0.1)">
       <defs>
        <path d="M 2113 2584 
Q 1688 2584 1439 2293 
Q 1191 2003 1191 1497 
Q 1191 994 1439 701 
Q 1688 409 2113 409 
Q 2538 409 2786 701 
Q 3034 994 3034 1497 
Q 3034 2003 2786 2293 
Q 2538 2584 2113 2584 
z
M 3366 4563 
L 3366 3988 
Q 3128 4100 2886 4159 
Q 2644 4219 2406 4219 
Q 1781 4219 1451 3797 
Q 1122 3375 1075 2522 
Q 1259 2794 1537 2939 
Q 1816 3084 2150 3084 
Q 2853 3084 3261 2657 
Q 3669 2231 3669 1497 
Q 3669 778 3244 343 
Q 2819 -91 2113 -91 
Q 1303 -91 875 529 
Q 447 1150 447 2328 
Q 447 3434 972 4092 
Q 1497 4750 2381 4750 
Q 2619 4750 2861 4703 
Q 3103 4656 3366 4563 
z
" id="DejaVuSans-36" transform="scale(0.015625)"/>
       </defs>
       <use xlink:href="#DejaVuSans-36"/>
      </g>
     </g>
    </g>
    <g id="ytick_5">
     <g id="line2d_14">
      <g>
       <use style="stroke:#000000;stroke-width:0.8;" x="26.925" xlink:href="#m00ddec8ae8" y="62.090883"/>
      </g>
     </g>
     <g id="text_14">
      <!-- 8 -->
      <g transform="translate(13.5625 65.890102)scale(0.1 -0.1)">
       <defs>
        <path d="M 2034 2216 
Q 1584 2216 1326 1975 
Q 1069 1734 1069 1313 
Q 1069 891 1326 650 
Q 1584 409 2034 409 
Q 2484 409 2743 651 
Q 3003 894 3003 1313 
Q 3003 1734 2745 1975 
Q 2488 2216 2034 2216 
z
M 1403 2484 
Q 997 2584 770 2862 
Q 544 3141 544 3541 
Q 544 4100 942 4425 
Q 1341 4750 2034 4750 
Q 2731 4750 3128 4425 
Q 3525 4100 3525 3541 
Q 3525 3141 3298 2862 
Q 3072 2584 2669 2484 
Q 3125 2378 3379 2068 
Q 3634 1759 3634 1313 
Q 3634 634 3220 271 
Q 2806 -91 2034 -91 
Q 1263 -91 848 271 
Q 434 634 434 1313 
Q 434 1759 690 2068 
Q 947 2378 1403 2484 
z
M 1172 3481 
Q 1172 3119 1398 2916 
Q 1625 2713 2034 2713 
Q 2441 2713 2670 2916 
Q 2900 3119 2900 3481 
Q 2900 3844 2670 4047 
Q 2441 4250 2034 4250 
Q 1625 4250 1398 4047 
Q 1172 3844 1172 3481 
z
" id="DejaVuSans-38" transform="scale(0.015625)"/>
       </defs>
       <use xlink:href="#DejaVuSans-38"/>
      </g>
     </g>
    </g>
    <g id="ytick_6">
     <g id="line2d_15">
      <g>
       <use style="stroke:#000000;stroke-width:0.8;" x="26.925" xlink:href="#m00ddec8ae8" y="25.386124"/>
      </g>
     </g>
     <g id="text_15">
      <!-- 10 -->
      <g transform="translate(7.2 29.185343)scale(0.1 -0.1)">
       <use xlink:href="#DejaVuSans-31"/>
       <use x="63.623047" xlink:href="#DejaVuSans-30"/>
      </g>
     </g>
    </g>
   </g>
   <g id="line2d_16">
    <path clip-path="url(#pab9a2c2128)" d="M 42.143182 208.512517 
L 42.904091 208.557168 
L 43.665 211.605535 
L 45.186818 201.837518 
L 45.947727 201.087585 
L 46.708636 208.556801 
L 47.469545 207.523067 
L 48.230455 205.362331 
L 48.991364 204.549211 
L 49.752273 210.874927 
L 50.513182 205.1105 
L 51.274091 207.010797 
L 52.035 205.697647 
L 52.795909 208.504809 
L 53.556818 207.615893 
L 54.317727 201.494806 
L 55.839545 211.454495 
L 56.600455 206.161045 
L 57.361364 205.008479 
L 58.122273 206.455399 
L 58.883182 205.421774 
L 59.644091 213.57559 
L 60.405 204.262877 
L 61.165909 207.814961 
L 61.926818 205.468243 
L 62.687727 204.253113 
L 63.448636 209.594573 
L 64.209545 207.432314 
L 64.970455 208.678551 
L 65.731364 204.790269 
L 66.492273 203.928808 
L 67.253182 206.742999 
L 68.014091 210.336321 
L 68.775 205.894073 
L 69.535909 208.439842 
L 70.296818 209.549757 
L 71.057727 207.644193 
L 71.818636 210.804582 
L 72.579545 207.690973 
L 73.340455 203.920825 
L 74.101364 206.358039 
L 74.862273 205.93621 
L 75.623182 209.540269 
L 76.384091 206.417446 
L 77.145 207.664564 
L 77.905909 211.879188 
L 78.666818 206.089122 
L 79.427727 207.60591 
L 80.188636 209.80937 
L 80.949545 205.178771 
L 81.710455 205.948928 
L 82.471364 205.252676 
L 83.232273 204.277485 
L 83.993182 202.38541 
L 84.754091 210.702507 
L 85.515 204.238633 
L 86.275909 204.924021 
L 87.036818 206.076771 
L 87.797727 210.045565 
L 88.558636 206.55452 
L 89.319545 205.130412 
L 90.080455 202.492735 
L 90.841364 207.343709 
L 91.602273 206.604989 
L 92.363182 204.241423 
L 93.124091 208.791437 
L 93.885 207.374303 
L 94.645909 206.586031 
L 95.406818 206.486892 
L 96.167727 202.170357 
L 97.689545 208.98432 
L 98.450455 207.586493 
L 99.211364 201.876076 
L 99.972273 204.832608 
L 100.733182 207.100467 
L 101.494091 202.953508 
L 102.255 206.608182 
L 103.015909 204.974857 
L 103.776818 203.633629 
L 104.537727 204.678246 
L 105.298636 206.321592 
L 106.059545 202.647702 
L 106.820455 205.91861 
L 107.581364 205.70308 
L 108.342273 200.04394 
L 109.103182 197.265316 
L 109.864091 206.115439 
L 110.625 200.819915 
L 111.385909 206.610752 
L 112.146818 203.357113 
L 112.907727 197.665894 
L 113.668636 209.336172 
L 114.429545 200.078773 
L 115.190455 207.054567 
L 115.951364 198.408743 
L 116.712273 201.667612 
L 117.473182 200.448059 
L 118.234091 210.863365 
L 118.995 197.246891 
L 119.755909 200.822485 
L 120.516818 202.743905 
L 121.277727 198.496853 
L 122.038636 198.106589 
L 122.799545 207.050658 
L 123.560455 202.105408 
L 124.321364 199.148307 
L 125.082273 202.540469 
L 125.843182 201.791729 
L 126.604091 201.289222 
L 127.365 200.471495 
L 128.125909 198.64525 
L 128.886818 199.233224 
L 129.647727 196.811627 
L 130.408636 197.042262 
L 131.169545 192.904314 
L 131.930455 199.617449 
L 132.691364 193.625305 
L 133.452273 196.75646 
L 134.213182 196.68283 
L 134.974091 195.228478 
L 135.735 194.717969 
L 136.495909 193.845479 
L 137.256818 191.478224 
L 138.017727 190.562165 
L 138.778636 186.980331 
L 139.539545 191.517443 
L 140.300455 189.921281 
L 141.061364 190.471908 
L 141.822273 187.700038 
L 142.583182 180.622424 
L 143.344091 184.273281 
L 144.105 181.78536 
L 144.865909 183.66301 
L 145.626818 176.536671 
L 146.387727 178.841289 
L 147.148636 178.580098 
L 147.909545 169.90335 
L 148.670455 175.02994 
L 149.431364 172.04744 
L 150.192273 172.804788 
L 150.953182 164.481947 
L 151.714091 154.103603 
L 152.475 157.228352 
L 153.235909 157.903445 
L 153.996818 163.898763 
L 154.757727 150.496002 
L 155.518636 147.517374 
L 156.279545 149.989495 
L 157.040455 142.277531 
L 157.801364 139.418873 
L 158.562273 130.209264 
L 159.323182 133.52218 
L 160.084091 131.400645 
L 160.845 120.409478 
L 161.605909 119.850832 
L 162.366818 114.329794 
L 163.127727 107.225716 
L 164.649545 99.430084 
L 165.410455 100.750079 
L 166.171364 89.24545 
L 167.693182 80.758722 
L 168.454091 82.795836 
L 169.215 73.440178 
L 169.975909 75.025402 
L 170.736818 66.307893 
L 171.497727 64.750051 
L 172.258636 58.811405 
L 173.019545 48.551122 
L 173.780455 49.990646 
L 174.541364 48.106627 
L 175.302273 37.766511 
L 176.063182 31.005953 
L 176.824091 34.687881 
L 177.585 28.31933 
L 178.345909 32.885219 
L 179.106818 27.327476 
L 179.867727 29.393935 
L 180.628636 29.294062 
L 181.389545 26.404975 
L 182.911364 17.083636 
L 183.672273 21.745893 
L 184.433182 21.345004 
L 185.194091 23.706533 
L 185.955 28.983998 
L 186.715909 25.818194 
L 187.476818 31.90166 
L 188.237727 31.765558 
L 188.998636 37.039959 
L 189.759545 41.140504 
L 190.520455 41.471012 
L 191.281364 49.777575 
L 192.042273 46.844424 
L 192.803182 50.847078 
L 193.564091 58.410038 
L 195.085909 66.017375 
L 195.846818 67.058689 
L 196.607727 75.173818 
L 197.368636 84.59826 
L 198.129545 83.732413 
L 198.890455 84.279057 
L 199.651364 92.839414 
L 200.412273 97.391649 
L 201.173182 103.035538 
L 201.934091 102.704039 
L 202.695 106.986493 
L 203.455909 114.811489 
L 204.216818 118.941875 
L 204.977727 118.434689 
L 205.738636 132.359098 
L 206.499545 129.925646 
L 207.260455 139.766504 
L 208.782273 138.898216 
L 210.304091 152.413477 
L 211.065 157.711424 
L 211.825909 160.824299 
L 212.586818 164.562661 
L 213.347727 164.299543 
L 214.108636 167.275987 
L 214.869545 167.883212 
L 215.630455 166.490909 
L 216.391364 172.109343 
L 217.152273 172.751529 
L 217.913182 173.89391 
L 218.674091 176.829593 
L 219.435 181.717015 
L 220.195909 181.030324 
L 220.956818 176.286399 
L 221.717727 188.069067 
L 222.478636 184.210168 
L 223.239545 189.699071 
L 224.000455 189.816544 
L 224.761364 192.603573 
L 225.522273 190.650366 
L 226.283182 190.52067 
L 227.044091 186.229333 
L 227.805 189.992397 
L 228.565909 192.500892 
L 229.326818 193.505226 
L 230.087727 198.545175 
L 230.848636 198.944137 
L 231.609545 189.31457 
L 232.370455 198.4667 
L 233.131364 198.885923 
L 233.892273 194.819862 
L 234.653182 202.068263 
L 235.414091 199.6229 
L 236.175 207.184686 
L 236.935909 196.842294 
L 237.696818 196.249586 
L 238.457727 204.595752 
L 239.218636 199.515703 
L 239.979545 199.812094 
L 240.740455 195.692389 
L 241.501364 200.486691 
L 242.262273 199.456535 
L 243.023182 200.696863 
L 243.784091 203.232097 
L 244.545 202.74352 
L 245.305909 201.500275 
L 246.066818 205.71956 
L 246.827727 198.954378 
L 247.588636 200.913641 
L 248.349545 199.682325 
L 249.110455 204.197799 
L 249.871364 203.959475 
L 250.632273 205.164015 
L 251.393182 204.878746 
L 252.154091 197.969956 
L 252.915 203.906987 
L 253.675909 204.723283 
L 254.436818 203.25445 
L 255.197727 207.710995 
L 255.958636 199.893542 
L 256.719545 199.828832 
L 257.480455 203.004436 
L 258.241364 205.289601 
L 259.002273 197.858832 
L 259.763182 206.065007 
L 260.524091 202.791823 
L 261.285 204.137603 
L 262.045909 206.173763 
L 262.806818 205.885117 
L 263.567727 208.322441 
L 264.328636 200.451675 
L 265.089545 203.855252 
L 265.850455 202.609401 
L 266.611364 202.506811 
L 267.372273 202.757321 
L 268.133182 204.803189 
L 268.894091 207.881801 
L 269.655 206.225572 
L 270.415909 203.478037 
L 271.176818 208.373002 
L 271.937727 205.446458 
L 272.698636 205.501644 
L 273.459545 209.097628 
L 274.220455 210.294386 
L 274.981364 209.827116 
L 275.742273 206.036946 
L 276.503182 206.364995 
L 277.264091 201.00733 
L 278.025 206.941939 
L 278.785909 203.980305 
L 279.546818 205.384189 
L 280.307727 210.544786 
L 281.068636 207.503228 
L 281.829545 199.832722 
L 282.590455 203.323987 
L 283.351364 203.185739 
L 284.873182 209.557722 
L 285.634091 200.78868 
L 286.395 206.538609 
L 287.155909 205.191764 
L 287.916818 209.610944 
L 288.677727 205.882805 
L 289.438636 207.263216 
L 290.199545 209.448342 
L 290.960455 203.006308 
L 291.721364 208.874922 
L 293.243182 195.948588 
L 294.004091 205.434364 
L 294.765 205.101727 
L 295.525909 204.270805 
L 296.286818 202.713202 
L 298.569545 212.586287 
L 299.330455 207.742341 
L 300.091364 208.643571 
L 300.852273 207.242092 
L 301.613182 204.108074 
L 302.374091 206.327171 
L 303.135 202.4597 
L 303.895909 213.001895 
L 304.656818 205.376646 
L 305.417727 210.438966 
L 306.939545 201.72098 
L 307.700455 210.586575 
L 308.461364 211.09176 
L 309.222273 209.916437 
L 309.983182 205.601077 
L 310.744091 207.709692 
L 311.505 203.055235 
L 312.265909 205.857405 
L 313.026818 205.113271 
L 313.787727 206.916759 
L 314.548636 207.34092 
L 315.309545 203.942242 
L 316.070455 204.494429 
L 316.831364 203.407472 
L 317.592273 209.644162 
L 318.353182 203.288971 
L 319.114091 209.596978 
L 319.875 208.797456 
L 320.635909 204.794747 
L 321.396818 207.90621 
L 322.157727 206.342091 
L 322.918636 210.370916 
L 323.679545 212.862802 
L 324.440455 210.070175 
L 325.201364 208.679414 
L 325.962273 211.449595 
L 326.723182 202.915629 
L 328.245 209.882761 
L 329.005909 209.441404 
L 329.766818 207.933738 
L 330.527727 204.515259 
L 331.288636 204.761015 
L 332.049545 209.212899 
L 332.810455 206.05862 
L 333.571364 205.490431 
L 334.332273 207.499007 
L 335.093182 205.521336 
L 335.854091 205.331591 
L 336.615 206.086865 
L 337.375909 207.467441 
L 338.136818 207.402712 
L 338.897727 207.634117 
L 339.658636 205.807633 
L 341.180455 211.580796 
L 341.941364 214.686441 
L 342.702273 201.39117 
L 343.463182 210.216921 
L 344.224091 214.756364 
L 344.985 205.990074 
L 345.745909 209.17034 
L 346.506818 210.588685 
L 346.506818 210.588685 
" style="fill:none;stroke:#1f77b4;stroke-linecap:square;stroke-width:1.5;"/>
   </g>
   <g id="line2d_17">
    <path clip-path="url(#pab9a2c2128)" d="M 42.143182 208.90992 
L 110.625 208.800665 
L 116.712273 208.548331 
L 120.516818 208.185764 
L 123.560455 207.684587 
L 125.843182 207.123178 
L 128.125909 206.342875 
L 130.408636 205.276051 
L 131.930455 204.366137 
L 133.452273 203.265681 
L 134.974091 201.944733 
L 136.495909 200.371063 
L 138.017727 198.510568 
L 139.539545 196.327842 
L 141.061364 193.786918 
L 142.583182 190.852188 
L 144.105 187.489502 
L 145.626818 183.667427 
L 147.148636 179.358653 
L 148.670455 174.541503 
L 150.953182 166.333286 
L 153.235909 156.94059 
L 155.518636 146.408927 
L 157.801364 134.848726 
L 160.845 118.159031 
L 169.975909 66.355479 
L 172.258636 55.121647 
L 173.780455 48.471155 
L 175.302273 42.631857 
L 176.824091 37.71134 
L 178.345909 33.802352 
L 179.106818 32.251384 
L 179.867727 30.979899 
L 180.628636 29.99411 
L 181.389545 29.29885 
L 182.150455 28.897543 
L 182.911364 28.792165 
L 183.672273 28.983238 
L 184.433182 29.469819 
L 185.194091 30.249508 
L 185.955 31.318474 
L 186.715909 32.671478 
L 187.476818 34.301921 
L 188.998636 38.362252 
L 190.520455 43.421736 
L 192.042273 49.385288 
L 193.564091 56.143442 
L 195.846818 67.504776 
L 198.890455 84.256793 
L 208.021364 136.003391 
L 210.304091 147.471189 
L 212.586818 157.896781 
L 214.869545 167.176318 
L 217.152273 175.270098 
L 218.674091 180.01266 
L 220.195909 184.249571 
L 221.717727 188.003421 
L 223.239545 191.302206 
L 224.761364 194.177836 
L 226.283182 196.664746 
L 227.805 198.79866 
L 229.326818 200.615516 
L 230.848636 202.150575 
L 232.370455 203.437699 
L 233.892273 204.508811 
L 236.175 205.774493 
L 238.457727 206.709046 
L 240.740455 207.387769 
L 243.784091 208.000154 
L 246.827727 208.380306 
L 251.393182 208.686021 
L 258.241364 208.854849 
L 272.698636 208.90808 
L 346.506818 208.90992 
L 346.506818 208.90992 
" style="fill:none;stroke:#ff7f0e;stroke-linecap:square;stroke-width:1.5;"/>
   </g>
   <g id="patch_3">
    <path d="M 26.925 224.64 
L 26.925 7.2 
" style="fill:none;stroke:#000000;stroke-linecap:square;stroke-linejoin:miter;stroke-width:0.8;"/>
   </g>
   <g id="patch_4">
    <path d="M 361.725 224.64 
L 361.725 7.2 
" style="fill:none;stroke:#000000;stroke-linecap:square;stroke-linejoin:miter;stroke-width:0.8;"/>
   </g>
   <g id="patch_5">
    <path d="M 26.925 224.64 
L 361.725 224.64 
" style="fill:none;stroke:#000000;stroke-linecap:square;stroke-linejoin:miter;stroke-width:0.8;"/>
   </g>
   <g id="patch_6">
    <path d="M 26.925 7.2 
L 361.725 7.2 
" style="fill:none;stroke:#000000;stroke-linecap:square;stroke-linejoin:miter;stroke-width:0.8;"/>
   </g>
   <g id="legend_1">
    <g id="patch_7">
     <path d="M 243.64375 29.878125 
L 354.725 29.878125 
Q 356.725 29.878125 356.725 27.878125 
L 356.725 14.2 
Q 356.725 12.2 354.725 12.2 
L 243.64375 12.2 
Q 241.64375 12.2 241.64375 14.2 
L 241.64375 27.878125 
Q 241.64375 29.878125 243.64375 29.878125 
z
" style="fill:#ffffff;opacity:0.8;stroke:#cccccc;stroke-linejoin:miter;"/>
    </g>
    <g id="line2d_18">
     <path d="M 245.64375 20.298437 
L 265.64375 20.298437 
" style="fill:none;stroke:#ff7f0e;stroke-linecap:square;stroke-width:1.5;"/>
    </g>
    <g id="line2d_19"/>
    <g id="text_16">
     <!-- Gaussian Model -->
     <g transform="translate(273.64375 23.798437)scale(0.1 -0.1)">
      <defs>
       <path d="M 3809 666 
L 3809 1919 
L 2778 1919 
L 2778 2438 
L 4434 2438 
L 4434 434 
Q 4069 175 3628 42 
Q 3188 -91 2688 -91 
Q 1594 -91 976 548 
Q 359 1188 359 2328 
Q 359 3472 976 4111 
Q 1594 4750 2688 4750 
Q 3144 4750 3555 4637 
Q 3966 4525 4313 4306 
L 4313 3634 
Q 3963 3931 3569 4081 
Q 3175 4231 2741 4231 
Q 1884 4231 1454 3753 
Q 1025 3275 1025 2328 
Q 1025 1384 1454 906 
Q 1884 428 2741 428 
Q 3075 428 3337 486 
Q 3600 544 3809 666 
z
" id="DejaVuSans-47" transform="scale(0.015625)"/>
       <path d="M 2194 1759 
Q 1497 1759 1228 1600 
Q 959 1441 959 1056 
Q 959 750 1161 570 
Q 1363 391 1709 391 
Q 2188 391 2477 730 
Q 2766 1069 2766 1631 
L 2766 1759 
L 2194 1759 
z
M 3341 1997 
L 3341 0 
L 2766 0 
L 2766 531 
Q 2569 213 2275 61 
Q 1981 -91 1556 -91 
Q 1019 -91 701 211 
Q 384 513 384 1019 
Q 384 1609 779 1909 
Q 1175 2209 1959 2209 
L 2766 2209 
L 2766 2266 
Q 2766 2663 2505 2880 
Q 2244 3097 1772 3097 
Q 1472 3097 1187 3025 
Q 903 2953 641 2809 
L 641 3341 
Q 956 3463 1253 3523 
Q 1550 3584 1831 3584 
Q 2591 3584 2966 3190 
Q 3341 2797 3341 1997 
z
" id="DejaVuSans-61" transform="scale(0.015625)"/>
       <path d="M 544 1381 
L 544 3500 
L 1119 3500 
L 1119 1403 
Q 1119 906 1312 657 
Q 1506 409 1894 409 
Q 2359 409 2629 706 
Q 2900 1003 2900 1516 
L 2900 3500 
L 3475 3500 
L 3475 0 
L 2900 0 
L 2900 538 
Q 2691 219 2414 64 
Q 2138 -91 1772 -91 
Q 1169 -91 856 284 
Q 544 659 544 1381 
z
M 1991 3584 
L 1991 3584 
z
" id="DejaVuSans-75" transform="scale(0.015625)"/>
       <path d="M 2834 3397 
L 2834 2853 
Q 2591 2978 2328 3040 
Q 2066 3103 1784 3103 
Q 1356 3103 1142 2972 
Q 928 2841 928 2578 
Q 928 2378 1081 2264 
Q 1234 2150 1697 2047 
L 1894 2003 
Q 2506 1872 2764 1633 
Q 3022 1394 3022 966 
Q 3022 478 2636 193 
Q 2250 -91 1575 -91 
Q 1294 -91 989 -36 
Q 684 19 347 128 
L 347 722 
Q 666 556 975 473 
Q 1284 391 1588 391 
Q 1994 391 2212 530 
Q 2431 669 2431 922 
Q 2431 1156 2273 1281 
Q 2116 1406 1581 1522 
L 1381 1569 
Q 847 1681 609 1914 
Q 372 2147 372 2553 
Q 372 3047 722 3315 
Q 1072 3584 1716 3584 
Q 2034 3584 2315 3537 
Q 2597 3491 2834 3397 
z
" id="DejaVuSans-73" transform="scale(0.015625)"/>
       <path d="M 603 3500 
L 1178 3500 
L 1178 0 
L 603 0 
L 603 3500 
z
M 603 4863 
L 1178 4863 
L 1178 4134 
L 603 4134 
L 603 4863 
z
" id="DejaVuSans-69" transform="scale(0.015625)"/>
       <path d="M 3513 2113 
L 3513 0 
L 2938 0 
L 2938 2094 
Q 2938 2591 2744 2837 
Q 2550 3084 2163 3084 
Q 1697 3084 1428 2787 
Q 1159 2491 1159 1978 
L 1159 0 
L 581 0 
L 581 3500 
L 1159 3500 
L 1159 2956 
Q 1366 3272 1645 3428 
Q 1925 3584 2291 3584 
Q 2894 3584 3203 3211 
Q 3513 2838 3513 2113 
z
" id="DejaVuSans-6e" transform="scale(0.015625)"/>
       <path id="DejaVuSans-20" transform="scale(0.015625)"/>
       <path d="M 628 4666 
L 1569 4666 
L 2759 1491 
L 3956 4666 
L 4897 4666 
L 4897 0 
L 4281 0 
L 4281 4097 
L 3078 897 
L 2444 897 
L 1241 4097 
L 1241 0 
L 628 0 
L 628 4666 
z
" id="DejaVuSans-4d" transform="scale(0.015625)"/>
       <path d="M 1959 3097 
Q 1497 3097 1228 2736 
Q 959 2375 959 1747 
Q 959 1119 1226 758 
Q 1494 397 1959 397 
Q 2419 397 2687 759 
Q 2956 1122 2956 1747 
Q 2956 2369 2687 2733 
Q 2419 3097 1959 3097 
z
M 1959 3584 
Q 2709 3584 3137 3096 
Q 3566 2609 3566 1747 
Q 3566 888 3137 398 
Q 2709 -91 1959 -91 
Q 1206 -91 779 398 
Q 353 888 353 1747 
Q 353 2609 779 3096 
Q 1206 3584 1959 3584 
z
" id="DejaVuSans-6f" transform="scale(0.015625)"/>
       <path d="M 2906 2969 
L 2906 4863 
L 3481 4863 
L 3481 0 
L 2906 0 
L 2906 525 
Q 2725 213 2448 61 
Q 2172 -91 1784 -91 
Q 1150 -91 751 415 
Q 353 922 353 1747 
Q 353 2572 751 3078 
Q 1150 3584 1784 3584 
Q 2172 3584 2448 3432 
Q 2725 3281 2906 2969 
z
M 947 1747 
Q 947 1113 1208 752 
Q 1469 391 1925 391 
Q 2381 391 2643 752 
Q 2906 1113 2906 1747 
Q 2906 2381 2643 2742 
Q 2381 3103 1925 3103 
Q 1469 3103 1208 2742 
Q 947 2381 947 1747 
z
" id="DejaVuSans-64" transform="scale(0.015625)"/>
       <path d="M 3597 1894 
L 3597 1613 
L 953 1613 
Q 991 1019 1311 708 
Q 1631 397 2203 397 
Q 2534 397 2845 478 
Q 3156 559 3463 722 
L 3463 178 
Q 3153 47 2828 -22 
Q 2503 -91 2169 -91 
Q 1331 -91 842 396 
Q 353 884 353 1716 
Q 353 2575 817 3079 
Q 1281 3584 2069 3584 
Q 2775 3584 3186 3129 
Q 3597 2675 3597 1894 
z
M 3022 2063 
Q 3016 2534 2758 2815 
Q 2500 3097 2075 3097 
Q 1594 3097 1305 2825 
Q 1016 2553 972 2059 
L 3022 2063 
z
" id="DejaVuSans-65" transform="scale(0.015625)"/>
       <path d="M 603 4863 
L 1178 4863 
L 1178 0 
L 603 0 
L 603 4863 
z
" id="DejaVuSans-6c" transform="scale(0.015625)"/>
      </defs>
      <use xlink:href="#DejaVuSans-47"/>
      <use x="77.490234" xlink:href="#DejaVuSans-61"/>
      <use x="138.769531" xlink:href="#DejaVuSans-75"/>
      <use x="202.148438" xlink:href="#DejaVuSans-73"/>
      <use x="254.248047" xlink:href="#DejaVuSans-73"/>
      <use x="306.347656" xlink:href="#DejaVuSans-69"/>
      <use x="334.130859" xlink:href="#DejaVuSans-61"/>
      <use x="395.410156" xlink:href="#DejaVuSans-6e"/>
      <use x="458.789062" xlink:href="#DejaVuSans-20"/>
      <use x="490.576172" xlink:href="#DejaVuSans-4d"/>
      <use x="576.855469" xlink:href="#DejaVuSans-6f"/>
      <use x="638.037109" xlink:href="#DejaVuSans-64"/>
      <use x="701.513672" xlink:href="#DejaVuSans-65"/>
      <use x="763.037109" xlink:href="#DejaVuSans-6c"/>
     </g>
    </g>
   </g>
  </g>
 </g>
 <defs>
  <clipPath id="pab9a2c2128">
   <rect height="217.44" width="334.8" x="26.925" y="7.2"/>
  </clipPath>
 </defs>
</svg>
