<?xml version="1.0" encoding="utf-8" standalone="no"?>
<!DOCTYPE svg PUBLIC "-//W3C//DTD SVG 1.1//EN"
  "http://www.w3.org/Graphics/SVG/1.1/DTD/svg11.dtd">
<svg xmlns:xlink="http://www.w3.org/1999/xlink" width="375.2875pt" height="248.518125pt" viewBox="0 0 375.2875 248.518125" xmlns="http://www.w3.org/2000/svg" version="1.1">
 <metadata>
  <rdf:RDF xmlns:dc="http://purl.org/dc/elements/1.1/" xmlns:cc="http://creativecommons.org/ns#" xmlns:rdf="http://www.w3.org/1999/02/22-rdf-syntax-ns#">
   <cc:Work>
    <dc:type rdf:resource="http://purl.org/dc/dcmitype/StillImage"/>
    <dc:date>2022-10-26T21:52:46.665156</dc:date>
    <dc:format>image/svg+xml</dc:format>
    <dc:creator>
     <cc:Agent>
      <dc:title>Matplotlib v3.5.3, https://matplotlib.org/</dc:title>
     </cc:Agent>
    </dc:creator>
   </cc:Work>
  </rdf:RDF>
 </metadata>
 <defs>
  <style type="text/css">*{stroke-linejoin: round; stroke-linecap: butt}</style>
 </defs>
 <g id="figure_1">
  <g id="patch_1">
   <path d="M 0 248.518125 
L 375.2875 248.518125 
L 375.2875 0 
L 0 0 
L 0 248.518125 
z
" style="fill: none"/>
  </g>
  <g id="axes_1">
   <g id="patch_2">
    <path d="M 33.2875 224.64 
L 368.0875 224.64 
L 368.0875 7.2 
L 33.2875 7.2 
z
" style="fill: #ffffff"/>
   </g>
   <g id="matplotlib.axis_1">
    <g id="xtick_1">
     <g id="line2d_1">
      <defs>
       <path id="m94dbb926d8" d="M 0 0 
L 0 3.5 
" style="stroke: #000000; stroke-width: 0.8"/>
      </defs>
      <g>
       <use xlink:href="#m94dbb926d8" x="48.505682" y="224.64" style="stroke: #000000; stroke-width: 0.8"/>
      </g>
     </g>
     <g id="text_1">
      <!-- 0 -->
      <g transform="translate(45.324432 239.238437)scale(0.1 -0.1)">
       <defs>
        <path id="DejaVuSans-30" d="M 2034 4250 
Q 1547 4250 1301 3770 
Q 1056 3291 1056 2328 
Q 1056 1369 1301 889 
Q 1547 409 2034 409 
Q 2525 409 2770 889 
Q 3016 1369 3016 2328 
Q 3016 3291 2770 3770 
Q 2525 4250 2034 4250 
z
M 2034 4750 
Q 2819 4750 3233 4129 
Q 3647 3509 3647 2328 
Q 3647 1150 3233 529 
Q 2819 -91 2034 -91 
Q 1250 -91 836 529 
Q 422 1150 422 2328 
Q 422 3509 836 4129 
Q 1250 4750 2034 4750 
z
" transform="scale(0.015625)"/>
       </defs>
       <use xlink:href="#DejaVuSans-30"/>
      </g>
     </g>
    </g>
    <g id="xtick_2">
     <g id="line2d_2">
      <g>
       <use xlink:href="#m94dbb926d8" x="109.378409" y="224.64" style="stroke: #000000; stroke-width: 0.8"/>
      </g>
     </g>
     <g id="text_2">
      <!-- 2 -->
      <g transform="translate(106.197159 239.238437)scale(0.1 -0.1)">
       <defs>
        <path id="DejaVuSans-32" d="M 1228 531 
L 3431 531 
L 3431 0 
L 469 0 
L 469 531 
Q 828 903 1448 1529 
Q 2069 2156 2228 2338 
Q 2531 2678 2651 2914 
Q 2772 3150 2772 3378 
Q 2772 3750 2511 3984 
Q 2250 4219 1831 4219 
Q 1534 4219 1204 4116 
Q 875 4013 500 3803 
L 500 4441 
Q 881 4594 1212 4672 
Q 1544 4750 1819 4750 
Q 2544 4750 2975 4387 
Q 3406 4025 3406 3419 
Q 3406 3131 3298 2873 
Q 3191 2616 2906 2266 
Q 2828 2175 2409 1742 
Q 1991 1309 1228 531 
z
" transform="scale(0.015625)"/>
       </defs>
       <use xlink:href="#DejaVuSans-32"/>
      </g>
     </g>
    </g>
    <g id="xtick_3">
     <g id="line2d_3">
      <g>
       <use xlink:href="#m94dbb926d8" x="170.251136" y="224.64" style="stroke: #000000; stroke-width: 0.8"/>
      </g>
     </g>
     <g id="text_3">
      <!-- 4 -->
      <g transform="translate(167.069886 239.238437)scale(0.1 -0.1)">
       <defs>
        <path id="DejaVuSans-34" d="M 2419 4116 
L 825 1625 
L 2419 1625 
L 2419 4116 
z
M 2253 4666 
L 3047 4666 
L 3047 1625 
L 3713 1625 
L 3713 1100 
L 3047 1100 
L 3047 0 
L 2419 0 
L 2419 1100 
L 313 1100 
L 313 1709 
L 2253 4666 
z
" transform="scale(0.015625)"/>
       </defs>
       <use xlink:href="#DejaVuSans-34"/>
      </g>
     </g>
    </g>
    <g id="xtick_4">
     <g id="line2d_4">
      <g>
       <use xlink:href="#m94dbb926d8" x="231.123864" y="224.64" style="stroke: #000000; stroke-width: 0.8"/>
      </g>
     </g>
     <g id="text_4">
      <!-- 6 -->
      <g transform="translate(227.942614 239.238437)scale(0.1 -0.1)">
       <defs>
        <path id="DejaVuSans-36" d="M 2113 2584 
Q 1688 2584 1439 2293 
Q 1191 2003 1191 1497 
Q 1191 994 1439 701 
Q 1688 409 2113 409 
Q 2538 409 2786 701 
Q 3034 994 3034 1497 
Q 3034 2003 2786 2293 
Q 2538 2584 2113 2584 
z
M 3366 4563 
L 3366 3988 
Q 3128 4100 2886 4159 
Q 2644 4219 2406 4219 
Q 1781 4219 1451 3797 
Q 1122 3375 1075 2522 
Q 1259 2794 1537 2939 
Q 1816 3084 2150 3084 
Q 2853 3084 3261 2657 
Q 3669 2231 3669 1497 
Q 3669 778 3244 343 
Q 2819 -91 2113 -91 
Q 1303 -91 875 529 
Q 447 1150 447 2328 
Q 447 3434 972 4092 
Q 1497 4750 2381 4750 
Q 2619 4750 2861 4703 
Q 3103 4656 3366 4563 
z
" transform="scale(0.015625)"/>
       </defs>
       <use xlink:href="#DejaVuSans-36"/>
      </g>
     </g>
    </g>
    <g id="xtick_5">
     <g id="line2d_5">
      <g>
       <use xlink:href="#m94dbb926d8" x="291.996591" y="224.64" style="stroke: #000000; stroke-width: 0.8"/>
      </g>
     </g>
     <g id="text_5">
      <!-- 8 -->
      <g transform="translate(288.815341 239.238437)scale(0.1 -0.1)">
       <defs>
        <path id="DejaVuSans-38" d="M 2034 2216 
Q 1584 2216 1326 1975 
Q 1069 1734 1069 1313 
Q 1069 891 1326 650 
Q 1584 409 2034 409 
Q 2484 409 2743 651 
Q 3003 894 3003 1313 
Q 3003 1734 2745 1975 
Q 2488 2216 2034 2216 
z
M 1403 2484 
Q 997 2584 770 2862 
Q 544 3141 544 3541 
Q 544 4100 942 4425 
Q 1341 4750 2034 4750 
Q 2731 4750 3128 4425 
Q 3525 4100 3525 3541 
Q 3525 3141 3298 2862 
Q 3072 2584 2669 2484 
Q 3125 2378 3379 2068 
Q 3634 1759 3634 1313 
Q 3634 634 3220 271 
Q 2806 -91 2034 -91 
Q 1263 -91 848 271 
Q 434 634 434 1313 
Q 434 1759 690 2068 
Q 947 2378 1403 2484 
z
M 1172 3481 
Q 1172 3119 1398 2916 
Q 1625 2713 2034 2713 
Q 2441 2713 2670 2916 
Q 2900 3119 2900 3481 
Q 2900 3844 2670 4047 
Q 2441 4250 2034 4250 
Q 1625 4250 1398 4047 
Q 1172 3844 1172 3481 
z
" transform="scale(0.015625)"/>
       </defs>
       <use xlink:href="#DejaVuSans-38"/>
      </g>
     </g>
    </g>
    <g id="xtick_6">
     <g id="line2d_6">
      <g>
       <use xlink:href="#m94dbb926d8" x="352.869318" y="224.64" style="stroke: #000000; stroke-width: 0.8"/>
      </g>
     </g>
     <g id="text_6">
      <!-- 10 -->
      <g transform="translate(346.506818 239.238437)scale(0.1 -0.1)">
       <defs>
        <path id="DejaVuSans-31" d="M 794 531 
L 1825 531 
L 1825 4091 
L 703 3866 
L 703 4441 
L 1819 4666 
L 2450 4666 
L 2450 531 
L 3481 531 
L 3481 0 
L 794 0 
L 794 531 
z
" transform="scale(0.015625)"/>
       </defs>
       <use xlink:href="#DejaVuSans-31"/>
       <use xlink:href="#DejaVuSans-30" x="63.623047"/>
      </g>
     </g>
    </g>
   </g>
   <g id="matplotlib.axis_2">
    <g id="ytick_1">
     <g id="line2d_7">
      <defs>
       <path id="mdbfdcdd1b7" d="M 0 0 
L -3.5 0 
" style="stroke: #000000; stroke-width: 0.8"/>
      </defs>
      <g>
       <use xlink:href="#mdbfdcdd1b7" x="33.2875" y="202.411862" style="stroke: #000000; stroke-width: 0.8"/>
      </g>
     </g>
     <g id="text_7">
      <!-- 20 -->
      <g transform="translate(13.5625 206.21108)scale(0.1 -0.1)">
       <use xlink:href="#DejaVuSans-32"/>
       <use xlink:href="#DejaVuSans-30" x="63.623047"/>
      </g>
     </g>
    </g>
    <g id="ytick_2">
     <g id="line2d_8">
      <g>
       <use xlink:href="#mdbfdcdd1b7" x="33.2875" y="173.070017" style="stroke: #000000; stroke-width: 0.8"/>
      </g>
     </g>
     <g id="text_8">
      <!-- 40 -->
      <g transform="translate(13.5625 176.869235)scale(0.1 -0.1)">
       <use xlink:href="#DejaVuSans-34"/>
       <use xlink:href="#DejaVuSans-30" x="63.623047"/>
      </g>
     </g>
    </g>
    <g id="ytick_3">
     <g id="line2d_9">
      <g>
       <use xlink:href="#mdbfdcdd1b7" x="33.2875" y="143.728171" style="stroke: #000000; stroke-width: 0.8"/>
      </g>
     </g>
     <g id="text_9">
      <!-- 60 -->
      <g transform="translate(13.5625 147.52739)scale(0.1 -0.1)">
       <use xlink:href="#DejaVuSans-36"/>
       <use xlink:href="#DejaVuSans-30" x="63.623047"/>
      </g>
     </g>
    </g>
    <g id="ytick_4">
     <g id="line2d_10">
      <g>
       <use xlink:href="#mdbfdcdd1b7" x="33.2875" y="114.386326" style="stroke: #000000; stroke-width: 0.8"/>
      </g>
     </g>
     <g id="text_10">
      <!-- 80 -->
      <g transform="translate(13.5625 118.185545)scale(0.1 -0.1)">
       <use xlink:href="#DejaVuSans-38"/>
       <use xlink:href="#DejaVuSans-30" x="63.623047"/>
      </g>
     </g>
    </g>
    <g id="ytick_5">
     <g id="line2d_11">
      <g>
       <use xlink:href="#mdbfdcdd1b7" x="33.2875" y="85.044481" style="stroke: #000000; stroke-width: 0.8"/>
      </g>
     </g>
     <g id="text_11">
      <!-- 100 -->
      <g transform="translate(7.2 88.8437)scale(0.1 -0.1)">
       <use xlink:href="#DejaVuSans-31"/>
       <use xlink:href="#DejaVuSans-30" x="63.623047"/>
       <use xlink:href="#DejaVuSans-30" x="127.246094"/>
      </g>
     </g>
    </g>
    <g id="ytick_6">
     <g id="line2d_12">
      <g>
       <use xlink:href="#mdbfdcdd1b7" x="33.2875" y="55.702636" style="stroke: #000000; stroke-width: 0.8"/>
      </g>
     </g>
     <g id="text_12">
      <!-- 120 -->
      <g transform="translate(7.2 59.501854)scale(0.1 -0.1)">
       <use xlink:href="#DejaVuSans-31"/>
       <use xlink:href="#DejaVuSans-32" x="63.623047"/>
       <use xlink:href="#DejaVuSans-30" x="127.246094"/>
      </g>
     </g>
    </g>
    <g id="ytick_7">
     <g id="line2d_13">
      <g>
       <use xlink:href="#mdbfdcdd1b7" x="33.2875" y="26.36079" style="stroke: #000000; stroke-width: 0.8"/>
      </g>
     </g>
     <g id="text_13">
      <!-- 140 -->
      <g transform="translate(7.2 30.160009)scale(0.1 -0.1)">
       <use xlink:href="#DejaVuSans-31"/>
       <use xlink:href="#DejaVuSans-34" x="63.623047"/>
       <use xlink:href="#DejaVuSans-30" x="127.246094"/>
      </g>
     </g>
    </g>
   </g>
   <g id="line2d_14">
    <path d="M 48.505682 211.581794 
L 50.0275 213.403499 
L 51.549318 212.398781 
L 53.071136 210.399419 
L 54.592955 210.779798 
L 56.114773 214.756364 
L 57.636591 211.789079 
L 59.158409 213.228903 
L 60.680227 212.996012 
L 62.202045 212.085528 
L 63.723864 212.310535 
L 65.245682 210.241222 
L 68.289318 211.854541 
L 69.811136 211.22289 
L 71.332955 211.220374 
L 72.854773 209.369066 
L 74.376591 211.678715 
L 75.898409 210.761817 
L 77.420227 212.297265 
L 78.942045 214.606414 
L 80.463864 209.777752 
L 81.985682 209.308152 
L 83.5075 211.483009 
L 85.029318 206.937632 
L 86.551136 212.193611 
L 88.072955 209.84799 
L 89.594773 210.024088 
L 91.116591 207.358588 
L 92.638409 207.288022 
L 94.160227 209.037724 
L 95.682045 208.550085 
L 97.203864 210.229272 
L 98.725682 211.656823 
L 100.2475 209.118027 
L 101.769318 208.221449 
L 103.291136 206.49595 
L 104.812955 206.373715 
L 106.334773 208.523989 
L 107.856591 208.237427 
L 109.378409 209.16042 
L 110.900227 209.538077 
L 112.422045 209.791745 
L 113.943864 204.307669 
L 115.465682 207.724897 
L 116.9875 207.457899 
L 118.509318 208.480522 
L 120.031136 205.363483 
L 121.552955 208.680254 
L 123.074773 200.903685 
L 124.596591 196.159296 
L 126.118409 188.555572 
L 129.162045 179.360836 
L 130.683864 171.946152 
L 132.205682 165.544098 
L 133.7275 160.332763 
L 135.249318 154.251636 
L 136.771136 149.876932 
L 138.292955 143.743967 
L 139.814773 138.45683 
L 141.336591 132.263733 
L 142.858409 127.185941 
L 144.380227 122.776813 
L 145.902045 114.269001 
L 147.423864 109.373985 
L 148.945682 105.423611 
L 150.4675 96.640397 
L 151.989318 92.896151 
L 155.032955 79.039508 
L 156.554773 74.174904 
L 158.076591 66.966886 
L 159.598409 64.683735 
L 161.120227 56.563757 
L 162.642045 52.407832 
L 164.163864 46.940657 
L 165.685682 40.778057 
L 167.2075 40.226276 
L 168.729318 39.528377 
L 170.251136 41.142619 
L 171.772955 37.973648 
L 173.294773 38.443991 
L 174.816591 41.194042 
L 176.338409 36.630365 
L 177.860227 35.874381 
L 179.382045 36.754973 
L 180.903864 38.569125 
L 182.425682 39.702487 
L 183.9475 36.447336 
L 185.469318 38.405429 
L 186.991136 35.8772 
L 188.512955 37.190034 
L 190.034773 35.909169 
L 191.556591 36.648857 
L 193.078409 35.976437 
L 194.600227 36.826419 
L 196.122045 34.080298 
L 197.643864 36.331338 
L 199.165682 35.768236 
L 200.6875 33.450207 
L 202.209318 37.988535 
L 203.731136 37.713249 
L 205.252955 34.291234 
L 206.774773 37.245887 
L 208.296591 32.547983 
L 209.818409 35.815066 
L 211.340227 36.137971 
L 212.862045 32.089531 
L 214.383864 32.570442 
L 215.905682 31.844422 
L 217.4275 33.080638 
L 218.949318 35.489279 
L 220.471136 31.294031 
L 221.992955 34.300409 
L 223.514773 32.579976 
L 225.036591 32.206442 
L 226.558409 33.647455 
L 228.080227 32.365535 
L 229.602045 31.754343 
L 231.123864 32.385641 
L 232.645682 34.370213 
L 234.1675 32.173714 
L 235.689318 30.514848 
L 237.211136 33.292614 
L 238.732955 32.336855 
L 240.254773 32.589456 
L 241.776591 29.10264 
L 243.298409 30.652355 
L 244.820227 30.874856 
L 246.342045 32.425167 
L 247.863864 30.357403 
L 249.385682 31.960393 
L 250.9075 30.770034 
L 252.429318 31.578698 
L 253.951136 29.506403 
L 255.472955 29.488833 
L 256.994773 30.468048 
L 258.516591 29.425899 
L 260.038409 31.429739 
L 261.560227 31.846291 
L 263.082045 28.87423 
L 264.603864 29.108204 
L 266.125682 28.263867 
L 267.6475 25.557406 
L 269.169318 27.487906 
L 270.691136 30.027549 
L 272.212955 26.91116 
L 273.734773 30.288368 
L 275.256591 28.882428 
L 276.778409 28.147242 
L 278.300227 25.392079 
L 279.822045 28.805917 
L 281.343864 28.761924 
L 282.865682 27.539812 
L 284.3875 28.199112 
L 285.909318 25.431538 
L 287.431136 28.479383 
L 288.952955 28.414807 
L 290.474773 27.219377 
L 291.996591 27.144142 
L 293.518409 23.449038 
L 295.040227 24.712313 
L 296.562045 25.80354 
L 298.083864 27.55117 
L 299.605682 24.376637 
L 301.1275 26.897766 
L 302.649318 27.527281 
L 304.171136 23.388039 
L 305.692955 24.492678 
L 307.214773 23.451095 
L 308.736591 24.164386 
L 310.258409 23.218566 
L 311.780227 25.249743 
L 313.302045 25.6445 
L 314.823864 22.985003 
L 316.345682 24.982929 
L 317.8675 24.654409 
L 319.389318 24.151052 
L 320.911136 23.299943 
L 322.432955 23.677612 
L 323.954773 25.000322 
L 325.476591 23.77334 
L 326.998409 25.909177 
L 328.520227 21.60139 
L 330.042045 24.679387 
L 331.563864 23.792392 
L 333.085682 21.946695 
L 334.6075 22.935862 
L 336.129318 19.451722 
L 337.651136 23.415244 
L 339.172955 20.982634 
L 340.694773 21.265521 
L 342.216591 22.745164 
L 343.738409 20.121268 
L 345.260227 20.969431 
L 346.782045 19.43397 
L 348.303864 19.195877 
L 349.825682 17.083636 
L 351.3475 18.123701 
L 352.869318 20.442767 
L 352.869318 20.442767 
" clip-path="url(#pb97ba22916)" style="fill: none; stroke: #1f77b4; stroke-width: 1.5; stroke-linecap: square"/>
   </g>
   <g id="line2d_15">
    <path d="M 48.505682 213.43904 
L 53.071136 212.779813 
L 57.636591 211.84916 
L 60.680227 211.037438 
L 63.723864 210.040398 
L 66.7675 208.827667 
L 69.811136 207.366956 
L 72.854773 205.624703 
L 75.898409 203.56689 
L 78.942045 201.160049 
L 81.985682 198.372408 
L 85.029318 195.175183 
L 88.072955 191.543923 
L 91.116591 187.459896 
L 94.160227 182.911405 
L 97.203864 177.89499 
L 100.2475 172.416423 
L 103.291136 166.49143 
L 106.334773 160.146072 
L 110.900227 149.922192 
L 115.465682 139.000458 
L 121.552955 123.71401 
L 133.7275 92.839542 
L 138.292955 81.917808 
L 142.858409 71.693928 
L 145.902045 65.34857 
L 148.945682 59.423577 
L 151.989318 53.94501 
L 155.032955 48.928595 
L 158.076591 44.380104 
L 161.120227 40.296077 
L 164.163864 36.664817 
L 167.2075 33.467592 
L 170.251136 30.679951 
L 173.294773 28.27311 
L 176.338409 26.215297 
L 179.382045 24.473044 
L 182.425682 23.012333 
L 185.469318 21.799602 
L 188.512955 20.802562 
L 191.556591 19.99084 
L 196.122045 19.060187 
L 200.6875 18.40096 
L 205.252955 17.944162 
L 211.340227 17.556283 
L 218.949318 17.296025 
L 231.123864 17.136077 
L 258.516591 17.084947 
L 352.869318 17.083636 
L 352.869318 17.083636 
" clip-path="url(#pb97ba22916)" style="fill: none; stroke-dasharray: 5.55,2.4; stroke-dashoffset: 0; stroke: #ff7f0e; stroke-width: 1.5"/>
   </g>
   <g id="line2d_16">
    <path d="M 48.505682 214.00705 
L 97.203864 209.507901 
L 101.769318 208.898949 
L 104.812955 208.34692 
L 107.856591 207.58479 
L 110.900227 206.490229 
L 112.422045 205.767798 
L 113.943864 204.89577 
L 115.465682 203.845989 
L 116.9875 202.587849 
L 118.509318 201.088833 
L 120.031136 199.31527 
L 121.552955 197.233314 
L 123.074773 194.810124 
L 124.596591 192.015212 
L 126.118409 188.82193 
L 127.640227 185.209001 
L 129.162045 181.162039 
L 130.683864 176.674948 
L 132.205682 171.751117 
L 135.249318 160.659174 
L 138.292955 148.12669 
L 141.336591 134.558079 
L 148.945682 99.729846 
L 151.989318 86.954231 
L 155.032955 75.551008 
L 156.554773 70.45662 
L 158.076591 65.794774 
L 159.598409 61.572902 
L 161.120227 57.788553 
L 162.642045 54.430484 
L 164.163864 51.479981 
L 165.685682 48.912348 
L 167.2075 46.698444 
L 168.729318 44.806193 
L 170.251136 43.201997 
L 171.772955 41.851987 
L 173.294773 40.723085 
L 174.816591 39.783845 
L 176.338409 39.005086 
L 179.382045 37.825914 
L 182.425682 37.008759 
L 185.469318 36.422711 
L 190.034773 35.787295 
L 197.643864 34.996174 
L 229.602045 32.095426 
L 352.869318 20.974619 
L 352.869318 20.974619 
" clip-path="url(#pb97ba22916)" style="fill: none; stroke: #2ca02c; stroke-width: 1.5; stroke-linecap: square"/>
   </g>
   <g id="patch_3">
    <path d="M 33.2875 224.64 
L 33.2875 7.2 
" style="fill: none; stroke: #000000; stroke-width: 0.8; stroke-linejoin: miter; stroke-linecap: square"/>
   </g>
   <g id="patch_4">
    <path d="M 368.0875 224.64 
L 368.0875 7.2 
" style="fill: none; stroke: #000000; stroke-width: 0.8; stroke-linejoin: miter; stroke-linecap: square"/>
   </g>
   <g id="patch_5">
    <path d="M 33.2875 224.64 
L 368.0875 224.64 
" style="fill: none; stroke: #000000; stroke-width: 0.8; stroke-linejoin: miter; stroke-linecap: square"/>
   </g>
   <g id="patch_6">
    <path d="M 33.2875 7.2 
L 368.0875 7.2 
" style="fill: none; stroke: #000000; stroke-width: 0.8; stroke-linejoin: miter; stroke-linecap: square"/>
   </g>
   <g id="legend_1">
    <g id="patch_7">
     <path d="M 40.2875 44.55625 
L 113.182813 44.55625 
Q 115.182813 44.55625 115.182813 42.55625 
L 115.182813 14.2 
Q 115.182813 12.2 113.182813 12.2 
L 40.2875 12.2 
Q 38.2875 12.2 38.2875 14.2 
L 38.2875 42.55625 
Q 38.2875 44.55625 40.2875 44.55625 
z
" style="fill: #ffffff; opacity: 0.8; stroke: #cccccc; stroke-linejoin: miter"/>
    </g>
    <g id="line2d_17">
     <path d="M 42.2875 20.298437 
L 52.2875 20.298437 
L 62.2875 20.298437 
" style="fill: none; stroke-dasharray: 5.55,2.4; stroke-dashoffset: 0; stroke: #ff7f0e; stroke-width: 1.5"/>
    </g>
    <g id="text_14">
     <!-- initial fit -->
     <g transform="translate(70.2875 23.798437)scale(0.1 -0.1)">
      <defs>
       <path id="DejaVuSans-69" d="M 603 3500 
L 1178 3500 
L 1178 0 
L 603 0 
L 603 3500 
z
M 603 4863 
L 1178 4863 
L 1178 4134 
L 603 4134 
L 603 4863 
z
" transform="scale(0.015625)"/>
       <path id="DejaVuSans-6e" d="M 3513 2113 
L 3513 0 
L 2938 0 
L 2938 2094 
Q 2938 2591 2744 2837 
Q 2550 3084 2163 3084 
Q 1697 3084 1428 2787 
Q 1159 2491 1159 1978 
L 1159 0 
L 581 0 
L 581 3500 
L 1159 3500 
L 1159 2956 
Q 1366 3272 1645 3428 
Q 1925 3584 2291 3584 
Q 2894 3584 3203 3211 
Q 3513 2838 3513 2113 
z
" transform="scale(0.015625)"/>
       <path id="DejaVuSans-74" d="M 1172 4494 
L 1172 3500 
L 2356 3500 
L 2356 3053 
L 1172 3053 
L 1172 1153 
Q 1172 725 1289 603 
Q 1406 481 1766 481 
L 2356 481 
L 2356 0 
L 1766 0 
Q 1100 0 847 248 
Q 594 497 594 1153 
L 594 3053 
L 172 3053 
L 172 3500 
L 594 3500 
L 594 4494 
L 1172 4494 
z
" transform="scale(0.015625)"/>
       <path id="DejaVuSans-61" d="M 2194 1759 
Q 1497 1759 1228 1600 
Q 959 1441 959 1056 
Q 959 750 1161 570 
Q 1363 391 1709 391 
Q 2188 391 2477 730 
Q 2766 1069 2766 1631 
L 2766 1759 
L 2194 1759 
z
M 3341 1997 
L 3341 0 
L 2766 0 
L 2766 531 
Q 2569 213 2275 61 
Q 1981 -91 1556 -91 
Q 1019 -91 701 211 
Q 384 513 384 1019 
Q 384 1609 779 1909 
Q 1175 2209 1959 2209 
L 2766 2209 
L 2766 2266 
Q 2766 2663 2505 2880 
Q 2244 3097 1772 3097 
Q 1472 3097 1187 3025 
Q 903 2953 641 2809 
L 641 3341 
Q 956 3463 1253 3523 
Q 1550 3584 1831 3584 
Q 2591 3584 2966 3190 
Q 3341 2797 3341 1997 
z
" transform="scale(0.015625)"/>
       <path id="DejaVuSans-6c" d="M 603 4863 
L 1178 4863 
L 1178 0 
L 603 0 
L 603 4863 
z
" transform="scale(0.015625)"/>
       <path id="DejaVuSans-20" transform="scale(0.015625)"/>
       <path id="DejaVuSans-66" d="M 2375 4863 
L 2375 4384 
L 1825 4384 
Q 1516 4384 1395 4259 
Q 1275 4134 1275 3809 
L 1275 3500 
L 2222 3500 
L 2222 3053 
L 1275 3053 
L 1275 0 
L 697 0 
L 697 3053 
L 147 3053 
L 147 3500 
L 697 3500 
L 697 3744 
Q 697 4328 969 4595 
Q 1241 4863 1831 4863 
L 2375 4863 
z
" transform="scale(0.015625)"/>
      </defs>
      <use xlink:href="#DejaVuSans-69"/>
      <use xlink:href="#DejaVuSans-6e" x="27.783203"/>
      <use xlink:href="#DejaVuSans-69" x="91.162109"/>
      <use xlink:href="#DejaVuSans-74" x="118.945312"/>
      <use xlink:href="#DejaVuSans-69" x="158.154297"/>
      <use xlink:href="#DejaVuSans-61" x="185.9375"/>
      <use xlink:href="#DejaVuSans-6c" x="247.216797"/>
      <use xlink:href="#DejaVuSans-20" x="275"/>
      <use xlink:href="#DejaVuSans-66" x="306.787109"/>
      <use xlink:href="#DejaVuSans-69" x="341.992188"/>
      <use xlink:href="#DejaVuSans-74" x="369.775391"/>
     </g>
    </g>
    <g id="line2d_18">
     <path d="M 42.2875 34.976562 
L 52.2875 34.976562 
L 62.2875 34.976562 
" style="fill: none; stroke: #2ca02c; stroke-width: 1.5; stroke-linecap: square"/>
    </g>
    <g id="text_15">
     <!-- best fit -->
     <g transform="translate(70.2875 38.476562)scale(0.1 -0.1)">
      <defs>
       <path id="DejaVuSans-62" d="M 3116 1747 
Q 3116 2381 2855 2742 
Q 2594 3103 2138 3103 
Q 1681 3103 1420 2742 
Q 1159 2381 1159 1747 
Q 1159 1113 1420 752 
Q 1681 391 2138 391 
Q 2594 391 2855 752 
Q 3116 1113 3116 1747 
z
M 1159 2969 
Q 1341 3281 1617 3432 
Q 1894 3584 2278 3584 
Q 2916 3584 3314 3078 
Q 3713 2572 3713 1747 
Q 3713 922 3314 415 
Q 2916 -91 2278 -91 
Q 1894 -91 1617 61 
Q 1341 213 1159 525 
L 1159 0 
L 581 0 
L 581 4863 
L 1159 4863 
L 1159 2969 
z
" transform="scale(0.015625)"/>
       <path id="DejaVuSans-65" d="M 3597 1894 
L 3597 1613 
L 953 1613 
Q 991 1019 1311 708 
Q 1631 397 2203 397 
Q 2534 397 2845 478 
Q 3156 559 3463 722 
L 3463 178 
Q 3153 47 2828 -22 
Q 2503 -91 2169 -91 
Q 1331 -91 842 396 
Q 353 884 353 1716 
Q 353 2575 817 3079 
Q 1281 3584 2069 3584 
Q 2775 3584 3186 3129 
Q 3597 2675 3597 1894 
z
M 3022 2063 
Q 3016 2534 2758 2815 
Q 2500 3097 2075 3097 
Q 1594 3097 1305 2825 
Q 1016 2553 972 2059 
L 3022 2063 
z
" transform="scale(0.015625)"/>
       <path id="DejaVuSans-73" d="M 2834 3397 
L 2834 2853 
Q 2591 2978 2328 3040 
Q 2066 3103 1784 3103 
Q 1356 3103 1142 2972 
Q 928 2841 928 2578 
Q 928 2378 1081 2264 
Q 1234 2150 1697 2047 
L 1894 2003 
Q 2506 1872 2764 1633 
Q 3022 1394 3022 966 
Q 3022 478 2636 193 
Q 2250 -91 1575 -91 
Q 1294 -91 989 -36 
Q 684 19 347 128 
L 347 722 
Q 666 556 975 473 
Q 1284 391 1588 391 
Q 1994 391 2212 530 
Q 2431 669 2431 922 
Q 2431 1156 2273 1281 
Q 2116 1406 1581 1522 
L 1381 1569 
Q 847 1681 609 1914 
Q 372 2147 372 2553 
Q 372 3047 722 3315 
Q 1072 3584 1716 3584 
Q 2034 3584 2315 3537 
Q 2597 3491 2834 3397 
z
" transform="scale(0.015625)"/>
      </defs>
      <use xlink:href="#DejaVuSans-62"/>
      <use xlink:href="#DejaVuSans-65" x="63.476562"/>
      <use xlink:href="#DejaVuSans-73" x="125"/>
      <use xlink:href="#DejaVuSans-74" x="177.099609"/>
      <use xlink:href="#DejaVuSans-20" x="216.308594"/>
      <use xlink:href="#DejaVuSans-66" x="248.095703"/>
      <use xlink:href="#DejaVuSans-69" x="283.300781"/>
      <use xlink:href="#DejaVuSans-74" x="311.083984"/>
     </g>
    </g>
   </g>
  </g>
 </g>
 <defs>
  <clipPath id="pb97ba22916">
   <rect x="33.2875" y="7.2" width="334.8" height="217.44"/>
  </clipPath>
 </defs>
</svg>
