<?xml version="1.0" encoding="utf-8" standalone="no"?>
<!DOCTYPE svg PUBLIC "-//W3C//DTD SVG 1.1//EN"
  "http://www.w3.org/Graphics/SVG/1.1/DTD/svg11.dtd">
<svg xmlns:xlink="http://www.w3.org/1999/xlink" width="368.925pt" height="248.518125pt" viewBox="0 0 368.925 248.518125" xmlns="http://www.w3.org/2000/svg" version="1.1">
 <metadata>
  <rdf:RDF xmlns:dc="http://purl.org/dc/elements/1.1/" xmlns:cc="http://creativecommons.org/ns#" xmlns:rdf="http://www.w3.org/1999/02/22-rdf-syntax-ns#">
   <cc:Work>
    <dc:type rdf:resource="http://purl.org/dc/dcmitype/StillImage"/>
    <dc:date>2022-10-26T21:52:46.161637</dc:date>
    <dc:format>image/svg+xml</dc:format>
    <dc:creator>
     <cc:Agent>
      <dc:title>Matplotlib v3.5.3, https://matplotlib.org/</dc:title>
     </cc:Agent>
    </dc:creator>
   </cc:Work>
  </rdf:RDF>
 </metadata>
 <defs>
  <style type="text/css">*{stroke-linejoin: round; stroke-linecap: butt}</style>
 </defs>
 <g id="figure_1">
  <g id="patch_1">
   <path d="M -0 248.518125 
L 368.925 248.518125 
L 368.925 0 
L -0 0 
L -0 248.518125 
z
" style="fill: none"/>
  </g>
  <g id="axes_1">
   <g id="patch_2">
    <path d="M 26.925 224.64 
L 361.725 224.64 
L 361.725 7.2 
L 26.925 7.2 
z
" style="fill: #ffffff"/>
   </g>
   <g id="matplotlib.axis_1">
    <g id="xtick_1">
     <g id="line2d_1">
      <defs>
       <path id="m8969f07550" d="M 0 0 
L 0 3.5 
" style="stroke: #000000; stroke-width: 0.8"/>
      </defs>
      <g>
       <use xlink:href="#m8969f07550" x="42.143182" y="224.64" style="stroke: #000000; stroke-width: 0.8"/>
      </g>
     </g>
     <g id="text_1">
      <!-- 0.0 -->
      <g transform="translate(34.191619 239.238437)scale(0.1 -0.1)">
       <defs>
        <path id="DejaVuSans-30" d="M 2034 4250 
Q 1547 4250 1301 3770 
Q 1056 3291 1056 2328 
Q 1056 1369 1301 889 
Q 1547 409 2034 409 
Q 2525 409 2770 889 
Q 3016 1369 3016 2328 
Q 3016 3291 2770 3770 
Q 2525 4250 2034 4250 
z
M 2034 4750 
Q 2819 4750 3233 4129 
Q 3647 3509 3647 2328 
Q 3647 1150 3233 529 
Q 2819 -91 2034 -91 
Q 1250 -91 836 529 
Q 422 1150 422 2328 
Q 422 3509 836 4129 
Q 1250 4750 2034 4750 
z
" transform="scale(0.015625)"/>
        <path id="DejaVuSans-2e" d="M 684 794 
L 1344 794 
L 1344 0 
L 684 0 
L 684 794 
z
" transform="scale(0.015625)"/>
       </defs>
       <use xlink:href="#DejaVuSans-30"/>
       <use xlink:href="#DejaVuSans-2e" x="63.623047"/>
       <use xlink:href="#DejaVuSans-30" x="95.410156"/>
      </g>
     </g>
    </g>
    <g id="xtick_2">
     <g id="line2d_2">
      <g>
       <use xlink:href="#m8969f07550" x="80.188636" y="224.64" style="stroke: #000000; stroke-width: 0.8"/>
      </g>
     </g>
     <g id="text_2">
      <!-- 2.5 -->
      <g transform="translate(72.237074 239.238437)scale(0.1 -0.1)">
       <defs>
        <path id="DejaVuSans-32" d="M 1228 531 
L 3431 531 
L 3431 0 
L 469 0 
L 469 531 
Q 828 903 1448 1529 
Q 2069 2156 2228 2338 
Q 2531 2678 2651 2914 
Q 2772 3150 2772 3378 
Q 2772 3750 2511 3984 
Q 2250 4219 1831 4219 
Q 1534 4219 1204 4116 
Q 875 4013 500 3803 
L 500 4441 
Q 881 4594 1212 4672 
Q 1544 4750 1819 4750 
Q 2544 4750 2975 4387 
Q 3406 4025 3406 3419 
Q 3406 3131 3298 2873 
Q 3191 2616 2906 2266 
Q 2828 2175 2409 1742 
Q 1991 1309 1228 531 
z
" transform="scale(0.015625)"/>
        <path id="DejaVuSans-35" d="M 691 4666 
L 3169 4666 
L 3169 4134 
L 1269 4134 
L 1269 2991 
Q 1406 3038 1543 3061 
Q 1681 3084 1819 3084 
Q 2600 3084 3056 2656 
Q 3513 2228 3513 1497 
Q 3513 744 3044 326 
Q 2575 -91 1722 -91 
Q 1428 -91 1123 -41 
Q 819 9 494 109 
L 494 744 
Q 775 591 1075 516 
Q 1375 441 1709 441 
Q 2250 441 2565 725 
Q 2881 1009 2881 1497 
Q 2881 1984 2565 2268 
Q 2250 2553 1709 2553 
Q 1456 2553 1204 2497 
Q 953 2441 691 2322 
L 691 4666 
z
" transform="scale(0.015625)"/>
       </defs>
       <use xlink:href="#DejaVuSans-32"/>
       <use xlink:href="#DejaVuSans-2e" x="63.623047"/>
       <use xlink:href="#DejaVuSans-35" x="95.410156"/>
      </g>
     </g>
    </g>
    <g id="xtick_3">
     <g id="line2d_3">
      <g>
       <use xlink:href="#m8969f07550" x="118.234091" y="224.64" style="stroke: #000000; stroke-width: 0.8"/>
      </g>
     </g>
     <g id="text_3">
      <!-- 5.0 -->
      <g transform="translate(110.282528 239.238437)scale(0.1 -0.1)">
       <use xlink:href="#DejaVuSans-35"/>
       <use xlink:href="#DejaVuSans-2e" x="63.623047"/>
       <use xlink:href="#DejaVuSans-30" x="95.410156"/>
      </g>
     </g>
    </g>
    <g id="xtick_4">
     <g id="line2d_4">
      <g>
       <use xlink:href="#m8969f07550" x="156.279545" y="224.64" style="stroke: #000000; stroke-width: 0.8"/>
      </g>
     </g>
     <g id="text_4">
      <!-- 7.5 -->
      <g transform="translate(148.327983 239.238437)scale(0.1 -0.1)">
       <defs>
        <path id="DejaVuSans-37" d="M 525 4666 
L 3525 4666 
L 3525 4397 
L 1831 0 
L 1172 0 
L 2766 4134 
L 525 4134 
L 525 4666 
z
" transform="scale(0.015625)"/>
       </defs>
       <use xlink:href="#DejaVuSans-37"/>
       <use xlink:href="#DejaVuSans-2e" x="63.623047"/>
       <use xlink:href="#DejaVuSans-35" x="95.410156"/>
      </g>
     </g>
    </g>
    <g id="xtick_5">
     <g id="line2d_5">
      <g>
       <use xlink:href="#m8969f07550" x="194.325" y="224.64" style="stroke: #000000; stroke-width: 0.8"/>
      </g>
     </g>
     <g id="text_5">
      <!-- 10.0 -->
      <g transform="translate(183.192188 239.238437)scale(0.1 -0.1)">
       <defs>
        <path id="DejaVuSans-31" d="M 794 531 
L 1825 531 
L 1825 4091 
L 703 3866 
L 703 4441 
L 1819 4666 
L 2450 4666 
L 2450 531 
L 3481 531 
L 3481 0 
L 794 0 
L 794 531 
z
" transform="scale(0.015625)"/>
       </defs>
       <use xlink:href="#DejaVuSans-31"/>
       <use xlink:href="#DejaVuSans-30" x="63.623047"/>
       <use xlink:href="#DejaVuSans-2e" x="127.246094"/>
       <use xlink:href="#DejaVuSans-30" x="159.033203"/>
      </g>
     </g>
    </g>
    <g id="xtick_6">
     <g id="line2d_6">
      <g>
       <use xlink:href="#m8969f07550" x="232.370455" y="224.64" style="stroke: #000000; stroke-width: 0.8"/>
      </g>
     </g>
     <g id="text_6">
      <!-- 12.5 -->
      <g transform="translate(221.237642 239.238437)scale(0.1 -0.1)">
       <use xlink:href="#DejaVuSans-31"/>
       <use xlink:href="#DejaVuSans-32" x="63.623047"/>
       <use xlink:href="#DejaVuSans-2e" x="127.246094"/>
       <use xlink:href="#DejaVuSans-35" x="159.033203"/>
      </g>
     </g>
    </g>
    <g id="xtick_7">
     <g id="line2d_7">
      <g>
       <use xlink:href="#m8969f07550" x="270.415909" y="224.64" style="stroke: #000000; stroke-width: 0.8"/>
      </g>
     </g>
     <g id="text_7">
      <!-- 15.0 -->
      <g transform="translate(259.283097 239.238437)scale(0.1 -0.1)">
       <use xlink:href="#DejaVuSans-31"/>
       <use xlink:href="#DejaVuSans-35" x="63.623047"/>
       <use xlink:href="#DejaVuSans-2e" x="127.246094"/>
       <use xlink:href="#DejaVuSans-30" x="159.033203"/>
      </g>
     </g>
    </g>
    <g id="xtick_8">
     <g id="line2d_8">
      <g>
       <use xlink:href="#m8969f07550" x="308.461364" y="224.64" style="stroke: #000000; stroke-width: 0.8"/>
      </g>
     </g>
     <g id="text_8">
      <!-- 17.5 -->
      <g transform="translate(297.328551 239.238437)scale(0.1 -0.1)">
       <use xlink:href="#DejaVuSans-31"/>
       <use xlink:href="#DejaVuSans-37" x="63.623047"/>
       <use xlink:href="#DejaVuSans-2e" x="127.246094"/>
       <use xlink:href="#DejaVuSans-35" x="159.033203"/>
      </g>
     </g>
    </g>
    <g id="xtick_9">
     <g id="line2d_9">
      <g>
       <use xlink:href="#m8969f07550" x="346.506818" y="224.64" style="stroke: #000000; stroke-width: 0.8"/>
      </g>
     </g>
     <g id="text_9">
      <!-- 20.0 -->
      <g transform="translate(335.374006 239.238437)scale(0.1 -0.1)">
       <use xlink:href="#DejaVuSans-32"/>
       <use xlink:href="#DejaVuSans-30" x="63.623047"/>
       <use xlink:href="#DejaVuSans-2e" x="127.246094"/>
       <use xlink:href="#DejaVuSans-30" x="159.033203"/>
      </g>
     </g>
    </g>
   </g>
   <g id="matplotlib.axis_2">
    <g id="ytick_1">
     <g id="line2d_10">
      <defs>
       <path id="m837668902e" d="M 0 0 
L -3.5 0 
" style="stroke: #000000; stroke-width: 0.8"/>
      </defs>
      <g>
       <use xlink:href="#m837668902e" x="26.925" y="209.06293" style="stroke: #000000; stroke-width: 0.8"/>
      </g>
     </g>
     <g id="text_10">
      <!-- 0 -->
      <g transform="translate(13.5625 212.862149)scale(0.1 -0.1)">
       <use xlink:href="#DejaVuSans-30"/>
      </g>
     </g>
    </g>
    <g id="ytick_2">
     <g id="line2d_11">
      <g>
       <use xlink:href="#m837668902e" x="26.925" y="173.318792" style="stroke: #000000; stroke-width: 0.8"/>
      </g>
     </g>
     <g id="text_11">
      <!-- 2 -->
      <g transform="translate(13.5625 177.11801)scale(0.1 -0.1)">
       <use xlink:href="#DejaVuSans-32"/>
      </g>
     </g>
    </g>
    <g id="ytick_3">
     <g id="line2d_12">
      <g>
       <use xlink:href="#m837668902e" x="26.925" y="137.574653" style="stroke: #000000; stroke-width: 0.8"/>
      </g>
     </g>
     <g id="text_12">
      <!-- 4 -->
      <g transform="translate(13.5625 141.373872)scale(0.1 -0.1)">
       <defs>
        <path id="DejaVuSans-34" d="M 2419 4116 
L 825 1625 
L 2419 1625 
L 2419 4116 
z
M 2253 4666 
L 3047 4666 
L 3047 1625 
L 3713 1625 
L 3713 1100 
L 3047 1100 
L 3047 0 
L 2419 0 
L 2419 1100 
L 313 1100 
L 313 1709 
L 2253 4666 
z
" transform="scale(0.015625)"/>
       </defs>
       <use xlink:href="#DejaVuSans-34"/>
      </g>
     </g>
    </g>
    <g id="ytick_4">
     <g id="line2d_13">
      <g>
       <use xlink:href="#m837668902e" x="26.925" y="101.830515" style="stroke: #000000; stroke-width: 0.8"/>
      </g>
     </g>
     <g id="text_13">
      <!-- 6 -->
      <g transform="translate(13.5625 105.629734)scale(0.1 -0.1)">
       <defs>
        <path id="DejaVuSans-36" d="M 2113 2584 
Q 1688 2584 1439 2293 
Q 1191 2003 1191 1497 
Q 1191 994 1439 701 
Q 1688 409 2113 409 
Q 2538 409 2786 701 
Q 3034 994 3034 1497 
Q 3034 2003 2786 2293 
Q 2538 2584 2113 2584 
z
M 3366 4563 
L 3366 3988 
Q 3128 4100 2886 4159 
Q 2644 4219 2406 4219 
Q 1781 4219 1451 3797 
Q 1122 3375 1075 2522 
Q 1259 2794 1537 2939 
Q 1816 3084 2150 3084 
Q 2853 3084 3261 2657 
Q 3669 2231 3669 1497 
Q 3669 778 3244 343 
Q 2819 -91 2113 -91 
Q 1303 -91 875 529 
Q 447 1150 447 2328 
Q 447 3434 972 4092 
Q 1497 4750 2381 4750 
Q 2619 4750 2861 4703 
Q 3103 4656 3366 4563 
z
" transform="scale(0.015625)"/>
       </defs>
       <use xlink:href="#DejaVuSans-36"/>
      </g>
     </g>
    </g>
    <g id="ytick_5">
     <g id="line2d_14">
      <g>
       <use xlink:href="#m837668902e" x="26.925" y="66.086377" style="stroke: #000000; stroke-width: 0.8"/>
      </g>
     </g>
     <g id="text_14">
      <!-- 8 -->
      <g transform="translate(13.5625 69.885596)scale(0.1 -0.1)">
       <defs>
        <path id="DejaVuSans-38" d="M 2034 2216 
Q 1584 2216 1326 1975 
Q 1069 1734 1069 1313 
Q 1069 891 1326 650 
Q 1584 409 2034 409 
Q 2484 409 2743 651 
Q 3003 894 3003 1313 
Q 3003 1734 2745 1975 
Q 2488 2216 2034 2216 
z
M 1403 2484 
Q 997 2584 770 2862 
Q 544 3141 544 3541 
Q 544 4100 942 4425 
Q 1341 4750 2034 4750 
Q 2731 4750 3128 4425 
Q 3525 4100 3525 3541 
Q 3525 3141 3298 2862 
Q 3072 2584 2669 2484 
Q 3125 2378 3379 2068 
Q 3634 1759 3634 1313 
Q 3634 634 3220 271 
Q 2806 -91 2034 -91 
Q 1263 -91 848 271 
Q 434 634 434 1313 
Q 434 1759 690 2068 
Q 947 2378 1403 2484 
z
M 1172 3481 
Q 1172 3119 1398 2916 
Q 1625 2713 2034 2713 
Q 2441 2713 2670 2916 
Q 2900 3119 2900 3481 
Q 2900 3844 2670 4047 
Q 2441 4250 2034 4250 
Q 1625 4250 1398 4047 
Q 1172 3844 1172 3481 
z
" transform="scale(0.015625)"/>
       </defs>
       <use xlink:href="#DejaVuSans-38"/>
      </g>
     </g>
    </g>
    <g id="ytick_6">
     <g id="line2d_15">
      <g>
       <use xlink:href="#m837668902e" x="26.925" y="30.342239" style="stroke: #000000; stroke-width: 0.8"/>
      </g>
     </g>
     <g id="text_15">
      <!-- 10 -->
      <g transform="translate(7.2 34.141457)scale(0.1 -0.1)">
       <use xlink:href="#DejaVuSans-31"/>
       <use xlink:href="#DejaVuSans-30" x="63.623047"/>
      </g>
     </g>
    </g>
   </g>
   <g id="line2d_16">
    <path d="M 42.143182 208.675928 
L 42.904091 208.719411 
L 43.665 211.687997 
L 45.186818 202.175624 
L 45.947727 201.445318 
L 46.708636 208.719054 
L 47.469545 207.712374 
L 48.230455 205.608188 
L 48.991364 204.816348 
L 49.752273 210.97651 
L 50.513182 205.362947 
L 51.274091 207.21351 
L 52.035 205.934728 
L 52.795909 208.668422 
L 53.556818 207.80277 
L 54.317727 201.841881 
L 55.839545 211.54091 
L 56.600455 206.385998 
L 57.361364 205.263596 
L 58.122273 206.672648 
L 58.883182 205.666075 
L 59.644091 213.606493 
L 60.405 204.537508 
L 61.165909 207.996629 
L 61.926818 205.711327 
L 62.687727 204.528 
L 63.448636 209.729665 
L 64.209545 207.623996 
L 64.970455 208.837617 
L 65.731364 205.051097 
L 66.492273 204.212182 
L 67.253182 206.952721 
L 68.014091 210.452001 
L 68.775 206.126013 
L 69.535909 208.605155 
L 70.296818 209.686022 
L 71.057727 207.830329 
L 71.818636 210.908007 
L 72.579545 207.875885 
L 73.340455 204.204408 
L 74.101364 206.577837 
L 74.862273 206.167047 
L 75.623182 209.676782 
L 76.384091 206.635689 
L 77.145 207.850167 
L 77.905909 211.954488 
L 78.666818 206.315957 
L 79.427727 207.793048 
L 80.188636 209.93884 
L 80.949545 205.429431 
L 81.710455 206.179433 
L 82.471364 205.501402 
L 83.232273 204.551734 
L 83.993182 202.709177 
L 84.754091 210.808602 
L 85.515 204.513899 
L 86.275909 205.181349 
L 87.036818 206.303929 
L 87.797727 210.168854 
L 88.558636 206.769175 
L 89.319545 205.382338 
L 90.080455 202.813693 
L 90.841364 207.53771 
L 91.602273 206.818323 
L 92.363182 204.516615 
L 93.124091 208.947548 
L 93.885 207.567503 
L 94.645909 206.799861 
L 95.406818 206.703317 
L 96.167727 202.499752 
L 97.689545 209.135383 
L 98.450455 207.774139 
L 99.211364 202.213174 
L 99.972273 205.092328 
L 100.733182 207.300833 
L 101.494091 203.262407 
L 102.255 206.821433 
L 103.015909 205.230855 
L 103.776818 203.924728 
L 104.537727 204.942006 
L 105.298636 206.542343 
L 106.059545 202.964605 
L 106.820455 206.149908 
L 107.581364 205.940018 
L 108.342273 200.428987 
L 109.103182 197.723084 
L 109.864091 206.341586 
L 110.625 201.184654 
L 111.385909 206.823935 
L 112.146818 203.65545 
L 112.907727 198.113178 
L 113.668636 209.478027 
L 114.429545 200.462908 
L 115.190455 207.256135 
L 115.951364 198.836586 
L 116.712273 202.010165 
L 117.473182 200.82253 
L 118.234091 210.965251 
L 118.995 197.705141 
L 119.755909 201.187156 
L 120.516818 203.05829 
L 121.277727 198.92239 
L 122.038636 198.54234 
L 122.799545 207.252329 
L 123.560455 202.436503 
L 124.321364 199.556794 
L 125.082273 202.860178 
L 125.843182 202.131034 
L 126.604091 201.641678 
L 127.365 200.845353 
L 128.125909 199.066903 
L 128.886818 199.639488 
L 129.647727 197.281269 
L 130.408636 197.505867 
L 131.169545 193.476216 
L 131.930455 200.013658 
L 132.691364 194.178338 
L 133.452273 197.227545 
L 134.213182 197.155843 
L 134.974091 195.739553 
L 135.735 195.242405 
L 136.495909 194.392749 
L 137.256818 192.087449 
L 138.017727 191.195365 
L 138.778636 187.707273 
L 139.539545 192.125642 
L 140.300455 190.571254 
L 141.061364 191.10747 
L 141.822273 188.408144 
L 142.583182 181.515763 
L 143.344091 185.071071 
L 144.105 182.648262 
L 144.865909 184.476771 
L 145.626818 177.53694 
L 146.387727 179.781243 
L 147.148636 179.526887 
L 147.909545 171.077223 
L 148.670455 176.069643 
L 149.431364 173.165199 
L 150.192273 173.902726 
L 150.953182 165.797707 
L 151.714091 155.69098 
L 152.475 158.73395 
L 153.235909 159.391374 
L 153.996818 165.229786 
L 154.757727 152.177796 
L 155.518636 149.277123 
L 156.279545 151.684545 
L 157.040455 144.174415 
L 157.801364 141.390573 
L 158.562273 132.421993 
L 159.323182 135.648205 
L 160.084091 133.582194 
L 160.845 122.878683 
L 161.605909 122.334658 
L 162.366818 116.958114 
L 163.127727 110.039961 
L 164.649545 102.448353 
L 165.410455 103.733801 
L 166.171364 92.530266 
L 167.693182 84.265649 
L 168.454091 86.249449 
L 169.215 77.138643 
L 169.975909 78.682379 
L 170.736818 70.193021 
L 171.497727 68.67595 
L 172.258636 62.892727 
L 173.019545 52.900972 
L 173.780455 54.302821 
L 174.541364 52.46811 
L 175.302273 42.398611 
L 176.063182 35.814988 
L 176.824091 39.400554 
L 177.585 33.198678 
L 178.345909 37.64507 
L 179.106818 32.232782 
L 179.867727 34.245159 
L 180.628636 34.147899 
L 181.389545 31.334424 
L 182.911364 22.25704 
L 183.672273 26.797278 
L 184.433182 26.40688 
L 185.194091 28.706605 
L 185.955 33.84595 
L 186.715909 30.763001 
L 187.476818 36.687252 
L 188.237727 36.554713 
L 188.998636 41.691074 
L 189.759545 45.684302 
L 190.520455 46.00616 
L 191.281364 54.095327 
L 192.042273 51.238941 
L 192.803182 55.136839 
L 193.564091 62.501865 
L 195.085909 69.910106 
L 195.846818 70.924167 
L 196.607727 78.82691 
L 197.368636 88.0047 
L 198.129545 87.161514 
L 198.890455 87.693851 
L 199.651364 96.030171 
L 200.412273 100.463266 
L 201.173182 105.959446 
L 201.934091 105.636622 
L 202.695 109.806998 
L 203.455909 117.427202 
L 204.216818 121.44949 
L 204.977727 120.955577 
L 205.738636 134.515563 
L 206.499545 132.145798 
L 207.260455 141.729105 
L 208.782273 140.883542 
L 210.304091 154.045088 
L 211.065 159.204379 
L 211.825909 162.235786 
L 212.586818 165.876308 
L 213.347727 165.620076 
L 214.108636 168.518622 
L 214.869545 169.109955 
L 215.630455 167.754091 
L 216.391364 173.225482 
L 217.152273 173.850861 
L 217.913182 174.963344 
L 218.674091 177.822196 
L 219.435 182.581706 
L 220.195909 181.912987 
L 220.956818 177.293218 
L 221.717727 188.767516 
L 222.478636 185.009609 
L 223.239545 190.354859 
L 224.000455 190.469258 
L 224.761364 193.183346 
L 225.522273 191.281258 
L 226.283182 191.154956 
L 227.044091 186.97593 
L 227.805 190.640508 
L 228.565909 193.083352 
L 229.326818 194.061401 
L 230.087727 198.969447 
L 230.848636 199.357968 
L 231.609545 189.980421 
L 232.370455 198.893026 
L 233.131364 199.301277 
L 233.892273 195.341631 
L 234.653182 202.40033 
L 235.414091 200.018966 
L 236.175 207.382848 
L 236.935909 197.311133 
L 237.696818 196.733937 
L 238.457727 204.861671 
L 239.218636 199.914575 
L 239.979545 200.203209 
L 240.740455 196.191323 
L 241.501364 200.860151 
L 242.262273 199.856956 
L 243.023182 201.064822 
L 243.784091 203.533705 
L 244.545 203.057915 
L 245.305909 201.847207 
L 246.066818 205.956067 
L 246.827727 199.36794 
L 247.588636 201.275927 
L 248.349545 200.076836 
L 249.110455 204.474133 
L 249.871364 204.242047 
L 250.632273 205.415062 
L 251.393182 205.137259 
L 252.154091 198.409282 
L 252.915 204.190933 
L 253.675909 204.985864 
L 254.436818 203.555473 
L 255.197727 207.895384 
L 255.958636 200.282525 
L 256.719545 200.219509 
L 257.480455 203.312002 
L 258.241364 205.537361 
L 259.002273 198.301067 
L 259.763182 206.292473 
L 260.524091 203.104954 
L 261.285 204.415513 
L 262.045909 206.398383 
L 262.806818 206.117291 
L 263.567727 208.490827 
L 264.328636 200.826051 
L 265.089545 204.140551 
L 265.850455 202.927306 
L 266.611364 202.827401 
L 267.372273 203.071355 
L 268.133182 205.063679 
L 268.894091 208.061719 
L 269.655 206.448836 
L 270.415909 203.773209 
L 271.176818 208.540065 
L 271.937727 205.690113 
L 272.698636 205.743854 
L 273.459545 209.245726 
L 274.220455 210.411163 
L 274.981364 209.956122 
L 275.742273 206.265147 
L 276.503182 206.58461 
L 277.264091 201.367163 
L 278.025 207.146454 
L 278.785909 204.262331 
L 279.546818 205.629473 
L 280.307727 210.65501 
L 281.068636 207.693054 
L 281.829545 200.223297 
L 282.590455 203.62319 
L 283.351364 203.48856 
L 284.873182 209.693778 
L 285.634091 201.154236 
L 286.395 206.75368 
L 287.155909 205.442085 
L 287.916818 209.745607 
L 288.677727 206.115039 
L 289.438636 207.459323 
L 290.199545 209.587261 
L 290.960455 203.313825 
L 291.721364 209.028848 
L 293.243182 196.440817 
L 294.004091 205.678335 
L 294.765 205.354404 
L 295.525909 204.545228 
L 296.286818 203.02839 
L 298.569545 212.643081 
L 299.330455 207.925909 
L 300.091364 208.803553 
L 300.852273 207.438752 
L 301.613182 204.386757 
L 302.374091 206.547776 
L 303.135 202.781523 
L 303.895909 213.047812 
L 304.656818 205.622128 
L 305.417727 210.551959 
L 306.939545 202.062137 
L 307.700455 210.695704 
L 308.461364 211.187669 
L 309.222273 210.043106 
L 309.983182 205.840685 
L 310.744091 207.894115 
L 311.505 203.361472 
L 312.265909 206.090305 
L 313.026818 205.365646 
L 313.787727 207.121934 
L 314.548636 207.534993 
L 315.309545 204.225265 
L 316.070455 204.763 
L 316.831364 203.704491 
L 317.592273 209.777956 
L 318.353182 203.589091 
L 319.114091 209.732007 
L 319.875 208.95341 
L 320.635909 205.055458 
L 321.396818 208.085489 
L 322.157727 206.562306 
L 322.918636 210.48569 
L 323.679545 212.912359 
L 324.440455 210.19282 
L 325.201364 208.838457 
L 325.962273 211.536138 
L 326.723182 203.225519 
L 328.245 210.010311 
L 329.005909 209.580505 
L 329.766818 208.112297 
L 330.527727 204.783284 
L 331.288636 205.022609 
L 332.049545 209.35798 
L 332.810455 206.286254 
L 333.571364 205.732935 
L 334.332273 207.688943 
L 335.093182 205.763031 
L 335.854091 205.578252 
L 336.615 206.313759 
L 337.375909 207.658203 
L 338.136818 207.595169 
L 338.897727 207.820517 
L 339.658636 206.041835 
L 341.180455 211.663906 
L 341.941364 214.688271 
L 342.702273 201.740958 
L 343.463182 210.335725 
L 344.224091 214.756364 
L 344.985 206.219502 
L 345.745909 209.316535 
L 346.506818 210.69776 
L 346.506818 210.69776 
" clip-path="url(#pb184299ae3)" style="fill: none; stroke: #1f77b4; stroke-width: 1.5; stroke-linecap: square"/>
   </g>
   <g id="line2d_17">
    <path d="M 42.143182 206.112903 
L 57.361364 205.368463 
L 69.535909 204.551419 
L 79.427727 203.672318 
L 87.797727 202.713686 
L 94.645909 201.72835 
L 100.733182 200.649722 
L 106.059545 199.501894 
L 110.625 198.324299 
L 115.190455 196.920424 
L 118.995 195.534852 
L 122.799545 193.905339 
L 125.843182 192.387264 
L 128.886818 190.637953 
L 131.930455 188.61016 
L 134.974091 186.244677 
L 137.256818 184.204736 
L 139.539545 181.894597 
L 141.822273 179.267937 
L 144.105 176.269129 
L 146.387727 172.831314 
L 148.670455 168.874193 
L 150.953182 164.301649 
L 153.235909 158.999434 
L 154.757727 154.993891 
L 156.279545 150.560219 
L 157.801364 145.650141 
L 159.323182 140.21264 
L 160.845 134.195581 
L 162.366818 127.548461 
L 164.649545 116.302225 
L 166.932273 103.453451 
L 169.215 89.058432 
L 172.258636 68.058606 
L 176.063182 41.84069 
L 177.585 32.758185 
L 179.106818 25.30835 
L 179.867727 22.368827 
L 180.628636 20.034094 
L 181.389545 18.353127 
L 182.150455 17.362335 
L 182.911364 17.083636 
L 183.672273 17.523256 
L 184.433182 18.671384 
L 185.194091 20.502721 
L 185.955 22.977846 
L 186.715909 26.045285 
L 188.237727 33.706629 
L 189.759545 42.93642 
L 192.042273 58.488212 
L 196.607727 90.183824 
L 198.890455 104.470057 
L 201.173182 117.19852 
L 203.455909 128.327201 
L 205.738636 137.950935 
L 208.021364 146.226418 
L 210.304091 153.327961 
L 212.586818 159.424186 
L 214.869545 164.667428 
L 217.152273 169.190218 
L 219.435 173.105375 
L 221.717727 176.507751 
L 224.000455 179.476558 
L 226.283182 182.077741 
L 228.565909 184.366168 
L 230.848636 186.387535 
L 233.892273 188.732257 
L 236.935909 190.742984 
L 239.979545 192.478168 
L 243.023182 193.984469 
L 246.827727 195.60189 
L 250.632273 196.977662 
L 255.197727 198.372098 
L 259.763182 199.542187 
L 265.089545 200.683091 
L 271.176818 201.755597 
L 278.025 202.735694 
L 286.395 203.689583 
L 295.525909 204.505171 
L 306.939545 205.289181 
L 320.635909 205.990613 
L 337.375909 206.612085 
L 346.506818 206.874869 
L 346.506818 206.874869 
" clip-path="url(#pb184299ae3)" style="fill: none; stroke: #ff7f0e; stroke-width: 1.5; stroke-linecap: square"/>
   </g>
   <g id="patch_3">
    <path d="M 26.925 224.64 
L 26.925 7.2 
" style="fill: none; stroke: #000000; stroke-width: 0.8; stroke-linejoin: miter; stroke-linecap: square"/>
   </g>
   <g id="patch_4">
    <path d="M 361.725 224.64 
L 361.725 7.2 
" style="fill: none; stroke: #000000; stroke-width: 0.8; stroke-linejoin: miter; stroke-linecap: square"/>
   </g>
   <g id="patch_5">
    <path d="M 26.925 224.64 
L 361.725 224.64 
" style="fill: none; stroke: #000000; stroke-width: 0.8; stroke-linejoin: miter; stroke-linecap: square"/>
   </g>
   <g id="patch_6">
    <path d="M 26.925 7.2 
L 361.725 7.2 
" style="fill: none; stroke: #000000; stroke-width: 0.8; stroke-linejoin: miter; stroke-linecap: square"/>
   </g>
   <g id="legend_1">
    <g id="patch_7">
     <path d="M 237.215625 29.878125 
L 354.725 29.878125 
Q 356.725 29.878125 356.725 27.878125 
L 356.725 14.2 
Q 356.725 12.2 354.725 12.2 
L 237.215625 12.2 
Q 235.215625 12.2 235.215625 14.2 
L 235.215625 27.878125 
Q 235.215625 29.878125 237.215625 29.878125 
z
" style="fill: #ffffff; opacity: 0.8; stroke: #cccccc; stroke-linejoin: miter"/>
    </g>
    <g id="line2d_18">
     <path d="M 239.215625 20.298437 
L 249.215625 20.298437 
L 259.215625 20.298437 
" style="fill: none; stroke: #ff7f0e; stroke-width: 1.5; stroke-linecap: square"/>
    </g>
    <g id="text_16">
     <!-- Lorentzian Model -->
     <g transform="translate(267.215625 23.798437)scale(0.1 -0.1)">
      <defs>
       <path id="DejaVuSans-4c" d="M 628 4666 
L 1259 4666 
L 1259 531 
L 3531 531 
L 3531 0 
L 628 0 
L 628 4666 
z
" transform="scale(0.015625)"/>
       <path id="DejaVuSans-6f" d="M 1959 3097 
Q 1497 3097 1228 2736 
Q 959 2375 959 1747 
Q 959 1119 1226 758 
Q 1494 397 1959 397 
Q 2419 397 2687 759 
Q 2956 1122 2956 1747 
Q 2956 2369 2687 2733 
Q 2419 3097 1959 3097 
z
M 1959 3584 
Q 2709 3584 3137 3096 
Q 3566 2609 3566 1747 
Q 3566 888 3137 398 
Q 2709 -91 1959 -91 
Q 1206 -91 779 398 
Q 353 888 353 1747 
Q 353 2609 779 3096 
Q 1206 3584 1959 3584 
z
" transform="scale(0.015625)"/>
       <path id="DejaVuSans-72" d="M 2631 2963 
Q 2534 3019 2420 3045 
Q 2306 3072 2169 3072 
Q 1681 3072 1420 2755 
Q 1159 2438 1159 1844 
L 1159 0 
L 581 0 
L 581 3500 
L 1159 3500 
L 1159 2956 
Q 1341 3275 1631 3429 
Q 1922 3584 2338 3584 
Q 2397 3584 2469 3576 
Q 2541 3569 2628 3553 
L 2631 2963 
z
" transform="scale(0.015625)"/>
       <path id="DejaVuSans-65" d="M 3597 1894 
L 3597 1613 
L 953 1613 
Q 991 1019 1311 708 
Q 1631 397 2203 397 
Q 2534 397 2845 478 
Q 3156 559 3463 722 
L 3463 178 
Q 3153 47 2828 -22 
Q 2503 -91 2169 -91 
Q 1331 -91 842 396 
Q 353 884 353 1716 
Q 353 2575 817 3079 
Q 1281 3584 2069 3584 
Q 2775 3584 3186 3129 
Q 3597 2675 3597 1894 
z
M 3022 2063 
Q 3016 2534 2758 2815 
Q 2500 3097 2075 3097 
Q 1594 3097 1305 2825 
Q 1016 2553 972 2059 
L 3022 2063 
z
" transform="scale(0.015625)"/>
       <path id="DejaVuSans-6e" d="M 3513 2113 
L 3513 0 
L 2938 0 
L 2938 2094 
Q 2938 2591 2744 2837 
Q 2550 3084 2163 3084 
Q 1697 3084 1428 2787 
Q 1159 2491 1159 1978 
L 1159 0 
L 581 0 
L 581 3500 
L 1159 3500 
L 1159 2956 
Q 1366 3272 1645 3428 
Q 1925 3584 2291 3584 
Q 2894 3584 3203 3211 
Q 3513 2838 3513 2113 
z
" transform="scale(0.015625)"/>
       <path id="DejaVuSans-74" d="M 1172 4494 
L 1172 3500 
L 2356 3500 
L 2356 3053 
L 1172 3053 
L 1172 1153 
Q 1172 725 1289 603 
Q 1406 481 1766 481 
L 2356 481 
L 2356 0 
L 1766 0 
Q 1100 0 847 248 
Q 594 497 594 1153 
L 594 3053 
L 172 3053 
L 172 3500 
L 594 3500 
L 594 4494 
L 1172 4494 
z
" transform="scale(0.015625)"/>
       <path id="DejaVuSans-7a" d="M 353 3500 
L 3084 3500 
L 3084 2975 
L 922 459 
L 3084 459 
L 3084 0 
L 275 0 
L 275 525 
L 2438 3041 
L 353 3041 
L 353 3500 
z
" transform="scale(0.015625)"/>
       <path id="DejaVuSans-69" d="M 603 3500 
L 1178 3500 
L 1178 0 
L 603 0 
L 603 3500 
z
M 603 4863 
L 1178 4863 
L 1178 4134 
L 603 4134 
L 603 4863 
z
" transform="scale(0.015625)"/>
       <path id="DejaVuSans-61" d="M 2194 1759 
Q 1497 1759 1228 1600 
Q 959 1441 959 1056 
Q 959 750 1161 570 
Q 1363 391 1709 391 
Q 2188 391 2477 730 
Q 2766 1069 2766 1631 
L 2766 1759 
L 2194 1759 
z
M 3341 1997 
L 3341 0 
L 2766 0 
L 2766 531 
Q 2569 213 2275 61 
Q 1981 -91 1556 -91 
Q 1019 -91 701 211 
Q 384 513 384 1019 
Q 384 1609 779 1909 
Q 1175 2209 1959 2209 
L 2766 2209 
L 2766 2266 
Q 2766 2663 2505 2880 
Q 2244 3097 1772 3097 
Q 1472 3097 1187 3025 
Q 903 2953 641 2809 
L 641 3341 
Q 956 3463 1253 3523 
Q 1550 3584 1831 3584 
Q 2591 3584 2966 3190 
Q 3341 2797 3341 1997 
z
" transform="scale(0.015625)"/>
       <path id="DejaVuSans-20" transform="scale(0.015625)"/>
       <path id="DejaVuSans-4d" d="M 628 4666 
L 1569 4666 
L 2759 1491 
L 3956 4666 
L 4897 4666 
L 4897 0 
L 4281 0 
L 4281 4097 
L 3078 897 
L 2444 897 
L 1241 4097 
L 1241 0 
L 628 0 
L 628 4666 
z
" transform="scale(0.015625)"/>
       <path id="DejaVuSans-64" d="M 2906 2969 
L 2906 4863 
L 3481 4863 
L 3481 0 
L 2906 0 
L 2906 525 
Q 2725 213 2448 61 
Q 2172 -91 1784 -91 
Q 1150 -91 751 415 
Q 353 922 353 1747 
Q 353 2572 751 3078 
Q 1150 3584 1784 3584 
Q 2172 3584 2448 3432 
Q 2725 3281 2906 2969 
z
M 947 1747 
Q 947 1113 1208 752 
Q 1469 391 1925 391 
Q 2381 391 2643 752 
Q 2906 1113 2906 1747 
Q 2906 2381 2643 2742 
Q 2381 3103 1925 3103 
Q 1469 3103 1208 2742 
Q 947 2381 947 1747 
z
" transform="scale(0.015625)"/>
       <path id="DejaVuSans-6c" d="M 603 4863 
L 1178 4863 
L 1178 0 
L 603 0 
L 603 4863 
z
" transform="scale(0.015625)"/>
      </defs>
      <use xlink:href="#DejaVuSans-4c"/>
      <use xlink:href="#DejaVuSans-6f" x="53.962891"/>
      <use xlink:href="#DejaVuSans-72" x="115.144531"/>
      <use xlink:href="#DejaVuSans-65" x="154.007812"/>
      <use xlink:href="#DejaVuSans-6e" x="215.53125"/>
      <use xlink:href="#DejaVuSans-74" x="278.910156"/>
      <use xlink:href="#DejaVuSans-7a" x="318.119141"/>
      <use xlink:href="#DejaVuSans-69" x="370.609375"/>
      <use xlink:href="#DejaVuSans-61" x="398.392578"/>
      <use xlink:href="#DejaVuSans-6e" x="459.671875"/>
      <use xlink:href="#DejaVuSans-20" x="523.050781"/>
      <use xlink:href="#DejaVuSans-4d" x="554.837891"/>
      <use xlink:href="#DejaVuSans-6f" x="641.117188"/>
      <use xlink:href="#DejaVuSans-64" x="702.298828"/>
      <use xlink:href="#DejaVuSans-65" x="765.775391"/>
      <use xlink:href="#DejaVuSans-6c" x="827.298828"/>
     </g>
    </g>
   </g>
  </g>
 </g>
 <defs>
  <clipPath id="pb184299ae3">
   <rect x="26.925" y="7.2" width="334.8" height="217.44"/>
  </clipPath>
 </defs>
</svg>
