<?xml version="1.0" encoding="utf-8" standalone="no"?>
<!DOCTYPE svg PUBLIC "-//W3C//DTD SVG 1.1//EN"
  "http://www.w3.org/Graphics/SVG/1.1/DTD/svg11.dtd">
<svg xmlns:xlink="http://www.w3.org/1999/xlink" width="748.365pt" height="297.190125pt" viewBox="0 0 748.365 297.190125" xmlns="http://www.w3.org/2000/svg" version="1.1">
 <metadata>
  <rdf:RDF xmlns:dc="http://purl.org/dc/elements/1.1/" xmlns:cc="http://creativecommons.org/ns#" xmlns:rdf="http://www.w3.org/1999/02/22-rdf-syntax-ns#">
   <cc:Work>
    <dc:type rdf:resource="http://purl.org/dc/dcmitype/StillImage"/>
    <dc:date>2022-11-28T20:27:40.230157</dc:date>
    <dc:format>image/svg+xml</dc:format>
    <dc:creator>
     <cc:Agent>
      <dc:title>Matplotlib v3.6.2, https://matplotlib.org/</dc:title>
     </cc:Agent>
    </dc:creator>
   </cc:Work>
  </rdf:RDF>
 </metadata>
 <defs>
  <style type="text/css">*{stroke-linejoin: round; stroke-linecap: butt}</style>
 </defs>
 <g id="figure_1">
  <g id="patch_1">
   <path d="M 0 297.190125 
L 748.365 297.190125 
L 748.365 0 
L 0 0 
z
" style="fill: #ffffff"/>
  </g>
  <g id="axes_1">
   <g id="patch_2">
    <path d="M 26.925 273.312 
L 351.579545 273.312 
L 351.579545 7.2 
L 26.925 7.2 
z
" style="fill: #ffffff"/>
   </g>
   <g id="matplotlib.axis_1">
    <g id="xtick_1">
     <g id="line2d_1">
      <defs>
       <path id="mea1b77b0e6" d="M 0 0 
L 0 3.5 
" style="stroke: #000000; stroke-width: 0.8"/>
      </defs>
      <g>
       <use xlink:href="#mea1b77b0e6" x="41.682025" y="273.312" style="stroke: #000000; stroke-width: 0.8"/>
      </g>
     </g>
     <g id="text_1">
      <!-- 0.0 -->
      <g transform="translate(33.730462 287.910437) scale(0.1 -0.1)">
       <defs>
        <path id="DejaVuSans-30" d="M 2034 4250 
Q 1547 4250 1301 3770 
Q 1056 3291 1056 2328 
Q 1056 1369 1301 889 
Q 1547 409 2034 409 
Q 2525 409 2770 889 
Q 3016 1369 3016 2328 
Q 3016 3291 2770 3770 
Q 2525 4250 2034 4250 
z
M 2034 4750 
Q 2819 4750 3233 4129 
Q 3647 3509 3647 2328 
Q 3647 1150 3233 529 
Q 2819 -91 2034 -91 
Q 1250 -91 836 529 
Q 422 1150 422 2328 
Q 422 3509 836 4129 
Q 1250 4750 2034 4750 
z
" transform="scale(0.015625)"/>
        <path id="DejaVuSans-2e" d="M 684 794 
L 1344 794 
L 1344 0 
L 684 0 
L 684 794 
z
" transform="scale(0.015625)"/>
       </defs>
       <use xlink:href="#DejaVuSans-30"/>
       <use xlink:href="#DejaVuSans-2e" x="63.623047"/>
       <use xlink:href="#DejaVuSans-30" x="95.410156"/>
      </g>
     </g>
    </g>
    <g id="xtick_2">
     <g id="line2d_2">
      <g>
       <use xlink:href="#mea1b77b0e6" x="78.574587" y="273.312" style="stroke: #000000; stroke-width: 0.8"/>
      </g>
     </g>
     <g id="text_2">
      <!-- 2.5 -->
      <g transform="translate(70.623024 287.910437) scale(0.1 -0.1)">
       <defs>
        <path id="DejaVuSans-32" d="M 1228 531 
L 3431 531 
L 3431 0 
L 469 0 
L 469 531 
Q 828 903 1448 1529 
Q 2069 2156 2228 2338 
Q 2531 2678 2651 2914 
Q 2772 3150 2772 3378 
Q 2772 3750 2511 3984 
Q 2250 4219 1831 4219 
Q 1534 4219 1204 4116 
Q 875 4013 500 3803 
L 500 4441 
Q 881 4594 1212 4672 
Q 1544 4750 1819 4750 
Q 2544 4750 2975 4387 
Q 3406 4025 3406 3419 
Q 3406 3131 3298 2873 
Q 3191 2616 2906 2266 
Q 2828 2175 2409 1742 
Q 1991 1309 1228 531 
z
" transform="scale(0.015625)"/>
        <path id="DejaVuSans-35" d="M 691 4666 
L 3169 4666 
L 3169 4134 
L 1269 4134 
L 1269 2991 
Q 1406 3038 1543 3061 
Q 1681 3084 1819 3084 
Q 2600 3084 3056 2656 
Q 3513 2228 3513 1497 
Q 3513 744 3044 326 
Q 2575 -91 1722 -91 
Q 1428 -91 1123 -41 
Q 819 9 494 109 
L 494 744 
Q 775 591 1075 516 
Q 1375 441 1709 441 
Q 2250 441 2565 725 
Q 2881 1009 2881 1497 
Q 2881 1984 2565 2268 
Q 2250 2553 1709 2553 
Q 1456 2553 1204 2497 
Q 953 2441 691 2322 
L 691 4666 
z
" transform="scale(0.015625)"/>
       </defs>
       <use xlink:href="#DejaVuSans-32"/>
       <use xlink:href="#DejaVuSans-2e" x="63.623047"/>
       <use xlink:href="#DejaVuSans-35" x="95.410156"/>
      </g>
     </g>
    </g>
    <g id="xtick_3">
     <g id="line2d_3">
      <g>
       <use xlink:href="#mea1b77b0e6" x="115.467149" y="273.312" style="stroke: #000000; stroke-width: 0.8"/>
      </g>
     </g>
     <g id="text_3">
      <!-- 5.0 -->
      <g transform="translate(107.515586 287.910437) scale(0.1 -0.1)">
       <use xlink:href="#DejaVuSans-35"/>
       <use xlink:href="#DejaVuSans-2e" x="63.623047"/>
       <use xlink:href="#DejaVuSans-30" x="95.410156"/>
      </g>
     </g>
    </g>
    <g id="xtick_4">
     <g id="line2d_4">
      <g>
       <use xlink:href="#mea1b77b0e6" x="152.359711" y="273.312" style="stroke: #000000; stroke-width: 0.8"/>
      </g>
     </g>
     <g id="text_4">
      <!-- 7.5 -->
      <g transform="translate(144.408148 287.910437) scale(0.1 -0.1)">
       <defs>
        <path id="DejaVuSans-37" d="M 525 4666 
L 3525 4666 
L 3525 4397 
L 1831 0 
L 1172 0 
L 2766 4134 
L 525 4134 
L 525 4666 
z
" transform="scale(0.015625)"/>
       </defs>
       <use xlink:href="#DejaVuSans-37"/>
       <use xlink:href="#DejaVuSans-2e" x="63.623047"/>
       <use xlink:href="#DejaVuSans-35" x="95.410156"/>
      </g>
     </g>
    </g>
    <g id="xtick_5">
     <g id="line2d_5">
      <g>
       <use xlink:href="#mea1b77b0e6" x="189.252273" y="273.312" style="stroke: #000000; stroke-width: 0.8"/>
      </g>
     </g>
     <g id="text_5">
      <!-- 10.0 -->
      <g transform="translate(178.11946 287.910437) scale(0.1 -0.1)">
       <defs>
        <path id="DejaVuSans-31" d="M 794 531 
L 1825 531 
L 1825 4091 
L 703 3866 
L 703 4441 
L 1819 4666 
L 2450 4666 
L 2450 531 
L 3481 531 
L 3481 0 
L 794 0 
L 794 531 
z
" transform="scale(0.015625)"/>
       </defs>
       <use xlink:href="#DejaVuSans-31"/>
       <use xlink:href="#DejaVuSans-30" x="63.623047"/>
       <use xlink:href="#DejaVuSans-2e" x="127.246094"/>
       <use xlink:href="#DejaVuSans-30" x="159.033203"/>
      </g>
     </g>
    </g>
    <g id="xtick_6">
     <g id="line2d_6">
      <g>
       <use xlink:href="#mea1b77b0e6" x="226.144835" y="273.312" style="stroke: #000000; stroke-width: 0.8"/>
      </g>
     </g>
     <g id="text_6">
      <!-- 12.5 -->
      <g transform="translate(215.012022 287.910437) scale(0.1 -0.1)">
       <use xlink:href="#DejaVuSans-31"/>
       <use xlink:href="#DejaVuSans-32" x="63.623047"/>
       <use xlink:href="#DejaVuSans-2e" x="127.246094"/>
       <use xlink:href="#DejaVuSans-35" x="159.033203"/>
      </g>
     </g>
    </g>
    <g id="xtick_7">
     <g id="line2d_7">
      <g>
       <use xlink:href="#mea1b77b0e6" x="263.037397" y="273.312" style="stroke: #000000; stroke-width: 0.8"/>
      </g>
     </g>
     <g id="text_7">
      <!-- 15.0 -->
      <g transform="translate(251.904584 287.910437) scale(0.1 -0.1)">
       <use xlink:href="#DejaVuSans-31"/>
       <use xlink:href="#DejaVuSans-35" x="63.623047"/>
       <use xlink:href="#DejaVuSans-2e" x="127.246094"/>
       <use xlink:href="#DejaVuSans-30" x="159.033203"/>
      </g>
     </g>
    </g>
    <g id="xtick_8">
     <g id="line2d_8">
      <g>
       <use xlink:href="#mea1b77b0e6" x="299.929959" y="273.312" style="stroke: #000000; stroke-width: 0.8"/>
      </g>
     </g>
     <g id="text_8">
      <!-- 17.5 -->
      <g transform="translate(288.797146 287.910437) scale(0.1 -0.1)">
       <use xlink:href="#DejaVuSans-31"/>
       <use xlink:href="#DejaVuSans-37" x="63.623047"/>
       <use xlink:href="#DejaVuSans-2e" x="127.246094"/>
       <use xlink:href="#DejaVuSans-35" x="159.033203"/>
      </g>
     </g>
    </g>
    <g id="xtick_9">
     <g id="line2d_9">
      <g>
       <use xlink:href="#mea1b77b0e6" x="336.822521" y="273.312" style="stroke: #000000; stroke-width: 0.8"/>
      </g>
     </g>
     <g id="text_9">
      <!-- 20.0 -->
      <g transform="translate(325.689708 287.910437) scale(0.1 -0.1)">
       <use xlink:href="#DejaVuSans-32"/>
       <use xlink:href="#DejaVuSans-30" x="63.623047"/>
       <use xlink:href="#DejaVuSans-2e" x="127.246094"/>
       <use xlink:href="#DejaVuSans-30" x="159.033203"/>
      </g>
     </g>
    </g>
   </g>
   <g id="matplotlib.axis_2">
    <g id="ytick_1">
     <g id="line2d_10">
      <defs>
       <path id="m614e3f38ab" d="M 0 0 
L -3.5 0 
" style="stroke: #000000; stroke-width: 0.8"/>
      </defs>
      <g>
       <use xlink:href="#m614e3f38ab" x="26.925" y="254.060882" style="stroke: #000000; stroke-width: 0.8"/>
      </g>
     </g>
     <g id="text_10">
      <!-- 0 -->
      <g transform="translate(13.5625 257.8601) scale(0.1 -0.1)">
       <use xlink:href="#DejaVuSans-30"/>
      </g>
     </g>
    </g>
    <g id="ytick_2">
     <g id="line2d_11">
      <g>
       <use xlink:href="#m614e3f38ab" x="26.925" y="209.14009" style="stroke: #000000; stroke-width: 0.8"/>
      </g>
     </g>
     <g id="text_11">
      <!-- 2 -->
      <g transform="translate(13.5625 212.939309) scale(0.1 -0.1)">
       <use xlink:href="#DejaVuSans-32"/>
      </g>
     </g>
    </g>
    <g id="ytick_3">
     <g id="line2d_12">
      <g>
       <use xlink:href="#m614e3f38ab" x="26.925" y="164.219299" style="stroke: #000000; stroke-width: 0.8"/>
      </g>
     </g>
     <g id="text_12">
      <!-- 4 -->
      <g transform="translate(13.5625 168.018518) scale(0.1 -0.1)">
       <defs>
        <path id="DejaVuSans-34" d="M 2419 4116 
L 825 1625 
L 2419 1625 
L 2419 4116 
z
M 2253 4666 
L 3047 4666 
L 3047 1625 
L 3713 1625 
L 3713 1100 
L 3047 1100 
L 3047 0 
L 2419 0 
L 2419 1100 
L 313 1100 
L 313 1709 
L 2253 4666 
z
" transform="scale(0.015625)"/>
       </defs>
       <use xlink:href="#DejaVuSans-34"/>
      </g>
     </g>
    </g>
    <g id="ytick_4">
     <g id="line2d_13">
      <g>
       <use xlink:href="#m614e3f38ab" x="26.925" y="119.298508" style="stroke: #000000; stroke-width: 0.8"/>
      </g>
     </g>
     <g id="text_13">
      <!-- 6 -->
      <g transform="translate(13.5625 123.097727) scale(0.1 -0.1)">
       <defs>
        <path id="DejaVuSans-36" d="M 2113 2584 
Q 1688 2584 1439 2293 
Q 1191 2003 1191 1497 
Q 1191 994 1439 701 
Q 1688 409 2113 409 
Q 2538 409 2786 701 
Q 3034 994 3034 1497 
Q 3034 2003 2786 2293 
Q 2538 2584 2113 2584 
z
M 3366 4563 
L 3366 3988 
Q 3128 4100 2886 4159 
Q 2644 4219 2406 4219 
Q 1781 4219 1451 3797 
Q 1122 3375 1075 2522 
Q 1259 2794 1537 2939 
Q 1816 3084 2150 3084 
Q 2853 3084 3261 2657 
Q 3669 2231 3669 1497 
Q 3669 778 3244 343 
Q 2819 -91 2113 -91 
Q 1303 -91 875 529 
Q 447 1150 447 2328 
Q 447 3434 972 4092 
Q 1497 4750 2381 4750 
Q 2619 4750 2861 4703 
Q 3103 4656 3366 4563 
z
" transform="scale(0.015625)"/>
       </defs>
       <use xlink:href="#DejaVuSans-36"/>
      </g>
     </g>
    </g>
    <g id="ytick_5">
     <g id="line2d_14">
      <g>
       <use xlink:href="#m614e3f38ab" x="26.925" y="74.377717" style="stroke: #000000; stroke-width: 0.8"/>
      </g>
     </g>
     <g id="text_14">
      <!-- 8 -->
      <g transform="translate(13.5625 78.176936) scale(0.1 -0.1)">
       <defs>
        <path id="DejaVuSans-38" d="M 2034 2216 
Q 1584 2216 1326 1975 
Q 1069 1734 1069 1313 
Q 1069 891 1326 650 
Q 1584 409 2034 409 
Q 2484 409 2743 651 
Q 3003 894 3003 1313 
Q 3003 1734 2745 1975 
Q 2488 2216 2034 2216 
z
M 1403 2484 
Q 997 2584 770 2862 
Q 544 3141 544 3541 
Q 544 4100 942 4425 
Q 1341 4750 2034 4750 
Q 2731 4750 3128 4425 
Q 3525 4100 3525 3541 
Q 3525 3141 3298 2862 
Q 3072 2584 2669 2484 
Q 3125 2378 3379 2068 
Q 3634 1759 3634 1313 
Q 3634 634 3220 271 
Q 2806 -91 2034 -91 
Q 1263 -91 848 271 
Q 434 634 434 1313 
Q 434 1759 690 2068 
Q 947 2378 1403 2484 
z
M 1172 3481 
Q 1172 3119 1398 2916 
Q 1625 2713 2034 2713 
Q 2441 2713 2670 2916 
Q 2900 3119 2900 3481 
Q 2900 3844 2670 4047 
Q 2441 4250 2034 4250 
Q 1625 4250 1398 4047 
Q 1172 3844 1172 3481 
z
" transform="scale(0.015625)"/>
       </defs>
       <use xlink:href="#DejaVuSans-38"/>
      </g>
     </g>
    </g>
    <g id="ytick_6">
     <g id="line2d_15">
      <g>
       <use xlink:href="#m614e3f38ab" x="26.925" y="29.456926" style="stroke: #000000; stroke-width: 0.8"/>
      </g>
     </g>
     <g id="text_15">
      <!-- 10 -->
      <g transform="translate(7.2 33.256144) scale(0.1 -0.1)">
       <use xlink:href="#DejaVuSans-31"/>
       <use xlink:href="#DejaVuSans-30" x="63.623047"/>
      </g>
     </g>
    </g>
   </g>
   <g id="line2d_16">
    <path d="M 41.682025 253.574524 
L 42.419876 253.62917 
L 43.157727 257.359887 
L 44.63343 245.405386 
L 45.371281 244.487587 
L 46.109132 253.628721 
L 46.846983 252.363594 
L 47.584835 249.719197 
L 48.322686 248.724067 
L 49.060537 256.465739 
L 49.798388 249.410996 
L 50.53624 251.736657 
L 51.274091 250.129571 
L 52.011942 253.565091 
L 52.749793 252.477199 
L 53.487645 244.985961 
L 54.963347 257.175038 
L 55.701198 250.696696 
L 56.43905 249.286138 
L 57.176901 251.056938 
L 57.914752 249.791947 
L 58.652603 259.770921 
L 59.390455 248.37364 
L 60.128306 252.720827 
L 60.866157 249.848816 
L 61.604008 248.361691 
L 62.34186 254.898789 
L 63.079711 252.252528 
L 63.817562 253.777723 
L 64.555413 249.019084 
L 65.293264 247.964793 
L 66.031116 251.408915 
L 66.768967 255.806571 
L 67.506818 250.369965 
L 68.244669 253.485581 
L 68.982521 254.843941 
L 69.720372 252.511833 
L 70.458223 256.379648 
L 71.196074 252.569085 
L 71.933926 247.955023 
L 72.671777 250.937786 
L 73.409628 250.421534 
L 74.147479 254.832329 
L 74.885331 251.01049 
L 75.623182 252.536764 
L 76.361033 257.694794 
L 77.098884 250.608674 
L 77.836736 252.464981 
L 78.574587 255.161666 
L 79.312438 249.494548 
L 80.050289 250.437099 
L 80.78814 249.584996 
L 81.525992 248.391518 
L 82.263843 246.075919 
L 83.001694 256.254723 
L 83.739545 248.34397 
L 84.477397 249.182776 
L 85.215248 250.593558 
L 85.953099 255.450731 
L 86.69095 251.178247 
L 87.428802 249.435365 
L 88.166653 246.207267 
L 88.904504 252.144089 
L 89.642355 251.240013 
L 90.380207 248.347384 
L 91.118058 253.915877 
L 91.855909 252.18153 
L 92.59376 251.216812 
L 93.331612 251.095481 
L 94.069463 245.812728 
L 95.545165 254.151936 
L 96.283017 252.441218 
L 97.020868 245.452576 
L 97.758719 249.0709 
L 98.49657 251.846399 
L 99.234421 246.771181 
L 99.972273 251.243921 
L 100.710124 249.244991 
L 101.447975 247.60354 
L 102.185826 248.881986 
L 102.923678 250.89318 
L 103.661529 246.396923 
L 104.39938 250.399994 
L 105.137231 250.136219 
L 105.875083 243.210332 
L 106.612934 239.809738 
L 107.350785 250.640882 
L 108.088636 244.160002 
L 108.826488 251.247066 
L 109.564339 247.26513 
L 110.30219 240.299981 
L 111.040041 254.582547 
L 111.777893 243.252962 
L 112.515744 251.790225 
L 113.253595 241.209111 
L 113.991446 245.197448 
L 114.729298 243.70491 
L 115.467149 256.451589 
L 116.205 239.787188 
L 116.942851 244.163147 
L 117.680702 246.51466 
L 118.418554 241.316943 
L 119.156405 240.839323 
L 119.894256 251.785441 
L 120.632107 245.733241 
L 121.369959 242.11422 
L 122.10781 246.265687 
L 122.845661 245.349348 
L 123.583512 244.73436 
L 124.321364 243.733592 
L 125.059215 241.498558 
L 125.797066 242.218144 
L 126.534917 239.254495 
L 127.272769 239.536755 
L 128.01062 234.472564 
L 128.748471 242.688375 
L 129.486322 235.354943 
L 130.224174 239.186979 
L 130.962025 239.096868 
L 131.699876 237.316971 
L 132.437727 236.69219 
L 133.175579 235.624401 
L 133.91343 232.727257 
L 134.651281 231.606146 
L 135.389132 227.222551 
L 136.126983 232.775255 
L 136.864835 230.821807 
L 137.602686 231.495686 
L 138.340537 228.103358 
L 139.078388 219.441483 
L 139.81624 223.909552 
L 140.554091 220.864731 
L 141.291942 223.162677 
L 142.029793 214.441171 
L 142.767645 217.261657 
L 143.505496 216.942001 
L 144.243347 206.32304 
L 144.981198 212.597172 
L 145.71905 208.947066 
L 146.456901 209.873939 
L 147.194752 199.688105 
L 147.932603 186.986661 
L 148.670455 190.810858 
L 149.408306 191.637064 
L 150.146157 198.974381 
L 150.884008 182.571531 
L 151.62186 178.926164 
L 152.359711 181.951647 
L 153.097562 172.513429 
L 153.835413 169.014886 
L 154.573264 157.743788 
L 155.311116 161.798271 
L 156.048967 159.201849 
L 156.786818 145.750408 
L 157.524669 145.066714 
L 158.262521 138.30984 
L 159.000372 129.615579 
L 160.476074 120.074964 
L 161.213926 121.690428 
L 161.951777 107.61059 
L 163.427479 97.224184 
L 164.165331 99.717288 
L 164.903182 88.26745 
L 165.641033 90.207512 
L 166.378884 79.538667 
L 167.116736 77.632116 
L 167.854587 70.364157 
L 168.592438 57.807201 
L 169.330289 59.568949 
L 170.06814 57.26321 
L 170.805992 44.608551 
L 171.543843 36.334703 
L 172.281694 40.840798 
L 173.019545 33.046703 
L 173.757397 38.634625 
L 174.495248 31.832831 
L 175.233099 34.361849 
L 175.97095 34.23962 
L 176.708802 30.703837 
L 178.184504 19.296 
L 178.922355 25.001861 
L 179.660207 24.511236 
L 180.398058 27.401373 
L 181.135909 33.860152 
L 181.87376 29.985711 
L 182.611612 37.430905 
L 183.349463 37.264339 
L 184.087314 43.719367 
L 184.825165 48.737783 
L 185.563017 49.142272 
L 186.300868 59.308184 
L 187.038719 55.718474 
L 187.77657 60.617086 
L 188.514421 69.872948 
L 189.990124 79.183119 
L 190.727975 80.457521 
L 191.465826 90.389149 
L 192.203678 101.923169 
L 192.941529 100.86351 
L 193.67938 101.532515 
L 194.417231 112.009032 
L 195.155083 117.580243 
L 195.892934 124.487466 
L 196.630785 124.081764 
L 197.368636 129.322807 
L 198.106488 138.899358 
L 198.844339 143.954295 
L 199.58219 143.33358 
L 200.320041 160.374843 
L 201.057893 157.396685 
L 201.795744 169.440331 
L 203.271446 168.377684 
L 204.747149 184.918216 
L 205.485 191.40206 
L 206.222851 195.211725 
L 206.960702 199.786885 
L 207.698554 199.464871 
L 208.436405 203.107565 
L 209.174256 203.850712 
L 209.912107 202.146754 
L 210.649959 209.022825 
L 211.38781 209.808759 
L 212.125661 211.206851 
L 212.863512 214.799661 
L 213.601364 220.781089 
L 214.339215 219.940688 
L 215.077066 214.134878 
L 215.814917 228.554991 
L 216.552769 223.832311 
L 217.29062 230.549856 
L 218.028471 230.693625 
L 218.766322 234.104506 
L 219.504174 231.714091 
L 220.242025 231.555363 
L 220.979876 226.303449 
L 221.717727 230.908841 
L 222.455579 233.97884 
L 223.19343 235.207985 
L 223.931281 241.376081 
L 224.669132 241.864348 
L 225.406983 230.079288 
L 226.144835 241.280041 
L 226.882686 241.793103 
L 227.620537 236.81689 
L 228.358388 245.687781 
L 229.09624 242.695045 
L 229.834091 251.94947 
L 230.571942 239.292026 
L 231.309793 238.566645 
L 232.047645 248.781027 
L 232.785496 242.563854 
L 233.523347 242.92659 
L 234.261198 237.884725 
L 234.99905 243.752189 
L 235.736901 242.491442 
L 236.474752 244.009405 
L 237.212603 247.112129 
L 237.950455 246.514189 
L 238.688306 244.992654 
L 239.426157 250.156389 
L 240.164008 241.876881 
L 240.90186 244.274708 
L 241.639711 242.767772 
L 242.377562 248.293995 
L 243.115413 248.002325 
L 243.853264 249.47649 
L 244.591116 249.127366 
L 245.328967 240.672105 
L 246.066818 247.938088 
L 246.804669 248.937104 
L 247.542521 247.139486 
L 248.280372 252.593589 
L 249.018223 243.026269 
L 249.756074 242.947074 
L 250.493926 246.833508 
L 251.231777 249.630187 
L 251.969628 240.536107 
L 252.707479 250.579161 
L 253.445331 246.573304 
L 254.183182 248.220325 
L 254.921033 250.712261 
L 255.658884 250.359004 
L 256.396736 253.341902 
L 257.134587 243.709335 
L 257.872438 247.874772 
L 258.610289 246.350048 
L 259.34814 246.224495 
L 260.085992 246.531079 
L 260.823843 249.034896 
L 261.561694 252.802628 
L 262.299545 250.775667 
L 263.037397 247.413121 
L 263.775248 253.40378 
L 264.513099 249.822156 
L 265.25095 249.889694 
L 265.988802 254.290607 
L 266.726653 255.755249 
L 267.464504 255.183385 
L 268.202355 250.544819 
L 268.940207 250.946299 
L 269.678058 244.389368 
L 270.415909 251.652386 
L 271.15376 248.027817 
L 271.891612 249.745948 
L 272.629463 256.061699 
L 273.367314 252.339315 
L 274.105165 242.951835 
L 274.843017 247.224589 
L 275.580868 247.055394 
L 277.05657 254.853689 
L 277.794421 244.121775 
L 278.532273 251.158774 
L 279.270124 249.51045 
L 280.007975 254.918824 
L 280.745826 250.356174 
L 281.483678 252.045578 
L 282.221529 254.719825 
L 282.95938 246.835799 
L 283.697231 254.01805 
L 285.172934 238.198272 
L 285.910785 249.807354 
L 286.648636 249.40026 
L 287.386488 248.383343 
L 288.124339 246.477084 
L 290.337893 258.560171 
L 291.075744 252.631951 
L 291.813595 253.734914 
L 292.551446 252.019726 
L 293.289298 248.184186 
L 294.027149 250.900008 
L 294.765 246.166839 
L 295.502851 259.068809 
L 296.240702 249.736716 
L 296.978554 255.932192 
L 298.454256 245.262763 
L 299.192107 256.112841 
L 299.929959 256.731108 
L 300.66781 255.2927 
L 301.405661 250.011385 
L 302.143512 252.591994 
L 302.881364 246.895679 
L 303.619215 250.325089 
L 304.357066 249.414387 
L 305.094917 251.62157 
L 305.832769 252.140675 
L 306.57062 247.981234 
L 307.308471 248.657023 
L 308.046322 247.326761 
L 308.784174 254.959477 
L 309.522025 247.181734 
L 310.259876 254.901731 
L 310.997727 253.923244 
L 311.735579 249.024565 
L 312.47343 252.8325 
L 313.211281 250.918268 
L 313.949132 255.848909 
L 314.686983 258.898581 
L 315.424835 255.48085 
L 316.162686 253.778779 
L 316.900537 257.169041 
L 317.638388 246.724822 
L 319.114091 255.251485 
L 319.851942 254.711335 
L 320.589793 252.866191 
L 321.327645 248.682515 
L 322.065496 248.983282 
L 322.803347 254.43168 
L 323.541198 250.571345 
L 324.27905 249.875971 
L 325.016901 252.334149 
L 325.754752 249.913794 
L 326.492603 249.681576 
L 327.230455 250.605911 
L 327.968306 252.295517 
L 328.706157 252.216299 
L 329.444008 252.499502 
L 330.18186 250.264176 
L 331.657562 257.32961 
L 332.395413 261.130426 
L 333.133264 244.859127 
L 333.871116 255.660444 
L 334.608967 261.216 
L 335.346818 250.487455 
L 336.084669 254.379595 
L 336.822521 256.115424 
L 336.822521 256.115424 
" clip-path="url(#p0689f6095e)" style="fill: none; stroke: #1f77b4; stroke-width: 1.5; stroke-linecap: square"/>
   </g>
   <g id="line2d_17">
    <path d="M 41.682025 251.8489 
L 57.914752 251.200441 
L 70.458223 250.480231 
L 80.050289 249.726755 
L 88.166653 248.884297 
L 94.807314 247.995245 
L 100.710124 246.994408 
L 105.875083 245.896645 
L 110.30219 244.734067 
L 113.991446 243.559896 
L 117.680702 242.143137 
L 120.632107 240.786593 
L 123.583512 239.177391 
L 125.797066 237.764631 
L 128.01062 236.135042 
L 130.224174 234.242208 
L 132.437727 232.0278 
L 134.651281 229.418705 
L 136.864835 226.323928 
L 138.340537 223.936637 
L 139.81624 221.245539 
L 141.291942 218.207259 
L 142.767645 214.77394 
L 144.243347 210.893746 
L 145.71905 206.511818 
L 147.194752 201.571781 
L 148.670455 196.017916 
L 150.146157 189.79804 
L 151.62186 182.867133 
L 153.835413 171.068557 
L 156.048967 157.559892 
L 158.262521 142.424916 
L 161.213926 120.161213 
L 168.592438 62.395284 
L 170.06814 52.414294 
L 171.543843 43.602639 
L 173.019545 36.221217 
L 174.495248 30.498461 
L 175.233099 28.318386 
L 175.97095 26.61748 
L 176.708802 25.409793 
L 177.446653 24.70537 
L 178.184504 24.510095 
L 178.922355 24.825604 
L 179.660207 25.649254 
L 180.398058 26.974173 
L 181.135909 28.789355 
L 181.87376 31.079835 
L 182.611612 33.826913 
L 184.087314 40.599117 
L 185.563017 48.893436 
L 187.038719 58.459768 
L 189.252273 74.591845 
L 192.941529 103.897155 
L 196.630785 132.854063 
L 198.844339 148.843613 
L 201.057893 163.328393 
L 203.271446 176.135037 
L 205.485 187.234934 
L 206.960702 193.721793 
L 208.436405 199.524366 
L 209.912107 204.692567 
L 211.38781 209.281145 
L 212.863512 213.346516 
L 214.339215 216.944332 
L 215.814917 220.127724 
L 217.29062 222.946153 
L 219.504174 226.586936 
L 221.717727 229.639822 
L 223.931281 232.214888 
L 226.144835 234.401614 
L 228.358388 236.271842 
L 230.571942 237.882864 
L 233.523347 239.705111 
L 236.474752 241.229923 
L 239.426157 242.51937 
L 243.115413 243.870269 
L 246.804669 244.99331 
L 251.231777 246.10852 
L 256.396736 247.164701 
L 262.299545 248.130456 
L 268.940207 248.990757 
L 277.05657 249.808222 
L 286.648636 250.54135 
L 298.454256 251.208832 
L 313.211281 251.805508 
L 331.657562 252.319937 
L 336.822521 252.432442 
L 336.822521 252.432442 
" clip-path="url(#p0689f6095e)" style="fill: none; stroke: #ff7f0e; stroke-width: 1.5; stroke-linecap: square"/>
   </g>
   <g id="patch_3">
    <path d="M 26.925 273.312 
L 26.925 7.2 
" style="fill: none; stroke: #000000; stroke-width: 0.8; stroke-linejoin: miter; stroke-linecap: square"/>
   </g>
   <g id="patch_4">
    <path d="M 351.579545 273.312 
L 351.579545 7.2 
" style="fill: none; stroke: #000000; stroke-width: 0.8; stroke-linejoin: miter; stroke-linecap: square"/>
   </g>
   <g id="patch_5">
    <path d="M 26.925 273.312 
L 351.579545 273.312 
" style="fill: none; stroke: #000000; stroke-width: 0.8; stroke-linejoin: miter; stroke-linecap: square"/>
   </g>
   <g id="patch_6">
    <path d="M 26.925 7.2 
L 351.579545 7.2 
" style="fill: none; stroke: #000000; stroke-width: 0.8; stroke-linejoin: miter; stroke-linecap: square"/>
   </g>
   <g id="legend_1">
    <g id="patch_7">
     <path d="M 212.374858 41.075937 
L 344.579545 41.075937 
Q 346.579545 41.075937 346.579545 39.075937 
L 346.579545 14.2 
Q 346.579545 12.2 344.579545 12.2 
L 212.374858 12.2 
Q 210.374858 12.2 210.374858 14.2 
L 210.374858 39.075937 
Q 210.374858 41.075937 212.374858 41.075937 
z
" style="fill: #ffffff; opacity: 0.8; stroke: #cccccc; stroke-linejoin: miter"/>
    </g>
    <g id="line2d_18">
     <path d="M 214.374858 26.937187 
L 224.374858 26.937187 
L 234.374858 26.937187 
" style="fill: none; stroke: #ff7f0e; stroke-width: 1.5; stroke-linecap: square"/>
    </g>
    <g id="text_16">
     <!-- Voigt Model -->
     <g transform="translate(242.374858 23.798437) scale(0.1 -0.1)">
      <defs>
       <path id="DejaVuSans-56" d="M 1831 0 
L 50 4666 
L 709 4666 
L 2188 738 
L 3669 4666 
L 4325 4666 
L 2547 0 
L 1831 0 
z
" transform="scale(0.015625)"/>
       <path id="DejaVuSans-6f" d="M 1959 3097 
Q 1497 3097 1228 2736 
Q 959 2375 959 1747 
Q 959 1119 1226 758 
Q 1494 397 1959 397 
Q 2419 397 2687 759 
Q 2956 1122 2956 1747 
Q 2956 2369 2687 2733 
Q 2419 3097 1959 3097 
z
M 1959 3584 
Q 2709 3584 3137 3096 
Q 3566 2609 3566 1747 
Q 3566 888 3137 398 
Q 2709 -91 1959 -91 
Q 1206 -91 779 398 
Q 353 888 353 1747 
Q 353 2609 779 3096 
Q 1206 3584 1959 3584 
z
" transform="scale(0.015625)"/>
       <path id="DejaVuSans-69" d="M 603 3500 
L 1178 3500 
L 1178 0 
L 603 0 
L 603 3500 
z
M 603 4863 
L 1178 4863 
L 1178 4134 
L 603 4134 
L 603 4863 
z
" transform="scale(0.015625)"/>
       <path id="DejaVuSans-67" d="M 2906 1791 
Q 2906 2416 2648 2759 
Q 2391 3103 1925 3103 
Q 1463 3103 1205 2759 
Q 947 2416 947 1791 
Q 947 1169 1205 825 
Q 1463 481 1925 481 
Q 2391 481 2648 825 
Q 2906 1169 2906 1791 
z
M 3481 434 
Q 3481 -459 3084 -895 
Q 2688 -1331 1869 -1331 
Q 1566 -1331 1297 -1286 
Q 1028 -1241 775 -1147 
L 775 -588 
Q 1028 -725 1275 -790 
Q 1522 -856 1778 -856 
Q 2344 -856 2625 -561 
Q 2906 -266 2906 331 
L 2906 616 
Q 2728 306 2450 153 
Q 2172 0 1784 0 
Q 1141 0 747 490 
Q 353 981 353 1791 
Q 353 2603 747 3093 
Q 1141 3584 1784 3584 
Q 2172 3584 2450 3431 
Q 2728 3278 2906 2969 
L 2906 3500 
L 3481 3500 
L 3481 434 
z
" transform="scale(0.015625)"/>
       <path id="DejaVuSans-74" d="M 1172 4494 
L 1172 3500 
L 2356 3500 
L 2356 3053 
L 1172 3053 
L 1172 1153 
Q 1172 725 1289 603 
Q 1406 481 1766 481 
L 2356 481 
L 2356 0 
L 1766 0 
Q 1100 0 847 248 
Q 594 497 594 1153 
L 594 3053 
L 172 3053 
L 172 3500 
L 594 3500 
L 594 4494 
L 1172 4494 
z
" transform="scale(0.015625)"/>
       <path id="DejaVuSans-20" transform="scale(0.015625)"/>
       <path id="DejaVuSans-4d" d="M 628 4666 
L 1569 4666 
L 2759 1491 
L 3956 4666 
L 4897 4666 
L 4897 0 
L 4281 0 
L 4281 4097 
L 3078 897 
L 2444 897 
L 1241 4097 
L 1241 0 
L 628 0 
L 628 4666 
z
" transform="scale(0.015625)"/>
       <path id="DejaVuSans-64" d="M 2906 2969 
L 2906 4863 
L 3481 4863 
L 3481 0 
L 2906 0 
L 2906 525 
Q 2725 213 2448 61 
Q 2172 -91 1784 -91 
Q 1150 -91 751 415 
Q 353 922 353 1747 
Q 353 2572 751 3078 
Q 1150 3584 1784 3584 
Q 2172 3584 2448 3432 
Q 2725 3281 2906 2969 
z
M 947 1747 
Q 947 1113 1208 752 
Q 1469 391 1925 391 
Q 2381 391 2643 752 
Q 2906 1113 2906 1747 
Q 2906 2381 2643 2742 
Q 2381 3103 1925 3103 
Q 1469 3103 1208 2742 
Q 947 2381 947 1747 
z
" transform="scale(0.015625)"/>
       <path id="DejaVuSans-65" d="M 3597 1894 
L 3597 1613 
L 953 1613 
Q 991 1019 1311 708 
Q 1631 397 2203 397 
Q 2534 397 2845 478 
Q 3156 559 3463 722 
L 3463 178 
Q 3153 47 2828 -22 
Q 2503 -91 2169 -91 
Q 1331 -91 842 396 
Q 353 884 353 1716 
Q 353 2575 817 3079 
Q 1281 3584 2069 3584 
Q 2775 3584 3186 3129 
Q 3597 2675 3597 1894 
z
M 3022 2063 
Q 3016 2534 2758 2815 
Q 2500 3097 2075 3097 
Q 1594 3097 1305 2825 
Q 1016 2553 972 2059 
L 3022 2063 
z
" transform="scale(0.015625)"/>
       <path id="DejaVuSans-6c" d="M 603 4863 
L 1178 4863 
L 1178 0 
L 603 0 
L 603 4863 
z
" transform="scale(0.015625)"/>
      </defs>
      <use xlink:href="#DejaVuSans-56"/>
      <use xlink:href="#DejaVuSans-6f" x="60.658203"/>
      <use xlink:href="#DejaVuSans-69" x="121.839844"/>
      <use xlink:href="#DejaVuSans-67" x="149.623047"/>
      <use xlink:href="#DejaVuSans-74" x="213.099609"/>
      <use xlink:href="#DejaVuSans-20" x="252.308594"/>
      <use xlink:href="#DejaVuSans-4d" x="284.095703"/>
      <use xlink:href="#DejaVuSans-6f" x="370.375"/>
      <use xlink:href="#DejaVuSans-64" x="431.556641"/>
      <use xlink:href="#DejaVuSans-65" x="495.033203"/>
      <use xlink:href="#DejaVuSans-6c" x="556.556641"/>
     </g>
     <!-- gamma constrained -->
     <g transform="translate(242.374858 34.99625) scale(0.1 -0.1)">
      <defs>
       <path id="DejaVuSans-61" d="M 2194 1759 
Q 1497 1759 1228 1600 
Q 959 1441 959 1056 
Q 959 750 1161 570 
Q 1363 391 1709 391 
Q 2188 391 2477 730 
Q 2766 1069 2766 1631 
L 2766 1759 
L 2194 1759 
z
M 3341 1997 
L 3341 0 
L 2766 0 
L 2766 531 
Q 2569 213 2275 61 
Q 1981 -91 1556 -91 
Q 1019 -91 701 211 
Q 384 513 384 1019 
Q 384 1609 779 1909 
Q 1175 2209 1959 2209 
L 2766 2209 
L 2766 2266 
Q 2766 2663 2505 2880 
Q 2244 3097 1772 3097 
Q 1472 3097 1187 3025 
Q 903 2953 641 2809 
L 641 3341 
Q 956 3463 1253 3523 
Q 1550 3584 1831 3584 
Q 2591 3584 2966 3190 
Q 3341 2797 3341 1997 
z
" transform="scale(0.015625)"/>
       <path id="DejaVuSans-6d" d="M 3328 2828 
Q 3544 3216 3844 3400 
Q 4144 3584 4550 3584 
Q 5097 3584 5394 3201 
Q 5691 2819 5691 2113 
L 5691 0 
L 5113 0 
L 5113 2094 
Q 5113 2597 4934 2840 
Q 4756 3084 4391 3084 
Q 3944 3084 3684 2787 
Q 3425 2491 3425 1978 
L 3425 0 
L 2847 0 
L 2847 2094 
Q 2847 2600 2669 2842 
Q 2491 3084 2119 3084 
Q 1678 3084 1418 2786 
Q 1159 2488 1159 1978 
L 1159 0 
L 581 0 
L 581 3500 
L 1159 3500 
L 1159 2956 
Q 1356 3278 1631 3431 
Q 1906 3584 2284 3584 
Q 2666 3584 2933 3390 
Q 3200 3197 3328 2828 
z
" transform="scale(0.015625)"/>
       <path id="DejaVuSans-63" d="M 3122 3366 
L 3122 2828 
Q 2878 2963 2633 3030 
Q 2388 3097 2138 3097 
Q 1578 3097 1268 2742 
Q 959 2388 959 1747 
Q 959 1106 1268 751 
Q 1578 397 2138 397 
Q 2388 397 2633 464 
Q 2878 531 3122 666 
L 3122 134 
Q 2881 22 2623 -34 
Q 2366 -91 2075 -91 
Q 1284 -91 818 406 
Q 353 903 353 1747 
Q 353 2603 823 3093 
Q 1294 3584 2113 3584 
Q 2378 3584 2631 3529 
Q 2884 3475 3122 3366 
z
" transform="scale(0.015625)"/>
       <path id="DejaVuSans-6e" d="M 3513 2113 
L 3513 0 
L 2938 0 
L 2938 2094 
Q 2938 2591 2744 2837 
Q 2550 3084 2163 3084 
Q 1697 3084 1428 2787 
Q 1159 2491 1159 1978 
L 1159 0 
L 581 0 
L 581 3500 
L 1159 3500 
L 1159 2956 
Q 1366 3272 1645 3428 
Q 1925 3584 2291 3584 
Q 2894 3584 3203 3211 
Q 3513 2838 3513 2113 
z
" transform="scale(0.015625)"/>
       <path id="DejaVuSans-73" d="M 2834 3397 
L 2834 2853 
Q 2591 2978 2328 3040 
Q 2066 3103 1784 3103 
Q 1356 3103 1142 2972 
Q 928 2841 928 2578 
Q 928 2378 1081 2264 
Q 1234 2150 1697 2047 
L 1894 2003 
Q 2506 1872 2764 1633 
Q 3022 1394 3022 966 
Q 3022 478 2636 193 
Q 2250 -91 1575 -91 
Q 1294 -91 989 -36 
Q 684 19 347 128 
L 347 722 
Q 666 556 975 473 
Q 1284 391 1588 391 
Q 1994 391 2212 530 
Q 2431 669 2431 922 
Q 2431 1156 2273 1281 
Q 2116 1406 1581 1522 
L 1381 1569 
Q 847 1681 609 1914 
Q 372 2147 372 2553 
Q 372 3047 722 3315 
Q 1072 3584 1716 3584 
Q 2034 3584 2315 3537 
Q 2597 3491 2834 3397 
z
" transform="scale(0.015625)"/>
       <path id="DejaVuSans-72" d="M 2631 2963 
Q 2534 3019 2420 3045 
Q 2306 3072 2169 3072 
Q 1681 3072 1420 2755 
Q 1159 2438 1159 1844 
L 1159 0 
L 581 0 
L 581 3500 
L 1159 3500 
L 1159 2956 
Q 1341 3275 1631 3429 
Q 1922 3584 2338 3584 
Q 2397 3584 2469 3576 
Q 2541 3569 2628 3553 
L 2631 2963 
z
" transform="scale(0.015625)"/>
      </defs>
      <use xlink:href="#DejaVuSans-67"/>
      <use xlink:href="#DejaVuSans-61" x="63.476562"/>
      <use xlink:href="#DejaVuSans-6d" x="124.755859"/>
      <use xlink:href="#DejaVuSans-6d" x="222.167969"/>
      <use xlink:href="#DejaVuSans-61" x="319.580078"/>
      <use xlink:href="#DejaVuSans-20" x="380.859375"/>
      <use xlink:href="#DejaVuSans-63" x="412.646484"/>
      <use xlink:href="#DejaVuSans-6f" x="467.626953"/>
      <use xlink:href="#DejaVuSans-6e" x="528.808594"/>
      <use xlink:href="#DejaVuSans-73" x="592.1875"/>
      <use xlink:href="#DejaVuSans-74" x="644.287109"/>
      <use xlink:href="#DejaVuSans-72" x="683.496094"/>
      <use xlink:href="#DejaVuSans-61" x="724.609375"/>
      <use xlink:href="#DejaVuSans-69" x="785.888672"/>
      <use xlink:href="#DejaVuSans-6e" x="813.671875"/>
      <use xlink:href="#DejaVuSans-65" x="877.050781"/>
      <use xlink:href="#DejaVuSans-64" x="938.574219"/>
     </g>
    </g>
   </g>
  </g>
  <g id="axes_2">
   <g id="patch_8">
    <path d="M 416.510455 273.312 
L 741.165 273.312 
L 741.165 7.2 
L 416.510455 7.2 
z
" style="fill: #ffffff"/>
   </g>
   <g id="matplotlib.axis_3">
    <g id="xtick_10">
     <g id="line2d_19">
      <g>
       <use xlink:href="#mea1b77b0e6" x="431.267479" y="273.312" style="stroke: #000000; stroke-width: 0.8"/>
      </g>
     </g>
     <g id="text_17">
      <!-- 0.0 -->
      <g transform="translate(423.315917 287.910437) scale(0.1 -0.1)">
       <use xlink:href="#DejaVuSans-30"/>
       <use xlink:href="#DejaVuSans-2e" x="63.623047"/>
       <use xlink:href="#DejaVuSans-30" x="95.410156"/>
      </g>
     </g>
    </g>
    <g id="xtick_11">
     <g id="line2d_20">
      <g>
       <use xlink:href="#mea1b77b0e6" x="468.160041" y="273.312" style="stroke: #000000; stroke-width: 0.8"/>
      </g>
     </g>
     <g id="text_18">
      <!-- 2.5 -->
      <g transform="translate(460.208479 287.910437) scale(0.1 -0.1)">
       <use xlink:href="#DejaVuSans-32"/>
       <use xlink:href="#DejaVuSans-2e" x="63.623047"/>
       <use xlink:href="#DejaVuSans-35" x="95.410156"/>
      </g>
     </g>
    </g>
    <g id="xtick_12">
     <g id="line2d_21">
      <g>
       <use xlink:href="#mea1b77b0e6" x="505.052603" y="273.312" style="stroke: #000000; stroke-width: 0.8"/>
      </g>
     </g>
     <g id="text_19">
      <!-- 5.0 -->
      <g transform="translate(497.101041 287.910437) scale(0.1 -0.1)">
       <use xlink:href="#DejaVuSans-35"/>
       <use xlink:href="#DejaVuSans-2e" x="63.623047"/>
       <use xlink:href="#DejaVuSans-30" x="95.410156"/>
      </g>
     </g>
    </g>
    <g id="xtick_13">
     <g id="line2d_22">
      <g>
       <use xlink:href="#mea1b77b0e6" x="541.945165" y="273.312" style="stroke: #000000; stroke-width: 0.8"/>
      </g>
     </g>
     <g id="text_20">
      <!-- 7.5 -->
      <g transform="translate(533.993603 287.910437) scale(0.1 -0.1)">
       <use xlink:href="#DejaVuSans-37"/>
       <use xlink:href="#DejaVuSans-2e" x="63.623047"/>
       <use xlink:href="#DejaVuSans-35" x="95.410156"/>
      </g>
     </g>
    </g>
    <g id="xtick_14">
     <g id="line2d_23">
      <g>
       <use xlink:href="#mea1b77b0e6" x="578.837727" y="273.312" style="stroke: #000000; stroke-width: 0.8"/>
      </g>
     </g>
     <g id="text_21">
      <!-- 10.0 -->
      <g transform="translate(567.704915 287.910437) scale(0.1 -0.1)">
       <use xlink:href="#DejaVuSans-31"/>
       <use xlink:href="#DejaVuSans-30" x="63.623047"/>
       <use xlink:href="#DejaVuSans-2e" x="127.246094"/>
       <use xlink:href="#DejaVuSans-30" x="159.033203"/>
      </g>
     </g>
    </g>
    <g id="xtick_15">
     <g id="line2d_24">
      <g>
       <use xlink:href="#mea1b77b0e6" x="615.730289" y="273.312" style="stroke: #000000; stroke-width: 0.8"/>
      </g>
     </g>
     <g id="text_22">
      <!-- 12.5 -->
      <g transform="translate(604.597477 287.910437) scale(0.1 -0.1)">
       <use xlink:href="#DejaVuSans-31"/>
       <use xlink:href="#DejaVuSans-32" x="63.623047"/>
       <use xlink:href="#DejaVuSans-2e" x="127.246094"/>
       <use xlink:href="#DejaVuSans-35" x="159.033203"/>
      </g>
     </g>
    </g>
    <g id="xtick_16">
     <g id="line2d_25">
      <g>
       <use xlink:href="#mea1b77b0e6" x="652.622851" y="273.312" style="stroke: #000000; stroke-width: 0.8"/>
      </g>
     </g>
     <g id="text_23">
      <!-- 15.0 -->
      <g transform="translate(641.490039 287.910437) scale(0.1 -0.1)">
       <use xlink:href="#DejaVuSans-31"/>
       <use xlink:href="#DejaVuSans-35" x="63.623047"/>
       <use xlink:href="#DejaVuSans-2e" x="127.246094"/>
       <use xlink:href="#DejaVuSans-30" x="159.033203"/>
      </g>
     </g>
    </g>
    <g id="xtick_17">
     <g id="line2d_26">
      <g>
       <use xlink:href="#mea1b77b0e6" x="689.515413" y="273.312" style="stroke: #000000; stroke-width: 0.8"/>
      </g>
     </g>
     <g id="text_24">
      <!-- 17.5 -->
      <g transform="translate(678.382601 287.910437) scale(0.1 -0.1)">
       <use xlink:href="#DejaVuSans-31"/>
       <use xlink:href="#DejaVuSans-37" x="63.623047"/>
       <use xlink:href="#DejaVuSans-2e" x="127.246094"/>
       <use xlink:href="#DejaVuSans-35" x="159.033203"/>
      </g>
     </g>
    </g>
    <g id="xtick_18">
     <g id="line2d_27">
      <g>
       <use xlink:href="#mea1b77b0e6" x="726.407975" y="273.312" style="stroke: #000000; stroke-width: 0.8"/>
      </g>
     </g>
     <g id="text_25">
      <!-- 20.0 -->
      <g transform="translate(715.275163 287.910437) scale(0.1 -0.1)">
       <use xlink:href="#DejaVuSans-32"/>
       <use xlink:href="#DejaVuSans-30" x="63.623047"/>
       <use xlink:href="#DejaVuSans-2e" x="127.246094"/>
       <use xlink:href="#DejaVuSans-30" x="159.033203"/>
      </g>
     </g>
    </g>
   </g>
   <g id="matplotlib.axis_4">
    <g id="ytick_7">
     <g id="line2d_28">
      <g>
       <use xlink:href="#m614e3f38ab" x="416.510455" y="254.060882" style="stroke: #000000; stroke-width: 0.8"/>
      </g>
     </g>
     <g id="text_26">
      <!-- 0 -->
      <g transform="translate(403.147955 257.8601) scale(0.1 -0.1)">
       <use xlink:href="#DejaVuSans-30"/>
      </g>
     </g>
    </g>
    <g id="ytick_8">
     <g id="line2d_29">
      <g>
       <use xlink:href="#m614e3f38ab" x="416.510455" y="209.14009" style="stroke: #000000; stroke-width: 0.8"/>
      </g>
     </g>
     <g id="text_27">
      <!-- 2 -->
      <g transform="translate(403.147955 212.939309) scale(0.1 -0.1)">
       <use xlink:href="#DejaVuSans-32"/>
      </g>
     </g>
    </g>
    <g id="ytick_9">
     <g id="line2d_30">
      <g>
       <use xlink:href="#m614e3f38ab" x="416.510455" y="164.219299" style="stroke: #000000; stroke-width: 0.8"/>
      </g>
     </g>
     <g id="text_28">
      <!-- 4 -->
      <g transform="translate(403.147955 168.018518) scale(0.1 -0.1)">
       <use xlink:href="#DejaVuSans-34"/>
      </g>
     </g>
    </g>
    <g id="ytick_10">
     <g id="line2d_31">
      <g>
       <use xlink:href="#m614e3f38ab" x="416.510455" y="119.298508" style="stroke: #000000; stroke-width: 0.8"/>
      </g>
     </g>
     <g id="text_29">
      <!-- 6 -->
      <g transform="translate(403.147955 123.097727) scale(0.1 -0.1)">
       <use xlink:href="#DejaVuSans-36"/>
      </g>
     </g>
    </g>
    <g id="ytick_11">
     <g id="line2d_32">
      <g>
       <use xlink:href="#m614e3f38ab" x="416.510455" y="74.377717" style="stroke: #000000; stroke-width: 0.8"/>
      </g>
     </g>
     <g id="text_30">
      <!-- 8 -->
      <g transform="translate(403.147955 78.176936) scale(0.1 -0.1)">
       <use xlink:href="#DejaVuSans-38"/>
      </g>
     </g>
    </g>
    <g id="ytick_12">
     <g id="line2d_33">
      <g>
       <use xlink:href="#m614e3f38ab" x="416.510455" y="29.456926" style="stroke: #000000; stroke-width: 0.8"/>
      </g>
     </g>
     <g id="text_31">
      <!-- 10 -->
      <g transform="translate(396.785455 33.256144) scale(0.1 -0.1)">
       <use xlink:href="#DejaVuSans-31"/>
       <use xlink:href="#DejaVuSans-30" x="63.623047"/>
      </g>
     </g>
    </g>
   </g>
   <g id="line2d_34">
    <path d="M 431.267479 253.574524 
L 432.005331 253.62917 
L 432.743182 257.359887 
L 434.218884 245.405386 
L 434.956736 244.487587 
L 435.694587 253.628721 
L 436.432438 252.363594 
L 437.170289 249.719197 
L 437.90814 248.724067 
L 438.645992 256.465739 
L 439.383843 249.410996 
L 440.121694 251.736657 
L 440.859545 250.129571 
L 441.597397 253.565091 
L 442.335248 252.477199 
L 443.073099 244.985961 
L 444.548802 257.175038 
L 445.286653 250.696696 
L 446.024504 249.286138 
L 446.762355 251.056938 
L 447.500207 249.791947 
L 448.238058 259.770921 
L 448.975909 248.37364 
L 449.71376 252.720827 
L 450.451612 249.848816 
L 451.189463 248.361691 
L 451.927314 254.898789 
L 452.665165 252.252528 
L 453.403017 253.777723 
L 454.140868 249.019084 
L 454.878719 247.964793 
L 455.61657 251.408915 
L 456.354421 255.806571 
L 457.092273 250.369965 
L 457.830124 253.485581 
L 458.567975 254.843941 
L 459.305826 252.511833 
L 460.043678 256.379648 
L 460.781529 252.569085 
L 461.51938 247.955023 
L 462.257231 250.937786 
L 462.995083 250.421534 
L 463.732934 254.832329 
L 464.470785 251.01049 
L 465.208636 252.536764 
L 465.946488 257.694794 
L 466.684339 250.608674 
L 467.42219 252.464981 
L 468.160041 255.161666 
L 468.897893 249.494548 
L 469.635744 250.437099 
L 470.373595 249.584996 
L 471.111446 248.391518 
L 471.849298 246.075919 
L 472.587149 256.254723 
L 473.325 248.34397 
L 474.062851 249.182776 
L 474.800702 250.593558 
L 475.538554 255.450731 
L 476.276405 251.178247 
L 477.014256 249.435365 
L 477.752107 246.207267 
L 478.489959 252.144089 
L 479.22781 251.240013 
L 479.965661 248.347384 
L 480.703512 253.915877 
L 481.441364 252.18153 
L 482.179215 251.216812 
L 482.917066 251.095481 
L 483.654917 245.812728 
L 485.13062 254.151936 
L 485.868471 252.441218 
L 486.606322 245.452576 
L 487.344174 249.0709 
L 488.082025 251.846399 
L 488.819876 246.771181 
L 489.557727 251.243921 
L 490.295579 249.244991 
L 491.03343 247.60354 
L 491.771281 248.881986 
L 492.509132 250.89318 
L 493.246983 246.396923 
L 493.984835 250.399994 
L 494.722686 250.136219 
L 495.460537 243.210332 
L 496.198388 239.809738 
L 496.93624 250.640882 
L 497.674091 244.160002 
L 498.411942 251.247066 
L 499.149793 247.26513 
L 499.887645 240.299981 
L 500.625496 254.582547 
L 501.363347 243.252962 
L 502.101198 251.790225 
L 502.83905 241.209111 
L 503.576901 245.197448 
L 504.314752 243.70491 
L 505.052603 256.451589 
L 505.790455 239.787188 
L 506.528306 244.163147 
L 507.266157 246.51466 
L 508.004008 241.316943 
L 508.74186 240.839323 
L 509.479711 251.785441 
L 510.217562 245.733241 
L 510.955413 242.11422 
L 511.693264 246.265687 
L 512.431116 245.349348 
L 513.168967 244.73436 
L 513.906818 243.733592 
L 514.644669 241.498558 
L 515.382521 242.218144 
L 516.120372 239.254495 
L 516.858223 239.536755 
L 517.596074 234.472564 
L 518.333926 242.688375 
L 519.071777 235.354943 
L 519.809628 239.186979 
L 520.547479 239.096868 
L 521.285331 237.316971 
L 522.023182 236.69219 
L 522.761033 235.624401 
L 523.498884 232.727257 
L 524.236736 231.606146 
L 524.974587 227.222551 
L 525.712438 232.775255 
L 526.450289 230.821807 
L 527.18814 231.495686 
L 527.925992 228.103358 
L 528.663843 219.441483 
L 529.401694 223.909552 
L 530.139545 220.864731 
L 530.877397 223.162677 
L 531.615248 214.441171 
L 532.353099 217.261657 
L 533.09095 216.942001 
L 533.828802 206.32304 
L 534.566653 212.597172 
L 535.304504 208.947066 
L 536.042355 209.873939 
L 536.780207 199.688105 
L 537.518058 186.986661 
L 538.255909 190.810858 
L 538.99376 191.637064 
L 539.731612 198.974381 
L 540.469463 182.571531 
L 541.207314 178.926164 
L 541.945165 181.951647 
L 542.683017 172.513429 
L 543.420868 169.014886 
L 544.158719 157.743788 
L 544.89657 161.798271 
L 545.634421 159.201849 
L 546.372273 145.750408 
L 547.110124 145.066714 
L 547.847975 138.30984 
L 548.585826 129.615579 
L 550.061529 120.074964 
L 550.79938 121.690428 
L 551.537231 107.61059 
L 553.012934 97.224184 
L 553.750785 99.717288 
L 554.488636 88.26745 
L 555.226488 90.207512 
L 555.964339 79.538667 
L 556.70219 77.632116 
L 557.440041 70.364157 
L 558.177893 57.807201 
L 558.915744 59.568949 
L 559.653595 57.26321 
L 560.391446 44.608551 
L 561.129298 36.334703 
L 561.867149 40.840798 
L 562.605 33.046703 
L 563.342851 38.634625 
L 564.080702 31.832831 
L 564.818554 34.361849 
L 565.556405 34.23962 
L 566.294256 30.703837 
L 567.769959 19.296 
L 568.50781 25.001861 
L 569.245661 24.511236 
L 569.983512 27.401373 
L 570.721364 33.860152 
L 571.459215 29.985711 
L 572.197066 37.430905 
L 572.934917 37.264339 
L 573.672769 43.719367 
L 574.41062 48.737783 
L 575.148471 49.142272 
L 575.886322 59.308184 
L 576.624174 55.718474 
L 577.362025 60.617086 
L 578.099876 69.872948 
L 579.575579 79.183119 
L 580.31343 80.457521 
L 581.051281 90.389149 
L 581.789132 101.923169 
L 582.526983 100.86351 
L 583.264835 101.532515 
L 584.002686 112.009032 
L 584.740537 117.580243 
L 585.478388 124.487466 
L 586.21624 124.081764 
L 586.954091 129.322807 
L 587.691942 138.899358 
L 588.429793 143.954295 
L 589.167645 143.33358 
L 589.905496 160.374843 
L 590.643347 157.396685 
L 591.381198 169.440331 
L 592.856901 168.377684 
L 594.332603 184.918216 
L 595.070455 191.40206 
L 595.808306 195.211725 
L 596.546157 199.786885 
L 597.284008 199.464871 
L 598.02186 203.107565 
L 598.759711 203.850712 
L 599.497562 202.146754 
L 600.235413 209.022825 
L 600.973264 209.808759 
L 601.711116 211.206851 
L 602.448967 214.799661 
L 603.186818 220.781089 
L 603.924669 219.940688 
L 604.662521 214.134878 
L 605.400372 228.554991 
L 606.138223 223.832311 
L 606.876074 230.549856 
L 607.613926 230.693625 
L 608.351777 234.104506 
L 609.089628 231.714091 
L 609.827479 231.555363 
L 610.565331 226.303449 
L 611.303182 230.908841 
L 612.041033 233.97884 
L 612.778884 235.207985 
L 613.516736 241.376081 
L 614.254587 241.864348 
L 614.992438 230.079288 
L 615.730289 241.280041 
L 616.46814 241.793103 
L 617.205992 236.81689 
L 617.943843 245.687781 
L 618.681694 242.695045 
L 619.419545 251.94947 
L 620.157397 239.292026 
L 620.895248 238.566645 
L 621.633099 248.781027 
L 622.37095 242.563854 
L 623.108802 242.92659 
L 623.846653 237.884725 
L 624.584504 243.752189 
L 625.322355 242.491442 
L 626.060207 244.009405 
L 626.798058 247.112129 
L 627.535909 246.514189 
L 628.27376 244.992654 
L 629.011612 250.156389 
L 629.749463 241.876881 
L 630.487314 244.274708 
L 631.225165 242.767772 
L 631.963017 248.293995 
L 632.700868 248.002325 
L 633.438719 249.47649 
L 634.17657 249.127366 
L 634.914421 240.672105 
L 635.652273 247.938088 
L 636.390124 248.937104 
L 637.127975 247.139486 
L 637.865826 252.593589 
L 638.603678 243.026269 
L 639.341529 242.947074 
L 640.07938 246.833508 
L 640.817231 249.630187 
L 641.555083 240.536107 
L 642.292934 250.579161 
L 643.030785 246.573304 
L 643.768636 248.220325 
L 644.506488 250.712261 
L 645.244339 250.359004 
L 645.98219 253.341902 
L 646.720041 243.709335 
L 647.457893 247.874772 
L 648.195744 246.350048 
L 648.933595 246.224495 
L 649.671446 246.531079 
L 650.409298 249.034896 
L 651.147149 252.802628 
L 651.885 250.775667 
L 652.622851 247.413121 
L 653.360702 253.40378 
L 654.098554 249.822156 
L 654.836405 249.889694 
L 655.574256 254.290607 
L 656.312107 255.755249 
L 657.049959 255.183385 
L 657.78781 250.544819 
L 658.525661 250.946299 
L 659.263512 244.389368 
L 660.001364 251.652386 
L 660.739215 248.027817 
L 661.477066 249.745948 
L 662.214917 256.061699 
L 662.952769 252.339315 
L 663.69062 242.951835 
L 664.428471 247.224589 
L 665.166322 247.055394 
L 666.642025 254.853689 
L 667.379876 244.121775 
L 668.117727 251.158774 
L 668.855579 249.51045 
L 669.59343 254.918824 
L 670.331281 250.356174 
L 671.069132 252.045578 
L 671.806983 254.719825 
L 672.544835 246.835799 
L 673.282686 254.01805 
L 674.758388 238.198272 
L 675.49624 249.807354 
L 676.234091 249.40026 
L 676.971942 248.383343 
L 677.709793 246.477084 
L 679.923347 258.560171 
L 680.661198 252.631951 
L 681.39905 253.734914 
L 682.136901 252.019726 
L 682.874752 248.184186 
L 683.612603 250.900008 
L 684.350455 246.166839 
L 685.088306 259.068809 
L 685.826157 249.736716 
L 686.564008 255.932192 
L 688.039711 245.262763 
L 688.777562 256.112841 
L 689.515413 256.731108 
L 690.253264 255.2927 
L 690.991116 250.011385 
L 691.728967 252.591994 
L 692.466818 246.895679 
L 693.204669 250.325089 
L 693.942521 249.414387 
L 694.680372 251.62157 
L 695.418223 252.140675 
L 696.156074 247.981234 
L 696.893926 248.657023 
L 697.631777 247.326761 
L 698.369628 254.959477 
L 699.107479 247.181734 
L 699.845331 254.901731 
L 700.583182 253.923244 
L 701.321033 249.024565 
L 702.058884 252.8325 
L 702.796736 250.918268 
L 703.534587 255.848909 
L 704.272438 258.898581 
L 705.010289 255.48085 
L 705.74814 253.778779 
L 706.485992 257.169041 
L 707.223843 246.724822 
L 708.699545 255.251485 
L 709.437397 254.711335 
L 710.175248 252.866191 
L 710.913099 248.682515 
L 711.65095 248.983282 
L 712.388802 254.43168 
L 713.126653 250.571345 
L 713.864504 249.875971 
L 714.602355 252.334149 
L 715.340207 249.913794 
L 716.078058 249.681576 
L 716.815909 250.605911 
L 717.55376 252.295517 
L 718.291612 252.216299 
L 719.029463 252.499502 
L 719.767314 250.264176 
L 721.243017 257.32961 
L 721.980868 261.130426 
L 722.718719 244.859127 
L 723.45657 255.660444 
L 724.194421 261.216 
L 724.932273 250.487455 
L 725.670124 254.379595 
L 726.407975 256.115424 
L 726.407975 256.115424 
" clip-path="url(#p6ffcb7c932)" style="fill: none; stroke: #1f77b4; stroke-width: 1.5; stroke-linecap: square"/>
   </g>
   <g id="line2d_35">
    <path d="M 431.267479 252.518735 
L 449.71376 251.980036 
L 463.732934 251.35245 
L 474.062851 250.683779 
L 482.179215 249.962143 
L 488.819876 249.177483 
L 494.722686 248.264295 
L 499.887645 247.223683 
L 503.576901 246.285634 
L 507.266157 245.122796 
L 510.217562 243.975308 
L 513.168967 242.56894 
L 515.382521 241.293527 
L 517.596074 239.77629 
L 519.809628 237.955686 
L 522.023182 235.754239 
L 523.498884 234.028457 
L 524.974587 232.057742 
L 526.450289 229.804491 
L 527.925992 227.226989 
L 529.401694 224.279704 
L 530.877397 220.913875 
L 532.353099 217.078465 
L 533.828802 212.721524 
L 535.304504 207.792014 
L 536.780207 202.242098 
L 538.255909 196.029898 
L 539.731612 189.122658 
L 541.945165 177.418821 
L 544.158719 164.113777 
L 546.372273 149.320383 
L 549.323678 127.721875 
L 557.440041 66.410398 
L 559.653595 52.403081 
L 561.129298 44.455819 
L 562.605 37.856623 
L 564.080702 32.77641 
L 564.818554 30.84967 
L 565.556405 29.350083 
L 566.294256 28.287847 
L 567.032107 27.670226 
L 567.769959 27.501456 
L 568.50781 27.782696 
L 569.245661 28.512014 
L 569.983512 29.684412 
L 570.721364 31.291883 
L 571.459215 33.32351 
L 572.197066 35.765596 
L 573.672769 41.81347 
L 575.148471 49.277253 
L 576.624174 57.967399 
L 578.837727 72.833443 
L 581.789132 94.874577 
L 587.691942 140.094827 
L 589.905496 155.653036 
L 592.11905 169.847931 
L 594.332603 182.492683 
L 596.546157 193.522738 
L 598.02186 199.992316 
L 599.497562 205.786078 
L 600.973264 210.942871 
L 602.448967 215.508644 
L 603.924669 219.533528 
L 605.400372 223.069372 
L 606.876074 226.167737 
L 608.351777 228.878371 
L 609.827479 231.248103 
L 611.303182 233.320129 
L 613.516736 235.954499 
L 615.730289 238.120805 
L 617.943843 239.9134 
L 620.157397 241.408329 
L 622.37095 242.665931 
L 625.322355 244.053881 
L 628.27376 245.187452 
L 631.963017 246.337324 
L 636.390124 247.430201 
L 640.817231 248.296766 
L 646.720041 249.202335 
L 653.360702 249.981097 
L 661.477066 250.697854 
L 671.806983 251.362497 
L 684.350455 251.932009 
L 700.583182 252.434025 
L 721.980868 252.862552 
L 726.407975 252.929733 
L 726.407975 252.929733 
" clip-path="url(#p6ffcb7c932)" style="fill: none; stroke: #ff7f0e; stroke-width: 1.5; stroke-linecap: square"/>
   </g>
   <g id="patch_9">
    <path d="M 416.510455 273.312 
L 416.510455 7.2 
" style="fill: none; stroke: #000000; stroke-width: 0.8; stroke-linejoin: miter; stroke-linecap: square"/>
   </g>
   <g id="patch_10">
    <path d="M 741.165 273.312 
L 741.165 7.2 
" style="fill: none; stroke: #000000; stroke-width: 0.8; stroke-linejoin: miter; stroke-linecap: square"/>
   </g>
   <g id="patch_11">
    <path d="M 416.510455 273.312 
L 741.165 273.312 
" style="fill: none; stroke: #000000; stroke-width: 0.8; stroke-linejoin: miter; stroke-linecap: square"/>
   </g>
   <g id="patch_12">
    <path d="M 416.510455 7.2 
L 741.165 7.2 
" style="fill: none; stroke: #000000; stroke-width: 0.8; stroke-linejoin: miter; stroke-linecap: square"/>
   </g>
   <g id="legend_2">
    <g id="patch_13">
     <path d="M 589.285312 41.075937 
L 734.165 41.075937 
Q 736.165 41.075937 736.165 39.075937 
L 736.165 14.2 
Q 736.165 12.2 734.165 12.2 
L 589.285312 12.2 
Q 587.285312 12.2 587.285312 14.2 
L 587.285312 39.075937 
Q 587.285312 41.075937 589.285312 41.075937 
z
" style="fill: #ffffff; opacity: 0.8; stroke: #cccccc; stroke-linejoin: miter"/>
    </g>
    <g id="line2d_36">
     <path d="M 591.285312 26.937187 
L 601.285312 26.937187 
L 611.285312 26.937187 
" style="fill: none; stroke: #ff7f0e; stroke-width: 1.5; stroke-linecap: square"/>
    </g>
    <g id="text_32">
     <!-- Voigt Model -->
     <g transform="translate(619.285312 23.798437) scale(0.1 -0.1)">
      <use xlink:href="#DejaVuSans-56"/>
      <use xlink:href="#DejaVuSans-6f" x="60.658203"/>
      <use xlink:href="#DejaVuSans-69" x="121.839844"/>
      <use xlink:href="#DejaVuSans-67" x="149.623047"/>
      <use xlink:href="#DejaVuSans-74" x="213.099609"/>
      <use xlink:href="#DejaVuSans-20" x="252.308594"/>
      <use xlink:href="#DejaVuSans-4d" x="284.095703"/>
      <use xlink:href="#DejaVuSans-6f" x="370.375"/>
      <use xlink:href="#DejaVuSans-64" x="431.556641"/>
      <use xlink:href="#DejaVuSans-65" x="495.033203"/>
      <use xlink:href="#DejaVuSans-6c" x="556.556641"/>
     </g>
     <!-- gamma unconstrained -->
     <g transform="translate(619.285312 34.99625) scale(0.1 -0.1)">
      <defs>
       <path id="DejaVuSans-75" d="M 544 1381 
L 544 3500 
L 1119 3500 
L 1119 1403 
Q 1119 906 1312 657 
Q 1506 409 1894 409 
Q 2359 409 2629 706 
Q 2900 1003 2900 1516 
L 2900 3500 
L 3475 3500 
L 3475 0 
L 2900 0 
L 2900 538 
Q 2691 219 2414 64 
Q 2138 -91 1772 -91 
Q 1169 -91 856 284 
Q 544 659 544 1381 
z
M 1991 3584 
L 1991 3584 
z
" transform="scale(0.015625)"/>
      </defs>
      <use xlink:href="#DejaVuSans-67"/>
      <use xlink:href="#DejaVuSans-61" x="63.476562"/>
      <use xlink:href="#DejaVuSans-6d" x="124.755859"/>
      <use xlink:href="#DejaVuSans-6d" x="222.167969"/>
      <use xlink:href="#DejaVuSans-61" x="319.580078"/>
      <use xlink:href="#DejaVuSans-20" x="380.859375"/>
      <use xlink:href="#DejaVuSans-75" x="412.646484"/>
      <use xlink:href="#DejaVuSans-6e" x="476.025391"/>
      <use xlink:href="#DejaVuSans-63" x="539.404297"/>
      <use xlink:href="#DejaVuSans-6f" x="594.384766"/>
      <use xlink:href="#DejaVuSans-6e" x="655.566406"/>
      <use xlink:href="#DejaVuSans-73" x="718.945312"/>
      <use xlink:href="#DejaVuSans-74" x="771.044922"/>
      <use xlink:href="#DejaVuSans-72" x="810.253906"/>
      <use xlink:href="#DejaVuSans-61" x="851.367188"/>
      <use xlink:href="#DejaVuSans-69" x="912.646484"/>
      <use xlink:href="#DejaVuSans-6e" x="940.429688"/>
      <use xlink:href="#DejaVuSans-65" x="1003.808594"/>
      <use xlink:href="#DejaVuSans-64" x="1065.332031"/>
     </g>
    </g>
   </g>
  </g>
 </g>
 <defs>
  <clipPath id="p0689f6095e">
   <rect x="26.925" y="7.2" width="324.654545" height="266.112"/>
  </clipPath>
  <clipPath id="p6ffcb7c932">
   <rect x="416.510455" y="7.2" width="324.654545" height="266.112"/>
  </clipPath>
 </defs>
</svg>
