<?xml version="1.0" encoding="utf-8" standalone="no"?>
<!DOCTYPE svg PUBLIC "-//W3C//DTD SVG 1.1//EN"
  "http://www.w3.org/Graphics/SVG/1.1/DTD/svg11.dtd">
<svg xmlns:xlink="http://www.w3.org/1999/xlink" width="771.58375pt" height="310.86825pt" viewBox="0 0 771.58375 310.86825" xmlns="http://www.w3.org/2000/svg" version="1.1">
 <metadata>
  <rdf:RDF xmlns:dc="http://purl.org/dc/elements/1.1/" xmlns:cc="http://creativecommons.org/ns#" xmlns:rdf="http://www.w3.org/1999/02/22-rdf-syntax-ns#">
   <cc:Work>
    <dc:type rdf:resource="http://purl.org/dc/dcmitype/StillImage"/>
    <dc:date>2024-07-19T11:01:44.570610</dc:date>
    <dc:format>image/svg+xml</dc:format>
    <dc:creator>
     <cc:Agent>
      <dc:title>Matplotlib v3.9.1, https://matplotlib.org/</dc:title>
     </cc:Agent>
    </dc:creator>
   </cc:Work>
  </rdf:RDF>
 </metadata>
 <defs>
  <style type="text/css">*{stroke-linejoin: round; stroke-linecap: butt}</style>
 </defs>
 <g id="figure_1">
  <g id="patch_1">
   <path d="M 0 310.86825 
L 771.58375 310.86825 
L 771.58375 0 
L 0 0 
z
" style="fill: #ffffff"/>
  </g>
  <g id="axes_1">
   <g id="patch_2">
    <path d="M 50.14375 273.312 
L 374.798295 273.312 
L 374.798295 7.2 
L 50.14375 7.2 
z
" style="fill: #ffffff"/>
   </g>
   <g id="PathCollection_1">
    <defs>
     <path id="C0_0_f92dcb5b91" d="M 0 2.738613 
C 0.726289 2.738613 1.422928 2.450055 1.936492 1.936492 
C 2.450055 1.422928 2.738613 0.726289 2.738613 -0 
C 2.738613 -0.726289 2.450055 -1.422928 1.936492 -1.936492 
C 1.422928 -2.450055 0.726289 -2.738613 0 -2.738613 
C -0.726289 -2.738613 -1.422928 -2.450055 -1.936492 -1.936492 
C -2.450055 -1.422928 -2.738613 -0.726289 -2.738613 0 
C -2.738613 0.726289 -2.450055 1.422928 -1.936492 1.936492 
C -1.422928 2.450055 -0.726289 2.738613 0 2.738613 
z
"/>
    </defs>
    <g clip-path="url(#p9d4ec95f2d)">
     <use xlink:href="#C0_0_f92dcb5b91" x="182.956973" y="243.306788" style="fill: #440154; stroke: #440154"/>
    </g>
    <g clip-path="url(#p9d4ec95f2d)">
     <use xlink:href="#C0_0_f92dcb5b91" x="123.928874" y="260.606712" style="fill: #4ec36b; stroke: #4ec36b"/>
    </g>
    <g clip-path="url(#p9d4ec95f2d)">
     <use xlink:href="#C0_0_f92dcb5b91" x="64.900775" y="228.476765" style="fill: #f8e621; stroke: #f8e621"/>
    </g>
    <g clip-path="url(#p9d4ec95f2d)">
     <use xlink:href="#C0_0_f92dcb5b91" x="64.900775" y="228.476765" style="fill: #f8e621; stroke: #f8e621"/>
    </g>
    <g clip-path="url(#p9d4ec95f2d)">
     <use xlink:href="#C0_0_f92dcb5b91" x="182.956973" y="243.306788" style="fill: #440154; stroke: #440154"/>
    </g>
    <g clip-path="url(#p9d4ec95f2d)">
     <use xlink:href="#C0_0_f92dcb5b91" x="100.002486" y="252.528699" style="fill: #b2dd2d; stroke: #b2dd2d"/>
    </g>
    <g clip-path="url(#p9d4ec95f2d)">
     <use xlink:href="#C0_0_f92dcb5b91" x="127.899604" y="261.216" style="fill: #3dbc74; stroke: #3dbc74"/>
    </g>
    <g clip-path="url(#p9d4ec95f2d)">
     <use xlink:href="#C0_0_f92dcb5b91" x="124.832939" y="260.768733" style="fill: #4ac16d; stroke: #4ac16d"/>
    </g>
    <g clip-path="url(#p9d4ec95f2d)">
     <use xlink:href="#C0_0_f92dcb5b91" x="126.725484" y="261.063267" style="fill: #42be71; stroke: #42be71"/>
    </g>
    <g clip-path="url(#p9d4ec95f2d)">
     <use xlink:href="#C0_0_f92dcb5b91" x="126.708976" y="261.060957" style="fill: #42be71; stroke: #42be71"/>
    </g>
    <g clip-path="url(#p9d4ec95f2d)">
     <use xlink:href="#C0_0_f92dcb5b91" x="126.71723" y="261.062113" style="fill: #42be71; stroke: #42be71"/>
    </g>
    <g clip-path="url(#p9d4ec95f2d)">
     <use xlink:href="#C0_0_f92dcb5b91" x="68.552707" y="231.569201" style="fill: #f4e61e; stroke: #f4e61e"/>
    </g>
    <g clip-path="url(#p9d4ec95f2d)">
     <use xlink:href="#C0_0_f92dcb5b91" x="78.439705" y="239.0967" style="fill: #e7e419; stroke: #e7e419"/>
    </g>
    <g clip-path="url(#p9d4ec95f2d)">
     <use xlink:href="#C0_0_f92dcb5b91" x="73.496206" y="235.391782" style="fill: #efe51c; stroke: #efe51c"/>
    </g>
    <g clip-path="url(#p9d4ec95f2d)">
     <use xlink:href="#C0_0_f92dcb5b91" x="74.636745" y="236.49" style="fill: #ece51b; stroke: #ece51b"/>
    </g>
    <g clip-path="url(#p9d4ec95f2d)">
     <use xlink:href="#C0_0_f92dcb5b91" x="74.611311" y="236.473086" style="fill: #ece51b; stroke: #ece51b"/>
    </g>
    <g clip-path="url(#p9d4ec95f2d)">
     <use xlink:href="#C0_0_f92dcb5b91" x="182.956973" y="243.306788" style="fill: #440154; stroke: #440154"/>
    </g>
    <g clip-path="url(#p9d4ec95f2d)">
     <use xlink:href="#C0_0_f92dcb5b91" x="241.985072" y="179.107431" style="fill: #31b57b; stroke: #31b57b"/>
    </g>
    <g clip-path="url(#p9d4ec95f2d)">
     <use xlink:href="#C0_0_f92dcb5b91" x="301.013171" y="98.136019" style="fill: #d0e11c; stroke: #d0e11c"/>
    </g>
    <g clip-path="url(#p9d4ec95f2d)">
     <use xlink:href="#C0_0_f92dcb5b91" x="360.041271" y="19.296" style="fill: #fde725; stroke: #fde725"/>
    </g>
    <g clip-path="url(#p9d4ec95f2d)">
     <use xlink:href="#C0_0_f92dcb5b91" x="182.956973" y="243.306788" style="fill: #440154; stroke: #440154"/>
    </g>
    <g clip-path="url(#p9d4ec95f2d)">
     <use xlink:href="#C0_0_f92dcb5b91" x="360.041271" y="19.296" style="fill: #fde725; stroke: #fde725"/>
    </g>
    <g clip-path="url(#p9d4ec95f2d)">
     <use xlink:href="#C0_0_f92dcb5b91" x="306.125683" y="91.095707" style="fill: #d8e219; stroke: #d8e219"/>
    </g>
    <g clip-path="url(#p9d4ec95f2d)">
     <use xlink:href="#C0_0_f92dcb5b91" x="255.585988" y="160.913371" style="fill: #5ac864; stroke: #5ac864"/>
    </g>
    <g clip-path="url(#p9d4ec95f2d)">
     <use xlink:href="#C0_0_f92dcb5b91" x="245.859073" y="173.990502" style="fill: #3bbb75; stroke: #3bbb75"/>
    </g>
    <g clip-path="url(#p9d4ec95f2d)">
     <use xlink:href="#C0_0_f92dcb5b91" x="247.780017" y="171.431986" style="fill: #40bd72; stroke: #40bd72"/>
    </g>
    <g clip-path="url(#p9d4ec95f2d)">
     <use xlink:href="#C0_0_f92dcb5b91" x="248.008563" y="171.126714" style="fill: #42be71; stroke: #42be71"/>
    </g>
    <g clip-path="url(#p9d4ec95f2d)">
     <use xlink:href="#C0_0_f92dcb5b91" x="247.887013" y="171.289092" style="fill: #42be71; stroke: #42be71"/>
    </g>
    <g clip-path="url(#p9d4ec95f2d)">
     <use xlink:href="#C0_0_f92dcb5b91" x="247.887014" y="171.289091" style="fill: #42be71; stroke: #42be71"/>
    </g>
    <g clip-path="url(#p9d4ec95f2d)">
     <use xlink:href="#C0_0_f92dcb5b91" x="247.887014" y="171.289092" style="fill: #42be71; stroke: #42be71"/>
    </g>
    <g clip-path="url(#p9d4ec95f2d)">
     <use xlink:href="#C0_0_f92dcb5b91" x="349.897405" y="32.37645" style="fill: #fbe723; stroke: #fbe723"/>
    </g>
    <g clip-path="url(#p9d4ec95f2d)">
     <use xlink:href="#C0_0_f92dcb5b91" x="325.615109" y="64.518871" style="fill: #ece51b; stroke: #ece51b"/>
    </g>
    <g clip-path="url(#p9d4ec95f2d)">
     <use xlink:href="#C0_0_f92dcb5b91" x="329.923955" y="58.734863" style="fill: #efe51c; stroke: #efe51c"/>
    </g>
    <g clip-path="url(#p9d4ec95f2d)">
     <use xlink:href="#C0_0_f92dcb5b91" x="327.232826" y="62.343511" style="fill: #ece51b; stroke: #ece51b"/>
    </g>
    <g clip-path="url(#p9d4ec95f2d)">
     <use xlink:href="#C0_0_f92dcb5b91" x="327.276542" y="62.284789" style="fill: #ece51b; stroke: #ece51b"/>
    </g>
   </g>
   <g id="matplotlib.axis_1">
    <g id="xtick_1">
     <g id="line2d_1">
      <defs>
       <path id="maa935d1223" d="M 0 0 
L 0 3.5 
" style="stroke: #000000; stroke-width: 0.8"/>
      </defs>
      <g>
       <use xlink:href="#maa935d1223" x="69.315703" y="273.312" style="stroke: #000000; stroke-width: 0.8"/>
      </g>
     </g>
     <g id="text_1">
      <!-- 2.7 -->
      <g transform="translate(61.364141 287.910437) scale(0.1 -0.1)">
       <defs>
        <path id="DejaVuSans-32" d="M 1228 531 
L 3431 531 
L 3431 0 
L 469 0 
L 469 531 
Q 828 903 1448 1529 
Q 2069 2156 2228 2338 
Q 2531 2678 2651 2914 
Q 2772 3150 2772 3378 
Q 2772 3750 2511 3984 
Q 2250 4219 1831 4219 
Q 1534 4219 1204 4116 
Q 875 4013 500 3803 
L 500 4441 
Q 881 4594 1212 4672 
Q 1544 4750 1819 4750 
Q 2544 4750 2975 4387 
Q 3406 4025 3406 3419 
Q 3406 3131 3298 2873 
Q 3191 2616 2906 2266 
Q 2828 2175 2409 1742 
Q 1991 1309 1228 531 
z
" transform="scale(0.015625)"/>
        <path id="DejaVuSans-2e" d="M 684 794 
L 1344 794 
L 1344 0 
L 684 0 
L 684 794 
z
" transform="scale(0.015625)"/>
        <path id="DejaVuSans-37" d="M 525 4666 
L 3525 4666 
L 3525 4397 
L 1831 0 
L 1172 0 
L 2766 4134 
L 525 4134 
L 525 4666 
z
" transform="scale(0.015625)"/>
       </defs>
       <use xlink:href="#DejaVuSans-32"/>
       <use xlink:href="#DejaVuSans-2e" x="63.623047"/>
       <use xlink:href="#DejaVuSans-37" x="95.410156"/>
      </g>
     </g>
    </g>
    <g id="xtick_2">
     <g id="line2d_2">
      <g>
       <use xlink:href="#maa935d1223" x="109.01974" y="273.312" style="stroke: #000000; stroke-width: 0.8"/>
      </g>
     </g>
     <g id="text_2">
      <!-- 2.8 -->
      <g transform="translate(101.068178 287.910437) scale(0.1 -0.1)">
       <defs>
        <path id="DejaVuSans-38" d="M 2034 2216 
Q 1584 2216 1326 1975 
Q 1069 1734 1069 1313 
Q 1069 891 1326 650 
Q 1584 409 2034 409 
Q 2484 409 2743 651 
Q 3003 894 3003 1313 
Q 3003 1734 2745 1975 
Q 2488 2216 2034 2216 
z
M 1403 2484 
Q 997 2584 770 2862 
Q 544 3141 544 3541 
Q 544 4100 942 4425 
Q 1341 4750 2034 4750 
Q 2731 4750 3128 4425 
Q 3525 4100 3525 3541 
Q 3525 3141 3298 2862 
Q 3072 2584 2669 2484 
Q 3125 2378 3379 2068 
Q 3634 1759 3634 1313 
Q 3634 634 3220 271 
Q 2806 -91 2034 -91 
Q 1263 -91 848 271 
Q 434 634 434 1313 
Q 434 1759 690 2068 
Q 947 2378 1403 2484 
z
M 1172 3481 
Q 1172 3119 1398 2916 
Q 1625 2713 2034 2713 
Q 2441 2713 2670 2916 
Q 2900 3119 2900 3481 
Q 2900 3844 2670 4047 
Q 2441 4250 2034 4250 
Q 1625 4250 1398 4047 
Q 1172 3844 1172 3481 
z
" transform="scale(0.015625)"/>
       </defs>
       <use xlink:href="#DejaVuSans-32"/>
       <use xlink:href="#DejaVuSans-2e" x="63.623047"/>
       <use xlink:href="#DejaVuSans-38" x="95.410156"/>
      </g>
     </g>
    </g>
    <g id="xtick_3">
     <g id="line2d_3">
      <g>
       <use xlink:href="#maa935d1223" x="148.723777" y="273.312" style="stroke: #000000; stroke-width: 0.8"/>
      </g>
     </g>
     <g id="text_3">
      <!-- 2.9 -->
      <g transform="translate(140.772214 287.910437) scale(0.1 -0.1)">
       <defs>
        <path id="DejaVuSans-39" d="M 703 97 
L 703 672 
Q 941 559 1184 500 
Q 1428 441 1663 441 
Q 2288 441 2617 861 
Q 2947 1281 2994 2138 
Q 2813 1869 2534 1725 
Q 2256 1581 1919 1581 
Q 1219 1581 811 2004 
Q 403 2428 403 3163 
Q 403 3881 828 4315 
Q 1253 4750 1959 4750 
Q 2769 4750 3195 4129 
Q 3622 3509 3622 2328 
Q 3622 1225 3098 567 
Q 2575 -91 1691 -91 
Q 1453 -91 1209 -44 
Q 966 3 703 97 
z
M 1959 2075 
Q 2384 2075 2632 2365 
Q 2881 2656 2881 3163 
Q 2881 3666 2632 3958 
Q 2384 4250 1959 4250 
Q 1534 4250 1286 3958 
Q 1038 3666 1038 3163 
Q 1038 2656 1286 2365 
Q 1534 2075 1959 2075 
z
" transform="scale(0.015625)"/>
       </defs>
       <use xlink:href="#DejaVuSans-32"/>
       <use xlink:href="#DejaVuSans-2e" x="63.623047"/>
       <use xlink:href="#DejaVuSans-39" x="95.410156"/>
      </g>
     </g>
    </g>
    <g id="xtick_4">
     <g id="line2d_4">
      <g>
       <use xlink:href="#maa935d1223" x="188.427813" y="273.312" style="stroke: #000000; stroke-width: 0.8"/>
      </g>
     </g>
     <g id="text_4">
      <!-- 3.0 -->
      <g transform="translate(180.476251 287.910437) scale(0.1 -0.1)">
       <defs>
        <path id="DejaVuSans-33" d="M 2597 2516 
Q 3050 2419 3304 2112 
Q 3559 1806 3559 1356 
Q 3559 666 3084 287 
Q 2609 -91 1734 -91 
Q 1441 -91 1130 -33 
Q 819 25 488 141 
L 488 750 
Q 750 597 1062 519 
Q 1375 441 1716 441 
Q 2309 441 2620 675 
Q 2931 909 2931 1356 
Q 2931 1769 2642 2001 
Q 2353 2234 1838 2234 
L 1294 2234 
L 1294 2753 
L 1863 2753 
Q 2328 2753 2575 2939 
Q 2822 3125 2822 3475 
Q 2822 3834 2567 4026 
Q 2313 4219 1838 4219 
Q 1578 4219 1281 4162 
Q 984 4106 628 3988 
L 628 4550 
Q 988 4650 1302 4700 
Q 1616 4750 1894 4750 
Q 2613 4750 3031 4423 
Q 3450 4097 3450 3541 
Q 3450 3153 3228 2886 
Q 3006 2619 2597 2516 
z
" transform="scale(0.015625)"/>
        <path id="DejaVuSans-30" d="M 2034 4250 
Q 1547 4250 1301 3770 
Q 1056 3291 1056 2328 
Q 1056 1369 1301 889 
Q 1547 409 2034 409 
Q 2525 409 2770 889 
Q 3016 1369 3016 2328 
Q 3016 3291 2770 3770 
Q 2525 4250 2034 4250 
z
M 2034 4750 
Q 2819 4750 3233 4129 
Q 3647 3509 3647 2328 
Q 3647 1150 3233 529 
Q 2819 -91 2034 -91 
Q 1250 -91 836 529 
Q 422 1150 422 2328 
Q 422 3509 836 4129 
Q 1250 4750 2034 4750 
z
" transform="scale(0.015625)"/>
       </defs>
       <use xlink:href="#DejaVuSans-33"/>
       <use xlink:href="#DejaVuSans-2e" x="63.623047"/>
       <use xlink:href="#DejaVuSans-30" x="95.410156"/>
      </g>
     </g>
    </g>
    <g id="xtick_5">
     <g id="line2d_5">
      <g>
       <use xlink:href="#maa935d1223" x="228.13185" y="273.312" style="stroke: #000000; stroke-width: 0.8"/>
      </g>
     </g>
     <g id="text_5">
      <!-- 3.1 -->
      <g transform="translate(220.180287 287.910437) scale(0.1 -0.1)">
       <defs>
        <path id="DejaVuSans-31" d="M 794 531 
L 1825 531 
L 1825 4091 
L 703 3866 
L 703 4441 
L 1819 4666 
L 2450 4666 
L 2450 531 
L 3481 531 
L 3481 0 
L 794 0 
L 794 531 
z
" transform="scale(0.015625)"/>
       </defs>
       <use xlink:href="#DejaVuSans-33"/>
       <use xlink:href="#DejaVuSans-2e" x="63.623047"/>
       <use xlink:href="#DejaVuSans-31" x="95.410156"/>
      </g>
     </g>
    </g>
    <g id="xtick_6">
     <g id="line2d_6">
      <g>
       <use xlink:href="#maa935d1223" x="267.835886" y="273.312" style="stroke: #000000; stroke-width: 0.8"/>
      </g>
     </g>
     <g id="text_6">
      <!-- 3.2 -->
      <g transform="translate(259.884324 287.910437) scale(0.1 -0.1)">
       <use xlink:href="#DejaVuSans-33"/>
       <use xlink:href="#DejaVuSans-2e" x="63.623047"/>
       <use xlink:href="#DejaVuSans-32" x="95.410156"/>
      </g>
     </g>
    </g>
    <g id="xtick_7">
     <g id="line2d_7">
      <g>
       <use xlink:href="#maa935d1223" x="307.539923" y="273.312" style="stroke: #000000; stroke-width: 0.8"/>
      </g>
     </g>
     <g id="text_7">
      <!-- 3.3 -->
      <g transform="translate(299.58836 287.910437) scale(0.1 -0.1)">
       <use xlink:href="#DejaVuSans-33"/>
       <use xlink:href="#DejaVuSans-2e" x="63.623047"/>
       <use xlink:href="#DejaVuSans-33" x="95.410156"/>
      </g>
     </g>
    </g>
    <g id="xtick_8">
     <g id="line2d_8">
      <g>
       <use xlink:href="#maa935d1223" x="347.243959" y="273.312" style="stroke: #000000; stroke-width: 0.8"/>
      </g>
     </g>
     <g id="text_8">
      <!-- 3.4 -->
      <g transform="translate(339.292397 287.910437) scale(0.1 -0.1)">
       <defs>
        <path id="DejaVuSans-34" d="M 2419 4116 
L 825 1625 
L 2419 1625 
L 2419 4116 
z
M 2253 4666 
L 3047 4666 
L 3047 1625 
L 3713 1625 
L 3713 1100 
L 3047 1100 
L 3047 0 
L 2419 0 
L 2419 1100 
L 313 1100 
L 313 1709 
L 2253 4666 
z
" transform="scale(0.015625)"/>
       </defs>
       <use xlink:href="#DejaVuSans-33"/>
       <use xlink:href="#DejaVuSans-2e" x="63.623047"/>
       <use xlink:href="#DejaVuSans-34" x="95.410156"/>
      </g>
     </g>
    </g>
    <g id="text_9">
     <!-- a1 -->
     <g transform="translate(206.22571 301.588562) scale(0.1 -0.1)">
      <defs>
       <path id="DejaVuSans-61" d="M 2194 1759 
Q 1497 1759 1228 1600 
Q 959 1441 959 1056 
Q 959 750 1161 570 
Q 1363 391 1709 391 
Q 2188 391 2477 730 
Q 2766 1069 2766 1631 
L 2766 1759 
L 2194 1759 
z
M 3341 1997 
L 3341 0 
L 2766 0 
L 2766 531 
Q 2569 213 2275 61 
Q 1981 -91 1556 -91 
Q 1019 -91 701 211 
Q 384 513 384 1019 
Q 384 1609 779 1909 
Q 1175 2209 1959 2209 
L 2766 2209 
L 2766 2266 
Q 2766 2663 2505 2880 
Q 2244 3097 1772 3097 
Q 1472 3097 1187 3025 
Q 903 2953 641 2809 
L 641 3341 
Q 956 3463 1253 3523 
Q 1550 3584 1831 3584 
Q 2591 3584 2966 3190 
Q 3341 2797 3341 1997 
z
" transform="scale(0.015625)"/>
      </defs>
      <use xlink:href="#DejaVuSans-61"/>
      <use xlink:href="#DejaVuSans-31" x="61.279297"/>
     </g>
    </g>
   </g>
   <g id="matplotlib.axis_2">
    <g id="ytick_1">
     <g id="line2d_9">
      <defs>
       <path id="mf03c996538" d="M 0 0 
L -3.5 0 
" style="stroke: #000000; stroke-width: 0.8"/>
      </defs>
      <g>
       <use xlink:href="#mf03c996538" x="50.14375" y="253.245321" style="stroke: #000000; stroke-width: 0.8"/>
      </g>
     </g>
     <g id="text_10">
      <!-- 11.8 -->
      <g transform="translate(20.878125 257.04454) scale(0.1 -0.1)">
       <use xlink:href="#DejaVuSans-31"/>
       <use xlink:href="#DejaVuSans-31" x="63.623047"/>
       <use xlink:href="#DejaVuSans-2e" x="127.246094"/>
       <use xlink:href="#DejaVuSans-38" x="159.033203"/>
      </g>
     </g>
    </g>
    <g id="ytick_2">
     <g id="line2d_10">
      <g>
       <use xlink:href="#mf03c996538" x="50.14375" y="211.892762" style="stroke: #000000; stroke-width: 0.8"/>
      </g>
     </g>
     <g id="text_11">
      <!-- 11.9 -->
      <g transform="translate(20.878125 215.691981) scale(0.1 -0.1)">
       <use xlink:href="#DejaVuSans-31"/>
       <use xlink:href="#DejaVuSans-31" x="63.623047"/>
       <use xlink:href="#DejaVuSans-2e" x="127.246094"/>
       <use xlink:href="#DejaVuSans-39" x="159.033203"/>
      </g>
     </g>
    </g>
    <g id="ytick_3">
     <g id="line2d_11">
      <g>
       <use xlink:href="#mf03c996538" x="50.14375" y="170.540203" style="stroke: #000000; stroke-width: 0.8"/>
      </g>
     </g>
     <g id="text_12">
      <!-- 12.0 -->
      <g transform="translate(20.878125 174.339421) scale(0.1 -0.1)">
       <use xlink:href="#DejaVuSans-31"/>
       <use xlink:href="#DejaVuSans-32" x="63.623047"/>
       <use xlink:href="#DejaVuSans-2e" x="127.246094"/>
       <use xlink:href="#DejaVuSans-30" x="159.033203"/>
      </g>
     </g>
    </g>
    <g id="ytick_4">
     <g id="line2d_12">
      <g>
       <use xlink:href="#mf03c996538" x="50.14375" y="129.187644" style="stroke: #000000; stroke-width: 0.8"/>
      </g>
     </g>
     <g id="text_13">
      <!-- 12.1 -->
      <g transform="translate(20.878125 132.986862) scale(0.1 -0.1)">
       <use xlink:href="#DejaVuSans-31"/>
       <use xlink:href="#DejaVuSans-32" x="63.623047"/>
       <use xlink:href="#DejaVuSans-2e" x="127.246094"/>
       <use xlink:href="#DejaVuSans-31" x="159.033203"/>
      </g>
     </g>
    </g>
    <g id="ytick_5">
     <g id="line2d_13">
      <g>
       <use xlink:href="#mf03c996538" x="50.14375" y="87.835084" style="stroke: #000000; stroke-width: 0.8"/>
      </g>
     </g>
     <g id="text_14">
      <!-- 12.2 -->
      <g transform="translate(20.878125 91.634303) scale(0.1 -0.1)">
       <use xlink:href="#DejaVuSans-31"/>
       <use xlink:href="#DejaVuSans-32" x="63.623047"/>
       <use xlink:href="#DejaVuSans-2e" x="127.246094"/>
       <use xlink:href="#DejaVuSans-32" x="159.033203"/>
      </g>
     </g>
    </g>
    <g id="ytick_6">
     <g id="line2d_14">
      <g>
       <use xlink:href="#mf03c996538" x="50.14375" y="46.482525" style="stroke: #000000; stroke-width: 0.8"/>
      </g>
     </g>
     <g id="text_15">
      <!-- 12.3 -->
      <g transform="translate(20.878125 50.281744) scale(0.1 -0.1)">
       <use xlink:href="#DejaVuSans-31"/>
       <use xlink:href="#DejaVuSans-32" x="63.623047"/>
       <use xlink:href="#DejaVuSans-2e" x="127.246094"/>
       <use xlink:href="#DejaVuSans-33" x="159.033203"/>
      </g>
     </g>
    </g>
    <g id="text_16">
     <!-- t2 -->
     <g transform="translate(14.798438 145.397406) rotate(-90) scale(0.1 -0.1)">
      <defs>
       <path id="DejaVuSans-74" d="M 1172 4494 
L 1172 3500 
L 2356 3500 
L 2356 3053 
L 1172 3053 
L 1172 1153 
Q 1172 725 1289 603 
Q 1406 481 1766 481 
L 2356 481 
L 2356 0 
L 1766 0 
Q 1100 0 847 248 
Q 594 497 594 1153 
L 594 3053 
L 172 3053 
L 172 3500 
L 594 3500 
L 594 4494 
L 1172 4494 
z
" transform="scale(0.015625)"/>
      </defs>
      <use xlink:href="#DejaVuSans-74"/>
      <use xlink:href="#DejaVuSans-32" x="39.208984"/>
     </g>
    </g>
   </g>
   <g id="patch_3">
    <path d="M 50.14375 273.312 
L 50.14375 7.2 
" style="fill: none; stroke: #000000; stroke-width: 0.8; stroke-linejoin: miter; stroke-linecap: square"/>
   </g>
   <g id="patch_4">
    <path d="M 374.798295 273.312 
L 374.798295 7.2 
" style="fill: none; stroke: #000000; stroke-width: 0.8; stroke-linejoin: miter; stroke-linecap: square"/>
   </g>
   <g id="patch_5">
    <path d="M 50.14375 273.312 
L 374.798295 273.312 
" style="fill: none; stroke: #000000; stroke-width: 0.8; stroke-linejoin: miter; stroke-linecap: square"/>
   </g>
   <g id="patch_6">
    <path d="M 50.14375 7.2 
L 374.798295 7.2 
" style="fill: none; stroke: #000000; stroke-width: 0.8; stroke-linejoin: miter; stroke-linecap: square"/>
   </g>
  </g>
  <g id="axes_2">
   <g id="patch_7">
    <path d="M 439.729205 273.312 
L 764.38375 273.312 
L 764.38375 7.2 
L 439.729205 7.2 
z
" style="fill: #ffffff"/>
   </g>
   <g id="PathCollection_2">
    <defs>
     <path id="C1_0_123151c88b" d="M 0 2.738613 
C 0.726289 2.738613 1.422928 2.450055 1.936492 1.936492 
C 2.450055 1.422928 2.738613 0.726289 2.738613 -0 
C 2.738613 -0.726289 2.450055 -1.422928 1.936492 -1.936492 
C 1.422928 -2.450055 0.726289 -2.738613 0 -2.738613 
C -0.726289 -2.738613 -1.422928 -2.450055 -1.936492 -1.936492 
C -2.450055 -1.422928 -2.738613 -0.726289 -2.738613 0 
C -2.738613 0.726289 -2.450055 1.422928 -1.936492 1.936492 
C -1.422928 2.450055 -0.726289 2.738613 0 2.738613 
z
"/>
    </defs>
    <g clip-path="url(#pf552f24a25)">
     <use xlink:href="#C1_0_123151c88b" x="631.570527" y="229.977163" style="fill: #440154; stroke: #440154"/>
    </g>
    <g clip-path="url(#pf552f24a25)">
     <use xlink:href="#C1_0_123151c88b" x="572.542428" y="261.177508" style="fill: #34b679; stroke: #34b679"/>
    </g>
    <g clip-path="url(#pf552f24a25)">
     <use xlink:href="#C1_0_123151c88b" x="513.514329" y="231.278211" style="fill: #d8e219; stroke: #d8e219"/>
    </g>
    <g clip-path="url(#pf552f24a25)">
     <use xlink:href="#C1_0_123151c88b" x="454.486229" y="129.09707" style="fill: #fde725; stroke: #fde725"/>
    </g>
    <g clip-path="url(#pf552f24a25)">
     <use xlink:href="#C1_0_123151c88b" x="454.486229" y="129.09707" style="fill: #fde725; stroke: #fde725"/>
    </g>
    <g clip-path="url(#pf552f24a25)">
     <use xlink:href="#C1_0_123151c88b" x="631.570527" y="229.977163" style="fill: #440154; stroke: #440154"/>
    </g>
    <g clip-path="url(#pf552f24a25)">
     <use xlink:href="#C1_0_123151c88b" x="509.65311" y="226.939354" style="fill: #dde318; stroke: #dde318"/>
    </g>
    <g clip-path="url(#pf552f24a25)">
     <use xlink:href="#C1_0_123151c88b" x="562.252933" y="260.647312" style="fill: #58c765; stroke: #58c765"/>
    </g>
    <g clip-path="url(#pf552f24a25)">
     <use xlink:href="#C1_0_123151c88b" x="571.737203" y="261.203488" style="fill: #37b878; stroke: #37b878"/>
    </g>
    <g clip-path="url(#pf552f24a25)">
     <use xlink:href="#C1_0_123151c88b" x="569.504217" y="261.216" style="fill: #3dbc74; stroke: #3dbc74"/>
    </g>
    <g clip-path="url(#pf552f24a25)">
     <use xlink:href="#C1_0_123151c88b" x="569.2012" y="261.210933" style="fill: #3fbc73; stroke: #3fbc73"/>
    </g>
    <g clip-path="url(#pf552f24a25)">
     <use xlink:href="#C1_0_123151c88b" x="569.361652" y="261.213818" style="fill: #3fbc73; stroke: #3fbc73"/>
    </g>
    <g clip-path="url(#pf552f24a25)">
     <use xlink:href="#C1_0_123151c88b" x="569.36165" y="261.213818" style="fill: #3fbc73; stroke: #3fbc73"/>
    </g>
    <g clip-path="url(#pf552f24a25)">
     <use xlink:href="#C1_0_123151c88b" x="569.361651" y="261.213818" style="fill: #3fbc73; stroke: #3fbc73"/>
    </g>
    <g clip-path="url(#pf552f24a25)">
     <use xlink:href="#C1_0_123151c88b" x="468.283555" y="160.143579" style="fill: #fbe723; stroke: #fbe723"/>
    </g>
    <g clip-path="url(#pf552f24a25)">
     <use xlink:href="#C1_0_123151c88b" x="497.634198" y="211.422424" style="fill: #eae51a; stroke: #eae51a"/>
    </g>
    <g clip-path="url(#pf552f24a25)">
     <use xlink:href="#C1_0_123151c88b" x="500.601692" y="215.54023" style="fill: #e7e419; stroke: #e7e419"/>
    </g>
    <g clip-path="url(#pf552f24a25)">
     <use xlink:href="#C1_0_123151c88b" x="534.981671" y="249.874701" style="fill: #b0dd2f; stroke: #b0dd2f"/>
    </g>
    <g clip-path="url(#pf552f24a25)">
     <use xlink:href="#C1_0_123151c88b" x="501.685668" y="216.997162" style="fill: #e7e419; stroke: #e7e419"/>
    </g>
    <g clip-path="url(#pf552f24a25)">
     <use xlink:href="#C1_0_123151c88b" x="501.630736" y="216.923935" style="fill: #e7e419; stroke: #e7e419"/>
    </g>
    <g clip-path="url(#pf552f24a25)">
     <use xlink:href="#C1_0_123151c88b" x="631.570527" y="229.977163" style="fill: #440154; stroke: #440154"/>
    </g>
    <g clip-path="url(#pf552f24a25)">
     <use xlink:href="#C1_0_123151c88b" x="690.598626" y="146.816553" style="fill: #40bd72; stroke: #40bd72"/>
    </g>
    <g clip-path="url(#pf552f24a25)">
     <use xlink:href="#C1_0_123151c88b" x="749.626725" y="19.296" style="fill: #eae51a; stroke: #eae51a"/>
    </g>
    <g clip-path="url(#pf552f24a25)">
     <use xlink:href="#C1_0_123151c88b" x="631.570527" y="229.977163" style="fill: #440154; stroke: #440154"/>
    </g>
    <g clip-path="url(#pf552f24a25)">
     <use xlink:href="#C1_0_123151c88b" x="749.626725" y="19.296" style="fill: #eae51a; stroke: #eae51a"/>
    </g>
    <g clip-path="url(#pf552f24a25)">
     <use xlink:href="#C1_0_123151c88b" x="715.555948" y="97.924857" style="fill: #a0da39; stroke: #a0da39"/>
    </g>
    <g clip-path="url(#pf552f24a25)">
     <use xlink:href="#C1_0_123151c88b" x="689.21134" y="149.307718" style="fill: #3aba76; stroke: #3aba76"/>
    </g>
    <g clip-path="url(#pf552f24a25)">
     <use xlink:href="#C1_0_123151c88b" x="691.838649" y="144.569064" style="fill: #44bf70; stroke: #44bf70"/>
    </g>
    <g clip-path="url(#pf552f24a25)">
     <use xlink:href="#C1_0_123151c88b" x="690.247023" y="147.450255" style="fill: #3fbc73; stroke: #3fbc73"/>
    </g>
    <g clip-path="url(#pf552f24a25)">
     <use xlink:href="#C1_0_123151c88b" x="690.256851" y="147.432562" style="fill: #3fbc73; stroke: #3fbc73"/>
    </g>
    <g clip-path="url(#pf552f24a25)">
     <use xlink:href="#C1_0_123151c88b" x="690.251937" y="147.441409" style="fill: #3fbc73; stroke: #3fbc73"/>
    </g>
    <g clip-path="url(#pf552f24a25)">
     <use xlink:href="#C1_0_123151c88b" x="748.524822" y="22.042932" style="fill: #eae51a; stroke: #eae51a"/>
    </g>
    <g clip-path="url(#pf552f24a25)">
     <use xlink:href="#C1_0_123151c88b" x="741.572949" y="39.066045" style="fill: #dfe318; stroke: #dfe318"/>
    </g>
    <g clip-path="url(#pf552f24a25)">
     <use xlink:href="#C1_0_123151c88b" x="745.440535" y="29.661145" style="fill: #e5e419; stroke: #e5e419"/>
    </g>
    <g clip-path="url(#pf552f24a25)">
     <use xlink:href="#C1_0_123151c88b" x="746.834333" y="26.23137" style="fill: #e7e419; stroke: #e7e419"/>
    </g>
    <g clip-path="url(#pf552f24a25)">
     <use xlink:href="#C1_0_123151c88b" x="746.825773" y="26.252499" style="fill: #e7e419; stroke: #e7e419"/>
    </g>
   </g>
   <g id="matplotlib.axis_3">
    <g id="xtick_9">
     <g id="line2d_15">
      <g>
       <use xlink:href="#maa935d1223" x="462.830615" y="273.312" style="stroke: #000000; stroke-width: 0.8"/>
      </g>
     </g>
     <g id="text_17">
      <!-- 10.5 -->
      <g transform="translate(451.697802 287.910437) scale(0.1 -0.1)">
       <defs>
        <path id="DejaVuSans-35" d="M 691 4666 
L 3169 4666 
L 3169 4134 
L 1269 4134 
L 1269 2991 
Q 1406 3038 1543 3061 
Q 1681 3084 1819 3084 
Q 2600 3084 3056 2656 
Q 3513 2228 3513 1497 
Q 3513 744 3044 326 
Q 2575 -91 1722 -91 
Q 1428 -91 1123 -41 
Q 819 9 494 109 
L 494 744 
Q 775 591 1075 516 
Q 1375 441 1709 441 
Q 2250 441 2565 725 
Q 2881 1009 2881 1497 
Q 2881 1984 2565 2268 
Q 2250 2553 1709 2553 
Q 1456 2553 1204 2497 
Q 953 2441 691 2322 
L 691 4666 
z
" transform="scale(0.015625)"/>
       </defs>
       <use xlink:href="#DejaVuSans-31"/>
       <use xlink:href="#DejaVuSans-30" x="63.623047"/>
       <use xlink:href="#DejaVuSans-2e" x="127.246094"/>
       <use xlink:href="#DejaVuSans-35" x="159.033203"/>
      </g>
     </g>
    </g>
    <g id="xtick_10">
     <g id="line2d_16">
      <g>
       <use xlink:href="#maa935d1223" x="526.552527" y="273.312" style="stroke: #000000; stroke-width: 0.8"/>
      </g>
     </g>
     <g id="text_18">
      <!-- 11.0 -->
      <g transform="translate(515.419714 287.910437) scale(0.1 -0.1)">
       <use xlink:href="#DejaVuSans-31"/>
       <use xlink:href="#DejaVuSans-31" x="63.623047"/>
       <use xlink:href="#DejaVuSans-2e" x="127.246094"/>
       <use xlink:href="#DejaVuSans-30" x="159.033203"/>
      </g>
     </g>
    </g>
    <g id="xtick_11">
     <g id="line2d_17">
      <g>
       <use xlink:href="#maa935d1223" x="590.274438" y="273.312" style="stroke: #000000; stroke-width: 0.8"/>
      </g>
     </g>
     <g id="text_19">
      <!-- 11.5 -->
      <g transform="translate(579.141626 287.910437) scale(0.1 -0.1)">
       <use xlink:href="#DejaVuSans-31"/>
       <use xlink:href="#DejaVuSans-31" x="63.623047"/>
       <use xlink:href="#DejaVuSans-2e" x="127.246094"/>
       <use xlink:href="#DejaVuSans-35" x="159.033203"/>
      </g>
     </g>
    </g>
    <g id="xtick_12">
     <g id="line2d_18">
      <g>
       <use xlink:href="#maa935d1223" x="653.99635" y="273.312" style="stroke: #000000; stroke-width: 0.8"/>
      </g>
     </g>
     <g id="text_20">
      <!-- 12.0 -->
      <g transform="translate(642.863538 287.910437) scale(0.1 -0.1)">
       <use xlink:href="#DejaVuSans-31"/>
       <use xlink:href="#DejaVuSans-32" x="63.623047"/>
       <use xlink:href="#DejaVuSans-2e" x="127.246094"/>
       <use xlink:href="#DejaVuSans-30" x="159.033203"/>
      </g>
     </g>
    </g>
    <g id="xtick_13">
     <g id="line2d_19">
      <g>
       <use xlink:href="#maa935d1223" x="717.718262" y="273.312" style="stroke: #000000; stroke-width: 0.8"/>
      </g>
     </g>
     <g id="text_21">
      <!-- 12.5 -->
      <g transform="translate(706.585449 287.910437) scale(0.1 -0.1)">
       <use xlink:href="#DejaVuSans-31"/>
       <use xlink:href="#DejaVuSans-32" x="63.623047"/>
       <use xlink:href="#DejaVuSans-2e" x="127.246094"/>
       <use xlink:href="#DejaVuSans-35" x="159.033203"/>
      </g>
     </g>
    </g>
    <g id="text_22">
     <!-- t2 -->
     <g transform="translate(596.915071 301.588562) scale(0.1 -0.1)">
      <use xlink:href="#DejaVuSans-74"/>
      <use xlink:href="#DejaVuSans-32" x="39.208984"/>
     </g>
    </g>
   </g>
   <g id="matplotlib.axis_4">
    <g id="ytick_7">
     <g id="line2d_20">
      <g>
       <use xlink:href="#mf03c996538" x="439.729205" y="240.637277" style="stroke: #000000; stroke-width: 0.8"/>
      </g>
     </g>
     <g id="text_23">
      <!-- 2.98 -->
      <g transform="translate(410.46358 244.436496) scale(0.1 -0.1)">
       <use xlink:href="#DejaVuSans-32"/>
       <use xlink:href="#DejaVuSans-2e" x="63.623047"/>
       <use xlink:href="#DejaVuSans-39" x="95.410156"/>
       <use xlink:href="#DejaVuSans-38" x="159.033203"/>
      </g>
     </g>
    </g>
    <g id="ytick_8">
     <g id="line2d_21">
      <g>
       <use xlink:href="#mf03c996538" x="439.729205" y="206.365604" style="stroke: #000000; stroke-width: 0.8"/>
      </g>
     </g>
     <g id="text_24">
      <!-- 3.00 -->
      <g transform="translate(410.46358 210.164823) scale(0.1 -0.1)">
       <use xlink:href="#DejaVuSans-33"/>
       <use xlink:href="#DejaVuSans-2e" x="63.623047"/>
       <use xlink:href="#DejaVuSans-30" x="95.410156"/>
       <use xlink:href="#DejaVuSans-30" x="159.033203"/>
      </g>
     </g>
    </g>
    <g id="ytick_9">
     <g id="line2d_22">
      <g>
       <use xlink:href="#mf03c996538" x="439.729205" y="172.093931" style="stroke: #000000; stroke-width: 0.8"/>
      </g>
     </g>
     <g id="text_25">
      <!-- 3.02 -->
      <g transform="translate(410.46358 175.89315) scale(0.1 -0.1)">
       <use xlink:href="#DejaVuSans-33"/>
       <use xlink:href="#DejaVuSans-2e" x="63.623047"/>
       <use xlink:href="#DejaVuSans-30" x="95.410156"/>
       <use xlink:href="#DejaVuSans-32" x="159.033203"/>
      </g>
     </g>
    </g>
    <g id="ytick_10">
     <g id="line2d_23">
      <g>
       <use xlink:href="#mf03c996538" x="439.729205" y="137.822259" style="stroke: #000000; stroke-width: 0.8"/>
      </g>
     </g>
     <g id="text_26">
      <!-- 3.04 -->
      <g transform="translate(410.46358 141.621477) scale(0.1 -0.1)">
       <use xlink:href="#DejaVuSans-33"/>
       <use xlink:href="#DejaVuSans-2e" x="63.623047"/>
       <use xlink:href="#DejaVuSans-30" x="95.410156"/>
       <use xlink:href="#DejaVuSans-34" x="159.033203"/>
      </g>
     </g>
    </g>
    <g id="ytick_11">
     <g id="line2d_24">
      <g>
       <use xlink:href="#mf03c996538" x="439.729205" y="103.550586" style="stroke: #000000; stroke-width: 0.8"/>
      </g>
     </g>
     <g id="text_27">
      <!-- 3.06 -->
      <g transform="translate(410.46358 107.349804) scale(0.1 -0.1)">
       <defs>
        <path id="DejaVuSans-36" d="M 2113 2584 
Q 1688 2584 1439 2293 
Q 1191 2003 1191 1497 
Q 1191 994 1439 701 
Q 1688 409 2113 409 
Q 2538 409 2786 701 
Q 3034 994 3034 1497 
Q 3034 2003 2786 2293 
Q 2538 2584 2113 2584 
z
M 3366 4563 
L 3366 3988 
Q 3128 4100 2886 4159 
Q 2644 4219 2406 4219 
Q 1781 4219 1451 3797 
Q 1122 3375 1075 2522 
Q 1259 2794 1537 2939 
Q 1816 3084 2150 3084 
Q 2853 3084 3261 2657 
Q 3669 2231 3669 1497 
Q 3669 778 3244 343 
Q 2819 -91 2113 -91 
Q 1303 -91 875 529 
Q 447 1150 447 2328 
Q 447 3434 972 4092 
Q 1497 4750 2381 4750 
Q 2619 4750 2861 4703 
Q 3103 4656 3366 4563 
z
" transform="scale(0.015625)"/>
       </defs>
       <use xlink:href="#DejaVuSans-33"/>
       <use xlink:href="#DejaVuSans-2e" x="63.623047"/>
       <use xlink:href="#DejaVuSans-30" x="95.410156"/>
       <use xlink:href="#DejaVuSans-36" x="159.033203"/>
      </g>
     </g>
    </g>
    <g id="ytick_12">
     <g id="line2d_25">
      <g>
       <use xlink:href="#mf03c996538" x="439.729205" y="69.278913" style="stroke: #000000; stroke-width: 0.8"/>
      </g>
     </g>
     <g id="text_28">
      <!-- 3.08 -->
      <g transform="translate(410.46358 73.078132) scale(0.1 -0.1)">
       <use xlink:href="#DejaVuSans-33"/>
       <use xlink:href="#DejaVuSans-2e" x="63.623047"/>
       <use xlink:href="#DejaVuSans-30" x="95.410156"/>
       <use xlink:href="#DejaVuSans-38" x="159.033203"/>
      </g>
     </g>
    </g>
    <g id="ytick_13">
     <g id="line2d_26">
      <g>
       <use xlink:href="#mf03c996538" x="439.729205" y="35.00724" style="stroke: #000000; stroke-width: 0.8"/>
      </g>
     </g>
     <g id="text_29">
      <!-- 3.10 -->
      <g transform="translate(410.46358 38.806459) scale(0.1 -0.1)">
       <use xlink:href="#DejaVuSans-33"/>
       <use xlink:href="#DejaVuSans-2e" x="63.623047"/>
       <use xlink:href="#DejaVuSans-31" x="95.410156"/>
       <use xlink:href="#DejaVuSans-30" x="159.033203"/>
      </g>
     </g>
    </g>
    <g id="text_30">
     <!-- a1 -->
     <g transform="translate(404.383892 146.501312) rotate(-90) scale(0.1 -0.1)">
      <use xlink:href="#DejaVuSans-61"/>
      <use xlink:href="#DejaVuSans-31" x="61.279297"/>
     </g>
    </g>
   </g>
   <g id="patch_8">
    <path d="M 439.729205 273.312 
L 439.729205 7.2 
" style="fill: none; stroke: #000000; stroke-width: 0.8; stroke-linejoin: miter; stroke-linecap: square"/>
   </g>
   <g id="patch_9">
    <path d="M 764.38375 273.312 
L 764.38375 7.2 
" style="fill: none; stroke: #000000; stroke-width: 0.8; stroke-linejoin: miter; stroke-linecap: square"/>
   </g>
   <g id="patch_10">
    <path d="M 439.729205 273.312 
L 764.38375 273.312 
" style="fill: none; stroke: #000000; stroke-width: 0.8; stroke-linejoin: miter; stroke-linecap: square"/>
   </g>
   <g id="patch_11">
    <path d="M 439.729205 7.2 
L 764.38375 7.2 
" style="fill: none; stroke: #000000; stroke-width: 0.8; stroke-linejoin: miter; stroke-linecap: square"/>
   </g>
  </g>
 </g>
 <defs>
  <clipPath id="p9d4ec95f2d">
   <rect x="50.14375" y="7.2" width="324.654545" height="266.112"/>
  </clipPath>
  <clipPath id="pf552f24a25">
   <rect x="439.729205" y="7.2" width="324.654545" height="266.112"/>
  </clipPath>
 </defs>
</svg>
