<?xml version="1.0" encoding="utf-8" standalone="no"?>
<!DOCTYPE svg PUBLIC "-//W3C//DTD SVG 1.1//EN"
  "http://www.w3.org/Graphics/SVG/1.1/DTD/svg11.dtd">
<svg xmlns:xlink="http://www.w3.org/1999/xlink" width="749.553668pt" height="314.667469pt" viewBox="0 0 749.553668 314.667469" xmlns="http://www.w3.org/2000/svg" version="1.1">
 <metadata>
  <rdf:RDF xmlns:dc="http://purl.org/dc/elements/1.1/" xmlns:cc="http://creativecommons.org/ns#" xmlns:rdf="http://www.w3.org/1999/02/22-rdf-syntax-ns#">
   <cc:Work>
    <dc:type rdf:resource="http://purl.org/dc/dcmitype/StillImage"/>
    <dc:date>2024-04-04T21:27:23.732957</dc:date>
    <dc:format>image/svg+xml</dc:format>
    <dc:creator>
     <cc:Agent>
      <dc:title>Matplotlib v3.8.3, https://matplotlib.org/</dc:title>
     </cc:Agent>
    </dc:creator>
   </cc:Work>
  </rdf:RDF>
 </metadata>
 <defs>
  <style type="text/css">*{stroke-linejoin: round; stroke-linecap: butt}</style>
 </defs>
 <g id="figure_1">
  <g id="patch_1">
   <path d="M 0 314.667469 
L 749.553668 314.667469 
L 749.553668 0 
L 0 0 
z
" style="fill: #ffffff"/>
  </g>
  <g id="axes_1">
   <g id="patch_2">
    <path d="M 40.603125 277.111219 
L 300.326761 277.111219 
L 300.326761 10.999219 
L 40.603125 10.999219 
z
" style="fill: #ffffff"/>
   </g>
   <g id="QuadContourSet_1">
    <path clip-path="url(#p5068bb66c0)" style="fill: #471365"/>
    <path clip-path="url(#p5068bb66c0)" style="fill: #463480"/>
    <path d="M 165.986949 151.175338 
L 174.942937 149.427083 
L 175.673331 148.643357 
L 177.718944 139.467081 
L 174.942937 136.832384 
L 165.986949 138.744359 
L 165.27041 139.467081 
L 163.749258 148.643357 
z
" clip-path="url(#p5068bb66c0)" style="fill: #3b528b"/>
    <path d="M 165.986949 154.366603 
L 174.942937 152.466503 
L 178.50592 148.643357 
L 180.913198 139.467081 
L 174.942937 133.800732 
L 165.986949 135.910621 
L 162.460913 139.467081 
L 160.928911 148.643357 
z
M 163.749258 148.643357 
L 165.27041 139.467081 
L 165.986949 138.744359 
L 174.942937 136.832384 
L 177.718944 139.467081 
L 175.673331 148.643357 
L 174.942937 149.427083 
L 165.986949 151.175338 
z
" clip-path="url(#p5068bb66c0)" style="fill: #2f6c8e"/>
    <path d="M 165.986949 157.557868 
L 174.942937 155.505923 
L 181.33851 148.643357 
L 183.898924 140.085167 
L 184.084958 139.467081 
L 183.898924 138.997949 
L 174.942937 130.769079 
L 165.986949 133.076883 
L 159.651416 139.467081 
L 158.108565 148.643357 
z
M 160.928911 148.643357 
L 162.460913 139.467081 
L 165.986949 135.910621 
L 174.942937 133.800732 
L 180.913198 139.467081 
L 178.50592 148.643357 
L 174.942937 152.466503 
L 165.986949 154.366603 
z
" clip-path="url(#p5068bb66c0)" style="fill: #25848e"/>
    <path d="M 165.986949 160.4613 
L 174.942937 158.519698 
L 175.815409 157.819633 
L 183.898924 149.02534 
L 184.158554 148.643357 
L 186.934645 139.467081 
L 183.898924 131.811709 
L 182.100376 130.290805 
L 174.942937 128.113025 
L 165.986949 130.247716 
L 165.920153 130.290805 
L 157.030962 139.199266 
L 156.860263 139.467081 
L 155.525572 148.643357 
L 157.030962 152.37325 
L 161.470353 157.819633 
z
M 158.108565 148.643357 
L 159.651416 139.467081 
L 165.986949 133.076883 
L 174.942937 130.769079 
L 183.898924 138.997949 
L 184.084958 139.467081 
L 183.898924 140.085167 
L 181.33851 148.643357 
L 174.942937 155.505923 
L 165.986949 157.557868 
z
" clip-path="url(#p5068bb66c0)" style="fill: #1e9c89"/>
    <path d="M 157.030962 158.167907 
L 165.986949 163.339014 
L 174.942937 161.451709 
L 179.469494 157.819633 
L 183.898924 153.000725 
L 186.860579 148.643357 
L 189.784333 139.467081 
L 187.15932 130.290805 
L 183.898924 127.637126 
L 174.942937 125.527324 
L 165.986949 127.685764 
L 161.948581 130.290805 
L 157.030962 135.219084 
L 154.323384 139.467081 
L 153.089343 148.643357 
L 156.75351 157.819633 
z
M 161.470353 157.819633 
L 157.030962 152.37325 
L 155.525572 148.643357 
L 156.860263 139.467081 
L 157.030962 139.199266 
L 165.920153 130.290805 
L 165.986949 130.247716 
L 174.942937 128.113025 
L 182.100376 130.290805 
L 183.898924 131.811709 
L 186.934645 139.467081 
L 184.158554 148.643357 
L 183.898924 149.02534 
L 175.815409 157.819633 
L 174.942937 158.519698 
L 165.986949 160.4613 
z
" clip-path="url(#p5068bb66c0)" style="fill: #2fb47c"/>
    <path d="M 157.030962 161.732024 
L 165.986949 166.216727 
L 174.942937 164.383721 
L 183.123578 157.819633 
L 183.898924 156.976111 
L 189.562604 148.643357 
L 192.634021 139.467081 
L 191.294994 130.290805 
L 183.898924 124.271047 
L 174.942937 122.941623 
L 165.986949 125.123813 
L 157.977008 130.290805 
L 157.030962 131.238902 
L 151.786506 139.467081 
L 150.653115 148.643357 
L 153.914168 157.819633 
z
M 156.75351 157.819633 
L 153.089343 148.643357 
L 154.323384 139.467081 
L 157.030962 135.219084 
L 161.948581 130.290805 
L 165.986949 127.685764 
L 174.942937 125.527324 
L 183.898924 127.637126 
L 187.15932 130.290805 
L 189.784333 139.467081 
L 186.860579 148.643357 
L 183.898924 153.000725 
L 179.469494 157.819633 
L 174.942937 161.451709 
L 165.986949 163.339014 
L 157.030962 158.167907 
z
" clip-path="url(#p5068bb66c0)" style="fill: #5ec962"/>
    <path d="M 165.986949 169.110313 
L 174.942937 167.324186 
L 175.425298 166.995908 
L 183.898924 160.493132 
L 186.225027 157.819633 
L 192.26463 148.643357 
L 192.854912 146.886356 
L 195.493397 139.467081 
L 195.021829 130.290805 
L 192.854912 126.999651 
L 184.373069 121.114529 
L 183.898924 120.942404 
L 174.942937 120.387238 
L 171.881653 121.114529 
L 165.986949 122.561861 
L 157.030962 128.033505 
L 154.699507 130.290805 
L 149.249627 139.467081 
L 148.216886 148.643357 
L 151.074825 157.819633 
L 157.030962 165.296141 
L 160.572165 166.995908 
z
M 153.914168 157.819633 
L 150.653115 148.643357 
L 151.786506 139.467081 
L 157.030962 131.238902 
L 157.977008 130.290805 
L 165.986949 125.123813 
L 174.942937 122.941623 
L 183.898924 124.271047 
L 191.294994 130.290805 
L 192.634021 139.467081 
L 189.562604 148.643357 
L 183.898924 156.976111 
L 183.123578 157.819633 
L 174.942937 164.383721 
L 165.986949 166.216727 
L 157.030962 161.732024 
z
" clip-path="url(#p5068bb66c0)" style="fill: #9bd93c"/>
    <path d="M 157.030962 168.622468 
L 165.986949 172.009792 
L 174.942937 170.333698 
L 179.847381 166.995908 
L 183.898924 163.886699 
L 189.177631 157.819633 
L 192.854912 152.181449 
L 194.990779 148.643357 
L 198.353586 139.467081 
L 198.501064 130.290805 
L 192.854912 121.715324 
L 191.989025 121.114529 
L 183.898924 118.177636 
L 174.942937 117.908278 
L 165.986949 120.038396 
L 163.785673 121.114529 
L 157.030962 125.070373 
L 151.639033 130.290805 
L 148.074975 136.571202 
L 146.768758 139.467081 
L 145.882825 148.643357 
L 148.074975 157.300005 
L 148.235482 157.819633 
L 155.235564 166.995908 
z
M 160.572165 166.995908 
L 157.030962 165.296141 
L 151.074825 157.819633 
L 148.216886 148.643357 
L 149.249627 139.467081 
L 154.699507 130.290805 
L 157.030962 128.033505 
L 165.986949 122.561861 
L 171.881653 121.114529 
L 174.942937 120.387238 
L 183.898924 120.942404 
L 184.373069 121.114529 
L 192.854912 126.999651 
L 195.021829 130.290805 
L 195.493397 139.467081 
L 192.854912 146.886356 
L 192.26463 148.643357 
L 186.225027 157.819633 
L 183.898924 160.493132 
L 175.425298 166.995908 
L 174.942937 167.324186 
L 165.986949 169.110313 
z
" clip-path="url(#p5068bb66c0)" style="fill: #dfe318"/>
   </g>
   <g id="matplotlib.axis_1">
    <g id="xtick_1">
     <g id="line2d_1">
      <defs>
       <path id="m598f855e31" d="M 0 0 
L 0 3.5 
" style="stroke: #000000; stroke-width: 0.8"/>
      </defs>
      <g>
       <use xlink:href="#m598f855e31" x="68.053456" y="277.111219" style="stroke: #000000; stroke-width: 0.8"/>
      </g>
     </g>
     <g id="text_1">
      <!-- 2.4 -->
      <g transform="translate(60.101894 291.709656) scale(0.1 -0.1)">
       <defs>
        <path id="DejaVuSans-32" d="M 1228 531 
L 3431 531 
L 3431 0 
L 469 0 
L 469 531 
Q 828 903 1448 1529 
Q 2069 2156 2228 2338 
Q 2531 2678 2651 2914 
Q 2772 3150 2772 3378 
Q 2772 3750 2511 3984 
Q 2250 4219 1831 4219 
Q 1534 4219 1204 4116 
Q 875 4013 500 3803 
L 500 4441 
Q 881 4594 1212 4672 
Q 1544 4750 1819 4750 
Q 2544 4750 2975 4387 
Q 3406 4025 3406 3419 
Q 3406 3131 3298 2873 
Q 3191 2616 2906 2266 
Q 2828 2175 2409 1742 
Q 1991 1309 1228 531 
z
" transform="scale(0.015625)"/>
        <path id="DejaVuSans-2e" d="M 684 794 
L 1344 794 
L 1344 0 
L 684 0 
L 684 794 
z
" transform="scale(0.015625)"/>
        <path id="DejaVuSans-34" d="M 2419 4116 
L 825 1625 
L 2419 1625 
L 2419 4116 
z
M 2253 4666 
L 3047 4666 
L 3047 1625 
L 3713 1625 
L 3713 1100 
L 3047 1100 
L 3047 0 
L 2419 0 
L 2419 1100 
L 313 1100 
L 313 1709 
L 2253 4666 
z
" transform="scale(0.015625)"/>
       </defs>
       <use xlink:href="#DejaVuSans-32"/>
       <use xlink:href="#DejaVuSans-2e" x="63.623047"/>
       <use xlink:href="#DejaVuSans-34" x="95.410156"/>
      </g>
     </g>
    </g>
    <g id="xtick_2">
     <g id="line2d_2">
      <g>
       <use xlink:href="#m598f855e31" x="102.993008" y="277.111219" style="stroke: #000000; stroke-width: 0.8"/>
      </g>
     </g>
     <g id="text_2">
      <!-- 2.6 -->
      <g transform="translate(95.041446 291.709656) scale(0.1 -0.1)">
       <defs>
        <path id="DejaVuSans-36" d="M 2113 2584 
Q 1688 2584 1439 2293 
Q 1191 2003 1191 1497 
Q 1191 994 1439 701 
Q 1688 409 2113 409 
Q 2538 409 2786 701 
Q 3034 994 3034 1497 
Q 3034 2003 2786 2293 
Q 2538 2584 2113 2584 
z
M 3366 4563 
L 3366 3988 
Q 3128 4100 2886 4159 
Q 2644 4219 2406 4219 
Q 1781 4219 1451 3797 
Q 1122 3375 1075 2522 
Q 1259 2794 1537 2939 
Q 1816 3084 2150 3084 
Q 2853 3084 3261 2657 
Q 3669 2231 3669 1497 
Q 3669 778 3244 343 
Q 2819 -91 2113 -91 
Q 1303 -91 875 529 
Q 447 1150 447 2328 
Q 447 3434 972 4092 
Q 1497 4750 2381 4750 
Q 2619 4750 2861 4703 
Q 3103 4656 3366 4563 
z
" transform="scale(0.015625)"/>
       </defs>
       <use xlink:href="#DejaVuSans-32"/>
       <use xlink:href="#DejaVuSans-2e" x="63.623047"/>
       <use xlink:href="#DejaVuSans-36" x="95.410156"/>
      </g>
     </g>
    </g>
    <g id="xtick_3">
     <g id="line2d_3">
      <g>
       <use xlink:href="#m598f855e31" x="137.932561" y="277.111219" style="stroke: #000000; stroke-width: 0.8"/>
      </g>
     </g>
     <g id="text_3">
      <!-- 2.8 -->
      <g transform="translate(129.980998 291.709656) scale(0.1 -0.1)">
       <defs>
        <path id="DejaVuSans-38" d="M 2034 2216 
Q 1584 2216 1326 1975 
Q 1069 1734 1069 1313 
Q 1069 891 1326 650 
Q 1584 409 2034 409 
Q 2484 409 2743 651 
Q 3003 894 3003 1313 
Q 3003 1734 2745 1975 
Q 2488 2216 2034 2216 
z
M 1403 2484 
Q 997 2584 770 2862 
Q 544 3141 544 3541 
Q 544 4100 942 4425 
Q 1341 4750 2034 4750 
Q 2731 4750 3128 4425 
Q 3525 4100 3525 3541 
Q 3525 3141 3298 2862 
Q 3072 2584 2669 2484 
Q 3125 2378 3379 2068 
Q 3634 1759 3634 1313 
Q 3634 634 3220 271 
Q 2806 -91 2034 -91 
Q 1263 -91 848 271 
Q 434 634 434 1313 
Q 434 1759 690 2068 
Q 947 2378 1403 2484 
z
M 1172 3481 
Q 1172 3119 1398 2916 
Q 1625 2713 2034 2713 
Q 2441 2713 2670 2916 
Q 2900 3119 2900 3481 
Q 2900 3844 2670 4047 
Q 2441 4250 2034 4250 
Q 1625 4250 1398 4047 
Q 1172 3844 1172 3481 
z
" transform="scale(0.015625)"/>
       </defs>
       <use xlink:href="#DejaVuSans-32"/>
       <use xlink:href="#DejaVuSans-2e" x="63.623047"/>
       <use xlink:href="#DejaVuSans-38" x="95.410156"/>
      </g>
     </g>
    </g>
    <g id="xtick_4">
     <g id="line2d_4">
      <g>
       <use xlink:href="#m598f855e31" x="172.872113" y="277.111219" style="stroke: #000000; stroke-width: 0.8"/>
      </g>
     </g>
     <g id="text_4">
      <!-- 3.0 -->
      <g transform="translate(164.92055 291.709656) scale(0.1 -0.1)">
       <defs>
        <path id="DejaVuSans-33" d="M 2597 2516 
Q 3050 2419 3304 2112 
Q 3559 1806 3559 1356 
Q 3559 666 3084 287 
Q 2609 -91 1734 -91 
Q 1441 -91 1130 -33 
Q 819 25 488 141 
L 488 750 
Q 750 597 1062 519 
Q 1375 441 1716 441 
Q 2309 441 2620 675 
Q 2931 909 2931 1356 
Q 2931 1769 2642 2001 
Q 2353 2234 1838 2234 
L 1294 2234 
L 1294 2753 
L 1863 2753 
Q 2328 2753 2575 2939 
Q 2822 3125 2822 3475 
Q 2822 3834 2567 4026 
Q 2313 4219 1838 4219 
Q 1578 4219 1281 4162 
Q 984 4106 628 3988 
L 628 4550 
Q 988 4650 1302 4700 
Q 1616 4750 1894 4750 
Q 2613 4750 3031 4423 
Q 3450 4097 3450 3541 
Q 3450 3153 3228 2886 
Q 3006 2619 2597 2516 
z
" transform="scale(0.015625)"/>
        <path id="DejaVuSans-30" d="M 2034 4250 
Q 1547 4250 1301 3770 
Q 1056 3291 1056 2328 
Q 1056 1369 1301 889 
Q 1547 409 2034 409 
Q 2525 409 2770 889 
Q 3016 1369 3016 2328 
Q 3016 3291 2770 3770 
Q 2525 4250 2034 4250 
z
M 2034 4750 
Q 2819 4750 3233 4129 
Q 3647 3509 3647 2328 
Q 3647 1150 3233 529 
Q 2819 -91 2034 -91 
Q 1250 -91 836 529 
Q 422 1150 422 2328 
Q 422 3509 836 4129 
Q 1250 4750 2034 4750 
z
" transform="scale(0.015625)"/>
       </defs>
       <use xlink:href="#DejaVuSans-33"/>
       <use xlink:href="#DejaVuSans-2e" x="63.623047"/>
       <use xlink:href="#DejaVuSans-30" x="95.410156"/>
      </g>
     </g>
    </g>
    <g id="xtick_5">
     <g id="line2d_5">
      <g>
       <use xlink:href="#m598f855e31" x="207.811665" y="277.111219" style="stroke: #000000; stroke-width: 0.8"/>
      </g>
     </g>
     <g id="text_5">
      <!-- 3.2 -->
      <g transform="translate(199.860102 291.709656) scale(0.1 -0.1)">
       <use xlink:href="#DejaVuSans-33"/>
       <use xlink:href="#DejaVuSans-2e" x="63.623047"/>
       <use xlink:href="#DejaVuSans-32" x="95.410156"/>
      </g>
     </g>
    </g>
    <g id="xtick_6">
     <g id="line2d_6">
      <g>
       <use xlink:href="#m598f855e31" x="242.751217" y="277.111219" style="stroke: #000000; stroke-width: 0.8"/>
      </g>
     </g>
     <g id="text_6">
      <!-- 3.4 -->
      <g transform="translate(234.799655 291.709656) scale(0.1 -0.1)">
       <use xlink:href="#DejaVuSans-33"/>
       <use xlink:href="#DejaVuSans-2e" x="63.623047"/>
       <use xlink:href="#DejaVuSans-34" x="95.410156"/>
      </g>
     </g>
    </g>
    <g id="xtick_7">
     <g id="line2d_7">
      <g>
       <use xlink:href="#m598f855e31" x="277.690769" y="277.111219" style="stroke: #000000; stroke-width: 0.8"/>
      </g>
     </g>
     <g id="text_7">
      <!-- 3.6 -->
      <g transform="translate(269.739207 291.709656) scale(0.1 -0.1)">
       <use xlink:href="#DejaVuSans-33"/>
       <use xlink:href="#DejaVuSans-2e" x="63.623047"/>
       <use xlink:href="#DejaVuSans-36" x="95.410156"/>
      </g>
     </g>
    </g>
    <g id="text_8">
     <!-- a1 -->
     <g transform="translate(164.219631 305.387781) scale(0.1 -0.1)">
      <defs>
       <path id="DejaVuSans-61" d="M 2194 1759 
Q 1497 1759 1228 1600 
Q 959 1441 959 1056 
Q 959 750 1161 570 
Q 1363 391 1709 391 
Q 2188 391 2477 730 
Q 2766 1069 2766 1631 
L 2766 1759 
L 2194 1759 
z
M 3341 1997 
L 3341 0 
L 2766 0 
L 2766 531 
Q 2569 213 2275 61 
Q 1981 -91 1556 -91 
Q 1019 -91 701 211 
Q 384 513 384 1019 
Q 384 1609 779 1909 
Q 1175 2209 1959 2209 
L 2766 2209 
L 2766 2266 
Q 2766 2663 2505 2880 
Q 2244 3097 1772 3097 
Q 1472 3097 1187 3025 
Q 903 2953 641 2809 
L 641 3341 
Q 956 3463 1253 3523 
Q 1550 3584 1831 3584 
Q 2591 3584 2966 3190 
Q 3341 2797 3341 1997 
z
" transform="scale(0.015625)"/>
       <path id="DejaVuSans-31" d="M 794 531 
L 1825 531 
L 1825 4091 
L 703 3866 
L 703 4441 
L 1819 4666 
L 2450 4666 
L 2450 531 
L 3481 531 
L 3481 0 
L 794 0 
L 794 531 
z
" transform="scale(0.015625)"/>
      </defs>
      <use xlink:href="#DejaVuSans-61"/>
      <use xlink:href="#DejaVuSans-31" x="61.279297"/>
     </g>
    </g>
   </g>
   <g id="matplotlib.axis_2">
    <g id="ytick_1">
     <g id="line2d_8">
      <defs>
       <path id="m2100350f17" d="M 0 0 
L -3.5 0 
" style="stroke: #000000; stroke-width: 0.8"/>
      </defs>
      <g>
       <use xlink:href="#m2100350f17" x="40.603125" y="248.854258" style="stroke: #000000; stroke-width: 0.8"/>
      </g>
     </g>
     <g id="text_9">
      <!-- 10 -->
      <g transform="translate(20.878125 252.653477) scale(0.1 -0.1)">
       <use xlink:href="#DejaVuSans-31"/>
       <use xlink:href="#DejaVuSans-30" x="63.623047"/>
      </g>
     </g>
    </g>
    <g id="ytick_2">
     <g id="line2d_9">
      <g>
       <use xlink:href="#m2100350f17" x="40.603125" y="191.399705" style="stroke: #000000; stroke-width: 0.8"/>
      </g>
     </g>
     <g id="text_10">
      <!-- 11 -->
      <g transform="translate(20.878125 195.198923) scale(0.1 -0.1)">
       <use xlink:href="#DejaVuSans-31"/>
       <use xlink:href="#DejaVuSans-31" x="63.623047"/>
      </g>
     </g>
    </g>
    <g id="ytick_3">
     <g id="line2d_10">
      <g>
       <use xlink:href="#m2100350f17" x="40.603125" y="133.945151" style="stroke: #000000; stroke-width: 0.8"/>
      </g>
     </g>
     <g id="text_11">
      <!-- 12 -->
      <g transform="translate(20.878125 137.74437) scale(0.1 -0.1)">
       <use xlink:href="#DejaVuSans-31"/>
       <use xlink:href="#DejaVuSans-32" x="63.623047"/>
      </g>
     </g>
    </g>
    <g id="ytick_4">
     <g id="line2d_11">
      <g>
       <use xlink:href="#m2100350f17" x="40.603125" y="76.490598" style="stroke: #000000; stroke-width: 0.8"/>
      </g>
     </g>
     <g id="text_12">
      <!-- 13 -->
      <g transform="translate(20.878125 80.289817) scale(0.1 -0.1)">
       <use xlink:href="#DejaVuSans-31"/>
       <use xlink:href="#DejaVuSans-33" x="63.623047"/>
      </g>
     </g>
    </g>
    <g id="ytick_5">
     <g id="line2d_12">
      <g>
       <use xlink:href="#m2100350f17" x="40.603125" y="19.036044" style="stroke: #000000; stroke-width: 0.8"/>
      </g>
     </g>
     <g id="text_13">
      <!-- 14 -->
      <g transform="translate(20.878125 22.835263) scale(0.1 -0.1)">
       <use xlink:href="#DejaVuSans-31"/>
       <use xlink:href="#DejaVuSans-34" x="63.623047"/>
      </g>
     </g>
    </g>
    <g id="text_14">
     <!-- t2 -->
     <g transform="translate(14.798438 149.196625) rotate(-90) scale(0.1 -0.1)">
      <defs>
       <path id="DejaVuSans-74" d="M 1172 4494 
L 1172 3500 
L 2356 3500 
L 2356 3053 
L 1172 3053 
L 1172 1153 
Q 1172 725 1289 603 
Q 1406 481 1766 481 
L 2356 481 
L 2356 0 
L 1766 0 
Q 1100 0 847 248 
Q 594 497 594 1153 
L 594 3053 
L 172 3053 
L 172 3500 
L 594 3500 
L 594 4494 
L 1172 4494 
z
" transform="scale(0.015625)"/>
      </defs>
      <use xlink:href="#DejaVuSans-74"/>
      <use xlink:href="#DejaVuSans-32" x="39.208984"/>
     </g>
    </g>
   </g>
   <g id="patch_3">
    <path d="M 40.603125 277.111219 
L 40.603125 10.999219 
" style="fill: none; stroke: #000000; stroke-width: 0.8; stroke-linejoin: miter; stroke-linecap: square"/>
   </g>
   <g id="patch_4">
    <path d="M 300.326761 277.111219 
L 300.326761 10.999219 
" style="fill: none; stroke: #000000; stroke-width: 0.8; stroke-linejoin: miter; stroke-linecap: square"/>
   </g>
   <g id="patch_5">
    <path d="M 40.603125 277.111219 
L 300.326761 277.111219 
" style="fill: none; stroke: #000000; stroke-width: 0.8; stroke-linejoin: miter; stroke-linecap: square"/>
   </g>
   <g id="patch_6">
    <path d="M 40.603125 10.999219 
L 300.326761 10.999219 
" style="fill: none; stroke: #000000; stroke-width: 0.8; stroke-linejoin: miter; stroke-linecap: square"/>
   </g>
  </g>
  <g id="axes_2">
   <g id="patch_7">
    <path d="M 430.18858 277.111219 
L 689.912216 277.111219 
L 689.912216 10.999219 
L 430.18858 10.999219 
z
" style="fill: #ffffff"/>
   </g>
   <g id="QuadContourSet_2">
    <path clip-path="url(#p3f5876c790)" style="fill: #471365"/>
    <path d="M 555.572404 148.782753 
L 555.712384 148.643357 
L 555.572404 148.493851 
L 555.421699 148.643357 
z
M 564.528391 139.594764 
L 564.646644 139.467081 
L 564.528391 139.334614 
L 564.398479 139.467081 
z
" clip-path="url(#p3f5876c790)" style="fill: #463480"/>
    <path d="M 555.572404 149.225214 
L 556.1567 148.643357 
L 555.572404 148.019302 
L 554.943341 148.643357 
z
M 555.421699 148.643357 
L 555.572404 148.493851 
L 555.712384 148.643357 
L 555.572404 148.782753 
z
M 564.528391 140.050802 
L 565.068998 139.467081 
L 564.528391 138.861492 
L 563.93448 139.467081 
z
M 564.398479 139.467081 
L 564.528391 139.334614 
L 564.646644 139.467081 
L 564.528391 139.594764 
z
" clip-path="url(#p3f5876c790)" style="fill: #3b528b"/>
    <path d="M 555.572404 149.667675 
L 556.601015 148.643357 
L 555.572404 147.544752 
L 554.464984 148.643357 
z
M 554.943341 148.643357 
L 555.572404 148.019302 
L 556.1567 148.643357 
L 555.572404 149.225214 
z
M 564.528391 140.506839 
L 565.491352 139.467081 
L 564.528391 138.38837 
L 563.470481 139.467081 
z
M 563.93448 139.467081 
L 564.528391 138.861492 
L 565.068998 139.467081 
L 564.528391 140.050802 
z
" clip-path="url(#p3f5876c790)" style="fill: #2f6c8e"/>
    <path d="M 555.572404 150.110137 
L 557.045331 148.643357 
L 555.572404 147.070203 
L 553.986626 148.643357 
z
M 554.464984 148.643357 
L 555.572404 147.544752 
L 556.601015 148.643357 
L 555.572404 149.667675 
z
M 564.528391 140.962877 
L 565.913706 139.467081 
L 564.528391 137.915249 
L 563.006483 139.467081 
z
M 563.470481 139.467081 
L 564.528391 138.38837 
L 565.491352 139.467081 
L 564.528391 140.506839 
z
" clip-path="url(#p3f5876c790)" style="fill: #25848e"/>
    <path d="M 546.616417 158.251875 
L 547.088768 157.819633 
L 546.616417 157.271958 
L 546.041823 157.819633 
z
M 555.572404 150.552598 
L 557.489646 148.643357 
L 555.572404 146.595653 
L 553.508268 148.643357 
z
M 553.986626 148.643357 
L 555.572404 147.070203 
L 557.045331 148.643357 
L 555.572404 150.110137 
z
M 564.528391 141.418914 
L 566.336059 139.467081 
L 564.528391 137.442127 
L 562.542484 139.467081 
z
M 563.006483 139.467081 
L 564.528391 137.915249 
L 565.913706 139.467081 
L 564.528391 140.962877 
z
M 573.484379 130.603052 
L 573.747764 130.290805 
L 573.484379 129.934348 
L 573.144524 130.290805 
z
" clip-path="url(#p3f5876c790)" style="fill: #1e9c89"/>
    <path d="M 546.616417 158.72455 
L 547.605303 157.819633 
L 546.616417 156.673054 
L 545.413482 157.819633 
z
M 546.041823 157.819633 
L 546.616417 157.271958 
L 547.088768 157.819633 
L 546.616417 158.251875 
z
M 555.572404 150.995059 
L 557.933961 148.643357 
L 555.572404 146.121104 
L 553.029911 148.643357 
z
M 553.508268 148.643357 
L 555.572404 146.595653 
L 557.489646 148.643357 
L 555.572404 150.552598 
z
M 564.528391 141.874952 
L 566.758413 139.467081 
L 564.528391 136.969005 
L 562.078485 139.467081 
z
M 562.542484 139.467081 
L 564.528391 137.442127 
L 566.336059 139.467081 
L 564.528391 141.418914 
z
M 573.484379 131.126778 
L 574.189534 130.290805 
L 573.484379 129.33647 
L 572.574492 130.290805 
z
M 573.144524 130.290805 
L 573.484379 129.934348 
L 573.747764 130.290805 
L 573.484379 130.603052 
z
" clip-path="url(#p3f5876c790)" style="fill: #2fb47c"/>
    <path d="M 546.616417 159.197225 
L 548.121839 157.819633 
L 546.616417 156.07415 
L 544.78514 157.819633 
z
M 545.413482 157.819633 
L 546.616417 156.673054 
L 547.605303 157.819633 
L 546.616417 158.72455 
z
M 555.572404 151.437521 
L 558.378277 148.643357 
L 555.572404 145.646554 
L 552.551553 148.643357 
z
M 553.029911 148.643357 
L 555.572404 146.121104 
L 557.933961 148.643357 
L 555.572404 150.995059 
z
M 564.528391 142.330989 
L 567.180767 139.467081 
L 564.528391 136.495883 
L 561.614487 139.467081 
z
M 562.078485 139.467081 
L 564.528391 136.969005 
L 566.758413 139.467081 
L 564.528391 141.874952 
z
M 573.484379 131.650503 
L 574.631304 130.290805 
L 573.484379 128.738593 
L 572.00446 130.290805 
z
M 572.574492 130.290805 
L 573.484379 129.33647 
L 574.189534 130.290805 
L 573.484379 131.126778 
z
" clip-path="url(#p3f5876c790)" style="fill: #5ec962"/>
    <path d="M 537.660429 167.124422 
L 537.812278 166.995908 
L 537.660429 166.76463 
L 537.402745 166.995908 
z
M 546.616417 159.6699 
L 548.638374 157.819633 
L 546.616417 155.475246 
L 544.156799 157.819633 
z
M 544.78514 157.819633 
L 546.616417 156.07415 
L 548.121839 157.819633 
L 546.616417 159.197225 
z
M 555.572404 151.879982 
L 558.822592 148.643357 
L 555.572404 145.172005 
L 552.073196 148.643357 
z
M 552.551553 148.643357 
L 555.572404 145.646554 
L 558.378277 148.643357 
L 555.572404 151.437521 
z
M 564.528391 142.787026 
L 567.603121 139.467081 
L 564.528391 136.022762 
L 561.150488 139.467081 
z
M 561.614487 139.467081 
L 564.528391 136.495883 
L 567.180767 139.467081 
L 564.528391 142.330989 
z
M 573.484379 132.174228 
L 575.073074 130.290805 
L 573.484379 128.140715 
L 571.434429 130.290805 
z
M 572.00446 130.290805 
L 573.484379 128.738593 
L 574.631304 130.290805 
L 573.484379 131.650503 
z
" clip-path="url(#p3f5876c790)" style="fill: #9bd93c"/>
    <path d="M 537.660429 167.60517 
L 538.380322 166.995908 
L 537.660429 165.899453 
L 536.438788 166.995908 
z
M 537.402745 166.995908 
L 537.660429 166.76463 
L 537.812278 166.995908 
L 537.660429 167.124422 
z
M 546.616417 160.142575 
L 549.15491 157.819633 
L 546.616417 154.876342 
L 543.528458 157.819633 
z
M 544.156799 157.819633 
L 546.616417 155.475246 
L 548.638374 157.819633 
L 546.616417 159.6699 
z
M 555.572404 152.322443 
L 559.266908 148.643357 
L 555.572404 144.697455 
L 551.594838 148.643357 
z
M 552.073196 148.643357 
L 555.572404 145.172005 
L 558.822592 148.643357 
L 555.572404 151.879982 
z
M 564.528391 143.243064 
L 568.025475 139.467081 
L 564.528391 135.54964 
L 560.686489 139.467081 
z
M 561.150488 139.467081 
L 564.528391 136.022762 
L 567.603121 139.467081 
L 564.528391 142.787026 
z
M 573.484379 132.697954 
L 575.514844 130.290805 
L 573.484379 127.542838 
L 570.864397 130.290805 
z
M 571.434429 130.290805 
L 573.484379 128.140715 
L 575.073074 130.290805 
L 573.484379 132.174228 
z
M 582.440366 121.325083 
L 582.602458 121.114529 
L 582.440366 120.793929 
L 582.143855 121.114529 
z
" clip-path="url(#p3f5876c790)" style="fill: #dfe318"/>
   </g>
   <g id="matplotlib.axis_3">
    <g id="xtick_8">
     <g id="line2d_13">
      <g>
       <use xlink:href="#m598f855e31" x="455.342318" y="277.111219" style="stroke: #000000; stroke-width: 0.8"/>
      </g>
     </g>
     <g id="text_15">
      <!-- −4.8 -->
      <g transform="translate(443.200912 291.709656) scale(0.1 -0.1)">
       <defs>
        <path id="DejaVuSans-2212" d="M 678 2272 
L 4684 2272 
L 4684 1741 
L 678 1741 
L 678 2272 
z
" transform="scale(0.015625)"/>
       </defs>
       <use xlink:href="#DejaVuSans-2212"/>
       <use xlink:href="#DejaVuSans-34" x="83.789062"/>
       <use xlink:href="#DejaVuSans-2e" x="147.412109"/>
       <use xlink:href="#DejaVuSans-38" x="179.199219"/>
      </g>
     </g>
    </g>
    <g id="xtick_9">
     <g id="line2d_14">
      <g>
       <use xlink:href="#m598f855e31" x="500.403599" y="277.111219" style="stroke: #000000; stroke-width: 0.8"/>
      </g>
     </g>
     <g id="text_16">
      <!-- −4.6 -->
      <g transform="translate(488.262193 291.709656) scale(0.1 -0.1)">
       <use xlink:href="#DejaVuSans-2212"/>
       <use xlink:href="#DejaVuSans-34" x="83.789062"/>
       <use xlink:href="#DejaVuSans-2e" x="147.412109"/>
       <use xlink:href="#DejaVuSans-36" x="179.199219"/>
      </g>
     </g>
    </g>
    <g id="xtick_10">
     <g id="line2d_15">
      <g>
       <use xlink:href="#m598f855e31" x="545.46488" y="277.111219" style="stroke: #000000; stroke-width: 0.8"/>
      </g>
     </g>
     <g id="text_17">
      <!-- −4.4 -->
      <g transform="translate(533.323473 291.709656) scale(0.1 -0.1)">
       <use xlink:href="#DejaVuSans-2212"/>
       <use xlink:href="#DejaVuSans-34" x="83.789062"/>
       <use xlink:href="#DejaVuSans-2e" x="147.412109"/>
       <use xlink:href="#DejaVuSans-34" x="179.199219"/>
      </g>
     </g>
    </g>
    <g id="xtick_11">
     <g id="line2d_16">
      <g>
       <use xlink:href="#m598f855e31" x="590.526161" y="277.111219" style="stroke: #000000; stroke-width: 0.8"/>
      </g>
     </g>
     <g id="text_18">
      <!-- −4.2 -->
      <g transform="translate(578.384754 291.709656) scale(0.1 -0.1)">
       <use xlink:href="#DejaVuSans-2212"/>
       <use xlink:href="#DejaVuSans-34" x="83.789062"/>
       <use xlink:href="#DejaVuSans-2e" x="147.412109"/>
       <use xlink:href="#DejaVuSans-32" x="179.199219"/>
      </g>
     </g>
    </g>
    <g id="xtick_12">
     <g id="line2d_17">
      <g>
       <use xlink:href="#m598f855e31" x="635.587442" y="277.111219" style="stroke: #000000; stroke-width: 0.8"/>
      </g>
     </g>
     <g id="text_19">
      <!-- −4.0 -->
      <g transform="translate(623.446035 291.709656) scale(0.1 -0.1)">
       <use xlink:href="#DejaVuSans-2212"/>
       <use xlink:href="#DejaVuSans-34" x="83.789062"/>
       <use xlink:href="#DejaVuSans-2e" x="147.412109"/>
       <use xlink:href="#DejaVuSans-30" x="179.199219"/>
      </g>
     </g>
    </g>
    <g id="xtick_13">
     <g id="line2d_18">
      <g>
       <use xlink:href="#m598f855e31" x="680.648722" y="277.111219" style="stroke: #000000; stroke-width: 0.8"/>
      </g>
     </g>
     <g id="text_20">
      <!-- −3.8 -->
      <g transform="translate(668.507316 291.709656) scale(0.1 -0.1)">
       <use xlink:href="#DejaVuSans-2212"/>
       <use xlink:href="#DejaVuSans-33" x="83.789062"/>
       <use xlink:href="#DejaVuSans-2e" x="147.412109"/>
       <use xlink:href="#DejaVuSans-38" x="179.199219"/>
      </g>
     </g>
    </g>
    <g id="text_21">
     <!-- a2 -->
     <g transform="translate(553.805085 305.387781) scale(0.1 -0.1)">
      <use xlink:href="#DejaVuSans-61"/>
      <use xlink:href="#DejaVuSans-32" x="61.279297"/>
     </g>
    </g>
   </g>
   <g id="matplotlib.axis_4">
    <g id="ytick_6">
     <g id="line2d_19">
      <g>
       <use xlink:href="#m2100350f17" x="430.18858" y="248.854258" style="stroke: #000000; stroke-width: 0.8"/>
      </g>
     </g>
     <g id="text_22">
      <!-- 10 -->
      <g transform="translate(410.46358 252.653477) scale(0.1 -0.1)">
       <use xlink:href="#DejaVuSans-31"/>
       <use xlink:href="#DejaVuSans-30" x="63.623047"/>
      </g>
     </g>
    </g>
    <g id="ytick_7">
     <g id="line2d_20">
      <g>
       <use xlink:href="#m2100350f17" x="430.18858" y="191.399705" style="stroke: #000000; stroke-width: 0.8"/>
      </g>
     </g>
     <g id="text_23">
      <!-- 11 -->
      <g transform="translate(410.46358 195.198923) scale(0.1 -0.1)">
       <use xlink:href="#DejaVuSans-31"/>
       <use xlink:href="#DejaVuSans-31" x="63.623047"/>
      </g>
     </g>
    </g>
    <g id="ytick_8">
     <g id="line2d_21">
      <g>
       <use xlink:href="#m2100350f17" x="430.18858" y="133.945151" style="stroke: #000000; stroke-width: 0.8"/>
      </g>
     </g>
     <g id="text_24">
      <!-- 12 -->
      <g transform="translate(410.46358 137.74437) scale(0.1 -0.1)">
       <use xlink:href="#DejaVuSans-31"/>
       <use xlink:href="#DejaVuSans-32" x="63.623047"/>
      </g>
     </g>
    </g>
    <g id="ytick_9">
     <g id="line2d_22">
      <g>
       <use xlink:href="#m2100350f17" x="430.18858" y="76.490598" style="stroke: #000000; stroke-width: 0.8"/>
      </g>
     </g>
     <g id="text_25">
      <!-- 13 -->
      <g transform="translate(410.46358 80.289817) scale(0.1 -0.1)">
       <use xlink:href="#DejaVuSans-31"/>
       <use xlink:href="#DejaVuSans-33" x="63.623047"/>
      </g>
     </g>
    </g>
    <g id="ytick_10">
     <g id="line2d_23">
      <g>
       <use xlink:href="#m2100350f17" x="430.18858" y="19.036044" style="stroke: #000000; stroke-width: 0.8"/>
      </g>
     </g>
     <g id="text_26">
      <!-- 14 -->
      <g transform="translate(410.46358 22.835263) scale(0.1 -0.1)">
       <use xlink:href="#DejaVuSans-31"/>
       <use xlink:href="#DejaVuSans-34" x="63.623047"/>
      </g>
     </g>
    </g>
    <g id="text_27">
     <!-- t2 -->
     <g transform="translate(404.383892 149.196625) rotate(-90) scale(0.1 -0.1)">
      <use xlink:href="#DejaVuSans-74"/>
      <use xlink:href="#DejaVuSans-32" x="39.208984"/>
     </g>
    </g>
   </g>
   <g id="patch_8">
    <path d="M 430.18858 277.111219 
L 430.18858 10.999219 
" style="fill: none; stroke: #000000; stroke-width: 0.8; stroke-linejoin: miter; stroke-linecap: square"/>
   </g>
   <g id="patch_9">
    <path d="M 689.912216 277.111219 
L 689.912216 10.999219 
" style="fill: none; stroke: #000000; stroke-width: 0.8; stroke-linejoin: miter; stroke-linecap: square"/>
   </g>
   <g id="patch_10">
    <path d="M 430.18858 277.111219 
L 689.912216 277.111219 
" style="fill: none; stroke: #000000; stroke-width: 0.8; stroke-linejoin: miter; stroke-linecap: square"/>
   </g>
   <g id="patch_11">
    <path d="M 430.18858 10.999219 
L 689.912216 10.999219 
" style="fill: none; stroke: #000000; stroke-width: 0.8; stroke-linejoin: miter; stroke-linecap: square"/>
   </g>
  </g>
  <g id="axes_3">
   <g id="patch_12">
    <path d="M 316.559489 277.111219 
L 329.865089 277.111219 
L 329.865089 10.999219 
L 316.559489 10.999219 
z
" style="fill: #ffffff"/>
   </g>
   <g id="QuadMesh_1">
    <path d="M 316.559489 277.111219 
L 329.865089 277.111219 
L 329.865089 250.500019 
L 316.559489 250.500019 
L 316.559489 277.111219 
" clip-path="url(#pa9f04c092c)" style="fill: #471365"/>
    <path d="M 316.559489 250.500019 
L 329.865089 250.500019 
L 329.865089 223.888819 
L 316.559489 223.888819 
L 316.559489 250.500019 
" clip-path="url(#pa9f04c092c)" style="fill: #463480"/>
    <path d="M 316.559489 223.888819 
L 329.865089 223.888819 
L 329.865089 197.277619 
L 316.559489 197.277619 
L 316.559489 223.888819 
" clip-path="url(#pa9f04c092c)" style="fill: #3b528b"/>
    <path d="M 316.559489 197.277619 
L 329.865089 197.277619 
L 329.865089 170.666419 
L 316.559489 170.666419 
L 316.559489 197.277619 
" clip-path="url(#pa9f04c092c)" style="fill: #2f6c8e"/>
    <path d="M 316.559489 170.666419 
L 329.865089 170.666419 
L 329.865089 144.055219 
L 316.559489 144.055219 
L 316.559489 170.666419 
" clip-path="url(#pa9f04c092c)" style="fill: #25848e"/>
    <path d="M 316.559489 144.055219 
L 329.865089 144.055219 
L 329.865089 117.444019 
L 316.559489 117.444019 
L 316.559489 144.055219 
" clip-path="url(#pa9f04c092c)" style="fill: #1e9c89"/>
    <path d="M 316.559489 117.444019 
L 329.865089 117.444019 
L 329.865089 90.832819 
L 316.559489 90.832819 
L 316.559489 117.444019 
" clip-path="url(#pa9f04c092c)" style="fill: #2fb47c"/>
    <path d="M 316.559489 90.832819 
L 329.865089 90.832819 
L 329.865089 64.221619 
L 316.559489 64.221619 
L 316.559489 90.832819 
" clip-path="url(#pa9f04c092c)" style="fill: #5ec962"/>
    <path d="M 316.559489 64.221619 
L 329.865089 64.221619 
L 329.865089 37.610419 
L 316.559489 37.610419 
L 316.559489 64.221619 
" clip-path="url(#pa9f04c092c)" style="fill: #9bd93c"/>
    <path d="M 316.559489 37.610419 
L 329.865089 37.610419 
L 329.865089 10.999219 
L 316.559489 10.999219 
L 316.559489 37.610419 
" clip-path="url(#pa9f04c092c)" style="fill: #dfe318"/>
   </g>
   <g id="matplotlib.axis_5"/>
   <g id="matplotlib.axis_6">
    <g id="ytick_11">
     <g id="line2d_24">
      <defs>
       <path id="mb409580b8b" d="M 0 0 
L 3.5 0 
" style="stroke: #000000; stroke-width: 0.8"/>
      </defs>
      <g>
       <use xlink:href="#mb409580b8b" x="329.865089" y="277.111219" style="stroke: #000000; stroke-width: 0.8"/>
      </g>
     </g>
     <g id="text_28">
      <!-- 0.0 -->
      <g transform="translate(336.865089 280.910437) scale(0.1 -0.1)">
       <use xlink:href="#DejaVuSans-30"/>
       <use xlink:href="#DejaVuSans-2e" x="63.623047"/>
       <use xlink:href="#DejaVuSans-30" x="95.410156"/>
      </g>
     </g>
    </g>
    <g id="ytick_12">
     <g id="line2d_25">
      <g>
       <use xlink:href="#mb409580b8b" x="329.865089" y="223.888819" style="stroke: #000000; stroke-width: 0.8"/>
      </g>
     </g>
     <g id="text_29">
      <!-- 0.2 -->
      <g transform="translate(336.865089 227.688037) scale(0.1 -0.1)">
       <use xlink:href="#DejaVuSans-30"/>
       <use xlink:href="#DejaVuSans-2e" x="63.623047"/>
       <use xlink:href="#DejaVuSans-32" x="95.410156"/>
      </g>
     </g>
    </g>
    <g id="ytick_13">
     <g id="line2d_26">
      <g>
       <use xlink:href="#mb409580b8b" x="329.865089" y="170.666419" style="stroke: #000000; stroke-width: 0.8"/>
      </g>
     </g>
     <g id="text_30">
      <!-- 0.4 -->
      <g transform="translate(336.865089 174.465637) scale(0.1 -0.1)">
       <use xlink:href="#DejaVuSans-30"/>
       <use xlink:href="#DejaVuSans-2e" x="63.623047"/>
       <use xlink:href="#DejaVuSans-34" x="95.410156"/>
      </g>
     </g>
    </g>
    <g id="ytick_14">
     <g id="line2d_27">
      <g>
       <use xlink:href="#mb409580b8b" x="329.865089" y="117.444019" style="stroke: #000000; stroke-width: 0.8"/>
      </g>
     </g>
     <g id="text_31">
      <!-- 0.6 -->
      <g transform="translate(336.865089 121.243237) scale(0.1 -0.1)">
       <use xlink:href="#DejaVuSans-30"/>
       <use xlink:href="#DejaVuSans-2e" x="63.623047"/>
       <use xlink:href="#DejaVuSans-36" x="95.410156"/>
      </g>
     </g>
    </g>
    <g id="ytick_15">
     <g id="line2d_28">
      <g>
       <use xlink:href="#mb409580b8b" x="329.865089" y="64.221619" style="stroke: #000000; stroke-width: 0.8"/>
      </g>
     </g>
     <g id="text_32">
      <!-- 0.8 -->
      <g transform="translate(336.865089 68.020837) scale(0.1 -0.1)">
       <use xlink:href="#DejaVuSans-30"/>
       <use xlink:href="#DejaVuSans-2e" x="63.623047"/>
       <use xlink:href="#DejaVuSans-38" x="95.410156"/>
      </g>
     </g>
    </g>
    <g id="ytick_16">
     <g id="line2d_29">
      <g>
       <use xlink:href="#mb409580b8b" x="329.865089" y="10.999219" style="stroke: #000000; stroke-width: 0.8"/>
      </g>
     </g>
     <g id="text_33">
      <!-- 1.0 -->
      <g transform="translate(336.865089 14.798437) scale(0.1 -0.1)">
       <use xlink:href="#DejaVuSans-31"/>
       <use xlink:href="#DejaVuSans-2e" x="63.623047"/>
       <use xlink:href="#DejaVuSans-30" x="95.410156"/>
      </g>
     </g>
    </g>
   </g>
   <g id="LineCollection_1"/>
   <g id="patch_13">
    <path d="M 316.559489 277.111219 
L 323.212289 277.111219 
L 329.865089 277.111219 
L 329.865089 10.999219 
L 323.212289 10.999219 
L 316.559489 10.999219 
L 316.559489 277.111219 
z
" style="fill: none; stroke: #000000; stroke-width: 0.8; stroke-linejoin: miter; stroke-linecap: square"/>
   </g>
  </g>
  <g id="axes_4">
   <g id="patch_14">
    <path d="M 706.144943 277.111219 
L 719.450543 277.111219 
L 719.450543 10.999219 
L 706.144943 10.999219 
z
" style="fill: #ffffff"/>
   </g>
   <g id="QuadMesh_2">
    <path d="M 706.144943 277.111219 
L 719.450543 277.111219 
L 719.450543 250.500019 
L 706.144943 250.500019 
L 706.144943 277.111219 
" clip-path="url(#pf85faa638d)" style="fill: #471365"/>
    <path d="M 706.144943 250.500019 
L 719.450543 250.500019 
L 719.450543 223.888819 
L 706.144943 223.888819 
L 706.144943 250.500019 
" clip-path="url(#pf85faa638d)" style="fill: #463480"/>
    <path d="M 706.144943 223.888819 
L 719.450543 223.888819 
L 719.450543 197.277619 
L 706.144943 197.277619 
L 706.144943 223.888819 
" clip-path="url(#pf85faa638d)" style="fill: #3b528b"/>
    <path d="M 706.144943 197.277619 
L 719.450543 197.277619 
L 719.450543 170.666419 
L 706.144943 170.666419 
L 706.144943 197.277619 
" clip-path="url(#pf85faa638d)" style="fill: #2f6c8e"/>
    <path d="M 706.144943 170.666419 
L 719.450543 170.666419 
L 719.450543 144.055219 
L 706.144943 144.055219 
L 706.144943 170.666419 
" clip-path="url(#pf85faa638d)" style="fill: #25848e"/>
    <path d="M 706.144943 144.055219 
L 719.450543 144.055219 
L 719.450543 117.444019 
L 706.144943 117.444019 
L 706.144943 144.055219 
" clip-path="url(#pf85faa638d)" style="fill: #1e9c89"/>
    <path d="M 706.144943 117.444019 
L 719.450543 117.444019 
L 719.450543 90.832819 
L 706.144943 90.832819 
L 706.144943 117.444019 
" clip-path="url(#pf85faa638d)" style="fill: #2fb47c"/>
    <path d="M 706.144943 90.832819 
L 719.450543 90.832819 
L 719.450543 64.221619 
L 706.144943 64.221619 
L 706.144943 90.832819 
" clip-path="url(#pf85faa638d)" style="fill: #5ec962"/>
    <path d="M 706.144943 64.221619 
L 719.450543 64.221619 
L 719.450543 37.610419 
L 706.144943 37.610419 
L 706.144943 64.221619 
" clip-path="url(#pf85faa638d)" style="fill: #9bd93c"/>
    <path d="M 706.144943 37.610419 
L 719.450543 37.610419 
L 719.450543 10.999219 
L 706.144943 10.999219 
L 706.144943 37.610419 
" clip-path="url(#pf85faa638d)" style="fill: #dfe318"/>
   </g>
   <g id="matplotlib.axis_7"/>
   <g id="matplotlib.axis_8">
    <g id="ytick_17">
     <g id="line2d_30">
      <g>
       <use xlink:href="#mb409580b8b" x="719.450543" y="277.111219" style="stroke: #000000; stroke-width: 0.8"/>
      </g>
     </g>
     <g id="text_34">
      <!-- 0.0 -->
      <g transform="translate(726.450543 280.910437) scale(0.1 -0.1)">
       <use xlink:href="#DejaVuSans-30"/>
       <use xlink:href="#DejaVuSans-2e" x="63.623047"/>
       <use xlink:href="#DejaVuSans-30" x="95.410156"/>
      </g>
     </g>
    </g>
    <g id="ytick_18">
     <g id="line2d_31">
      <g>
       <use xlink:href="#mb409580b8b" x="719.450543" y="223.888819" style="stroke: #000000; stroke-width: 0.8"/>
      </g>
     </g>
     <g id="text_35">
      <!-- 0.2 -->
      <g transform="translate(726.450543 227.688037) scale(0.1 -0.1)">
       <use xlink:href="#DejaVuSans-30"/>
       <use xlink:href="#DejaVuSans-2e" x="63.623047"/>
       <use xlink:href="#DejaVuSans-32" x="95.410156"/>
      </g>
     </g>
    </g>
    <g id="ytick_19">
     <g id="line2d_32">
      <g>
       <use xlink:href="#mb409580b8b" x="719.450543" y="170.666419" style="stroke: #000000; stroke-width: 0.8"/>
      </g>
     </g>
     <g id="text_36">
      <!-- 0.4 -->
      <g transform="translate(726.450543 174.465637) scale(0.1 -0.1)">
       <use xlink:href="#DejaVuSans-30"/>
       <use xlink:href="#DejaVuSans-2e" x="63.623047"/>
       <use xlink:href="#DejaVuSans-34" x="95.410156"/>
      </g>
     </g>
    </g>
    <g id="ytick_20">
     <g id="line2d_33">
      <g>
       <use xlink:href="#mb409580b8b" x="719.450543" y="117.444019" style="stroke: #000000; stroke-width: 0.8"/>
      </g>
     </g>
     <g id="text_37">
      <!-- 0.6 -->
      <g transform="translate(726.450543 121.243237) scale(0.1 -0.1)">
       <use xlink:href="#DejaVuSans-30"/>
       <use xlink:href="#DejaVuSans-2e" x="63.623047"/>
       <use xlink:href="#DejaVuSans-36" x="95.410156"/>
      </g>
     </g>
    </g>
    <g id="ytick_21">
     <g id="line2d_34">
      <g>
       <use xlink:href="#mb409580b8b" x="719.450543" y="64.221619" style="stroke: #000000; stroke-width: 0.8"/>
      </g>
     </g>
     <g id="text_38">
      <!-- 0.8 -->
      <g transform="translate(726.450543 68.020837) scale(0.1 -0.1)">
       <use xlink:href="#DejaVuSans-30"/>
       <use xlink:href="#DejaVuSans-2e" x="63.623047"/>
       <use xlink:href="#DejaVuSans-38" x="95.410156"/>
      </g>
     </g>
    </g>
    <g id="ytick_22">
     <g id="line2d_35">
      <g>
       <use xlink:href="#mb409580b8b" x="719.450543" y="10.999219" style="stroke: #000000; stroke-width: 0.8"/>
      </g>
     </g>
     <g id="text_39">
      <!-- 1.0 -->
      <g transform="translate(726.450543 14.798437) scale(0.1 -0.1)">
       <use xlink:href="#DejaVuSans-31"/>
       <use xlink:href="#DejaVuSans-2e" x="63.623047"/>
       <use xlink:href="#DejaVuSans-30" x="95.410156"/>
      </g>
     </g>
    </g>
   </g>
   <g id="LineCollection_2"/>
   <g id="patch_15">
    <path d="M 706.144943 277.111219 
L 712.797743 277.111219 
L 719.450543 277.111219 
L 719.450543 10.999219 
L 712.797743 10.999219 
L 706.144943 10.999219 
L 706.144943 277.111219 
z
" style="fill: none; stroke: #000000; stroke-width: 0.8; stroke-linejoin: miter; stroke-linecap: square"/>
   </g>
  </g>
 </g>
 <defs>
  <clipPath id="p5068bb66c0">
   <rect x="40.603125" y="10.999219" width="259.723636" height="266.112"/>
  </clipPath>
  <clipPath id="p3f5876c790">
   <rect x="430.18858" y="10.999219" width="259.723636" height="266.112"/>
  </clipPath>
  <clipPath id="pa9f04c092c">
   <rect x="316.559489" y="10.999219" width="13.3056" height="266.112"/>
  </clipPath>
  <clipPath id="pf85faa638d">
   <rect x="706.144943" y="10.999219" width="13.3056" height="266.112"/>
  </clipPath>
 </defs>
</svg>
