<?xml version="1.0" encoding="utf-8" standalone="no"?>
<!DOCTYPE svg PUBLIC "-//W3C//DTD SVG 1.1//EN"
  "http://www.w3.org/Graphics/SVG/1.1/DTD/svg11.dtd">
<svg xmlns:xlink="http://www.w3.org/1999/xlink" width="771.58375pt" height="305.68425pt" viewBox="0 0 771.58375 305.68425" xmlns="http://www.w3.org/2000/svg" version="1.1">
 <metadata>
  <rdf:RDF xmlns:dc="http://purl.org/dc/elements/1.1/" xmlns:cc="http://creativecommons.org/ns#" xmlns:rdf="http://www.w3.org/1999/02/22-rdf-syntax-ns#">
   <cc:Work>
    <dc:type rdf:resource="http://purl.org/dc/dcmitype/StillImage"/>
    <dc:date>2022-10-26T21:53:03.288590</dc:date>
    <dc:format>image/svg+xml</dc:format>
    <dc:creator>
     <cc:Agent>
      <dc:title>Matplotlib v3.5.3, https://matplotlib.org/</dc:title>
     </cc:Agent>
    </dc:creator>
   </cc:Work>
  </rdf:RDF>
 </metadata>
 <defs>
  <style type="text/css">*{stroke-linejoin: round; stroke-linecap: butt}</style>
 </defs>
 <g id="figure_1">
  <g id="patch_1">
   <path d="M 0 305.68425 
L 771.58375 305.68425 
L 771.58375 0 
L 0 0 
L 0 305.68425 
z
" style="fill: none"/>
  </g>
  <g id="axes_1">
   <g id="patch_2">
    <path d="M 50.14375 268.128 
L 374.798295 268.128 
L 374.798295 7.2 
L 50.14375 7.2 
z
" style="fill: #ffffff"/>
   </g>
   <g id="PathCollection_1">
    <defs>
     <path id="C0_0_c0a19e0ddd" d="M 0 2.738613 
C 0.726289 2.738613 1.422928 2.450055 1.936492 1.936492 
C 2.450055 1.422928 2.738613 0.726289 2.738613 -0 
C 2.738613 -0.726289 2.450055 -1.422928 1.936492 -1.936492 
C 1.422928 -2.450055 0.726289 -2.738613 0 -2.738613 
C -0.726289 -2.738613 -1.422928 -2.450055 -1.936492 -1.936492 
C -2.450055 -1.422928 -2.738613 -0.726289 -2.738613 0 
C -2.738613 0.726289 -2.450055 1.422928 -1.936492 1.936492 
C -1.422928 2.450055 -0.726289 2.738613 0 2.738613 
z
"/>
    </defs>
    <g clip-path="url(#pa8d171e1b6)">
     <use xlink:href="#C0_0_c0a19e0ddd" x="182.956973" y="238.561747" style="fill: #440154; stroke: #440154"/>
    </g>
    <g clip-path="url(#pa8d171e1b6)">
     <use xlink:href="#C0_0_c0a19e0ddd" x="123.928874" y="255.519733" style="fill: #4ec36b; stroke: #4ec36b"/>
    </g>
    <g clip-path="url(#pa8d171e1b6)">
     <use xlink:href="#C0_0_c0a19e0ddd" x="64.900775" y="223.635642" style="fill: #f8e621; stroke: #f8e621"/>
    </g>
    <g clip-path="url(#pa8d171e1b6)">
     <use xlink:href="#C0_0_c0a19e0ddd" x="182.956973" y="238.561747" style="fill: #440154; stroke: #440154"/>
    </g>
    <g clip-path="url(#pa8d171e1b6)">
     <use xlink:href="#C0_0_c0a19e0ddd" x="64.900775" y="223.635642" style="fill: #f8e621; stroke: #f8e621"/>
    </g>
    <g clip-path="url(#pa8d171e1b6)">
     <use xlink:href="#C0_0_c0a19e0ddd" x="100.002636" y="247.420748" style="fill: #b2dd2d; stroke: #b2dd2d"/>
    </g>
    <g clip-path="url(#pa8d171e1b6)">
     <use xlink:href="#C0_0_c0a19e0ddd" x="149.474102" y="255.070042" style="fill: #25838e; stroke: #25838e"/>
    </g>
    <g clip-path="url(#pa8d171e1b6)">
     <use xlink:href="#C0_0_c0a19e0ddd" x="121.42276" y="255.007519" style="fill: #58c765; stroke: #58c765"/>
    </g>
    <g clip-path="url(#pa8d171e1b6)">
     <use xlink:href="#C0_0_c0a19e0ddd" x="127.305426" y="256.267636" style="fill: #3fbc73; stroke: #3fbc73"/>
    </g>
    <g clip-path="url(#pa8d171e1b6)">
     <use xlink:href="#C0_0_c0a19e0ddd" x="126.689668" y="256.208318" style="fill: #42be71; stroke: #42be71"/>
    </g>
    <g clip-path="url(#pa8d171e1b6)">
     <use xlink:href="#C0_0_c0a19e0ddd" x="126.717902" y="256.211074" style="fill: #42be71; stroke: #42be71"/>
    </g>
    <g clip-path="url(#pa8d171e1b6)">
     <use xlink:href="#C0_0_c0a19e0ddd" x="126.717902" y="256.211074" style="fill: #42be71; stroke: #42be71"/>
    </g>
    <g clip-path="url(#pa8d171e1b6)">
     <use xlink:href="#C0_0_c0a19e0ddd" x="64.900775" y="223.635642" style="fill: #f8e621; stroke: #f8e621"/>
    </g>
    <g clip-path="url(#pa8d171e1b6)">
     <use xlink:href="#C0_0_c0a19e0ddd" x="68.553083" y="227.062482" style="fill: #f4e61e; stroke: #f4e61e"/>
    </g>
    <g clip-path="url(#pa8d171e1b6)">
     <use xlink:href="#C0_0_c0a19e0ddd" x="75.670489" y="232.643215" style="fill: #ece51b; stroke: #ece51b"/>
    </g>
    <g clip-path="url(#pa8d171e1b6)">
     <use xlink:href="#C0_0_c0a19e0ddd" x="74.49663" y="231.792778" style="fill: #efe51c; stroke: #efe51c"/>
    </g>
    <g clip-path="url(#pa8d171e1b6)">
     <use xlink:href="#C0_0_c0a19e0ddd" x="74.622793" y="231.87447" style="fill: #ece51b; stroke: #ece51b"/>
    </g>
    <g clip-path="url(#pa8d171e1b6)">
     <use xlink:href="#C0_0_c0a19e0ddd" x="74.649725" y="231.892069" style="fill: #ece51b; stroke: #ece51b"/>
    </g>
    <g clip-path="url(#pa8d171e1b6)">
     <use xlink:href="#C0_0_c0a19e0ddd" x="182.956973" y="238.561747" style="fill: #440154; stroke: #440154"/>
    </g>
    <g clip-path="url(#pa8d171e1b6)">
     <use xlink:href="#C0_0_c0a19e0ddd" x="241.985072" y="175.703433" style="fill: #31b57b; stroke: #31b57b"/>
    </g>
    <g clip-path="url(#pa8d171e1b6)">
     <use xlink:href="#C0_0_c0a19e0ddd" x="301.013171" y="96.276319" style="fill: #d0e11c; stroke: #d0e11c"/>
    </g>
    <g clip-path="url(#pa8d171e1b6)">
     <use xlink:href="#C0_0_c0a19e0ddd" x="360.041271" y="19.060364" style="fill: #fde725; stroke: #fde725"/>
    </g>
    <g clip-path="url(#pa8d171e1b6)">
     <use xlink:href="#C0_0_c0a19e0ddd" x="182.956973" y="238.561747" style="fill: #440154; stroke: #440154"/>
    </g>
    <g clip-path="url(#pa8d171e1b6)">
     <use xlink:href="#C0_0_c0a19e0ddd" x="360.041271" y="19.060364" style="fill: #fde725; stroke: #fde725"/>
    </g>
    <g clip-path="url(#pa8d171e1b6)">
     <use xlink:href="#C0_0_c0a19e0ddd" x="306.125552" y="89.376166" style="fill: #d8e219; stroke: #d8e219"/>
    </g>
    <g clip-path="url(#pa8d171e1b6)">
     <use xlink:href="#C0_0_c0a19e0ddd" x="244.541263" y="172.407959" style="fill: #37b878; stroke: #37b878"/>
    </g>
    <g clip-path="url(#pa8d171e1b6)">
     <use xlink:href="#C0_0_c0a19e0ddd" x="250.051607" y="165.222308" style="fill: #48c16e; stroke: #48c16e"/>
    </g>
    <g clip-path="url(#pa8d171e1b6)">
     <use xlink:href="#C0_0_c0a19e0ddd" x="247.94698" y="167.979007" style="fill: #42be71; stroke: #42be71"/>
    </g>
    <g clip-path="url(#pa8d171e1b6)">
     <use xlink:href="#C0_0_c0a19e0ddd" x="247.88615" y="168.058451" style="fill: #42be71; stroke: #42be71"/>
    </g>
    <g clip-path="url(#pa8d171e1b6)">
     <use xlink:href="#C0_0_c0a19e0ddd" x="247.88615" y="168.058451" style="fill: #42be71; stroke: #42be71"/>
    </g>
    <g clip-path="url(#pa8d171e1b6)">
     <use xlink:href="#C0_0_c0a19e0ddd" x="360.041271" y="19.060364" style="fill: #fde725; stroke: #fde725"/>
    </g>
    <g clip-path="url(#pa8d171e1b6)">
     <use xlink:href="#C0_0_c0a19e0ddd" x="349.896983" y="31.880774" style="fill: #fbe723; stroke: #fbe723"/>
    </g>
    <g clip-path="url(#pa8d171e1b6)">
     <use xlink:href="#C0_0_c0a19e0ddd" x="317.213044" y="74.519457" style="fill: #e5e419; stroke: #e5e419"/>
    </g>
    <g clip-path="url(#pa8d171e1b6)">
     <use xlink:href="#C0_0_c0a19e0ddd" x="330.253116" y="57.27992" style="fill: #efe51c; stroke: #efe51c"/>
    </g>
    <g clip-path="url(#pa8d171e1b6)">
     <use xlink:href="#C0_0_c0a19e0ddd" x="327.617257" y="60.741964" style="fill: #efe51c; stroke: #efe51c"/>
    </g>
    <g clip-path="url(#pa8d171e1b6)">
     <use xlink:href="#C0_0_c0a19e0ddd" x="327.24999" y="61.225283" style="fill: #ece51b; stroke: #ece51b"/>
    </g>
    <g clip-path="url(#pa8d171e1b6)">
     <use xlink:href="#C0_0_c0a19e0ddd" x="327.283238" y="61.181559" style="fill: #ece51b; stroke: #ece51b"/>
    </g>
   </g>
   <g id="matplotlib.axis_1">
    <g id="xtick_1">
     <g id="line2d_1">
      <defs>
       <path id="m053b8069cc" d="M 0 0 
L 0 3.5 
" style="stroke: #000000; stroke-width: 0.8"/>
      </defs>
      <g>
       <use xlink:href="#m053b8069cc" x="69.316824" y="268.128" style="stroke: #000000; stroke-width: 0.8"/>
      </g>
     </g>
     <g id="text_1">
      <!-- 2.7 -->
      <g transform="translate(61.365262 282.726438)scale(0.1 -0.1)">
       <defs>
        <path id="DejaVuSans-32" d="M 1228 531 
L 3431 531 
L 3431 0 
L 469 0 
L 469 531 
Q 828 903 1448 1529 
Q 2069 2156 2228 2338 
Q 2531 2678 2651 2914 
Q 2772 3150 2772 3378 
Q 2772 3750 2511 3984 
Q 2250 4219 1831 4219 
Q 1534 4219 1204 4116 
Q 875 4013 500 3803 
L 500 4441 
Q 881 4594 1212 4672 
Q 1544 4750 1819 4750 
Q 2544 4750 2975 4387 
Q 3406 4025 3406 3419 
Q 3406 3131 3298 2873 
Q 3191 2616 2906 2266 
Q 2828 2175 2409 1742 
Q 1991 1309 1228 531 
z
" transform="scale(0.015625)"/>
        <path id="DejaVuSans-2e" d="M 684 794 
L 1344 794 
L 1344 0 
L 684 0 
L 684 794 
z
" transform="scale(0.015625)"/>
        <path id="DejaVuSans-37" d="M 525 4666 
L 3525 4666 
L 3525 4397 
L 1831 0 
L 1172 0 
L 2766 4134 
L 525 4134 
L 525 4666 
z
" transform="scale(0.015625)"/>
       </defs>
       <use xlink:href="#DejaVuSans-32"/>
       <use xlink:href="#DejaVuSans-2e" x="63.623047"/>
       <use xlink:href="#DejaVuSans-37" x="95.410156"/>
      </g>
     </g>
    </g>
    <g id="xtick_2">
     <g id="line2d_2">
      <g>
       <use xlink:href="#m053b8069cc" x="109.020434" y="268.128" style="stroke: #000000; stroke-width: 0.8"/>
      </g>
     </g>
     <g id="text_2">
      <!-- 2.8 -->
      <g transform="translate(101.068871 282.726438)scale(0.1 -0.1)">
       <defs>
        <path id="DejaVuSans-38" d="M 2034 2216 
Q 1584 2216 1326 1975 
Q 1069 1734 1069 1313 
Q 1069 891 1326 650 
Q 1584 409 2034 409 
Q 2484 409 2743 651 
Q 3003 894 3003 1313 
Q 3003 1734 2745 1975 
Q 2488 2216 2034 2216 
z
M 1403 2484 
Q 997 2584 770 2862 
Q 544 3141 544 3541 
Q 544 4100 942 4425 
Q 1341 4750 2034 4750 
Q 2731 4750 3128 4425 
Q 3525 4100 3525 3541 
Q 3525 3141 3298 2862 
Q 3072 2584 2669 2484 
Q 3125 2378 3379 2068 
Q 3634 1759 3634 1313 
Q 3634 634 3220 271 
Q 2806 -91 2034 -91 
Q 1263 -91 848 271 
Q 434 634 434 1313 
Q 434 1759 690 2068 
Q 947 2378 1403 2484 
z
M 1172 3481 
Q 1172 3119 1398 2916 
Q 1625 2713 2034 2713 
Q 2441 2713 2670 2916 
Q 2900 3119 2900 3481 
Q 2900 3844 2670 4047 
Q 2441 4250 2034 4250 
Q 1625 4250 1398 4047 
Q 1172 3844 1172 3481 
z
" transform="scale(0.015625)"/>
       </defs>
       <use xlink:href="#DejaVuSans-32"/>
       <use xlink:href="#DejaVuSans-2e" x="63.623047"/>
       <use xlink:href="#DejaVuSans-38" x="95.410156"/>
      </g>
     </g>
    </g>
    <g id="xtick_3">
     <g id="line2d_3">
      <g>
       <use xlink:href="#m053b8069cc" x="148.724043" y="268.128" style="stroke: #000000; stroke-width: 0.8"/>
      </g>
     </g>
     <g id="text_3">
      <!-- 2.9 -->
      <g transform="translate(140.772481 282.726438)scale(0.1 -0.1)">
       <defs>
        <path id="DejaVuSans-39" d="M 703 97 
L 703 672 
Q 941 559 1184 500 
Q 1428 441 1663 441 
Q 2288 441 2617 861 
Q 2947 1281 2994 2138 
Q 2813 1869 2534 1725 
Q 2256 1581 1919 1581 
Q 1219 1581 811 2004 
Q 403 2428 403 3163 
Q 403 3881 828 4315 
Q 1253 4750 1959 4750 
Q 2769 4750 3195 4129 
Q 3622 3509 3622 2328 
Q 3622 1225 3098 567 
Q 2575 -91 1691 -91 
Q 1453 -91 1209 -44 
Q 966 3 703 97 
z
M 1959 2075 
Q 2384 2075 2632 2365 
Q 2881 2656 2881 3163 
Q 2881 3666 2632 3958 
Q 2384 4250 1959 4250 
Q 1534 4250 1286 3958 
Q 1038 3666 1038 3163 
Q 1038 2656 1286 2365 
Q 1534 2075 1959 2075 
z
" transform="scale(0.015625)"/>
       </defs>
       <use xlink:href="#DejaVuSans-32"/>
       <use xlink:href="#DejaVuSans-2e" x="63.623047"/>
       <use xlink:href="#DejaVuSans-39" x="95.410156"/>
      </g>
     </g>
    </g>
    <g id="xtick_4">
     <g id="line2d_4">
      <g>
       <use xlink:href="#m053b8069cc" x="188.427653" y="268.128" style="stroke: #000000; stroke-width: 0.8"/>
      </g>
     </g>
     <g id="text_4">
      <!-- 3.0 -->
      <g transform="translate(180.47609 282.726438)scale(0.1 -0.1)">
       <defs>
        <path id="DejaVuSans-33" d="M 2597 2516 
Q 3050 2419 3304 2112 
Q 3559 1806 3559 1356 
Q 3559 666 3084 287 
Q 2609 -91 1734 -91 
Q 1441 -91 1130 -33 
Q 819 25 488 141 
L 488 750 
Q 750 597 1062 519 
Q 1375 441 1716 441 
Q 2309 441 2620 675 
Q 2931 909 2931 1356 
Q 2931 1769 2642 2001 
Q 2353 2234 1838 2234 
L 1294 2234 
L 1294 2753 
L 1863 2753 
Q 2328 2753 2575 2939 
Q 2822 3125 2822 3475 
Q 2822 3834 2567 4026 
Q 2313 4219 1838 4219 
Q 1578 4219 1281 4162 
Q 984 4106 628 3988 
L 628 4550 
Q 988 4650 1302 4700 
Q 1616 4750 1894 4750 
Q 2613 4750 3031 4423 
Q 3450 4097 3450 3541 
Q 3450 3153 3228 2886 
Q 3006 2619 2597 2516 
z
" transform="scale(0.015625)"/>
        <path id="DejaVuSans-30" d="M 2034 4250 
Q 1547 4250 1301 3770 
Q 1056 3291 1056 2328 
Q 1056 1369 1301 889 
Q 1547 409 2034 409 
Q 2525 409 2770 889 
Q 3016 1369 3016 2328 
Q 3016 3291 2770 3770 
Q 2525 4250 2034 4250 
z
M 2034 4750 
Q 2819 4750 3233 4129 
Q 3647 3509 3647 2328 
Q 3647 1150 3233 529 
Q 2819 -91 2034 -91 
Q 1250 -91 836 529 
Q 422 1150 422 2328 
Q 422 3509 836 4129 
Q 1250 4750 2034 4750 
z
" transform="scale(0.015625)"/>
       </defs>
       <use xlink:href="#DejaVuSans-33"/>
       <use xlink:href="#DejaVuSans-2e" x="63.623047"/>
       <use xlink:href="#DejaVuSans-30" x="95.410156"/>
      </g>
     </g>
    </g>
    <g id="xtick_5">
     <g id="line2d_5">
      <g>
       <use xlink:href="#m053b8069cc" x="228.131263" y="268.128" style="stroke: #000000; stroke-width: 0.8"/>
      </g>
     </g>
     <g id="text_5">
      <!-- 3.1 -->
      <g transform="translate(220.1797 282.726438)scale(0.1 -0.1)">
       <defs>
        <path id="DejaVuSans-31" d="M 794 531 
L 1825 531 
L 1825 4091 
L 703 3866 
L 703 4441 
L 1819 4666 
L 2450 4666 
L 2450 531 
L 3481 531 
L 3481 0 
L 794 0 
L 794 531 
z
" transform="scale(0.015625)"/>
       </defs>
       <use xlink:href="#DejaVuSans-33"/>
       <use xlink:href="#DejaVuSans-2e" x="63.623047"/>
       <use xlink:href="#DejaVuSans-31" x="95.410156"/>
      </g>
     </g>
    </g>
    <g id="xtick_6">
     <g id="line2d_6">
      <g>
       <use xlink:href="#m053b8069cc" x="267.834872" y="268.128" style="stroke: #000000; stroke-width: 0.8"/>
      </g>
     </g>
     <g id="text_6">
      <!-- 3.2 -->
      <g transform="translate(259.88331 282.726438)scale(0.1 -0.1)">
       <use xlink:href="#DejaVuSans-33"/>
       <use xlink:href="#DejaVuSans-2e" x="63.623047"/>
       <use xlink:href="#DejaVuSans-32" x="95.410156"/>
      </g>
     </g>
    </g>
    <g id="xtick_7">
     <g id="line2d_7">
      <g>
       <use xlink:href="#m053b8069cc" x="307.538482" y="268.128" style="stroke: #000000; stroke-width: 0.8"/>
      </g>
     </g>
     <g id="text_7">
      <!-- 3.3 -->
      <g transform="translate(299.586919 282.726438)scale(0.1 -0.1)">
       <use xlink:href="#DejaVuSans-33"/>
       <use xlink:href="#DejaVuSans-2e" x="63.623047"/>
       <use xlink:href="#DejaVuSans-33" x="95.410156"/>
      </g>
     </g>
    </g>
    <g id="xtick_8">
     <g id="line2d_8">
      <g>
       <use xlink:href="#m053b8069cc" x="347.242091" y="268.128" style="stroke: #000000; stroke-width: 0.8"/>
      </g>
     </g>
     <g id="text_8">
      <!-- 3.4 -->
      <g transform="translate(339.290529 282.726438)scale(0.1 -0.1)">
       <defs>
        <path id="DejaVuSans-34" d="M 2419 4116 
L 825 1625 
L 2419 1625 
L 2419 4116 
z
M 2253 4666 
L 3047 4666 
L 3047 1625 
L 3713 1625 
L 3713 1100 
L 3047 1100 
L 3047 0 
L 2419 0 
L 2419 1100 
L 313 1100 
L 313 1709 
L 2253 4666 
z
" transform="scale(0.015625)"/>
       </defs>
       <use xlink:href="#DejaVuSans-33"/>
       <use xlink:href="#DejaVuSans-2e" x="63.623047"/>
       <use xlink:href="#DejaVuSans-34" x="95.410156"/>
      </g>
     </g>
    </g>
    <g id="text_9">
     <!-- a1 -->
     <g transform="translate(206.22571 296.404563)scale(0.1 -0.1)">
      <defs>
       <path id="DejaVuSans-61" d="M 2194 1759 
Q 1497 1759 1228 1600 
Q 959 1441 959 1056 
Q 959 750 1161 570 
Q 1363 391 1709 391 
Q 2188 391 2477 730 
Q 2766 1069 2766 1631 
L 2766 1759 
L 2194 1759 
z
M 3341 1997 
L 3341 0 
L 2766 0 
L 2766 531 
Q 2569 213 2275 61 
Q 1981 -91 1556 -91 
Q 1019 -91 701 211 
Q 384 513 384 1019 
Q 384 1609 779 1909 
Q 1175 2209 1959 2209 
L 2766 2209 
L 2766 2266 
Q 2766 2663 2505 2880 
Q 2244 3097 1772 3097 
Q 1472 3097 1187 3025 
Q 903 2953 641 2809 
L 641 3341 
Q 956 3463 1253 3523 
Q 1550 3584 1831 3584 
Q 2591 3584 2966 3190 
Q 3341 2797 3341 1997 
z
" transform="scale(0.015625)"/>
      </defs>
      <use xlink:href="#DejaVuSans-61"/>
      <use xlink:href="#DejaVuSans-31" x="61.279297"/>
     </g>
    </g>
   </g>
   <g id="matplotlib.axis_2">
    <g id="ytick_1">
     <g id="line2d_9">
      <defs>
       <path id="mddf220ab6b" d="M 0 0 
L -3.5 0 
" style="stroke: #000000; stroke-width: 0.8"/>
      </defs>
      <g>
       <use xlink:href="#mddf220ab6b" x="50.14375" y="248.303033" style="stroke: #000000; stroke-width: 0.8"/>
      </g>
     </g>
     <g id="text_10">
      <!-- 11.8 -->
      <g transform="translate(20.878125 252.102251)scale(0.1 -0.1)">
       <use xlink:href="#DejaVuSans-31"/>
       <use xlink:href="#DejaVuSans-31" x="63.623047"/>
       <use xlink:href="#DejaVuSans-2e" x="127.246094"/>
       <use xlink:href="#DejaVuSans-38" x="159.033203"/>
      </g>
     </g>
    </g>
    <g id="ytick_2">
     <g id="line2d_10">
      <g>
       <use xlink:href="#mddf220ab6b" x="50.14375" y="207.773531" style="stroke: #000000; stroke-width: 0.8"/>
      </g>
     </g>
     <g id="text_11">
      <!-- 11.9 -->
      <g transform="translate(20.878125 211.57275)scale(0.1 -0.1)">
       <use xlink:href="#DejaVuSans-31"/>
       <use xlink:href="#DejaVuSans-31" x="63.623047"/>
       <use xlink:href="#DejaVuSans-2e" x="127.246094"/>
       <use xlink:href="#DejaVuSans-39" x="159.033203"/>
      </g>
     </g>
    </g>
    <g id="ytick_3">
     <g id="line2d_11">
      <g>
       <use xlink:href="#mddf220ab6b" x="50.14375" y="167.244029" style="stroke: #000000; stroke-width: 0.8"/>
      </g>
     </g>
     <g id="text_12">
      <!-- 12.0 -->
      <g transform="translate(20.878125 171.043248)scale(0.1 -0.1)">
       <use xlink:href="#DejaVuSans-31"/>
       <use xlink:href="#DejaVuSans-32" x="63.623047"/>
       <use xlink:href="#DejaVuSans-2e" x="127.246094"/>
       <use xlink:href="#DejaVuSans-30" x="159.033203"/>
      </g>
     </g>
    </g>
    <g id="ytick_4">
     <g id="line2d_12">
      <g>
       <use xlink:href="#mddf220ab6b" x="50.14375" y="126.714527" style="stroke: #000000; stroke-width: 0.8"/>
      </g>
     </g>
     <g id="text_13">
      <!-- 12.1 -->
      <g transform="translate(20.878125 130.513746)scale(0.1 -0.1)">
       <use xlink:href="#DejaVuSans-31"/>
       <use xlink:href="#DejaVuSans-32" x="63.623047"/>
       <use xlink:href="#DejaVuSans-2e" x="127.246094"/>
       <use xlink:href="#DejaVuSans-31" x="159.033203"/>
      </g>
     </g>
    </g>
    <g id="ytick_5">
     <g id="line2d_13">
      <g>
       <use xlink:href="#mddf220ab6b" x="50.14375" y="86.185026" style="stroke: #000000; stroke-width: 0.8"/>
      </g>
     </g>
     <g id="text_14">
      <!-- 12.2 -->
      <g transform="translate(20.878125 89.984244)scale(0.1 -0.1)">
       <use xlink:href="#DejaVuSans-31"/>
       <use xlink:href="#DejaVuSans-32" x="63.623047"/>
       <use xlink:href="#DejaVuSans-2e" x="127.246094"/>
       <use xlink:href="#DejaVuSans-32" x="159.033203"/>
      </g>
     </g>
    </g>
    <g id="ytick_6">
     <g id="line2d_14">
      <g>
       <use xlink:href="#mddf220ab6b" x="50.14375" y="45.655524" style="stroke: #000000; stroke-width: 0.8"/>
      </g>
     </g>
     <g id="text_15">
      <!-- 12.3 -->
      <g transform="translate(20.878125 49.454743)scale(0.1 -0.1)">
       <use xlink:href="#DejaVuSans-31"/>
       <use xlink:href="#DejaVuSans-32" x="63.623047"/>
       <use xlink:href="#DejaVuSans-2e" x="127.246094"/>
       <use xlink:href="#DejaVuSans-33" x="159.033203"/>
      </g>
     </g>
    </g>
    <g id="text_16">
     <!-- t2 -->
     <g transform="translate(14.798438 142.805406)rotate(-90)scale(0.1 -0.1)">
      <defs>
       <path id="DejaVuSans-74" d="M 1172 4494 
L 1172 3500 
L 2356 3500 
L 2356 3053 
L 1172 3053 
L 1172 1153 
Q 1172 725 1289 603 
Q 1406 481 1766 481 
L 2356 481 
L 2356 0 
L 1766 0 
Q 1100 0 847 248 
Q 594 497 594 1153 
L 594 3053 
L 172 3053 
L 172 3500 
L 594 3500 
L 594 4494 
L 1172 4494 
z
" transform="scale(0.015625)"/>
      </defs>
      <use xlink:href="#DejaVuSans-74"/>
      <use xlink:href="#DejaVuSans-32" x="39.208984"/>
     </g>
    </g>
   </g>
   <g id="patch_3">
    <path d="M 50.14375 268.128 
L 50.14375 7.2 
" style="fill: none; stroke: #000000; stroke-width: 0.8; stroke-linejoin: miter; stroke-linecap: square"/>
   </g>
   <g id="patch_4">
    <path d="M 374.798295 268.128 
L 374.798295 7.2 
" style="fill: none; stroke: #000000; stroke-width: 0.8; stroke-linejoin: miter; stroke-linecap: square"/>
   </g>
   <g id="patch_5">
    <path d="M 50.14375 268.128 
L 374.798295 268.128 
" style="fill: none; stroke: #000000; stroke-width: 0.8; stroke-linejoin: miter; stroke-linecap: square"/>
   </g>
   <g id="patch_6">
    <path d="M 50.14375 7.2 
L 374.798295 7.2 
" style="fill: none; stroke: #000000; stroke-width: 0.8; stroke-linejoin: miter; stroke-linecap: square"/>
   </g>
  </g>
  <g id="axes_2">
   <g id="patch_7">
    <path d="M 439.729205 268.128 
L 764.38375 268.128 
L 764.38375 7.2 
L 439.729205 7.2 
z
" style="fill: #ffffff"/>
   </g>
   <g id="PathCollection_2">
    <defs>
     <path id="C1_0_dc60d095fd" d="M 0 2.738613 
C 0.726289 2.738613 1.422928 2.450055 1.936492 1.936492 
C 2.450055 1.422928 2.738613 0.726289 2.738613 -0 
C 2.738613 -0.726289 2.450055 -1.422928 1.936492 -1.936492 
C 1.422928 -2.450055 0.726289 -2.738613 0 -2.738613 
C -0.726289 -2.738613 -1.422928 -2.450055 -1.936492 -1.936492 
C -2.450055 -1.422928 -2.738613 -0.726289 -2.738613 0 
C -2.738613 0.726289 -2.450055 1.422928 -1.936492 1.936492 
C -1.422928 2.450055 -0.726289 2.738613 0 2.738613 
z
"/>
    </defs>
    <g clip-path="url(#pe8993bdf91)">
     <use xlink:href="#C1_0_dc60d095fd" x="631.570527" y="225.649398" style="fill: #440154; stroke: #440154"/>
    </g>
    <g clip-path="url(#pe8993bdf91)">
     <use xlink:href="#C1_0_dc60d095fd" x="572.542428" y="256.226643" style="fill: #34b679; stroke: #34b679"/>
    </g>
    <g clip-path="url(#pe8993bdf91)">
     <use xlink:href="#C1_0_dc60d095fd" x="513.514329" y="226.925849" style="fill: #d8e219; stroke: #d8e219"/>
    </g>
    <g clip-path="url(#pe8993bdf91)">
     <use xlink:href="#C1_0_dc60d095fd" x="454.486229" y="126.730188" style="fill: #fde725; stroke: #fde725"/>
    </g>
    <g clip-path="url(#pe8993bdf91)">
     <use xlink:href="#C1_0_dc60d095fd" x="631.570527" y="225.649398" style="fill: #440154; stroke: #440154"/>
    </g>
    <g clip-path="url(#pe8993bdf91)">
     <use xlink:href="#C1_0_dc60d095fd" x="454.486229" y="126.730188" style="fill: #fde725; stroke: #fde725"/>
    </g>
    <g clip-path="url(#pe8993bdf91)">
     <use xlink:href="#C1_0_dc60d095fd" x="509.65303" y="222.671244" style="fill: #dde318; stroke: #dde318"/>
    </g>
    <g clip-path="url(#pe8993bdf91)">
     <use xlink:href="#C1_0_dc60d095fd" x="570.611778" y="256.267636" style="fill: #3aba76; stroke: #3aba76"/>
    </g>
    <g clip-path="url(#pe8993bdf91)">
     <use xlink:href="#C1_0_dc60d095fd" x="568.453825" y="256.237268" style="fill: #40bd72; stroke: #40bd72"/>
    </g>
    <g clip-path="url(#pe8993bdf91)">
     <use xlink:href="#C1_0_dc60d095fd" x="569.351323" y="256.259698" style="fill: #3fbc73; stroke: #3fbc73"/>
    </g>
    <g clip-path="url(#pe8993bdf91)">
     <use xlink:href="#C1_0_dc60d095fd" x="569.38744" y="256.26032" style="fill: #3fbc73; stroke: #3fbc73"/>
    </g>
    <g clip-path="url(#pe8993bdf91)">
     <use xlink:href="#C1_0_dc60d095fd" x="569.351323" y="256.259698" style="fill: #3fbc73; stroke: #3fbc73"/>
    </g>
    <g clip-path="url(#pe8993bdf91)">
     <use xlink:href="#C1_0_dc60d095fd" x="454.486229" y="126.730188" style="fill: #fde725; stroke: #fde725"/>
    </g>
    <g clip-path="url(#pe8993bdf91)">
     <use xlink:href="#C1_0_dc60d095fd" x="468.285283" y="157.176992" style="fill: #fbe723; stroke: #fbe723"/>
    </g>
    <g clip-path="url(#pe8993bdf91)">
     <use xlink:href="#C1_0_dc60d095fd" x="518.818303" y="232.278095" style="fill: #d0e11c; stroke: #d0e11c"/>
    </g>
    <g clip-path="url(#pe8993bdf91)">
     <use xlink:href="#C1_0_dc60d095fd" x="492.708474" y="200.339912" style="fill: #efe51c; stroke: #efe51c"/>
    </g>
    <g clip-path="url(#pe8993bdf91)">
     <use xlink:href="#C1_0_dc60d095fd" x="503.676407" y="215.481839" style="fill: #e5e419; stroke: #e5e419"/>
    </g>
    <g clip-path="url(#pe8993bdf91)">
     <use xlink:href="#C1_0_dc60d095fd" x="501.376906" y="212.517885" style="fill: #e7e419; stroke: #e7e419"/>
    </g>
    <g clip-path="url(#pe8993bdf91)">
     <use xlink:href="#C1_0_dc60d095fd" x="501.648794" y="212.874109" style="fill: #e7e419; stroke: #e7e419"/>
    </g>
    <g clip-path="url(#pe8993bdf91)">
     <use xlink:href="#C1_0_dc60d095fd" x="501.683219" y="212.919118" style="fill: #e7e419; stroke: #e7e419"/>
    </g>
    <g clip-path="url(#pe8993bdf91)">
     <use xlink:href="#C1_0_dc60d095fd" x="631.570527" y="225.649398" style="fill: #440154; stroke: #440154"/>
    </g>
    <g clip-path="url(#pe8993bdf91)">
     <use xlink:href="#C1_0_dc60d095fd" x="690.598626" y="144.103932" style="fill: #3fbc73; stroke: #3fbc73"/>
    </g>
    <g clip-path="url(#pe8993bdf91)">
     <use xlink:href="#C1_0_dc60d095fd" x="749.626725" y="19.060364" style="fill: #eae51a; stroke: #eae51a"/>
    </g>
    <g clip-path="url(#pe8993bdf91)">
     <use xlink:href="#C1_0_dc60d095fd" x="631.570527" y="225.649398" style="fill: #440154; stroke: #440154"/>
    </g>
    <g clip-path="url(#pe8993bdf91)">
     <use xlink:href="#C1_0_dc60d095fd" x="749.626725" y="19.060364" style="fill: #eae51a; stroke: #eae51a"/>
    </g>
    <g clip-path="url(#pe8993bdf91)">
     <use xlink:href="#C1_0_dc60d095fd" x="715.55611" y="96.123369" style="fill: #a0da39; stroke: #a0da39"/>
    </g>
    <g clip-path="url(#pe8993bdf91)">
     <use xlink:href="#C1_0_dc60d095fd" x="673.071922" y="173.170089" style="fill: #1f958b; stroke: #1f958b"/>
    </g>
    <g clip-path="url(#pe8993bdf91)">
     <use xlink:href="#C1_0_dc60d095fd" x="694.091289" y="137.847638" style="fill: #4ec36b; stroke: #4ec36b"/>
    </g>
    <g clip-path="url(#pe8993bdf91)">
     <use xlink:href="#C1_0_dc60d095fd" x="690.739827" y="143.85398" style="fill: #40bd72; stroke: #40bd72"/>
    </g>
    <g clip-path="url(#pe8993bdf91)">
     <use xlink:href="#C1_0_dc60d095fd" x="690.24816" y="144.723362" style="fill: #3fbc73; stroke: #3fbc73"/>
    </g>
    <g clip-path="url(#pe8993bdf91)">
     <use xlink:href="#C1_0_dc60d095fd" x="690.2873" y="144.654246" style="fill: #3fbc73; stroke: #3fbc73"/>
    </g>
    <g clip-path="url(#pe8993bdf91)">
     <use xlink:href="#C1_0_dc60d095fd" x="690.24816" y="144.723362" style="fill: #3fbc73; stroke: #3fbc73"/>
    </g>
    <g clip-path="url(#pe8993bdf91)">
     <use xlink:href="#C1_0_dc60d095fd" x="749.626725" y="19.060364" style="fill: #eae51a; stroke: #eae51a"/>
    </g>
    <g clip-path="url(#pe8993bdf91)">
     <use xlink:href="#C1_0_dc60d095fd" x="748.525283" y="21.752811" style="fill: #eae51a; stroke: #eae51a"/>
    </g>
    <g clip-path="url(#pe8993bdf91)">
     <use xlink:href="#C1_0_dc60d095fd" x="746.764051" y="26.031165" style="fill: #e7e419; stroke: #e7e419"/>
    </g>
    <g clip-path="url(#pe8993bdf91)">
     <use xlink:href="#C1_0_dc60d095fd" x="746.833017" y="25.864175" style="fill: #e7e419; stroke: #e7e419"/>
    </g>
   </g>
   <g id="matplotlib.axis_3">
    <g id="xtick_9">
     <g id="line2d_15">
      <g>
       <use xlink:href="#m053b8069cc" x="462.82867" y="268.128" style="stroke: #000000; stroke-width: 0.8"/>
      </g>
     </g>
     <g id="text_17">
      <!-- 10.5 -->
      <g transform="translate(451.695857 282.726438)scale(0.1 -0.1)">
       <defs>
        <path id="DejaVuSans-35" d="M 691 4666 
L 3169 4666 
L 3169 4134 
L 1269 4134 
L 1269 2991 
Q 1406 3038 1543 3061 
Q 1681 3084 1819 3084 
Q 2600 3084 3056 2656 
Q 3513 2228 3513 1497 
Q 3513 744 3044 326 
Q 2575 -91 1722 -91 
Q 1428 -91 1123 -41 
Q 819 9 494 109 
L 494 744 
Q 775 591 1075 516 
Q 1375 441 1709 441 
Q 2250 441 2565 725 
Q 2881 1009 2881 1497 
Q 2881 1984 2565 2268 
Q 2250 2553 1709 2553 
Q 1456 2553 1204 2497 
Q 953 2441 691 2322 
L 691 4666 
z
" transform="scale(0.015625)"/>
       </defs>
       <use xlink:href="#DejaVuSans-31"/>
       <use xlink:href="#DejaVuSans-30" x="63.623047"/>
       <use xlink:href="#DejaVuSans-2e" x="127.246094"/>
       <use xlink:href="#DejaVuSans-35" x="159.033203"/>
      </g>
     </g>
    </g>
    <g id="xtick_10">
     <g id="line2d_16">
      <g>
       <use xlink:href="#m053b8069cc" x="526.551249" y="268.128" style="stroke: #000000; stroke-width: 0.8"/>
      </g>
     </g>
     <g id="text_18">
      <!-- 11.0 -->
      <g transform="translate(515.418437 282.726438)scale(0.1 -0.1)">
       <use xlink:href="#DejaVuSans-31"/>
       <use xlink:href="#DejaVuSans-31" x="63.623047"/>
       <use xlink:href="#DejaVuSans-2e" x="127.246094"/>
       <use xlink:href="#DejaVuSans-30" x="159.033203"/>
      </g>
     </g>
    </g>
    <g id="xtick_11">
     <g id="line2d_17">
      <g>
       <use xlink:href="#m053b8069cc" x="590.273829" y="268.128" style="stroke: #000000; stroke-width: 0.8"/>
      </g>
     </g>
     <g id="text_19">
      <!-- 11.5 -->
      <g transform="translate(579.141016 282.726438)scale(0.1 -0.1)">
       <use xlink:href="#DejaVuSans-31"/>
       <use xlink:href="#DejaVuSans-31" x="63.623047"/>
       <use xlink:href="#DejaVuSans-2e" x="127.246094"/>
       <use xlink:href="#DejaVuSans-35" x="159.033203"/>
      </g>
     </g>
    </g>
    <g id="xtick_12">
     <g id="line2d_18">
      <g>
       <use xlink:href="#m053b8069cc" x="653.996408" y="268.128" style="stroke: #000000; stroke-width: 0.8"/>
      </g>
     </g>
     <g id="text_20">
      <!-- 12.0 -->
      <g transform="translate(642.863596 282.726438)scale(0.1 -0.1)">
       <use xlink:href="#DejaVuSans-31"/>
       <use xlink:href="#DejaVuSans-32" x="63.623047"/>
       <use xlink:href="#DejaVuSans-2e" x="127.246094"/>
       <use xlink:href="#DejaVuSans-30" x="159.033203"/>
      </g>
     </g>
    </g>
    <g id="xtick_13">
     <g id="line2d_19">
      <g>
       <use xlink:href="#m053b8069cc" x="717.718988" y="268.128" style="stroke: #000000; stroke-width: 0.8"/>
      </g>
     </g>
     <g id="text_21">
      <!-- 12.5 -->
      <g transform="translate(706.586175 282.726438)scale(0.1 -0.1)">
       <use xlink:href="#DejaVuSans-31"/>
       <use xlink:href="#DejaVuSans-32" x="63.623047"/>
       <use xlink:href="#DejaVuSans-2e" x="127.246094"/>
       <use xlink:href="#DejaVuSans-35" x="159.033203"/>
      </g>
     </g>
    </g>
    <g id="text_22">
     <!-- t2 -->
     <g transform="translate(596.915071 296.404563)scale(0.1 -0.1)">
      <use xlink:href="#DejaVuSans-74"/>
      <use xlink:href="#DejaVuSans-32" x="39.208984"/>
     </g>
    </g>
   </g>
   <g id="matplotlib.axis_4">
    <g id="ytick_7">
     <g id="line2d_20">
      <g>
       <use xlink:href="#mddf220ab6b" x="439.729205" y="236.10314" style="stroke: #000000; stroke-width: 0.8"/>
      </g>
     </g>
     <g id="text_23">
      <!-- 2.98 -->
      <g transform="translate(410.46358 239.902359)scale(0.1 -0.1)">
       <use xlink:href="#DejaVuSans-32"/>
       <use xlink:href="#DejaVuSans-2e" x="63.623047"/>
       <use xlink:href="#DejaVuSans-39" x="95.410156"/>
       <use xlink:href="#DejaVuSans-38" x="159.033203"/>
      </g>
     </g>
    </g>
    <g id="ytick_8">
     <g id="line2d_21">
      <g>
       <use xlink:href="#mddf220ab6b" x="439.729205" y="202.496319" style="stroke: #000000; stroke-width: 0.8"/>
      </g>
     </g>
     <g id="text_24">
      <!-- 3.00 -->
      <g transform="translate(410.46358 206.295538)scale(0.1 -0.1)">
       <use xlink:href="#DejaVuSans-33"/>
       <use xlink:href="#DejaVuSans-2e" x="63.623047"/>
       <use xlink:href="#DejaVuSans-30" x="95.410156"/>
       <use xlink:href="#DejaVuSans-30" x="159.033203"/>
      </g>
     </g>
    </g>
    <g id="ytick_9">
     <g id="line2d_22">
      <g>
       <use xlink:href="#mddf220ab6b" x="439.729205" y="168.889497" style="stroke: #000000; stroke-width: 0.8"/>
      </g>
     </g>
     <g id="text_25">
      <!-- 3.02 -->
      <g transform="translate(410.46358 172.688716)scale(0.1 -0.1)">
       <use xlink:href="#DejaVuSans-33"/>
       <use xlink:href="#DejaVuSans-2e" x="63.623047"/>
       <use xlink:href="#DejaVuSans-30" x="95.410156"/>
       <use xlink:href="#DejaVuSans-32" x="159.033203"/>
      </g>
     </g>
    </g>
    <g id="ytick_10">
     <g id="line2d_23">
      <g>
       <use xlink:href="#mddf220ab6b" x="439.729205" y="135.282676" style="stroke: #000000; stroke-width: 0.8"/>
      </g>
     </g>
     <g id="text_26">
      <!-- 3.04 -->
      <g transform="translate(410.46358 139.081895)scale(0.1 -0.1)">
       <use xlink:href="#DejaVuSans-33"/>
       <use xlink:href="#DejaVuSans-2e" x="63.623047"/>
       <use xlink:href="#DejaVuSans-30" x="95.410156"/>
       <use xlink:href="#DejaVuSans-34" x="159.033203"/>
      </g>
     </g>
    </g>
    <g id="ytick_11">
     <g id="line2d_24">
      <g>
       <use xlink:href="#mddf220ab6b" x="439.729205" y="101.675855" style="stroke: #000000; stroke-width: 0.8"/>
      </g>
     </g>
     <g id="text_27">
      <!-- 3.06 -->
      <g transform="translate(410.46358 105.475073)scale(0.1 -0.1)">
       <defs>
        <path id="DejaVuSans-36" d="M 2113 2584 
Q 1688 2584 1439 2293 
Q 1191 2003 1191 1497 
Q 1191 994 1439 701 
Q 1688 409 2113 409 
Q 2538 409 2786 701 
Q 3034 994 3034 1497 
Q 3034 2003 2786 2293 
Q 2538 2584 2113 2584 
z
M 3366 4563 
L 3366 3988 
Q 3128 4100 2886 4159 
Q 2644 4219 2406 4219 
Q 1781 4219 1451 3797 
Q 1122 3375 1075 2522 
Q 1259 2794 1537 2939 
Q 1816 3084 2150 3084 
Q 2853 3084 3261 2657 
Q 3669 2231 3669 1497 
Q 3669 778 3244 343 
Q 2819 -91 2113 -91 
Q 1303 -91 875 529 
Q 447 1150 447 2328 
Q 447 3434 972 4092 
Q 1497 4750 2381 4750 
Q 2619 4750 2861 4703 
Q 3103 4656 3366 4563 
z
" transform="scale(0.015625)"/>
       </defs>
       <use xlink:href="#DejaVuSans-33"/>
       <use xlink:href="#DejaVuSans-2e" x="63.623047"/>
       <use xlink:href="#DejaVuSans-30" x="95.410156"/>
       <use xlink:href="#DejaVuSans-36" x="159.033203"/>
      </g>
     </g>
    </g>
    <g id="ytick_12">
     <g id="line2d_25">
      <g>
       <use xlink:href="#mddf220ab6b" x="439.729205" y="68.069033" style="stroke: #000000; stroke-width: 0.8"/>
      </g>
     </g>
     <g id="text_28">
      <!-- 3.08 -->
      <g transform="translate(410.46358 71.868252)scale(0.1 -0.1)">
       <use xlink:href="#DejaVuSans-33"/>
       <use xlink:href="#DejaVuSans-2e" x="63.623047"/>
       <use xlink:href="#DejaVuSans-30" x="95.410156"/>
       <use xlink:href="#DejaVuSans-38" x="159.033203"/>
      </g>
     </g>
    </g>
    <g id="ytick_13">
     <g id="line2d_26">
      <g>
       <use xlink:href="#mddf220ab6b" x="439.729205" y="34.462212" style="stroke: #000000; stroke-width: 0.8"/>
      </g>
     </g>
     <g id="text_29">
      <!-- 3.10 -->
      <g transform="translate(410.46358 38.261431)scale(0.1 -0.1)">
       <use xlink:href="#DejaVuSans-33"/>
       <use xlink:href="#DejaVuSans-2e" x="63.623047"/>
       <use xlink:href="#DejaVuSans-31" x="95.410156"/>
       <use xlink:href="#DejaVuSans-30" x="159.033203"/>
      </g>
     </g>
    </g>
    <g id="text_30">
     <!-- a1 -->
     <g transform="translate(404.383892 143.909313)rotate(-90)scale(0.1 -0.1)">
      <use xlink:href="#DejaVuSans-61"/>
      <use xlink:href="#DejaVuSans-31" x="61.279297"/>
     </g>
    </g>
   </g>
   <g id="patch_8">
    <path d="M 439.729205 268.128 
L 439.729205 7.2 
" style="fill: none; stroke: #000000; stroke-width: 0.8; stroke-linejoin: miter; stroke-linecap: square"/>
   </g>
   <g id="patch_9">
    <path d="M 764.38375 268.128 
L 764.38375 7.2 
" style="fill: none; stroke: #000000; stroke-width: 0.8; stroke-linejoin: miter; stroke-linecap: square"/>
   </g>
   <g id="patch_10">
    <path d="M 439.729205 268.128 
L 764.38375 268.128 
" style="fill: none; stroke: #000000; stroke-width: 0.8; stroke-linejoin: miter; stroke-linecap: square"/>
   </g>
   <g id="patch_11">
    <path d="M 439.729205 7.2 
L 764.38375 7.2 
" style="fill: none; stroke: #000000; stroke-width: 0.8; stroke-linejoin: miter; stroke-linecap: square"/>
   </g>
  </g>
 </g>
 <defs>
  <clipPath id="pa8d171e1b6">
   <rect x="50.14375" y="7.2" width="324.654545" height="260.928"/>
  </clipPath>
  <clipPath id="pe8993bdf91">
   <rect x="439.729205" y="7.2" width="324.654545" height="260.928"/>
  </clipPath>
 </defs>
</svg>
