<?xml version="1.0" encoding="utf-8" standalone="no"?>
<!DOCTYPE svg PUBLIC "-//W3C//DTD SVG 1.1//EN"
  "http://www.w3.org/Graphics/SVG/1.1/DTD/svg11.dtd">
<!-- Created with matplotlib (https://matplotlib.org/) -->
<svg height="309.483469pt" version="1.1" viewBox="0 0 749.294468 309.483469" width="749.294468pt" xmlns="http://www.w3.org/2000/svg" xmlns:xlink="http://www.w3.org/1999/xlink">
 <defs>
  <style type="text/css">
*{stroke-linecap:butt;stroke-linejoin:round;}
  </style>
 </defs>
 <g id="figure_1">
  <g id="patch_1">
   <path d="M 0 309.483469
L 749.294468 309.483469
L 749.294468 0
L 0 0
z
" style="fill:none;"/>
  </g>
  <g id="axes_1">
   <g id="patch_2">
    <path d="M 40.603125 271.927219
L 300.326761 271.927219
L 300.326761 10.999219
L 40.603125 10.999219
z
" style="fill:#ffffff;"/>
   </g>
   <g id="PathCollection_1">
    <path clip-path="url(#p77281b5026)" d="M 165.986949 153.004793
L 174.942937 150.859893
L 179.53987 145.961977
L 182.480841 136.96446
L 174.942937 130.12581
L 165.986949 132.492179
L 161.44547 136.96446
L 159.843084 145.961977
z
" style="fill:#471365;"/>
   </g>
   <g id="PathCollection_2">
    <path clip-path="url(#p77281b5026)" d="M 165.986949 159.180026
L 174.942937 157.409993
L 178.117846 154.959495
L 183.898924 148.828188
L 185.83409 145.961977
L 188.578196 136.96446
L 185.735911 127.966943
L 183.898924 126.521251
L 174.942937 124.401765
L 165.986949 126.359732
L 163.36343 127.966943
L 157.030962 134.202276
L 155.289247 136.96446
L 154.128797 145.961977
L 157.030962 153.583382
L 158.194063 154.959495
z
M 159.843084 145.961977
L 161.44547 136.96446
L 165.986949 132.492179
L 174.942937 130.12581
L 182.480841 136.96446
L 179.53987 145.961977
L 174.942937 150.859893
L 165.986949 153.004793
z
" style="fill:#463480;"/>
   </g>
   <g id="PathCollection_3">
    <path clip-path="url(#p77281b5026)" d="M 165.986949 164.463254
L 168.590285 163.957012
L 174.942937 162.60402
L 183.898924 155.741331
L 184.592922 154.959495
L 190.652854 145.961977
L 192.854912 139.88281
L 193.902536 136.96446
L 193.110118 127.966943
L 192.854912 127.586267
L 183.898924 120.660434
L 174.942937 119.680792
L 165.986949 121.922618
L 157.030962 127.357802
L 156.389603 127.966943
L 150.792244 136.96446
L 149.680069 145.961977
L 152.748559 154.959495
L 157.030962 160.270224
L 164.657616 163.957012
z
M 158.194063 154.959495
L 157.030962 153.583382
L 154.128797 145.961977
L 155.289247 136.96446
L 157.030962 134.202276
L 163.36343 127.966943
L 165.986949 126.359732
L 174.942937 124.401765
L 183.898924 126.521251
L 185.735911 127.966943
L 188.578196 136.96446
L 185.83409 145.961977
L 183.898924 148.828188
L 178.117846 154.959495
L 174.942937 157.409993
L 165.986949 159.180026
z
" style="fill:#3b528b;"/>
   </g>
   <g id="PathCollection_4">
    <path clip-path="url(#p77281b5026)" d="M 157.030962 165.942053
L 165.986949 169.205586
L 174.942937 167.599478
L 180.369672 163.957012
L 183.898924 161.288955
L 189.517272 154.959495
L 192.854912 149.964141
L 195.347653 145.961977
L 198.678037 136.96446
L 198.902375 127.966943
L 192.877329 118.969426
L 192.854912 118.954189
L 183.898924 115.740159
L 174.942937 115.507206
L 165.986949 117.587887
L 163.17566 118.969426
L 157.030962 122.511774
L 151.287268 127.966943
L 148.074975 133.491582
L 146.440169 136.96446
L 145.562833 145.961977
L 147.919058 154.959495
L 148.074975 155.236228
L 154.805896 163.957012
z
M 164.657616 163.957012
L 157.030962 160.270224
L 152.748559 154.959495
L 149.680069 145.961977
L 150.792244 136.96446
L 156.389603 127.966943
L 157.030962 127.357802
L 165.986949 121.922618
L 174.942937 119.680792
L 183.898924 120.660434
L 192.854912 127.586267
L 193.110118 127.966943
L 193.902536 136.96446
L 192.854912 139.88281
L 190.652854 145.961977
L 184.592922 154.959495
L 183.898924 155.741331
L 174.942937 162.60402
L 168.590285 163.957012
L 165.986949 164.463254
z
" style="fill:#2f6c8e;"/>
   </g>
   <g id="PathCollection_5">
    <path clip-path="url(#p77281b5026)" d="M 165.986949 174.049031
L 172.310393 172.954529
L 174.942937 172.524992
L 183.898924 166.917547
L 186.864978 163.957012
L 192.854912 157.07495
L 194.478223 154.959495
L 199.938132 145.961977
L 201.810899 141.080341
L 203.597824 136.96446
L 204.690209 127.966943
L 201.810899 120.021381
L 201.258463 118.969426
L 192.854912 113.257555
L 183.898924 111.201307
L 174.942937 111.430735
L 165.986949 113.456912
L 157.030962 117.693871
L 155.256596 118.969426
L 148.074975 125.682974
L 146.254864 127.966943
L 142.309368 136.96446
L 141.632707 145.961977
L 143.728036 154.959495
L 148.074975 162.674801
L 149.064617 163.957012
L 157.030962 171.064001
L 162.744446 172.954529
z
M 154.805896 163.957012
L 148.074975 155.236228
L 147.919058 154.959495
L 145.562833 145.961977
L 146.440169 136.96446
L 148.074975 133.491582
L 151.287268 127.966943
L 157.030962 122.511774
L 163.17566 118.969426
L 165.986949 117.587887
L 174.942937 115.507206
L 183.898924 115.740159
L 192.854912 118.954189
L 192.877329 118.969426
L 198.902375 127.966943
L 198.678037 136.96446
L 195.347653 145.961977
L 192.854912 149.964141
L 189.517272 154.959495
L 183.898924 161.288955
L 180.369672 163.957012
L 174.942937 167.599478
L 165.986949 169.205586
L 157.030962 165.942053
z
" style="fill:#25848e;"/>
   </g>
   <g id="PathCollection_6">
    <path clip-path="url(#p77281b5026)" d="M 157.030962 176.455621
L 165.986949 179.274064
L 174.942937 178.114569
L 183.359961 172.954529
L 183.898924 172.621161
L 192.579223 163.957012
L 192.854912 163.640263
L 199.516164 154.959495
L 201.810899 151.047135
L 205.001598 145.961977
L 208.792794 136.96446
L 210.473583 127.966943
L 208.886385 118.969426
L 201.810899 111.412064
L 199.159366 109.971908
L 192.854912 107.6296
L 183.898924 106.451826
L 174.942937 106.983247
L 165.986949 109.1931
L 164.202839 109.971908
L 157.030962 112.95239
L 148.660935 118.969426
L 148.074975 119.517196
L 141.341314 127.966943
L 139.118987 133.9519
L 138.004921 136.96446
L 137.452897 145.961977
L 139.118987 153.009126
L 139.537014 154.959495
L 143.962101 163.957012
L 148.074975 169.167918
L 152.445825 172.954529
z
M 162.744446 172.954529
L 157.030962 171.064001
L 149.064617 163.957012
L 148.074975 162.674801
L 143.728036 154.959495
L 141.632707 145.961977
L 142.309368 136.96446
L 146.254864 127.966943
L 148.074975 125.682974
L 155.256596 118.969426
L 157.030962 117.693871
L 165.986949 113.456912
L 174.942937 111.430735
L 183.898924 111.201307
L 192.854912 113.257555
L 201.258463 118.969426
L 201.810899 120.021381
L 204.690209 127.966943
L 203.597824 136.96446
L 201.810899 141.080341
L 199.938132 145.961977
L 194.478223 154.959495
L 192.854912 157.07495
L 186.864978 163.957012
L 183.898924 166.917547
L 174.942937 172.524992
L 172.310393 172.954529
L 165.986949 174.049031
z
" style="fill:#1e9c89;"/>
   </g>
   <g id="PathCollection_7">
    <path clip-path="url(#p77281b5026)" d="M 157.030962 182.019933
L 165.986949 185.200363
L 174.942937 184.31924
L 179.184756 181.952046
L 183.898924 179.478802
L 190.85059 172.954529
L 192.854912 170.957708
L 198.740416 163.957012
L 201.810899 159.66558
L 205.259537 154.959495
L 210.391 145.961977
L 210.766887 145.052167
L 214.852941 136.96446
L 217.205261 127.966943
L 216.906958 118.969426
L 211.574113 109.971908
L 210.766887 109.300506
L 201.810899 104.224928
L 192.854912 102.095238
L 183.898924 101.624101
L 174.942937 102.328989
L 165.986949 104.212642
L 157.030962 107.762935
L 153.381697 109.971908
L 148.074975 113.320382
L 141.991431 118.969426
L 139.118987 122.927672
L 135.875895 127.966943
L 133.111378 136.96446
L 132.829965 145.961977
L 134.644817 154.959495
L 138.964662 163.957012
L 139.118987 164.186157
L 145.472388 172.954529
L 148.074975 175.711214
L 156.937226 181.952046
z
M 152.445825 172.954529
L 148.074975 169.167918
L 143.962101 163.957012
L 139.537014 154.959495
L 139.118987 153.009126
L 137.452897 145.961977
L 138.004921 136.96446
L 139.118987 133.9519
L 141.341314 127.966943
L 148.074975 119.517196
L 148.660935 118.969426
L 157.030962 112.95239
L 164.202839 109.971908
L 165.986949 109.1931
L 174.942937 106.983247
L 183.898924 106.451826
L 192.854912 107.6296
L 199.159366 109.971908
L 201.810899 111.412064
L 208.886385 118.969426
L 210.473583 127.966943
L 208.792794 136.96446
L 205.001598 145.961977
L 201.810899 151.047135
L 199.516164 154.959495
L 192.854912 163.640263
L 192.579223 163.957012
L 183.898924 172.621161
L 183.359961 172.954529
L 174.942937 178.114569
L 165.986949 179.274064
L 157.030962 176.455621
z
" style="fill:#2fb47c;"/>
   </g>
   <g id="PathCollection_8">
    <path clip-path="url(#p77281b5026)" d="M 165.986949 192.254187
L 174.942937 192.006438
L 177.124081 190.949564
L 183.898924 188.010315
L 190.620281 181.952046
L 192.854912 179.910643
L 198.91404 172.954529
L 201.810899 169.27526
L 205.96875 163.957012
L 210.766887 156.609144
L 211.97887 154.959495
L 217.619489 145.961977
L 219.722874 141.261738
L 222.185082 136.96446
L 225.372113 127.966943
L 226.273172 118.969426
L 223.718542 109.971908
L 219.722874 105.445574
L 213.673646 100.974391
L 210.766887 99.490409
L 201.810899 96.609602
L 192.854912 95.397257
L 183.898924 95.329201
L 174.942937 96.261028
L 165.986949 98.371331
L 159.608832 100.974391
L 157.030962 101.81529
L 148.074975 106.303488
L 143.27031 109.971908
L 139.118987 113.668692
L 134.427917 118.969426
L 130.163 127.394925
L 129.857498 127.966943
L 127.299794 136.96446
L 127.241642 145.961977
L 129.411593 154.959495
L 130.163 156.570528
L 132.895646 163.957012
L 138.891149 172.954529
L 139.118987 173.234455
L 147.142318 181.952046
L 148.074975 182.850777
L 157.030962 189.132777
L 162.856965 190.949564
z
M 156.937226 181.952046
L 148.074975 175.711214
L 145.472388 172.954529
L 139.118987 164.186157
L 138.964662 163.957012
L 134.644817 154.959495
L 132.829965 145.961977
L 133.111378 136.96446
L 135.875895 127.966943
L 139.118987 122.927672
L 141.991431 118.969426
L 148.074975 113.320382
L 153.381697 109.971908
L 157.030962 107.762935
L 165.986949 104.212642
L 174.942937 102.328989
L 183.898924 101.624101
L 192.854912 102.095238
L 201.810899 104.224928
L 210.766887 109.300506
L 211.574113 109.971908
L 216.906958 118.969426
L 217.205261 127.966943
L 214.852941 136.96446
L 210.766887 145.052167
L 210.391 145.961977
L 205.259537 154.959495
L 201.810899 159.66558
L 198.740416 163.957012
L 192.854912 170.957708
L 190.85059 172.954529
L 183.898924 179.478802
L 179.184756 181.952046
L 174.942937 184.31924
L 165.986949 185.200363
L 157.030962 182.019933
z
" style="fill:#5ec962;"/>
   </g>
   <g id="PathCollection_9">
    <path clip-path="url(#p77281b5026)" d="M 165.986949 202.803593
L 174.942937 203.887056
L 183.898924 200.727114
L 184.88173 199.947081
L 192.854912 193.678456
L 195.232865 190.949564
L 201.810899 182.870364
L 202.527235 181.952046
L 209.428031 172.954529
L 210.766887 171.02286
L 216.191707 163.957012
L 219.722874 158.370889
L 222.297096 154.959495
L 227.849139 145.961977
L 228.678862 144.254645
L 233.325813 136.96446
L 236.985146 127.966943
L 237.634849 124.938132
L 239.574851 118.969426
L 239.454869 109.971908
L 237.634849 105.943999
L 235.226525 100.974391
L 228.678862 95.317754
L 222.241443 91.976874
L 219.722874 90.853692
L 210.766887 88.117371
L 201.810899 86.75931
L 192.854912 86.342716
L 183.898924 86.694657
L 174.942937 87.848774
L 165.986949 90.0761
L 161.145567 91.976874
L 157.030962 93.076695
L 148.074975 96.781602
L 141.790363 100.974391
L 139.118987 102.681159
L 131.151957 109.971908
L 130.163 111.180742
L 124.316446 118.969426
L 121.207012 127.823129
L 121.142957 127.966943
L 119.199226 136.96446
L 119.580145 145.961977
L 121.207012 151.679287
L 121.760152 154.959495
L 124.754325 163.957012
L 130.163 172.441515
L 130.443789 172.954529
L 136.947812 181.952046
L 139.118987 184.329765
L 146.173044 190.949564
L 148.074975 192.701227
L 157.030962 198.760734
L 160.363371 199.947081
z
M 162.856965 190.949564
L 157.030962 189.132777
L 148.074975 182.850777
L 147.142318 181.952046
L 139.118987 173.234455
L 138.891149 172.954529
L 132.895646 163.957012
L 130.163 156.570528
L 129.411593 154.959495
L 127.241642 145.961977
L 127.299794 136.96446
L 129.857498 127.966943
L 130.163 127.394925
L 134.427917 118.969426
L 139.118987 113.668692
L 143.27031 109.971908
L 148.074975 106.303488
L 157.030962 101.81529
L 159.608832 100.974391
L 165.986949 98.371331
L 174.942937 96.261028
L 183.898924 95.329201
L 192.854912 95.397257
L 201.810899 96.609602
L 210.766887 99.490409
L 213.673646 100.974391
L 219.722874 105.445574
L 223.718542 109.971908
L 226.273172 118.969426
L 225.372113 127.966943
L 222.185082 136.96446
L 219.722874 141.261738
L 217.619489 145.961977
L 211.97887 154.959495
L 210.766887 156.609144
L 205.96875 163.957012
L 201.810899 169.27526
L 198.91404 172.954529
L 192.854912 179.910643
L 190.620281 181.952046
L 183.898924 188.010315
L 177.124081 190.949564
L 174.942937 192.006438
L 165.986949 192.254187
z
" style="fill:#9bd93c;"/>
   </g>
   <g id="PathCollection_10">
    <path clip-path="url(#p77281b5026)" d="M 49.559112 271.927219
L 58.5151 271.927219
L 67.471087 271.927219
L 76.427075 271.927219
L 85.383062 271.927219
L 94.33905 271.927219
L 103.295037 271.927219
L 112.251025 271.927219
L 121.207012 271.927219
L 130.163 271.927219
L 139.118987 271.927219
L 148.074975 271.927219
L 157.030962 271.927219
L 165.986949 271.927219
L 174.942937 271.927219
L 183.898924 271.927219
L 192.854912 271.927219
L 201.810899 271.927219
L 210.766887 271.927219
L 219.722874 271.927219
L 228.678862 271.927219
L 237.634849 271.927219
L 246.590837 271.927219
L 255.546824 271.927219
L 264.502812 271.927219
L 273.458799 271.927219
L 282.414786 271.927219
L 291.370774 271.927219
L 300.326761 271.927219
L 300.326761 262.929702
L 300.326761 253.932184
L 300.326761 244.934667
L 300.326761 235.93715
L 300.326761 226.939633
L 300.326761 217.942115
L 300.326761 208.944598
L 300.326761 199.947081
L 300.326761 190.949564
L 300.326761 181.952046
L 300.326761 172.954529
L 300.326761 163.957012
L 300.326761 154.959495
L 300.326761 145.961977
L 300.326761 136.96446
L 300.326761 127.966943
L 300.326761 118.969426
L 300.326761 109.971908
L 300.326761 100.974391
L 300.326761 91.976874
L 300.326761 82.979357
L 300.326761 73.981839
L 300.326761 64.984322
L 300.326761 55.986805
L 300.326761 46.989288
L 300.326761 37.99177
L 300.326761 28.994253
L 300.326761 19.996736
L 300.326761 10.999219
L 291.370774 10.999219
L 282.414786 10.999219
L 273.458799 10.999219
L 264.502812 10.999219
L 255.546824 10.999219
L 246.590837 10.999219
L 237.634849 10.999219
L 228.678862 10.999219
L 219.722874 10.999219
L 210.766887 10.999219
L 201.810899 10.999219
L 192.854912 10.999219
L 183.898924 10.999219
L 174.942937 10.999219
L 165.986949 10.999219
L 157.030962 10.999219
L 148.074975 10.999219
L 139.118987 10.999219
L 130.163 10.999219
L 121.207012 10.999219
L 112.251025 10.999219
L 103.295037 10.999219
L 94.33905 10.999219
L 85.383062 10.999219
L 76.427075 10.999219
L 67.471087 10.999219
L 58.5151 10.999219
L 49.559112 10.999219
L 40.603125 10.999219
L 40.603125 19.996736
L 40.603125 28.994253
L 40.603125 37.99177
L 40.603125 46.989288
L 40.603125 55.986805
L 40.603125 64.984322
L 40.603125 73.981839
L 40.603125 82.979357
L 40.603125 91.976874
L 40.603125 100.974391
L 40.603125 109.971908
L 40.603125 118.969426
L 40.603125 127.966943
L 40.603125 136.96446
L 40.603125 145.961977
L 40.603125 154.959495
L 40.603125 163.957012
L 40.603125 172.954529
L 40.603125 181.952046
L 40.603125 190.949564
L 40.603125 199.947081
L 40.603125 208.944598
L 40.603125 217.942115
L 40.603125 226.939633
L 40.603125 235.93715
L 40.603125 244.934667
L 40.603125 253.932184
L 40.603125 262.929702
L 40.603125 271.927219
z
M 160.363371 199.947081
L 157.030962 198.760734
L 148.074975 192.701227
L 146.173044 190.949564
L 139.118987 184.329765
L 136.947812 181.952046
L 130.443789 172.954529
L 130.163 172.441515
L 124.754325 163.957012
L 121.760152 154.959495
L 121.207012 151.679287
L 119.580145 145.961977
L 119.199226 136.96446
L 121.142957 127.966943
L 121.207012 127.823129
L 124.316446 118.969426
L 130.163 111.180742
L 131.151957 109.971908
L 139.118987 102.681159
L 141.790363 100.974391
L 148.074975 96.781602
L 157.030962 93.076695
L 161.145567 91.976874
L 165.986949 90.0761
L 174.942937 87.848774
L 183.898924 86.694657
L 192.854912 86.342716
L 201.810899 86.75931
L 210.766887 88.117371
L 219.722874 90.853692
L 222.241443 91.976874
L 228.678862 95.317754
L 235.226525 100.974391
L 237.634849 105.943999
L 239.454869 109.971908
L 239.574851 118.969426
L 237.634849 124.938132
L 236.985146 127.966943
L 233.325813 136.96446
L 228.678862 144.254645
L 227.849139 145.961977
L 222.297096 154.959495
L 219.722874 158.370889
L 216.191707 163.957012
L 210.766887 171.02286
L 209.428031 172.954529
L 202.527235 181.952046
L 201.810899 182.870364
L 195.232865 190.949564
L 192.854912 193.678456
L 184.88173 199.947081
L 183.898924 200.727114
L 174.942937 203.887056
L 165.986949 202.803593
z
" style="fill:#dfe318;"/>
   </g>
   <g id="matplotlib.axis_1">
    <g id="xtick_1">
     <g id="line2d_1">
      <defs>
       <path d="M 0 0
L 0 3.5
" id="m01b6581417" style="stroke:#000000;stroke-width:0.8;"/>
      </defs>
      <g>
       <use style="stroke:#000000;stroke-width:0.8;" x="68.055836" xlink:href="#m01b6581417" y="271.927219"/>
      </g>
     </g>
     <g id="text_1">
      <!-- 2.4 -->
      <defs>
       <path d="M 19.1875 8.296875
L 53.609375 8.296875
L 53.609375 0
L 7.328125 0
L 7.328125 8.296875
Q 12.9375 14.109375 22.625 23.890625
Q 32.328125 33.6875 34.8125 36.53125
Q 39.546875 41.84375 41.421875 45.53125
Q 43.3125 49.21875 43.3125 52.78125
Q 43.3125 58.59375 39.234375 62.25
Q 35.15625 65.921875 28.609375 65.921875
Q 23.96875 65.921875 18.8125 64.3125
Q 13.671875 62.703125 7.8125 59.421875
L 7.8125 69.390625
Q 13.765625 71.78125 18.9375 73
Q 24.125 74.21875 28.421875 74.21875
Q 39.75 74.21875 46.484375 68.546875
Q 53.21875 62.890625 53.21875 53.421875
Q 53.21875 48.921875 51.53125 44.890625
Q 49.859375 40.875 45.40625 35.40625
Q 44.1875 33.984375 37.640625 27.21875
Q 31.109375 20.453125 19.1875 8.296875
z
" id="DejaVuSans-50"/>
       <path d="M 10.6875 12.40625
L 21 12.40625
L 21 0
L 10.6875 0
z
" id="DejaVuSans-46"/>
       <path d="M 37.796875 64.3125
L 12.890625 25.390625
L 37.796875 25.390625
z
M 35.203125 72.90625
L 47.609375 72.90625
L 47.609375 25.390625
L 58.015625 25.390625
L 58.015625 17.1875
L 47.609375 17.1875
L 47.609375 0
L 37.796875 0
L 37.796875 17.1875
L 4.890625 17.1875
L 4.890625 26.703125
z
" id="DejaVuSans-52"/>
      </defs>
      <g transform="translate(60.104274 286.525656)scale(0.1 -0.1)">
       <use xlink:href="#DejaVuSans-50"/>
       <use x="63.623047" xlink:href="#DejaVuSans-46"/>
       <use x="95.410156" xlink:href="#DejaVuSans-52"/>
      </g>
     </g>
    </g>
    <g id="xtick_2">
     <g id="line2d_2">
      <g>
       <use style="stroke:#000000;stroke-width:0.8;" x="102.994547" xlink:href="#m01b6581417" y="271.927219"/>
      </g>
     </g>
     <g id="text_2">
      <!-- 2.6 -->
      <defs>
       <path d="M 33.015625 40.375
Q 26.375 40.375 22.484375 35.828125
Q 18.609375 31.296875 18.609375 23.390625
Q 18.609375 15.53125 22.484375 10.953125
Q 26.375 6.390625 33.015625 6.390625
Q 39.65625 6.390625 43.53125 10.953125
Q 47.40625 15.53125 47.40625 23.390625
Q 47.40625 31.296875 43.53125 35.828125
Q 39.65625 40.375 33.015625 40.375
z
M 52.59375 71.296875
L 52.59375 62.3125
Q 48.875 64.0625 45.09375 64.984375
Q 41.3125 65.921875 37.59375 65.921875
Q 27.828125 65.921875 22.671875 59.328125
Q 17.53125 52.734375 16.796875 39.40625
Q 19.671875 43.65625 24.015625 45.921875
Q 28.375 48.1875 33.59375 48.1875
Q 44.578125 48.1875 50.953125 41.515625
Q 57.328125 34.859375 57.328125 23.390625
Q 57.328125 12.15625 50.6875 5.359375
Q 44.046875 -1.421875 33.015625 -1.421875
Q 20.359375 -1.421875 13.671875 8.265625
Q 6.984375 17.96875 6.984375 36.375
Q 6.984375 53.65625 15.1875 63.9375
Q 23.390625 74.21875 37.203125 74.21875
Q 40.921875 74.21875 44.703125 73.484375
Q 48.484375 72.75 52.59375 71.296875
z
" id="DejaVuSans-54"/>
      </defs>
      <g transform="translate(95.042984 286.525656)scale(0.1 -0.1)">
       <use xlink:href="#DejaVuSans-50"/>
       <use x="63.623047" xlink:href="#DejaVuSans-46"/>
       <use x="95.410156" xlink:href="#DejaVuSans-54"/>
      </g>
     </g>
    </g>
    <g id="xtick_3">
     <g id="line2d_3">
      <g>
       <use style="stroke:#000000;stroke-width:0.8;" x="137.933257" xlink:href="#m01b6581417" y="271.927219"/>
      </g>
     </g>
     <g id="text_3">
      <!-- 2.8 -->
      <defs>
       <path d="M 31.78125 34.625
Q 24.75 34.625 20.71875 30.859375
Q 16.703125 27.09375 16.703125 20.515625
Q 16.703125 13.921875 20.71875 10.15625
Q 24.75 6.390625 31.78125 6.390625
Q 38.8125 6.390625 42.859375 10.171875
Q 46.921875 13.96875 46.921875 20.515625
Q 46.921875 27.09375 42.890625 30.859375
Q 38.875 34.625 31.78125 34.625
z
M 21.921875 38.8125
Q 15.578125 40.375 12.03125 44.71875
Q 8.5 49.078125 8.5 55.328125
Q 8.5 64.0625 14.71875 69.140625
Q 20.953125 74.21875 31.78125 74.21875
Q 42.671875 74.21875 48.875 69.140625
Q 55.078125 64.0625 55.078125 55.328125
Q 55.078125 49.078125 51.53125 44.71875
Q 48 40.375 41.703125 38.8125
Q 48.828125 37.15625 52.796875 32.3125
Q 56.78125 27.484375 56.78125 20.515625
Q 56.78125 9.90625 50.3125 4.234375
Q 43.84375 -1.421875 31.78125 -1.421875
Q 19.734375 -1.421875 13.25 4.234375
Q 6.78125 9.90625 6.78125 20.515625
Q 6.78125 27.484375 10.78125 32.3125
Q 14.796875 37.15625 21.921875 38.8125
z
M 18.3125 54.390625
Q 18.3125 48.734375 21.84375 45.5625
Q 25.390625 42.390625 31.78125 42.390625
Q 38.140625 42.390625 41.71875 45.5625
Q 45.3125 48.734375 45.3125 54.390625
Q 45.3125 60.0625 41.71875 63.234375
Q 38.140625 66.40625 31.78125 66.40625
Q 25.390625 66.40625 21.84375 63.234375
Q 18.3125 60.0625 18.3125 54.390625
z
" id="DejaVuSans-56"/>
      </defs>
      <g transform="translate(129.981695 286.525656)scale(0.1 -0.1)">
       <use xlink:href="#DejaVuSans-50"/>
       <use x="63.623047" xlink:href="#DejaVuSans-46"/>
       <use x="95.410156" xlink:href="#DejaVuSans-56"/>
      </g>
     </g>
    </g>
    <g id="xtick_4">
     <g id="line2d_4">
      <g>
       <use style="stroke:#000000;stroke-width:0.8;" x="172.871968" xlink:href="#m01b6581417" y="271.927219"/>
      </g>
     </g>
     <g id="text_4">
      <!-- 3.0 -->
      <defs>
       <path d="M 40.578125 39.3125
Q 47.65625 37.796875 51.625 33
Q 55.609375 28.21875 55.609375 21.1875
Q 55.609375 10.40625 48.1875 4.484375
Q 40.765625 -1.421875 27.09375 -1.421875
Q 22.515625 -1.421875 17.65625 -0.515625
Q 12.796875 0.390625 7.625 2.203125
L 7.625 11.71875
Q 11.71875 9.328125 16.59375 8.109375
Q 21.484375 6.890625 26.8125 6.890625
Q 36.078125 6.890625 40.9375 10.546875
Q 45.796875 14.203125 45.796875 21.1875
Q 45.796875 27.640625 41.28125 31.265625
Q 36.765625 34.90625 28.71875 34.90625
L 20.21875 34.90625
L 20.21875 43.015625
L 29.109375 43.015625
Q 36.375 43.015625 40.234375 45.921875
Q 44.09375 48.828125 44.09375 54.296875
Q 44.09375 59.90625 40.109375 62.90625
Q 36.140625 65.921875 28.71875 65.921875
Q 24.65625 65.921875 20.015625 65.03125
Q 15.375 64.15625 9.8125 62.3125
L 9.8125 71.09375
Q 15.4375 72.65625 20.34375 73.4375
Q 25.25 74.21875 29.59375 74.21875
Q 40.828125 74.21875 47.359375 69.109375
Q 53.90625 64.015625 53.90625 55.328125
Q 53.90625 49.265625 50.4375 45.09375
Q 46.96875 40.921875 40.578125 39.3125
z
" id="DejaVuSans-51"/>
       <path d="M 31.78125 66.40625
Q 24.171875 66.40625 20.328125 58.90625
Q 16.5 51.421875 16.5 36.375
Q 16.5 21.390625 20.328125 13.890625
Q 24.171875 6.390625 31.78125 6.390625
Q 39.453125 6.390625 43.28125 13.890625
Q 47.125 21.390625 47.125 36.375
Q 47.125 51.421875 43.28125 58.90625
Q 39.453125 66.40625 31.78125 66.40625
z
M 31.78125 74.21875
Q 44.046875 74.21875 50.515625 64.515625
Q 56.984375 54.828125 56.984375 36.375
Q 56.984375 17.96875 50.515625 8.265625
Q 44.046875 -1.421875 31.78125 -1.421875
Q 19.53125 -1.421875 13.0625 8.265625
Q 6.59375 17.96875 6.59375 36.375
Q 6.59375 54.828125 13.0625 64.515625
Q 19.53125 74.21875 31.78125 74.21875
z
" id="DejaVuSans-48"/>
      </defs>
      <g transform="translate(164.920405 286.525656)scale(0.1 -0.1)">
       <use xlink:href="#DejaVuSans-51"/>
       <use x="63.623047" xlink:href="#DejaVuSans-46"/>
       <use x="95.410156" xlink:href="#DejaVuSans-48"/>
      </g>
     </g>
    </g>
    <g id="xtick_5">
     <g id="line2d_5">
      <g>
       <use style="stroke:#000000;stroke-width:0.8;" x="207.810678" xlink:href="#m01b6581417" y="271.927219"/>
      </g>
     </g>
     <g id="text_5">
      <!-- 3.2 -->
      <g transform="translate(199.859115 286.525656)scale(0.1 -0.1)">
       <use xlink:href="#DejaVuSans-51"/>
       <use x="63.623047" xlink:href="#DejaVuSans-46"/>
       <use x="95.410156" xlink:href="#DejaVuSans-50"/>
      </g>
     </g>
    </g>
    <g id="xtick_6">
     <g id="line2d_6">
      <g>
       <use style="stroke:#000000;stroke-width:0.8;" x="242.749388" xlink:href="#m01b6581417" y="271.927219"/>
      </g>
     </g>
     <g id="text_6">
      <!-- 3.4 -->
      <g transform="translate(234.797826 286.525656)scale(0.1 -0.1)">
       <use xlink:href="#DejaVuSans-51"/>
       <use x="63.623047" xlink:href="#DejaVuSans-46"/>
       <use x="95.410156" xlink:href="#DejaVuSans-52"/>
      </g>
     </g>
    </g>
    <g id="xtick_7">
     <g id="line2d_7">
      <g>
       <use style="stroke:#000000;stroke-width:0.8;" x="277.688099" xlink:href="#m01b6581417" y="271.927219"/>
      </g>
     </g>
     <g id="text_7">
      <!-- 3.6 -->
      <g transform="translate(269.736536 286.525656)scale(0.1 -0.1)">
       <use xlink:href="#DejaVuSans-51"/>
       <use x="63.623047" xlink:href="#DejaVuSans-46"/>
       <use x="95.410156" xlink:href="#DejaVuSans-54"/>
      </g>
     </g>
    </g>
    <g id="text_8">
     <!-- a1 -->
     <defs>
      <path d="M 34.28125 27.484375
Q 23.390625 27.484375 19.1875 25
Q 14.984375 22.515625 14.984375 16.5
Q 14.984375 11.71875 18.140625 8.90625
Q 21.296875 6.109375 26.703125 6.109375
Q 34.1875 6.109375 38.703125 11.40625
Q 43.21875 16.703125 43.21875 25.484375
L 43.21875 27.484375
z
M 52.203125 31.203125
L 52.203125 0
L 43.21875 0
L 43.21875 8.296875
Q 40.140625 3.328125 35.546875 0.953125
Q 30.953125 -1.421875 24.3125 -1.421875
Q 15.921875 -1.421875 10.953125 3.296875
Q 6 8.015625 6 15.921875
Q 6 25.140625 12.171875 29.828125
Q 18.359375 34.515625 30.609375 34.515625
L 43.21875 34.515625
L 43.21875 35.40625
Q 43.21875 41.609375 39.140625 45
Q 35.0625 48.390625 27.6875 48.390625
Q 23 48.390625 18.546875 47.265625
Q 14.109375 46.140625 10.015625 43.890625
L 10.015625 52.203125
Q 14.9375 54.109375 19.578125 55.046875
Q 24.21875 56 28.609375 56
Q 40.484375 56 46.34375 49.84375
Q 52.203125 43.703125 52.203125 31.203125
z
" id="DejaVuSans-97"/>
      <path d="M 12.40625 8.296875
L 28.515625 8.296875
L 28.515625 63.921875
L 10.984375 60.40625
L 10.984375 69.390625
L 28.421875 72.90625
L 38.28125 72.90625
L 38.28125 8.296875
L 54.390625 8.296875
L 54.390625 0
L 12.40625 0
z
" id="DejaVuSans-49"/>
     </defs>
     <g transform="translate(164.219631 300.203781)scale(0.1 -0.1)">
      <use xlink:href="#DejaVuSans-97"/>
      <use x="61.279297" xlink:href="#DejaVuSans-49"/>
     </g>
    </g>
   </g>
   <g id="matplotlib.axis_2">
    <g id="ytick_1">
     <g id="line2d_8">
      <defs>
       <path d="M 0 0
L -3.5 0
" id="md811ba4af2" style="stroke:#000000;stroke-width:0.8;"/>
      </defs>
      <g>
       <use style="stroke:#000000;stroke-width:0.8;" x="40.603125" xlink:href="#md811ba4af2" y="244.222273"/>
      </g>
     </g>
     <g id="text_9">
      <!-- 10 -->
      <g transform="translate(20.878125 248.021491)scale(0.1 -0.1)">
       <use xlink:href="#DejaVuSans-49"/>
       <use x="63.623047" xlink:href="#DejaVuSans-48"/>
      </g>
     </g>
    </g>
    <g id="ytick_2">
     <g id="line2d_9">
      <g>
       <use style="stroke:#000000;stroke-width:0.8;" x="40.603125" xlink:href="#md811ba4af2" y="187.886185"/>
      </g>
     </g>
     <g id="text_10">
      <!-- 11 -->
      <g transform="translate(20.878125 191.685403)scale(0.1 -0.1)">
       <use xlink:href="#DejaVuSans-49"/>
       <use x="63.623047" xlink:href="#DejaVuSans-49"/>
      </g>
     </g>
    </g>
    <g id="ytick_3">
     <g id="line2d_10">
      <g>
       <use style="stroke:#000000;stroke-width:0.8;" x="40.603125" xlink:href="#md811ba4af2" y="131.550097"/>
      </g>
     </g>
     <g id="text_11">
      <!-- 12 -->
      <g transform="translate(20.878125 135.349315)scale(0.1 -0.1)">
       <use xlink:href="#DejaVuSans-49"/>
       <use x="63.623047" xlink:href="#DejaVuSans-50"/>
      </g>
     </g>
    </g>
    <g id="ytick_4">
     <g id="line2d_11">
      <g>
       <use style="stroke:#000000;stroke-width:0.8;" x="40.603125" xlink:href="#md811ba4af2" y="75.214009"/>
      </g>
     </g>
     <g id="text_12">
      <!-- 13 -->
      <g transform="translate(20.878125 79.013227)scale(0.1 -0.1)">
       <use xlink:href="#DejaVuSans-49"/>
       <use x="63.623047" xlink:href="#DejaVuSans-51"/>
      </g>
     </g>
    </g>
    <g id="ytick_5">
     <g id="line2d_12">
      <g>
       <use style="stroke:#000000;stroke-width:0.8;" x="40.603125" xlink:href="#md811ba4af2" y="18.87792"/>
      </g>
     </g>
     <g id="text_13">
      <!-- 14 -->
      <g transform="translate(20.878125 22.677139)scale(0.1 -0.1)">
       <use xlink:href="#DejaVuSans-49"/>
       <use x="63.623047" xlink:href="#DejaVuSans-52"/>
      </g>
     </g>
    </g>
    <g id="text_14">
     <!-- t2 -->
     <defs>
      <path d="M 18.3125 70.21875
L 18.3125 54.6875
L 36.8125 54.6875
L 36.8125 47.703125
L 18.3125 47.703125
L 18.3125 18.015625
Q 18.3125 11.328125 20.140625 9.421875
Q 21.96875 7.515625 27.59375 7.515625
L 36.8125 7.515625
L 36.8125 0
L 27.59375 0
Q 17.1875 0 13.234375 3.875
Q 9.28125 7.765625 9.28125 18.015625
L 9.28125 47.703125
L 2.6875 47.703125
L 2.6875 54.6875
L 9.28125 54.6875
L 9.28125 70.21875
z
" id="DejaVuSans-116"/>
     </defs>
     <g transform="translate(14.798438 146.604625)rotate(-90)scale(0.1 -0.1)">
      <use xlink:href="#DejaVuSans-116"/>
      <use x="39.208984" xlink:href="#DejaVuSans-50"/>
     </g>
    </g>
   </g>
   <g id="patch_3">
    <path d="M 40.603125 271.927219
L 40.603125 10.999219
" style="fill:none;stroke:#000000;stroke-linecap:square;stroke-linejoin:miter;stroke-width:0.8;"/>
   </g>
   <g id="patch_4">
    <path d="M 300.326761 271.927219
L 300.326761 10.999219
" style="fill:none;stroke:#000000;stroke-linecap:square;stroke-linejoin:miter;stroke-width:0.8;"/>
   </g>
   <g id="patch_5">
    <path d="M 40.603125 271.927219
L 300.326761 271.927219
" style="fill:none;stroke:#000000;stroke-linecap:square;stroke-linejoin:miter;stroke-width:0.8;"/>
   </g>
   <g id="patch_6">
    <path d="M 40.603125 10.999219
L 300.326761 10.999219
" style="fill:none;stroke:#000000;stroke-linecap:square;stroke-linejoin:miter;stroke-width:0.8;"/>
   </g>
  </g>
  <g id="axes_2">
   <g id="patch_7">
    <path d="M 430.18858 271.927219
L 689.912216 271.927219
L 689.912216 10.999219
L 430.18858 10.999219
z
" style="fill:#ffffff;"/>
   </g>
   <g id="PathCollection_11">
    <path clip-path="url(#pca3208226d)" d="M 555.572404 146.818054
L 556.435216 145.961977
L 555.572404 145.077574
L 554.676797 145.961977
z
" style="fill:#471365;"/>
    <path clip-path="url(#pca3208226d)" d="M 564.528391 137.825891
L 565.3671 136.96446
L 564.528391 136.087689
L 563.653524 136.96446
z
" style="fill:#471365;"/>
   </g>
   <g id="PathCollection_12">
    <path clip-path="url(#pca3208226d)" d="M 546.616417 155.816201
L 547.502867 154.959495
L 546.616417 154.017016
L 545.640006 154.959495
z
" style="fill:#463480;"/>
    <path clip-path="url(#pca3208226d)" d="M 555.572404 147.814571
L 557.439573 145.961977
L 555.572404 144.048084
L 553.634265 145.961977
z
M 554.676797 145.961977
L 555.572404 145.077574
L 556.435216 145.961977
L 555.572404 146.818054
z
" style="fill:#463480;"/>
    <path clip-path="url(#pca3208226d)" d="M 564.528391 138.835573
L 566.350148 136.96446
L 564.528391 135.060028
L 562.628094 136.96446
z
M 563.653524 136.96446
L 564.528391 136.087689
L 565.3671 136.96446
L 564.528391 137.825891
z
" style="fill:#463480;"/>
    <path clip-path="url(#pca3208226d)" d="M 573.484379 128.69853
L 574.181176 127.966943
L 573.484379 127.192178
L 572.721894 127.966943
z
" style="fill:#463480;"/>
   </g>
   <g id="PathCollection_13">
    <path clip-path="url(#pca3208226d)" d="M 546.616417 156.90391
L 548.628341 154.959495
L 546.616417 152.820404
L 544.400314 154.959495
z
M 545.640006 154.959495
L 546.616417 154.017016
L 547.502867 154.959495
L 546.616417 155.816201
z
" style="fill:#3b528b;"/>
    <path clip-path="url(#pca3208226d)" d="M 555.572404 148.811088
L 558.443929 145.961977
L 555.572404 143.018594
L 552.591733 145.961977
z
M 553.634265 145.961977
L 555.572404 144.048084
L 557.439573 145.961977
L 555.572404 147.814571
z
" style="fill:#3b528b;"/>
    <path clip-path="url(#pca3208226d)" d="M 564.528391 139.845255
L 567.333196 136.96446
L 564.528391 134.032366
L 561.602663 136.96446
z
M 562.628094 136.96446
L 564.528391 135.060028
L 566.350148 136.96446
L 564.528391 138.835573
z
" style="fill:#3b528b;"/>
    <path clip-path="url(#pca3208226d)" d="M 573.484379 129.837518
L 575.266 127.966943
L 573.484379 125.985968
L 571.534802 127.966943
z
M 572.721894 127.966943
L 573.484379 127.192178
L 574.181176 127.966943
L 573.484379 128.69853
z
" style="fill:#3b528b;"/>
   </g>
   <g id="PathCollection_14">
    <path clip-path="url(#pca3208226d)" d="M 537.660429 165.091616
L 538.842381 163.957012
L 537.660429 162.533557
L 536.118133 163.957012
z
" style="fill:#2f6c8e;"/>
    <path clip-path="url(#pca3208226d)" d="M 546.616417 157.99162
L 549.753815 154.959495
L 546.616417 151.623793
L 543.160622 154.959495
z
M 544.400314 154.959495
L 546.616417 152.820404
L 548.628341 154.959495
L 546.616417 156.90391
z
" style="fill:#2f6c8e;"/>
    <path clip-path="url(#pca3208226d)" d="M 555.572404 149.807604
L 559.448286 145.961977
L 555.572404 141.989103
L 551.5492 145.961977
z
M 552.591733 145.961977
L 555.572404 143.018594
L 558.443929 145.961977
L 555.572404 148.811088
z
" style="fill:#2f6c8e;"/>
    <path clip-path="url(#pca3208226d)" d="M 564.528391 140.854937
L 568.316244 136.96446
L 564.528391 133.004705
L 560.577233 136.96446
z
M 561.602663 136.96446
L 564.528391 134.032366
L 567.333196 136.96446
L 564.528391 139.845255
z
" style="fill:#2f6c8e;"/>
    <path clip-path="url(#pca3208226d)" d="M 573.484379 130.976507
L 576.350824 127.966943
L 573.484379 124.779758
L 570.347709 127.966943
z
M 571.534802 127.966943
L 573.484379 125.985968
L 575.266 127.966943
L 573.484379 129.837518
z
" style="fill:#2f6c8e;"/>
    <path clip-path="url(#pca3208226d)" d="M 582.440366 119.417387
L 582.867098 118.969426
L 582.440366 118.436328
L 581.924998 118.969426
z
" style="fill:#2f6c8e;"/>
   </g>
   <g id="PathCollection_15">
    <path clip-path="url(#pca3208226d)" d="M 537.660429 166.452325
L 540.259873 163.957012
L 537.660429 160.826434
L 534.268487 163.957012
z
M 536.118133 163.957012
L 537.660429 162.533557
L 538.842381 163.957012
L 537.660429 165.091616
z
" style="fill:#25848e;"/>
    <path clip-path="url(#pca3208226d)" d="M 546.616417 159.07933
L 550.87929 154.959495
L 555.572404 150.804121
L 560.452643 145.961977
L 564.528391 141.864619
L 569.299291 136.96446
L 573.484379 132.115495
L 577.435648 127.966943
L 573.484379 123.573548
L 569.160617 127.966943
L 564.528391 131.977044
L 559.551802 136.96446
L 555.572404 140.959613
L 550.506668 145.961977
L 546.616417 150.427182
L 541.920931 154.959495
z
M 543.160622 154.959495
L 546.616417 151.623793
L 549.753815 154.959495
L 546.616417 157.99162
z
M 551.5492 145.961977
L 555.572404 141.989103
L 559.448286 145.961977
L 555.572404 149.807604
z
M 560.577233 136.96446
L 564.528391 133.004705
L 568.316244 136.96446
L 564.528391 140.854937
z
M 570.347709 127.966943
L 573.484379 124.779758
L 576.350824 127.966943
L 573.484379 130.976507
z
" style="fill:#25848e;"/>
    <path clip-path="url(#pca3208226d)" d="M 582.440366 120.940451
L 584.317982 118.969426
L 582.440366 116.623799
L 580.172747 118.969426
z
M 581.924998 118.969426
L 582.440366 118.436328
L 582.867098 118.969426
L 582.440366 119.417387
z
" style="fill:#25848e;"/>
   </g>
   <g id="PathCollection_16">
    <path clip-path="url(#pca3208226d)" d="M 528.704442 173.790483
L 529.568133 172.954529
L 528.704442 171.449811
L 526.87148 172.954529
z
" style="fill:#1e9c89;"/>
    <path clip-path="url(#pca3208226d)" d="M 537.660429 167.813034
L 541.677365 163.957012
L 546.616417 160.16704
L 552.004764 154.959495
L 555.572404 151.800638
L 561.456999 145.961977
L 564.528391 142.874301
L 570.282339 136.96446
L 573.484379 133.254483
L 578.520473 127.966943
L 582.440366 122.463516
L 585.768866 118.969426
L 582.440366 114.811269
L 578.420496 118.969426
L 573.484379 122.367338
L 567.973525 127.966943
L 564.528391 130.949382
L 558.526372 136.96446
L 555.572404 139.930123
L 549.464136 145.961977
L 546.616417 149.230571
L 540.681239 154.959495
L 537.660429 159.119312
L 532.418841 163.957012
z
M 534.268487 163.957012
L 537.660429 160.826434
L 540.259873 163.957012
L 537.660429 166.452325
z
M 541.920931 154.959495
L 546.616417 150.427182
L 550.506668 145.961977
L 555.572404 140.959613
L 559.551802 136.96446
L 564.528391 131.977044
L 569.160617 127.966943
L 573.484379 123.573548
L 577.435648 127.966943
L 573.484379 132.115495
L 569.299291 136.96446
L 564.528391 141.864619
L 560.452643 145.961977
L 555.572404 150.804121
L 550.87929 154.959495
L 546.616417 159.07933
z
M 580.172747 118.969426
L 582.440366 116.623799
L 584.317982 118.969426
L 582.440366 120.940451
z
" style="fill:#1e9c89;"/>
   </g>
   <g id="PathCollection_17">
    <path clip-path="url(#pca3208226d)" d="M 528.704442 175.86335
L 531.709779 172.954529
L 537.660429 169.173743
L 543.094857 163.957012
L 546.616417 161.25475
L 553.130239 154.959495
L 555.572404 152.797155
L 562.461356 145.961977
L 564.528391 143.883982
L 571.265387 136.96446
L 573.484379 134.393471
L 579.605297 127.966943
L 582.440366 123.98658
L 587.21975 118.969426
L 582.440366 112.99874
L 576.668246 118.969426
L 573.484379 121.161128
L 566.786433 127.966943
L 564.528391 129.921721
L 557.500942 136.96446
L 555.572404 138.900633
L 548.421604 145.961977
L 546.616417 148.03396
L 539.441547 154.959495
L 537.660429 157.41219
L 530.569195 163.957012
L 528.704442 167.718649
L 522.326394 172.954529
z
M 526.87148 172.954529
L 528.704442 171.449811
L 529.568133 172.954529
L 528.704442 173.790483
z
M 532.418841 163.957012
L 537.660429 159.119312
L 540.681239 154.959495
L 546.616417 149.230571
L 549.464136 145.961977
L 555.572404 139.930123
L 558.526372 136.96446
L 564.528391 130.949382
L 567.973525 127.966943
L 573.484379 122.367338
L 578.420496 118.969426
L 582.440366 114.811269
L 585.768866 118.969426
L 582.440366 122.463516
L 578.520473 127.966943
L 573.484379 133.254483
L 570.282339 136.96446
L 564.528391 142.874301
L 561.456999 145.961977
L 555.572404 151.800638
L 552.004764 154.959495
L 546.616417 160.16704
L 541.677365 163.957012
L 537.660429 167.813034
z
" style="fill:#2fb47c;"/>
    <path clip-path="url(#pca3208226d)" d="M 591.396354 111.17255
L 592.55614 109.971908
L 591.396354 108.00635
L 589.517689 109.971908
z
" style="fill:#2fb47c;"/>
   </g>
   <g id="PathCollection_18">
    <path clip-path="url(#pca3208226d)" d="M 501.836479 191.480629
L 502.591355 190.949564
L 501.836479 190.40845
L 501.228708 190.949564
z
" style="fill:#5ec962;"/>
    <path clip-path="url(#pca3208226d)" d="M 510.792467 184.80162
L 519.748454 182.67583
L 520.48657 181.952046
L 528.704442 177.936217
L 533.851424 172.954529
L 537.660429 170.534452
L 544.512349 163.957012
L 546.616417 162.34246
L 554.255713 154.959495
L 555.572404 153.793671
L 563.465713 145.961977
L 564.528391 144.893664
L 572.248435 136.96446
L 573.484379 135.53246
L 580.690121 127.966943
L 582.440366 125.509644
L 588.670634 118.969426
L 591.396354 113.881057
L 595.17248 109.971908
L 591.396354 103.572282
L 585.279642 109.971908
L 582.440366 111.186211
L 574.915995 118.969426
L 573.484379 119.954918
L 565.599341 127.966943
L 564.528391 128.89406
L 556.475511 136.96446
L 555.572404 137.871143
L 547.379072 145.961977
L 546.616417 146.837349
L 538.201855 154.959495
L 537.660429 155.705067
L 528.719549 163.957012
L 528.704442 163.987488
L 519.748454 171.334348
L 518.103256 172.954529
L 510.792467 179.861249
L 508.609936 181.952046
z
M 522.326394 172.954529
L 528.704442 167.718649
L 530.569195 163.957012
L 537.660429 157.41219
L 539.441547 154.959495
L 546.616417 148.03396
L 548.421604 145.961977
L 555.572404 138.900633
L 557.500942 136.96446
L 564.528391 129.921721
L 566.786433 127.966943
L 573.484379 121.161128
L 576.668246 118.969426
L 582.440366 112.99874
L 587.21975 118.969426
L 582.440366 123.98658
L 579.605297 127.966943
L 573.484379 134.393471
L 571.265387 136.96446
L 564.528391 143.883982
L 562.461356 145.961977
L 555.572404 152.797155
L 553.130239 154.959495
L 546.616417 161.25475
L 543.094857 163.957012
L 537.660429 169.173743
L 531.709779 172.954529
L 528.704442 175.86335
z
M 589.517689 109.971908
L 591.396354 108.00635
L 592.55614 109.971908
L 591.396354 111.17255
z
" style="fill:#5ec962;"/>
   </g>
   <g id="PathCollection_19">
    <path clip-path="url(#pca3208226d)" d="M 492.880492 201.255406
L 494.361801 199.947081
L 492.880492 197.956185
L 490.014127 199.947081
z
" style="fill:#9bd93c;"/>
    <path clip-path="url(#pca3208226d)" d="M 501.836479 196.073826
L 509.120288 190.949564
L 510.792467 189.696019
L 519.748454 186.835315
L 524.728423 181.952046
L 528.704442 180.009084
L 535.99307 172.954529
L 537.660429 171.895161
L 545.929842 163.957012
L 546.616417 163.43017
L 555.381188 154.959495
L 555.572404 154.790188
L 564.470069 145.961977
L 564.528391 145.903346
L 573.231483 136.96446
L 573.484379 136.671448
L 581.774945 127.966943
L 582.440366 127.032709
L 590.121518 118.969426
L 591.396354 116.589564
L 597.788821 109.971908
L 600.352341 102.631904
L 601.976945 100.974391
L 602.359705 91.976874
L 600.352341 90.30408
L 598.70785 91.976874
L 591.396354 98.314763
L 588.761871 100.974391
L 582.440366 107.728487
L 580.211919 109.971908
L 573.484379 117.573443
L 572.095992 118.969426
L 564.528391 127.163175
L 563.728388 127.966943
L 555.572404 136.003355
L 554.61508 136.96446
L 546.616417 144.052751
L 544.712521 145.961977
L 537.660429 151.705897
L 534.408761 154.959495
L 528.704442 159.449792
L 524.178338 163.957012
L 519.748454 167.590927
L 514.30203 172.954529
L 510.792467 176.270118
L 504.861244 181.952046
L 501.836479 185.728351
L 495.972081 190.949564
z
M 501.228708 190.949564
L 501.836479 190.40845
L 502.591355 190.949564
L 501.836479 191.480629
z
M 508.609936 181.952046
L 510.792467 179.861249
L 518.103256 172.954529
L 519.748454 171.334348
L 528.704442 163.987488
L 528.719549 163.957012
L 537.660429 155.705067
L 538.201855 154.959495
L 546.616417 146.837349
L 547.379072 145.961977
L 555.572404 137.871143
L 556.475511 136.96446
L 564.528391 128.89406
L 565.599341 127.966943
L 573.484379 119.954918
L 574.915995 118.969426
L 582.440366 111.186211
L 585.279642 109.971908
L 591.396354 103.572282
L 595.17248 109.971908
L 591.396354 113.881057
L 588.670634 118.969426
L 582.440366 125.509644
L 580.690121 127.966943
L 573.484379 135.53246
L 572.248435 136.96446
L 564.528391 144.893664
L 563.465713 145.961977
L 555.572404 153.793671
L 554.255713 154.959495
L 546.616417 162.34246
L 544.512349 163.957012
L 537.660429 170.534452
L 533.851424 172.954529
L 528.704442 177.936217
L 520.48657 181.952046
L 519.748454 182.67583
L 510.792467 184.80162
z
" style="fill:#9bd93c;"/>
   </g>
   <g id="PathCollection_20">
    <path clip-path="url(#pca3208226d)" d="M 439.144567 271.927219
L 448.100554 271.927219
L 457.056542 271.927219
L 466.012529 271.927219
L 474.968517 271.927219
L 483.924504 271.927219
L 492.880492 271.927219
L 501.836479 271.927219
L 510.792467 271.927219
L 519.748454 271.927219
L 528.704442 271.927219
L 537.660429 271.927219
L 546.616417 271.927219
L 555.572404 271.927219
L 564.528391 271.927219
L 573.484379 271.927219
L 582.440366 271.927219
L 591.396354 271.927219
L 600.352341 271.927219
L 609.308329 271.927219
L 618.264316 271.927219
L 627.220304 271.927219
L 636.176291 271.927219
L 645.132279 271.927219
L 654.088266 271.927219
L 663.044254 271.927219
L 672.000241 271.927219
L 680.956228 271.927219
L 689.912216 271.927219
L 689.912216 262.929702
L 689.912216 253.932184
L 689.912216 244.934667
L 689.912216 235.93715
L 689.912216 226.939633
L 689.912216 217.942115
L 689.912216 208.944598
L 689.912216 199.947081
L 689.912216 190.949564
L 689.912216 181.952046
L 689.912216 172.954529
L 689.912216 163.957012
L 689.912216 154.959495
L 689.912216 145.961977
L 689.912216 136.96446
L 689.912216 127.966943
L 689.912216 118.969426
L 689.912216 109.971908
L 689.912216 100.974391
L 689.912216 91.976874
L 689.912216 82.979357
L 689.912216 73.981839
L 689.912216 64.984322
L 689.912216 55.986805
L 689.912216 46.989288
L 689.912216 37.99177
L 689.912216 28.994253
L 689.912216 19.996736
L 689.912216 10.999219
L 680.956228 10.999219
L 672.000241 10.999219
L 663.044254 10.999219
L 654.088266 10.999219
L 645.132279 10.999219
L 636.176291 10.999219
L 627.220304 10.999219
L 618.264316 10.999219
L 609.308329 10.999219
L 600.352341 10.999219
L 591.396354 10.999219
L 582.440366 10.999219
L 573.484379 10.999219
L 564.528391 10.999219
L 555.572404 10.999219
L 546.616417 10.999219
L 537.660429 10.999219
L 528.704442 10.999219
L 519.748454 10.999219
L 510.792467 10.999219
L 501.836479 10.999219
L 492.880492 10.999219
L 483.924504 10.999219
L 474.968517 10.999219
L 466.012529 10.999219
L 457.056542 10.999219
L 448.100554 10.999219
L 439.144567 10.999219
L 430.18858 10.999219
L 430.18858 19.996736
L 430.18858 28.994253
L 430.18858 37.99177
L 430.18858 46.989288
L 430.18858 55.986805
L 430.18858 64.984322
L 430.18858 73.981839
L 430.18858 82.979357
L 430.18858 91.976874
L 430.18858 100.974391
L 430.18858 109.971908
L 430.18858 118.969426
L 430.18858 127.966943
L 430.18858 136.96446
L 430.18858 145.961977
L 430.18858 154.959495
L 430.18858 163.957012
L 430.18858 172.954529
L 430.18858 181.952046
L 430.18858 190.949564
L 430.18858 199.947081
L 430.18858 208.944598
L 430.18858 217.942115
L 430.18858 226.939633
L 430.18858 235.93715
L 430.18858 244.934667
L 430.18858 253.932184
L 430.18858 262.929702
L 430.18858 271.927219
z
M 490.014127 199.947081
L 492.880492 197.956185
L 494.361801 199.947081
L 492.880492 201.255406
z
M 495.972081 190.949564
L 501.836479 185.728351
L 504.861244 181.952046
L 510.792467 176.270118
L 514.30203 172.954529
L 519.748454 167.590927
L 524.178338 163.957012
L 528.704442 159.449792
L 534.408761 154.959495
L 537.660429 151.705897
L 544.712521 145.961977
L 546.616417 144.052751
L 554.61508 136.96446
L 555.572404 136.003355
L 563.728388 127.966943
L 564.528391 127.163175
L 572.095992 118.969426
L 573.484379 117.573443
L 580.211919 109.971908
L 582.440366 107.728487
L 588.761871 100.974391
L 591.396354 98.314763
L 598.70785 91.976874
L 600.352341 90.30408
L 602.359705 91.976874
L 601.976945 100.974391
L 600.352341 102.631904
L 597.788821 109.971908
L 591.396354 116.589564
L 590.121518 118.969426
L 582.440366 127.032709
L 581.774945 127.966943
L 573.484379 136.671448
L 573.231483 136.96446
L 564.528391 145.903346
L 564.470069 145.961977
L 555.572404 154.790188
L 555.381188 154.959495
L 546.616417 163.43017
L 545.929842 163.957012
L 537.660429 171.895161
L 535.99307 172.954529
L 528.704442 180.009084
L 524.728423 181.952046
L 519.748454 186.835315
L 510.792467 189.696019
L 509.120288 190.949564
L 501.836479 196.073826
z
" style="fill:#dfe318;"/>
   </g>
   <g id="matplotlib.axis_3">
    <g id="xtick_8">
     <g id="line2d_13">
      <g>
       <use style="stroke:#000000;stroke-width:0.8;" x="455.340233" xlink:href="#m01b6581417" y="271.927219"/>
      </g>
     </g>
     <g id="text_15">
      <!-- −4.8 -->
      <defs>
       <path d="M 10.59375 35.5
L 73.1875 35.5
L 73.1875 27.203125
L 10.59375 27.203125
z
" id="DejaVuSans-8722"/>
      </defs>
      <g transform="translate(443.198827 286.525656)scale(0.1 -0.1)">
       <use xlink:href="#DejaVuSans-8722"/>
       <use x="83.789062" xlink:href="#DejaVuSans-52"/>
       <use x="147.412109" xlink:href="#DejaVuSans-46"/>
       <use x="179.199219" xlink:href="#DejaVuSans-56"/>
      </g>
     </g>
    </g>
    <g id="xtick_9">
     <g id="line2d_14">
      <g>
       <use style="stroke:#000000;stroke-width:0.8;" x="500.402351" xlink:href="#m01b6581417" y="271.927219"/>
      </g>
     </g>
     <g id="text_16">
      <!-- −4.6 -->
      <g transform="translate(488.260945 286.525656)scale(0.1 -0.1)">
       <use xlink:href="#DejaVuSans-8722"/>
       <use x="83.789062" xlink:href="#DejaVuSans-52"/>
       <use x="147.412109" xlink:href="#DejaVuSans-46"/>
       <use x="179.199219" xlink:href="#DejaVuSans-54"/>
      </g>
     </g>
    </g>
    <g id="xtick_10">
     <g id="line2d_15">
      <g>
       <use style="stroke:#000000;stroke-width:0.8;" x="545.46447" xlink:href="#m01b6581417" y="271.927219"/>
      </g>
     </g>
     <g id="text_17">
      <!-- −4.4 -->
      <g transform="translate(533.323064 286.525656)scale(0.1 -0.1)">
       <use xlink:href="#DejaVuSans-8722"/>
       <use x="83.789062" xlink:href="#DejaVuSans-52"/>
       <use x="147.412109" xlink:href="#DejaVuSans-46"/>
       <use x="179.199219" xlink:href="#DejaVuSans-52"/>
      </g>
     </g>
    </g>
    <g id="xtick_11">
     <g id="line2d_16">
      <g>
       <use style="stroke:#000000;stroke-width:0.8;" x="590.526588" xlink:href="#m01b6581417" y="271.927219"/>
      </g>
     </g>
     <g id="text_18">
      <!-- −4.2 -->
      <g transform="translate(578.385182 286.525656)scale(0.1 -0.1)">
       <use xlink:href="#DejaVuSans-8722"/>
       <use x="83.789062" xlink:href="#DejaVuSans-52"/>
       <use x="147.412109" xlink:href="#DejaVuSans-46"/>
       <use x="179.199219" xlink:href="#DejaVuSans-50"/>
      </g>
     </g>
    </g>
    <g id="xtick_12">
     <g id="line2d_17">
      <g>
       <use style="stroke:#000000;stroke-width:0.8;" x="635.588707" xlink:href="#m01b6581417" y="271.927219"/>
      </g>
     </g>
     <g id="text_19">
      <!-- −4.0 -->
      <g transform="translate(623.447301 286.525656)scale(0.1 -0.1)">
       <use xlink:href="#DejaVuSans-8722"/>
       <use x="83.789062" xlink:href="#DejaVuSans-52"/>
       <use x="147.412109" xlink:href="#DejaVuSans-46"/>
       <use x="179.199219" xlink:href="#DejaVuSans-48"/>
      </g>
     </g>
    </g>
    <g id="xtick_13">
     <g id="line2d_18">
      <g>
       <use style="stroke:#000000;stroke-width:0.8;" x="680.650826" xlink:href="#m01b6581417" y="271.927219"/>
      </g>
     </g>
     <g id="text_20">
      <!-- −3.8 -->
      <g transform="translate(668.509419 286.525656)scale(0.1 -0.1)">
       <use xlink:href="#DejaVuSans-8722"/>
       <use x="83.789062" xlink:href="#DejaVuSans-51"/>
       <use x="147.412109" xlink:href="#DejaVuSans-46"/>
       <use x="179.199219" xlink:href="#DejaVuSans-56"/>
      </g>
     </g>
    </g>
    <g id="text_21">
     <!-- a2 -->
     <g transform="translate(553.805085 300.203781)scale(0.1 -0.1)">
      <use xlink:href="#DejaVuSans-97"/>
      <use x="61.279297" xlink:href="#DejaVuSans-50"/>
     </g>
    </g>
   </g>
   <g id="matplotlib.axis_4">
    <g id="ytick_6">
     <g id="line2d_19">
      <g>
       <use style="stroke:#000000;stroke-width:0.8;" x="430.18858" xlink:href="#md811ba4af2" y="244.222273"/>
      </g>
     </g>
     <g id="text_22">
      <!-- 10 -->
      <g transform="translate(410.46358 248.021491)scale(0.1 -0.1)">
       <use xlink:href="#DejaVuSans-49"/>
       <use x="63.623047" xlink:href="#DejaVuSans-48"/>
      </g>
     </g>
    </g>
    <g id="ytick_7">
     <g id="line2d_20">
      <g>
       <use style="stroke:#000000;stroke-width:0.8;" x="430.18858" xlink:href="#md811ba4af2" y="187.886185"/>
      </g>
     </g>
     <g id="text_23">
      <!-- 11 -->
      <g transform="translate(410.46358 191.685403)scale(0.1 -0.1)">
       <use xlink:href="#DejaVuSans-49"/>
       <use x="63.623047" xlink:href="#DejaVuSans-49"/>
      </g>
     </g>
    </g>
    <g id="ytick_8">
     <g id="line2d_21">
      <g>
       <use style="stroke:#000000;stroke-width:0.8;" x="430.18858" xlink:href="#md811ba4af2" y="131.550097"/>
      </g>
     </g>
     <g id="text_24">
      <!-- 12 -->
      <g transform="translate(410.46358 135.349315)scale(0.1 -0.1)">
       <use xlink:href="#DejaVuSans-49"/>
       <use x="63.623047" xlink:href="#DejaVuSans-50"/>
      </g>
     </g>
    </g>
    <g id="ytick_9">
     <g id="line2d_22">
      <g>
       <use style="stroke:#000000;stroke-width:0.8;" x="430.18858" xlink:href="#md811ba4af2" y="75.214009"/>
      </g>
     </g>
     <g id="text_25">
      <!-- 13 -->
      <g transform="translate(410.46358 79.013227)scale(0.1 -0.1)">
       <use xlink:href="#DejaVuSans-49"/>
       <use x="63.623047" xlink:href="#DejaVuSans-51"/>
      </g>
     </g>
    </g>
    <g id="ytick_10">
     <g id="line2d_23">
      <g>
       <use style="stroke:#000000;stroke-width:0.8;" x="430.18858" xlink:href="#md811ba4af2" y="18.87792"/>
      </g>
     </g>
     <g id="text_26">
      <!-- 14 -->
      <g transform="translate(410.46358 22.677139)scale(0.1 -0.1)">
       <use xlink:href="#DejaVuSans-49"/>
       <use x="63.623047" xlink:href="#DejaVuSans-52"/>
      </g>
     </g>
    </g>
    <g id="text_27">
     <!-- t2 -->
     <g transform="translate(404.383892 146.604625)rotate(-90)scale(0.1 -0.1)">
      <use xlink:href="#DejaVuSans-116"/>
      <use x="39.208984" xlink:href="#DejaVuSans-50"/>
     </g>
    </g>
   </g>
   <g id="patch_8">
    <path d="M 430.18858 271.927219
L 430.18858 10.999219
" style="fill:none;stroke:#000000;stroke-linecap:square;stroke-linejoin:miter;stroke-width:0.8;"/>
   </g>
   <g id="patch_9">
    <path d="M 689.912216 271.927219
L 689.912216 10.999219
" style="fill:none;stroke:#000000;stroke-linecap:square;stroke-linejoin:miter;stroke-width:0.8;"/>
   </g>
   <g id="patch_10">
    <path d="M 430.18858 271.927219
L 689.912216 271.927219
" style="fill:none;stroke:#000000;stroke-linecap:square;stroke-linejoin:miter;stroke-width:0.8;"/>
   </g>
   <g id="patch_11">
    <path d="M 430.18858 10.999219
L 689.912216 10.999219
" style="fill:none;stroke:#000000;stroke-linecap:square;stroke-linejoin:miter;stroke-width:0.8;"/>
   </g>
  </g>
  <g id="axes_3">
   <g id="patch_12">
    <path clip-path="url(#p8441acd458)" d="M 316.559489 271.927219
L 316.559489 245.834419
L 316.559489 37.092019
L 316.559489 10.999219
L 329.605889 10.999219
L 329.605889 37.092019
L 329.605889 245.834419
L 329.605889 271.927219
z
" style="fill:#ffffff;stroke:#ffffff;stroke-linejoin:miter;stroke-width:0.01;"/>
   </g>
   <g id="QuadMesh_1">
    <path clip-path="url(#p8441acd458)" d="M 316.559489 271.927219
L 329.605889 271.927219
L 329.605889 245.834419
L 316.559489 245.834419
L 316.559489 271.927219
" style="fill:#471365;"/>
    <path clip-path="url(#p8441acd458)" d="M 316.559489 245.834419
L 329.605889 245.834419
L 329.605889 219.741619
L 316.559489 219.741619
L 316.559489 245.834419
" style="fill:#463480;"/>
    <path clip-path="url(#p8441acd458)" d="M 316.559489 219.741619
L 329.605889 219.741619
L 329.605889 193.648819
L 316.559489 193.648819
L 316.559489 219.741619
" style="fill:#3b528b;"/>
    <path clip-path="url(#p8441acd458)" d="M 316.559489 193.648819
L 329.605889 193.648819
L 329.605889 167.556019
L 316.559489 167.556019
L 316.559489 193.648819
" style="fill:#2f6c8e;"/>
    <path clip-path="url(#p8441acd458)" d="M 316.559489 167.556019
L 329.605889 167.556019
L 329.605889 141.463219
L 316.559489 141.463219
L 316.559489 167.556019
" style="fill:#25848e;"/>
    <path clip-path="url(#p8441acd458)" d="M 316.559489 141.463219
L 329.605889 141.463219
L 329.605889 115.370419
L 316.559489 115.370419
L 316.559489 141.463219
" style="fill:#1e9c89;"/>
    <path clip-path="url(#p8441acd458)" d="M 316.559489 115.370419
L 329.605889 115.370419
L 329.605889 89.277619
L 316.559489 89.277619
L 316.559489 115.370419
" style="fill:#2fb47c;"/>
    <path clip-path="url(#p8441acd458)" d="M 316.559489 89.277619
L 329.605889 89.277619
L 329.605889 63.184819
L 316.559489 63.184819
L 316.559489 89.277619
" style="fill:#5ec962;"/>
    <path clip-path="url(#p8441acd458)" d="M 316.559489 63.184819
L 329.605889 63.184819
L 329.605889 37.092019
L 316.559489 37.092019
L 316.559489 63.184819
" style="fill:#9bd93c;"/>
    <path clip-path="url(#p8441acd458)" d="M 316.559489 37.092019
L 329.605889 37.092019
L 329.605889 10.999219
L 316.559489 10.999219
L 316.559489 37.092019
" style="fill:#dfe318;"/>
   </g>
   <g id="matplotlib.axis_5"/>
   <g id="matplotlib.axis_6">
    <g id="ytick_11">
     <g id="line2d_24">
      <defs>
       <path d="M 0 0
L 3.5 0
" id="m35ef70156b" style="stroke:#000000;stroke-width:0.8;"/>
      </defs>
      <g>
       <use style="stroke:#000000;stroke-width:0.8;" x="329.605889" xlink:href="#m35ef70156b" y="271.927219"/>
      </g>
     </g>
     <g id="text_28">
      <!-- 0.0 -->
      <g transform="translate(336.605889 275.726437)scale(0.1 -0.1)">
       <use xlink:href="#DejaVuSans-48"/>
       <use x="63.623047" xlink:href="#DejaVuSans-46"/>
       <use x="95.410156" xlink:href="#DejaVuSans-48"/>
      </g>
     </g>
    </g>
    <g id="ytick_12">
     <g id="line2d_25">
      <g>
       <use style="stroke:#000000;stroke-width:0.8;" x="329.605889" xlink:href="#m35ef70156b" y="219.741619"/>
      </g>
     </g>
     <g id="text_29">
      <!-- 0.2 -->
      <g transform="translate(336.605889 223.540837)scale(0.1 -0.1)">
       <use xlink:href="#DejaVuSans-48"/>
       <use x="63.623047" xlink:href="#DejaVuSans-46"/>
       <use x="95.410156" xlink:href="#DejaVuSans-50"/>
      </g>
     </g>
    </g>
    <g id="ytick_13">
     <g id="line2d_26">
      <g>
       <use style="stroke:#000000;stroke-width:0.8;" x="329.605889" xlink:href="#m35ef70156b" y="167.556019"/>
      </g>
     </g>
     <g id="text_30">
      <!-- 0.4 -->
      <g transform="translate(336.605889 171.355237)scale(0.1 -0.1)">
       <use xlink:href="#DejaVuSans-48"/>
       <use x="63.623047" xlink:href="#DejaVuSans-46"/>
       <use x="95.410156" xlink:href="#DejaVuSans-52"/>
      </g>
     </g>
    </g>
    <g id="ytick_14">
     <g id="line2d_27">
      <g>
       <use style="stroke:#000000;stroke-width:0.8;" x="329.605889" xlink:href="#m35ef70156b" y="115.370419"/>
      </g>
     </g>
     <g id="text_31">
      <!-- 0.6 -->
      <g transform="translate(336.605889 119.169637)scale(0.1 -0.1)">
       <use xlink:href="#DejaVuSans-48"/>
       <use x="63.623047" xlink:href="#DejaVuSans-46"/>
       <use x="95.410156" xlink:href="#DejaVuSans-54"/>
      </g>
     </g>
    </g>
    <g id="ytick_15">
     <g id="line2d_28">
      <g>
       <use style="stroke:#000000;stroke-width:0.8;" x="329.605889" xlink:href="#m35ef70156b" y="63.184819"/>
      </g>
     </g>
     <g id="text_32">
      <!-- 0.8 -->
      <g transform="translate(336.605889 66.984037)scale(0.1 -0.1)">
       <use xlink:href="#DejaVuSans-48"/>
       <use x="63.623047" xlink:href="#DejaVuSans-46"/>
       <use x="95.410156" xlink:href="#DejaVuSans-56"/>
      </g>
     </g>
    </g>
    <g id="ytick_16">
     <g id="line2d_29">
      <g>
       <use style="stroke:#000000;stroke-width:0.8;" x="329.605889" xlink:href="#m35ef70156b" y="10.999219"/>
      </g>
     </g>
     <g id="text_33">
      <!-- 1.0 -->
      <g transform="translate(336.605889 14.798438)scale(0.1 -0.1)">
       <use xlink:href="#DejaVuSans-49"/>
       <use x="63.623047" xlink:href="#DejaVuSans-46"/>
       <use x="95.410156" xlink:href="#DejaVuSans-48"/>
      </g>
     </g>
    </g>
   </g>
   <g id="patch_13">
    <path d="M 316.559489 271.927219
L 316.559489 245.834419
L 316.559489 37.092019
L 316.559489 10.999219
L 329.605889 10.999219
L 329.605889 37.092019
L 329.605889 245.834419
L 329.605889 271.927219
z
" style="fill:none;stroke:#000000;stroke-linejoin:miter;stroke-width:0.8;"/>
   </g>
  </g>
  <g id="axes_4">
   <g id="patch_14">
    <path clip-path="url(#padef9ff34b)" d="M 706.144943 271.927219
L 706.144943 245.834419
L 706.144943 37.092019
L 706.144943 10.999219
L 719.191343 10.999219
L 719.191343 37.092019
L 719.191343 245.834419
L 719.191343 271.927219
z
" style="fill:#ffffff;stroke:#ffffff;stroke-linejoin:miter;stroke-width:0.01;"/>
   </g>
   <g id="QuadMesh_2">
    <path clip-path="url(#padef9ff34b)" d="M 706.144943 271.927219
L 719.191343 271.927219
L 719.191343 245.834419
L 706.144943 245.834419
L 706.144943 271.927219
" style="fill:#471365;"/>
    <path clip-path="url(#padef9ff34b)" d="M 706.144943 245.834419
L 719.191343 245.834419
L 719.191343 219.741619
L 706.144943 219.741619
L 706.144943 245.834419
" style="fill:#463480;"/>
    <path clip-path="url(#padef9ff34b)" d="M 706.144943 219.741619
L 719.191343 219.741619
L 719.191343 193.648819
L 706.144943 193.648819
L 706.144943 219.741619
" style="fill:#3b528b;"/>
    <path clip-path="url(#padef9ff34b)" d="M 706.144943 193.648819
L 719.191343 193.648819
L 719.191343 167.556019
L 706.144943 167.556019
L 706.144943 193.648819
" style="fill:#2f6c8e;"/>
    <path clip-path="url(#padef9ff34b)" d="M 706.144943 167.556019
L 719.191343 167.556019
L 719.191343 141.463219
L 706.144943 141.463219
L 706.144943 167.556019
" style="fill:#25848e;"/>
    <path clip-path="url(#padef9ff34b)" d="M 706.144943 141.463219
L 719.191343 141.463219
L 719.191343 115.370419
L 706.144943 115.370419
L 706.144943 141.463219
" style="fill:#1e9c89;"/>
    <path clip-path="url(#padef9ff34b)" d="M 706.144943 115.370419
L 719.191343 115.370419
L 719.191343 89.277619
L 706.144943 89.277619
L 706.144943 115.370419
" style="fill:#2fb47c;"/>
    <path clip-path="url(#padef9ff34b)" d="M 706.144943 89.277619
L 719.191343 89.277619
L 719.191343 63.184819
L 706.144943 63.184819
L 706.144943 89.277619
" style="fill:#5ec962;"/>
    <path clip-path="url(#padef9ff34b)" d="M 706.144943 63.184819
L 719.191343 63.184819
L 719.191343 37.092019
L 706.144943 37.092019
L 706.144943 63.184819
" style="fill:#9bd93c;"/>
    <path clip-path="url(#padef9ff34b)" d="M 706.144943 37.092019
L 719.191343 37.092019
L 719.191343 10.999219
L 706.144943 10.999219
L 706.144943 37.092019
" style="fill:#dfe318;"/>
   </g>
   <g id="matplotlib.axis_7"/>
   <g id="matplotlib.axis_8">
    <g id="ytick_17">
     <g id="line2d_30">
      <g>
       <use style="stroke:#000000;stroke-width:0.8;" x="719.191343" xlink:href="#m35ef70156b" y="271.927219"/>
      </g>
     </g>
     <g id="text_34">
      <!-- 0.0 -->
      <g transform="translate(726.191343 275.726437)scale(0.1 -0.1)">
       <use xlink:href="#DejaVuSans-48"/>
       <use x="63.623047" xlink:href="#DejaVuSans-46"/>
       <use x="95.410156" xlink:href="#DejaVuSans-48"/>
      </g>
     </g>
    </g>
    <g id="ytick_18">
     <g id="line2d_31">
      <g>
       <use style="stroke:#000000;stroke-width:0.8;" x="719.191343" xlink:href="#m35ef70156b" y="219.741619"/>
      </g>
     </g>
     <g id="text_35">
      <!-- 0.2 -->
      <g transform="translate(726.191343 223.540837)scale(0.1 -0.1)">
       <use xlink:href="#DejaVuSans-48"/>
       <use x="63.623047" xlink:href="#DejaVuSans-46"/>
       <use x="95.410156" xlink:href="#DejaVuSans-50"/>
      </g>
     </g>
    </g>
    <g id="ytick_19">
     <g id="line2d_32">
      <g>
       <use style="stroke:#000000;stroke-width:0.8;" x="719.191343" xlink:href="#m35ef70156b" y="167.556019"/>
      </g>
     </g>
     <g id="text_36">
      <!-- 0.4 -->
      <g transform="translate(726.191343 171.355237)scale(0.1 -0.1)">
       <use xlink:href="#DejaVuSans-48"/>
       <use x="63.623047" xlink:href="#DejaVuSans-46"/>
       <use x="95.410156" xlink:href="#DejaVuSans-52"/>
      </g>
     </g>
    </g>
    <g id="ytick_20">
     <g id="line2d_33">
      <g>
       <use style="stroke:#000000;stroke-width:0.8;" x="719.191343" xlink:href="#m35ef70156b" y="115.370419"/>
      </g>
     </g>
     <g id="text_37">
      <!-- 0.6 -->
      <g transform="translate(726.191343 119.169637)scale(0.1 -0.1)">
       <use xlink:href="#DejaVuSans-48"/>
       <use x="63.623047" xlink:href="#DejaVuSans-46"/>
       <use x="95.410156" xlink:href="#DejaVuSans-54"/>
      </g>
     </g>
    </g>
    <g id="ytick_21">
     <g id="line2d_34">
      <g>
       <use style="stroke:#000000;stroke-width:0.8;" x="719.191343" xlink:href="#m35ef70156b" y="63.184819"/>
      </g>
     </g>
     <g id="text_38">
      <!-- 0.8 -->
      <g transform="translate(726.191343 66.984037)scale(0.1 -0.1)">
       <use xlink:href="#DejaVuSans-48"/>
       <use x="63.623047" xlink:href="#DejaVuSans-46"/>
       <use x="95.410156" xlink:href="#DejaVuSans-56"/>
      </g>
     </g>
    </g>
    <g id="ytick_22">
     <g id="line2d_35">
      <g>
       <use style="stroke:#000000;stroke-width:0.8;" x="719.191343" xlink:href="#m35ef70156b" y="10.999219"/>
      </g>
     </g>
     <g id="text_39">
      <!-- 1.0 -->
      <g transform="translate(726.191343 14.798438)scale(0.1 -0.1)">
       <use xlink:href="#DejaVuSans-49"/>
       <use x="63.623047" xlink:href="#DejaVuSans-46"/>
       <use x="95.410156" xlink:href="#DejaVuSans-48"/>
      </g>
     </g>
    </g>
   </g>
   <g id="patch_15">
    <path d="M 706.144943 271.927219
L 706.144943 245.834419
L 706.144943 37.092019
L 706.144943 10.999219
L 719.191343 10.999219
L 719.191343 37.092019
L 719.191343 245.834419
L 719.191343 271.927219
z
" style="fill:none;stroke:#000000;stroke-linejoin:miter;stroke-width:0.8;"/>
   </g>
  </g>
 </g>
 <defs>
  <clipPath id="p77281b5026">
   <rect height="260.928" width="259.723636" x="40.603125" y="10.999219"/>
  </clipPath>
  <clipPath id="pca3208226d">
   <rect height="260.928" width="259.723636" x="430.18858" y="10.999219"/>
  </clipPath>
  <clipPath id="p8441acd458">
   <rect height="260.928" width="13.0464" x="316.559489" y="10.999219"/>
  </clipPath>
  <clipPath id="padef9ff34b">
   <rect height="260.928" width="13.0464" x="706.144943" y="10.999219"/>
  </clipPath>
 </defs>
</svg>
