<?xml version="1.0" encoding="utf-8" standalone="no"?>
<!DOCTYPE svg PUBLIC "-//W3C//DTD SVG 1.1//EN"
  "http://www.w3.org/Graphics/SVG/1.1/DTD/svg11.dtd">
<!-- Created with matplotlib (https://matplotlib.org/) -->
<svg height="309.483469pt" version="1.1" viewBox="0 0 749.294468 309.483469" width="749.294468pt" xmlns="http://www.w3.org/2000/svg" xmlns:xlink="http://www.w3.org/1999/xlink">
 <defs>
  <style type="text/css">
*{stroke-linecap:butt;stroke-linejoin:round;}
  </style>
 </defs>
 <g id="figure_1">
  <g id="patch_1">
   <path d="M 0 309.483469 
L 749.294468 309.483469 
L 749.294468 0 
L 0 0 
z
" style="fill:none;"/>
  </g>
  <g id="axes_1">
   <g id="patch_2">
    <path d="M 40.603125 271.927219 
L 300.326761 271.927219 
L 300.326761 10.999219 
L 40.603125 10.999219 
z
" style="fill:#ffffff;"/>
   </g>
   <g id="PathCollection_1">
    <path clip-path="url(#p07ab02f9d5)" d="M 165.986949 153.005098 
L 174.942937 150.860165 
L 179.54011 145.961977 
L 182.481143 136.96446 
L 174.942937 130.125496 
L 165.986949 132.491961 
L 161.445293 136.96446 
L 159.842884 145.961977 
z
" style="fill:#471365;"/>
   </g>
   <g id="PathCollection_2">
    <path clip-path="url(#p07ab02f9d5)" d="M 165.986949 159.180359 
L 174.942937 157.410325 
L 178.118276 154.959495 
L 183.898924 148.828626 
L 185.834374 145.961977 
L 188.578492 136.96446 
L 185.736352 127.966943 
L 183.898924 126.520888 
L 174.942937 124.401454 
L 165.986949 126.359458 
L 163.363004 127.966943 
L 157.030962 134.201918 
L 155.289036 136.96446 
L 154.128586 145.961977 
L 157.030962 153.58404 
L 158.193491 154.959495 
z
M 159.842884 145.961977 
L 161.445293 136.96446 
L 165.986949 132.491961 
L 174.942937 130.125496 
L 182.481143 136.96446 
L 179.54011 145.961977 
L 174.942937 150.860165 
L 165.986949 153.005098 
z
" style="fill:#463480;"/>
   </g>
   <g id="PathCollection_3">
    <path clip-path="url(#p07ab02f9d5)" d="M 165.986949 164.463677 
L 168.592473 163.957012 
L 174.942937 162.604481 
L 183.898924 155.741817 
L 184.593351 154.959495 
L 190.653238 145.961977 
L 192.854912 139.883834 
L 193.90289 136.96446 
L 193.11056 127.966943 
L 192.854912 127.585604 
L 183.898924 120.659906 
L 174.942937 119.680345 
L 165.986949 121.922225 
L 157.030962 127.357424 
L 156.389211 127.966943 
L 150.791944 136.96446 
L 149.679762 145.961977 
L 152.748181 154.959495 
L 157.030962 160.270734 
L 164.656502 163.957012 
z
M 158.193491 154.959495 
L 157.030962 153.58404 
L 154.128586 145.961977 
L 155.289036 136.96446 
L 157.030962 134.201918 
L 163.363004 127.966943 
L 165.986949 126.359458 
L 174.942937 124.401454 
L 183.898924 126.520888 
L 185.736352 127.966943 
L 188.578492 136.96446 
L 185.834374 145.961977 
L 183.898924 148.828626 
L 178.118276 154.959495 
L 174.942937 157.410325 
L 165.986949 159.180359 
z
" style="fill:#3b528b;"/>
   </g>
   <g id="PathCollection_4">
    <path clip-path="url(#p07ab02f9d5)" d="M 157.030962 165.942607 
L 165.986949 169.206095 
L 174.942937 167.599999 
L 180.370458 163.957012 
L 183.898924 161.289542 
L 189.517777 154.959495 
L 192.854912 149.964877 
L 195.34809 145.961977 
L 198.678457 136.96446 
L 198.902883 127.966943 
L 192.878186 118.969426 
L 192.854912 118.953606 
L 183.898924 115.739654 
L 174.942937 115.506743 
L 165.986949 117.587429 
L 163.174743 118.969426 
L 157.030962 122.511292 
L 151.286807 127.966943 
L 148.074975 133.490824 
L 146.439826 136.96446 
L 145.562498 145.961977 
L 147.918651 154.959495 
L 148.074975 155.236955 
L 154.805281 163.957012 
z
M 164.656502 163.957012 
L 157.030962 160.270734 
L 152.748181 154.959495 
L 149.679762 145.961977 
L 150.791944 136.96446 
L 156.389211 127.966943 
L 157.030962 127.357424 
L 165.986949 121.922225 
L 174.942937 119.680345 
L 183.898924 120.659906 
L 192.854912 127.585604 
L 193.11056 127.966943 
L 193.90289 136.96446 
L 192.854912 139.883834 
L 190.653238 145.961977 
L 184.593351 154.959495 
L 183.898924 155.741817 
L 174.942937 162.604481 
L 168.592473 163.957012 
L 165.986949 164.463677 
z
" style="fill:#2f6c8e;"/>
   </g>
   <g id="PathCollection_5">
    <path clip-path="url(#p07ab02f9d5)" d="M 165.986949 174.049671 
L 172.314054 172.954529 
L 174.942937 172.525583 
L 183.898924 166.918221 
L 186.865653 163.957012 
L 192.854912 157.075711 
L 194.478798 154.959495 
L 199.938618 145.961977 
L 201.810899 141.081576 
L 203.598335 136.96446 
L 204.690761 127.966943 
L 201.810899 120.019719 
L 201.259345 118.969426 
L 192.854912 113.256876 
L 183.898924 111.20072 
L 174.942937 111.430201 
L 165.986949 113.456395 
L 157.030962 117.693315 
L 155.255833 118.969426 
L 148.074975 125.682335 
L 146.254371 127.966943 
L 142.308979 136.96446 
L 141.632322 145.961977 
L 143.727587 154.959495 
L 148.074975 162.675693 
L 149.063921 163.957012 
L 157.030962 171.064642 
L 162.742511 172.954529 
z
M 154.805281 163.957012 
L 148.074975 155.236955 
L 147.918651 154.959495 
L 145.562498 145.961977 
L 146.439826 136.96446 
L 148.074975 133.490824 
L 151.286807 127.966943 
L 157.030962 122.511292 
L 163.174743 118.969426 
L 165.986949 117.587429 
L 174.942937 115.506743 
L 183.898924 115.739654 
L 192.854912 118.953606 
L 192.878186 118.969426 
L 198.902883 127.966943 
L 198.678457 136.96446 
L 195.34809 145.961977 
L 192.854912 149.964877 
L 189.517777 154.959495 
L 183.898924 161.289542 
L 180.370458 163.957012 
L 174.942937 167.599999 
L 165.986949 169.206095 
L 157.030962 165.942607 
z
" style="fill:#25848e;"/>
   </g>
   <g id="PathCollection_6">
    <path clip-path="url(#p07ab02f9d5)" d="M 157.030962 176.456361 
L 165.986949 179.274732 
L 174.942937 178.115262 
L 183.36111 172.954529 
L 183.898924 172.621872 
L 192.579936 163.957012 
L 192.854912 163.641081 
L 199.516758 154.959495 
L 201.810899 151.048129 
L 205.002189 145.961977 
L 208.793324 136.96446 
L 210.474157 127.966943 
L 208.887169 118.969426 
L 201.810899 111.411103 
L 199.161209 109.971908 
L 192.854912 107.62888 
L 183.898924 106.451171 
L 174.942937 106.982609 
L 165.986949 109.192422 
L 164.201291 109.971908 
L 157.030962 112.951794 
L 148.660161 118.969426 
L 148.074975 119.516478 
L 141.340799 127.966943 
L 139.118987 133.95052 
L 138.00442 136.96446 
L 137.452407 145.961977 
L 139.118987 153.011384 
L 139.536524 154.959495 
L 143.961477 163.957012 
L 148.074975 169.16875 
L 152.444845 172.954529 
z
M 162.742511 172.954529 
L 157.030962 171.064642 
L 149.063921 163.957012 
L 148.074975 162.675693 
L 143.727587 154.959495 
L 141.632322 145.961977 
L 142.308979 136.96446 
L 146.254371 127.966943 
L 148.074975 125.682335 
L 155.255833 118.969426 
L 157.030962 117.693315 
L 165.986949 113.456395 
L 174.942937 111.430201 
L 183.898924 111.20072 
L 192.854912 113.256876 
L 201.259345 118.969426 
L 201.810899 120.019719 
L 204.690761 127.966943 
L 203.598335 136.96446 
L 201.810899 141.081576 
L 199.938618 145.961977 
L 194.478798 154.959495 
L 192.854912 157.075711 
L 186.865653 163.957012 
L 183.898924 166.918221 
L 174.942937 172.525583 
L 172.314054 172.954529 
L 165.986949 174.049671 
z
" style="fill:#1e9c89;"/>
   </g>
   <g id="PathCollection_7">
    <path clip-path="url(#p07ab02f9d5)" d="M 157.030962 182.020903 
L 165.986949 185.201202 
L 174.942937 184.32012 
L 179.186336 181.952046 
L 183.898924 179.479619 
L 190.851479 172.954529 
L 192.854912 170.958594 
L 198.741151 163.957012 
L 201.810899 159.666595 
L 205.260257 154.959495 
L 210.391583 145.961977 
L 210.766887 145.05357 
L 214.85359 136.96446 
L 217.2059 127.966943 
L 216.907743 118.969426 
L 211.575385 109.971908 
L 210.766887 109.299436 
L 201.810899 104.224072 
L 192.854912 102.094505 
L 183.898924 101.623436 
L 174.942937 102.328352 
L 165.986949 104.211985 
L 157.030962 107.762181 
L 153.380468 109.971908 
L 148.074975 113.319656 
L 141.990693 118.969426 
L 139.118987 122.926688 
L 135.87529 127.966943 
L 133.110887 136.96446 
L 132.829482 145.961977 
L 134.644258 154.959495 
L 138.96389 163.957012 
L 139.118987 164.187306 
L 145.471514 172.954529 
L 148.074975 175.712151 
L 156.935886 181.952046 
z
M 152.444845 172.954529 
L 148.074975 169.16875 
L 143.961477 163.957012 
L 139.536524 154.959495 
L 139.118987 153.011384 
L 137.452407 145.961977 
L 138.00442 136.96446 
L 139.118987 133.95052 
L 141.340799 127.966943 
L 148.074975 119.516478 
L 148.660161 118.969426 
L 157.030962 112.951794 
L 164.201291 109.971908 
L 165.986949 109.192422 
L 174.942937 106.982609 
L 183.898924 106.451171 
L 192.854912 107.62888 
L 199.161209 109.971908 
L 201.810899 111.411103 
L 208.887169 118.969426 
L 210.474157 127.966943 
L 208.793324 136.96446 
L 205.002189 145.961977 
L 201.810899 151.048129 
L 199.516758 154.959495 
L 192.854912 163.641081 
L 192.579936 163.957012 
L 183.898924 172.621872 
L 183.36111 172.954529 
L 174.942937 178.115262 
L 165.986949 179.274732 
L 157.030962 176.456361 
z
" style="fill:#2fb47c;"/>
   </g>
   <g id="PathCollection_8">
    <path clip-path="url(#p07ab02f9d5)" d="M 165.986949 192.255271 
L 174.942937 192.007546 
L 177.126355 190.949564 
L 183.898924 188.011269 
L 190.621366 181.952046 
L 192.854912 179.911639 
L 198.914916 172.954529 
L 201.810899 169.276375 
L 205.969608 163.957012 
L 210.766887 156.610431 
L 211.979805 154.959495 
L 217.620175 145.961977 
L 219.722874 141.263228 
L 222.185899 136.96446 
L 225.372846 127.966943 
L 226.273986 118.969426 
L 223.719697 109.971908 
L 219.722874 105.444171 
L 213.675742 100.974391 
L 210.766887 99.489312 
L 201.810899 96.608679 
L 192.854912 95.396431 
L 183.898924 95.328415 
L 174.942937 96.260228 
L 165.986949 98.370445 
L 159.606669 100.974391 
L 157.030962 101.814601 
L 148.074975 106.302631 
L 143.269214 109.971908 
L 139.118987 113.667763 
L 134.427132 118.969426 
L 130.163 127.393409 
L 129.856691 127.966943 
L 127.29914 136.96446 
L 127.240989 145.961977 
L 129.410797 154.959495 
L 130.163 156.572269 
L 132.894976 163.957012 
L 138.890113 172.954529 
L 139.118987 173.23573 
L 147.141106 181.952046 
L 148.074975 182.851947 
L 157.030962 189.133646 
L 162.854274 190.949564 
z
M 156.935886 181.952046 
L 148.074975 175.712151 
L 145.471514 172.954529 
L 139.118987 164.187306 
L 138.96389 163.957012 
L 134.644258 154.959495 
L 132.829482 145.961977 
L 133.110887 136.96446 
L 135.87529 127.966943 
L 139.118987 122.926688 
L 141.990693 118.969426 
L 148.074975 113.319656 
L 153.380468 109.971908 
L 157.030962 107.762181 
L 165.986949 104.211985 
L 174.942937 102.328352 
L 183.898924 101.623436 
L 192.854912 102.094505 
L 201.810899 104.224072 
L 210.766887 109.299436 
L 211.575385 109.971908 
L 216.907743 118.969426 
L 217.2059 127.966943 
L 214.85359 136.96446 
L 210.766887 145.05357 
L 210.391583 145.961977 
L 205.260257 154.959495 
L 201.810899 159.666595 
L 198.741151 163.957012 
L 192.854912 170.958594 
L 190.851479 172.954529 
L 183.898924 179.479619 
L 179.186336 181.952046 
L 174.942937 184.32012 
L 165.986949 185.201202 
L 157.030962 182.020903 
z
" style="fill:#5ec962;"/>
   </g>
   <g id="PathCollection_9">
    <path clip-path="url(#p07ab02f9d5)" d="M 165.986949 202.804845 
L 174.942937 203.888254 
L 183.898924 200.728585 
L 184.883582 199.947081 
L 192.854912 193.679923 
L 195.234159 190.949564 
L 201.810899 182.872033 
L 202.528539 181.952046 
L 209.428905 172.954529 
L 210.766887 171.02412 
L 216.192647 163.957012 
L 219.722874 158.372349 
L 222.298174 154.959495 
L 227.849885 145.961977 
L 228.678862 144.256163 
L 233.326711 136.96446 
L 236.985898 127.966943 
L 237.634849 124.941616 
L 239.575952 118.969426 
L 239.456148 109.971908 
L 237.634849 105.941044 
L 235.228041 100.974391 
L 228.678862 95.316321 
L 222.24446 91.976874 
L 219.722874 90.852325 
L 210.766887 88.116231 
L 201.810899 86.758302 
L 192.854912 86.341772 
L 183.898924 86.693718 
L 174.942937 87.847772 
L 165.986949 90.074935 
L 161.142598 91.976874 
L 157.030962 93.075927 
L 148.074975 96.780604 
L 141.788892 100.974391 
L 139.118987 102.680249 
L 131.151012 109.971908 
L 130.163 111.179599 
L 124.315639 118.969426 
L 121.207012 127.820819 
L 121.141929 127.966943 
L 119.198359 136.96446 
L 119.579243 145.961977 
L 121.207012 151.682647 
L 121.759578 154.959495 
L 124.75355 163.957012 
L 130.163 172.442873 
L 130.443043 172.954529 
L 136.946559 181.952046 
L 139.118987 184.331155 
L 146.171534 190.949564 
L 148.074975 192.702617 
L 157.030962 198.761696 
L 160.360733 199.947081 
z
M 162.854274 190.949564 
L 157.030962 189.133646 
L 148.074975 182.851947 
L 147.141106 181.952046 
L 139.118987 173.23573 
L 138.890113 172.954529 
L 132.894976 163.957012 
L 130.163 156.572269 
L 129.410797 154.959495 
L 127.240989 145.961977 
L 127.29914 136.96446 
L 129.856691 127.966943 
L 130.163 127.393409 
L 134.427132 118.969426 
L 139.118987 113.667763 
L 143.269214 109.971908 
L 148.074975 106.302631 
L 157.030962 101.814601 
L 159.606669 100.974391 
L 165.986949 98.370445 
L 174.942937 96.260228 
L 183.898924 95.328415 
L 192.854912 95.396431 
L 201.810899 96.608679 
L 210.766887 99.489312 
L 213.675742 100.974391 
L 219.722874 105.444171 
L 223.719697 109.971908 
L 226.273986 118.969426 
L 225.372846 127.966943 
L 222.185899 136.96446 
L 219.722874 141.263228 
L 217.620175 145.961977 
L 211.979805 154.959495 
L 210.766887 156.610431 
L 205.969608 163.957012 
L 201.810899 169.276375 
L 198.914916 172.954529 
L 192.854912 179.911639 
L 190.621366 181.952046 
L 183.898924 188.011269 
L 177.126355 190.949564 
L 174.942937 192.007546 
L 165.986949 192.255271 
z
" style="fill:#9bd93c;"/>
   </g>
   <g id="PathCollection_10">
    <path clip-path="url(#p07ab02f9d5)" d="M 49.559112 271.927219 
L 58.5151 271.927219 
L 67.471087 271.927219 
L 76.427075 271.927219 
L 85.383062 271.927219 
L 94.33905 271.927219 
L 103.295037 271.927219 
L 112.251025 271.927219 
L 121.207012 271.927219 
L 130.163 271.927219 
L 139.118987 271.927219 
L 148.074975 271.927219 
L 157.030962 271.927219 
L 165.986949 271.927219 
L 174.942937 271.927219 
L 183.898924 271.927219 
L 192.854912 271.927219 
L 201.810899 271.927219 
L 210.766887 271.927219 
L 219.722874 271.927219 
L 228.678862 271.927219 
L 237.634849 271.927219 
L 246.590837 271.927219 
L 255.546824 271.927219 
L 264.502812 271.927219 
L 273.458799 271.927219 
L 282.414786 271.927219 
L 291.370774 271.927219 
L 300.326761 271.927219 
L 300.326761 262.929702 
L 300.326761 253.932184 
L 300.326761 244.934667 
L 300.326761 235.93715 
L 300.326761 226.939633 
L 300.326761 217.942115 
L 300.326761 208.944598 
L 300.326761 199.947081 
L 300.326761 190.949564 
L 300.326761 181.952046 
L 300.326761 172.954529 
L 300.326761 163.957012 
L 300.326761 154.959495 
L 300.326761 145.961977 
L 300.326761 136.96446 
L 300.326761 127.966943 
L 300.326761 118.969426 
L 300.326761 109.971908 
L 300.326761 100.974391 
L 300.326761 91.976874 
L 300.326761 82.979357 
L 300.326761 73.981839 
L 300.326761 64.984322 
L 300.326761 55.986805 
L 300.326761 46.989288 
L 300.326761 37.99177 
L 300.326761 28.994253 
L 300.326761 19.996736 
L 300.326761 10.999219 
L 291.370774 10.999219 
L 282.414786 10.999219 
L 273.458799 10.999219 
L 264.502812 10.999219 
L 255.546824 10.999219 
L 246.590837 10.999219 
L 237.634849 10.999219 
L 228.678862 10.999219 
L 219.722874 10.999219 
L 210.766887 10.999219 
L 201.810899 10.999219 
L 192.854912 10.999219 
L 183.898924 10.999219 
L 174.942937 10.999219 
L 165.986949 10.999219 
L 157.030962 10.999219 
L 148.074975 10.999219 
L 139.118987 10.999219 
L 130.163 10.999219 
L 121.207012 10.999219 
L 112.251025 10.999219 
L 103.295037 10.999219 
L 94.33905 10.999219 
L 85.383062 10.999219 
L 76.427075 10.999219 
L 67.471087 10.999219 
L 58.5151 10.999219 
L 49.559112 10.999219 
L 40.603125 10.999219 
L 40.603125 19.996736 
L 40.603125 28.994253 
L 40.603125 37.99177 
L 40.603125 46.989288 
L 40.603125 55.986805 
L 40.603125 64.984322 
L 40.603125 73.981839 
L 40.603125 82.979357 
L 40.603125 91.976874 
L 40.603125 100.974391 
L 40.603125 109.971908 
L 40.603125 118.969426 
L 40.603125 127.966943 
L 40.603125 136.96446 
L 40.603125 145.961977 
L 40.603125 154.959495 
L 40.603125 163.957012 
L 40.603125 172.954529 
L 40.603125 181.952046 
L 40.603125 190.949564 
L 40.603125 199.947081 
L 40.603125 208.944598 
L 40.603125 217.942115 
L 40.603125 226.939633 
L 40.603125 235.93715 
L 40.603125 244.934667 
L 40.603125 253.932184 
L 40.603125 262.929702 
L 40.603125 271.927219 
z
M 160.360733 199.947081 
L 157.030962 198.761696 
L 148.074975 192.702617 
L 146.171534 190.949564 
L 139.118987 184.331155 
L 136.946559 181.952046 
L 130.443043 172.954529 
L 130.163 172.442873 
L 124.75355 163.957012 
L 121.759578 154.959495 
L 121.207012 151.682647 
L 119.579243 145.961977 
L 119.198359 136.96446 
L 121.141929 127.966943 
L 121.207012 127.820819 
L 124.315639 118.969426 
L 130.163 111.179599 
L 131.151012 109.971908 
L 139.118987 102.680249 
L 141.788892 100.974391 
L 148.074975 96.780604 
L 157.030962 93.075927 
L 161.142598 91.976874 
L 165.986949 90.074935 
L 174.942937 87.847772 
L 183.898924 86.693718 
L 192.854912 86.341772 
L 201.810899 86.758302 
L 210.766887 88.116231 
L 219.722874 90.852325 
L 222.24446 91.976874 
L 228.678862 95.316321 
L 235.228041 100.974391 
L 237.634849 105.941044 
L 239.456148 109.971908 
L 239.575952 118.969426 
L 237.634849 124.941616 
L 236.985898 127.966943 
L 233.326711 136.96446 
L 228.678862 144.256163 
L 227.849885 145.961977 
L 222.298174 154.959495 
L 219.722874 158.372349 
L 216.192647 163.957012 
L 210.766887 171.02412 
L 209.428905 172.954529 
L 202.528539 181.952046 
L 201.810899 182.872033 
L 195.234159 190.949564 
L 192.854912 193.679923 
L 184.883582 199.947081 
L 183.898924 200.728585 
L 174.942937 203.888254 
L 165.986949 202.804845 
z
" style="fill:#dfe318;"/>
   </g>
   <g id="matplotlib.axis_1">
    <g id="xtick_1">
     <g id="line2d_1">
      <defs>
       <path d="M 0 0 
L 0 3.5 
" id="m5f06de04f3" style="stroke:#000000;stroke-width:0.8;"/>
      </defs>
      <g>
       <use style="stroke:#000000;stroke-width:0.8;" x="68.054365" xlink:href="#m5f06de04f3" y="271.927219"/>
      </g>
     </g>
     <g id="text_1">
      <!-- 2.4 -->
      <defs>
       <path d="M 19.1875 8.296875 
L 53.609375 8.296875 
L 53.609375 0 
L 7.328125 0 
L 7.328125 8.296875 
Q 12.9375 14.109375 22.625 23.890625 
Q 32.328125 33.6875 34.8125 36.53125 
Q 39.546875 41.84375 41.421875 45.53125 
Q 43.3125 49.21875 43.3125 52.78125 
Q 43.3125 58.59375 39.234375 62.25 
Q 35.15625 65.921875 28.609375 65.921875 
Q 23.96875 65.921875 18.8125 64.3125 
Q 13.671875 62.703125 7.8125 59.421875 
L 7.8125 69.390625 
Q 13.765625 71.78125 18.9375 73 
Q 24.125 74.21875 28.421875 74.21875 
Q 39.75 74.21875 46.484375 68.546875 
Q 53.21875 62.890625 53.21875 53.421875 
Q 53.21875 48.921875 51.53125 44.890625 
Q 49.859375 40.875 45.40625 35.40625 
Q 44.1875 33.984375 37.640625 27.21875 
Q 31.109375 20.453125 19.1875 8.296875 
z
" id="DejaVuSans-50"/>
       <path d="M 10.6875 12.40625 
L 21 12.40625 
L 21 0 
L 10.6875 0 
z
" id="DejaVuSans-46"/>
       <path d="M 37.796875 64.3125 
L 12.890625 25.390625 
L 37.796875 25.390625 
z
M 35.203125 72.90625 
L 47.609375 72.90625 
L 47.609375 25.390625 
L 58.015625 25.390625 
L 58.015625 17.1875 
L 47.609375 17.1875 
L 47.609375 0 
L 37.796875 0 
L 37.796875 17.1875 
L 4.890625 17.1875 
L 4.890625 26.703125 
z
" id="DejaVuSans-52"/>
      </defs>
      <g transform="translate(60.102802 286.525656)scale(0.1 -0.1)">
       <use xlink:href="#DejaVuSans-50"/>
       <use x="63.623047" xlink:href="#DejaVuSans-46"/>
       <use x="95.410156" xlink:href="#DejaVuSans-52"/>
      </g>
     </g>
    </g>
    <g id="xtick_2">
     <g id="line2d_2">
      <g>
       <use style="stroke:#000000;stroke-width:0.8;" x="102.993588" xlink:href="#m5f06de04f3" y="271.927219"/>
      </g>
     </g>
     <g id="text_2">
      <!-- 2.6 -->
      <defs>
       <path d="M 33.015625 40.375 
Q 26.375 40.375 22.484375 35.828125 
Q 18.609375 31.296875 18.609375 23.390625 
Q 18.609375 15.53125 22.484375 10.953125 
Q 26.375 6.390625 33.015625 6.390625 
Q 39.65625 6.390625 43.53125 10.953125 
Q 47.40625 15.53125 47.40625 23.390625 
Q 47.40625 31.296875 43.53125 35.828125 
Q 39.65625 40.375 33.015625 40.375 
z
M 52.59375 71.296875 
L 52.59375 62.3125 
Q 48.875 64.0625 45.09375 64.984375 
Q 41.3125 65.921875 37.59375 65.921875 
Q 27.828125 65.921875 22.671875 59.328125 
Q 17.53125 52.734375 16.796875 39.40625 
Q 19.671875 43.65625 24.015625 45.921875 
Q 28.375 48.1875 33.59375 48.1875 
Q 44.578125 48.1875 50.953125 41.515625 
Q 57.328125 34.859375 57.328125 23.390625 
Q 57.328125 12.15625 50.6875 5.359375 
Q 44.046875 -1.421875 33.015625 -1.421875 
Q 20.359375 -1.421875 13.671875 8.265625 
Q 6.984375 17.96875 6.984375 36.375 
Q 6.984375 53.65625 15.1875 63.9375 
Q 23.390625 74.21875 37.203125 74.21875 
Q 40.921875 74.21875 44.703125 73.484375 
Q 48.484375 72.75 52.59375 71.296875 
z
" id="DejaVuSans-54"/>
      </defs>
      <g transform="translate(95.042025 286.525656)scale(0.1 -0.1)">
       <use xlink:href="#DejaVuSans-50"/>
       <use x="63.623047" xlink:href="#DejaVuSans-46"/>
       <use x="95.410156" xlink:href="#DejaVuSans-54"/>
      </g>
     </g>
    </g>
    <g id="xtick_3">
     <g id="line2d_3">
      <g>
       <use style="stroke:#000000;stroke-width:0.8;" x="137.932811" xlink:href="#m5f06de04f3" y="271.927219"/>
      </g>
     </g>
     <g id="text_3">
      <!-- 2.8 -->
      <defs>
       <path d="M 31.78125 34.625 
Q 24.75 34.625 20.71875 30.859375 
Q 16.703125 27.09375 16.703125 20.515625 
Q 16.703125 13.921875 20.71875 10.15625 
Q 24.75 6.390625 31.78125 6.390625 
Q 38.8125 6.390625 42.859375 10.171875 
Q 46.921875 13.96875 46.921875 20.515625 
Q 46.921875 27.09375 42.890625 30.859375 
Q 38.875 34.625 31.78125 34.625 
z
M 21.921875 38.8125 
Q 15.578125 40.375 12.03125 44.71875 
Q 8.5 49.078125 8.5 55.328125 
Q 8.5 64.0625 14.71875 69.140625 
Q 20.953125 74.21875 31.78125 74.21875 
Q 42.671875 74.21875 48.875 69.140625 
Q 55.078125 64.0625 55.078125 55.328125 
Q 55.078125 49.078125 51.53125 44.71875 
Q 48 40.375 41.703125 38.8125 
Q 48.828125 37.15625 52.796875 32.3125 
Q 56.78125 27.484375 56.78125 20.515625 
Q 56.78125 9.90625 50.3125 4.234375 
Q 43.84375 -1.421875 31.78125 -1.421875 
Q 19.734375 -1.421875 13.25 4.234375 
Q 6.78125 9.90625 6.78125 20.515625 
Q 6.78125 27.484375 10.78125 32.3125 
Q 14.796875 37.15625 21.921875 38.8125 
z
M 18.3125 54.390625 
Q 18.3125 48.734375 21.84375 45.5625 
Q 25.390625 42.390625 31.78125 42.390625 
Q 38.140625 42.390625 41.71875 45.5625 
Q 45.3125 48.734375 45.3125 54.390625 
Q 45.3125 60.0625 41.71875 63.234375 
Q 38.140625 66.40625 31.78125 66.40625 
Q 25.390625 66.40625 21.84375 63.234375 
Q 18.3125 60.0625 18.3125 54.390625 
z
" id="DejaVuSans-56"/>
      </defs>
      <g transform="translate(129.981249 286.525656)scale(0.1 -0.1)">
       <use xlink:href="#DejaVuSans-50"/>
       <use x="63.623047" xlink:href="#DejaVuSans-46"/>
       <use x="95.410156" xlink:href="#DejaVuSans-56"/>
      </g>
     </g>
    </g>
    <g id="xtick_4">
     <g id="line2d_4">
      <g>
       <use style="stroke:#000000;stroke-width:0.8;" x="172.872035" xlink:href="#m5f06de04f3" y="271.927219"/>
      </g>
     </g>
     <g id="text_4">
      <!-- 3.0 -->
      <defs>
       <path d="M 40.578125 39.3125 
Q 47.65625 37.796875 51.625 33 
Q 55.609375 28.21875 55.609375 21.1875 
Q 55.609375 10.40625 48.1875 4.484375 
Q 40.765625 -1.421875 27.09375 -1.421875 
Q 22.515625 -1.421875 17.65625 -0.515625 
Q 12.796875 0.390625 7.625 2.203125 
L 7.625 11.71875 
Q 11.71875 9.328125 16.59375 8.109375 
Q 21.484375 6.890625 26.8125 6.890625 
Q 36.078125 6.890625 40.9375 10.546875 
Q 45.796875 14.203125 45.796875 21.1875 
Q 45.796875 27.640625 41.28125 31.265625 
Q 36.765625 34.90625 28.71875 34.90625 
L 20.21875 34.90625 
L 20.21875 43.015625 
L 29.109375 43.015625 
Q 36.375 43.015625 40.234375 45.921875 
Q 44.09375 48.828125 44.09375 54.296875 
Q 44.09375 59.90625 40.109375 62.90625 
Q 36.140625 65.921875 28.71875 65.921875 
Q 24.65625 65.921875 20.015625 65.03125 
Q 15.375 64.15625 9.8125 62.3125 
L 9.8125 71.09375 
Q 15.4375 72.65625 20.34375 73.4375 
Q 25.25 74.21875 29.59375 74.21875 
Q 40.828125 74.21875 47.359375 69.109375 
Q 53.90625 64.015625 53.90625 55.328125 
Q 53.90625 49.265625 50.4375 45.09375 
Q 46.96875 40.921875 40.578125 39.3125 
z
" id="DejaVuSans-51"/>
       <path d="M 31.78125 66.40625 
Q 24.171875 66.40625 20.328125 58.90625 
Q 16.5 51.421875 16.5 36.375 
Q 16.5 21.390625 20.328125 13.890625 
Q 24.171875 6.390625 31.78125 6.390625 
Q 39.453125 6.390625 43.28125 13.890625 
Q 47.125 21.390625 47.125 36.375 
Q 47.125 51.421875 43.28125 58.90625 
Q 39.453125 66.40625 31.78125 66.40625 
z
M 31.78125 74.21875 
Q 44.046875 74.21875 50.515625 64.515625 
Q 56.984375 54.828125 56.984375 36.375 
Q 56.984375 17.96875 50.515625 8.265625 
Q 44.046875 -1.421875 31.78125 -1.421875 
Q 19.53125 -1.421875 13.0625 8.265625 
Q 6.59375 17.96875 6.59375 36.375 
Q 6.59375 54.828125 13.0625 64.515625 
Q 19.53125 74.21875 31.78125 74.21875 
z
" id="DejaVuSans-48"/>
      </defs>
      <g transform="translate(164.920472 286.525656)scale(0.1 -0.1)">
       <use xlink:href="#DejaVuSans-51"/>
       <use x="63.623047" xlink:href="#DejaVuSans-46"/>
       <use x="95.410156" xlink:href="#DejaVuSans-48"/>
      </g>
     </g>
    </g>
    <g id="xtick_5">
     <g id="line2d_5">
      <g>
       <use style="stroke:#000000;stroke-width:0.8;" x="207.811258" xlink:href="#m5f06de04f3" y="271.927219"/>
      </g>
     </g>
     <g id="text_5">
      <!-- 3.2 -->
      <g transform="translate(199.859695 286.525656)scale(0.1 -0.1)">
       <use xlink:href="#DejaVuSans-51"/>
       <use x="63.623047" xlink:href="#DejaVuSans-46"/>
       <use x="95.410156" xlink:href="#DejaVuSans-50"/>
      </g>
     </g>
    </g>
    <g id="xtick_6">
     <g id="line2d_6">
      <g>
       <use style="stroke:#000000;stroke-width:0.8;" x="242.750481" xlink:href="#m5f06de04f3" y="271.927219"/>
      </g>
     </g>
     <g id="text_6">
      <!-- 3.4 -->
      <g transform="translate(234.798919 286.525656)scale(0.1 -0.1)">
       <use xlink:href="#DejaVuSans-51"/>
       <use x="63.623047" xlink:href="#DejaVuSans-46"/>
       <use x="95.410156" xlink:href="#DejaVuSans-52"/>
      </g>
     </g>
    </g>
    <g id="xtick_7">
     <g id="line2d_7">
      <g>
       <use style="stroke:#000000;stroke-width:0.8;" x="277.689705" xlink:href="#m5f06de04f3" y="271.927219"/>
      </g>
     </g>
     <g id="text_7">
      <!-- 3.6 -->
      <g transform="translate(269.738142 286.525656)scale(0.1 -0.1)">
       <use xlink:href="#DejaVuSans-51"/>
       <use x="63.623047" xlink:href="#DejaVuSans-46"/>
       <use x="95.410156" xlink:href="#DejaVuSans-54"/>
      </g>
     </g>
    </g>
    <g id="text_8">
     <!-- a1 -->
     <defs>
      <path d="M 34.28125 27.484375 
Q 23.390625 27.484375 19.1875 25 
Q 14.984375 22.515625 14.984375 16.5 
Q 14.984375 11.71875 18.140625 8.90625 
Q 21.296875 6.109375 26.703125 6.109375 
Q 34.1875 6.109375 38.703125 11.40625 
Q 43.21875 16.703125 43.21875 25.484375 
L 43.21875 27.484375 
z
M 52.203125 31.203125 
L 52.203125 0 
L 43.21875 0 
L 43.21875 8.296875 
Q 40.140625 3.328125 35.546875 0.953125 
Q 30.953125 -1.421875 24.3125 -1.421875 
Q 15.921875 -1.421875 10.953125 3.296875 
Q 6 8.015625 6 15.921875 
Q 6 25.140625 12.171875 29.828125 
Q 18.359375 34.515625 30.609375 34.515625 
L 43.21875 34.515625 
L 43.21875 35.40625 
Q 43.21875 41.609375 39.140625 45 
Q 35.0625 48.390625 27.6875 48.390625 
Q 23 48.390625 18.546875 47.265625 
Q 14.109375 46.140625 10.015625 43.890625 
L 10.015625 52.203125 
Q 14.9375 54.109375 19.578125 55.046875 
Q 24.21875 56 28.609375 56 
Q 40.484375 56 46.34375 49.84375 
Q 52.203125 43.703125 52.203125 31.203125 
z
" id="DejaVuSans-97"/>
      <path d="M 12.40625 8.296875 
L 28.515625 8.296875 
L 28.515625 63.921875 
L 10.984375 60.40625 
L 10.984375 69.390625 
L 28.421875 72.90625 
L 38.28125 72.90625 
L 38.28125 8.296875 
L 54.390625 8.296875 
L 54.390625 0 
L 12.40625 0 
z
" id="DejaVuSans-49"/>
     </defs>
     <g transform="translate(164.219631 300.203781)scale(0.1 -0.1)">
      <use xlink:href="#DejaVuSans-97"/>
      <use x="61.279297" xlink:href="#DejaVuSans-49"/>
     </g>
    </g>
   </g>
   <g id="matplotlib.axis_2">
    <g id="ytick_1">
     <g id="line2d_8">
      <defs>
       <path d="M 0 0 
L -3.5 0 
" id="me370f5eedf" style="stroke:#000000;stroke-width:0.8;"/>
      </defs>
      <g>
       <use style="stroke:#000000;stroke-width:0.8;" x="40.603125" xlink:href="#me370f5eedf" y="244.224185"/>
      </g>
     </g>
     <g id="text_9">
      <!-- 10 -->
      <g transform="translate(20.878125 248.023404)scale(0.1 -0.1)">
       <use xlink:href="#DejaVuSans-49"/>
       <use x="63.623047" xlink:href="#DejaVuSans-48"/>
      </g>
     </g>
    </g>
    <g id="ytick_2">
     <g id="line2d_9">
      <g>
       <use style="stroke:#000000;stroke-width:0.8;" x="40.603125" xlink:href="#me370f5eedf" y="187.887048"/>
      </g>
     </g>
     <g id="text_10">
      <!-- 11 -->
      <g transform="translate(20.878125 191.686266)scale(0.1 -0.1)">
       <use xlink:href="#DejaVuSans-49"/>
       <use x="63.623047" xlink:href="#DejaVuSans-49"/>
      </g>
     </g>
    </g>
    <g id="ytick_3">
     <g id="line2d_10">
      <g>
       <use style="stroke:#000000;stroke-width:0.8;" x="40.603125" xlink:href="#me370f5eedf" y="131.549911"/>
      </g>
     </g>
     <g id="text_11">
      <!-- 12 -->
      <g transform="translate(20.878125 135.349129)scale(0.1 -0.1)">
       <use xlink:href="#DejaVuSans-49"/>
       <use x="63.623047" xlink:href="#DejaVuSans-50"/>
      </g>
     </g>
    </g>
    <g id="ytick_4">
     <g id="line2d_11">
      <g>
       <use style="stroke:#000000;stroke-width:0.8;" x="40.603125" xlink:href="#me370f5eedf" y="75.212774"/>
      </g>
     </g>
     <g id="text_12">
      <!-- 13 -->
      <g transform="translate(20.878125 79.011992)scale(0.1 -0.1)">
       <use xlink:href="#DejaVuSans-49"/>
       <use x="63.623047" xlink:href="#DejaVuSans-51"/>
      </g>
     </g>
    </g>
    <g id="ytick_5">
     <g id="line2d_12">
      <g>
       <use style="stroke:#000000;stroke-width:0.8;" x="40.603125" xlink:href="#me370f5eedf" y="18.875636"/>
      </g>
     </g>
     <g id="text_13">
      <!-- 14 -->
      <g transform="translate(20.878125 22.674855)scale(0.1 -0.1)">
       <use xlink:href="#DejaVuSans-49"/>
       <use x="63.623047" xlink:href="#DejaVuSans-52"/>
      </g>
     </g>
    </g>
    <g id="text_14">
     <!-- t2 -->
     <defs>
      <path d="M 18.3125 70.21875 
L 18.3125 54.6875 
L 36.8125 54.6875 
L 36.8125 47.703125 
L 18.3125 47.703125 
L 18.3125 18.015625 
Q 18.3125 11.328125 20.140625 9.421875 
Q 21.96875 7.515625 27.59375 7.515625 
L 36.8125 7.515625 
L 36.8125 0 
L 27.59375 0 
Q 17.1875 0 13.234375 3.875 
Q 9.28125 7.765625 9.28125 18.015625 
L 9.28125 47.703125 
L 2.6875 47.703125 
L 2.6875 54.6875 
L 9.28125 54.6875 
L 9.28125 70.21875 
z
" id="DejaVuSans-116"/>
     </defs>
     <g transform="translate(14.798438 146.604625)rotate(-90)scale(0.1 -0.1)">
      <use xlink:href="#DejaVuSans-116"/>
      <use x="39.208984" xlink:href="#DejaVuSans-50"/>
     </g>
    </g>
   </g>
   <g id="patch_3">
    <path d="M 40.603125 271.927219 
L 40.603125 10.999219 
" style="fill:none;stroke:#000000;stroke-linecap:square;stroke-linejoin:miter;stroke-width:0.8;"/>
   </g>
   <g id="patch_4">
    <path d="M 300.326761 271.927219 
L 300.326761 10.999219 
" style="fill:none;stroke:#000000;stroke-linecap:square;stroke-linejoin:miter;stroke-width:0.8;"/>
   </g>
   <g id="patch_5">
    <path d="M 40.603125 271.927219 
L 300.326761 271.927219 
" style="fill:none;stroke:#000000;stroke-linecap:square;stroke-linejoin:miter;stroke-width:0.8;"/>
   </g>
   <g id="patch_6">
    <path d="M 40.603125 10.999219 
L 300.326761 10.999219 
" style="fill:none;stroke:#000000;stroke-linecap:square;stroke-linejoin:miter;stroke-width:0.8;"/>
   </g>
  </g>
  <g id="axes_2">
   <g id="patch_7">
    <path d="M 430.18858 271.927219 
L 689.912216 271.927219 
L 689.912216 10.999219 
L 430.18858 10.999219 
z
" style="fill:#ffffff;"/>
   </g>
   <g id="PathCollection_11">
    <path clip-path="url(#pccda0778f1)" d="M 555.572404 146.818076 
L 556.435221 145.961977 
L 555.572404 145.077569 
L 554.676815 145.961977 
z
" style="fill:#471365;"/>
    <path clip-path="url(#pccda0778f1)" d="M 564.528391 137.825885 
L 565.367078 136.96446 
L 564.528391 136.087676 
L 563.653531 136.96446 
z
" style="fill:#471365;"/>
   </g>
   <g id="PathCollection_12">
    <path clip-path="url(#pccda0778f1)" d="M 546.616417 155.81637 
L 547.503036 154.959495 
L 546.616417 154.016885 
L 545.639908 154.959495 
z
" style="fill:#463480;"/>
    <path clip-path="url(#pccda0778f1)" d="M 555.572404 147.81461 
L 557.439576 145.961977 
L 555.572404 144.048082 
L 553.634312 145.961977 
z
M 554.676815 145.961977 
L 555.572404 145.077569 
L 556.435221 145.961977 
L 555.572404 146.818076 
z
" style="fill:#463480;"/>
    <path clip-path="url(#pccda0778f1)" d="M 564.528391 138.835566 
L 566.350108 136.96446 
L 564.528391 135.059992 
L 562.628102 136.96446 
z
M 563.653531 136.96446 
L 564.528391 136.087676 
L 565.367078 136.96446 
L 564.528391 137.825885 
z
" style="fill:#463480;"/>
    <path clip-path="url(#pccda0778f1)" d="M 573.484379 128.698352 
L 574.181005 127.966943 
L 573.484379 127.192307 
L 572.722043 127.966943 
z
" style="fill:#463480;"/>
   </g>
   <g id="PathCollection_13">
    <path clip-path="url(#pccda0778f1)" d="M 546.616417 156.904089 
L 548.628512 154.959495 
L 546.616417 152.820335 
L 544.400327 154.959495 
z
M 545.639908 154.959495 
L 546.616417 154.016885 
L 547.503036 154.959495 
L 546.616417 155.81637 
z
" style="fill:#3b528b;"/>
    <path clip-path="url(#pccda0778f1)" d="M 555.572404 148.811144 
L 558.44393 145.961977 
L 555.572404 143.018594 
L 552.591809 145.961977 
z
M 553.634312 145.961977 
L 555.572404 144.048082 
L 557.439576 145.961977 
L 555.572404 147.81461 
z
" style="fill:#3b528b;"/>
    <path clip-path="url(#pccda0778f1)" d="M 564.528391 139.845247 
L 567.333138 136.96446 
L 564.528391 134.032308 
L 561.602672 136.96446 
z
M 562.628102 136.96446 
L 564.528391 135.059992 
L 566.350108 136.96446 
L 564.528391 138.835566 
z
" style="fill:#3b528b;"/>
    <path clip-path="url(#pccda0778f1)" d="M 573.484379 129.837338 
L 575.265824 127.966943 
L 573.484379 125.986008 
L 571.534897 127.966943 
z
M 572.722043 127.966943 
L 573.484379 127.192307 
L 574.181005 127.966943 
L 573.484379 128.698352 
z
" style="fill:#3b528b;"/>
   </g>
   <g id="PathCollection_14">
    <path clip-path="url(#pccda0778f1)" d="M 537.660429 165.092259 
L 538.84306 163.957012 
L 537.660429 162.532945 
L 536.117588 163.957012 
z
" style="fill:#2f6c8e;"/>
    <path clip-path="url(#pccda0778f1)" d="M 546.616417 157.991808 
L 549.753989 154.959495 
L 546.616417 151.623784 
L 543.160746 154.959495 
z
M 544.400327 154.959495 
L 546.616417 152.820335 
L 548.628512 154.959495 
L 546.616417 156.904089 
z
" style="fill:#2f6c8e;"/>
    <path clip-path="url(#pccda0778f1)" d="M 555.572404 149.807677 
L 559.448285 145.961977 
L 555.572404 141.989106 
L 551.549306 145.961977 
z
M 552.591809 145.961977 
L 555.572404 143.018594 
L 558.44393 145.961977 
L 555.572404 148.811144 
z
" style="fill:#2f6c8e;"/>
    <path clip-path="url(#pccda0778f1)" d="M 564.528391 140.854929 
L 568.316168 136.96446 
L 564.528391 133.004624 
L 560.577243 136.96446 
z
M 561.602672 136.96446 
L 564.528391 134.032308 
L 567.333138 136.96446 
L 564.528391 139.845247 
z
" style="fill:#2f6c8e;"/>
    <path clip-path="url(#pccda0778f1)" d="M 573.484379 130.976324 
L 576.350643 127.966943 
L 573.484379 124.779709 
L 570.347751 127.966943 
z
M 571.534897 127.966943 
L 573.484379 125.986008 
L 575.265824 127.966943 
L 573.484379 129.837338 
z
" style="fill:#2f6c8e;"/>
    <path clip-path="url(#pccda0778f1)" d="M 582.440366 119.416585 
L 582.86634 118.969426 
L 582.440366 118.43719 
L 581.925855 118.969426 
z
" style="fill:#2f6c8e;"/>
   </g>
   <g id="PathCollection_15">
    <path clip-path="url(#pccda0778f1)" d="M 537.660429 166.452893 
L 540.260484 163.957012 
L 537.660429 160.826152 
L 534.268438 163.957012 
z
M 536.117588 163.957012 
L 537.660429 162.532945 
L 538.84306 163.957012 
L 537.660429 165.092259 
z
" style="fill:#25848e;"/>
    <path clip-path="url(#pccda0778f1)" d="M 546.616417 159.079527 
L 550.879465 154.959495 
L 555.572404 150.804211 
L 560.452639 145.961977 
L 564.528391 141.86461 
L 569.299198 136.96446 
L 573.484379 132.115309 
L 577.435462 127.966943 
L 573.484379 123.573409 
L 569.160606 127.966943 
L 564.528391 131.97694 
L 559.551814 136.96446 
L 555.572404 140.959619 
L 550.506803 145.961977 
L 546.616417 150.427234 
L 541.921165 154.959495 
z
M 543.160746 154.959495 
L 546.616417 151.623784 
L 549.753989 154.959495 
L 546.616417 157.991808 
z
M 551.549306 145.961977 
L 555.572404 141.989106 
L 559.448285 145.961977 
L 555.572404 149.807677 
z
M 560.577243 136.96446 
L 564.528391 133.004624 
L 568.316168 136.96446 
L 564.528391 140.854929 
z
M 570.347751 127.966943 
L 573.484379 124.779709 
L 576.350643 127.966943 
L 573.484379 130.976324 
z
" style="fill:#25848e;"/>
    <path clip-path="url(#pccda0778f1)" d="M 582.440366 120.93974 
L 584.317327 118.969426 
L 582.440366 116.624241 
L 580.173282 118.969426 
z
M 581.925855 118.969426 
L 582.440366 118.43719 
L 582.86634 118.969426 
L 582.440366 119.416585 
z
" style="fill:#25848e;"/>
   </g>
   <g id="PathCollection_16">
    <path clip-path="url(#pccda0778f1)" d="M 528.704442 173.792167 
L 529.569885 172.954529 
L 528.704442 171.447537 
L 526.869147 172.954529 
z
" style="fill:#1e9c89;"/>
    <path clip-path="url(#pccda0778f1)" d="M 537.660429 167.813527 
L 541.677909 163.957012 
L 546.616417 160.167246 
L 552.004941 154.959495 
L 555.572404 151.800745 
L 561.456994 145.961977 
L 564.528391 142.874291 
L 570.282228 136.96446 
L 573.484379 133.254295 
L 578.520282 127.966943 
L 582.440366 122.462895 
L 585.768315 118.969426 
L 582.440366 114.811292 
L 578.420708 118.969426 
L 573.484379 122.36711 
L 567.97346 127.966943 
L 564.528391 130.949256 
L 558.526384 136.96446 
L 555.572404 139.930131 
L 549.4643 145.961977 
L 546.616417 149.230683 
L 540.681583 154.959495 
L 537.660429 159.119358 
L 532.419289 163.957012 
z
M 534.268438 163.957012 
L 537.660429 160.826152 
L 540.260484 163.957012 
L 537.660429 166.452893 
z
M 541.921165 154.959495 
L 546.616417 150.427234 
L 550.506803 145.961977 
L 555.572404 140.959619 
L 559.551814 136.96446 
L 564.528391 131.97694 
L 569.160606 127.966943 
L 573.484379 123.573409 
L 577.435462 127.966943 
L 573.484379 132.115309 
L 569.299198 136.96446 
L 564.528391 141.86461 
L 560.452639 145.961977 
L 555.572404 150.804211 
L 550.879465 154.959495 
L 546.616417 159.079527 
z
M 580.173282 118.969426 
L 582.440366 116.624241 
L 584.317327 118.969426 
L 582.440366 120.93974 
z
" style="fill:#1e9c89;"/>
   </g>
   <g id="PathCollection_17">
    <path clip-path="url(#pccda0778f1)" d="M 528.704442 175.864641 
L 531.711154 172.954529 
L 537.660429 169.174161 
L 543.095334 163.957012 
L 546.616417 161.254964 
L 553.130418 154.959495 
L 555.572404 152.797279 
L 562.461349 145.961977 
L 564.528391 143.883972 
L 571.265258 136.96446 
L 573.484379 134.393281 
L 579.605101 127.966943 
L 582.440366 123.98605 
L 587.219302 118.969426 
L 582.440366 112.998343 
L 576.668135 118.969426 
L 573.484379 121.16081 
L 566.786314 127.966943 
L 564.528391 129.921573 
L 557.500955 136.96446 
L 555.572404 138.900644 
L 548.421797 145.961977 
L 546.616417 148.034133 
L 539.442002 154.959495 
L 537.660429 157.412564 
L 530.570139 163.957012 
L 528.704442 167.718958 
L 522.328286 172.954529 
z
M 526.869147 172.954529 
L 528.704442 171.447537 
L 529.569885 172.954529 
L 528.704442 173.792167 
z
M 532.419289 163.957012 
L 537.660429 159.119358 
L 540.681583 154.959495 
L 546.616417 149.230683 
L 549.4643 145.961977 
L 555.572404 139.930131 
L 558.526384 136.96446 
L 564.528391 130.949256 
L 567.97346 127.966943 
L 573.484379 122.36711 
L 578.420708 118.969426 
L 582.440366 114.811292 
L 585.768315 118.969426 
L 582.440366 122.462895 
L 578.520282 127.966943 
L 573.484379 133.254295 
L 570.282228 136.96446 
L 564.528391 142.874291 
L 561.456994 145.961977 
L 555.572404 151.800745 
L 552.004941 154.959495 
L 546.616417 160.167246 
L 541.677909 163.957012 
L 537.660429 167.813527 
z
" style="fill:#2fb47c;"/>
    <path clip-path="url(#pccda0778f1)" d="M 591.396354 111.170534 
L 592.55421 109.971908 
L 591.396354 108.008608 
L 589.519975 109.971908 
z
" style="fill:#2fb47c;"/>
   </g>
   <g id="PathCollection_18">
    <path clip-path="url(#pccda0778f1)" d="M 501.836479 191.480085 
L 502.590836 190.949564 
L 501.836479 190.409108 
L 501.229507 190.949564 
z
" style="fill:#5ec962;"/>
    <path clip-path="url(#pccda0778f1)" d="M 510.792467 184.800006 
L 519.748454 182.679302 
L 520.490121 181.952046 
L 528.704442 177.937114 
L 533.852423 172.954529 
L 537.660429 170.534795 
L 544.512758 163.957012 
L 546.616417 162.342683 
L 554.255894 154.959495 
L 555.572404 153.793813 
L 563.465703 145.961977 
L 564.528391 144.893653 
L 572.248288 136.96446 
L 573.484379 135.532266 
L 580.68992 127.966943 
L 582.440366 125.509205 
L 588.67029 118.969426 
L 591.396354 113.879645 
L 595.171175 109.971908 
L 591.396354 103.571194 
L 585.279021 109.971908 
L 582.440366 111.185394 
L 574.915561 118.969426 
L 573.484379 119.954511 
L 565.599168 127.966943 
L 564.528391 128.893889 
L 556.475526 136.96446 
L 555.572404 137.871156 
L 547.379294 145.961977 
L 546.616417 146.837583 
L 538.202421 154.959495 
L 537.660429 155.70577 
L 528.720989 163.957012 
L 528.704442 163.990378 
L 519.748454 171.337266 
L 518.10624 172.954529 
L 510.792467 179.863347 
L 508.612201 181.952046 
z
M 522.328286 172.954529 
L 528.704442 167.718958 
L 530.570139 163.957012 
L 537.660429 157.412564 
L 539.442002 154.959495 
L 546.616417 148.034133 
L 548.421797 145.961977 
L 555.572404 138.900644 
L 557.500955 136.96446 
L 564.528391 129.921573 
L 566.786314 127.966943 
L 573.484379 121.16081 
L 576.668135 118.969426 
L 582.440366 112.998343 
L 587.219302 118.969426 
L 582.440366 123.98605 
L 579.605101 127.966943 
L 573.484379 134.393281 
L 571.265258 136.96446 
L 564.528391 143.883972 
L 562.461349 145.961977 
L 555.572404 152.797279 
L 553.130418 154.959495 
L 546.616417 161.254964 
L 543.095334 163.957012 
L 537.660429 169.174161 
L 531.711154 172.954529 
L 528.704442 175.864641 
z
M 589.519975 109.971908 
L 591.396354 108.008608 
L 592.55421 109.971908 
L 591.396354 111.170534 
z
" style="fill:#5ec962;"/>
   </g>
   <g id="PathCollection_19">
    <path clip-path="url(#pccda0778f1)" d="M 492.880492 201.257724 
L 494.364598 199.947081 
L 492.880492 197.953951 
L 490.012258 199.947081 
z
" style="fill:#9bd93c;"/>
    <path clip-path="url(#pccda0778f1)" d="M 501.836479 196.074042 
L 509.123049 190.949564 
L 510.792467 189.69784 
L 519.748454 186.837075 
L 524.730283 181.952046 
L 528.704442 180.009588 
L 535.993692 172.954529 
L 537.660429 171.895429 
L 545.930183 163.957012 
L 546.616417 163.430402 
L 555.38137 154.959495 
L 555.572404 154.790347 
L 564.470058 145.961977 
L 564.528391 145.903335 
L 573.231318 136.96446 
L 573.484379 136.671252 
L 581.774739 127.966943 
L 582.440366 127.03236 
L 590.121278 118.969426 
L 591.396354 116.588756 
L 597.78814 109.971908 
L 600.352341 102.627876 
L 601.973016 100.974391 
L 602.362516 91.976874 
L 600.352341 90.30116 
L 598.705 91.976874 
L 591.396354 98.311624 
L 588.758774 100.974391 
L 582.440366 107.725387 
L 580.208844 109.971908 
L 573.484379 117.570873 
L 572.093437 118.969426 
L 564.528391 127.161782 
L 563.727003 127.966943 
L 555.572404 136.003462 
L 554.615187 136.96446 
L 546.616417 144.054056 
L 544.713825 145.961977 
L 537.660429 151.70773 
L 534.410601 154.959495 
L 528.704442 159.451583 
L 524.180161 163.957012 
L 519.748454 167.592414 
L 514.303612 172.954529 
L 510.792467 176.271266 
L 504.862647 181.952046 
L 501.836479 185.729133 
L 495.973542 190.949564 
z
M 501.229507 190.949564 
L 501.836479 190.409108 
L 502.590836 190.949564 
L 501.836479 191.480085 
z
M 508.612201 181.952046 
L 510.792467 179.863347 
L 518.10624 172.954529 
L 519.748454 171.337266 
L 528.704442 163.990378 
L 528.720989 163.957012 
L 537.660429 155.70577 
L 538.202421 154.959495 
L 546.616417 146.837583 
L 547.379294 145.961977 
L 555.572404 137.871156 
L 556.475526 136.96446 
L 564.528391 128.893889 
L 565.599168 127.966943 
L 573.484379 119.954511 
L 574.915561 118.969426 
L 582.440366 111.185394 
L 585.279021 109.971908 
L 591.396354 103.571194 
L 595.171175 109.971908 
L 591.396354 113.879645 
L 588.67029 118.969426 
L 582.440366 125.509205 
L 580.68992 127.966943 
L 573.484379 135.532266 
L 572.248288 136.96446 
L 564.528391 144.893653 
L 563.465703 145.961977 
L 555.572404 153.793813 
L 554.255894 154.959495 
L 546.616417 162.342683 
L 544.512758 163.957012 
L 537.660429 170.534795 
L 533.852423 172.954529 
L 528.704442 177.937114 
L 520.490121 181.952046 
L 519.748454 182.679302 
L 510.792467 184.800006 
z
" style="fill:#9bd93c;"/>
   </g>
   <g id="PathCollection_20">
    <path clip-path="url(#pccda0778f1)" d="M 439.144567 271.927219 
L 448.100554 271.927219 
L 457.056542 271.927219 
L 466.012529 271.927219 
L 474.968517 271.927219 
L 483.924504 271.927219 
L 492.880492 271.927219 
L 501.836479 271.927219 
L 510.792467 271.927219 
L 519.748454 271.927219 
L 528.704442 271.927219 
L 537.660429 271.927219 
L 546.616417 271.927219 
L 555.572404 271.927219 
L 564.528391 271.927219 
L 573.484379 271.927219 
L 582.440366 271.927219 
L 591.396354 271.927219 
L 600.352341 271.927219 
L 609.308329 271.927219 
L 618.264316 271.927219 
L 627.220304 271.927219 
L 636.176291 271.927219 
L 645.132279 271.927219 
L 654.088266 271.927219 
L 663.044254 271.927219 
L 672.000241 271.927219 
L 680.956228 271.927219 
L 689.912216 271.927219 
L 689.912216 262.929702 
L 689.912216 253.932184 
L 689.912216 244.934667 
L 689.912216 235.93715 
L 689.912216 226.939633 
L 689.912216 217.942115 
L 689.912216 208.944598 
L 689.912216 199.947081 
L 689.912216 190.949564 
L 689.912216 181.952046 
L 689.912216 172.954529 
L 689.912216 163.957012 
L 689.912216 154.959495 
L 689.912216 145.961977 
L 689.912216 136.96446 
L 689.912216 127.966943 
L 689.912216 118.969426 
L 689.912216 109.971908 
L 689.912216 100.974391 
L 689.912216 91.976874 
L 689.912216 82.979357 
L 689.912216 73.981839 
L 689.912216 64.984322 
L 689.912216 55.986805 
L 689.912216 46.989288 
L 689.912216 37.99177 
L 689.912216 28.994253 
L 689.912216 19.996736 
L 689.912216 10.999219 
L 680.956228 10.999219 
L 672.000241 10.999219 
L 663.044254 10.999219 
L 654.088266 10.999219 
L 645.132279 10.999219 
L 636.176291 10.999219 
L 627.220304 10.999219 
L 618.264316 10.999219 
L 609.308329 10.999219 
L 600.352341 10.999219 
L 591.396354 10.999219 
L 582.440366 10.999219 
L 573.484379 10.999219 
L 564.528391 10.999219 
L 555.572404 10.999219 
L 546.616417 10.999219 
L 537.660429 10.999219 
L 528.704442 10.999219 
L 519.748454 10.999219 
L 510.792467 10.999219 
L 501.836479 10.999219 
L 492.880492 10.999219 
L 483.924504 10.999219 
L 474.968517 10.999219 
L 466.012529 10.999219 
L 457.056542 10.999219 
L 448.100554 10.999219 
L 439.144567 10.999219 
L 430.18858 10.999219 
L 430.18858 19.996736 
L 430.18858 28.994253 
L 430.18858 37.99177 
L 430.18858 46.989288 
L 430.18858 55.986805 
L 430.18858 64.984322 
L 430.18858 73.981839 
L 430.18858 82.979357 
L 430.18858 91.976874 
L 430.18858 100.974391 
L 430.18858 109.971908 
L 430.18858 118.969426 
L 430.18858 127.966943 
L 430.18858 136.96446 
L 430.18858 145.961977 
L 430.18858 154.959495 
L 430.18858 163.957012 
L 430.18858 172.954529 
L 430.18858 181.952046 
L 430.18858 190.949564 
L 430.18858 199.947081 
L 430.18858 208.944598 
L 430.18858 217.942115 
L 430.18858 226.939633 
L 430.18858 235.93715 
L 430.18858 244.934667 
L 430.18858 253.932184 
L 430.18858 262.929702 
L 430.18858 271.927219 
z
M 490.012258 199.947081 
L 492.880492 197.953951 
L 494.364598 199.947081 
L 492.880492 201.257724 
z
M 495.973542 190.949564 
L 501.836479 185.729133 
L 504.862647 181.952046 
L 510.792467 176.271266 
L 514.303612 172.954529 
L 519.748454 167.592414 
L 524.180161 163.957012 
L 528.704442 159.451583 
L 534.410601 154.959495 
L 537.660429 151.70773 
L 544.713825 145.961977 
L 546.616417 144.054056 
L 554.615187 136.96446 
L 555.572404 136.003462 
L 563.727003 127.966943 
L 564.528391 127.161782 
L 572.093437 118.969426 
L 573.484379 117.570873 
L 580.208844 109.971908 
L 582.440366 107.725387 
L 588.758774 100.974391 
L 591.396354 98.311624 
L 598.705 91.976874 
L 600.352341 90.30116 
L 602.362516 91.976874 
L 601.973016 100.974391 
L 600.352341 102.627876 
L 597.78814 109.971908 
L 591.396354 116.588756 
L 590.121278 118.969426 
L 582.440366 127.03236 
L 581.774739 127.966943 
L 573.484379 136.671252 
L 573.231318 136.96446 
L 564.528391 145.903335 
L 564.470058 145.961977 
L 555.572404 154.790347 
L 555.38137 154.959495 
L 546.616417 163.430402 
L 545.930183 163.957012 
L 537.660429 171.895429 
L 535.993692 172.954529 
L 528.704442 180.009588 
L 524.730283 181.952046 
L 519.748454 186.837075 
L 510.792467 189.69784 
L 509.123049 190.949564 
L 501.836479 196.074042 
z
" style="fill:#dfe318;"/>
   </g>
   <g id="matplotlib.axis_3">
    <g id="xtick_8">
     <g id="line2d_13">
      <g>
       <use style="stroke:#000000;stroke-width:0.8;" x="455.342787" xlink:href="#m5f06de04f3" y="271.927219"/>
      </g>
     </g>
     <g id="text_15">
      <!-- −4.8 -->
      <defs>
       <path d="M 10.59375 35.5 
L 73.1875 35.5 
L 73.1875 27.203125 
L 10.59375 27.203125 
z
" id="DejaVuSans-8722"/>
      </defs>
      <g transform="translate(443.201381 286.525656)scale(0.1 -0.1)">
       <use xlink:href="#DejaVuSans-8722"/>
       <use x="83.789062" xlink:href="#DejaVuSans-52"/>
       <use x="147.412109" xlink:href="#DejaVuSans-46"/>
       <use x="179.199219" xlink:href="#DejaVuSans-56"/>
      </g>
     </g>
    </g>
    <g id="xtick_9">
     <g id="line2d_14">
      <g>
       <use style="stroke:#000000;stroke-width:0.8;" x="500.403809" xlink:href="#m5f06de04f3" y="271.927219"/>
      </g>
     </g>
     <g id="text_16">
      <!-- −4.6 -->
      <g transform="translate(488.262403 286.525656)scale(0.1 -0.1)">
       <use xlink:href="#DejaVuSans-8722"/>
       <use x="83.789062" xlink:href="#DejaVuSans-52"/>
       <use x="147.412109" xlink:href="#DejaVuSans-46"/>
       <use x="179.199219" xlink:href="#DejaVuSans-54"/>
      </g>
     </g>
    </g>
    <g id="xtick_10">
     <g id="line2d_15">
      <g>
       <use style="stroke:#000000;stroke-width:0.8;" x="545.46483" xlink:href="#m5f06de04f3" y="271.927219"/>
      </g>
     </g>
     <g id="text_17">
      <!-- −4.4 -->
      <g transform="translate(533.323424 286.525656)scale(0.1 -0.1)">
       <use xlink:href="#DejaVuSans-8722"/>
       <use x="83.789062" xlink:href="#DejaVuSans-52"/>
       <use x="147.412109" xlink:href="#DejaVuSans-46"/>
       <use x="179.199219" xlink:href="#DejaVuSans-52"/>
      </g>
     </g>
    </g>
    <g id="xtick_11">
     <g id="line2d_16">
      <g>
       <use style="stroke:#000000;stroke-width:0.8;" x="590.525852" xlink:href="#m5f06de04f3" y="271.927219"/>
      </g>
     </g>
     <g id="text_18">
      <!-- −4.2 -->
      <g transform="translate(578.384446 286.525656)scale(0.1 -0.1)">
       <use xlink:href="#DejaVuSans-8722"/>
       <use x="83.789062" xlink:href="#DejaVuSans-52"/>
       <use x="147.412109" xlink:href="#DejaVuSans-46"/>
       <use x="179.199219" xlink:href="#DejaVuSans-50"/>
      </g>
     </g>
    </g>
    <g id="xtick_12">
     <g id="line2d_17">
      <g>
       <use style="stroke:#000000;stroke-width:0.8;" x="635.586873" xlink:href="#m5f06de04f3" y="271.927219"/>
      </g>
     </g>
     <g id="text_19">
      <!-- −4.0 -->
      <g transform="translate(623.445467 286.525656)scale(0.1 -0.1)">
       <use xlink:href="#DejaVuSans-8722"/>
       <use x="83.789062" xlink:href="#DejaVuSans-52"/>
       <use x="147.412109" xlink:href="#DejaVuSans-46"/>
       <use x="179.199219" xlink:href="#DejaVuSans-48"/>
      </g>
     </g>
    </g>
    <g id="xtick_13">
     <g id="line2d_18">
      <g>
       <use style="stroke:#000000;stroke-width:0.8;" x="680.647895" xlink:href="#m5f06de04f3" y="271.927219"/>
      </g>
     </g>
     <g id="text_20">
      <!-- −3.8 -->
      <g transform="translate(668.506489 286.525656)scale(0.1 -0.1)">
       <use xlink:href="#DejaVuSans-8722"/>
       <use x="83.789062" xlink:href="#DejaVuSans-51"/>
       <use x="147.412109" xlink:href="#DejaVuSans-46"/>
       <use x="179.199219" xlink:href="#DejaVuSans-56"/>
      </g>
     </g>
    </g>
    <g id="text_21">
     <!-- a2 -->
     <g transform="translate(553.805085 300.203781)scale(0.1 -0.1)">
      <use xlink:href="#DejaVuSans-97"/>
      <use x="61.279297" xlink:href="#DejaVuSans-50"/>
     </g>
    </g>
   </g>
   <g id="matplotlib.axis_4">
    <g id="ytick_6">
     <g id="line2d_19">
      <g>
       <use style="stroke:#000000;stroke-width:0.8;" x="430.18858" xlink:href="#me370f5eedf" y="244.224185"/>
      </g>
     </g>
     <g id="text_22">
      <!-- 10 -->
      <g transform="translate(410.46358 248.023404)scale(0.1 -0.1)">
       <use xlink:href="#DejaVuSans-49"/>
       <use x="63.623047" xlink:href="#DejaVuSans-48"/>
      </g>
     </g>
    </g>
    <g id="ytick_7">
     <g id="line2d_20">
      <g>
       <use style="stroke:#000000;stroke-width:0.8;" x="430.18858" xlink:href="#me370f5eedf" y="187.887048"/>
      </g>
     </g>
     <g id="text_23">
      <!-- 11 -->
      <g transform="translate(410.46358 191.686266)scale(0.1 -0.1)">
       <use xlink:href="#DejaVuSans-49"/>
       <use x="63.623047" xlink:href="#DejaVuSans-49"/>
      </g>
     </g>
    </g>
    <g id="ytick_8">
     <g id="line2d_21">
      <g>
       <use style="stroke:#000000;stroke-width:0.8;" x="430.18858" xlink:href="#me370f5eedf" y="131.549911"/>
      </g>
     </g>
     <g id="text_24">
      <!-- 12 -->
      <g transform="translate(410.46358 135.349129)scale(0.1 -0.1)">
       <use xlink:href="#DejaVuSans-49"/>
       <use x="63.623047" xlink:href="#DejaVuSans-50"/>
      </g>
     </g>
    </g>
    <g id="ytick_9">
     <g id="line2d_22">
      <g>
       <use style="stroke:#000000;stroke-width:0.8;" x="430.18858" xlink:href="#me370f5eedf" y="75.212774"/>
      </g>
     </g>
     <g id="text_25">
      <!-- 13 -->
      <g transform="translate(410.46358 79.011992)scale(0.1 -0.1)">
       <use xlink:href="#DejaVuSans-49"/>
       <use x="63.623047" xlink:href="#DejaVuSans-51"/>
      </g>
     </g>
    </g>
    <g id="ytick_10">
     <g id="line2d_23">
      <g>
       <use style="stroke:#000000;stroke-width:0.8;" x="430.18858" xlink:href="#me370f5eedf" y="18.875636"/>
      </g>
     </g>
     <g id="text_26">
      <!-- 14 -->
      <g transform="translate(410.46358 22.674855)scale(0.1 -0.1)">
       <use xlink:href="#DejaVuSans-49"/>
       <use x="63.623047" xlink:href="#DejaVuSans-52"/>
      </g>
     </g>
    </g>
    <g id="text_27">
     <!-- t2 -->
     <g transform="translate(404.383892 146.604625)rotate(-90)scale(0.1 -0.1)">
      <use xlink:href="#DejaVuSans-116"/>
      <use x="39.208984" xlink:href="#DejaVuSans-50"/>
     </g>
    </g>
   </g>
   <g id="patch_8">
    <path d="M 430.18858 271.927219 
L 430.18858 10.999219 
" style="fill:none;stroke:#000000;stroke-linecap:square;stroke-linejoin:miter;stroke-width:0.8;"/>
   </g>
   <g id="patch_9">
    <path d="M 689.912216 271.927219 
L 689.912216 10.999219 
" style="fill:none;stroke:#000000;stroke-linecap:square;stroke-linejoin:miter;stroke-width:0.8;"/>
   </g>
   <g id="patch_10">
    <path d="M 430.18858 271.927219 
L 689.912216 271.927219 
" style="fill:none;stroke:#000000;stroke-linecap:square;stroke-linejoin:miter;stroke-width:0.8;"/>
   </g>
   <g id="patch_11">
    <path d="M 430.18858 10.999219 
L 689.912216 10.999219 
" style="fill:none;stroke:#000000;stroke-linecap:square;stroke-linejoin:miter;stroke-width:0.8;"/>
   </g>
  </g>
  <g id="axes_3">
   <g id="patch_12">
    <path clip-path="url(#p90252e117b)" d="M 316.559489 271.927219 
L 316.559489 245.834419 
L 316.559489 37.092019 
L 316.559489 10.999219 
L 329.605889 10.999219 
L 329.605889 37.092019 
L 329.605889 245.834419 
L 329.605889 271.927219 
z
" style="fill:#ffffff;stroke:#ffffff;stroke-linejoin:miter;stroke-width:0.01;"/>
   </g>
   <g id="QuadMesh_1">
    <path clip-path="url(#p90252e117b)" d="M 316.559489 271.927219 
L 329.605889 271.927219 
L 329.605889 245.834419 
L 316.559489 245.834419 
L 316.559489 271.927219 
" style="fill:#471365;"/>
    <path clip-path="url(#p90252e117b)" d="M 316.559489 245.834419 
L 329.605889 245.834419 
L 329.605889 219.741619 
L 316.559489 219.741619 
L 316.559489 245.834419 
" style="fill:#463480;"/>
    <path clip-path="url(#p90252e117b)" d="M 316.559489 219.741619 
L 329.605889 219.741619 
L 329.605889 193.648819 
L 316.559489 193.648819 
L 316.559489 219.741619 
" style="fill:#3b528b;"/>
    <path clip-path="url(#p90252e117b)" d="M 316.559489 193.648819 
L 329.605889 193.648819 
L 329.605889 167.556019 
L 316.559489 167.556019 
L 316.559489 193.648819 
" style="fill:#2f6c8e;"/>
    <path clip-path="url(#p90252e117b)" d="M 316.559489 167.556019 
L 329.605889 167.556019 
L 329.605889 141.463219 
L 316.559489 141.463219 
L 316.559489 167.556019 
" style="fill:#25848e;"/>
    <path clip-path="url(#p90252e117b)" d="M 316.559489 141.463219 
L 329.605889 141.463219 
L 329.605889 115.370419 
L 316.559489 115.370419 
L 316.559489 141.463219 
" style="fill:#1e9c89;"/>
    <path clip-path="url(#p90252e117b)" d="M 316.559489 115.370419 
L 329.605889 115.370419 
L 329.605889 89.277619 
L 316.559489 89.277619 
L 316.559489 115.370419 
" style="fill:#2fb47c;"/>
    <path clip-path="url(#p90252e117b)" d="M 316.559489 89.277619 
L 329.605889 89.277619 
L 329.605889 63.184819 
L 316.559489 63.184819 
L 316.559489 89.277619 
" style="fill:#5ec962;"/>
    <path clip-path="url(#p90252e117b)" d="M 316.559489 63.184819 
L 329.605889 63.184819 
L 329.605889 37.092019 
L 316.559489 37.092019 
L 316.559489 63.184819 
" style="fill:#9bd93c;"/>
    <path clip-path="url(#p90252e117b)" d="M 316.559489 37.092019 
L 329.605889 37.092019 
L 329.605889 10.999219 
L 316.559489 10.999219 
L 316.559489 37.092019 
" style="fill:#dfe318;"/>
   </g>
   <g id="matplotlib.axis_5"/>
   <g id="matplotlib.axis_6">
    <g id="ytick_11">
     <g id="line2d_24">
      <defs>
       <path d="M 0 0 
L 3.5 0 
" id="m5b7975c25c" style="stroke:#000000;stroke-width:0.8;"/>
      </defs>
      <g>
       <use style="stroke:#000000;stroke-width:0.8;" x="329.605889" xlink:href="#m5b7975c25c" y="271.927219"/>
      </g>
     </g>
     <g id="text_28">
      <!-- 0.0 -->
      <g transform="translate(336.605889 275.726437)scale(0.1 -0.1)">
       <use xlink:href="#DejaVuSans-48"/>
       <use x="63.623047" xlink:href="#DejaVuSans-46"/>
       <use x="95.410156" xlink:href="#DejaVuSans-48"/>
      </g>
     </g>
    </g>
    <g id="ytick_12">
     <g id="line2d_25">
      <g>
       <use style="stroke:#000000;stroke-width:0.8;" x="329.605889" xlink:href="#m5b7975c25c" y="219.741619"/>
      </g>
     </g>
     <g id="text_29">
      <!-- 0.2 -->
      <g transform="translate(336.605889 223.540837)scale(0.1 -0.1)">
       <use xlink:href="#DejaVuSans-48"/>
       <use x="63.623047" xlink:href="#DejaVuSans-46"/>
       <use x="95.410156" xlink:href="#DejaVuSans-50"/>
      </g>
     </g>
    </g>
    <g id="ytick_13">
     <g id="line2d_26">
      <g>
       <use style="stroke:#000000;stroke-width:0.8;" x="329.605889" xlink:href="#m5b7975c25c" y="167.556019"/>
      </g>
     </g>
     <g id="text_30">
      <!-- 0.4 -->
      <g transform="translate(336.605889 171.355237)scale(0.1 -0.1)">
       <use xlink:href="#DejaVuSans-48"/>
       <use x="63.623047" xlink:href="#DejaVuSans-46"/>
       <use x="95.410156" xlink:href="#DejaVuSans-52"/>
      </g>
     </g>
    </g>
    <g id="ytick_14">
     <g id="line2d_27">
      <g>
       <use style="stroke:#000000;stroke-width:0.8;" x="329.605889" xlink:href="#m5b7975c25c" y="115.370419"/>
      </g>
     </g>
     <g id="text_31">
      <!-- 0.6 -->
      <g transform="translate(336.605889 119.169637)scale(0.1 -0.1)">
       <use xlink:href="#DejaVuSans-48"/>
       <use x="63.623047" xlink:href="#DejaVuSans-46"/>
       <use x="95.410156" xlink:href="#DejaVuSans-54"/>
      </g>
     </g>
    </g>
    <g id="ytick_15">
     <g id="line2d_28">
      <g>
       <use style="stroke:#000000;stroke-width:0.8;" x="329.605889" xlink:href="#m5b7975c25c" y="63.184819"/>
      </g>
     </g>
     <g id="text_32">
      <!-- 0.8 -->
      <g transform="translate(336.605889 66.984037)scale(0.1 -0.1)">
       <use xlink:href="#DejaVuSans-48"/>
       <use x="63.623047" xlink:href="#DejaVuSans-46"/>
       <use x="95.410156" xlink:href="#DejaVuSans-56"/>
      </g>
     </g>
    </g>
    <g id="ytick_16">
     <g id="line2d_29">
      <g>
       <use style="stroke:#000000;stroke-width:0.8;" x="329.605889" xlink:href="#m5b7975c25c" y="10.999219"/>
      </g>
     </g>
     <g id="text_33">
      <!-- 1.0 -->
      <g transform="translate(336.605889 14.798438)scale(0.1 -0.1)">
       <use xlink:href="#DejaVuSans-49"/>
       <use x="63.623047" xlink:href="#DejaVuSans-46"/>
       <use x="95.410156" xlink:href="#DejaVuSans-48"/>
      </g>
     </g>
    </g>
   </g>
   <g id="patch_13">
    <path d="M 316.559489 271.927219 
L 316.559489 245.834419 
L 316.559489 37.092019 
L 316.559489 10.999219 
L 329.605889 10.999219 
L 329.605889 37.092019 
L 329.605889 245.834419 
L 329.605889 271.927219 
z
" style="fill:none;stroke:#000000;stroke-linejoin:miter;stroke-width:0.8;"/>
   </g>
  </g>
  <g id="axes_4">
   <g id="patch_14">
    <path clip-path="url(#pe4b85b32f3)" d="M 706.144943 271.927219 
L 706.144943 245.834419 
L 706.144943 37.092019 
L 706.144943 10.999219 
L 719.191343 10.999219 
L 719.191343 37.092019 
L 719.191343 245.834419 
L 719.191343 271.927219 
z
" style="fill:#ffffff;stroke:#ffffff;stroke-linejoin:miter;stroke-width:0.01;"/>
   </g>
   <g id="QuadMesh_2">
    <path clip-path="url(#pe4b85b32f3)" d="M 706.144943 271.927219 
L 719.191343 271.927219 
L 719.191343 245.834419 
L 706.144943 245.834419 
L 706.144943 271.927219 
" style="fill:#471365;"/>
    <path clip-path="url(#pe4b85b32f3)" d="M 706.144943 245.834419 
L 719.191343 245.834419 
L 719.191343 219.741619 
L 706.144943 219.741619 
L 706.144943 245.834419 
" style="fill:#463480;"/>
    <path clip-path="url(#pe4b85b32f3)" d="M 706.144943 219.741619 
L 719.191343 219.741619 
L 719.191343 193.648819 
L 706.144943 193.648819 
L 706.144943 219.741619 
" style="fill:#3b528b;"/>
    <path clip-path="url(#pe4b85b32f3)" d="M 706.144943 193.648819 
L 719.191343 193.648819 
L 719.191343 167.556019 
L 706.144943 167.556019 
L 706.144943 193.648819 
" style="fill:#2f6c8e;"/>
    <path clip-path="url(#pe4b85b32f3)" d="M 706.144943 167.556019 
L 719.191343 167.556019 
L 719.191343 141.463219 
L 706.144943 141.463219 
L 706.144943 167.556019 
" style="fill:#25848e;"/>
    <path clip-path="url(#pe4b85b32f3)" d="M 706.144943 141.463219 
L 719.191343 141.463219 
L 719.191343 115.370419 
L 706.144943 115.370419 
L 706.144943 141.463219 
" style="fill:#1e9c89;"/>
    <path clip-path="url(#pe4b85b32f3)" d="M 706.144943 115.370419 
L 719.191343 115.370419 
L 719.191343 89.277619 
L 706.144943 89.277619 
L 706.144943 115.370419 
" style="fill:#2fb47c;"/>
    <path clip-path="url(#pe4b85b32f3)" d="M 706.144943 89.277619 
L 719.191343 89.277619 
L 719.191343 63.184819 
L 706.144943 63.184819 
L 706.144943 89.277619 
" style="fill:#5ec962;"/>
    <path clip-path="url(#pe4b85b32f3)" d="M 706.144943 63.184819 
L 719.191343 63.184819 
L 719.191343 37.092019 
L 706.144943 37.092019 
L 706.144943 63.184819 
" style="fill:#9bd93c;"/>
    <path clip-path="url(#pe4b85b32f3)" d="M 706.144943 37.092019 
L 719.191343 37.092019 
L 719.191343 10.999219 
L 706.144943 10.999219 
L 706.144943 37.092019 
" style="fill:#dfe318;"/>
   </g>
   <g id="matplotlib.axis_7"/>
   <g id="matplotlib.axis_8">
    <g id="ytick_17">
     <g id="line2d_30">
      <g>
       <use style="stroke:#000000;stroke-width:0.8;" x="719.191343" xlink:href="#m5b7975c25c" y="271.927219"/>
      </g>
     </g>
     <g id="text_34">
      <!-- 0.0 -->
      <g transform="translate(726.191343 275.726437)scale(0.1 -0.1)">
       <use xlink:href="#DejaVuSans-48"/>
       <use x="63.623047" xlink:href="#DejaVuSans-46"/>
       <use x="95.410156" xlink:href="#DejaVuSans-48"/>
      </g>
     </g>
    </g>
    <g id="ytick_18">
     <g id="line2d_31">
      <g>
       <use style="stroke:#000000;stroke-width:0.8;" x="719.191343" xlink:href="#m5b7975c25c" y="219.741619"/>
      </g>
     </g>
     <g id="text_35">
      <!-- 0.2 -->
      <g transform="translate(726.191343 223.540837)scale(0.1 -0.1)">
       <use xlink:href="#DejaVuSans-48"/>
       <use x="63.623047" xlink:href="#DejaVuSans-46"/>
       <use x="95.410156" xlink:href="#DejaVuSans-50"/>
      </g>
     </g>
    </g>
    <g id="ytick_19">
     <g id="line2d_32">
      <g>
       <use style="stroke:#000000;stroke-width:0.8;" x="719.191343" xlink:href="#m5b7975c25c" y="167.556019"/>
      </g>
     </g>
     <g id="text_36">
      <!-- 0.4 -->
      <g transform="translate(726.191343 171.355237)scale(0.1 -0.1)">
       <use xlink:href="#DejaVuSans-48"/>
       <use x="63.623047" xlink:href="#DejaVuSans-46"/>
       <use x="95.410156" xlink:href="#DejaVuSans-52"/>
      </g>
     </g>
    </g>
    <g id="ytick_20">
     <g id="line2d_33">
      <g>
       <use style="stroke:#000000;stroke-width:0.8;" x="719.191343" xlink:href="#m5b7975c25c" y="115.370419"/>
      </g>
     </g>
     <g id="text_37">
      <!-- 0.6 -->
      <g transform="translate(726.191343 119.169637)scale(0.1 -0.1)">
       <use xlink:href="#DejaVuSans-48"/>
       <use x="63.623047" xlink:href="#DejaVuSans-46"/>
       <use x="95.410156" xlink:href="#DejaVuSans-54"/>
      </g>
     </g>
    </g>
    <g id="ytick_21">
     <g id="line2d_34">
      <g>
       <use style="stroke:#000000;stroke-width:0.8;" x="719.191343" xlink:href="#m5b7975c25c" y="63.184819"/>
      </g>
     </g>
     <g id="text_38">
      <!-- 0.8 -->
      <g transform="translate(726.191343 66.984037)scale(0.1 -0.1)">
       <use xlink:href="#DejaVuSans-48"/>
       <use x="63.623047" xlink:href="#DejaVuSans-46"/>
       <use x="95.410156" xlink:href="#DejaVuSans-56"/>
      </g>
     </g>
    </g>
    <g id="ytick_22">
     <g id="line2d_35">
      <g>
       <use style="stroke:#000000;stroke-width:0.8;" x="719.191343" xlink:href="#m5b7975c25c" y="10.999219"/>
      </g>
     </g>
     <g id="text_39">
      <!-- 1.0 -->
      <g transform="translate(726.191343 14.798438)scale(0.1 -0.1)">
       <use xlink:href="#DejaVuSans-49"/>
       <use x="63.623047" xlink:href="#DejaVuSans-46"/>
       <use x="95.410156" xlink:href="#DejaVuSans-48"/>
      </g>
     </g>
    </g>
   </g>
   <g id="patch_15">
    <path d="M 706.144943 271.927219 
L 706.144943 245.834419 
L 706.144943 37.092019 
L 706.144943 10.999219 
L 719.191343 10.999219 
L 719.191343 37.092019 
L 719.191343 245.834419 
L 719.191343 271.927219 
z
" style="fill:none;stroke:#000000;stroke-linejoin:miter;stroke-width:0.8;"/>
   </g>
  </g>
 </g>
 <defs>
  <clipPath id="p07ab02f9d5">
   <rect height="260.928" width="259.723636" x="40.603125" y="10.999219"/>
  </clipPath>
  <clipPath id="pccda0778f1">
   <rect height="260.928" width="259.723636" x="430.18858" y="10.999219"/>
  </clipPath>
  <clipPath id="p90252e117b">
   <rect height="260.928" width="13.0464" x="316.559489" y="10.999219"/>
  </clipPath>
  <clipPath id="pe4b85b32f3">
   <rect height="260.928" width="13.0464" x="706.144943" y="10.999219"/>
  </clipPath>
 </defs>
</svg>
