<?xml version="1.0" encoding="utf-8" standalone="no"?>
<!DOCTYPE svg PUBLIC "-//W3C//DTD SVG 1.1//EN"
  "http://www.w3.org/Graphics/SVG/1.1/DTD/svg11.dtd">
<!-- Created with matplotlib (https://matplotlib.org/) -->
<svg height="305.68425pt" version="1.1" viewBox="0 0 771.58375 305.68425" width="771.58375pt" xmlns="http://www.w3.org/2000/svg" xmlns:xlink="http://www.w3.org/1999/xlink">
 <metadata>
  <rdf:RDF xmlns:cc="http://creativecommons.org/ns#" xmlns:dc="http://purl.org/dc/elements/1.1/" xmlns:rdf="http://www.w3.org/1999/02/22-rdf-syntax-ns#">
   <cc:Work>
    <dc:type rdf:resource="http://purl.org/dc/dcmitype/StillImage"/>
    <dc:date>2021-02-07T18:54:31.133340</dc:date>
    <dc:format>image/svg+xml</dc:format>
    <dc:creator>
     <cc:Agent>
      <dc:title>Matplotlib v3.3.2, https://matplotlib.org/</dc:title>
     </cc:Agent>
    </dc:creator>
   </cc:Work>
  </rdf:RDF>
 </metadata>
 <defs>
  <style type="text/css">*{stroke-linecap:butt;stroke-linejoin:round;}</style>
 </defs>
 <g id="figure_1">
  <g id="patch_1">
   <path d="M 0 305.68425 
L 771.58375 305.68425 
L 771.58375 0 
L 0 0 
z
" style="fill:none;"/>
  </g>
  <g id="axes_1">
   <g id="patch_2">
    <path d="M 50.14375 268.128 
L 374.798295 268.128 
L 374.798295 7.2 
L 50.14375 7.2 
z
" style="fill:#ffffff;"/>
   </g>
   <g id="PathCollection_1">
    <defs>
     <path d="M 0 2.738613 
C 0.726289 2.738613 1.422928 2.450055 1.936492 1.936492 
C 2.450055 1.422928 2.738613 0.726289 2.738613 -0 
C 2.738613 -0.726289 2.450055 -1.422928 1.936492 -1.936492 
C 1.422928 -2.450055 0.726289 -2.738613 0 -2.738613 
C -0.726289 -2.738613 -1.422928 -2.450055 -1.936492 -1.936492 
C -2.450055 -1.422928 -2.738613 -0.726289 -2.738613 0 
C -2.738613 0.726289 -2.450055 1.422928 -1.936492 1.936492 
C -1.422928 2.450055 -0.726289 2.738613 0 2.738613 
z
" id="C0_0_2455e539f2"/>
    </defs>
    <g clip-path="url(#p23745b551a)">
     <use style="fill:#440154;stroke:#440154;" x="182.956973" xlink:href="#C0_0_2455e539f2" y="238.561747"/>
    </g>
    <g clip-path="url(#p23745b551a)">
     <use style="fill:#4ec36b;stroke:#4ec36b;" x="123.928874" xlink:href="#C0_0_2455e539f2" y="255.519733"/>
    </g>
    <g clip-path="url(#p23745b551a)">
     <use style="fill:#f8e621;stroke:#f8e621;" x="64.900775" xlink:href="#C0_0_2455e539f2" y="223.635642"/>
    </g>
    <g clip-path="url(#p23745b551a)">
     <use style="fill:#440154;stroke:#440154;" x="182.956973" xlink:href="#C0_0_2455e539f2" y="238.561747"/>
    </g>
    <g clip-path="url(#p23745b551a)">
     <use style="fill:#f8e621;stroke:#f8e621;" x="64.900775" xlink:href="#C0_0_2455e539f2" y="223.635642"/>
    </g>
    <g clip-path="url(#p23745b551a)">
     <use style="fill:#b2dd2d;stroke:#b2dd2d;" x="100.002636" xlink:href="#C0_0_2455e539f2" y="247.420748"/>
    </g>
    <g clip-path="url(#p23745b551a)">
     <use style="fill:#25838e;stroke:#25838e;" x="149.474102" xlink:href="#C0_0_2455e539f2" y="255.070042"/>
    </g>
    <g clip-path="url(#p23745b551a)">
     <use style="fill:#58c765;stroke:#58c765;" x="121.42276" xlink:href="#C0_0_2455e539f2" y="255.007519"/>
    </g>
    <g clip-path="url(#p23745b551a)">
     <use style="fill:#3fbc73;stroke:#3fbc73;" x="127.305426" xlink:href="#C0_0_2455e539f2" y="256.267636"/>
    </g>
    <g clip-path="url(#p23745b551a)">
     <use style="fill:#42be71;stroke:#42be71;" x="126.689668" xlink:href="#C0_0_2455e539f2" y="256.208318"/>
    </g>
    <g clip-path="url(#p23745b551a)">
     <use style="fill:#42be71;stroke:#42be71;" x="126.717902" xlink:href="#C0_0_2455e539f2" y="256.211074"/>
    </g>
    <g clip-path="url(#p23745b551a)">
     <use style="fill:#42be71;stroke:#42be71;" x="126.717902" xlink:href="#C0_0_2455e539f2" y="256.211074"/>
    </g>
    <g clip-path="url(#p23745b551a)">
     <use style="fill:#f8e621;stroke:#f8e621;" x="64.900775" xlink:href="#C0_0_2455e539f2" y="223.635642"/>
    </g>
    <g clip-path="url(#p23745b551a)">
     <use style="fill:#f4e61e;stroke:#f4e61e;" x="68.553083" xlink:href="#C0_0_2455e539f2" y="227.062482"/>
    </g>
    <g clip-path="url(#p23745b551a)">
     <use style="fill:#ece51b;stroke:#ece51b;" x="75.670489" xlink:href="#C0_0_2455e539f2" y="232.643215"/>
    </g>
    <g clip-path="url(#p23745b551a)">
     <use style="fill:#efe51c;stroke:#efe51c;" x="74.49663" xlink:href="#C0_0_2455e539f2" y="231.792778"/>
    </g>
    <g clip-path="url(#p23745b551a)">
     <use style="fill:#ece51b;stroke:#ece51b;" x="74.622793" xlink:href="#C0_0_2455e539f2" y="231.87447"/>
    </g>
    <g clip-path="url(#p23745b551a)">
     <use style="fill:#ece51b;stroke:#ece51b;" x="74.649725" xlink:href="#C0_0_2455e539f2" y="231.892069"/>
    </g>
    <g clip-path="url(#p23745b551a)">
     <use style="fill:#440154;stroke:#440154;" x="182.956973" xlink:href="#C0_0_2455e539f2" y="238.561747"/>
    </g>
    <g clip-path="url(#p23745b551a)">
     <use style="fill:#31b57b;stroke:#31b57b;" x="241.985072" xlink:href="#C0_0_2455e539f2" y="175.703433"/>
    </g>
    <g clip-path="url(#p23745b551a)">
     <use style="fill:#d0e11c;stroke:#d0e11c;" x="301.013171" xlink:href="#C0_0_2455e539f2" y="96.276319"/>
    </g>
    <g clip-path="url(#p23745b551a)">
     <use style="fill:#fde725;stroke:#fde725;" x="360.041271" xlink:href="#C0_0_2455e539f2" y="19.060364"/>
    </g>
    <g clip-path="url(#p23745b551a)">
     <use style="fill:#440154;stroke:#440154;" x="182.956973" xlink:href="#C0_0_2455e539f2" y="238.561747"/>
    </g>
    <g clip-path="url(#p23745b551a)">
     <use style="fill:#fde725;stroke:#fde725;" x="360.041271" xlink:href="#C0_0_2455e539f2" y="19.060364"/>
    </g>
    <g clip-path="url(#p23745b551a)">
     <use style="fill:#d8e219;stroke:#d8e219;" x="306.125552" xlink:href="#C0_0_2455e539f2" y="89.376166"/>
    </g>
    <g clip-path="url(#p23745b551a)">
     <use style="fill:#37b878;stroke:#37b878;" x="244.541263" xlink:href="#C0_0_2455e539f2" y="172.407959"/>
    </g>
    <g clip-path="url(#p23745b551a)">
     <use style="fill:#48c16e;stroke:#48c16e;" x="250.051607" xlink:href="#C0_0_2455e539f2" y="165.222308"/>
    </g>
    <g clip-path="url(#p23745b551a)">
     <use style="fill:#42be71;stroke:#42be71;" x="247.94698" xlink:href="#C0_0_2455e539f2" y="167.979007"/>
    </g>
    <g clip-path="url(#p23745b551a)">
     <use style="fill:#42be71;stroke:#42be71;" x="247.88615" xlink:href="#C0_0_2455e539f2" y="168.058451"/>
    </g>
    <g clip-path="url(#p23745b551a)">
     <use style="fill:#42be71;stroke:#42be71;" x="247.88615" xlink:href="#C0_0_2455e539f2" y="168.058451"/>
    </g>
    <g clip-path="url(#p23745b551a)">
     <use style="fill:#fde725;stroke:#fde725;" x="360.041271" xlink:href="#C0_0_2455e539f2" y="19.060364"/>
    </g>
    <g clip-path="url(#p23745b551a)">
     <use style="fill:#fbe723;stroke:#fbe723;" x="349.896983" xlink:href="#C0_0_2455e539f2" y="31.880774"/>
    </g>
    <g clip-path="url(#p23745b551a)">
     <use style="fill:#e5e419;stroke:#e5e419;" x="317.213044" xlink:href="#C0_0_2455e539f2" y="74.519457"/>
    </g>
    <g clip-path="url(#p23745b551a)">
     <use style="fill:#efe51c;stroke:#efe51c;" x="330.253116" xlink:href="#C0_0_2455e539f2" y="57.27992"/>
    </g>
    <g clip-path="url(#p23745b551a)">
     <use style="fill:#efe51c;stroke:#efe51c;" x="327.617257" xlink:href="#C0_0_2455e539f2" y="60.741964"/>
    </g>
    <g clip-path="url(#p23745b551a)">
     <use style="fill:#ece51b;stroke:#ece51b;" x="327.24999" xlink:href="#C0_0_2455e539f2" y="61.225283"/>
    </g>
    <g clip-path="url(#p23745b551a)">
     <use style="fill:#ece51b;stroke:#ece51b;" x="327.283238" xlink:href="#C0_0_2455e539f2" y="61.181559"/>
    </g>
   </g>
   <g id="matplotlib.axis_1">
    <g id="xtick_1">
     <g id="line2d_1">
      <defs>
       <path d="M 0 0 
L 0 3.5 
" id="mc4e6b01f34" style="stroke:#000000;stroke-width:0.8;"/>
      </defs>
      <g>
       <use style="stroke:#000000;stroke-width:0.8;" x="69.316824" xlink:href="#mc4e6b01f34" y="268.128"/>
      </g>
     </g>
     <g id="text_1">
      <!-- 2.7 -->
      <g transform="translate(61.365262 282.726438)scale(0.1 -0.1)">
       <defs>
        <path d="M 19.1875 8.296875 
L 53.609375 8.296875 
L 53.609375 0 
L 7.328125 0 
L 7.328125 8.296875 
Q 12.9375 14.109375 22.625 23.890625 
Q 32.328125 33.6875 34.8125 36.53125 
Q 39.546875 41.84375 41.421875 45.53125 
Q 43.3125 49.21875 43.3125 52.78125 
Q 43.3125 58.59375 39.234375 62.25 
Q 35.15625 65.921875 28.609375 65.921875 
Q 23.96875 65.921875 18.8125 64.3125 
Q 13.671875 62.703125 7.8125 59.421875 
L 7.8125 69.390625 
Q 13.765625 71.78125 18.9375 73 
Q 24.125 74.21875 28.421875 74.21875 
Q 39.75 74.21875 46.484375 68.546875 
Q 53.21875 62.890625 53.21875 53.421875 
Q 53.21875 48.921875 51.53125 44.890625 
Q 49.859375 40.875 45.40625 35.40625 
Q 44.1875 33.984375 37.640625 27.21875 
Q 31.109375 20.453125 19.1875 8.296875 
z
" id="DejaVuSans-50"/>
        <path d="M 10.6875 12.40625 
L 21 12.40625 
L 21 0 
L 10.6875 0 
z
" id="DejaVuSans-46"/>
        <path d="M 8.203125 72.90625 
L 55.078125 72.90625 
L 55.078125 68.703125 
L 28.609375 0 
L 18.3125 0 
L 43.21875 64.59375 
L 8.203125 64.59375 
z
" id="DejaVuSans-55"/>
       </defs>
       <use xlink:href="#DejaVuSans-50"/>
       <use x="63.623047" xlink:href="#DejaVuSans-46"/>
       <use x="95.410156" xlink:href="#DejaVuSans-55"/>
      </g>
     </g>
    </g>
    <g id="xtick_2">
     <g id="line2d_2">
      <g>
       <use style="stroke:#000000;stroke-width:0.8;" x="109.020434" xlink:href="#mc4e6b01f34" y="268.128"/>
      </g>
     </g>
     <g id="text_2">
      <!-- 2.8 -->
      <g transform="translate(101.068871 282.726438)scale(0.1 -0.1)">
       <defs>
        <path d="M 31.78125 34.625 
Q 24.75 34.625 20.71875 30.859375 
Q 16.703125 27.09375 16.703125 20.515625 
Q 16.703125 13.921875 20.71875 10.15625 
Q 24.75 6.390625 31.78125 6.390625 
Q 38.8125 6.390625 42.859375 10.171875 
Q 46.921875 13.96875 46.921875 20.515625 
Q 46.921875 27.09375 42.890625 30.859375 
Q 38.875 34.625 31.78125 34.625 
z
M 21.921875 38.8125 
Q 15.578125 40.375 12.03125 44.71875 
Q 8.5 49.078125 8.5 55.328125 
Q 8.5 64.0625 14.71875 69.140625 
Q 20.953125 74.21875 31.78125 74.21875 
Q 42.671875 74.21875 48.875 69.140625 
Q 55.078125 64.0625 55.078125 55.328125 
Q 55.078125 49.078125 51.53125 44.71875 
Q 48 40.375 41.703125 38.8125 
Q 48.828125 37.15625 52.796875 32.3125 
Q 56.78125 27.484375 56.78125 20.515625 
Q 56.78125 9.90625 50.3125 4.234375 
Q 43.84375 -1.421875 31.78125 -1.421875 
Q 19.734375 -1.421875 13.25 4.234375 
Q 6.78125 9.90625 6.78125 20.515625 
Q 6.78125 27.484375 10.78125 32.3125 
Q 14.796875 37.15625 21.921875 38.8125 
z
M 18.3125 54.390625 
Q 18.3125 48.734375 21.84375 45.5625 
Q 25.390625 42.390625 31.78125 42.390625 
Q 38.140625 42.390625 41.71875 45.5625 
Q 45.3125 48.734375 45.3125 54.390625 
Q 45.3125 60.0625 41.71875 63.234375 
Q 38.140625 66.40625 31.78125 66.40625 
Q 25.390625 66.40625 21.84375 63.234375 
Q 18.3125 60.0625 18.3125 54.390625 
z
" id="DejaVuSans-56"/>
       </defs>
       <use xlink:href="#DejaVuSans-50"/>
       <use x="63.623047" xlink:href="#DejaVuSans-46"/>
       <use x="95.410156" xlink:href="#DejaVuSans-56"/>
      </g>
     </g>
    </g>
    <g id="xtick_3">
     <g id="line2d_3">
      <g>
       <use style="stroke:#000000;stroke-width:0.8;" x="148.724043" xlink:href="#mc4e6b01f34" y="268.128"/>
      </g>
     </g>
     <g id="text_3">
      <!-- 2.9 -->
      <g transform="translate(140.772481 282.726438)scale(0.1 -0.1)">
       <defs>
        <path d="M 10.984375 1.515625 
L 10.984375 10.5 
Q 14.703125 8.734375 18.5 7.8125 
Q 22.3125 6.890625 25.984375 6.890625 
Q 35.75 6.890625 40.890625 13.453125 
Q 46.046875 20.015625 46.78125 33.40625 
Q 43.953125 29.203125 39.59375 26.953125 
Q 35.25 24.703125 29.984375 24.703125 
Q 19.046875 24.703125 12.671875 31.3125 
Q 6.296875 37.9375 6.296875 49.421875 
Q 6.296875 60.640625 12.9375 67.421875 
Q 19.578125 74.21875 30.609375 74.21875 
Q 43.265625 74.21875 49.921875 64.515625 
Q 56.59375 54.828125 56.59375 36.375 
Q 56.59375 19.140625 48.40625 8.859375 
Q 40.234375 -1.421875 26.421875 -1.421875 
Q 22.703125 -1.421875 18.890625 -0.6875 
Q 15.09375 0.046875 10.984375 1.515625 
z
M 30.609375 32.421875 
Q 37.25 32.421875 41.125 36.953125 
Q 45.015625 41.5 45.015625 49.421875 
Q 45.015625 57.28125 41.125 61.84375 
Q 37.25 66.40625 30.609375 66.40625 
Q 23.96875 66.40625 20.09375 61.84375 
Q 16.21875 57.28125 16.21875 49.421875 
Q 16.21875 41.5 20.09375 36.953125 
Q 23.96875 32.421875 30.609375 32.421875 
z
" id="DejaVuSans-57"/>
       </defs>
       <use xlink:href="#DejaVuSans-50"/>
       <use x="63.623047" xlink:href="#DejaVuSans-46"/>
       <use x="95.410156" xlink:href="#DejaVuSans-57"/>
      </g>
     </g>
    </g>
    <g id="xtick_4">
     <g id="line2d_4">
      <g>
       <use style="stroke:#000000;stroke-width:0.8;" x="188.427653" xlink:href="#mc4e6b01f34" y="268.128"/>
      </g>
     </g>
     <g id="text_4">
      <!-- 3.0 -->
      <g transform="translate(180.47609 282.726438)scale(0.1 -0.1)">
       <defs>
        <path d="M 40.578125 39.3125 
Q 47.65625 37.796875 51.625 33 
Q 55.609375 28.21875 55.609375 21.1875 
Q 55.609375 10.40625 48.1875 4.484375 
Q 40.765625 -1.421875 27.09375 -1.421875 
Q 22.515625 -1.421875 17.65625 -0.515625 
Q 12.796875 0.390625 7.625 2.203125 
L 7.625 11.71875 
Q 11.71875 9.328125 16.59375 8.109375 
Q 21.484375 6.890625 26.8125 6.890625 
Q 36.078125 6.890625 40.9375 10.546875 
Q 45.796875 14.203125 45.796875 21.1875 
Q 45.796875 27.640625 41.28125 31.265625 
Q 36.765625 34.90625 28.71875 34.90625 
L 20.21875 34.90625 
L 20.21875 43.015625 
L 29.109375 43.015625 
Q 36.375 43.015625 40.234375 45.921875 
Q 44.09375 48.828125 44.09375 54.296875 
Q 44.09375 59.90625 40.109375 62.90625 
Q 36.140625 65.921875 28.71875 65.921875 
Q 24.65625 65.921875 20.015625 65.03125 
Q 15.375 64.15625 9.8125 62.3125 
L 9.8125 71.09375 
Q 15.4375 72.65625 20.34375 73.4375 
Q 25.25 74.21875 29.59375 74.21875 
Q 40.828125 74.21875 47.359375 69.109375 
Q 53.90625 64.015625 53.90625 55.328125 
Q 53.90625 49.265625 50.4375 45.09375 
Q 46.96875 40.921875 40.578125 39.3125 
z
" id="DejaVuSans-51"/>
        <path d="M 31.78125 66.40625 
Q 24.171875 66.40625 20.328125 58.90625 
Q 16.5 51.421875 16.5 36.375 
Q 16.5 21.390625 20.328125 13.890625 
Q 24.171875 6.390625 31.78125 6.390625 
Q 39.453125 6.390625 43.28125 13.890625 
Q 47.125 21.390625 47.125 36.375 
Q 47.125 51.421875 43.28125 58.90625 
Q 39.453125 66.40625 31.78125 66.40625 
z
M 31.78125 74.21875 
Q 44.046875 74.21875 50.515625 64.515625 
Q 56.984375 54.828125 56.984375 36.375 
Q 56.984375 17.96875 50.515625 8.265625 
Q 44.046875 -1.421875 31.78125 -1.421875 
Q 19.53125 -1.421875 13.0625 8.265625 
Q 6.59375 17.96875 6.59375 36.375 
Q 6.59375 54.828125 13.0625 64.515625 
Q 19.53125 74.21875 31.78125 74.21875 
z
" id="DejaVuSans-48"/>
       </defs>
       <use xlink:href="#DejaVuSans-51"/>
       <use x="63.623047" xlink:href="#DejaVuSans-46"/>
       <use x="95.410156" xlink:href="#DejaVuSans-48"/>
      </g>
     </g>
    </g>
    <g id="xtick_5">
     <g id="line2d_5">
      <g>
       <use style="stroke:#000000;stroke-width:0.8;" x="228.131263" xlink:href="#mc4e6b01f34" y="268.128"/>
      </g>
     </g>
     <g id="text_5">
      <!-- 3.1 -->
      <g transform="translate(220.1797 282.726438)scale(0.1 -0.1)">
       <defs>
        <path d="M 12.40625 8.296875 
L 28.515625 8.296875 
L 28.515625 63.921875 
L 10.984375 60.40625 
L 10.984375 69.390625 
L 28.421875 72.90625 
L 38.28125 72.90625 
L 38.28125 8.296875 
L 54.390625 8.296875 
L 54.390625 0 
L 12.40625 0 
z
" id="DejaVuSans-49"/>
       </defs>
       <use xlink:href="#DejaVuSans-51"/>
       <use x="63.623047" xlink:href="#DejaVuSans-46"/>
       <use x="95.410156" xlink:href="#DejaVuSans-49"/>
      </g>
     </g>
    </g>
    <g id="xtick_6">
     <g id="line2d_6">
      <g>
       <use style="stroke:#000000;stroke-width:0.8;" x="267.834872" xlink:href="#mc4e6b01f34" y="268.128"/>
      </g>
     </g>
     <g id="text_6">
      <!-- 3.2 -->
      <g transform="translate(259.88331 282.726438)scale(0.1 -0.1)">
       <use xlink:href="#DejaVuSans-51"/>
       <use x="63.623047" xlink:href="#DejaVuSans-46"/>
       <use x="95.410156" xlink:href="#DejaVuSans-50"/>
      </g>
     </g>
    </g>
    <g id="xtick_7">
     <g id="line2d_7">
      <g>
       <use style="stroke:#000000;stroke-width:0.8;" x="307.538482" xlink:href="#mc4e6b01f34" y="268.128"/>
      </g>
     </g>
     <g id="text_7">
      <!-- 3.3 -->
      <g transform="translate(299.586919 282.726438)scale(0.1 -0.1)">
       <use xlink:href="#DejaVuSans-51"/>
       <use x="63.623047" xlink:href="#DejaVuSans-46"/>
       <use x="95.410156" xlink:href="#DejaVuSans-51"/>
      </g>
     </g>
    </g>
    <g id="xtick_8">
     <g id="line2d_8">
      <g>
       <use style="stroke:#000000;stroke-width:0.8;" x="347.242091" xlink:href="#mc4e6b01f34" y="268.128"/>
      </g>
     </g>
     <g id="text_8">
      <!-- 3.4 -->
      <g transform="translate(339.290529 282.726438)scale(0.1 -0.1)">
       <defs>
        <path d="M 37.796875 64.3125 
L 12.890625 25.390625 
L 37.796875 25.390625 
z
M 35.203125 72.90625 
L 47.609375 72.90625 
L 47.609375 25.390625 
L 58.015625 25.390625 
L 58.015625 17.1875 
L 47.609375 17.1875 
L 47.609375 0 
L 37.796875 0 
L 37.796875 17.1875 
L 4.890625 17.1875 
L 4.890625 26.703125 
z
" id="DejaVuSans-52"/>
       </defs>
       <use xlink:href="#DejaVuSans-51"/>
       <use x="63.623047" xlink:href="#DejaVuSans-46"/>
       <use x="95.410156" xlink:href="#DejaVuSans-52"/>
      </g>
     </g>
    </g>
    <g id="text_9">
     <!-- a1 -->
     <g transform="translate(206.22571 296.404563)scale(0.1 -0.1)">
      <defs>
       <path d="M 34.28125 27.484375 
Q 23.390625 27.484375 19.1875 25 
Q 14.984375 22.515625 14.984375 16.5 
Q 14.984375 11.71875 18.140625 8.90625 
Q 21.296875 6.109375 26.703125 6.109375 
Q 34.1875 6.109375 38.703125 11.40625 
Q 43.21875 16.703125 43.21875 25.484375 
L 43.21875 27.484375 
z
M 52.203125 31.203125 
L 52.203125 0 
L 43.21875 0 
L 43.21875 8.296875 
Q 40.140625 3.328125 35.546875 0.953125 
Q 30.953125 -1.421875 24.3125 -1.421875 
Q 15.921875 -1.421875 10.953125 3.296875 
Q 6 8.015625 6 15.921875 
Q 6 25.140625 12.171875 29.828125 
Q 18.359375 34.515625 30.609375 34.515625 
L 43.21875 34.515625 
L 43.21875 35.40625 
Q 43.21875 41.609375 39.140625 45 
Q 35.0625 48.390625 27.6875 48.390625 
Q 23 48.390625 18.546875 47.265625 
Q 14.109375 46.140625 10.015625 43.890625 
L 10.015625 52.203125 
Q 14.9375 54.109375 19.578125 55.046875 
Q 24.21875 56 28.609375 56 
Q 40.484375 56 46.34375 49.84375 
Q 52.203125 43.703125 52.203125 31.203125 
z
" id="DejaVuSans-97"/>
      </defs>
      <use xlink:href="#DejaVuSans-97"/>
      <use x="61.279297" xlink:href="#DejaVuSans-49"/>
     </g>
    </g>
   </g>
   <g id="matplotlib.axis_2">
    <g id="ytick_1">
     <g id="line2d_9">
      <defs>
       <path d="M 0 0 
L -3.5 0 
" id="m9a46ed44a9" style="stroke:#000000;stroke-width:0.8;"/>
      </defs>
      <g>
       <use style="stroke:#000000;stroke-width:0.8;" x="50.14375" xlink:href="#m9a46ed44a9" y="248.303033"/>
      </g>
     </g>
     <g id="text_10">
      <!-- 11.8 -->
      <g transform="translate(20.878125 252.102251)scale(0.1 -0.1)">
       <use xlink:href="#DejaVuSans-49"/>
       <use x="63.623047" xlink:href="#DejaVuSans-49"/>
       <use x="127.246094" xlink:href="#DejaVuSans-46"/>
       <use x="159.033203" xlink:href="#DejaVuSans-56"/>
      </g>
     </g>
    </g>
    <g id="ytick_2">
     <g id="line2d_10">
      <g>
       <use style="stroke:#000000;stroke-width:0.8;" x="50.14375" xlink:href="#m9a46ed44a9" y="207.773531"/>
      </g>
     </g>
     <g id="text_11">
      <!-- 11.9 -->
      <g transform="translate(20.878125 211.57275)scale(0.1 -0.1)">
       <use xlink:href="#DejaVuSans-49"/>
       <use x="63.623047" xlink:href="#DejaVuSans-49"/>
       <use x="127.246094" xlink:href="#DejaVuSans-46"/>
       <use x="159.033203" xlink:href="#DejaVuSans-57"/>
      </g>
     </g>
    </g>
    <g id="ytick_3">
     <g id="line2d_11">
      <g>
       <use style="stroke:#000000;stroke-width:0.8;" x="50.14375" xlink:href="#m9a46ed44a9" y="167.244029"/>
      </g>
     </g>
     <g id="text_12">
      <!-- 12.0 -->
      <g transform="translate(20.878125 171.043248)scale(0.1 -0.1)">
       <use xlink:href="#DejaVuSans-49"/>
       <use x="63.623047" xlink:href="#DejaVuSans-50"/>
       <use x="127.246094" xlink:href="#DejaVuSans-46"/>
       <use x="159.033203" xlink:href="#DejaVuSans-48"/>
      </g>
     </g>
    </g>
    <g id="ytick_4">
     <g id="line2d_12">
      <g>
       <use style="stroke:#000000;stroke-width:0.8;" x="50.14375" xlink:href="#m9a46ed44a9" y="126.714527"/>
      </g>
     </g>
     <g id="text_13">
      <!-- 12.1 -->
      <g transform="translate(20.878125 130.513746)scale(0.1 -0.1)">
       <use xlink:href="#DejaVuSans-49"/>
       <use x="63.623047" xlink:href="#DejaVuSans-50"/>
       <use x="127.246094" xlink:href="#DejaVuSans-46"/>
       <use x="159.033203" xlink:href="#DejaVuSans-49"/>
      </g>
     </g>
    </g>
    <g id="ytick_5">
     <g id="line2d_13">
      <g>
       <use style="stroke:#000000;stroke-width:0.8;" x="50.14375" xlink:href="#m9a46ed44a9" y="86.185026"/>
      </g>
     </g>
     <g id="text_14">
      <!-- 12.2 -->
      <g transform="translate(20.878125 89.984244)scale(0.1 -0.1)">
       <use xlink:href="#DejaVuSans-49"/>
       <use x="63.623047" xlink:href="#DejaVuSans-50"/>
       <use x="127.246094" xlink:href="#DejaVuSans-46"/>
       <use x="159.033203" xlink:href="#DejaVuSans-50"/>
      </g>
     </g>
    </g>
    <g id="ytick_6">
     <g id="line2d_14">
      <g>
       <use style="stroke:#000000;stroke-width:0.8;" x="50.14375" xlink:href="#m9a46ed44a9" y="45.655524"/>
      </g>
     </g>
     <g id="text_15">
      <!-- 12.3 -->
      <g transform="translate(20.878125 49.454743)scale(0.1 -0.1)">
       <use xlink:href="#DejaVuSans-49"/>
       <use x="63.623047" xlink:href="#DejaVuSans-50"/>
       <use x="127.246094" xlink:href="#DejaVuSans-46"/>
       <use x="159.033203" xlink:href="#DejaVuSans-51"/>
      </g>
     </g>
    </g>
    <g id="text_16">
     <!-- t2 -->
     <g transform="translate(14.798438 142.805406)rotate(-90)scale(0.1 -0.1)">
      <defs>
       <path d="M 18.3125 70.21875 
L 18.3125 54.6875 
L 36.8125 54.6875 
L 36.8125 47.703125 
L 18.3125 47.703125 
L 18.3125 18.015625 
Q 18.3125 11.328125 20.140625 9.421875 
Q 21.96875 7.515625 27.59375 7.515625 
L 36.8125 7.515625 
L 36.8125 0 
L 27.59375 0 
Q 17.1875 0 13.234375 3.875 
Q 9.28125 7.765625 9.28125 18.015625 
L 9.28125 47.703125 
L 2.6875 47.703125 
L 2.6875 54.6875 
L 9.28125 54.6875 
L 9.28125 70.21875 
z
" id="DejaVuSans-116"/>
      </defs>
      <use xlink:href="#DejaVuSans-116"/>
      <use x="39.208984" xlink:href="#DejaVuSans-50"/>
     </g>
    </g>
   </g>
   <g id="patch_3">
    <path d="M 50.14375 268.128 
L 50.14375 7.2 
" style="fill:none;stroke:#000000;stroke-linecap:square;stroke-linejoin:miter;stroke-width:0.8;"/>
   </g>
   <g id="patch_4">
    <path d="M 374.798295 268.128 
L 374.798295 7.2 
" style="fill:none;stroke:#000000;stroke-linecap:square;stroke-linejoin:miter;stroke-width:0.8;"/>
   </g>
   <g id="patch_5">
    <path d="M 50.14375 268.128 
L 374.798295 268.128 
" style="fill:none;stroke:#000000;stroke-linecap:square;stroke-linejoin:miter;stroke-width:0.8;"/>
   </g>
   <g id="patch_6">
    <path d="M 50.14375 7.2 
L 374.798295 7.2 
" style="fill:none;stroke:#000000;stroke-linecap:square;stroke-linejoin:miter;stroke-width:0.8;"/>
   </g>
  </g>
  <g id="axes_2">
   <g id="patch_7">
    <path d="M 439.729205 268.128 
L 764.38375 268.128 
L 764.38375 7.2 
L 439.729205 7.2 
z
" style="fill:#ffffff;"/>
   </g>
   <g id="PathCollection_2">
    <defs>
     <path d="M 0 2.738613 
C 0.726289 2.738613 1.422928 2.450055 1.936492 1.936492 
C 2.450055 1.422928 2.738613 0.726289 2.738613 -0 
C 2.738613 -0.726289 2.450055 -1.422928 1.936492 -1.936492 
C 1.422928 -2.450055 0.726289 -2.738613 0 -2.738613 
C -0.726289 -2.738613 -1.422928 -2.450055 -1.936492 -1.936492 
C -2.450055 -1.422928 -2.738613 -0.726289 -2.738613 0 
C -2.738613 0.726289 -2.450055 1.422928 -1.936492 1.936492 
C -1.422928 2.450055 -0.726289 2.738613 0 2.738613 
z
" id="C1_0_3a5a54d4af"/>
    </defs>
    <g clip-path="url(#p3d52832fa3)">
     <use style="fill:#440154;stroke:#440154;" x="631.570527" xlink:href="#C1_0_3a5a54d4af" y="225.649398"/>
    </g>
    <g clip-path="url(#p3d52832fa3)">
     <use style="fill:#34b679;stroke:#34b679;" x="572.542428" xlink:href="#C1_0_3a5a54d4af" y="256.226643"/>
    </g>
    <g clip-path="url(#p3d52832fa3)">
     <use style="fill:#d8e219;stroke:#d8e219;" x="513.514329" xlink:href="#C1_0_3a5a54d4af" y="226.925849"/>
    </g>
    <g clip-path="url(#p3d52832fa3)">
     <use style="fill:#fde725;stroke:#fde725;" x="454.486229" xlink:href="#C1_0_3a5a54d4af" y="126.730188"/>
    </g>
    <g clip-path="url(#p3d52832fa3)">
     <use style="fill:#440154;stroke:#440154;" x="631.570527" xlink:href="#C1_0_3a5a54d4af" y="225.649398"/>
    </g>
    <g clip-path="url(#p3d52832fa3)">
     <use style="fill:#fde725;stroke:#fde725;" x="454.486229" xlink:href="#C1_0_3a5a54d4af" y="126.730188"/>
    </g>
    <g clip-path="url(#p3d52832fa3)">
     <use style="fill:#dde318;stroke:#dde318;" x="509.65303" xlink:href="#C1_0_3a5a54d4af" y="222.671244"/>
    </g>
    <g clip-path="url(#p3d52832fa3)">
     <use style="fill:#3aba76;stroke:#3aba76;" x="570.611778" xlink:href="#C1_0_3a5a54d4af" y="256.267636"/>
    </g>
    <g clip-path="url(#p3d52832fa3)">
     <use style="fill:#40bd72;stroke:#40bd72;" x="568.453825" xlink:href="#C1_0_3a5a54d4af" y="256.237268"/>
    </g>
    <g clip-path="url(#p3d52832fa3)">
     <use style="fill:#3fbc73;stroke:#3fbc73;" x="569.351323" xlink:href="#C1_0_3a5a54d4af" y="256.259698"/>
    </g>
    <g clip-path="url(#p3d52832fa3)">
     <use style="fill:#3fbc73;stroke:#3fbc73;" x="569.38744" xlink:href="#C1_0_3a5a54d4af" y="256.26032"/>
    </g>
    <g clip-path="url(#p3d52832fa3)">
     <use style="fill:#3fbc73;stroke:#3fbc73;" x="569.351323" xlink:href="#C1_0_3a5a54d4af" y="256.259698"/>
    </g>
    <g clip-path="url(#p3d52832fa3)">
     <use style="fill:#fde725;stroke:#fde725;" x="454.486229" xlink:href="#C1_0_3a5a54d4af" y="126.730188"/>
    </g>
    <g clip-path="url(#p3d52832fa3)">
     <use style="fill:#fbe723;stroke:#fbe723;" x="468.285283" xlink:href="#C1_0_3a5a54d4af" y="157.176992"/>
    </g>
    <g clip-path="url(#p3d52832fa3)">
     <use style="fill:#d0e11c;stroke:#d0e11c;" x="518.818303" xlink:href="#C1_0_3a5a54d4af" y="232.278095"/>
    </g>
    <g clip-path="url(#p3d52832fa3)">
     <use style="fill:#efe51c;stroke:#efe51c;" x="492.708474" xlink:href="#C1_0_3a5a54d4af" y="200.339912"/>
    </g>
    <g clip-path="url(#p3d52832fa3)">
     <use style="fill:#e5e419;stroke:#e5e419;" x="503.676407" xlink:href="#C1_0_3a5a54d4af" y="215.481839"/>
    </g>
    <g clip-path="url(#p3d52832fa3)">
     <use style="fill:#e7e419;stroke:#e7e419;" x="501.376906" xlink:href="#C1_0_3a5a54d4af" y="212.517885"/>
    </g>
    <g clip-path="url(#p3d52832fa3)">
     <use style="fill:#e7e419;stroke:#e7e419;" x="501.648794" xlink:href="#C1_0_3a5a54d4af" y="212.874109"/>
    </g>
    <g clip-path="url(#p3d52832fa3)">
     <use style="fill:#e7e419;stroke:#e7e419;" x="501.683219" xlink:href="#C1_0_3a5a54d4af" y="212.919118"/>
    </g>
    <g clip-path="url(#p3d52832fa3)">
     <use style="fill:#440154;stroke:#440154;" x="631.570527" xlink:href="#C1_0_3a5a54d4af" y="225.649398"/>
    </g>
    <g clip-path="url(#p3d52832fa3)">
     <use style="fill:#3fbc73;stroke:#3fbc73;" x="690.598626" xlink:href="#C1_0_3a5a54d4af" y="144.103932"/>
    </g>
    <g clip-path="url(#p3d52832fa3)">
     <use style="fill:#eae51a;stroke:#eae51a;" x="749.626725" xlink:href="#C1_0_3a5a54d4af" y="19.060364"/>
    </g>
    <g clip-path="url(#p3d52832fa3)">
     <use style="fill:#440154;stroke:#440154;" x="631.570527" xlink:href="#C1_0_3a5a54d4af" y="225.649398"/>
    </g>
    <g clip-path="url(#p3d52832fa3)">
     <use style="fill:#eae51a;stroke:#eae51a;" x="749.626725" xlink:href="#C1_0_3a5a54d4af" y="19.060364"/>
    </g>
    <g clip-path="url(#p3d52832fa3)">
     <use style="fill:#a0da39;stroke:#a0da39;" x="715.55611" xlink:href="#C1_0_3a5a54d4af" y="96.123369"/>
    </g>
    <g clip-path="url(#p3d52832fa3)">
     <use style="fill:#1f958b;stroke:#1f958b;" x="673.071922" xlink:href="#C1_0_3a5a54d4af" y="173.170089"/>
    </g>
    <g clip-path="url(#p3d52832fa3)">
     <use style="fill:#4ec36b;stroke:#4ec36b;" x="694.091289" xlink:href="#C1_0_3a5a54d4af" y="137.847638"/>
    </g>
    <g clip-path="url(#p3d52832fa3)">
     <use style="fill:#40bd72;stroke:#40bd72;" x="690.739827" xlink:href="#C1_0_3a5a54d4af" y="143.85398"/>
    </g>
    <g clip-path="url(#p3d52832fa3)">
     <use style="fill:#3fbc73;stroke:#3fbc73;" x="690.24816" xlink:href="#C1_0_3a5a54d4af" y="144.723362"/>
    </g>
    <g clip-path="url(#p3d52832fa3)">
     <use style="fill:#3fbc73;stroke:#3fbc73;" x="690.2873" xlink:href="#C1_0_3a5a54d4af" y="144.654246"/>
    </g>
    <g clip-path="url(#p3d52832fa3)">
     <use style="fill:#3fbc73;stroke:#3fbc73;" x="690.24816" xlink:href="#C1_0_3a5a54d4af" y="144.723362"/>
    </g>
    <g clip-path="url(#p3d52832fa3)">
     <use style="fill:#eae51a;stroke:#eae51a;" x="749.626725" xlink:href="#C1_0_3a5a54d4af" y="19.060364"/>
    </g>
    <g clip-path="url(#p3d52832fa3)">
     <use style="fill:#eae51a;stroke:#eae51a;" x="748.525283" xlink:href="#C1_0_3a5a54d4af" y="21.752811"/>
    </g>
    <g clip-path="url(#p3d52832fa3)">
     <use style="fill:#e7e419;stroke:#e7e419;" x="746.764051" xlink:href="#C1_0_3a5a54d4af" y="26.031165"/>
    </g>
    <g clip-path="url(#p3d52832fa3)">
     <use style="fill:#e7e419;stroke:#e7e419;" x="746.833017" xlink:href="#C1_0_3a5a54d4af" y="25.864175"/>
    </g>
   </g>
   <g id="matplotlib.axis_3">
    <g id="xtick_9">
     <g id="line2d_15">
      <g>
       <use style="stroke:#000000;stroke-width:0.8;" x="462.82867" xlink:href="#mc4e6b01f34" y="268.128"/>
      </g>
     </g>
     <g id="text_17">
      <!-- 10.5 -->
      <g transform="translate(451.695857 282.726438)scale(0.1 -0.1)">
       <defs>
        <path d="M 10.796875 72.90625 
L 49.515625 72.90625 
L 49.515625 64.59375 
L 19.828125 64.59375 
L 19.828125 46.734375 
Q 21.96875 47.46875 24.109375 47.828125 
Q 26.265625 48.1875 28.421875 48.1875 
Q 40.625 48.1875 47.75 41.5 
Q 54.890625 34.8125 54.890625 23.390625 
Q 54.890625 11.625 47.5625 5.09375 
Q 40.234375 -1.421875 26.90625 -1.421875 
Q 22.3125 -1.421875 17.546875 -0.640625 
Q 12.796875 0.140625 7.71875 1.703125 
L 7.71875 11.625 
Q 12.109375 9.234375 16.796875 8.0625 
Q 21.484375 6.890625 26.703125 6.890625 
Q 35.15625 6.890625 40.078125 11.328125 
Q 45.015625 15.765625 45.015625 23.390625 
Q 45.015625 31 40.078125 35.4375 
Q 35.15625 39.890625 26.703125 39.890625 
Q 22.75 39.890625 18.8125 39.015625 
Q 14.890625 38.140625 10.796875 36.28125 
z
" id="DejaVuSans-53"/>
       </defs>
       <use xlink:href="#DejaVuSans-49"/>
       <use x="63.623047" xlink:href="#DejaVuSans-48"/>
       <use x="127.246094" xlink:href="#DejaVuSans-46"/>
       <use x="159.033203" xlink:href="#DejaVuSans-53"/>
      </g>
     </g>
    </g>
    <g id="xtick_10">
     <g id="line2d_16">
      <g>
       <use style="stroke:#000000;stroke-width:0.8;" x="526.551249" xlink:href="#mc4e6b01f34" y="268.128"/>
      </g>
     </g>
     <g id="text_18">
      <!-- 11.0 -->
      <g transform="translate(515.418437 282.726438)scale(0.1 -0.1)">
       <use xlink:href="#DejaVuSans-49"/>
       <use x="63.623047" xlink:href="#DejaVuSans-49"/>
       <use x="127.246094" xlink:href="#DejaVuSans-46"/>
       <use x="159.033203" xlink:href="#DejaVuSans-48"/>
      </g>
     </g>
    </g>
    <g id="xtick_11">
     <g id="line2d_17">
      <g>
       <use style="stroke:#000000;stroke-width:0.8;" x="590.273829" xlink:href="#mc4e6b01f34" y="268.128"/>
      </g>
     </g>
     <g id="text_19">
      <!-- 11.5 -->
      <g transform="translate(579.141016 282.726438)scale(0.1 -0.1)">
       <use xlink:href="#DejaVuSans-49"/>
       <use x="63.623047" xlink:href="#DejaVuSans-49"/>
       <use x="127.246094" xlink:href="#DejaVuSans-46"/>
       <use x="159.033203" xlink:href="#DejaVuSans-53"/>
      </g>
     </g>
    </g>
    <g id="xtick_12">
     <g id="line2d_18">
      <g>
       <use style="stroke:#000000;stroke-width:0.8;" x="653.996408" xlink:href="#mc4e6b01f34" y="268.128"/>
      </g>
     </g>
     <g id="text_20">
      <!-- 12.0 -->
      <g transform="translate(642.863596 282.726438)scale(0.1 -0.1)">
       <use xlink:href="#DejaVuSans-49"/>
       <use x="63.623047" xlink:href="#DejaVuSans-50"/>
       <use x="127.246094" xlink:href="#DejaVuSans-46"/>
       <use x="159.033203" xlink:href="#DejaVuSans-48"/>
      </g>
     </g>
    </g>
    <g id="xtick_13">
     <g id="line2d_19">
      <g>
       <use style="stroke:#000000;stroke-width:0.8;" x="717.718988" xlink:href="#mc4e6b01f34" y="268.128"/>
      </g>
     </g>
     <g id="text_21">
      <!-- 12.5 -->
      <g transform="translate(706.586175 282.726438)scale(0.1 -0.1)">
       <use xlink:href="#DejaVuSans-49"/>
       <use x="63.623047" xlink:href="#DejaVuSans-50"/>
       <use x="127.246094" xlink:href="#DejaVuSans-46"/>
       <use x="159.033203" xlink:href="#DejaVuSans-53"/>
      </g>
     </g>
    </g>
    <g id="text_22">
     <!-- t2 -->
     <g transform="translate(596.915071 296.404563)scale(0.1 -0.1)">
      <use xlink:href="#DejaVuSans-116"/>
      <use x="39.208984" xlink:href="#DejaVuSans-50"/>
     </g>
    </g>
   </g>
   <g id="matplotlib.axis_4">
    <g id="ytick_7">
     <g id="line2d_20">
      <g>
       <use style="stroke:#000000;stroke-width:0.8;" x="439.729205" xlink:href="#m9a46ed44a9" y="236.10314"/>
      </g>
     </g>
     <g id="text_23">
      <!-- 2.98 -->
      <g transform="translate(410.46358 239.902359)scale(0.1 -0.1)">
       <use xlink:href="#DejaVuSans-50"/>
       <use x="63.623047" xlink:href="#DejaVuSans-46"/>
       <use x="95.410156" xlink:href="#DejaVuSans-57"/>
       <use x="159.033203" xlink:href="#DejaVuSans-56"/>
      </g>
     </g>
    </g>
    <g id="ytick_8">
     <g id="line2d_21">
      <g>
       <use style="stroke:#000000;stroke-width:0.8;" x="439.729205" xlink:href="#m9a46ed44a9" y="202.496319"/>
      </g>
     </g>
     <g id="text_24">
      <!-- 3.00 -->
      <g transform="translate(410.46358 206.295538)scale(0.1 -0.1)">
       <use xlink:href="#DejaVuSans-51"/>
       <use x="63.623047" xlink:href="#DejaVuSans-46"/>
       <use x="95.410156" xlink:href="#DejaVuSans-48"/>
       <use x="159.033203" xlink:href="#DejaVuSans-48"/>
      </g>
     </g>
    </g>
    <g id="ytick_9">
     <g id="line2d_22">
      <g>
       <use style="stroke:#000000;stroke-width:0.8;" x="439.729205" xlink:href="#m9a46ed44a9" y="168.889497"/>
      </g>
     </g>
     <g id="text_25">
      <!-- 3.02 -->
      <g transform="translate(410.46358 172.688716)scale(0.1 -0.1)">
       <use xlink:href="#DejaVuSans-51"/>
       <use x="63.623047" xlink:href="#DejaVuSans-46"/>
       <use x="95.410156" xlink:href="#DejaVuSans-48"/>
       <use x="159.033203" xlink:href="#DejaVuSans-50"/>
      </g>
     </g>
    </g>
    <g id="ytick_10">
     <g id="line2d_23">
      <g>
       <use style="stroke:#000000;stroke-width:0.8;" x="439.729205" xlink:href="#m9a46ed44a9" y="135.282676"/>
      </g>
     </g>
     <g id="text_26">
      <!-- 3.04 -->
      <g transform="translate(410.46358 139.081895)scale(0.1 -0.1)">
       <use xlink:href="#DejaVuSans-51"/>
       <use x="63.623047" xlink:href="#DejaVuSans-46"/>
       <use x="95.410156" xlink:href="#DejaVuSans-48"/>
       <use x="159.033203" xlink:href="#DejaVuSans-52"/>
      </g>
     </g>
    </g>
    <g id="ytick_11">
     <g id="line2d_24">
      <g>
       <use style="stroke:#000000;stroke-width:0.8;" x="439.729205" xlink:href="#m9a46ed44a9" y="101.675855"/>
      </g>
     </g>
     <g id="text_27">
      <!-- 3.06 -->
      <g transform="translate(410.46358 105.475073)scale(0.1 -0.1)">
       <defs>
        <path d="M 33.015625 40.375 
Q 26.375 40.375 22.484375 35.828125 
Q 18.609375 31.296875 18.609375 23.390625 
Q 18.609375 15.53125 22.484375 10.953125 
Q 26.375 6.390625 33.015625 6.390625 
Q 39.65625 6.390625 43.53125 10.953125 
Q 47.40625 15.53125 47.40625 23.390625 
Q 47.40625 31.296875 43.53125 35.828125 
Q 39.65625 40.375 33.015625 40.375 
z
M 52.59375 71.296875 
L 52.59375 62.3125 
Q 48.875 64.0625 45.09375 64.984375 
Q 41.3125 65.921875 37.59375 65.921875 
Q 27.828125 65.921875 22.671875 59.328125 
Q 17.53125 52.734375 16.796875 39.40625 
Q 19.671875 43.65625 24.015625 45.921875 
Q 28.375 48.1875 33.59375 48.1875 
Q 44.578125 48.1875 50.953125 41.515625 
Q 57.328125 34.859375 57.328125 23.390625 
Q 57.328125 12.15625 50.6875 5.359375 
Q 44.046875 -1.421875 33.015625 -1.421875 
Q 20.359375 -1.421875 13.671875 8.265625 
Q 6.984375 17.96875 6.984375 36.375 
Q 6.984375 53.65625 15.1875 63.9375 
Q 23.390625 74.21875 37.203125 74.21875 
Q 40.921875 74.21875 44.703125 73.484375 
Q 48.484375 72.75 52.59375 71.296875 
z
" id="DejaVuSans-54"/>
       </defs>
       <use xlink:href="#DejaVuSans-51"/>
       <use x="63.623047" xlink:href="#DejaVuSans-46"/>
       <use x="95.410156" xlink:href="#DejaVuSans-48"/>
       <use x="159.033203" xlink:href="#DejaVuSans-54"/>
      </g>
     </g>
    </g>
    <g id="ytick_12">
     <g id="line2d_25">
      <g>
       <use style="stroke:#000000;stroke-width:0.8;" x="439.729205" xlink:href="#m9a46ed44a9" y="68.069033"/>
      </g>
     </g>
     <g id="text_28">
      <!-- 3.08 -->
      <g transform="translate(410.46358 71.868252)scale(0.1 -0.1)">
       <use xlink:href="#DejaVuSans-51"/>
       <use x="63.623047" xlink:href="#DejaVuSans-46"/>
       <use x="95.410156" xlink:href="#DejaVuSans-48"/>
       <use x="159.033203" xlink:href="#DejaVuSans-56"/>
      </g>
     </g>
    </g>
    <g id="ytick_13">
     <g id="line2d_26">
      <g>
       <use style="stroke:#000000;stroke-width:0.8;" x="439.729205" xlink:href="#m9a46ed44a9" y="34.462212"/>
      </g>
     </g>
     <g id="text_29">
      <!-- 3.10 -->
      <g transform="translate(410.46358 38.261431)scale(0.1 -0.1)">
       <use xlink:href="#DejaVuSans-51"/>
       <use x="63.623047" xlink:href="#DejaVuSans-46"/>
       <use x="95.410156" xlink:href="#DejaVuSans-49"/>
       <use x="159.033203" xlink:href="#DejaVuSans-48"/>
      </g>
     </g>
    </g>
    <g id="text_30">
     <!-- a1 -->
     <g transform="translate(404.383892 143.909313)rotate(-90)scale(0.1 -0.1)">
      <use xlink:href="#DejaVuSans-97"/>
      <use x="61.279297" xlink:href="#DejaVuSans-49"/>
     </g>
    </g>
   </g>
   <g id="patch_8">
    <path d="M 439.729205 268.128 
L 439.729205 7.2 
" style="fill:none;stroke:#000000;stroke-linecap:square;stroke-linejoin:miter;stroke-width:0.8;"/>
   </g>
   <g id="patch_9">
    <path d="M 764.38375 268.128 
L 764.38375 7.2 
" style="fill:none;stroke:#000000;stroke-linecap:square;stroke-linejoin:miter;stroke-width:0.8;"/>
   </g>
   <g id="patch_10">
    <path d="M 439.729205 268.128 
L 764.38375 268.128 
" style="fill:none;stroke:#000000;stroke-linecap:square;stroke-linejoin:miter;stroke-width:0.8;"/>
   </g>
   <g id="patch_11">
    <path d="M 439.729205 7.2 
L 764.38375 7.2 
" style="fill:none;stroke:#000000;stroke-linecap:square;stroke-linejoin:miter;stroke-width:0.8;"/>
   </g>
  </g>
 </g>
 <defs>
  <clipPath id="p23745b551a">
   <rect height="260.928" width="324.654545" x="50.14375" y="7.2"/>
  </clipPath>
  <clipPath id="p3d52832fa3">
   <rect height="260.928" width="324.654545" x="439.729205" y="7.2"/>
  </clipPath>
 </defs>
</svg>
