<?xml version="1.0" encoding="utf-8" standalone="no"?>
<!DOCTYPE svg PUBLIC "-//W3C//DTD SVG 1.1//EN"
  "http://www.w3.org/Graphics/SVG/1.1/DTD/svg11.dtd">
<svg height="309.483469pt" version="1.1" viewBox="0 0 749.294468 309.483469" width="749.294468pt" xmlns="http://www.w3.org/2000/svg" xmlns:xlink="http://www.w3.org/1999/xlink">
 <metadata>
  <rdf:RDF xmlns:cc="http://creativecommons.org/ns#" xmlns:dc="http://purl.org/dc/elements/1.1/" xmlns:rdf="http://www.w3.org/1999/02/22-rdf-syntax-ns#">
   <cc:Work>
    <dc:type rdf:resource="http://purl.org/dc/dcmitype/StillImage"/>
    <dc:date>2021-10-14T14:44:41.387772</dc:date>
    <dc:format>image/svg+xml</dc:format>
    <dc:creator>
     <cc:Agent>
      <dc:title>Matplotlib v3.4.2, https://matplotlib.org/</dc:title>
     </cc:Agent>
    </dc:creator>
   </cc:Work>
  </rdf:RDF>
 </metadata>
 <defs>
  <style type="text/css">*{stroke-linecap:butt;stroke-linejoin:round;}</style>
 </defs>
 <g id="figure_1">
  <g id="patch_1">
   <path d="M 0 309.483469 
L 749.294468 309.483469 
L 749.294468 0 
L 0 0 
z
" style="fill:none;"/>
  </g>
  <g id="axes_1">
   <g id="patch_2">
    <path d="M 40.603125 271.927219 
L 300.326761 271.927219 
L 300.326761 10.999219 
L 40.603125 10.999219 
z
" style="fill:#ffffff;"/>
   </g>
   <g id="PathCollection_1">
    <path clip-path="url(#pb37b8e9d61)" d="M 165.986949 153.004678 
L 174.942937 150.859874 
L 179.540005 145.961977 
L 182.481129 136.96446 
L 174.942937 130.125779 
L 165.986949 132.492151 
L 161.445346 136.96446 
L 159.842963 145.961977 
z
" style="fill:#471365;"/>
   </g>
   <g id="PathCollection_2">
    <path clip-path="url(#pb37b8e9d61)" d="M 165.986949 159.179916 
L 174.942937 157.409943 
L 178.117875 154.959495 
L 183.898924 148.828406 
L 185.834287 145.961977 
L 188.578481 136.96446 
L 185.736136 127.966943 
L 183.898924 126.521128 
L 174.942937 124.401771 
L 165.986949 126.359722 
L 163.363358 127.966943 
L 157.030962 134.202074 
L 155.289083 136.96446 
L 154.128636 145.961977 
L 157.030962 153.583511 
L 158.194006 154.959495 
z
M 159.842963 145.961977 
L 161.445346 136.96446 
L 165.986949 132.492151 
L 174.942937 130.125779 
L 182.481129 136.96446 
L 179.540005 145.961977 
L 174.942937 150.859874 
L 165.986949 153.004678 
z
" style="fill:#463480;"/>
   </g>
   <g id="PathCollection_3">
    <path clip-path="url(#pb37b8e9d61)" d="M 165.986949 164.463126 
L 168.589704 163.957012 
L 174.942937 162.60394 
L 183.898924 155.741462 
L 184.593055 154.959495 
L 190.65314 145.961977 
L 192.854912 139.883719 
L 193.902877 136.96446 
L 193.110444 127.966943 
L 192.854912 127.585797 
L 183.898924 120.660375 
L 174.942937 119.680822 
L 165.986949 121.922623 
L 157.030962 127.357681 
L 156.389462 127.966943 
L 150.791999 136.96446 
L 149.67982 145.961977 
L 152.748421 154.959495 
L 157.030962 160.270224 
L 164.657911 163.957012 
z
M 158.194006 154.959495 
L 157.030962 153.583511 
L 154.128636 145.961977 
L 155.289083 136.96446 
L 157.030962 134.202074 
L 163.363358 127.966943 
L 165.986949 126.359722 
L 174.942937 124.401771 
L 183.898924 126.521128 
L 185.736136 127.966943 
L 188.578481 136.96446 
L 185.834287 145.961977 
L 183.898924 148.828406 
L 178.117875 154.959495 
L 174.942937 157.409943 
L 165.986949 159.179916 
z
" style="fill:#3b528b;"/>
   </g>
   <g id="PathCollection_4">
    <path clip-path="url(#pb37b8e9d61)" d="M 157.030962 165.942011 
L 165.986949 169.205442 
L 174.942937 167.599383 
L 180.369681 163.957012 
L 183.898924 161.289045 
L 189.517491 154.959495 
L 192.854912 149.964603 
L 195.34799 145.961977 
L 198.678441 136.96446 
L 198.902801 127.966943 
L 192.8776 118.969426 
L 192.854912 118.954005 
L 183.898924 115.740152 
L 174.942937 115.507248 
L 165.986949 117.587906 
L 163.175641 118.969426 
L 157.030962 122.511682 
L 151.287042 127.966943 
L 148.074975 133.491045 
L 146.439882 136.96446 
L 145.562554 145.961977 
L 147.918848 154.959495 
L 148.074975 155.236593 
L 154.805877 163.957012 
z
M 164.657911 163.957012 
L 157.030962 160.270224 
L 152.748421 154.959495 
L 149.67982 145.961977 
L 150.791999 136.96446 
L 156.389462 127.966943 
L 157.030962 127.357681 
L 165.986949 121.922623 
L 174.942937 119.680822 
L 183.898924 120.660375 
L 192.854912 127.585797 
L 193.110444 127.966943 
L 193.902877 136.96446 
L 192.854912 139.883719 
L 190.65314 145.961977 
L 184.593055 154.959495 
L 183.898924 155.741462 
L 174.942937 162.60394 
L 168.589704 163.957012 
L 165.986949 164.463126 
z
" style="fill:#2f6c8e;"/>
   </g>
   <g id="PathCollection_5">
    <path clip-path="url(#pb37b8e9d61)" d="M 165.986949 174.048859 
L 172.309608 172.954529 
L 174.942937 172.524879 
L 183.898924 166.917602 
L 186.865104 163.957012 
L 192.854912 157.075296 
L 194.47852 154.959495 
L 199.938516 145.961977 
L 201.810899 141.081426 
L 203.598314 136.96446 
L 204.690708 127.966943 
L 201.810899 120.020411 
L 201.258935 118.969426 
L 192.854912 113.257457 
L 183.898924 111.201336 
L 174.942937 111.430793 
L 165.986949 113.456943 
L 157.030962 117.693809 
L 155.256471 118.969426 
L 148.074975 125.682665 
L 146.254577 127.966943 
L 142.309037 136.96446 
L 141.632382 145.961977 
L 143.72777 154.959495 
L 148.074975 162.675052 
L 149.064462 163.957012 
L 157.030962 171.06393 
L 162.744861 172.954529 
z
M 154.805877 163.957012 
L 148.074975 155.236593 
L 147.918848 154.959495 
L 145.562554 145.961977 
L 146.439882 136.96446 
L 148.074975 133.491045 
L 151.287042 127.966943 
L 157.030962 122.511682 
L 163.175641 118.969426 
L 165.986949 117.587906 
L 174.942937 115.507248 
L 183.898924 115.740152 
L 192.854912 118.954005 
L 192.8776 118.969426 
L 198.902801 127.966943 
L 198.678441 136.96446 
L 195.34799 145.961977 
L 192.854912 149.964603 
L 189.517491 154.959495 
L 183.898924 161.289045 
L 180.369681 163.957012 
L 174.942937 167.599383 
L 165.986949 169.205442 
L 157.030962 165.942011 
z
" style="fill:#25848e;"/>
   </g>
   <g id="PathCollection_6">
    <path clip-path="url(#pb37b8e9d61)" d="M 157.030962 176.455524 
L 165.986949 179.273894 
L 174.942937 178.114434 
L 183.359973 172.954529 
L 183.898924 172.62118 
L 192.57945 163.957012 
L 192.854912 163.640532 
L 199.516505 154.959495 
L 201.810899 151.047812 
L 205.002072 145.961977 
L 208.7933 136.96446 
L 210.474128 127.966943 
L 208.886923 118.969426 
L 201.810899 111.411793 
L 199.159708 109.971908 
L 192.854912 107.629575 
L 183.898924 106.451881 
L 174.942937 106.983323 
L 165.986949 109.193153 
L 164.202926 109.971908 
L 157.030962 112.952355 
L 148.660704 118.969426 
L 148.074975 119.516964 
L 141.340978 127.966943 
L 139.118987 133.950798 
L 138.004489 136.96446 
L 137.45248 145.961977 
L 139.118987 153.010706 
L 139.536692 154.959495 
L 143.961886 163.957012 
L 148.074975 169.168054 
L 152.445828 172.954529 
z
M 162.744861 172.954529 
L 157.030962 171.06393 
L 149.064462 163.957012 
L 148.074975 162.675052 
L 143.72777 154.959495 
L 141.632382 145.961977 
L 142.309037 136.96446 
L 146.254577 127.966943 
L 148.074975 125.682665 
L 155.256471 118.969426 
L 157.030962 117.693809 
L 165.986949 113.456943 
L 174.942937 111.430793 
L 183.898924 111.201336 
L 192.854912 113.257457 
L 201.258935 118.969426 
L 201.810899 120.020411 
L 204.690708 127.966943 
L 203.598314 136.96446 
L 201.810899 141.081426 
L 199.938516 145.961977 
L 194.47852 154.959495 
L 192.854912 157.075296 
L 186.865104 163.957012 
L 183.898924 166.917602 
L 174.942937 172.524879 
L 172.309608 172.954529 
L 165.986949 174.048859 
z
" style="fill:#1e9c89;"/>
   </g>
   <g id="PathCollection_7">
    <path clip-path="url(#pb37b8e9d61)" d="M 157.030962 182.019795 
L 165.986949 185.200158 
L 174.942937 184.319063 
L 179.184564 181.952046 
L 183.898924 179.47879 
L 190.850744 172.954529 
L 192.854912 170.957923 
L 198.740715 163.957012 
L 201.810899 159.666111 
L 205.259983 154.959495 
L 210.391473 145.961977 
L 210.766887 145.053326 
L 214.853559 136.96446 
L 217.205884 127.966943 
L 216.907588 118.969426 
L 211.574657 109.971908 
L 210.766887 109.300081 
L 201.810899 104.224826 
L 192.854912 102.095265 
L 183.898924 101.624175 
L 174.942937 102.329071 
L 165.986949 104.212702 
L 157.030962 107.762924 
L 153.381602 109.971908 
L 148.074975 113.320225 
L 141.991127 118.969426 
L 139.118987 122.927121 
L 135.875467 127.966943 
L 133.110951 136.96446 
L 132.829552 145.961977 
L 134.64443 154.959495 
L 138.964314 163.957012 
L 139.118987 164.18667 
L 145.472252 172.954529 
L 148.074975 175.711292 
L 156.937415 181.952046 
z
M 152.445828 172.954529 
L 148.074975 169.168054 
L 143.961886 163.957012 
L 139.536692 154.959495 
L 139.118987 153.010706 
L 137.45248 145.961977 
L 138.004489 136.96446 
L 139.118987 133.950798 
L 141.340978 127.966943 
L 148.074975 119.516964 
L 148.660704 118.969426 
L 157.030962 112.952355 
L 164.202926 109.971908 
L 165.986949 109.193153 
L 174.942937 106.983323 
L 183.898924 106.451881 
L 192.854912 107.629575 
L 199.159708 109.971908 
L 201.810899 111.411793 
L 208.886923 118.969426 
L 210.474128 127.966943 
L 208.7933 136.96446 
L 205.002072 145.961977 
L 201.810899 151.047812 
L 199.516505 154.959495 
L 192.854912 163.640532 
L 192.57945 163.957012 
L 183.898924 172.62118 
L 183.359973 172.954529 
L 174.942937 178.114434 
L 165.986949 179.273894 
L 157.030962 176.455524 
z
" style="fill:#2fb47c;"/>
   </g>
   <g id="PathCollection_8">
    <path clip-path="url(#pb37b8e9d61)" d="M 165.986949 192.253933 
L 174.942937 192.006208 
L 177.123681 190.949564 
L 183.898924 188.010264 
L 190.620391 181.952046 
L 192.854912 179.910811 
L 198.914307 172.954529 
L 201.810899 169.275704 
L 205.969165 163.957012 
L 210.766887 156.60996 
L 211.979485 154.959495 
L 217.620051 145.961977 
L 219.722874 141.263065 
L 222.185858 136.96446 
L 225.372844 127.966943 
L 226.273904 118.969426 
L 223.719263 109.971908 
L 219.722874 105.444952 
L 213.6741 100.974391 
L 210.766887 99.490237 
L 201.810899 96.609596 
L 192.854912 95.397327 
L 183.898924 95.329303 
L 174.942937 96.261137 
L 165.986949 98.371422 
L 159.608941 100.974391 
L 157.030962 101.815306 
L 148.074975 106.303379 
L 143.270064 109.971908 
L 139.118987 113.668349 
L 134.427509 118.969426 
L 130.163 127.393788 
L 129.856884 127.966943 
L 127.29922 136.96446 
L 127.24108 145.961977 
L 129.411012 154.959495 
L 130.163 156.571745 
L 132.895296 163.957012 
L 138.890845 172.954529 
L 139.118987 173.234823 
L 147.142266 181.952046 
L 148.074975 182.850809 
L 157.030962 189.13265 
L 162.857515 190.949564 
z
M 156.937415 181.952046 
L 148.074975 175.711292 
L 145.472252 172.954529 
L 139.118987 164.18667 
L 138.964314 163.957012 
L 134.64443 154.959495 
L 132.829552 145.961977 
L 133.110951 136.96446 
L 135.875467 127.966943 
L 139.118987 122.927121 
L 141.991127 118.969426 
L 148.074975 113.320225 
L 153.381602 109.971908 
L 157.030962 107.762924 
L 165.986949 104.212702 
L 174.942937 102.329071 
L 183.898924 101.624175 
L 192.854912 102.095265 
L 201.810899 104.224826 
L 210.766887 109.300081 
L 211.574657 109.971908 
L 216.907588 118.969426 
L 217.205884 127.966943 
L 214.853559 136.96446 
L 210.766887 145.053326 
L 210.391473 145.961977 
L 205.259983 154.959495 
L 201.810899 159.666111 
L 198.740715 163.957012 
L 192.854912 170.957923 
L 190.850744 172.954529 
L 183.898924 179.47879 
L 179.184564 181.952046 
L 174.942937 184.319063 
L 165.986949 185.200158 
L 157.030962 182.019795 
z
" style="fill:#5ec962;"/>
   </g>
   <g id="PathCollection_9">
    <path clip-path="url(#pb37b8e9d61)" d="M 165.986949 202.803314 
L 174.942937 203.886794 
L 183.898924 200.726963 
L 184.88157 199.947081 
L 192.854912 193.678596 
L 195.233038 190.949564 
L 201.810899 182.870842 
L 202.527619 181.952046 
L 209.428403 172.954529 
L 210.766887 171.023446 
L 216.192228 163.957012 
L 219.722874 158.371841 
L 222.297842 154.959495 
L 227.849756 145.961977 
L 228.678862 144.255939 
L 233.326663 136.96446 
L 236.985908 127.966943 
L 237.634849 124.941624 
L 239.575935 118.969426 
L 239.455917 109.971908 
L 237.634849 105.941932 
L 235.22732 100.974391 
L 228.678862 95.317301 
L 222.2419 91.976874 
L 219.722874 90.853534 
L 210.766887 88.11737 
L 201.810899 86.759387 
L 192.854912 86.342833 
L 183.898924 86.694794 
L 174.942937 87.848918 
L 165.986949 90.076234 
L 161.145828 91.976874 
L 157.030962 93.076738 
L 148.074975 96.781555 
L 141.790163 100.974391 
L 139.118987 102.680974 
L 131.151582 109.971908 
L 130.163 111.180237 
L 124.315936 118.969426 
L 121.207012 127.821262 
L 121.142124 127.966943 
L 119.198458 136.96446 
L 119.579367 145.961977 
L 121.207012 151.681971 
L 121.759717 154.959495 
L 124.753866 163.957012 
L 130.163 172.442091 
L 130.443483 172.954529 
L 136.947556 181.952046 
L 139.118987 184.330004 
L 146.173032 190.949564 
L 148.074975 192.701206 
L 157.030962 198.760593 
L 160.363836 199.947081 
z
M 162.857515 190.949564 
L 157.030962 189.13265 
L 148.074975 182.850809 
L 147.142266 181.952046 
L 139.118987 173.234823 
L 138.890845 172.954529 
L 132.895296 163.957012 
L 130.163 156.571745 
L 129.411012 154.959495 
L 127.24108 145.961977 
L 127.29922 136.96446 
L 129.856884 127.966943 
L 130.163 127.393788 
L 134.427509 118.969426 
L 139.118987 113.668349 
L 143.270064 109.971908 
L 148.074975 106.303379 
L 157.030962 101.815306 
L 159.608941 100.974391 
L 165.986949 98.371422 
L 174.942937 96.261137 
L 183.898924 95.329303 
L 192.854912 95.397327 
L 201.810899 96.609596 
L 210.766887 99.490237 
L 213.6741 100.974391 
L 219.722874 105.444952 
L 223.719263 109.971908 
L 226.273904 118.969426 
L 225.372844 127.966943 
L 222.185858 136.96446 
L 219.722874 141.263065 
L 217.620051 145.961977 
L 211.979485 154.959495 
L 210.766887 156.60996 
L 205.969165 163.957012 
L 201.810899 169.275704 
L 198.914307 172.954529 
L 192.854912 179.910811 
L 190.620391 181.952046 
L 183.898924 188.010264 
L 177.123681 190.949564 
L 174.942937 192.006208 
L 165.986949 192.253933 
z
" style="fill:#9bd93c;"/>
   </g>
   <g id="PathCollection_10">
    <path clip-path="url(#pb37b8e9d61)" d="M 49.559112 271.927219 
L 58.5151 271.927219 
L 67.471087 271.927219 
L 76.427075 271.927219 
L 85.383062 271.927219 
L 94.33905 271.927219 
L 103.295037 271.927219 
L 112.251025 271.927219 
L 121.207012 271.927219 
L 130.163 271.927219 
L 139.118987 271.927219 
L 148.074975 271.927219 
L 157.030962 271.927219 
L 165.986949 271.927219 
L 174.942937 271.927219 
L 183.898924 271.927219 
L 192.854912 271.927219 
L 201.810899 271.927219 
L 210.766887 271.927219 
L 219.722874 271.927219 
L 228.678862 271.927219 
L 237.634849 271.927219 
L 246.590837 271.927219 
L 255.546824 271.927219 
L 264.502812 271.927219 
L 273.458799 271.927219 
L 282.414786 271.927219 
L 291.370774 271.927219 
L 300.326761 271.927219 
L 300.326761 262.929702 
L 300.326761 253.932184 
L 300.326761 244.934667 
L 300.326761 235.93715 
L 300.326761 226.939633 
L 300.326761 217.942115 
L 300.326761 208.944598 
L 300.326761 199.947081 
L 300.326761 190.949564 
L 300.326761 181.952046 
L 300.326761 172.954529 
L 300.326761 163.957012 
L 300.326761 154.959495 
L 300.326761 145.961977 
L 300.326761 136.96446 
L 300.326761 127.966943 
L 300.326761 118.969426 
L 300.326761 109.971908 
L 300.326761 100.974391 
L 300.326761 91.976874 
L 300.326761 82.979357 
L 300.326761 73.981839 
L 300.326761 64.984322 
L 300.326761 55.986805 
L 300.326761 46.989288 
L 300.326761 37.99177 
L 300.326761 28.994253 
L 300.326761 19.996736 
L 300.326761 10.999219 
L 291.370774 10.999219 
L 282.414786 10.999219 
L 273.458799 10.999219 
L 264.502812 10.999219 
L 255.546824 10.999219 
L 246.590837 10.999219 
L 237.634849 10.999219 
L 228.678862 10.999219 
L 219.722874 10.999219 
L 210.766887 10.999219 
L 201.810899 10.999219 
L 192.854912 10.999219 
L 183.898924 10.999219 
L 174.942937 10.999219 
L 165.986949 10.999219 
L 157.030962 10.999219 
L 148.074975 10.999219 
L 139.118987 10.999219 
L 130.163 10.999219 
L 121.207012 10.999219 
L 112.251025 10.999219 
L 103.295037 10.999219 
L 94.33905 10.999219 
L 85.383062 10.999219 
L 76.427075 10.999219 
L 67.471087 10.999219 
L 58.5151 10.999219 
L 49.559112 10.999219 
L 40.603125 10.999219 
L 40.603125 19.996736 
L 40.603125 28.994253 
L 40.603125 37.99177 
L 40.603125 46.989288 
L 40.603125 55.986805 
L 40.603125 64.984322 
L 40.603125 73.981839 
L 40.603125 82.979357 
L 40.603125 91.976874 
L 40.603125 100.974391 
L 40.603125 109.971908 
L 40.603125 118.969426 
L 40.603125 127.966943 
L 40.603125 136.96446 
L 40.603125 145.961977 
L 40.603125 154.959495 
L 40.603125 163.957012 
L 40.603125 172.954529 
L 40.603125 181.952046 
L 40.603125 190.949564 
L 40.603125 199.947081 
L 40.603125 208.944598 
L 40.603125 217.942115 
L 40.603125 226.939633 
L 40.603125 235.93715 
L 40.603125 244.934667 
L 40.603125 253.932184 
L 40.603125 262.929702 
L 40.603125 271.927219 
z
M 160.363836 199.947081 
L 157.030962 198.760593 
L 148.074975 192.701206 
L 146.173032 190.949564 
L 139.118987 184.330004 
L 136.947556 181.952046 
L 130.443483 172.954529 
L 130.163 172.442091 
L 124.753866 163.957012 
L 121.759717 154.959495 
L 121.207012 151.681971 
L 119.579367 145.961977 
L 119.198458 136.96446 
L 121.142124 127.966943 
L 121.207012 127.821262 
L 124.315936 118.969426 
L 130.163 111.180237 
L 131.151582 109.971908 
L 139.118987 102.680974 
L 141.790163 100.974391 
L 148.074975 96.781555 
L 157.030962 93.076738 
L 161.145828 91.976874 
L 165.986949 90.076234 
L 174.942937 87.848918 
L 183.898924 86.694794 
L 192.854912 86.342833 
L 201.810899 86.759387 
L 210.766887 88.11737 
L 219.722874 90.853534 
L 222.2419 91.976874 
L 228.678862 95.317301 
L 235.22732 100.974391 
L 237.634849 105.941932 
L 239.455917 109.971908 
L 239.575935 118.969426 
L 237.634849 124.941624 
L 236.985908 127.966943 
L 233.326663 136.96446 
L 228.678862 144.255939 
L 227.849756 145.961977 
L 222.297842 154.959495 
L 219.722874 158.371841 
L 216.192228 163.957012 
L 210.766887 171.023446 
L 209.428403 172.954529 
L 202.527619 181.952046 
L 201.810899 182.870842 
L 195.233038 190.949564 
L 192.854912 193.678596 
L 184.88157 199.947081 
L 183.898924 200.726963 
L 174.942937 203.886794 
L 165.986949 202.803314 
z
" style="fill:#dfe318;"/>
   </g>
   <g id="matplotlib.axis_1">
    <g id="xtick_1">
     <g id="line2d_1">
      <defs>
       <path d="M 0 0 
L 0 3.5 
" id="m94f068fafe" style="stroke:#000000;stroke-width:0.8;"/>
      </defs>
      <g>
       <use style="stroke:#000000;stroke-width:0.8;" x="68.054513" xlink:href="#m94f068fafe" y="271.927219"/>
      </g>
     </g>
     <g id="text_1">
      <!-- 2.4 -->
      <g transform="translate(60.10295 286.525656)scale(0.1 -0.1)">
       <defs>
        <path d="M 1228 531 
L 3431 531 
L 3431 0 
L 469 0 
L 469 531 
Q 828 903 1448 1529 
Q 2069 2156 2228 2338 
Q 2531 2678 2651 2914 
Q 2772 3150 2772 3378 
Q 2772 3750 2511 3984 
Q 2250 4219 1831 4219 
Q 1534 4219 1204 4116 
Q 875 4013 500 3803 
L 500 4441 
Q 881 4594 1212 4672 
Q 1544 4750 1819 4750 
Q 2544 4750 2975 4387 
Q 3406 4025 3406 3419 
Q 3406 3131 3298 2873 
Q 3191 2616 2906 2266 
Q 2828 2175 2409 1742 
Q 1991 1309 1228 531 
z
" id="DejaVuSans-32" transform="scale(0.015625)"/>
        <path d="M 684 794 
L 1344 794 
L 1344 0 
L 684 0 
L 684 794 
z
" id="DejaVuSans-2e" transform="scale(0.015625)"/>
        <path d="M 2419 4116 
L 825 1625 
L 2419 1625 
L 2419 4116 
z
M 2253 4666 
L 3047 4666 
L 3047 1625 
L 3713 1625 
L 3713 1100 
L 3047 1100 
L 3047 0 
L 2419 0 
L 2419 1100 
L 313 1100 
L 313 1709 
L 2253 4666 
z
" id="DejaVuSans-34" transform="scale(0.015625)"/>
       </defs>
       <use xlink:href="#DejaVuSans-32"/>
       <use x="63.623047" xlink:href="#DejaVuSans-2e"/>
       <use x="95.410156" xlink:href="#DejaVuSans-34"/>
      </g>
     </g>
    </g>
    <g id="xtick_2">
     <g id="line2d_2">
      <g>
       <use style="stroke:#000000;stroke-width:0.8;" x="102.993689" xlink:href="#m94f068fafe" y="271.927219"/>
      </g>
     </g>
     <g id="text_2">
      <!-- 2.6 -->
      <g transform="translate(95.042127 286.525656)scale(0.1 -0.1)">
       <defs>
        <path d="M 2113 2584 
Q 1688 2584 1439 2293 
Q 1191 2003 1191 1497 
Q 1191 994 1439 701 
Q 1688 409 2113 409 
Q 2538 409 2786 701 
Q 3034 994 3034 1497 
Q 3034 2003 2786 2293 
Q 2538 2584 2113 2584 
z
M 3366 4563 
L 3366 3988 
Q 3128 4100 2886 4159 
Q 2644 4219 2406 4219 
Q 1781 4219 1451 3797 
Q 1122 3375 1075 2522 
Q 1259 2794 1537 2939 
Q 1816 3084 2150 3084 
Q 2853 3084 3261 2657 
Q 3669 2231 3669 1497 
Q 3669 778 3244 343 
Q 2819 -91 2113 -91 
Q 1303 -91 875 529 
Q 447 1150 447 2328 
Q 447 3434 972 4092 
Q 1497 4750 2381 4750 
Q 2619 4750 2861 4703 
Q 3103 4656 3366 4563 
z
" id="DejaVuSans-36" transform="scale(0.015625)"/>
       </defs>
       <use xlink:href="#DejaVuSans-32"/>
       <use x="63.623047" xlink:href="#DejaVuSans-2e"/>
       <use x="95.410156" xlink:href="#DejaVuSans-36"/>
      </g>
     </g>
    </g>
    <g id="xtick_3">
     <g id="line2d_3">
      <g>
       <use style="stroke:#000000;stroke-width:0.8;" x="137.932866" xlink:href="#m94f068fafe" y="271.927219"/>
      </g>
     </g>
     <g id="text_3">
      <!-- 2.8 -->
      <g transform="translate(129.981303 286.525656)scale(0.1 -0.1)">
       <defs>
        <path d="M 2034 2216 
Q 1584 2216 1326 1975 
Q 1069 1734 1069 1313 
Q 1069 891 1326 650 
Q 1584 409 2034 409 
Q 2484 409 2743 651 
Q 3003 894 3003 1313 
Q 3003 1734 2745 1975 
Q 2488 2216 2034 2216 
z
M 1403 2484 
Q 997 2584 770 2862 
Q 544 3141 544 3541 
Q 544 4100 942 4425 
Q 1341 4750 2034 4750 
Q 2731 4750 3128 4425 
Q 3525 4100 3525 3541 
Q 3525 3141 3298 2862 
Q 3072 2584 2669 2484 
Q 3125 2378 3379 2068 
Q 3634 1759 3634 1313 
Q 3634 634 3220 271 
Q 2806 -91 2034 -91 
Q 1263 -91 848 271 
Q 434 634 434 1313 
Q 434 1759 690 2068 
Q 947 2378 1403 2484 
z
M 1172 3481 
Q 1172 3119 1398 2916 
Q 1625 2713 2034 2713 
Q 2441 2713 2670 2916 
Q 2900 3119 2900 3481 
Q 2900 3844 2670 4047 
Q 2441 4250 2034 4250 
Q 1625 4250 1398 4047 
Q 1172 3844 1172 3481 
z
" id="DejaVuSans-38" transform="scale(0.015625)"/>
       </defs>
       <use xlink:href="#DejaVuSans-32"/>
       <use x="63.623047" xlink:href="#DejaVuSans-2e"/>
       <use x="95.410156" xlink:href="#DejaVuSans-38"/>
      </g>
     </g>
    </g>
    <g id="xtick_4">
     <g id="line2d_4">
      <g>
       <use style="stroke:#000000;stroke-width:0.8;" x="172.872042" xlink:href="#m94f068fafe" y="271.927219"/>
      </g>
     </g>
     <g id="text_4">
      <!-- 3.0 -->
      <g transform="translate(164.92048 286.525656)scale(0.1 -0.1)">
       <defs>
        <path d="M 2597 2516 
Q 3050 2419 3304 2112 
Q 3559 1806 3559 1356 
Q 3559 666 3084 287 
Q 2609 -91 1734 -91 
Q 1441 -91 1130 -33 
Q 819 25 488 141 
L 488 750 
Q 750 597 1062 519 
Q 1375 441 1716 441 
Q 2309 441 2620 675 
Q 2931 909 2931 1356 
Q 2931 1769 2642 2001 
Q 2353 2234 1838 2234 
L 1294 2234 
L 1294 2753 
L 1863 2753 
Q 2328 2753 2575 2939 
Q 2822 3125 2822 3475 
Q 2822 3834 2567 4026 
Q 2313 4219 1838 4219 
Q 1578 4219 1281 4162 
Q 984 4106 628 3988 
L 628 4550 
Q 988 4650 1302 4700 
Q 1616 4750 1894 4750 
Q 2613 4750 3031 4423 
Q 3450 4097 3450 3541 
Q 3450 3153 3228 2886 
Q 3006 2619 2597 2516 
z
" id="DejaVuSans-33" transform="scale(0.015625)"/>
        <path d="M 2034 4250 
Q 1547 4250 1301 3770 
Q 1056 3291 1056 2328 
Q 1056 1369 1301 889 
Q 1547 409 2034 409 
Q 2525 409 2770 889 
Q 3016 1369 3016 2328 
Q 3016 3291 2770 3770 
Q 2525 4250 2034 4250 
z
M 2034 4750 
Q 2819 4750 3233 4129 
Q 3647 3509 3647 2328 
Q 3647 1150 3233 529 
Q 2819 -91 2034 -91 
Q 1250 -91 836 529 
Q 422 1150 422 2328 
Q 422 3509 836 4129 
Q 1250 4750 2034 4750 
z
" id="DejaVuSans-30" transform="scale(0.015625)"/>
       </defs>
       <use xlink:href="#DejaVuSans-33"/>
       <use x="63.623047" xlink:href="#DejaVuSans-2e"/>
       <use x="95.410156" xlink:href="#DejaVuSans-30"/>
      </g>
     </g>
    </g>
    <g id="xtick_5">
     <g id="line2d_5">
      <g>
       <use style="stroke:#000000;stroke-width:0.8;" x="207.811219" xlink:href="#m94f068fafe" y="271.927219"/>
      </g>
     </g>
     <g id="text_5">
      <!-- 3.2 -->
      <g transform="translate(199.859656 286.525656)scale(0.1 -0.1)">
       <use xlink:href="#DejaVuSans-33"/>
       <use x="63.623047" xlink:href="#DejaVuSans-2e"/>
       <use x="95.410156" xlink:href="#DejaVuSans-32"/>
      </g>
     </g>
    </g>
    <g id="xtick_6">
     <g id="line2d_6">
      <g>
       <use style="stroke:#000000;stroke-width:0.8;" x="242.750395" xlink:href="#m94f068fafe" y="271.927219"/>
      </g>
     </g>
     <g id="text_6">
      <!-- 3.4 -->
      <g transform="translate(234.798833 286.525656)scale(0.1 -0.1)">
       <use xlink:href="#DejaVuSans-33"/>
       <use x="63.623047" xlink:href="#DejaVuSans-2e"/>
       <use x="95.410156" xlink:href="#DejaVuSans-34"/>
      </g>
     </g>
    </g>
    <g id="xtick_7">
     <g id="line2d_7">
      <g>
       <use style="stroke:#000000;stroke-width:0.8;" x="277.689572" xlink:href="#m94f068fafe" y="271.927219"/>
      </g>
     </g>
     <g id="text_7">
      <!-- 3.6 -->
      <g transform="translate(269.738009 286.525656)scale(0.1 -0.1)">
       <use xlink:href="#DejaVuSans-33"/>
       <use x="63.623047" xlink:href="#DejaVuSans-2e"/>
       <use x="95.410156" xlink:href="#DejaVuSans-36"/>
      </g>
     </g>
    </g>
    <g id="text_8">
     <!-- a1 -->
     <g transform="translate(164.219631 300.203781)scale(0.1 -0.1)">
      <defs>
       <path d="M 2194 1759 
Q 1497 1759 1228 1600 
Q 959 1441 959 1056 
Q 959 750 1161 570 
Q 1363 391 1709 391 
Q 2188 391 2477 730 
Q 2766 1069 2766 1631 
L 2766 1759 
L 2194 1759 
z
M 3341 1997 
L 3341 0 
L 2766 0 
L 2766 531 
Q 2569 213 2275 61 
Q 1981 -91 1556 -91 
Q 1019 -91 701 211 
Q 384 513 384 1019 
Q 384 1609 779 1909 
Q 1175 2209 1959 2209 
L 2766 2209 
L 2766 2266 
Q 2766 2663 2505 2880 
Q 2244 3097 1772 3097 
Q 1472 3097 1187 3025 
Q 903 2953 641 2809 
L 641 3341 
Q 956 3463 1253 3523 
Q 1550 3584 1831 3584 
Q 2591 3584 2966 3190 
Q 3341 2797 3341 1997 
z
" id="DejaVuSans-61" transform="scale(0.015625)"/>
       <path d="M 794 531 
L 1825 531 
L 1825 4091 
L 703 3866 
L 703 4441 
L 1819 4666 
L 2450 4666 
L 2450 531 
L 3481 531 
L 3481 0 
L 794 0 
L 794 531 
z
" id="DejaVuSans-31" transform="scale(0.015625)"/>
      </defs>
      <use xlink:href="#DejaVuSans-61"/>
      <use x="61.279297" xlink:href="#DejaVuSans-31"/>
     </g>
    </g>
   </g>
   <g id="matplotlib.axis_2">
    <g id="ytick_1">
     <g id="line2d_8">
      <defs>
       <path d="M 0 0 
L -3.5 0 
" id="mb0c86d3bec" style="stroke:#000000;stroke-width:0.8;"/>
      </defs>
      <g>
       <use style="stroke:#000000;stroke-width:0.8;" x="40.603125" xlink:href="#mb0c86d3bec" y="244.221873"/>
      </g>
     </g>
     <g id="text_9">
      <!-- 10 -->
      <g transform="translate(20.878125 248.021092)scale(0.1 -0.1)">
       <use xlink:href="#DejaVuSans-31"/>
       <use x="63.623047" xlink:href="#DejaVuSans-30"/>
      </g>
     </g>
    </g>
    <g id="ytick_2">
     <g id="line2d_9">
      <g>
       <use style="stroke:#000000;stroke-width:0.8;" x="40.603125" xlink:href="#mb0c86d3bec" y="187.885974"/>
      </g>
     </g>
     <g id="text_10">
      <!-- 11 -->
      <g transform="translate(20.878125 191.685193)scale(0.1 -0.1)">
       <use xlink:href="#DejaVuSans-31"/>
       <use x="63.623047" xlink:href="#DejaVuSans-31"/>
      </g>
     </g>
    </g>
    <g id="ytick_3">
     <g id="line2d_10">
      <g>
       <use style="stroke:#000000;stroke-width:0.8;" x="40.603125" xlink:href="#mb0c86d3bec" y="131.550075"/>
      </g>
     </g>
     <g id="text_11">
      <!-- 12 -->
      <g transform="translate(20.878125 135.349294)scale(0.1 -0.1)">
       <use xlink:href="#DejaVuSans-31"/>
       <use x="63.623047" xlink:href="#DejaVuSans-32"/>
      </g>
     </g>
    </g>
    <g id="ytick_4">
     <g id="line2d_11">
      <g>
       <use style="stroke:#000000;stroke-width:0.8;" x="40.603125" xlink:href="#mb0c86d3bec" y="75.214176"/>
      </g>
     </g>
     <g id="text_12">
      <!-- 13 -->
      <g transform="translate(20.878125 79.013395)scale(0.1 -0.1)">
       <use xlink:href="#DejaVuSans-31"/>
       <use x="63.623047" xlink:href="#DejaVuSans-33"/>
      </g>
     </g>
    </g>
    <g id="ytick_5">
     <g id="line2d_12">
      <g>
       <use style="stroke:#000000;stroke-width:0.8;" x="40.603125" xlink:href="#mb0c86d3bec" y="18.878277"/>
      </g>
     </g>
     <g id="text_13">
      <!-- 14 -->
      <g transform="translate(20.878125 22.677495)scale(0.1 -0.1)">
       <use xlink:href="#DejaVuSans-31"/>
       <use x="63.623047" xlink:href="#DejaVuSans-34"/>
      </g>
     </g>
    </g>
    <g id="text_14">
     <!-- t2 -->
     <g transform="translate(14.798438 146.604625)rotate(-90)scale(0.1 -0.1)">
      <defs>
       <path d="M 1172 4494 
L 1172 3500 
L 2356 3500 
L 2356 3053 
L 1172 3053 
L 1172 1153 
Q 1172 725 1289 603 
Q 1406 481 1766 481 
L 2356 481 
L 2356 0 
L 1766 0 
Q 1100 0 847 248 
Q 594 497 594 1153 
L 594 3053 
L 172 3053 
L 172 3500 
L 594 3500 
L 594 4494 
L 1172 4494 
z
" id="DejaVuSans-74" transform="scale(0.015625)"/>
      </defs>
      <use xlink:href="#DejaVuSans-74"/>
      <use x="39.208984" xlink:href="#DejaVuSans-32"/>
     </g>
    </g>
   </g>
   <g id="patch_3">
    <path d="M 40.603125 271.927219 
L 40.603125 10.999219 
" style="fill:none;stroke:#000000;stroke-linecap:square;stroke-linejoin:miter;stroke-width:0.8;"/>
   </g>
   <g id="patch_4">
    <path d="M 300.326761 271.927219 
L 300.326761 10.999219 
" style="fill:none;stroke:#000000;stroke-linecap:square;stroke-linejoin:miter;stroke-width:0.8;"/>
   </g>
   <g id="patch_5">
    <path d="M 40.603125 271.927219 
L 300.326761 271.927219 
" style="fill:none;stroke:#000000;stroke-linecap:square;stroke-linejoin:miter;stroke-width:0.8;"/>
   </g>
   <g id="patch_6">
    <path d="M 40.603125 10.999219 
L 300.326761 10.999219 
" style="fill:none;stroke:#000000;stroke-linecap:square;stroke-linejoin:miter;stroke-width:0.8;"/>
   </g>
  </g>
  <g id="axes_2">
   <g id="patch_7">
    <path d="M 430.18858 271.927219 
L 689.912216 271.927219 
L 689.912216 10.999219 
L 430.18858 10.999219 
z
" style="fill:#ffffff;"/>
   </g>
   <g id="PathCollection_11">
    <path clip-path="url(#p5f4a262e46)" d="M 555.572404 146.818051 
L 556.435209 145.961977 
L 555.572404 145.077582 
L 554.676809 145.961977 
z
" style="fill:#471365;"/>
    <path clip-path="url(#p5f4a262e46)" d="M 564.528391 137.825888 
L 565.367094 136.96446 
L 564.528391 136.087688 
L 563.653528 136.96446 
z
" style="fill:#471365;"/>
   </g>
   <g id="PathCollection_12">
    <path clip-path="url(#p5f4a262e46)" d="M 546.616417 155.816209 
L 547.502873 154.959495 
L 546.616417 154.01702 
L 545.640019 154.959495 
z
" style="fill:#463480;"/>
    <path clip-path="url(#p5f4a262e46)" d="M 555.572404 147.814569 
L 557.439562 145.961977 
L 555.572404 144.048096 
L 553.634287 145.961977 
z
M 554.676809 145.961977 
L 555.572404 145.077582 
L 556.435209 145.961977 
L 555.572404 146.818051 
z
" style="fill:#463480;"/>
    <path clip-path="url(#p5f4a262e46)" d="M 564.528391 138.835566 
L 566.350135 136.96446 
L 564.528391 135.060027 
L 562.628102 136.96446 
z
M 563.653528 136.96446 
L 564.528391 136.087688 
L 565.367094 136.96446 
L 564.528391 137.825888 
z
" style="fill:#463480;"/>
    <path clip-path="url(#p5f4a262e46)" d="M 573.484379 128.698481 
L 574.181129 127.966943 
L 573.484379 127.192219 
L 572.721938 127.966943 
z
" style="fill:#463480;"/>
   </g>
   <g id="PathCollection_13">
    <path clip-path="url(#p5f4a262e46)" d="M 546.616417 156.903921 
L 548.628347 154.959495 
L 546.616417 152.820423 
L 544.400352 154.959495 
z
M 545.640019 154.959495 
L 546.616417 154.01702 
L 547.502873 154.959495 
L 546.616417 155.816209 
z
" style="fill:#3b528b;"/>
    <path clip-path="url(#p5f4a262e46)" d="M 555.572404 148.811086 
L 558.443916 145.961977 
L 555.572404 143.01861 
L 552.591765 145.961977 
z
M 553.634287 145.961977 
L 555.572404 144.048096 
L 557.439562 145.961977 
L 555.572404 147.814569 
z
" style="fill:#3b528b;"/>
    <path clip-path="url(#p5f4a262e46)" d="M 564.528391 139.845244 
L 567.333176 136.96446 
L 564.528391 134.032365 
L 561.602676 136.96446 
z
M 562.628102 136.96446 
L 564.528391 135.060027 
L 566.350135 136.96446 
L 564.528391 138.835566 
z
" style="fill:#3b528b;"/>
    <path clip-path="url(#p5f4a262e46)" d="M 573.484379 129.837466 
L 575.265951 127.966943 
L 573.484379 125.985994 
L 571.534839 127.966943 
z
M 572.721938 127.966943 
L 573.484379 127.192219 
L 574.181129 127.966943 
L 573.484379 128.698481 
z
" style="fill:#3b528b;"/>
   </g>
   <g id="PathCollection_14">
    <path clip-path="url(#p5f4a262e46)" d="M 537.660429 165.091687 
L 538.842455 163.957012 
L 537.660429 162.533513 
L 536.11811 163.957012 
z
" style="fill:#2f6c8e;"/>
    <path clip-path="url(#p5f4a262e46)" d="M 546.616417 157.991633 
L 549.753821 154.959495 
L 546.616417 151.623827 
L 543.160686 154.959495 
z
M 544.400352 154.959495 
L 546.616417 152.820423 
L 548.628347 154.959495 
L 546.616417 156.903921 
z
" style="fill:#2f6c8e;"/>
    <path clip-path="url(#p5f4a262e46)" d="M 555.572404 149.807604 
L 559.448269 145.961977 
L 555.572404 141.989124 
L 551.549243 145.961977 
z
M 552.591765 145.961977 
L 555.572404 143.01861 
L 558.443916 145.961977 
L 555.572404 148.811086 
z
" style="fill:#2f6c8e;"/>
    <path clip-path="url(#p5f4a262e46)" d="M 564.528391 140.854922 
L 568.316217 136.96446 
L 564.528391 133.004703 
L 560.57725 136.96446 
z
M 561.602676 136.96446 
L 564.528391 134.032365 
L 567.333176 136.96446 
L 564.528391 139.845244 
z
" style="fill:#2f6c8e;"/>
    <path clip-path="url(#p5f4a262e46)" d="M 573.484379 130.976451 
L 576.350773 127.966943 
L 573.484379 124.779769 
L 570.34774 127.966943 
z
M 571.534839 127.966943 
L 573.484379 125.985994 
L 575.265951 127.966943 
L 573.484379 129.837466 
z
" style="fill:#2f6c8e;"/>
    <path clip-path="url(#p5f4a262e46)" d="M 582.440366 119.417166 
L 582.866889 118.969426 
L 582.440366 118.436572 
L 581.925239 118.969426 
z
" style="fill:#2f6c8e;"/>
   </g>
   <g id="PathCollection_15">
    <path clip-path="url(#p5f4a262e46)" d="M 537.660429 166.452388 
L 540.259939 163.957012 
L 537.660429 160.826455 
L 534.268562 163.957012 
z
M 536.11811 163.957012 
L 537.660429 162.533513 
L 538.842455 163.957012 
L 537.660429 165.091687 
z
" style="fill:#25848e;"/>
    <path clip-path="url(#p5f4a262e46)" d="M 546.616417 159.079344 
L 550.879295 154.959495 
L 555.572404 150.804121 
L 560.452622 145.961977 
L 564.528391 141.8646 
L 569.299258 136.96446 
L 573.484379 132.115436 
L 577.435595 127.966943 
L 573.484379 123.573544 
L 569.16064 127.966943 
L 564.528391 131.977041 
L 559.551825 136.96446 
L 555.572404 140.959638 
L 550.506721 145.961977 
L 546.616417 150.42723 
L 541.921019 154.959495 
z
M 543.160686 154.959495 
L 546.616417 151.623827 
L 549.753821 154.959495 
L 546.616417 157.991633 
z
M 551.549243 145.961977 
L 555.572404 141.989124 
L 559.448269 145.961977 
L 555.572404 149.807604 
z
M 560.57725 136.96446 
L 564.528391 133.004703 
L 568.316217 136.96446 
L 564.528391 140.854922 
z
M 570.34774 127.966943 
L 573.484379 124.779769 
L 576.350773 127.966943 
L 573.484379 130.976451 
z
" style="fill:#25848e;"/>
    <path clip-path="url(#p5f4a262e46)" d="M 582.440366 120.940254 
L 584.317801 118.969426 
L 582.440366 116.623953 
L 580.17292 118.969426 
z
M 581.925239 118.969426 
L 582.440366 118.436572 
L 582.866889 118.969426 
L 582.440366 119.417166 
z
" style="fill:#25848e;"/>
   </g>
   <g id="PathCollection_16">
    <path clip-path="url(#p5f4a262e46)" d="M 528.704442 173.790701 
L 529.568359 172.954529 
L 528.704442 171.449579 
L 526.871281 172.954529 
z
" style="fill:#1e9c89;"/>
    <path clip-path="url(#p5f4a262e46)" d="M 537.660429 167.813089 
L 541.677423 163.957012 
L 546.616417 160.167056 
L 552.004769 154.959495 
L 555.572404 151.800639 
L 561.456976 145.961977 
L 564.528391 142.874278 
L 570.282299 136.96446 
L 573.484379 133.254421 
L 578.520417 127.966943 
L 582.440366 122.463341 
L 585.768713 118.969426 
L 582.440366 114.811335 
L 578.420601 118.969426 
L 573.484379 122.36732 
L 567.973541 127.966943 
L 564.528391 130.949379 
L 558.526399 136.96446 
L 555.572404 139.930152 
L 549.464199 145.961977 
L 546.616417 149.230634 
L 540.681353 154.959495 
L 537.660429 159.119397 
L 532.419015 163.957012 
z
M 534.268562 163.957012 
L 537.660429 160.826455 
L 540.259939 163.957012 
L 537.660429 166.452388 
z
M 541.921019 154.959495 
L 546.616417 150.42723 
L 550.506721 145.961977 
L 555.572404 140.959638 
L 559.551825 136.96446 
L 564.528391 131.977041 
L 569.16064 127.966943 
L 573.484379 123.573544 
L 577.435595 127.966943 
L 573.484379 132.115436 
L 569.299258 136.96446 
L 564.528391 141.8646 
L 560.452622 145.961977 
L 555.572404 150.804121 
L 550.879295 154.959495 
L 546.616417 159.079344 
z
M 580.17292 118.969426 
L 582.440366 116.623953 
L 584.317801 118.969426 
L 582.440366 120.940254 
z
" style="fill:#1e9c89;"/>
   </g>
   <g id="PathCollection_17">
    <path clip-path="url(#p5f4a262e46)" d="M 528.704442 175.863517 
L 531.709955 172.954529 
L 537.660429 169.17379 
L 543.094908 163.957012 
L 546.616417 161.254768 
L 553.130244 154.959495 
L 555.572404 152.797156 
L 562.461329 145.961977 
L 564.528391 143.883956 
L 571.26534 136.96446 
L 573.484379 134.393406 
L 579.605238 127.966943 
L 582.440366 123.986429 
L 587.219625 118.969426 
L 582.440366 112.998716 
L 576.668283 118.969426 
L 573.484379 121.161095 
L 566.786441 127.966943 
L 564.528391 129.921718 
L 557.500973 136.96446 
L 555.572404 138.900666 
L 548.421677 145.961977 
L 546.616417 148.034037 
L 539.441687 154.959495 
L 537.660429 157.41234 
L 530.569467 163.957012 
L 528.704442 167.718906 
L 522.326995 172.954529 
z
M 526.871281 172.954529 
L 528.704442 171.449579 
L 529.568359 172.954529 
L 528.704442 173.790701 
z
M 532.419015 163.957012 
L 537.660429 159.119397 
L 540.681353 154.959495 
L 546.616417 149.230634 
L 549.464199 145.961977 
L 555.572404 139.930152 
L 558.526399 136.96446 
L 564.528391 130.949379 
L 567.973541 127.966943 
L 573.484379 122.36732 
L 578.420601 118.969426 
L 582.440366 114.811335 
L 585.768713 118.969426 
L 582.440366 122.463341 
L 578.520417 127.966943 
L 573.484379 133.254421 
L 570.282299 136.96446 
L 564.528391 142.874278 
L 561.456976 145.961977 
L 555.572404 151.800639 
L 552.004769 154.959495 
L 546.616417 160.167056 
L 541.677423 163.957012 
L 537.660429 167.813089 
z
" style="fill:#2fb47c;"/>
    <path clip-path="url(#p5f4a262e46)" d="M 591.396354 111.171992 
L 592.555606 109.971908 
L 591.396354 108.007046 
L 589.518385 109.971908 
z
" style="fill:#2fb47c;"/>
   </g>
   <g id="PathCollection_18">
    <path clip-path="url(#p5f4a262e46)" d="M 501.836479 191.480322 
L 502.590961 190.949564 
L 501.836479 190.408783 
L 501.229093 190.949564 
z
" style="fill:#5ec962;"/>
    <path clip-path="url(#p5f4a262e46)" d="M 510.792467 184.8011 
L 519.748454 182.676298 
L 520.487049 181.952046 
L 528.704442 177.936333 
L 533.851551 172.954529 
L 537.660429 170.534491 
L 544.512392 163.957012 
L 546.616417 162.34248 
L 554.255718 154.959495 
L 555.572404 153.793674 
L 563.465682 145.961977 
L 564.528391 144.893634 
L 572.248381 136.96446 
L 573.484379 135.532391 
L 580.69006 127.966943 
L 582.440366 125.509517 
L 588.670537 118.969426 
L 591.396354 113.880664 
L 595.172119 109.971908 
L 591.396354 103.572214 
L 585.279678 109.971908 
L 582.440366 111.186097 
L 574.915964 118.969426 
L 573.484379 119.95487 
L 565.599342 127.966943 
L 564.528391 128.894056 
L 556.475547 136.96446 
L 555.572404 137.87118 
L 547.379155 145.961977 
L 546.616417 146.837441 
L 538.20202 154.959495 
L 537.660429 155.705282 
L 528.71992 163.957012 
L 528.704442 163.988232 
L 519.748454 171.335066 
L 518.10399 172.954529 
L 510.792467 179.861789 
L 508.610516 181.952046 
z
M 522.326995 172.954529 
L 528.704442 167.718906 
L 530.569467 163.957012 
L 537.660429 157.41234 
L 539.441687 154.959495 
L 546.616417 148.034037 
L 548.421677 145.961977 
L 555.572404 138.900666 
L 557.500973 136.96446 
L 564.528391 129.921718 
L 566.786441 127.966943 
L 573.484379 121.161095 
L 576.668283 118.969426 
L 582.440366 112.998716 
L 587.219625 118.969426 
L 582.440366 123.986429 
L 579.605238 127.966943 
L 573.484379 134.393406 
L 571.26534 136.96446 
L 564.528391 143.883956 
L 562.461329 145.961977 
L 555.572404 152.797156 
L 553.130244 154.959495 
L 546.616417 161.254768 
L 543.094908 163.957012 
L 537.660429 169.17379 
L 531.709955 172.954529 
L 528.704442 175.863517 
z
M 589.518385 109.971908 
L 591.396354 108.007046 
L 592.555606 109.971908 
L 591.396354 111.171992 
z
" style="fill:#5ec962;"/>
   </g>
   <g id="PathCollection_19">
    <path clip-path="url(#p5f4a262e46)" d="M 492.880492 201.255585 
L 494.362031 199.947081 
L 492.880492 197.956156 
L 490.014322 199.947081 
z
" style="fill:#9bd93c;"/>
    <path clip-path="url(#p5f4a262e46)" d="M 501.836479 196.073747 
L 509.120595 190.949564 
L 510.792467 189.696203 
L 519.748454 186.835552 
L 524.728672 181.952046 
L 528.704442 180.009149 
L 535.993147 172.954529 
L 537.660429 171.895192 
L 545.929876 163.957012 
L 546.616417 163.430192 
L 555.381192 154.959495 
L 555.572404 154.790191 
L 564.470036 145.961977 
L 564.528391 145.903312 
L 573.231423 136.96446 
L 573.484379 136.671376 
L 581.774882 127.966943 
L 582.440366 127.032604 
L 590.121449 118.969426 
L 591.396354 116.589337 
L 597.788632 109.971908 
L 600.352341 102.630776 
L 601.975845 100.974391 
L 602.360077 91.976874 
L 600.352341 90.30363 
L 598.707411 91.976874 
L 591.396354 98.314231 
L 588.761347 100.974391 
L 582.440366 107.727997 
L 580.211433 109.971908 
L 573.484379 117.573121 
L 572.095672 118.969426 
L 564.528391 127.163144 
L 563.728358 127.966943 
L 555.572404 136.003637 
L 554.61536 136.96446 
L 546.616417 144.053234 
L 544.713004 145.961977 
L 537.660429 151.706423 
L 534.409289 154.959495 
L 528.704442 159.450254 
L 524.178808 163.957012 
L 519.748454 167.591294 
L 514.302421 172.954529 
L 510.792467 176.270414 
L 504.861597 181.952046 
L 501.836479 185.728616 
L 495.972491 190.949564 
z
M 501.229093 190.949564 
L 501.836479 190.408783 
L 502.590961 190.949564 
L 501.836479 191.480322 
z
M 508.610516 181.952046 
L 510.792467 179.861789 
L 518.10399 172.954529 
L 519.748454 171.335066 
L 528.704442 163.988232 
L 528.71992 163.957012 
L 537.660429 155.705282 
L 538.20202 154.959495 
L 546.616417 146.837441 
L 547.379155 145.961977 
L 555.572404 137.87118 
L 556.475547 136.96446 
L 564.528391 128.894056 
L 565.599342 127.966943 
L 573.484379 119.95487 
L 574.915964 118.969426 
L 582.440366 111.186097 
L 585.279678 109.971908 
L 591.396354 103.572214 
L 595.172119 109.971908 
L 591.396354 113.880664 
L 588.670537 118.969426 
L 582.440366 125.509517 
L 580.69006 127.966943 
L 573.484379 135.532391 
L 572.248381 136.96446 
L 564.528391 144.893634 
L 563.465682 145.961977 
L 555.572404 153.793674 
L 554.255718 154.959495 
L 546.616417 162.34248 
L 544.512392 163.957012 
L 537.660429 170.534491 
L 533.851551 172.954529 
L 528.704442 177.936333 
L 520.487049 181.952046 
L 519.748454 182.676298 
L 510.792467 184.8011 
z
" style="fill:#9bd93c;"/>
   </g>
   <g id="PathCollection_20">
    <path clip-path="url(#p5f4a262e46)" d="M 439.144567 271.927219 
L 448.100554 271.927219 
L 457.056542 271.927219 
L 466.012529 271.927219 
L 474.968517 271.927219 
L 483.924504 271.927219 
L 492.880492 271.927219 
L 501.836479 271.927219 
L 510.792467 271.927219 
L 519.748454 271.927219 
L 528.704442 271.927219 
L 537.660429 271.927219 
L 546.616417 271.927219 
L 555.572404 271.927219 
L 564.528391 271.927219 
L 573.484379 271.927219 
L 582.440366 271.927219 
L 591.396354 271.927219 
L 600.352341 271.927219 
L 609.308329 271.927219 
L 618.264316 271.927219 
L 627.220304 271.927219 
L 636.176291 271.927219 
L 645.132279 271.927219 
L 654.088266 271.927219 
L 663.044254 271.927219 
L 672.000241 271.927219 
L 680.956228 271.927219 
L 689.912216 271.927219 
L 689.912216 262.929702 
L 689.912216 253.932184 
L 689.912216 244.934667 
L 689.912216 235.93715 
L 689.912216 226.939633 
L 689.912216 217.942115 
L 689.912216 208.944598 
L 689.912216 199.947081 
L 689.912216 190.949564 
L 689.912216 181.952046 
L 689.912216 172.954529 
L 689.912216 163.957012 
L 689.912216 154.959495 
L 689.912216 145.961977 
L 689.912216 136.96446 
L 689.912216 127.966943 
L 689.912216 118.969426 
L 689.912216 109.971908 
L 689.912216 100.974391 
L 689.912216 91.976874 
L 689.912216 82.979357 
L 689.912216 73.981839 
L 689.912216 64.984322 
L 689.912216 55.986805 
L 689.912216 46.989288 
L 689.912216 37.99177 
L 689.912216 28.994253 
L 689.912216 19.996736 
L 689.912216 10.999219 
L 680.956228 10.999219 
L 672.000241 10.999219 
L 663.044254 10.999219 
L 654.088266 10.999219 
L 645.132279 10.999219 
L 636.176291 10.999219 
L 627.220304 10.999219 
L 618.264316 10.999219 
L 609.308329 10.999219 
L 600.352341 10.999219 
L 591.396354 10.999219 
L 582.440366 10.999219 
L 573.484379 10.999219 
L 564.528391 10.999219 
L 555.572404 10.999219 
L 546.616417 10.999219 
L 537.660429 10.999219 
L 528.704442 10.999219 
L 519.748454 10.999219 
L 510.792467 10.999219 
L 501.836479 10.999219 
L 492.880492 10.999219 
L 483.924504 10.999219 
L 474.968517 10.999219 
L 466.012529 10.999219 
L 457.056542 10.999219 
L 448.100554 10.999219 
L 439.144567 10.999219 
L 430.18858 10.999219 
L 430.18858 19.996736 
L 430.18858 28.994253 
L 430.18858 37.99177 
L 430.18858 46.989288 
L 430.18858 55.986805 
L 430.18858 64.984322 
L 430.18858 73.981839 
L 430.18858 82.979357 
L 430.18858 91.976874 
L 430.18858 100.974391 
L 430.18858 109.971908 
L 430.18858 118.969426 
L 430.18858 127.966943 
L 430.18858 136.96446 
L 430.18858 145.961977 
L 430.18858 154.959495 
L 430.18858 163.957012 
L 430.18858 172.954529 
L 430.18858 181.952046 
L 430.18858 190.949564 
L 430.18858 199.947081 
L 430.18858 208.944598 
L 430.18858 217.942115 
L 430.18858 226.939633 
L 430.18858 235.93715 
L 430.18858 244.934667 
L 430.18858 253.932184 
L 430.18858 262.929702 
L 430.18858 271.927219 
z
M 490.014322 199.947081 
L 492.880492 197.956156 
L 494.362031 199.947081 
L 492.880492 201.255585 
z
M 495.972491 190.949564 
L 501.836479 185.728616 
L 504.861597 181.952046 
L 510.792467 176.270414 
L 514.302421 172.954529 
L 519.748454 167.591294 
L 524.178808 163.957012 
L 528.704442 159.450254 
L 534.409289 154.959495 
L 537.660429 151.706423 
L 544.713004 145.961977 
L 546.616417 144.053234 
L 554.61536 136.96446 
L 555.572404 136.003637 
L 563.728358 127.966943 
L 564.528391 127.163144 
L 572.095672 118.969426 
L 573.484379 117.573121 
L 580.211433 109.971908 
L 582.440366 107.727997 
L 588.761347 100.974391 
L 591.396354 98.314231 
L 598.707411 91.976874 
L 600.352341 90.30363 
L 602.360077 91.976874 
L 601.975845 100.974391 
L 600.352341 102.630776 
L 597.788632 109.971908 
L 591.396354 116.589337 
L 590.121449 118.969426 
L 582.440366 127.032604 
L 581.774882 127.966943 
L 573.484379 136.671376 
L 573.231423 136.96446 
L 564.528391 145.903312 
L 564.470036 145.961977 
L 555.572404 154.790191 
L 555.381192 154.959495 
L 546.616417 163.430192 
L 545.929876 163.957012 
L 537.660429 171.895192 
L 535.993147 172.954529 
L 528.704442 180.009149 
L 524.728672 181.952046 
L 519.748454 186.835552 
L 510.792467 189.696203 
L 509.120595 190.949564 
L 501.836479 196.073747 
z
" style="fill:#dfe318;"/>
   </g>
   <g id="matplotlib.axis_3">
    <g id="xtick_8">
     <g id="line2d_13">
      <g>
       <use style="stroke:#000000;stroke-width:0.8;" x="455.341611" xlink:href="#m94f068fafe" y="271.927219"/>
      </g>
     </g>
     <g id="text_15">
      <!-- −4.8 -->
      <g transform="translate(443.200205 286.525656)scale(0.1 -0.1)">
       <defs>
        <path d="M 678 2272 
L 4684 2272 
L 4684 1741 
L 678 1741 
L 678 2272 
z
" id="DejaVuSans-2212" transform="scale(0.015625)"/>
       </defs>
       <use xlink:href="#DejaVuSans-2212"/>
       <use x="83.789062" xlink:href="#DejaVuSans-34"/>
       <use x="147.412109" xlink:href="#DejaVuSans-2e"/>
       <use x="179.199219" xlink:href="#DejaVuSans-38"/>
      </g>
     </g>
    </g>
    <g id="xtick_9">
     <g id="line2d_14">
      <g>
       <use style="stroke:#000000;stroke-width:0.8;" x="500.403161" xlink:href="#m94f068fafe" y="271.927219"/>
      </g>
     </g>
     <g id="text_16">
      <!-- −4.6 -->
      <g transform="translate(488.261755 286.525656)scale(0.1 -0.1)">
       <use xlink:href="#DejaVuSans-2212"/>
       <use x="83.789062" xlink:href="#DejaVuSans-34"/>
       <use x="147.412109" xlink:href="#DejaVuSans-2e"/>
       <use x="179.199219" xlink:href="#DejaVuSans-36"/>
      </g>
     </g>
    </g>
    <g id="xtick_10">
     <g id="line2d_15">
      <g>
       <use style="stroke:#000000;stroke-width:0.8;" x="545.464712" xlink:href="#m94f068fafe" y="271.927219"/>
      </g>
     </g>
     <g id="text_17">
      <!-- −4.4 -->
      <g transform="translate(533.323306 286.525656)scale(0.1 -0.1)">
       <use xlink:href="#DejaVuSans-2212"/>
       <use x="83.789062" xlink:href="#DejaVuSans-34"/>
       <use x="147.412109" xlink:href="#DejaVuSans-2e"/>
       <use x="179.199219" xlink:href="#DejaVuSans-34"/>
      </g>
     </g>
    </g>
    <g id="xtick_11">
     <g id="line2d_16">
      <g>
       <use style="stroke:#000000;stroke-width:0.8;" x="590.526262" xlink:href="#m94f068fafe" y="271.927219"/>
      </g>
     </g>
     <g id="text_18">
      <!-- −4.2 -->
      <g transform="translate(578.384856 286.525656)scale(0.1 -0.1)">
       <use xlink:href="#DejaVuSans-2212"/>
       <use x="83.789062" xlink:href="#DejaVuSans-34"/>
       <use x="147.412109" xlink:href="#DejaVuSans-2e"/>
       <use x="179.199219" xlink:href="#DejaVuSans-32"/>
      </g>
     </g>
    </g>
    <g id="xtick_12">
     <g id="line2d_17">
      <g>
       <use style="stroke:#000000;stroke-width:0.8;" x="635.587813" xlink:href="#m94f068fafe" y="271.927219"/>
      </g>
     </g>
     <g id="text_19">
      <!-- −4.0 -->
      <g transform="translate(623.446406 286.525656)scale(0.1 -0.1)">
       <use xlink:href="#DejaVuSans-2212"/>
       <use x="83.789062" xlink:href="#DejaVuSans-34"/>
       <use x="147.412109" xlink:href="#DejaVuSans-2e"/>
       <use x="179.199219" xlink:href="#DejaVuSans-30"/>
      </g>
     </g>
    </g>
    <g id="xtick_13">
     <g id="line2d_18">
      <g>
       <use style="stroke:#000000;stroke-width:0.8;" x="680.649363" xlink:href="#m94f068fafe" y="271.927219"/>
      </g>
     </g>
     <g id="text_20">
      <!-- −3.8 -->
      <g transform="translate(668.507957 286.525656)scale(0.1 -0.1)">
       <use xlink:href="#DejaVuSans-2212"/>
       <use x="83.789062" xlink:href="#DejaVuSans-33"/>
       <use x="147.412109" xlink:href="#DejaVuSans-2e"/>
       <use x="179.199219" xlink:href="#DejaVuSans-38"/>
      </g>
     </g>
    </g>
    <g id="text_21">
     <!-- a2 -->
     <g transform="translate(553.805085 300.203781)scale(0.1 -0.1)">
      <use xlink:href="#DejaVuSans-61"/>
      <use x="61.279297" xlink:href="#DejaVuSans-32"/>
     </g>
    </g>
   </g>
   <g id="matplotlib.axis_4">
    <g id="ytick_6">
     <g id="line2d_19">
      <g>
       <use style="stroke:#000000;stroke-width:0.8;" x="430.18858" xlink:href="#mb0c86d3bec" y="244.221873"/>
      </g>
     </g>
     <g id="text_22">
      <!-- 10 -->
      <g transform="translate(410.46358 248.021092)scale(0.1 -0.1)">
       <use xlink:href="#DejaVuSans-31"/>
       <use x="63.623047" xlink:href="#DejaVuSans-30"/>
      </g>
     </g>
    </g>
    <g id="ytick_7">
     <g id="line2d_20">
      <g>
       <use style="stroke:#000000;stroke-width:0.8;" x="430.18858" xlink:href="#mb0c86d3bec" y="187.885974"/>
      </g>
     </g>
     <g id="text_23">
      <!-- 11 -->
      <g transform="translate(410.46358 191.685193)scale(0.1 -0.1)">
       <use xlink:href="#DejaVuSans-31"/>
       <use x="63.623047" xlink:href="#DejaVuSans-31"/>
      </g>
     </g>
    </g>
    <g id="ytick_8">
     <g id="line2d_21">
      <g>
       <use style="stroke:#000000;stroke-width:0.8;" x="430.18858" xlink:href="#mb0c86d3bec" y="131.550075"/>
      </g>
     </g>
     <g id="text_24">
      <!-- 12 -->
      <g transform="translate(410.46358 135.349294)scale(0.1 -0.1)">
       <use xlink:href="#DejaVuSans-31"/>
       <use x="63.623047" xlink:href="#DejaVuSans-32"/>
      </g>
     </g>
    </g>
    <g id="ytick_9">
     <g id="line2d_22">
      <g>
       <use style="stroke:#000000;stroke-width:0.8;" x="430.18858" xlink:href="#mb0c86d3bec" y="75.214176"/>
      </g>
     </g>
     <g id="text_25">
      <!-- 13 -->
      <g transform="translate(410.46358 79.013395)scale(0.1 -0.1)">
       <use xlink:href="#DejaVuSans-31"/>
       <use x="63.623047" xlink:href="#DejaVuSans-33"/>
      </g>
     </g>
    </g>
    <g id="ytick_10">
     <g id="line2d_23">
      <g>
       <use style="stroke:#000000;stroke-width:0.8;" x="430.18858" xlink:href="#mb0c86d3bec" y="18.878277"/>
      </g>
     </g>
     <g id="text_26">
      <!-- 14 -->
      <g transform="translate(410.46358 22.677495)scale(0.1 -0.1)">
       <use xlink:href="#DejaVuSans-31"/>
       <use x="63.623047" xlink:href="#DejaVuSans-34"/>
      </g>
     </g>
    </g>
    <g id="text_27">
     <!-- t2 -->
     <g transform="translate(404.383892 146.604625)rotate(-90)scale(0.1 -0.1)">
      <use xlink:href="#DejaVuSans-74"/>
      <use x="39.208984" xlink:href="#DejaVuSans-32"/>
     </g>
    </g>
   </g>
   <g id="patch_8">
    <path d="M 430.18858 271.927219 
L 430.18858 10.999219 
" style="fill:none;stroke:#000000;stroke-linecap:square;stroke-linejoin:miter;stroke-width:0.8;"/>
   </g>
   <g id="patch_9">
    <path d="M 689.912216 271.927219 
L 689.912216 10.999219 
" style="fill:none;stroke:#000000;stroke-linecap:square;stroke-linejoin:miter;stroke-width:0.8;"/>
   </g>
   <g id="patch_10">
    <path d="M 430.18858 271.927219 
L 689.912216 271.927219 
" style="fill:none;stroke:#000000;stroke-linecap:square;stroke-linejoin:miter;stroke-width:0.8;"/>
   </g>
   <g id="patch_11">
    <path d="M 430.18858 10.999219 
L 689.912216 10.999219 
" style="fill:none;stroke:#000000;stroke-linecap:square;stroke-linejoin:miter;stroke-width:0.8;"/>
   </g>
  </g>
  <g id="axes_3">
   <g id="patch_12">
    <path d="M 316.559489 271.927219 
L 329.605889 271.927219 
L 329.605889 10.999219 
L 316.559489 10.999219 
z
" style="fill:#ffffff;"/>
   </g>
   <g id="patch_13">
    <path clip-path="url(#p718800d782)" d="M 316.559489 271.927219 
L 316.559489 245.834419 
L 316.559489 37.092019 
L 316.559489 10.999219 
L 329.605889 10.999219 
L 329.605889 37.092019 
L 329.605889 245.834419 
L 329.605889 271.927219 
L 329.605889 271.927219 
z
" style="fill:#ffffff;stroke:#ffffff;stroke-linejoin:miter;stroke-width:0.01;"/>
   </g>
   <g id="QuadMesh_1">
    <path clip-path="url(#p718800d782)" d="M 316.559489 271.927219 
L 329.605889 271.927219 
L 329.605889 245.834419 
L 316.559489 245.834419 
L 316.559489 271.927219 
" style="fill:#471365;"/>
    <path clip-path="url(#p718800d782)" d="M 316.559489 245.834419 
L 329.605889 245.834419 
L 329.605889 219.741619 
L 316.559489 219.741619 
L 316.559489 245.834419 
" style="fill:#463480;"/>
    <path clip-path="url(#p718800d782)" d="M 316.559489 219.741619 
L 329.605889 219.741619 
L 329.605889 193.648819 
L 316.559489 193.648819 
L 316.559489 219.741619 
" style="fill:#3b528b;"/>
    <path clip-path="url(#p718800d782)" d="M 316.559489 193.648819 
L 329.605889 193.648819 
L 329.605889 167.556019 
L 316.559489 167.556019 
L 316.559489 193.648819 
" style="fill:#2f6c8e;"/>
    <path clip-path="url(#p718800d782)" d="M 316.559489 167.556019 
L 329.605889 167.556019 
L 329.605889 141.463219 
L 316.559489 141.463219 
L 316.559489 167.556019 
" style="fill:#25848e;"/>
    <path clip-path="url(#p718800d782)" d="M 316.559489 141.463219 
L 329.605889 141.463219 
L 329.605889 115.370419 
L 316.559489 115.370419 
L 316.559489 141.463219 
" style="fill:#1e9c89;"/>
    <path clip-path="url(#p718800d782)" d="M 316.559489 115.370419 
L 329.605889 115.370419 
L 329.605889 89.277619 
L 316.559489 89.277619 
L 316.559489 115.370419 
" style="fill:#2fb47c;"/>
    <path clip-path="url(#p718800d782)" d="M 316.559489 89.277619 
L 329.605889 89.277619 
L 329.605889 63.184819 
L 316.559489 63.184819 
L 316.559489 89.277619 
" style="fill:#5ec962;"/>
    <path clip-path="url(#p718800d782)" d="M 316.559489 63.184819 
L 329.605889 63.184819 
L 329.605889 37.092019 
L 316.559489 37.092019 
L 316.559489 63.184819 
" style="fill:#9bd93c;"/>
    <path clip-path="url(#p718800d782)" d="M 316.559489 37.092019 
L 329.605889 37.092019 
L 329.605889 10.999219 
L 316.559489 10.999219 
L 316.559489 37.092019 
" style="fill:#dfe318;"/>
   </g>
   <g id="matplotlib.axis_5"/>
   <g id="matplotlib.axis_6">
    <g id="ytick_11">
     <g id="line2d_24">
      <defs>
       <path d="M 0 0 
L 3.5 0 
" id="m94b322fd65" style="stroke:#000000;stroke-width:0.8;"/>
      </defs>
      <g>
       <use style="stroke:#000000;stroke-width:0.8;" x="329.605889" xlink:href="#m94b322fd65" y="271.927219"/>
      </g>
     </g>
     <g id="text_28">
      <!-- 0.0 -->
      <g transform="translate(336.605889 275.726437)scale(0.1 -0.1)">
       <use xlink:href="#DejaVuSans-30"/>
       <use x="63.623047" xlink:href="#DejaVuSans-2e"/>
       <use x="95.410156" xlink:href="#DejaVuSans-30"/>
      </g>
     </g>
    </g>
    <g id="ytick_12">
     <g id="line2d_25">
      <g>
       <use style="stroke:#000000;stroke-width:0.8;" x="329.605889" xlink:href="#m94b322fd65" y="219.741619"/>
      </g>
     </g>
     <g id="text_29">
      <!-- 0.2 -->
      <g transform="translate(336.605889 223.540837)scale(0.1 -0.1)">
       <use xlink:href="#DejaVuSans-30"/>
       <use x="63.623047" xlink:href="#DejaVuSans-2e"/>
       <use x="95.410156" xlink:href="#DejaVuSans-32"/>
      </g>
     </g>
    </g>
    <g id="ytick_13">
     <g id="line2d_26">
      <g>
       <use style="stroke:#000000;stroke-width:0.8;" x="329.605889" xlink:href="#m94b322fd65" y="167.556019"/>
      </g>
     </g>
     <g id="text_30">
      <!-- 0.4 -->
      <g transform="translate(336.605889 171.355237)scale(0.1 -0.1)">
       <use xlink:href="#DejaVuSans-30"/>
       <use x="63.623047" xlink:href="#DejaVuSans-2e"/>
       <use x="95.410156" xlink:href="#DejaVuSans-34"/>
      </g>
     </g>
    </g>
    <g id="ytick_14">
     <g id="line2d_27">
      <g>
       <use style="stroke:#000000;stroke-width:0.8;" x="329.605889" xlink:href="#m94b322fd65" y="115.370419"/>
      </g>
     </g>
     <g id="text_31">
      <!-- 0.6 -->
      <g transform="translate(336.605889 119.169637)scale(0.1 -0.1)">
       <use xlink:href="#DejaVuSans-30"/>
       <use x="63.623047" xlink:href="#DejaVuSans-2e"/>
       <use x="95.410156" xlink:href="#DejaVuSans-36"/>
      </g>
     </g>
    </g>
    <g id="ytick_15">
     <g id="line2d_28">
      <g>
       <use style="stroke:#000000;stroke-width:0.8;" x="329.605889" xlink:href="#m94b322fd65" y="63.184819"/>
      </g>
     </g>
     <g id="text_32">
      <!-- 0.8 -->
      <g transform="translate(336.605889 66.984037)scale(0.1 -0.1)">
       <use xlink:href="#DejaVuSans-30"/>
       <use x="63.623047" xlink:href="#DejaVuSans-2e"/>
       <use x="95.410156" xlink:href="#DejaVuSans-38"/>
      </g>
     </g>
    </g>
    <g id="ytick_16">
     <g id="line2d_29">
      <g>
       <use style="stroke:#000000;stroke-width:0.8;" x="329.605889" xlink:href="#m94b322fd65" y="10.999219"/>
      </g>
     </g>
     <g id="text_33">
      <!-- 1.0 -->
      <g transform="translate(336.605889 14.798438)scale(0.1 -0.1)">
       <use xlink:href="#DejaVuSans-31"/>
       <use x="63.623047" xlink:href="#DejaVuSans-2e"/>
       <use x="95.410156" xlink:href="#DejaVuSans-30"/>
      </g>
     </g>
    </g>
   </g>
   <g id="LineCollection_1"/>
   <g id="patch_14">
    <path d="M 316.559489 271.927219 
L 316.559489 245.834419 
L 316.559489 37.092019 
L 316.559489 10.999219 
L 329.605889 10.999219 
L 329.605889 37.092019 
L 329.605889 245.834419 
L 329.605889 271.927219 
z
" style="fill:none;stroke:#000000;stroke-linecap:square;stroke-linejoin:miter;stroke-width:0.8;"/>
   </g>
  </g>
  <g id="axes_4">
   <g id="patch_15">
    <path d="M 706.144943 271.927219 
L 719.191343 271.927219 
L 719.191343 10.999219 
L 706.144943 10.999219 
z
" style="fill:#ffffff;"/>
   </g>
   <g id="patch_16">
    <path clip-path="url(#pc713d72e96)" d="M 706.144943 271.927219 
L 706.144943 245.834419 
L 706.144943 37.092019 
L 706.144943 10.999219 
L 719.191343 10.999219 
L 719.191343 37.092019 
L 719.191343 245.834419 
L 719.191343 271.927219 
L 719.191343 271.927219 
z
" style="fill:#ffffff;stroke:#ffffff;stroke-linejoin:miter;stroke-width:0.01;"/>
   </g>
   <g id="QuadMesh_2">
    <path clip-path="url(#pc713d72e96)" d="M 706.144943 271.927219 
L 719.191343 271.927219 
L 719.191343 245.834419 
L 706.144943 245.834419 
L 706.144943 271.927219 
" style="fill:#471365;"/>
    <path clip-path="url(#pc713d72e96)" d="M 706.144943 245.834419 
L 719.191343 245.834419 
L 719.191343 219.741619 
L 706.144943 219.741619 
L 706.144943 245.834419 
" style="fill:#463480;"/>
    <path clip-path="url(#pc713d72e96)" d="M 706.144943 219.741619 
L 719.191343 219.741619 
L 719.191343 193.648819 
L 706.144943 193.648819 
L 706.144943 219.741619 
" style="fill:#3b528b;"/>
    <path clip-path="url(#pc713d72e96)" d="M 706.144943 193.648819 
L 719.191343 193.648819 
L 719.191343 167.556019 
L 706.144943 167.556019 
L 706.144943 193.648819 
" style="fill:#2f6c8e;"/>
    <path clip-path="url(#pc713d72e96)" d="M 706.144943 167.556019 
L 719.191343 167.556019 
L 719.191343 141.463219 
L 706.144943 141.463219 
L 706.144943 167.556019 
" style="fill:#25848e;"/>
    <path clip-path="url(#pc713d72e96)" d="M 706.144943 141.463219 
L 719.191343 141.463219 
L 719.191343 115.370419 
L 706.144943 115.370419 
L 706.144943 141.463219 
" style="fill:#1e9c89;"/>
    <path clip-path="url(#pc713d72e96)" d="M 706.144943 115.370419 
L 719.191343 115.370419 
L 719.191343 89.277619 
L 706.144943 89.277619 
L 706.144943 115.370419 
" style="fill:#2fb47c;"/>
    <path clip-path="url(#pc713d72e96)" d="M 706.144943 89.277619 
L 719.191343 89.277619 
L 719.191343 63.184819 
L 706.144943 63.184819 
L 706.144943 89.277619 
" style="fill:#5ec962;"/>
    <path clip-path="url(#pc713d72e96)" d="M 706.144943 63.184819 
L 719.191343 63.184819 
L 719.191343 37.092019 
L 706.144943 37.092019 
L 706.144943 63.184819 
" style="fill:#9bd93c;"/>
    <path clip-path="url(#pc713d72e96)" d="M 706.144943 37.092019 
L 719.191343 37.092019 
L 719.191343 10.999219 
L 706.144943 10.999219 
L 706.144943 37.092019 
" style="fill:#dfe318;"/>
   </g>
   <g id="matplotlib.axis_7"/>
   <g id="matplotlib.axis_8">
    <g id="ytick_17">
     <g id="line2d_30">
      <g>
       <use style="stroke:#000000;stroke-width:0.8;" x="719.191343" xlink:href="#m94b322fd65" y="271.927219"/>
      </g>
     </g>
     <g id="text_34">
      <!-- 0.0 -->
      <g transform="translate(726.191343 275.726437)scale(0.1 -0.1)">
       <use xlink:href="#DejaVuSans-30"/>
       <use x="63.623047" xlink:href="#DejaVuSans-2e"/>
       <use x="95.410156" xlink:href="#DejaVuSans-30"/>
      </g>
     </g>
    </g>
    <g id="ytick_18">
     <g id="line2d_31">
      <g>
       <use style="stroke:#000000;stroke-width:0.8;" x="719.191343" xlink:href="#m94b322fd65" y="219.741619"/>
      </g>
     </g>
     <g id="text_35">
      <!-- 0.2 -->
      <g transform="translate(726.191343 223.540837)scale(0.1 -0.1)">
       <use xlink:href="#DejaVuSans-30"/>
       <use x="63.623047" xlink:href="#DejaVuSans-2e"/>
       <use x="95.410156" xlink:href="#DejaVuSans-32"/>
      </g>
     </g>
    </g>
    <g id="ytick_19">
     <g id="line2d_32">
      <g>
       <use style="stroke:#000000;stroke-width:0.8;" x="719.191343" xlink:href="#m94b322fd65" y="167.556019"/>
      </g>
     </g>
     <g id="text_36">
      <!-- 0.4 -->
      <g transform="translate(726.191343 171.355237)scale(0.1 -0.1)">
       <use xlink:href="#DejaVuSans-30"/>
       <use x="63.623047" xlink:href="#DejaVuSans-2e"/>
       <use x="95.410156" xlink:href="#DejaVuSans-34"/>
      </g>
     </g>
    </g>
    <g id="ytick_20">
     <g id="line2d_33">
      <g>
       <use style="stroke:#000000;stroke-width:0.8;" x="719.191343" xlink:href="#m94b322fd65" y="115.370419"/>
      </g>
     </g>
     <g id="text_37">
      <!-- 0.6 -->
      <g transform="translate(726.191343 119.169637)scale(0.1 -0.1)">
       <use xlink:href="#DejaVuSans-30"/>
       <use x="63.623047" xlink:href="#DejaVuSans-2e"/>
       <use x="95.410156" xlink:href="#DejaVuSans-36"/>
      </g>
     </g>
    </g>
    <g id="ytick_21">
     <g id="line2d_34">
      <g>
       <use style="stroke:#000000;stroke-width:0.8;" x="719.191343" xlink:href="#m94b322fd65" y="63.184819"/>
      </g>
     </g>
     <g id="text_38">
      <!-- 0.8 -->
      <g transform="translate(726.191343 66.984037)scale(0.1 -0.1)">
       <use xlink:href="#DejaVuSans-30"/>
       <use x="63.623047" xlink:href="#DejaVuSans-2e"/>
       <use x="95.410156" xlink:href="#DejaVuSans-38"/>
      </g>
     </g>
    </g>
    <g id="ytick_22">
     <g id="line2d_35">
      <g>
       <use style="stroke:#000000;stroke-width:0.8;" x="719.191343" xlink:href="#m94b322fd65" y="10.999219"/>
      </g>
     </g>
     <g id="text_39">
      <!-- 1.0 -->
      <g transform="translate(726.191343 14.798438)scale(0.1 -0.1)">
       <use xlink:href="#DejaVuSans-31"/>
       <use x="63.623047" xlink:href="#DejaVuSans-2e"/>
       <use x="95.410156" xlink:href="#DejaVuSans-30"/>
      </g>
     </g>
    </g>
   </g>
   <g id="LineCollection_2"/>
   <g id="patch_17">
    <path d="M 706.144943 271.927219 
L 706.144943 245.834419 
L 706.144943 37.092019 
L 706.144943 10.999219 
L 719.191343 10.999219 
L 719.191343 37.092019 
L 719.191343 245.834419 
L 719.191343 271.927219 
z
" style="fill:none;stroke:#000000;stroke-linecap:square;stroke-linejoin:miter;stroke-width:0.8;"/>
   </g>
  </g>
 </g>
 <defs>
  <clipPath id="pb37b8e9d61">
   <rect height="260.928" width="259.723636" x="40.603125" y="10.999219"/>
  </clipPath>
  <clipPath id="p5f4a262e46">
   <rect height="260.928" width="259.723636" x="430.18858" y="10.999219"/>
  </clipPath>
  <clipPath id="p718800d782">
   <rect height="260.928" width="13.0464" x="316.559489" y="10.999219"/>
  </clipPath>
  <clipPath id="pc713d72e96">
   <rect height="260.928" width="13.0464" x="706.144943" y="10.999219"/>
  </clipPath>
 </defs>
</svg>
