<?xml version="1.0" encoding="utf-8" standalone="no"?>
<!DOCTYPE svg PUBLIC "-//W3C//DTD SVG 1.1//EN"
  "http://www.w3.org/Graphics/SVG/1.1/DTD/svg11.dtd">
<svg xmlns:xlink="http://www.w3.org/1999/xlink" width="749.553668pt" height="314.667469pt" viewBox="0 0 749.553668 314.667469" xmlns="http://www.w3.org/2000/svg" version="1.1">
 <metadata>
  <rdf:RDF xmlns:dc="http://purl.org/dc/elements/1.1/" xmlns:cc="http://creativecommons.org/ns#" xmlns:rdf="http://www.w3.org/1999/02/22-rdf-syntax-ns#">
   <cc:Work>
    <dc:type rdf:resource="http://purl.org/dc/dcmitype/StillImage"/>
    <dc:date>2022-11-28T20:27:50.312523</dc:date>
    <dc:format>image/svg+xml</dc:format>
    <dc:creator>
     <cc:Agent>
      <dc:title>Matplotlib v3.6.2, https://matplotlib.org/</dc:title>
     </cc:Agent>
    </dc:creator>
   </cc:Work>
  </rdf:RDF>
 </metadata>
 <defs>
  <style type="text/css">*{stroke-linejoin: round; stroke-linecap: butt}</style>
 </defs>
 <g id="figure_1">
  <g id="patch_1">
   <path d="M 0 314.667469 
L 749.553668 314.667469 
L 749.553668 0 
L 0 0 
z
" style="fill: #ffffff"/>
  </g>
  <g id="axes_1">
   <g id="patch_2">
    <path d="M 40.603125 277.111219 
L 300.326761 277.111219 
L 300.326761 10.999219 
L 40.603125 10.999219 
z
" style="fill: #ffffff"/>
   </g>
   <g id="PathCollection_1">
    <path d="M 165.986949 155.82598 
L 174.942937 153.638564 
L 179.540006 148.643357 
L 182.481128 139.467081 
L 174.942937 132.492533 
L 165.986949 134.905918 
L 161.445346 139.467081 
L 159.842962 148.643357 
z
" clip-path="url(#p971a93b880)" style="fill: #471365"/>
   </g>
   <g id="PathCollection_2">
    <path d="M 165.986949 162.123904 
L 174.942937 160.318767 
L 178.117877 157.819633 
L 183.898924 151.566735 
L 185.834288 148.643357 
L 188.578481 139.467081 
L 185.736135 130.290805 
L 183.898924 128.816266 
L 174.942937 126.654803 
L 165.986949 128.651654 
L 163.36336 130.290805 
L 157.030962 136.649813 
L 155.289083 139.467081 
L 154.128636 148.643357 
L 157.030962 156.416314 
L 158.194004 157.819633 
z
M 159.842962 148.643357 
L 161.445346 139.467081 
L 165.986949 134.905918 
L 174.942937 132.492533 
L 182.481128 139.467081 
L 179.540006 148.643357 
L 174.942937 153.638564 
L 165.986949 155.82598 
z
" clip-path="url(#p971a93b880)" style="fill: #463480"/>
   </g>
   <g id="PathCollection_3">
    <path d="M 165.986949 167.512079 
L 168.58971 166.995908 
L 174.942937 165.615956 
L 183.898924 158.617136 
L 184.593055 157.819633 
L 190.65314 148.643357 
L 192.854912 142.444339 
L 193.902877 139.467081 
L 193.110443 130.290805 
L 192.854912 129.902087 
L 183.898924 122.839075 
L 174.942937 121.840061 
L 165.986949 124.126401 
L 157.030962 129.669439 
L 156.389463 130.290805 
L 150.791999 139.467081 
L 149.67982 148.643357 
L 152.74842 157.819633 
L 157.030962 163.235875 
L 164.657908 166.995908 
z
M 158.194004 157.819633 
L 157.030962 156.416314 
L 154.128636 148.643357 
L 155.289083 139.467081 
L 157.030962 136.649813 
L 163.36336 130.290805 
L 165.986949 128.651654 
L 174.942937 126.654803 
L 183.898924 128.816266 
L 185.736135 130.290805 
L 188.578481 139.467081 
L 185.834288 148.643357 
L 183.898924 151.566735 
L 178.117877 157.819633 
L 174.942937 160.318767 
L 165.986949 162.123904 
z
" clip-path="url(#p971a93b880)" style="fill: #3b528b"/>
   </g>
   <g id="PathCollection_4">
    <path d="M 157.030962 169.020346 
L 165.986949 172.348613 
L 174.942937 170.710645 
L 180.369682 166.995908 
L 183.898924 164.274937 
L 189.517491 157.819633 
L 192.854912 152.725506 
L 195.34799 148.643357 
L 198.678441 139.467081 
L 198.902801 130.290805 
L 192.877598 121.114529 
L 192.854912 121.098803 
L 183.898924 117.821099 
L 174.942937 117.583568 
L 165.986949 119.705563 
L 163.175643 121.114529 
L 157.030962 124.727162 
L 151.287043 130.290805 
L 148.074975 135.924658 
L 146.439882 139.467081 
L 145.562554 148.643357 
L 147.918847 157.819633 
L 148.074975 158.102238 
L 154.805876 166.995908 
z
M 164.657908 166.995908 
L 157.030962 163.235875 
L 152.74842 157.819633 
L 149.67982 148.643357 
L 150.791999 139.467081 
L 156.389463 130.290805 
L 157.030962 129.669439 
L 165.986949 124.126401 
L 174.942937 121.840061 
L 183.898924 122.839075 
L 192.854912 129.902087 
L 193.110443 130.290805 
L 193.902877 139.467081 
L 192.854912 142.444339 
L 190.65314 148.643357 
L 184.593055 157.819633 
L 183.898924 158.617136 
L 174.942937 165.615956 
L 168.58971 166.995908 
L 165.986949 167.512079 
z
" clip-path="url(#p971a93b880)" style="fill: #2f6c8e"/>
   </g>
   <g id="PathCollection_5">
    <path d="M 165.986949 177.288257 
L 172.309614 176.172184 
L 174.942937 175.733999 
L 183.898924 170.015319 
L 186.865105 166.995908 
L 192.854912 159.97747 
L 194.478521 157.819633 
L 199.938516 148.643357 
L 201.810899 143.665842 
L 203.598314 139.467081 
L 204.690708 130.290805 
L 201.810899 122.186397 
L 201.258933 121.114529 
L 192.854912 115.289079 
L 183.898924 113.192107 
L 174.942937 113.426123 
L 165.986949 115.492528 
L 157.030962 119.81357 
L 155.256472 121.114529 
L 148.074975 127.961145 
L 146.254578 130.290805 
L 142.309037 139.467081 
L 141.632382 148.643357 
L 143.727769 157.819633 
L 148.074975 165.688481 
L 149.064461 166.995908 
L 157.030962 174.244025 
L 162.744857 176.172184 
z
M 154.805876 166.995908 
L 148.074975 158.102238 
L 147.918847 157.819633 
L 145.562554 148.643357 
L 146.439882 139.467081 
L 148.074975 135.924658 
L 151.287043 130.290805 
L 157.030962 124.727162 
L 163.175643 121.114529 
L 165.986949 119.705563 
L 174.942937 117.583568 
L 183.898924 117.821099 
L 192.854912 121.098803 
L 192.877598 121.114529 
L 198.902801 130.290805 
L 198.678441 139.467081 
L 195.34799 148.643357 
L 192.854912 152.725506 
L 189.517491 157.819633 
L 183.898924 164.274937 
L 180.369682 166.995908 
L 174.942937 170.710645 
L 165.986949 172.348613 
L 157.030962 169.020346 
z
" clip-path="url(#p971a93b880)" style="fill: #25848e"/>
   </g>
   <g id="PathCollection_6">
    <path d="M 157.030962 179.742737 
L 165.986949 182.6171 
L 174.942937 181.434605 
L 183.359975 176.172184 
L 183.898924 175.832213 
L 192.579451 166.995908 
L 192.854912 166.673142 
L 199.516506 157.819633 
L 201.810899 153.830235 
L 205.002072 148.643357 
L 208.7933 139.467081 
L 210.474128 130.290805 
L 208.886922 121.114529 
L 201.810899 113.406746 
L 199.159705 111.938253 
L 192.854912 109.549384 
L 183.898924 108.348293 
L 174.942937 108.890293 
L 165.986949 111.144027 
L 164.202929 111.938253 
L 157.030962 114.977915 
L 148.660705 121.114529 
L 148.074975 121.672946 
L 141.340979 130.290805 
L 139.118987 136.393545 
L 138.004489 139.467081 
L 137.45248 148.643357 
L 139.118987 155.832129 
L 139.536691 157.819633 
L 143.961885 166.995908 
L 148.074975 172.310483 
L 152.445826 176.172184 
z
M 162.744857 176.172184 
L 157.030962 174.244025 
L 149.064461 166.995908 
L 148.074975 165.688481 
L 143.727769 157.819633 
L 141.632382 148.643357 
L 142.309037 139.467081 
L 146.254578 130.290805 
L 148.074975 127.961145 
L 155.256472 121.114529 
L 157.030962 119.81357 
L 165.986949 115.492528 
L 174.942937 113.426123 
L 183.898924 113.192107 
L 192.854912 115.289079 
L 201.258933 121.114529 
L 201.810899 122.186397 
L 204.690708 130.290805 
L 203.598314 139.467081 
L 201.810899 143.665842 
L 199.938516 148.643357 
L 194.478521 157.819633 
L 192.854912 159.97747 
L 186.865105 166.995908 
L 183.898924 170.015319 
L 174.942937 175.733999 
L 172.309614 176.172184 
L 165.986949 177.288257 
z
" clip-path="url(#p971a93b880)" style="fill: #1e9c89"/>
   </g>
   <g id="PathCollection_7">
    <path d="M 157.030962 185.417556 
L 165.986949 188.661105 
L 174.942937 187.762505 
L 179.184566 185.34846 
L 183.898924 182.826067 
L 190.850745 176.172184 
L 192.854912 174.135912 
L 198.740715 166.995908 
L 201.810899 162.619759 
L 205.259983 157.819633 
L 210.391473 148.643357 
L 210.766887 147.716653 
L 214.853559 139.467081 
L 217.205884 130.290805 
L 216.907587 121.114529 
L 211.574655 111.938253 
L 210.766887 111.253079 
L 201.810899 106.076992 
L 192.854912 103.905121 
L 183.898924 103.424672 
L 174.942937 104.143573 
L 165.986949 106.064626 
L 157.030962 109.685383 
L 153.381603 111.938253 
L 148.074975 115.353094 
L 141.991128 121.114529 
L 139.118987 125.150855 
L 135.875467 130.290805 
L 133.110951 139.467081 
L 132.829551 148.643357 
L 134.644429 157.819633 
L 138.964312 166.995908 
L 139.118987 167.230131 
L 145.47225 176.172184 
L 148.074975 178.983719 
L 156.937412 185.34846 
z
M 152.445826 176.172184 
L 148.074975 172.310483 
L 143.961885 166.995908 
L 139.536691 157.819633 
L 139.118987 155.832129 
L 137.45248 148.643357 
L 138.004489 139.467081 
L 139.118987 136.393545 
L 141.340979 130.290805 
L 148.074975 121.672946 
L 148.660705 121.114529 
L 157.030962 114.977915 
L 164.202929 111.938253 
L 165.986949 111.144027 
L 174.942937 108.890293 
L 183.898924 108.348293 
L 192.854912 109.549384 
L 199.159705 111.938253 
L 201.810899 113.406746 
L 208.886922 121.114529 
L 210.474128 130.290805 
L 208.7933 139.467081 
L 205.002072 148.643357 
L 201.810899 153.830235 
L 199.516506 157.819633 
L 192.854912 166.673142 
L 192.579451 166.995908 
L 183.898924 175.832213 
L 183.359975 176.172184 
L 174.942937 181.434605 
L 165.986949 182.6171 
L 157.030962 179.742737 
z
" clip-path="url(#p971a93b880)" style="fill: #2fb47c"/>
   </g>
   <g id="PathCollection_8">
    <path d="M 165.986949 195.855021 
L 174.942937 195.602375 
L 177.123683 194.524736 
L 183.898924 191.527041 
L 190.620392 185.34846 
L 192.854912 183.266671 
L 198.914308 176.172184 
L 201.810899 172.42027 
L 205.969166 166.995908 
L 210.766887 159.50289 
L 211.979486 157.819633 
L 217.620051 148.643357 
L 219.722874 143.851089 
L 222.185858 139.467081 
L 225.372844 130.290805 
L 226.273903 121.114529 
L 223.719262 111.938253 
L 219.722874 107.321358 
L 213.674097 102.761977 
L 210.766887 101.248338 
L 201.810899 98.310465 
L 192.854912 97.074112 
L 183.898924 97.004736 
L 174.942937 97.955083 
L 165.986949 100.107295 
L 159.608944 102.761977 
L 157.030962 103.6196 
L 148.074975 108.196841 
L 143.270065 111.938253 
L 139.118987 115.708134 
L 134.42751 121.114529 
L 130.163 129.706263 
L 129.856884 130.290805 
L 127.29922 139.467081 
L 127.24108 148.643357 
L 129.411011 157.819633 
L 130.163 159.463916 
L 132.895296 166.995908 
L 138.890843 176.172184 
L 139.118987 176.458048 
L 147.142264 185.34846 
L 148.074975 186.26508 
L 157.030962 192.671726 
L 162.857512 194.524736 
z
M 156.937412 185.34846 
L 148.074975 178.983719 
L 145.47225 176.172184 
L 139.118987 167.230131 
L 138.964312 166.995908 
L 134.644429 157.819633 
L 132.829551 148.643357 
L 133.110951 139.467081 
L 135.875467 130.290805 
L 139.118987 125.150855 
L 141.991128 121.114529 
L 148.074975 115.353094 
L 153.381603 111.938253 
L 157.030962 109.685383 
L 165.986949 106.064626 
L 174.942937 104.143573 
L 183.898924 103.424672 
L 192.854912 103.905121 
L 201.810899 106.076992 
L 210.766887 111.253079 
L 211.574655 111.938253 
L 216.907587 121.114529 
L 217.205884 130.290805 
L 214.853559 139.467081 
L 210.766887 147.716653 
L 210.391473 148.643357 
L 205.259983 157.819633 
L 201.810899 162.619759 
L 198.740715 166.995908 
L 192.854912 174.135912 
L 190.850745 176.172184 
L 183.898924 182.826067 
L 179.184566 185.34846 
L 174.942937 187.762505 
L 165.986949 188.661105 
L 157.030962 185.417556 
z
" clip-path="url(#p971a93b880)" style="fill: #5ec962"/>
   </g>
   <g id="PathCollection_9">
    <path d="M 165.986949 206.613993 
L 174.942937 207.718998 
L 183.898924 204.496389 
L 184.881571 203.701012 
L 192.854912 197.307988 
L 195.233039 194.524736 
L 201.810899 186.285511 
L 202.52762 185.34846 
L 209.428403 176.172184 
L 210.766887 174.202736 
L 216.192229 166.995908 
L 219.722874 161.299774 
L 222.297842 157.819633 
L 227.849756 148.643357 
L 228.678862 146.903425 
L 233.326663 139.467081 
L 236.985908 130.290805 
L 237.634849 127.20538 
L 239.575935 121.114529 
L 239.455917 111.938253 
L 237.634849 107.828213 
L 235.227319 102.761977 
L 228.678862 96.992496 
L 222.241897 93.585702 
L 219.722874 92.440044 
L 210.766887 89.64952 
L 201.810899 88.264557 
L 192.854912 87.839727 
L 183.898924 88.198681 
L 174.942937 89.375735 
L 165.986949 91.647302 
L 161.145831 93.585702 
L 157.030962 94.707418 
L 148.074975 98.485841 
L 141.790164 102.761977 
L 139.118987 104.502467 
L 131.151582 111.938253 
L 130.163 113.170589 
L 124.315936 121.114529 
L 121.207012 130.14223 
L 121.142125 130.290805 
L 119.198458 139.467081 
L 119.579366 148.643357 
L 121.207012 154.476995 
L 121.759716 157.819633 
L 124.753865 166.995908 
L 130.163 175.649567 
L 130.443483 176.172184 
L 136.947555 185.34846 
L 139.118987 187.773664 
L 146.17303 194.524736 
L 148.074975 196.311181 
L 157.030962 202.490953 
L 160.363833 203.701012 
z
M 162.857512 194.524736 
L 157.030962 192.671726 
L 148.074975 186.26508 
L 147.142264 185.34846 
L 139.118987 176.458048 
L 138.890843 176.172184 
L 132.895296 166.995908 
L 130.163 159.463916 
L 129.411011 157.819633 
L 127.24108 148.643357 
L 127.29922 139.467081 
L 129.856884 130.290805 
L 130.163 129.706263 
L 134.42751 121.114529 
L 139.118987 115.708134 
L 143.270065 111.938253 
L 148.074975 108.196841 
L 157.030962 103.6196 
L 159.608944 102.761977 
L 165.986949 100.107295 
L 174.942937 97.955083 
L 183.898924 97.004736 
L 192.854912 97.074112 
L 201.810899 98.310465 
L 210.766887 101.248338 
L 213.674097 102.761977 
L 219.722874 107.321358 
L 223.719262 111.938253 
L 226.273903 121.114529 
L 225.372844 130.290805 
L 222.185858 139.467081 
L 219.722874 143.851089 
L 217.620051 148.643357 
L 211.979486 157.819633 
L 210.766887 159.50289 
L 205.969166 166.995908 
L 201.810899 172.42027 
L 198.914308 176.172184 
L 192.854912 183.266671 
L 190.620392 185.34846 
L 183.898924 191.527041 
L 177.123683 194.524736 
L 174.942937 195.602375 
L 165.986949 195.855021 
z
" clip-path="url(#p971a93b880)" style="fill: #9bd93c"/>
   </g>
   <g id="PathCollection_10">
    <path d="M 49.559112 277.111219 
L 58.5151 277.111219 
L 67.471087 277.111219 
L 76.427075 277.111219 
L 85.383062 277.111219 
L 94.33905 277.111219 
L 103.295037 277.111219 
L 112.251025 277.111219 
L 121.207012 277.111219 
L 130.163 277.111219 
L 139.118987 277.111219 
L 148.074975 277.111219 
L 157.030962 277.111219 
L 165.986949 277.111219 
L 174.942937 277.111219 
L 183.898924 277.111219 
L 192.854912 277.111219 
L 201.810899 277.111219 
L 210.766887 277.111219 
L 219.722874 277.111219 
L 228.678862 277.111219 
L 237.634849 277.111219 
L 246.590837 277.111219 
L 255.546824 277.111219 
L 264.502812 277.111219 
L 273.458799 277.111219 
L 282.414786 277.111219 
L 291.370774 277.111219 
L 300.326761 277.111219 
L 300.326761 267.934943 
L 300.326761 258.758667 
L 300.326761 249.582391 
L 300.326761 240.406115 
L 300.326761 231.229839 
L 300.326761 222.053564 
L 300.326761 212.877288 
L 300.326761 203.701012 
L 300.326761 194.524736 
L 300.326761 185.34846 
L 300.326761 176.172184 
L 300.326761 166.995908 
L 300.326761 157.819633 
L 300.326761 148.643357 
L 300.326761 139.467081 
L 300.326761 130.290805 
L 300.326761 121.114529 
L 300.326761 111.938253 
L 300.326761 102.761977 
L 300.326761 93.585702 
L 300.326761 84.409426 
L 300.326761 75.23315 
L 300.326761 66.056874 
L 300.326761 56.880598 
L 300.326761 47.704322 
L 300.326761 38.528046 
L 300.326761 29.35177 
L 300.326761 20.175495 
L 300.326761 10.999219 
L 291.370774 10.999219 
L 282.414786 10.999219 
L 273.458799 10.999219 
L 264.502812 10.999219 
L 255.546824 10.999219 
L 246.590837 10.999219 
L 237.634849 10.999219 
L 228.678862 10.999219 
L 219.722874 10.999219 
L 210.766887 10.999219 
L 201.810899 10.999219 
L 192.854912 10.999219 
L 183.898924 10.999219 
L 174.942937 10.999219 
L 165.986949 10.999219 
L 157.030962 10.999219 
L 148.074975 10.999219 
L 139.118987 10.999219 
L 130.163 10.999219 
L 121.207012 10.999219 
L 112.251025 10.999219 
L 103.295037 10.999219 
L 94.33905 10.999219 
L 85.383062 10.999219 
L 76.427075 10.999219 
L 67.471087 10.999219 
L 58.5151 10.999219 
L 49.559112 10.999219 
L 40.603125 10.999219 
L 40.603125 20.175495 
L 40.603125 29.35177 
L 40.603125 38.528046 
L 40.603125 47.704322 
L 40.603125 56.880598 
L 40.603125 66.056874 
L 40.603125 75.23315 
L 40.603125 84.409426 
L 40.603125 93.585702 
L 40.603125 102.761977 
L 40.603125 111.938253 
L 40.603125 121.114529 
L 40.603125 130.290805 
L 40.603125 139.467081 
L 40.603125 148.643357 
L 40.603125 157.819633 
L 40.603125 166.995908 
L 40.603125 176.172184 
L 40.603125 185.34846 
L 40.603125 194.524736 
L 40.603125 203.701012 
L 40.603125 212.877288 
L 40.603125 222.053564 
L 40.603125 231.229839 
L 40.603125 240.406115 
L 40.603125 249.582391 
L 40.603125 258.758667 
L 40.603125 267.934943 
L 40.603125 277.111219 
z
M 160.363833 203.701012 
L 157.030962 202.490953 
L 148.074975 196.311181 
L 146.17303 194.524736 
L 139.118987 187.773664 
L 136.947555 185.34846 
L 130.443483 176.172184 
L 130.163 175.649567 
L 124.753865 166.995908 
L 121.759716 157.819633 
L 121.207012 154.476995 
L 119.579366 148.643357 
L 119.198458 139.467081 
L 121.142125 130.290805 
L 121.207012 130.14223 
L 124.315936 121.114529 
L 130.163 113.170589 
L 131.151582 111.938253 
L 139.118987 104.502467 
L 141.790164 102.761977 
L 148.074975 98.485841 
L 157.030962 94.707418 
L 161.145831 93.585702 
L 165.986949 91.647302 
L 174.942937 89.375735 
L 183.898924 88.198681 
L 192.854912 87.839727 
L 201.810899 88.264557 
L 210.766887 89.64952 
L 219.722874 92.440044 
L 222.241897 93.585702 
L 228.678862 96.992496 
L 235.227319 102.761977 
L 237.634849 107.828213 
L 239.455917 111.938253 
L 239.575935 121.114529 
L 237.634849 127.20538 
L 236.985908 130.290805 
L 233.326663 139.467081 
L 228.678862 146.903425 
L 227.849756 148.643357 
L 222.297842 157.819633 
L 219.722874 161.299774 
L 216.192229 166.995908 
L 210.766887 174.202736 
L 209.428403 176.172184 
L 202.52762 185.34846 
L 201.810899 186.285511 
L 195.233039 194.524736 
L 192.854912 197.307988 
L 184.881571 203.701012 
L 183.898924 204.496389 
L 174.942937 207.718998 
L 165.986949 206.613993 
z
" clip-path="url(#p971a93b880)" style="fill: #dfe318"/>
   </g>
   <g id="matplotlib.axis_1">
    <g id="xtick_1">
     <g id="line2d_1">
      <defs>
       <path id="m6bbeb2ac73" d="M 0 0 
L 0 3.5 
" style="stroke: #000000; stroke-width: 0.8"/>
      </defs>
      <g>
       <use xlink:href="#m6bbeb2ac73" x="68.054513" y="277.111219" style="stroke: #000000; stroke-width: 0.8"/>
      </g>
     </g>
     <g id="text_1">
      <!-- 2.4 -->
      <g transform="translate(60.10295 291.709656) scale(0.1 -0.1)">
       <defs>
        <path id="DejaVuSans-32" d="M 1228 531 
L 3431 531 
L 3431 0 
L 469 0 
L 469 531 
Q 828 903 1448 1529 
Q 2069 2156 2228 2338 
Q 2531 2678 2651 2914 
Q 2772 3150 2772 3378 
Q 2772 3750 2511 3984 
Q 2250 4219 1831 4219 
Q 1534 4219 1204 4116 
Q 875 4013 500 3803 
L 500 4441 
Q 881 4594 1212 4672 
Q 1544 4750 1819 4750 
Q 2544 4750 2975 4387 
Q 3406 4025 3406 3419 
Q 3406 3131 3298 2873 
Q 3191 2616 2906 2266 
Q 2828 2175 2409 1742 
Q 1991 1309 1228 531 
z
" transform="scale(0.015625)"/>
        <path id="DejaVuSans-2e" d="M 684 794 
L 1344 794 
L 1344 0 
L 684 0 
L 684 794 
z
" transform="scale(0.015625)"/>
        <path id="DejaVuSans-34" d="M 2419 4116 
L 825 1625 
L 2419 1625 
L 2419 4116 
z
M 2253 4666 
L 3047 4666 
L 3047 1625 
L 3713 1625 
L 3713 1100 
L 3047 1100 
L 3047 0 
L 2419 0 
L 2419 1100 
L 313 1100 
L 313 1709 
L 2253 4666 
z
" transform="scale(0.015625)"/>
       </defs>
       <use xlink:href="#DejaVuSans-32"/>
       <use xlink:href="#DejaVuSans-2e" x="63.623047"/>
       <use xlink:href="#DejaVuSans-34" x="95.410156"/>
      </g>
     </g>
    </g>
    <g id="xtick_2">
     <g id="line2d_2">
      <g>
       <use xlink:href="#m6bbeb2ac73" x="102.993689" y="277.111219" style="stroke: #000000; stroke-width: 0.8"/>
      </g>
     </g>
     <g id="text_2">
      <!-- 2.6 -->
      <g transform="translate(95.042127 291.709656) scale(0.1 -0.1)">
       <defs>
        <path id="DejaVuSans-36" d="M 2113 2584 
Q 1688 2584 1439 2293 
Q 1191 2003 1191 1497 
Q 1191 994 1439 701 
Q 1688 409 2113 409 
Q 2538 409 2786 701 
Q 3034 994 3034 1497 
Q 3034 2003 2786 2293 
Q 2538 2584 2113 2584 
z
M 3366 4563 
L 3366 3988 
Q 3128 4100 2886 4159 
Q 2644 4219 2406 4219 
Q 1781 4219 1451 3797 
Q 1122 3375 1075 2522 
Q 1259 2794 1537 2939 
Q 1816 3084 2150 3084 
Q 2853 3084 3261 2657 
Q 3669 2231 3669 1497 
Q 3669 778 3244 343 
Q 2819 -91 2113 -91 
Q 1303 -91 875 529 
Q 447 1150 447 2328 
Q 447 3434 972 4092 
Q 1497 4750 2381 4750 
Q 2619 4750 2861 4703 
Q 3103 4656 3366 4563 
z
" transform="scale(0.015625)"/>
       </defs>
       <use xlink:href="#DejaVuSans-32"/>
       <use xlink:href="#DejaVuSans-2e" x="63.623047"/>
       <use xlink:href="#DejaVuSans-36" x="95.410156"/>
      </g>
     </g>
    </g>
    <g id="xtick_3">
     <g id="line2d_3">
      <g>
       <use xlink:href="#m6bbeb2ac73" x="137.932866" y="277.111219" style="stroke: #000000; stroke-width: 0.8"/>
      </g>
     </g>
     <g id="text_3">
      <!-- 2.8 -->
      <g transform="translate(129.981303 291.709656) scale(0.1 -0.1)">
       <defs>
        <path id="DejaVuSans-38" d="M 2034 2216 
Q 1584 2216 1326 1975 
Q 1069 1734 1069 1313 
Q 1069 891 1326 650 
Q 1584 409 2034 409 
Q 2484 409 2743 651 
Q 3003 894 3003 1313 
Q 3003 1734 2745 1975 
Q 2488 2216 2034 2216 
z
M 1403 2484 
Q 997 2584 770 2862 
Q 544 3141 544 3541 
Q 544 4100 942 4425 
Q 1341 4750 2034 4750 
Q 2731 4750 3128 4425 
Q 3525 4100 3525 3541 
Q 3525 3141 3298 2862 
Q 3072 2584 2669 2484 
Q 3125 2378 3379 2068 
Q 3634 1759 3634 1313 
Q 3634 634 3220 271 
Q 2806 -91 2034 -91 
Q 1263 -91 848 271 
Q 434 634 434 1313 
Q 434 1759 690 2068 
Q 947 2378 1403 2484 
z
M 1172 3481 
Q 1172 3119 1398 2916 
Q 1625 2713 2034 2713 
Q 2441 2713 2670 2916 
Q 2900 3119 2900 3481 
Q 2900 3844 2670 4047 
Q 2441 4250 2034 4250 
Q 1625 4250 1398 4047 
Q 1172 3844 1172 3481 
z
" transform="scale(0.015625)"/>
       </defs>
       <use xlink:href="#DejaVuSans-32"/>
       <use xlink:href="#DejaVuSans-2e" x="63.623047"/>
       <use xlink:href="#DejaVuSans-38" x="95.410156"/>
      </g>
     </g>
    </g>
    <g id="xtick_4">
     <g id="line2d_4">
      <g>
       <use xlink:href="#m6bbeb2ac73" x="172.872042" y="277.111219" style="stroke: #000000; stroke-width: 0.8"/>
      </g>
     </g>
     <g id="text_4">
      <!-- 3.0 -->
      <g transform="translate(164.92048 291.709656) scale(0.1 -0.1)">
       <defs>
        <path id="DejaVuSans-33" d="M 2597 2516 
Q 3050 2419 3304 2112 
Q 3559 1806 3559 1356 
Q 3559 666 3084 287 
Q 2609 -91 1734 -91 
Q 1441 -91 1130 -33 
Q 819 25 488 141 
L 488 750 
Q 750 597 1062 519 
Q 1375 441 1716 441 
Q 2309 441 2620 675 
Q 2931 909 2931 1356 
Q 2931 1769 2642 2001 
Q 2353 2234 1838 2234 
L 1294 2234 
L 1294 2753 
L 1863 2753 
Q 2328 2753 2575 2939 
Q 2822 3125 2822 3475 
Q 2822 3834 2567 4026 
Q 2313 4219 1838 4219 
Q 1578 4219 1281 4162 
Q 984 4106 628 3988 
L 628 4550 
Q 988 4650 1302 4700 
Q 1616 4750 1894 4750 
Q 2613 4750 3031 4423 
Q 3450 4097 3450 3541 
Q 3450 3153 3228 2886 
Q 3006 2619 2597 2516 
z
" transform="scale(0.015625)"/>
        <path id="DejaVuSans-30" d="M 2034 4250 
Q 1547 4250 1301 3770 
Q 1056 3291 1056 2328 
Q 1056 1369 1301 889 
Q 1547 409 2034 409 
Q 2525 409 2770 889 
Q 3016 1369 3016 2328 
Q 3016 3291 2770 3770 
Q 2525 4250 2034 4250 
z
M 2034 4750 
Q 2819 4750 3233 4129 
Q 3647 3509 3647 2328 
Q 3647 1150 3233 529 
Q 2819 -91 2034 -91 
Q 1250 -91 836 529 
Q 422 1150 422 2328 
Q 422 3509 836 4129 
Q 1250 4750 2034 4750 
z
" transform="scale(0.015625)"/>
       </defs>
       <use xlink:href="#DejaVuSans-33"/>
       <use xlink:href="#DejaVuSans-2e" x="63.623047"/>
       <use xlink:href="#DejaVuSans-30" x="95.410156"/>
      </g>
     </g>
    </g>
    <g id="xtick_5">
     <g id="line2d_5">
      <g>
       <use xlink:href="#m6bbeb2ac73" x="207.811219" y="277.111219" style="stroke: #000000; stroke-width: 0.8"/>
      </g>
     </g>
     <g id="text_5">
      <!-- 3.2 -->
      <g transform="translate(199.859656 291.709656) scale(0.1 -0.1)">
       <use xlink:href="#DejaVuSans-33"/>
       <use xlink:href="#DejaVuSans-2e" x="63.623047"/>
       <use xlink:href="#DejaVuSans-32" x="95.410156"/>
      </g>
     </g>
    </g>
    <g id="xtick_6">
     <g id="line2d_6">
      <g>
       <use xlink:href="#m6bbeb2ac73" x="242.750395" y="277.111219" style="stroke: #000000; stroke-width: 0.8"/>
      </g>
     </g>
     <g id="text_6">
      <!-- 3.4 -->
      <g transform="translate(234.798833 291.709656) scale(0.1 -0.1)">
       <use xlink:href="#DejaVuSans-33"/>
       <use xlink:href="#DejaVuSans-2e" x="63.623047"/>
       <use xlink:href="#DejaVuSans-34" x="95.410156"/>
      </g>
     </g>
    </g>
    <g id="xtick_7">
     <g id="line2d_7">
      <g>
       <use xlink:href="#m6bbeb2ac73" x="277.689571" y="277.111219" style="stroke: #000000; stroke-width: 0.8"/>
      </g>
     </g>
     <g id="text_7">
      <!-- 3.6 -->
      <g transform="translate(269.738009 291.709656) scale(0.1 -0.1)">
       <use xlink:href="#DejaVuSans-33"/>
       <use xlink:href="#DejaVuSans-2e" x="63.623047"/>
       <use xlink:href="#DejaVuSans-36" x="95.410156"/>
      </g>
     </g>
    </g>
    <g id="text_8">
     <!-- a1 -->
     <g transform="translate(164.219631 305.387781) scale(0.1 -0.1)">
      <defs>
       <path id="DejaVuSans-61" d="M 2194 1759 
Q 1497 1759 1228 1600 
Q 959 1441 959 1056 
Q 959 750 1161 570 
Q 1363 391 1709 391 
Q 2188 391 2477 730 
Q 2766 1069 2766 1631 
L 2766 1759 
L 2194 1759 
z
M 3341 1997 
L 3341 0 
L 2766 0 
L 2766 531 
Q 2569 213 2275 61 
Q 1981 -91 1556 -91 
Q 1019 -91 701 211 
Q 384 513 384 1019 
Q 384 1609 779 1909 
Q 1175 2209 1959 2209 
L 2766 2209 
L 2766 2266 
Q 2766 2663 2505 2880 
Q 2244 3097 1772 3097 
Q 1472 3097 1187 3025 
Q 903 2953 641 2809 
L 641 3341 
Q 956 3463 1253 3523 
Q 1550 3584 1831 3584 
Q 2591 3584 2966 3190 
Q 3341 2797 3341 1997 
z
" transform="scale(0.015625)"/>
       <path id="DejaVuSans-31" d="M 794 531 
L 1825 531 
L 1825 4091 
L 703 3866 
L 703 4441 
L 1819 4666 
L 2450 4666 
L 2450 531 
L 3481 531 
L 3481 0 
L 794 0 
L 794 531 
z
" transform="scale(0.015625)"/>
      </defs>
      <use xlink:href="#DejaVuSans-61"/>
      <use xlink:href="#DejaVuSans-31" x="61.279297"/>
     </g>
    </g>
   </g>
   <g id="matplotlib.axis_2">
    <g id="ytick_1">
     <g id="line2d_8">
      <defs>
       <path id="mc3447e5fdf" d="M 0 0 
L -3.5 0 
" style="stroke: #000000; stroke-width: 0.8"/>
      </defs>
      <g>
       <use xlink:href="#mc3447e5fdf" x="40.603125" y="248.855437" style="stroke: #000000; stroke-width: 0.8"/>
      </g>
     </g>
     <g id="text_9">
      <!-- 10 -->
      <g transform="translate(20.878125 252.654656) scale(0.1 -0.1)">
       <use xlink:href="#DejaVuSans-31"/>
       <use xlink:href="#DejaVuSans-30" x="63.623047"/>
      </g>
     </g>
    </g>
    <g id="ytick_2">
     <g id="line2d_9">
      <g>
       <use xlink:href="#mc3447e5fdf" x="40.603125" y="191.400282" style="stroke: #000000; stroke-width: 0.8"/>
      </g>
     </g>
     <g id="text_10">
      <!-- 11 -->
      <g transform="translate(20.878125 195.199501) scale(0.1 -0.1)">
       <use xlink:href="#DejaVuSans-31"/>
       <use xlink:href="#DejaVuSans-31" x="63.623047"/>
      </g>
     </g>
    </g>
    <g id="ytick_3">
     <g id="line2d_10">
      <g>
       <use xlink:href="#mc3447e5fdf" x="40.603125" y="133.945126" style="stroke: #000000; stroke-width: 0.8"/>
      </g>
     </g>
     <g id="text_11">
      <!-- 12 -->
      <g transform="translate(20.878125 137.744345) scale(0.1 -0.1)">
       <use xlink:href="#DejaVuSans-31"/>
       <use xlink:href="#DejaVuSans-32" x="63.623047"/>
      </g>
     </g>
    </g>
    <g id="ytick_4">
     <g id="line2d_11">
      <g>
       <use xlink:href="#mc3447e5fdf" x="40.603125" y="76.489971" style="stroke: #000000; stroke-width: 0.8"/>
      </g>
     </g>
     <g id="text_12">
      <!-- 13 -->
      <g transform="translate(20.878125 80.289189) scale(0.1 -0.1)">
       <use xlink:href="#DejaVuSans-31"/>
       <use xlink:href="#DejaVuSans-33" x="63.623047"/>
      </g>
     </g>
    </g>
    <g id="ytick_5">
     <g id="line2d_12">
      <g>
       <use xlink:href="#mc3447e5fdf" x="40.603125" y="19.034815" style="stroke: #000000; stroke-width: 0.8"/>
      </g>
     </g>
     <g id="text_13">
      <!-- 14 -->
      <g transform="translate(20.878125 22.834034) scale(0.1 -0.1)">
       <use xlink:href="#DejaVuSans-31"/>
       <use xlink:href="#DejaVuSans-34" x="63.623047"/>
      </g>
     </g>
    </g>
    <g id="text_14">
     <!-- t2 -->
     <g transform="translate(14.798438 149.196625) rotate(-90) scale(0.1 -0.1)">
      <defs>
       <path id="DejaVuSans-74" d="M 1172 4494 
L 1172 3500 
L 2356 3500 
L 2356 3053 
L 1172 3053 
L 1172 1153 
Q 1172 725 1289 603 
Q 1406 481 1766 481 
L 2356 481 
L 2356 0 
L 1766 0 
Q 1100 0 847 248 
Q 594 497 594 1153 
L 594 3053 
L 172 3053 
L 172 3500 
L 594 3500 
L 594 4494 
L 1172 4494 
z
" transform="scale(0.015625)"/>
      </defs>
      <use xlink:href="#DejaVuSans-74"/>
      <use xlink:href="#DejaVuSans-32" x="39.208984"/>
     </g>
    </g>
   </g>
   <g id="patch_3">
    <path d="M 40.603125 277.111219 
L 40.603125 10.999219 
" style="fill: none; stroke: #000000; stroke-width: 0.8; stroke-linejoin: miter; stroke-linecap: square"/>
   </g>
   <g id="patch_4">
    <path d="M 300.326761 277.111219 
L 300.326761 10.999219 
" style="fill: none; stroke: #000000; stroke-width: 0.8; stroke-linejoin: miter; stroke-linecap: square"/>
   </g>
   <g id="patch_5">
    <path d="M 40.603125 277.111219 
L 300.326761 277.111219 
" style="fill: none; stroke: #000000; stroke-width: 0.8; stroke-linejoin: miter; stroke-linecap: square"/>
   </g>
   <g id="patch_6">
    <path d="M 40.603125 10.999219 
L 300.326761 10.999219 
" style="fill: none; stroke: #000000; stroke-width: 0.8; stroke-linejoin: miter; stroke-linecap: square"/>
   </g>
  </g>
  <g id="axes_2">
   <g id="patch_7">
    <path d="M 430.18858 277.111219 
L 689.912216 277.111219 
L 689.912216 10.999219 
L 430.18858 10.999219 
z
" style="fill: #ffffff"/>
   </g>
   <g id="PathCollection_11">
    <path d="M 555.572404 149.516439 
L 556.435209 148.643357 
L 555.572404 147.74139 
L 554.676809 148.643357 
z
" clip-path="url(#p0c8fe837c1)" style="fill: #471365"/>
    <path d="M 564.528391 140.345624 
L 565.367094 139.467081 
L 564.528391 138.57289 
L 563.653528 139.467081 
z
" clip-path="url(#p0c8fe837c1)" style="fill: #471365"/>
   </g>
   <g id="PathCollection_12">
    <path d="M 546.616417 158.693368 
L 547.502873 157.819633 
L 546.616417 156.858433 
L 545.640018 157.819633 
z
" clip-path="url(#p0c8fe837c1)" style="fill: #463480"/>
    <path d="M 555.572404 150.532754 
L 557.439563 148.643357 
L 555.572404 146.691451 
L 553.634287 148.643357 
z
M 554.676809 148.643357 
L 555.572404 147.74139 
L 556.435209 148.643357 
L 555.572404 149.516439 
z
" clip-path="url(#p0c8fe837c1)" style="fill: #463480"/>
    <path d="M 564.528391 141.375361 
L 566.350135 139.467081 
L 564.528391 137.524811 
L 562.628102 139.467081 
z
M 563.653528 139.467081 
L 564.528391 138.57289 
L 565.367094 139.467081 
L 564.528391 140.345624 
z
" clip-path="url(#p0c8fe837c1)" style="fill: #463480"/>
    <path d="M 573.484379 131.036877 
L 574.181129 130.290805 
L 573.484379 129.500689 
L 572.721939 130.290805 
z
" clip-path="url(#p0c8fe837c1)" style="fill: #463480"/>
   </g>
   <g id="PathCollection_13">
    <path d="M 546.616417 159.80269 
L 548.628347 157.819633 
L 546.616417 155.638063 
L 544.400352 157.819633 
z
M 545.640018 157.819633 
L 546.616417 156.858433 
L 547.502873 157.819633 
L 546.616417 158.693368 
z
" clip-path="url(#p0c8fe837c1)" style="fill: #3b528b"/>
    <path d="M 555.572404 151.54907 
L 558.443916 148.643357 
L 555.572404 145.641511 
L 552.591765 148.643357 
z
M 553.634287 148.643357 
L 555.572404 146.691451 
L 557.439563 148.643357 
L 555.572404 150.532754 
z
" clip-path="url(#p0c8fe837c1)" style="fill: #3b528b"/>
    <path d="M 564.528391 142.405099 
L 567.333176 139.467081 
L 564.528391 136.476732 
L 561.602676 139.467081 
z
M 562.628102 139.467081 
L 564.528391 137.524811 
L 566.350135 139.467081 
L 564.528391 141.375361 
z
" clip-path="url(#p0c8fe837c1)" style="fill: #3b528b"/>
    <path d="M 573.484379 132.19849 
L 575.265951 130.290805 
L 573.484379 128.2705 
L 571.534839 130.290805 
z
M 572.721939 130.290805 
L 573.484379 129.500689 
L 574.181129 130.290805 
L 573.484379 131.036877 
z
" clip-path="url(#p0c8fe837c1)" style="fill: #3b528b"/>
   </g>
   <g id="PathCollection_14">
    <path d="M 537.660429 168.153127 
L 538.842456 166.995908 
L 537.660429 165.544128 
L 536.118109 166.995908 
z
" clip-path="url(#p0c8fe837c1)" style="fill: #2f6c8e"/>
    <path d="M 546.616417 160.912012 
L 549.753821 157.819633 
L 546.616417 154.417693 
L 543.160686 157.819633 
z
M 544.400352 157.819633 
L 546.616417 155.638063 
L 548.628347 157.819633 
L 546.616417 159.80269 
z
" clip-path="url(#p0c8fe837c1)" style="fill: #2f6c8e"/>
    <path d="M 555.572404 152.565386 
L 559.448269 148.643357 
L 555.572404 144.591572 
L 551.549243 148.643357 
z
M 552.591765 148.643357 
L 555.572404 145.641511 
L 558.443916 148.643357 
L 555.572404 151.54907 
z
" clip-path="url(#p0c8fe837c1)" style="fill: #2f6c8e"/>
    <path d="M 564.528391 143.434837 
L 568.316217 139.467081 
L 564.528391 135.428653 
L 560.57725 139.467081 
z
M 561.602676 139.467081 
L 564.528391 136.476732 
L 567.333176 139.467081 
L 564.528391 142.405099 
z
" clip-path="url(#p0c8fe837c1)" style="fill: #2f6c8e"/>
    <path d="M 573.484379 133.360104 
L 576.350773 130.290805 
L 573.484379 127.04031 
L 570.34774 130.290805 
z
M 571.534839 130.290805 
L 573.484379 128.2705 
L 575.265951 130.290805 
L 573.484379 132.19849 
z
" clip-path="url(#p0c8fe837c1)" style="fill: #2f6c8e"/>
    <path d="M 582.440366 121.571164 
L 582.866889 121.114529 
L 582.440366 120.57109 
L 581.92524 121.114529 
z
" clip-path="url(#p0c8fe837c1)" style="fill: #2f6c8e"/>
   </g>
   <g id="PathCollection_15">
    <path d="M 537.660429 169.540862 
L 540.25994 166.995908 
L 537.660429 163.803155 
L 534.268562 166.995908 
z
M 536.118109 166.995908 
L 537.660429 165.544128 
L 538.842456 166.995908 
L 537.660429 168.153127 
z
" clip-path="url(#p0c8fe837c1)" style="fill: #25848e"/>
    <path d="M 546.616417 162.021334 
L 550.879296 157.819633 
L 555.572404 153.581702 
L 560.452622 148.643357 
L 564.528391 144.464575 
L 569.299258 139.467081 
L 573.484379 134.521718 
L 577.435595 130.290805 
L 573.484379 125.810121 
L 569.16064 130.290805 
L 564.528391 134.380574 
L 559.551825 139.467081 
L 555.572404 143.541633 
L 550.506721 148.643357 
L 546.616417 153.197323 
L 541.921019 157.819633 
z
M 543.160686 157.819633 
L 546.616417 154.417693 
L 549.753821 157.819633 
L 546.616417 160.912012 
z
M 551.549243 148.643357 
L 555.572404 144.591572 
L 559.448269 148.643357 
L 555.572404 152.565386 
z
M 560.57725 139.467081 
L 564.528391 135.428653 
L 568.316217 139.467081 
L 564.528391 143.434837 
z
M 570.34774 130.290805 
L 573.484379 127.04031 
L 576.350773 130.290805 
L 573.484379 133.360104 
z
" clip-path="url(#p0c8fe837c1)" style="fill: #25848e"/>
    <path d="M 582.440366 123.124512 
L 584.317801 121.114529 
L 582.440366 118.722459 
L 580.172921 121.114529 
z
M 581.92524 121.114529 
L 582.440366 120.57109 
L 582.866889 121.114529 
L 582.440366 121.571164 
z
" clip-path="url(#p0c8fe837c1)" style="fill: #25848e"/>
   </g>
   <g id="PathCollection_16">
    <path d="M 528.704442 177.024969 
L 529.56836 176.172184 
L 528.704442 174.637334 
L 526.87128 176.172184 
z
" clip-path="url(#p0c8fe837c1)" style="fill: #1e9c89"/>
    <path d="M 537.660429 170.928597 
L 541.677424 166.995908 
L 546.616417 163.130656 
L 552.00477 157.819633 
L 555.572404 154.598018 
L 561.456976 148.643357 
L 564.528391 145.494313 
L 570.282299 139.467081 
L 573.484379 135.683332 
L 578.520416 130.290805 
L 582.440366 124.67786 
L 585.768713 121.114529 
L 582.440366 116.873827 
L 578.420602 121.114529 
L 573.484379 124.579931 
L 567.973541 130.290805 
L 564.528391 133.332495 
L 558.526399 139.467081 
L 555.572404 142.491693 
L 549.464199 148.643357 
L 546.616417 151.976953 
L 540.681353 157.819633 
L 537.660429 162.062182 
L 532.419015 166.995908 
z
M 534.268562 166.995908 
L 537.660429 163.803155 
L 540.25994 166.995908 
L 537.660429 169.540862 
z
M 541.921019 157.819633 
L 546.616417 153.197323 
L 550.506721 148.643357 
L 555.572404 143.541633 
L 559.551825 139.467081 
L 564.528391 134.380574 
L 569.16064 130.290805 
L 573.484379 125.810121 
L 577.435595 130.290805 
L 573.484379 134.521718 
L 569.299258 139.467081 
L 564.528391 144.464575 
L 560.452622 148.643357 
L 555.572404 153.581702 
L 550.879296 157.819633 
L 546.616417 162.021334 
z
M 580.172921 121.114529 
L 582.440366 118.722459 
L 584.317801 121.114529 
L 582.440366 123.124512 
z
" clip-path="url(#p0c8fe837c1)" style="fill: #1e9c89"/>
   </g>
   <g id="PathCollection_17">
    <path d="M 528.704442 179.138967 
L 531.709956 176.172184 
L 537.660429 172.316331 
L 543.094908 166.995908 
L 546.616417 164.239978 
L 553.130244 157.819633 
L 555.572404 155.614334 
L 562.461329 148.643357 
L 564.528391 146.52405 
L 571.26534 139.467081 
L 573.484379 136.844946 
L 579.605238 130.290805 
L 582.440366 126.231208 
L 587.219625 121.114529 
L 582.440366 115.025196 
L 576.668283 121.114529 
L 573.484379 123.349742 
L 566.786442 130.290805 
L 564.528391 132.284416 
L 557.500973 139.467081 
L 555.572404 141.441754 
L 548.421677 148.643357 
L 546.616417 150.756583 
L 539.441687 157.819633 
L 537.660429 160.321209 
L 530.569467 166.995908 
L 528.704442 170.832542 
L 522.326995 176.172184 
z
M 526.87128 176.172184 
L 528.704442 174.637334 
L 529.56836 176.172184 
L 528.704442 177.024969 
z
M 532.419015 166.995908 
L 537.660429 162.062182 
L 540.681353 157.819633 
L 546.616417 151.976953 
L 549.464199 148.643357 
L 555.572404 142.491693 
L 558.526399 139.467081 
L 564.528391 133.332495 
L 567.973541 130.290805 
L 573.484379 124.579931 
L 578.420602 121.114529 
L 582.440366 116.873827 
L 585.768713 121.114529 
L 582.440366 124.67786 
L 578.520416 130.290805 
L 573.484379 135.683332 
L 570.282299 139.467081 
L 564.528391 145.494313 
L 561.456976 148.643357 
L 555.572404 154.598018 
L 552.00477 157.819633 
L 546.616417 163.130656 
L 541.677424 166.995908 
L 537.660429 170.928597 
z
" clip-path="url(#p0c8fe837c1)" style="fill: #2fb47c"/>
    <path d="M 591.396354 113.162179 
L 592.555605 111.938253 
L 591.396354 109.934355 
L 589.518386 111.938253 
z
" clip-path="url(#p0c8fe837c1)" style="fill: #2fb47c"/>
   </g>
   <g id="PathCollection_18">
    <path d="M 501.836479 195.066039 
L 502.590962 194.524736 
L 501.836479 193.973211 
L 501.229093 194.524736 
z
" clip-path="url(#p0c8fe837c1)" style="fill: #5ec962"/>
    <path d="M 510.792467 188.254118 
L 519.748454 186.087102 
L 520.48705 185.34846 
L 528.704442 181.252965 
L 533.851551 176.172184 
L 537.660429 173.704066 
L 544.512392 166.995908 
L 546.616417 165.3493 
L 554.255718 157.819633 
L 555.572404 156.63065 
L 563.465682 148.643357 
L 564.528391 147.553788 
L 572.248381 139.467081 
L 573.484379 138.00656 
L 580.69006 130.290805 
L 582.440366 127.784555 
L 588.670537 121.114529 
L 591.396354 115.924666 
L 595.172118 111.938253 
L 591.396354 105.411413 
L 585.279679 111.938253 
L 582.440366 113.176565 
L 574.915964 121.114529 
L 573.484379 122.119552 
L 565.599342 130.290805 
L 564.528391 131.236337 
L 556.475547 139.467081 
L 555.572404 140.391814 
L 547.379155 148.643357 
L 546.616417 149.536214 
L 538.20202 157.819633 
L 537.660429 158.580237 
L 528.71992 166.995908 
L 528.704442 167.027749 
L 519.748454 174.520547 
L 518.10399 176.172184 
L 510.792467 183.216675 
L 508.610516 185.34846 
z
M 522.326995 176.172184 
L 528.704442 170.832542 
L 530.569467 166.995908 
L 537.660429 160.321209 
L 539.441687 157.819633 
L 546.616417 150.756583 
L 548.421677 148.643357 
L 555.572404 141.441754 
L 557.500973 139.467081 
L 564.528391 132.284416 
L 566.786442 130.290805 
L 573.484379 123.349742 
L 576.668283 121.114529 
L 582.440366 115.025196 
L 587.219625 121.114529 
L 582.440366 126.231208 
L 579.605238 130.290805 
L 573.484379 136.844946 
L 571.26534 139.467081 
L 564.528391 146.52405 
L 562.461329 148.643357 
L 555.572404 155.614334 
L 553.130244 157.819633 
L 546.616417 164.239978 
L 543.094908 166.995908 
L 537.660429 172.316331 
L 531.709956 176.172184 
L 528.704442 179.138967 
z
M 589.518386 111.938253 
L 591.396354 109.934355 
L 592.555605 111.938253 
L 591.396354 113.162179 
z
" clip-path="url(#p0c8fe837c1)" style="fill: #5ec962"/>
   </g>
   <g id="PathCollection_19">
    <path d="M 492.880492 205.035514 
L 494.362032 203.701012 
L 492.880492 201.670532 
L 490.01432 203.701012 
z
" clip-path="url(#p0c8fe837c1)" style="fill: #9bd93c"/>
    <path d="M 501.836479 199.750725 
L 509.120596 194.524736 
L 510.792467 193.246475 
L 519.748454 190.32899 
L 524.728672 185.34846 
L 528.704442 183.366962 
L 535.993147 176.172184 
L 537.660429 175.091801 
L 545.929876 166.995908 
L 546.616417 166.458622 
L 555.381192 157.819633 
L 555.572404 157.646966 
L 564.470036 148.643357 
L 564.528391 148.583526 
L 573.231422 139.467081 
L 573.484379 139.168174 
L 581.774882 130.290805 
L 582.440366 129.337903 
L 590.121449 121.114529 
L 591.396354 118.687153 
L 597.788631 111.938253 
L 600.352341 104.451269 
L 601.975844 102.761977 
L 602.360076 93.585702 
L 600.352341 91.879215 
L 598.707411 93.585702 
L 591.396354 100.048967 
L 588.761347 102.761977 
L 582.440366 109.64976 
L 580.211433 111.938253 
L 573.484379 119.690483 
L 572.095672 121.114529 
L 564.528391 129.471037 
L 563.728357 130.290805 
L 555.572404 138.487169 
L 554.61536 139.467081 
L 546.616417 146.696692 
L 544.713004 148.643357 
L 537.660429 154.501931 
L 534.409289 157.819633 
L 528.704442 162.399612 
L 524.178808 166.995908 
L 519.748454 170.702395 
L 514.302421 176.172184 
L 510.792467 179.553947 
L 504.861597 185.34846 
L 501.836479 189.20006 
L 495.972491 194.524736 
z
M 501.229093 194.524736 
L 501.836479 193.973211 
L 502.590962 194.524736 
L 501.836479 195.066039 
z
M 508.610516 185.34846 
L 510.792467 183.216675 
L 518.10399 176.172184 
L 519.748454 174.520547 
L 528.704442 167.027749 
L 528.71992 166.995908 
L 537.660429 158.580237 
L 538.20202 157.819633 
L 546.616417 149.536214 
L 547.379155 148.643357 
L 555.572404 140.391814 
L 556.475547 139.467081 
L 564.528391 131.236337 
L 565.599342 130.290805 
L 573.484379 122.119552 
L 574.915964 121.114529 
L 582.440366 113.176565 
L 585.279679 111.938253 
L 591.396354 105.411413 
L 595.172118 111.938253 
L 591.396354 115.924666 
L 588.670537 121.114529 
L 582.440366 127.784555 
L 580.69006 130.290805 
L 573.484379 138.00656 
L 572.248381 139.467081 
L 564.528391 147.553788 
L 563.465682 148.643357 
L 555.572404 156.63065 
L 554.255718 157.819633 
L 546.616417 165.3493 
L 544.512392 166.995908 
L 537.660429 173.704066 
L 533.851551 176.172184 
L 528.704442 181.252965 
L 520.48705 185.34846 
L 519.748454 186.087102 
L 510.792467 188.254118 
z
" clip-path="url(#p0c8fe837c1)" style="fill: #9bd93c"/>
   </g>
   <g id="PathCollection_20">
    <path d="M 439.144567 277.111219 
L 448.100554 277.111219 
L 457.056542 277.111219 
L 466.012529 277.111219 
L 474.968517 277.111219 
L 483.924504 277.111219 
L 492.880492 277.111219 
L 501.836479 277.111219 
L 510.792467 277.111219 
L 519.748454 277.111219 
L 528.704442 277.111219 
L 537.660429 277.111219 
L 546.616417 277.111219 
L 555.572404 277.111219 
L 564.528391 277.111219 
L 573.484379 277.111219 
L 582.440366 277.111219 
L 591.396354 277.111219 
L 600.352341 277.111219 
L 609.308329 277.111219 
L 618.264316 277.111219 
L 627.220304 277.111219 
L 636.176291 277.111219 
L 645.132279 277.111219 
L 654.088266 277.111219 
L 663.044254 277.111219 
L 672.000241 277.111219 
L 680.956228 277.111219 
L 689.912216 277.111219 
L 689.912216 267.934943 
L 689.912216 258.758667 
L 689.912216 249.582391 
L 689.912216 240.406115 
L 689.912216 231.229839 
L 689.912216 222.053564 
L 689.912216 212.877288 
L 689.912216 203.701012 
L 689.912216 194.524736 
L 689.912216 185.34846 
L 689.912216 176.172184 
L 689.912216 166.995908 
L 689.912216 157.819633 
L 689.912216 148.643357 
L 689.912216 139.467081 
L 689.912216 130.290805 
L 689.912216 121.114529 
L 689.912216 111.938253 
L 689.912216 102.761977 
L 689.912216 93.585702 
L 689.912216 84.409426 
L 689.912216 75.23315 
L 689.912216 66.056874 
L 689.912216 56.880598 
L 689.912216 47.704322 
L 689.912216 38.528046 
L 689.912216 29.35177 
L 689.912216 20.175495 
L 689.912216 10.999219 
L 680.956228 10.999219 
L 672.000241 10.999219 
L 663.044254 10.999219 
L 654.088266 10.999219 
L 645.132279 10.999219 
L 636.176291 10.999219 
L 627.220304 10.999219 
L 618.264316 10.999219 
L 609.308329 10.999219 
L 600.352341 10.999219 
L 591.396354 10.999219 
L 582.440366 10.999219 
L 573.484379 10.999219 
L 564.528391 10.999219 
L 555.572404 10.999219 
L 546.616417 10.999219 
L 537.660429 10.999219 
L 528.704442 10.999219 
L 519.748454 10.999219 
L 510.792467 10.999219 
L 501.836479 10.999219 
L 492.880492 10.999219 
L 483.924504 10.999219 
L 474.968517 10.999219 
L 466.012529 10.999219 
L 457.056542 10.999219 
L 448.100554 10.999219 
L 439.144567 10.999219 
L 430.18858 10.999219 
L 430.18858 20.175495 
L 430.18858 29.35177 
L 430.18858 38.528046 
L 430.18858 47.704322 
L 430.18858 56.880598 
L 430.18858 66.056874 
L 430.18858 75.23315 
L 430.18858 84.409426 
L 430.18858 93.585702 
L 430.18858 102.761977 
L 430.18858 111.938253 
L 430.18858 121.114529 
L 430.18858 130.290805 
L 430.18858 139.467081 
L 430.18858 148.643357 
L 430.18858 157.819633 
L 430.18858 166.995908 
L 430.18858 176.172184 
L 430.18858 185.34846 
L 430.18858 194.524736 
L 430.18858 203.701012 
L 430.18858 212.877288 
L 430.18858 222.053564 
L 430.18858 231.229839 
L 430.18858 240.406115 
L 430.18858 249.582391 
L 430.18858 258.758667 
L 430.18858 267.934943 
L 430.18858 277.111219 
z
M 490.01432 203.701012 
L 492.880492 201.670532 
L 494.362032 203.701012 
L 492.880492 205.035514 
z
M 495.972491 194.524736 
L 501.836479 189.20006 
L 504.861597 185.34846 
L 510.792467 179.553947 
L 514.302421 176.172184 
L 519.748454 170.702395 
L 524.178808 166.995908 
L 528.704442 162.399612 
L 534.409289 157.819633 
L 537.660429 154.501931 
L 544.713004 148.643357 
L 546.616417 146.696692 
L 554.61536 139.467081 
L 555.572404 138.487169 
L 563.728357 130.290805 
L 564.528391 129.471037 
L 572.095672 121.114529 
L 573.484379 119.690483 
L 580.211433 111.938253 
L 582.440366 109.64976 
L 588.761347 102.761977 
L 591.396354 100.048967 
L 598.707411 93.585702 
L 600.352341 91.879215 
L 602.360076 93.585702 
L 601.975844 102.761977 
L 600.352341 104.451269 
L 597.788631 111.938253 
L 591.396354 118.687153 
L 590.121449 121.114529 
L 582.440366 129.337903 
L 581.774882 130.290805 
L 573.484379 139.168174 
L 573.231422 139.467081 
L 564.528391 148.583526 
L 564.470036 148.643357 
L 555.572404 157.646966 
L 555.381192 157.819633 
L 546.616417 166.458622 
L 545.929876 166.995908 
L 537.660429 175.091801 
L 535.993147 176.172184 
L 528.704442 183.366962 
L 524.728672 185.34846 
L 519.748454 190.32899 
L 510.792467 193.246475 
L 509.120596 194.524736 
L 501.836479 199.750725 
z
" clip-path="url(#p0c8fe837c1)" style="fill: #dfe318"/>
   </g>
   <g id="matplotlib.axis_3">
    <g id="xtick_8">
     <g id="line2d_13">
      <g>
       <use xlink:href="#m6bbeb2ac73" x="455.34161" y="277.111219" style="stroke: #000000; stroke-width: 0.8"/>
      </g>
     </g>
     <g id="text_15">
      <!-- −4.8 -->
      <g transform="translate(443.200203 291.709656) scale(0.1 -0.1)">
       <defs>
        <path id="DejaVuSans-2212" d="M 678 2272 
L 4684 2272 
L 4684 1741 
L 678 1741 
L 678 2272 
z
" transform="scale(0.015625)"/>
       </defs>
       <use xlink:href="#DejaVuSans-2212"/>
       <use xlink:href="#DejaVuSans-34" x="83.789062"/>
       <use xlink:href="#DejaVuSans-2e" x="147.412109"/>
       <use xlink:href="#DejaVuSans-38" x="179.199219"/>
      </g>
     </g>
    </g>
    <g id="xtick_9">
     <g id="line2d_14">
      <g>
       <use xlink:href="#m6bbeb2ac73" x="500.40316" y="277.111219" style="stroke: #000000; stroke-width: 0.8"/>
      </g>
     </g>
     <g id="text_16">
      <!-- −4.6 -->
      <g transform="translate(488.261754 291.709656) scale(0.1 -0.1)">
       <use xlink:href="#DejaVuSans-2212"/>
       <use xlink:href="#DejaVuSans-34" x="83.789062"/>
       <use xlink:href="#DejaVuSans-2e" x="147.412109"/>
       <use xlink:href="#DejaVuSans-36" x="179.199219"/>
      </g>
     </g>
    </g>
    <g id="xtick_10">
     <g id="line2d_15">
      <g>
       <use xlink:href="#m6bbeb2ac73" x="545.464711" y="277.111219" style="stroke: #000000; stroke-width: 0.8"/>
      </g>
     </g>
     <g id="text_17">
      <!-- −4.4 -->
      <g transform="translate(533.323304 291.709656) scale(0.1 -0.1)">
       <use xlink:href="#DejaVuSans-2212"/>
       <use xlink:href="#DejaVuSans-34" x="83.789062"/>
       <use xlink:href="#DejaVuSans-2e" x="147.412109"/>
       <use xlink:href="#DejaVuSans-34" x="179.199219"/>
      </g>
     </g>
    </g>
    <g id="xtick_11">
     <g id="line2d_16">
      <g>
       <use xlink:href="#m6bbeb2ac73" x="590.526261" y="277.111219" style="stroke: #000000; stroke-width: 0.8"/>
      </g>
     </g>
     <g id="text_18">
      <!-- −4.2 -->
      <g transform="translate(578.384855 291.709656) scale(0.1 -0.1)">
       <use xlink:href="#DejaVuSans-2212"/>
       <use xlink:href="#DejaVuSans-34" x="83.789062"/>
       <use xlink:href="#DejaVuSans-2e" x="147.412109"/>
       <use xlink:href="#DejaVuSans-32" x="179.199219"/>
      </g>
     </g>
    </g>
    <g id="xtick_12">
     <g id="line2d_17">
      <g>
       <use xlink:href="#m6bbeb2ac73" x="635.587812" y="277.111219" style="stroke: #000000; stroke-width: 0.8"/>
      </g>
     </g>
     <g id="text_19">
      <!-- −4.0 -->
      <g transform="translate(623.446405 291.709656) scale(0.1 -0.1)">
       <use xlink:href="#DejaVuSans-2212"/>
       <use xlink:href="#DejaVuSans-34" x="83.789062"/>
       <use xlink:href="#DejaVuSans-2e" x="147.412109"/>
       <use xlink:href="#DejaVuSans-30" x="179.199219"/>
      </g>
     </g>
    </g>
    <g id="xtick_13">
     <g id="line2d_18">
      <g>
       <use xlink:href="#m6bbeb2ac73" x="680.649362" y="277.111219" style="stroke: #000000; stroke-width: 0.8"/>
      </g>
     </g>
     <g id="text_20">
      <!-- −3.8 -->
      <g transform="translate(668.507956 291.709656) scale(0.1 -0.1)">
       <use xlink:href="#DejaVuSans-2212"/>
       <use xlink:href="#DejaVuSans-33" x="83.789062"/>
       <use xlink:href="#DejaVuSans-2e" x="147.412109"/>
       <use xlink:href="#DejaVuSans-38" x="179.199219"/>
      </g>
     </g>
    </g>
    <g id="text_21">
     <!-- a2 -->
     <g transform="translate(553.805085 305.387781) scale(0.1 -0.1)">
      <use xlink:href="#DejaVuSans-61"/>
      <use xlink:href="#DejaVuSans-32" x="61.279297"/>
     </g>
    </g>
   </g>
   <g id="matplotlib.axis_4">
    <g id="ytick_6">
     <g id="line2d_19">
      <g>
       <use xlink:href="#mc3447e5fdf" x="430.18858" y="248.855437" style="stroke: #000000; stroke-width: 0.8"/>
      </g>
     </g>
     <g id="text_22">
      <!-- 10 -->
      <g transform="translate(410.46358 252.654656) scale(0.1 -0.1)">
       <use xlink:href="#DejaVuSans-31"/>
       <use xlink:href="#DejaVuSans-30" x="63.623047"/>
      </g>
     </g>
    </g>
    <g id="ytick_7">
     <g id="line2d_20">
      <g>
       <use xlink:href="#mc3447e5fdf" x="430.18858" y="191.400282" style="stroke: #000000; stroke-width: 0.8"/>
      </g>
     </g>
     <g id="text_23">
      <!-- 11 -->
      <g transform="translate(410.46358 195.199501) scale(0.1 -0.1)">
       <use xlink:href="#DejaVuSans-31"/>
       <use xlink:href="#DejaVuSans-31" x="63.623047"/>
      </g>
     </g>
    </g>
    <g id="ytick_8">
     <g id="line2d_21">
      <g>
       <use xlink:href="#mc3447e5fdf" x="430.18858" y="133.945126" style="stroke: #000000; stroke-width: 0.8"/>
      </g>
     </g>
     <g id="text_24">
      <!-- 12 -->
      <g transform="translate(410.46358 137.744345) scale(0.1 -0.1)">
       <use xlink:href="#DejaVuSans-31"/>
       <use xlink:href="#DejaVuSans-32" x="63.623047"/>
      </g>
     </g>
    </g>
    <g id="ytick_9">
     <g id="line2d_22">
      <g>
       <use xlink:href="#mc3447e5fdf" x="430.18858" y="76.489971" style="stroke: #000000; stroke-width: 0.8"/>
      </g>
     </g>
     <g id="text_25">
      <!-- 13 -->
      <g transform="translate(410.46358 80.289189) scale(0.1 -0.1)">
       <use xlink:href="#DejaVuSans-31"/>
       <use xlink:href="#DejaVuSans-33" x="63.623047"/>
      </g>
     </g>
    </g>
    <g id="ytick_10">
     <g id="line2d_23">
      <g>
       <use xlink:href="#mc3447e5fdf" x="430.18858" y="19.034815" style="stroke: #000000; stroke-width: 0.8"/>
      </g>
     </g>
     <g id="text_26">
      <!-- 14 -->
      <g transform="translate(410.46358 22.834034) scale(0.1 -0.1)">
       <use xlink:href="#DejaVuSans-31"/>
       <use xlink:href="#DejaVuSans-34" x="63.623047"/>
      </g>
     </g>
    </g>
    <g id="text_27">
     <!-- t2 -->
     <g transform="translate(404.383892 149.196625) rotate(-90) scale(0.1 -0.1)">
      <use xlink:href="#DejaVuSans-74"/>
      <use xlink:href="#DejaVuSans-32" x="39.208984"/>
     </g>
    </g>
   </g>
   <g id="patch_8">
    <path d="M 430.18858 277.111219 
L 430.18858 10.999219 
" style="fill: none; stroke: #000000; stroke-width: 0.8; stroke-linejoin: miter; stroke-linecap: square"/>
   </g>
   <g id="patch_9">
    <path d="M 689.912216 277.111219 
L 689.912216 10.999219 
" style="fill: none; stroke: #000000; stroke-width: 0.8; stroke-linejoin: miter; stroke-linecap: square"/>
   </g>
   <g id="patch_10">
    <path d="M 430.18858 277.111219 
L 689.912216 277.111219 
" style="fill: none; stroke: #000000; stroke-width: 0.8; stroke-linejoin: miter; stroke-linecap: square"/>
   </g>
   <g id="patch_11">
    <path d="M 430.18858 10.999219 
L 689.912216 10.999219 
" style="fill: none; stroke: #000000; stroke-width: 0.8; stroke-linejoin: miter; stroke-linecap: square"/>
   </g>
  </g>
  <g id="axes_3">
   <g id="patch_12">
    <path d="M 316.559489 277.111219 
L 329.865089 277.111219 
L 329.865089 10.999219 
L 316.559489 10.999219 
z
" style="fill: #ffffff"/>
   </g>
   <g id="patch_13">
    <path clip-path="url(#peffa294131)" style="fill: #ffffff; stroke: #ffffff; stroke-width: 0.01; stroke-linejoin: miter"/>
   </g>
   <g id="QuadMesh_1">
    <path d="M 316.559489 277.111219 
L 329.865089 277.111219 
L 329.865089 250.500019 
L 316.559489 250.500019 
L 316.559489 277.111219 
" clip-path="url(#peffa294131)" style="fill: #471365"/>
    <path d="M 316.559489 250.500019 
L 329.865089 250.500019 
L 329.865089 223.888819 
L 316.559489 223.888819 
L 316.559489 250.500019 
" clip-path="url(#peffa294131)" style="fill: #463480"/>
    <path d="M 316.559489 223.888819 
L 329.865089 223.888819 
L 329.865089 197.277619 
L 316.559489 197.277619 
L 316.559489 223.888819 
" clip-path="url(#peffa294131)" style="fill: #3b528b"/>
    <path d="M 316.559489 197.277619 
L 329.865089 197.277619 
L 329.865089 170.666419 
L 316.559489 170.666419 
L 316.559489 197.277619 
" clip-path="url(#peffa294131)" style="fill: #2f6c8e"/>
    <path d="M 316.559489 170.666419 
L 329.865089 170.666419 
L 329.865089 144.055219 
L 316.559489 144.055219 
L 316.559489 170.666419 
" clip-path="url(#peffa294131)" style="fill: #25848e"/>
    <path d="M 316.559489 144.055219 
L 329.865089 144.055219 
L 329.865089 117.444019 
L 316.559489 117.444019 
L 316.559489 144.055219 
" clip-path="url(#peffa294131)" style="fill: #1e9c89"/>
    <path d="M 316.559489 117.444019 
L 329.865089 117.444019 
L 329.865089 90.832819 
L 316.559489 90.832819 
L 316.559489 117.444019 
" clip-path="url(#peffa294131)" style="fill: #2fb47c"/>
    <path d="M 316.559489 90.832819 
L 329.865089 90.832819 
L 329.865089 64.221619 
L 316.559489 64.221619 
L 316.559489 90.832819 
" clip-path="url(#peffa294131)" style="fill: #5ec962"/>
    <path d="M 316.559489 64.221619 
L 329.865089 64.221619 
L 329.865089 37.610419 
L 316.559489 37.610419 
L 316.559489 64.221619 
" clip-path="url(#peffa294131)" style="fill: #9bd93c"/>
    <path d="M 316.559489 37.610419 
L 329.865089 37.610419 
L 329.865089 10.999219 
L 316.559489 10.999219 
L 316.559489 37.610419 
" clip-path="url(#peffa294131)" style="fill: #dfe318"/>
   </g>
   <g id="matplotlib.axis_5"/>
   <g id="matplotlib.axis_6">
    <g id="ytick_11">
     <g id="line2d_24">
      <defs>
       <path id="m236b03a4b0" d="M 0 0 
L 3.5 0 
" style="stroke: #000000; stroke-width: 0.8"/>
      </defs>
      <g>
       <use xlink:href="#m236b03a4b0" x="329.865089" y="277.111219" style="stroke: #000000; stroke-width: 0.8"/>
      </g>
     </g>
     <g id="text_28">
      <!-- 0.0 -->
      <g transform="translate(336.865089 280.910437) scale(0.1 -0.1)">
       <use xlink:href="#DejaVuSans-30"/>
       <use xlink:href="#DejaVuSans-2e" x="63.623047"/>
       <use xlink:href="#DejaVuSans-30" x="95.410156"/>
      </g>
     </g>
    </g>
    <g id="ytick_12">
     <g id="line2d_25">
      <g>
       <use xlink:href="#m236b03a4b0" x="329.865089" y="223.888819" style="stroke: #000000; stroke-width: 0.8"/>
      </g>
     </g>
     <g id="text_29">
      <!-- 0.2 -->
      <g transform="translate(336.865089 227.688037) scale(0.1 -0.1)">
       <use xlink:href="#DejaVuSans-30"/>
       <use xlink:href="#DejaVuSans-2e" x="63.623047"/>
       <use xlink:href="#DejaVuSans-32" x="95.410156"/>
      </g>
     </g>
    </g>
    <g id="ytick_13">
     <g id="line2d_26">
      <g>
       <use xlink:href="#m236b03a4b0" x="329.865089" y="170.666419" style="stroke: #000000; stroke-width: 0.8"/>
      </g>
     </g>
     <g id="text_30">
      <!-- 0.4 -->
      <g transform="translate(336.865089 174.465637) scale(0.1 -0.1)">
       <use xlink:href="#DejaVuSans-30"/>
       <use xlink:href="#DejaVuSans-2e" x="63.623047"/>
       <use xlink:href="#DejaVuSans-34" x="95.410156"/>
      </g>
     </g>
    </g>
    <g id="ytick_14">
     <g id="line2d_27">
      <g>
       <use xlink:href="#m236b03a4b0" x="329.865089" y="117.444019" style="stroke: #000000; stroke-width: 0.8"/>
      </g>
     </g>
     <g id="text_31">
      <!-- 0.6 -->
      <g transform="translate(336.865089 121.243237) scale(0.1 -0.1)">
       <use xlink:href="#DejaVuSans-30"/>
       <use xlink:href="#DejaVuSans-2e" x="63.623047"/>
       <use xlink:href="#DejaVuSans-36" x="95.410156"/>
      </g>
     </g>
    </g>
    <g id="ytick_15">
     <g id="line2d_28">
      <g>
       <use xlink:href="#m236b03a4b0" x="329.865089" y="64.221619" style="stroke: #000000; stroke-width: 0.8"/>
      </g>
     </g>
     <g id="text_32">
      <!-- 0.8 -->
      <g transform="translate(336.865089 68.020837) scale(0.1 -0.1)">
       <use xlink:href="#DejaVuSans-30"/>
       <use xlink:href="#DejaVuSans-2e" x="63.623047"/>
       <use xlink:href="#DejaVuSans-38" x="95.410156"/>
      </g>
     </g>
    </g>
    <g id="ytick_16">
     <g id="line2d_29">
      <g>
       <use xlink:href="#m236b03a4b0" x="329.865089" y="10.999219" style="stroke: #000000; stroke-width: 0.8"/>
      </g>
     </g>
     <g id="text_33">
      <!-- 1.0 -->
      <g transform="translate(336.865089 14.798437) scale(0.1 -0.1)">
       <use xlink:href="#DejaVuSans-31"/>
       <use xlink:href="#DejaVuSans-2e" x="63.623047"/>
       <use xlink:href="#DejaVuSans-30" x="95.410156"/>
      </g>
     </g>
    </g>
   </g>
   <g id="LineCollection_1"/>
   <g id="patch_14">
    <path d="M 316.559489 277.111219 
L 323.212289 277.111219 
L 329.865089 277.111219 
L 329.865089 10.999219 
L 323.212289 10.999219 
L 316.559489 10.999219 
L 316.559489 277.111219 
z
" style="fill: none; stroke: #000000; stroke-width: 0.8; stroke-linejoin: miter; stroke-linecap: square"/>
   </g>
  </g>
  <g id="axes_4">
   <g id="patch_15">
    <path d="M 706.144943 277.111219 
L 719.450543 277.111219 
L 719.450543 10.999219 
L 706.144943 10.999219 
z
" style="fill: #ffffff"/>
   </g>
   <g id="patch_16">
    <path clip-path="url(#p095736cab6)" style="fill: #ffffff; stroke: #ffffff; stroke-width: 0.01; stroke-linejoin: miter"/>
   </g>
   <g id="QuadMesh_2">
    <path d="M 706.144943 277.111219 
L 719.450543 277.111219 
L 719.450543 250.500019 
L 706.144943 250.500019 
L 706.144943 277.111219 
" clip-path="url(#p095736cab6)" style="fill: #471365"/>
    <path d="M 706.144943 250.500019 
L 719.450543 250.500019 
L 719.450543 223.888819 
L 706.144943 223.888819 
L 706.144943 250.500019 
" clip-path="url(#p095736cab6)" style="fill: #463480"/>
    <path d="M 706.144943 223.888819 
L 719.450543 223.888819 
L 719.450543 197.277619 
L 706.144943 197.277619 
L 706.144943 223.888819 
" clip-path="url(#p095736cab6)" style="fill: #3b528b"/>
    <path d="M 706.144943 197.277619 
L 719.450543 197.277619 
L 719.450543 170.666419 
L 706.144943 170.666419 
L 706.144943 197.277619 
" clip-path="url(#p095736cab6)" style="fill: #2f6c8e"/>
    <path d="M 706.144943 170.666419 
L 719.450543 170.666419 
L 719.450543 144.055219 
L 706.144943 144.055219 
L 706.144943 170.666419 
" clip-path="url(#p095736cab6)" style="fill: #25848e"/>
    <path d="M 706.144943 144.055219 
L 719.450543 144.055219 
L 719.450543 117.444019 
L 706.144943 117.444019 
L 706.144943 144.055219 
" clip-path="url(#p095736cab6)" style="fill: #1e9c89"/>
    <path d="M 706.144943 117.444019 
L 719.450543 117.444019 
L 719.450543 90.832819 
L 706.144943 90.832819 
L 706.144943 117.444019 
" clip-path="url(#p095736cab6)" style="fill: #2fb47c"/>
    <path d="M 706.144943 90.832819 
L 719.450543 90.832819 
L 719.450543 64.221619 
L 706.144943 64.221619 
L 706.144943 90.832819 
" clip-path="url(#p095736cab6)" style="fill: #5ec962"/>
    <path d="M 706.144943 64.221619 
L 719.450543 64.221619 
L 719.450543 37.610419 
L 706.144943 37.610419 
L 706.144943 64.221619 
" clip-path="url(#p095736cab6)" style="fill: #9bd93c"/>
    <path d="M 706.144943 37.610419 
L 719.450543 37.610419 
L 719.450543 10.999219 
L 706.144943 10.999219 
L 706.144943 37.610419 
" clip-path="url(#p095736cab6)" style="fill: #dfe318"/>
   </g>
   <g id="matplotlib.axis_7"/>
   <g id="matplotlib.axis_8">
    <g id="ytick_17">
     <g id="line2d_30">
      <g>
       <use xlink:href="#m236b03a4b0" x="719.450543" y="277.111219" style="stroke: #000000; stroke-width: 0.8"/>
      </g>
     </g>
     <g id="text_34">
      <!-- 0.0 -->
      <g transform="translate(726.450543 280.910437) scale(0.1 -0.1)">
       <use xlink:href="#DejaVuSans-30"/>
       <use xlink:href="#DejaVuSans-2e" x="63.623047"/>
       <use xlink:href="#DejaVuSans-30" x="95.410156"/>
      </g>
     </g>
    </g>
    <g id="ytick_18">
     <g id="line2d_31">
      <g>
       <use xlink:href="#m236b03a4b0" x="719.450543" y="223.888819" style="stroke: #000000; stroke-width: 0.8"/>
      </g>
     </g>
     <g id="text_35">
      <!-- 0.2 -->
      <g transform="translate(726.450543 227.688037) scale(0.1 -0.1)">
       <use xlink:href="#DejaVuSans-30"/>
       <use xlink:href="#DejaVuSans-2e" x="63.623047"/>
       <use xlink:href="#DejaVuSans-32" x="95.410156"/>
      </g>
     </g>
    </g>
    <g id="ytick_19">
     <g id="line2d_32">
      <g>
       <use xlink:href="#m236b03a4b0" x="719.450543" y="170.666419" style="stroke: #000000; stroke-width: 0.8"/>
      </g>
     </g>
     <g id="text_36">
      <!-- 0.4 -->
      <g transform="translate(726.450543 174.465637) scale(0.1 -0.1)">
       <use xlink:href="#DejaVuSans-30"/>
       <use xlink:href="#DejaVuSans-2e" x="63.623047"/>
       <use xlink:href="#DejaVuSans-34" x="95.410156"/>
      </g>
     </g>
    </g>
    <g id="ytick_20">
     <g id="line2d_33">
      <g>
       <use xlink:href="#m236b03a4b0" x="719.450543" y="117.444019" style="stroke: #000000; stroke-width: 0.8"/>
      </g>
     </g>
     <g id="text_37">
      <!-- 0.6 -->
      <g transform="translate(726.450543 121.243237) scale(0.1 -0.1)">
       <use xlink:href="#DejaVuSans-30"/>
       <use xlink:href="#DejaVuSans-2e" x="63.623047"/>
       <use xlink:href="#DejaVuSans-36" x="95.410156"/>
      </g>
     </g>
    </g>
    <g id="ytick_21">
     <g id="line2d_34">
      <g>
       <use xlink:href="#m236b03a4b0" x="719.450543" y="64.221619" style="stroke: #000000; stroke-width: 0.8"/>
      </g>
     </g>
     <g id="text_38">
      <!-- 0.8 -->
      <g transform="translate(726.450543 68.020837) scale(0.1 -0.1)">
       <use xlink:href="#DejaVuSans-30"/>
       <use xlink:href="#DejaVuSans-2e" x="63.623047"/>
       <use xlink:href="#DejaVuSans-38" x="95.410156"/>
      </g>
     </g>
    </g>
    <g id="ytick_22">
     <g id="line2d_35">
      <g>
       <use xlink:href="#m236b03a4b0" x="719.450543" y="10.999219" style="stroke: #000000; stroke-width: 0.8"/>
      </g>
     </g>
     <g id="text_39">
      <!-- 1.0 -->
      <g transform="translate(726.450543 14.798437) scale(0.1 -0.1)">
       <use xlink:href="#DejaVuSans-31"/>
       <use xlink:href="#DejaVuSans-2e" x="63.623047"/>
       <use xlink:href="#DejaVuSans-30" x="95.410156"/>
      </g>
     </g>
    </g>
   </g>
   <g id="LineCollection_2"/>
   <g id="patch_17">
    <path d="M 706.144943 277.111219 
L 712.797743 277.111219 
L 719.450543 277.111219 
L 719.450543 10.999219 
L 712.797743 10.999219 
L 706.144943 10.999219 
L 706.144943 277.111219 
z
" style="fill: none; stroke: #000000; stroke-width: 0.8; stroke-linejoin: miter; stroke-linecap: square"/>
   </g>
  </g>
 </g>
 <defs>
  <clipPath id="p971a93b880">
   <rect x="40.603125" y="10.999219" width="259.723636" height="266.112"/>
  </clipPath>
  <clipPath id="p0c8fe837c1">
   <rect x="430.18858" y="10.999219" width="259.723636" height="266.112"/>
  </clipPath>
  <clipPath id="peffa294131">
   <rect x="316.559489" y="10.999219" width="13.3056" height="266.112"/>
  </clipPath>
  <clipPath id="p095736cab6">
   <rect x="706.144943" y="10.999219" width="13.3056" height="266.112"/>
  </clipPath>
 </defs>
</svg>
