<?xml version="1.0" encoding="utf-8" standalone="no"?>
<!DOCTYPE svg PUBLIC "-//W3C//DTD SVG 1.1//EN"
  "http://www.w3.org/Graphics/SVG/1.1/DTD/svg11.dtd">
<!-- Created with matplotlib (https://matplotlib.org/) -->
<svg height="248.518125pt" version="1.1" viewBox="0 0 380.482812 248.518125" width="380.482812pt" xmlns="http://www.w3.org/2000/svg" xmlns:xlink="http://www.w3.org/1999/xlink">
 <metadata>
  <rdf:RDF xmlns:cc="http://creativecommons.org/ns#" xmlns:dc="http://purl.org/dc/elements/1.1/" xmlns:rdf="http://www.w3.org/1999/02/22-rdf-syntax-ns#">
   <cc:Work>
    <dc:type rdf:resource="http://purl.org/dc/dcmitype/StillImage"/>
    <dc:date>2021-02-11T19:39:49.066745</dc:date>
    <dc:format>image/svg+xml</dc:format>
    <dc:creator>
     <cc:Agent>
      <dc:title>Matplotlib v3.3.4, https://matplotlib.org/</dc:title>
     </cc:Agent>
    </dc:creator>
   </cc:Work>
  </rdf:RDF>
 </metadata>
 <defs>
  <style type="text/css">*{stroke-linecap:butt;stroke-linejoin:round;}</style>
 </defs>
 <g id="figure_1">
  <g id="patch_1">
   <path d="M -0 248.518125 
L 380.482812 248.518125 
L 380.482812 0 
L -0 0 
z
" style="fill:none;"/>
  </g>
  <g id="axes_1">
   <g id="patch_2">
    <path d="M 38.482813 224.64 
L 373.282813 224.64 
L 373.282813 7.2 
L 38.482813 7.2 
z
" style="fill:#ffffff;"/>
   </g>
   <g id="matplotlib.axis_1">
    <g id="xtick_1">
     <g id="line2d_1">
      <defs>
       <path d="M 0 0 
L 0 3.5 
" id="m44d3312d50" style="stroke:#000000;stroke-width:0.8;"/>
      </defs>
      <g>
       <use style="stroke:#000000;stroke-width:0.8;" x="87.519176" xlink:href="#m44d3312d50" y="224.64"/>
      </g>
     </g>
     <g id="text_1">
      <!-- 2 -->
      <g transform="translate(84.337926 239.238438)scale(0.1 -0.1)">
       <defs>
        <path d="M 19.1875 8.296875 
L 53.609375 8.296875 
L 53.609375 0 
L 7.328125 0 
L 7.328125 8.296875 
Q 12.9375 14.109375 22.625 23.890625 
Q 32.328125 33.6875 34.8125 36.53125 
Q 39.546875 41.84375 41.421875 45.53125 
Q 43.3125 49.21875 43.3125 52.78125 
Q 43.3125 58.59375 39.234375 62.25 
Q 35.15625 65.921875 28.609375 65.921875 
Q 23.96875 65.921875 18.8125 64.3125 
Q 13.671875 62.703125 7.8125 59.421875 
L 7.8125 69.390625 
Q 13.765625 71.78125 18.9375 73 
Q 24.125 74.21875 28.421875 74.21875 
Q 39.75 74.21875 46.484375 68.546875 
Q 53.21875 62.890625 53.21875 53.421875 
Q 53.21875 48.921875 51.53125 44.890625 
Q 49.859375 40.875 45.40625 35.40625 
Q 44.1875 33.984375 37.640625 27.21875 
Q 31.109375 20.453125 19.1875 8.296875 
z
" id="DejaVuSans-50"/>
       </defs>
       <use xlink:href="#DejaVuSans-50"/>
      </g>
     </g>
    </g>
    <g id="xtick_2">
     <g id="line2d_2">
      <g>
       <use style="stroke:#000000;stroke-width:0.8;" x="155.15554" xlink:href="#m44d3312d50" y="224.64"/>
      </g>
     </g>
     <g id="text_2">
      <!-- 4 -->
      <g transform="translate(151.97429 239.238438)scale(0.1 -0.1)">
       <defs>
        <path d="M 37.796875 64.3125 
L 12.890625 25.390625 
L 37.796875 25.390625 
z
M 35.203125 72.90625 
L 47.609375 72.90625 
L 47.609375 25.390625 
L 58.015625 25.390625 
L 58.015625 17.1875 
L 47.609375 17.1875 
L 47.609375 0 
L 37.796875 0 
L 37.796875 17.1875 
L 4.890625 17.1875 
L 4.890625 26.703125 
z
" id="DejaVuSans-52"/>
       </defs>
       <use xlink:href="#DejaVuSans-52"/>
      </g>
     </g>
    </g>
    <g id="xtick_3">
     <g id="line2d_3">
      <g>
       <use style="stroke:#000000;stroke-width:0.8;" x="222.791903" xlink:href="#m44d3312d50" y="224.64"/>
      </g>
     </g>
     <g id="text_3">
      <!-- 6 -->
      <g transform="translate(219.610653 239.238438)scale(0.1 -0.1)">
       <defs>
        <path d="M 33.015625 40.375 
Q 26.375 40.375 22.484375 35.828125 
Q 18.609375 31.296875 18.609375 23.390625 
Q 18.609375 15.53125 22.484375 10.953125 
Q 26.375 6.390625 33.015625 6.390625 
Q 39.65625 6.390625 43.53125 10.953125 
Q 47.40625 15.53125 47.40625 23.390625 
Q 47.40625 31.296875 43.53125 35.828125 
Q 39.65625 40.375 33.015625 40.375 
z
M 52.59375 71.296875 
L 52.59375 62.3125 
Q 48.875 64.0625 45.09375 64.984375 
Q 41.3125 65.921875 37.59375 65.921875 
Q 27.828125 65.921875 22.671875 59.328125 
Q 17.53125 52.734375 16.796875 39.40625 
Q 19.671875 43.65625 24.015625 45.921875 
Q 28.375 48.1875 33.59375 48.1875 
Q 44.578125 48.1875 50.953125 41.515625 
Q 57.328125 34.859375 57.328125 23.390625 
Q 57.328125 12.15625 50.6875 5.359375 
Q 44.046875 -1.421875 33.015625 -1.421875 
Q 20.359375 -1.421875 13.671875 8.265625 
Q 6.984375 17.96875 6.984375 36.375 
Q 6.984375 53.65625 15.1875 63.9375 
Q 23.390625 74.21875 37.203125 74.21875 
Q 40.921875 74.21875 44.703125 73.484375 
Q 48.484375 72.75 52.59375 71.296875 
z
" id="DejaVuSans-54"/>
       </defs>
       <use xlink:href="#DejaVuSans-54"/>
      </g>
     </g>
    </g>
    <g id="xtick_4">
     <g id="line2d_4">
      <g>
       <use style="stroke:#000000;stroke-width:0.8;" x="290.428267" xlink:href="#m44d3312d50" y="224.64"/>
      </g>
     </g>
     <g id="text_4">
      <!-- 8 -->
      <g transform="translate(287.247017 239.238438)scale(0.1 -0.1)">
       <defs>
        <path d="M 31.78125 34.625 
Q 24.75 34.625 20.71875 30.859375 
Q 16.703125 27.09375 16.703125 20.515625 
Q 16.703125 13.921875 20.71875 10.15625 
Q 24.75 6.390625 31.78125 6.390625 
Q 38.8125 6.390625 42.859375 10.171875 
Q 46.921875 13.96875 46.921875 20.515625 
Q 46.921875 27.09375 42.890625 30.859375 
Q 38.875 34.625 31.78125 34.625 
z
M 21.921875 38.8125 
Q 15.578125 40.375 12.03125 44.71875 
Q 8.5 49.078125 8.5 55.328125 
Q 8.5 64.0625 14.71875 69.140625 
Q 20.953125 74.21875 31.78125 74.21875 
Q 42.671875 74.21875 48.875 69.140625 
Q 55.078125 64.0625 55.078125 55.328125 
Q 55.078125 49.078125 51.53125 44.71875 
Q 48 40.375 41.703125 38.8125 
Q 48.828125 37.15625 52.796875 32.3125 
Q 56.78125 27.484375 56.78125 20.515625 
Q 56.78125 9.90625 50.3125 4.234375 
Q 43.84375 -1.421875 31.78125 -1.421875 
Q 19.734375 -1.421875 13.25 4.234375 
Q 6.78125 9.90625 6.78125 20.515625 
Q 6.78125 27.484375 10.78125 32.3125 
Q 14.796875 37.15625 21.921875 38.8125 
z
M 18.3125 54.390625 
Q 18.3125 48.734375 21.84375 45.5625 
Q 25.390625 42.390625 31.78125 42.390625 
Q 38.140625 42.390625 41.71875 45.5625 
Q 45.3125 48.734375 45.3125 54.390625 
Q 45.3125 60.0625 41.71875 63.234375 
Q 38.140625 66.40625 31.78125 66.40625 
Q 25.390625 66.40625 21.84375 63.234375 
Q 18.3125 60.0625 18.3125 54.390625 
z
" id="DejaVuSans-56"/>
       </defs>
       <use xlink:href="#DejaVuSans-56"/>
      </g>
     </g>
    </g>
    <g id="xtick_5">
     <g id="line2d_5">
      <g>
       <use style="stroke:#000000;stroke-width:0.8;" x="358.064631" xlink:href="#m44d3312d50" y="224.64"/>
      </g>
     </g>
     <g id="text_5">
      <!-- 10 -->
      <g transform="translate(351.702131 239.238438)scale(0.1 -0.1)">
       <defs>
        <path d="M 12.40625 8.296875 
L 28.515625 8.296875 
L 28.515625 63.921875 
L 10.984375 60.40625 
L 10.984375 69.390625 
L 28.421875 72.90625 
L 38.28125 72.90625 
L 38.28125 8.296875 
L 54.390625 8.296875 
L 54.390625 0 
L 12.40625 0 
z
" id="DejaVuSans-49"/>
        <path d="M 31.78125 66.40625 
Q 24.171875 66.40625 20.328125 58.90625 
Q 16.5 51.421875 16.5 36.375 
Q 16.5 21.390625 20.328125 13.890625 
Q 24.171875 6.390625 31.78125 6.390625 
Q 39.453125 6.390625 43.28125 13.890625 
Q 47.125 21.390625 47.125 36.375 
Q 47.125 51.421875 43.28125 58.90625 
Q 39.453125 66.40625 31.78125 66.40625 
z
M 31.78125 74.21875 
Q 44.046875 74.21875 50.515625 64.515625 
Q 56.984375 54.828125 56.984375 36.375 
Q 56.984375 17.96875 50.515625 8.265625 
Q 44.046875 -1.421875 31.78125 -1.421875 
Q 19.53125 -1.421875 13.0625 8.265625 
Q 6.59375 17.96875 6.59375 36.375 
Q 6.59375 54.828125 13.0625 64.515625 
Q 19.53125 74.21875 31.78125 74.21875 
z
" id="DejaVuSans-48"/>
       </defs>
       <use xlink:href="#DejaVuSans-49"/>
       <use x="63.623047" xlink:href="#DejaVuSans-48"/>
      </g>
     </g>
    </g>
   </g>
   <g id="matplotlib.axis_2">
    <g id="ytick_1">
     <g id="line2d_6">
      <defs>
       <path d="M 0 0 
L -3.5 0 
" id="m62cc03c134" style="stroke:#000000;stroke-width:0.8;"/>
      </defs>
      <g>
       <use style="stroke:#000000;stroke-width:0.8;" x="38.482813" xlink:href="#m62cc03c134" y="207.988646"/>
      </g>
     </g>
     <g id="text_6">
      <!-- −3.2 -->
      <g transform="translate(7.2 211.787865)scale(0.1 -0.1)">
       <defs>
        <path d="M 10.59375 35.5 
L 73.1875 35.5 
L 73.1875 27.203125 
L 10.59375 27.203125 
z
" id="DejaVuSans-8722"/>
        <path d="M 40.578125 39.3125 
Q 47.65625 37.796875 51.625 33 
Q 55.609375 28.21875 55.609375 21.1875 
Q 55.609375 10.40625 48.1875 4.484375 
Q 40.765625 -1.421875 27.09375 -1.421875 
Q 22.515625 -1.421875 17.65625 -0.515625 
Q 12.796875 0.390625 7.625 2.203125 
L 7.625 11.71875 
Q 11.71875 9.328125 16.59375 8.109375 
Q 21.484375 6.890625 26.8125 6.890625 
Q 36.078125 6.890625 40.9375 10.546875 
Q 45.796875 14.203125 45.796875 21.1875 
Q 45.796875 27.640625 41.28125 31.265625 
Q 36.765625 34.90625 28.71875 34.90625 
L 20.21875 34.90625 
L 20.21875 43.015625 
L 29.109375 43.015625 
Q 36.375 43.015625 40.234375 45.921875 
Q 44.09375 48.828125 44.09375 54.296875 
Q 44.09375 59.90625 40.109375 62.90625 
Q 36.140625 65.921875 28.71875 65.921875 
Q 24.65625 65.921875 20.015625 65.03125 
Q 15.375 64.15625 9.8125 62.3125 
L 9.8125 71.09375 
Q 15.4375 72.65625 20.34375 73.4375 
Q 25.25 74.21875 29.59375 74.21875 
Q 40.828125 74.21875 47.359375 69.109375 
Q 53.90625 64.015625 53.90625 55.328125 
Q 53.90625 49.265625 50.4375 45.09375 
Q 46.96875 40.921875 40.578125 39.3125 
z
" id="DejaVuSans-51"/>
        <path d="M 10.6875 12.40625 
L 21 12.40625 
L 21 0 
L 10.6875 0 
z
" id="DejaVuSans-46"/>
       </defs>
       <use xlink:href="#DejaVuSans-8722"/>
       <use x="83.789062" xlink:href="#DejaVuSans-51"/>
       <use x="147.412109" xlink:href="#DejaVuSans-46"/>
       <use x="179.199219" xlink:href="#DejaVuSans-50"/>
      </g>
     </g>
    </g>
    <g id="ytick_2">
     <g id="line2d_7">
      <g>
       <use style="stroke:#000000;stroke-width:0.8;" x="38.482813" xlink:href="#m62cc03c134" y="181.809201"/>
      </g>
     </g>
     <g id="text_7">
      <!-- −3.0 -->
      <g transform="translate(7.2 185.60842)scale(0.1 -0.1)">
       <use xlink:href="#DejaVuSans-8722"/>
       <use x="83.789062" xlink:href="#DejaVuSans-51"/>
       <use x="147.412109" xlink:href="#DejaVuSans-46"/>
       <use x="179.199219" xlink:href="#DejaVuSans-48"/>
      </g>
     </g>
    </g>
    <g id="ytick_3">
     <g id="line2d_8">
      <g>
       <use style="stroke:#000000;stroke-width:0.8;" x="38.482813" xlink:href="#m62cc03c134" y="155.629757"/>
      </g>
     </g>
     <g id="text_8">
      <!-- −2.8 -->
      <g transform="translate(7.2 159.428976)scale(0.1 -0.1)">
       <use xlink:href="#DejaVuSans-8722"/>
       <use x="83.789062" xlink:href="#DejaVuSans-50"/>
       <use x="147.412109" xlink:href="#DejaVuSans-46"/>
       <use x="179.199219" xlink:href="#DejaVuSans-56"/>
      </g>
     </g>
    </g>
    <g id="ytick_4">
     <g id="line2d_9">
      <g>
       <use style="stroke:#000000;stroke-width:0.8;" x="38.482813" xlink:href="#m62cc03c134" y="129.450313"/>
      </g>
     </g>
     <g id="text_9">
      <!-- −2.6 -->
      <g transform="translate(7.2 133.249531)scale(0.1 -0.1)">
       <use xlink:href="#DejaVuSans-8722"/>
       <use x="83.789062" xlink:href="#DejaVuSans-50"/>
       <use x="147.412109" xlink:href="#DejaVuSans-46"/>
       <use x="179.199219" xlink:href="#DejaVuSans-54"/>
      </g>
     </g>
    </g>
    <g id="ytick_5">
     <g id="line2d_10">
      <g>
       <use style="stroke:#000000;stroke-width:0.8;" x="38.482813" xlink:href="#m62cc03c134" y="103.270868"/>
      </g>
     </g>
     <g id="text_10">
      <!-- −2.4 -->
      <g transform="translate(7.2 107.070087)scale(0.1 -0.1)">
       <use xlink:href="#DejaVuSans-8722"/>
       <use x="83.789062" xlink:href="#DejaVuSans-50"/>
       <use x="147.412109" xlink:href="#DejaVuSans-46"/>
       <use x="179.199219" xlink:href="#DejaVuSans-52"/>
      </g>
     </g>
    </g>
    <g id="ytick_6">
     <g id="line2d_11">
      <g>
       <use style="stroke:#000000;stroke-width:0.8;" x="38.482813" xlink:href="#m62cc03c134" y="77.091424"/>
      </g>
     </g>
     <g id="text_11">
      <!-- −2.2 -->
      <g transform="translate(7.2 80.890642)scale(0.1 -0.1)">
       <use xlink:href="#DejaVuSans-8722"/>
       <use x="83.789062" xlink:href="#DejaVuSans-50"/>
       <use x="147.412109" xlink:href="#DejaVuSans-46"/>
       <use x="179.199219" xlink:href="#DejaVuSans-50"/>
      </g>
     </g>
    </g>
    <g id="ytick_7">
     <g id="line2d_12">
      <g>
       <use style="stroke:#000000;stroke-width:0.8;" x="38.482813" xlink:href="#m62cc03c134" y="50.911979"/>
      </g>
     </g>
     <g id="text_12">
      <!-- −2.0 -->
      <g transform="translate(7.2 54.711198)scale(0.1 -0.1)">
       <use xlink:href="#DejaVuSans-8722"/>
       <use x="83.789062" xlink:href="#DejaVuSans-50"/>
       <use x="147.412109" xlink:href="#DejaVuSans-46"/>
       <use x="179.199219" xlink:href="#DejaVuSans-48"/>
      </g>
     </g>
    </g>
    <g id="ytick_8">
     <g id="line2d_13">
      <g>
       <use style="stroke:#000000;stroke-width:0.8;" x="38.482813" xlink:href="#m62cc03c134" y="24.732535"/>
      </g>
     </g>
     <g id="text_13">
      <!-- −1.8 -->
      <g transform="translate(7.2 28.531754)scale(0.1 -0.1)">
       <use xlink:href="#DejaVuSans-8722"/>
       <use x="83.789062" xlink:href="#DejaVuSans-49"/>
       <use x="147.412109" xlink:href="#DejaVuSans-46"/>
       <use x="179.199219" xlink:href="#DejaVuSans-56"/>
      </g>
     </g>
    </g>
   </g>
   <g id="line2d_14">
    <path clip-path="url(#p83622bcfb4)" d="M 53.700994 126.002311 
L 54.923338 145.963002 
L 56.145682 140.42861 
L 57.368026 125.879144 
L 58.59037 132.671835 
L 59.812714 171.751118 
L 61.035058 148.300203 
L 62.257402 164.433442 
L 63.479746 165.458016 
L 64.70209 160.327252 
L 65.924434 165.352793 
L 67.146777 149.681263 
L 69.591465 169.914979 
L 70.813809 167.01119 
L 72.036153 169.714123 
L 73.258497 155.733418 
L 74.480841 179.13375 
L 75.703185 173.458237 
L 76.925529 189.795134 
L 78.147873 213.044349 
L 79.370217 172.034972 
L 80.592561 170.193683 
L 81.814905 192.096846 
L 83.037248 153.500709 
L 84.259592 203.034212 
L 85.481936 184.141432 
L 86.70428 187.892498 
L 87.926624 166.039906 
L 89.148968 167.491471 
L 90.371312 185.279135 
L 91.593656 182.901472 
L 92.816 199.979105 
L 94.038344 214.756364 
L 95.260688 193.816501 
L 96.483032 187.614833 
L 97.705375 173.921762 
L 98.927719 174.617908 
L 100.150063 195.724505 
L 101.372407 194.877006 
L 102.594751 204.878999 
L 103.817095 209.944162 
L 105.039439 213.863573 
L 106.261783 166.136607 
L 107.484127 198.456591 
L 108.706471 197.604869 
L 109.928815 208.326701 
L 111.151159 181.780925 
L 112.373503 213.086956 
L 113.595846 194.723512 
L 114.81819 203.611986 
L 116.040534 186.752915 
L 117.262878 198.405992 
L 118.485222 207.052256 
L 119.707566 191.82202 
L 120.92991 185.678504 
L 122.152254 190.224299 
L 123.374598 186.923565 
L 124.596942 198.952376 
L 125.819286 195.142959 
L 127.04163 198.922131 
L 128.263974 194.531281 
L 129.486317 200.154144 
L 130.708661 211.773175 
L 131.931005 186.501794 
L 133.153349 193.712822 
L 134.375693 209.40398 
L 135.598037 181.601516 
L 136.820381 199.112517 
L 138.042725 186.116658 
L 139.265069 176.797125 
L 140.487413 184.180589 
L 141.709757 170.467206 
L 142.932101 201.042725 
L 144.154444 179.095418 
L 145.376788 192.794248 
L 146.599132 194.682984 
L 149.04382 186.230109 
L 150.266164 180.830705 
L 151.488508 196.218516 
L 152.710852 168.564122 
L 153.933196 173.636794 
L 155.15554 199.205821 
L 156.377884 158.969073 
L 157.600228 152.975001 
L 158.822572 161.692556 
L 160.044915 178.797693 
L 161.267259 189.768014 
L 162.489603 161.249139 
L 163.711947 179.618644 
L 164.934291 157.619602 
L 166.156635 170.165309 
L 167.378979 159.36899 
L 168.601323 166.740636 
L 169.823667 161.40031 
L 171.046011 169.747067 
L 172.268355 145.735114 
L 173.490699 166.669597 
L 174.713043 162.280338 
L 175.935386 142.096238 
L 177.15773 183.584517 
L 178.380074 181.762475 
L 179.602418 151.625592 
L 180.824762 178.846423 
L 182.047106 137.218431 
L 183.26945 167.237061 
L 184.491794 170.763764 
L 185.714138 134.959953 
L 186.936482 139.896387 
L 188.158826 133.969689 
L 189.38117 145.689843 
L 190.603513 167.951886 
L 191.825857 130.800362 
L 193.048201 158.429673 
L 194.270545 143.531917 
L 195.492889 140.746269 
L 196.715233 154.279837 
L 197.937577 143.313663 
L 199.159921 138.377235 
L 200.382265 144.614259 
L 201.604609 163.021486 
L 202.826953 143.812162 
L 204.049297 129.435825 
L 205.271641 154.967965 
L 206.493984 146.910074 
L 207.716328 149.719421 
L 208.938672 118.885992 
L 210.161016 133.358248 
L 211.38336 135.88812 
L 212.605704 150.360295 
L 213.828048 132.281773 
L 215.050392 147.222885 
L 216.272736 137.032758 
L 217.49508 144.823613 
L 218.717424 126.695302 
L 219.939768 127.049289 
L 221.162112 136.368471 
L 222.384455 127.501698 
L 223.606799 146.034926 
L 224.829143 150.287359 
L 226.051487 124.054369 
L 227.273831 126.661456 
L 228.496175 119.566763 
L 229.718519 95.719219 
L 230.940863 113.584602 
L 232.163207 136.928785 
L 233.385551 109.390433 
L 234.607895 140.267532 
L 235.830239 128.114702 
L 237.052582 121.995265 
L 238.274926 97.703506 
L 239.49727 128.907454 
L 240.719614 129.004329 
L 241.941958 118.502447 
L 243.164302 124.925398 
L 244.386646 100.519959 
L 245.60899 128.429779 
L 246.831334 128.340159 
L 248.053678 118.077333 
L 249.276022 117.891777 
L 250.498366 85.141978 
L 251.72071 96.997836 
L 252.943053 107.306131 
L 254.165397 123.519671 
L 255.387741 95.453795 
L 256.610085 118.626386 
L 257.832429 124.782458 
L 259.054773 88.039311 
L 260.277117 98.47058 
L 261.499461 89.595038 
L 262.721805 96.506945 
L 263.944149 88.494178 
L 265.166493 107.26317 
L 266.388837 111.311718 
L 267.611181 87.88504 
L 268.833524 106.357348 
L 270.055868 103.901873 
L 271.278212 99.874518 
L 272.500556 92.719782 
L 273.7229 96.620146 
L 274.945244 109.023148 
L 276.167588 98.490267 
L 277.389932 118.210421 
L 278.612276 79.96498 
L 279.83462 108.163192 
L 281.056964 100.693645 
L 282.279308 84.600912 
L 283.501651 94.011901 
L 284.723995 63.182442 
L 285.946339 99.35345 
L 287.168683 77.986351 
L 288.391027 81.049287 
L 289.613371 94.879701 
L 290.835715 71.796244 
L 292.058059 79.948934 
L 293.280403 66.660134 
L 294.502747 65.044031 
L 295.725091 46.56975 
L 296.947435 56.455213 
L 298.169779 77.848237 
L 299.392122 75.216612 
L 300.614466 56.758142 
L 301.83681 61.646082 
L 303.059154 60.916847 
L 304.281498 89.535974 
L 305.503842 67.765179 
L 306.726186 76.185497 
L 307.94853 61.940714 
L 309.170874 65.971454 
L 310.393218 51.856438 
L 311.615562 58.703773 
L 312.837906 51.650827 
L 314.06025 67.138455 
L 315.282593 72.487176 
L 316.504937 64.585531 
L 318.949625 52.448019 
L 320.171969 26.936772 
L 321.394313 56.165162 
L 322.616657 67.228666 
L 323.839001 58.35007 
L 325.061345 58.997342 
L 326.283689 45.736371 
L 327.506033 71.319372 
L 328.728377 49.436742 
L 329.95072 47.332386 
L 331.173064 45.46016 
L 332.395408 55.438532 
L 333.617752 49.856811 
L 334.840096 64.507868 
L 336.06244 51.451737 
L 337.284784 51.229427 
L 338.507128 37.808949 
L 339.729472 57.522655 
L 340.951816 31.298723 
L 342.17416 21.100071 
L 343.396504 66.898295 
L 344.618848 33.365708 
L 345.841191 29.229582 
L 347.063535 45.581055 
L 349.508223 37.277477 
L 350.730567 38.589983 
L 351.952911 37.893038 
L 353.175255 54.945017 
L 354.397599 17.083636 
L 355.619943 17.198472 
L 356.842287 41.142439 
L 358.064631 48.85847 
L 358.064631 48.85847 
" style="fill:none;stroke:#0000ff;stroke-linecap:square;stroke-width:1.5;"/>
   </g>
   <g id="patch_3">
    <path d="M 38.482813 224.64 
L 38.482813 7.2 
" style="fill:none;stroke:#000000;stroke-linecap:square;stroke-linejoin:miter;stroke-width:0.8;"/>
   </g>
   <g id="patch_4">
    <path d="M 373.282813 224.64 
L 373.282813 7.2 
" style="fill:none;stroke:#000000;stroke-linecap:square;stroke-linejoin:miter;stroke-width:0.8;"/>
   </g>
   <g id="patch_5">
    <path d="M 38.482812 224.64 
L 373.282812 224.64 
" style="fill:none;stroke:#000000;stroke-linecap:square;stroke-linejoin:miter;stroke-width:0.8;"/>
   </g>
   <g id="patch_6">
    <path d="M 38.482812 7.2 
L 373.282812 7.2 
" style="fill:none;stroke:#000000;stroke-linecap:square;stroke-linejoin:miter;stroke-width:0.8;"/>
   </g>
  </g>
 </g>
 <defs>
  <clipPath id="p83622bcfb4">
   <rect height="217.44" width="334.8" x="38.482813" y="7.2"/>
  </clipPath>
 </defs>
</svg>
