<?xml version="1.0" encoding="utf-8" standalone="no"?>
<!DOCTYPE svg PUBLIC "-//W3C//DTD SVG 1.1//EN"
  "http://www.w3.org/Graphics/SVG/1.1/DTD/svg11.dtd">
<svg xmlns:xlink="http://www.w3.org/1999/xlink" width="402.802812pt" height="297.190125pt" viewBox="0 0 402.802812 297.190125" xmlns="http://www.w3.org/2000/svg" version="1.1">
 <metadata>
  <rdf:RDF xmlns:dc="http://purl.org/dc/elements/1.1/" xmlns:cc="http://creativecommons.org/ns#" xmlns:rdf="http://www.w3.org/1999/02/22-rdf-syntax-ns#">
   <cc:Work>
    <dc:type rdf:resource="http://purl.org/dc/dcmitype/StillImage"/>
    <dc:date>2023-08-23T09:33:47.498009</dc:date>
    <dc:format>image/svg+xml</dc:format>
    <dc:creator>
     <cc:Agent>
      <dc:title>Matplotlib v3.7.1, https://matplotlib.org/</dc:title>
     </cc:Agent>
    </dc:creator>
   </cc:Work>
  </rdf:RDF>
 </metadata>
 <defs>
  <style type="text/css">*{stroke-linejoin: round; stroke-linecap: butt}</style>
 </defs>
 <g id="figure_1">
  <g id="patch_1">
   <path d="M 0 297.190125 
L 402.802812 297.190125 
L 402.802812 0 
L 0 0 
z
" style="fill: #ffffff"/>
  </g>
  <g id="axes_1">
   <g id="patch_2">
    <path d="M 38.482813 273.312 
L 395.602813 273.312 
L 395.602813 7.2 
L 38.482813 7.2 
z
" style="fill: #ffffff"/>
   </g>
   <g id="matplotlib.axis_1">
    <g id="xtick_1">
     <g id="line2d_1">
      <defs>
       <path id="m743f13d553" d="M 0 0 
L 0 3.5 
" style="stroke: #000000; stroke-width: 0.8"/>
      </defs>
      <g>
       <use xlink:href="#m743f13d553" x="90.788267" y="273.312" style="stroke: #000000; stroke-width: 0.8"/>
      </g>
     </g>
     <g id="text_1">
      <!-- 2 -->
      <g transform="translate(87.607017 287.910437) scale(0.1 -0.1)">
       <defs>
        <path id="DejaVuSans-32" d="M 1228 531 
L 3431 531 
L 3431 0 
L 469 0 
L 469 531 
Q 828 903 1448 1529 
Q 2069 2156 2228 2338 
Q 2531 2678 2651 2914 
Q 2772 3150 2772 3378 
Q 2772 3750 2511 3984 
Q 2250 4219 1831 4219 
Q 1534 4219 1204 4116 
Q 875 4013 500 3803 
L 500 4441 
Q 881 4594 1212 4672 
Q 1544 4750 1819 4750 
Q 2544 4750 2975 4387 
Q 3406 4025 3406 3419 
Q 3406 3131 3298 2873 
Q 3191 2616 2906 2266 
Q 2828 2175 2409 1742 
Q 1991 1309 1228 531 
z
" transform="scale(0.015625)"/>
       </defs>
       <use xlink:href="#DejaVuSans-32"/>
      </g>
     </g>
    </g>
    <g id="xtick_2">
     <g id="line2d_2">
      <g>
       <use xlink:href="#m743f13d553" x="162.933722" y="273.312" style="stroke: #000000; stroke-width: 0.8"/>
      </g>
     </g>
     <g id="text_2">
      <!-- 4 -->
      <g transform="translate(159.752472 287.910437) scale(0.1 -0.1)">
       <defs>
        <path id="DejaVuSans-34" d="M 2419 4116 
L 825 1625 
L 2419 1625 
L 2419 4116 
z
M 2253 4666 
L 3047 4666 
L 3047 1625 
L 3713 1625 
L 3713 1100 
L 3047 1100 
L 3047 0 
L 2419 0 
L 2419 1100 
L 313 1100 
L 313 1709 
L 2253 4666 
z
" transform="scale(0.015625)"/>
       </defs>
       <use xlink:href="#DejaVuSans-34"/>
      </g>
     </g>
    </g>
    <g id="xtick_3">
     <g id="line2d_3">
      <g>
       <use xlink:href="#m743f13d553" x="235.079176" y="273.312" style="stroke: #000000; stroke-width: 0.8"/>
      </g>
     </g>
     <g id="text_3">
      <!-- 6 -->
      <g transform="translate(231.897926 287.910437) scale(0.1 -0.1)">
       <defs>
        <path id="DejaVuSans-36" d="M 2113 2584 
Q 1688 2584 1439 2293 
Q 1191 2003 1191 1497 
Q 1191 994 1439 701 
Q 1688 409 2113 409 
Q 2538 409 2786 701 
Q 3034 994 3034 1497 
Q 3034 2003 2786 2293 
Q 2538 2584 2113 2584 
z
M 3366 4563 
L 3366 3988 
Q 3128 4100 2886 4159 
Q 2644 4219 2406 4219 
Q 1781 4219 1451 3797 
Q 1122 3375 1075 2522 
Q 1259 2794 1537 2939 
Q 1816 3084 2150 3084 
Q 2853 3084 3261 2657 
Q 3669 2231 3669 1497 
Q 3669 778 3244 343 
Q 2819 -91 2113 -91 
Q 1303 -91 875 529 
Q 447 1150 447 2328 
Q 447 3434 972 4092 
Q 1497 4750 2381 4750 
Q 2619 4750 2861 4703 
Q 3103 4656 3366 4563 
z
" transform="scale(0.015625)"/>
       </defs>
       <use xlink:href="#DejaVuSans-36"/>
      </g>
     </g>
    </g>
    <g id="xtick_4">
     <g id="line2d_4">
      <g>
       <use xlink:href="#m743f13d553" x="307.224631" y="273.312" style="stroke: #000000; stroke-width: 0.8"/>
      </g>
     </g>
     <g id="text_4">
      <!-- 8 -->
      <g transform="translate(304.043381 287.910437) scale(0.1 -0.1)">
       <defs>
        <path id="DejaVuSans-38" d="M 2034 2216 
Q 1584 2216 1326 1975 
Q 1069 1734 1069 1313 
Q 1069 891 1326 650 
Q 1584 409 2034 409 
Q 2484 409 2743 651 
Q 3003 894 3003 1313 
Q 3003 1734 2745 1975 
Q 2488 2216 2034 2216 
z
M 1403 2484 
Q 997 2584 770 2862 
Q 544 3141 544 3541 
Q 544 4100 942 4425 
Q 1341 4750 2034 4750 
Q 2731 4750 3128 4425 
Q 3525 4100 3525 3541 
Q 3525 3141 3298 2862 
Q 3072 2584 2669 2484 
Q 3125 2378 3379 2068 
Q 3634 1759 3634 1313 
Q 3634 634 3220 271 
Q 2806 -91 2034 -91 
Q 1263 -91 848 271 
Q 434 634 434 1313 
Q 434 1759 690 2068 
Q 947 2378 1403 2484 
z
M 1172 3481 
Q 1172 3119 1398 2916 
Q 1625 2713 2034 2713 
Q 2441 2713 2670 2916 
Q 2900 3119 2900 3481 
Q 2900 3844 2670 4047 
Q 2441 4250 2034 4250 
Q 1625 4250 1398 4047 
Q 1172 3844 1172 3481 
z
" transform="scale(0.015625)"/>
       </defs>
       <use xlink:href="#DejaVuSans-38"/>
      </g>
     </g>
    </g>
    <g id="xtick_5">
     <g id="line2d_5">
      <g>
       <use xlink:href="#m743f13d553" x="379.370085" y="273.312" style="stroke: #000000; stroke-width: 0.8"/>
      </g>
     </g>
     <g id="text_5">
      <!-- 10 -->
      <g transform="translate(373.007585 287.910437) scale(0.1 -0.1)">
       <defs>
        <path id="DejaVuSans-31" d="M 794 531 
L 1825 531 
L 1825 4091 
L 703 3866 
L 703 4441 
L 1819 4666 
L 2450 4666 
L 2450 531 
L 3481 531 
L 3481 0 
L 794 0 
L 794 531 
z
" transform="scale(0.015625)"/>
        <path id="DejaVuSans-30" d="M 2034 4250 
Q 1547 4250 1301 3770 
Q 1056 3291 1056 2328 
Q 1056 1369 1301 889 
Q 1547 409 2034 409 
Q 2525 409 2770 889 
Q 3016 1369 3016 2328 
Q 3016 3291 2770 3770 
Q 2525 4250 2034 4250 
z
M 2034 4750 
Q 2819 4750 3233 4129 
Q 3647 3509 3647 2328 
Q 3647 1150 3233 529 
Q 2819 -91 2034 -91 
Q 1250 -91 836 529 
Q 422 1150 422 2328 
Q 422 3509 836 4129 
Q 1250 4750 2034 4750 
z
" transform="scale(0.015625)"/>
       </defs>
       <use xlink:href="#DejaVuSans-31"/>
       <use xlink:href="#DejaVuSans-30" x="63.623047"/>
      </g>
     </g>
    </g>
   </g>
   <g id="matplotlib.axis_2">
    <g id="ytick_1">
     <g id="line2d_6">
      <defs>
       <path id="m7fd490e2e4" d="M 0 0 
L -3.5 0 
" style="stroke: #000000; stroke-width: 0.8"/>
      </defs>
      <g>
       <use xlink:href="#m7fd490e2e4" x="38.482813" y="252.933389" style="stroke: #000000; stroke-width: 0.8"/>
      </g>
     </g>
     <g id="text_6">
      <!-- −3.2 -->
      <g transform="translate(7.2 256.732608) scale(0.1 -0.1)">
       <defs>
        <path id="DejaVuSans-2212" d="M 678 2272 
L 4684 2272 
L 4684 1741 
L 678 1741 
L 678 2272 
z
" transform="scale(0.015625)"/>
        <path id="DejaVuSans-33" d="M 2597 2516 
Q 3050 2419 3304 2112 
Q 3559 1806 3559 1356 
Q 3559 666 3084 287 
Q 2609 -91 1734 -91 
Q 1441 -91 1130 -33 
Q 819 25 488 141 
L 488 750 
Q 750 597 1062 519 
Q 1375 441 1716 441 
Q 2309 441 2620 675 
Q 2931 909 2931 1356 
Q 2931 1769 2642 2001 
Q 2353 2234 1838 2234 
L 1294 2234 
L 1294 2753 
L 1863 2753 
Q 2328 2753 2575 2939 
Q 2822 3125 2822 3475 
Q 2822 3834 2567 4026 
Q 2313 4219 1838 4219 
Q 1578 4219 1281 4162 
Q 984 4106 628 3988 
L 628 4550 
Q 988 4650 1302 4700 
Q 1616 4750 1894 4750 
Q 2613 4750 3031 4423 
Q 3450 4097 3450 3541 
Q 3450 3153 3228 2886 
Q 3006 2619 2597 2516 
z
" transform="scale(0.015625)"/>
        <path id="DejaVuSans-2e" d="M 684 794 
L 1344 794 
L 1344 0 
L 684 0 
L 684 794 
z
" transform="scale(0.015625)"/>
       </defs>
       <use xlink:href="#DejaVuSans-2212"/>
       <use xlink:href="#DejaVuSans-33" x="83.789062"/>
       <use xlink:href="#DejaVuSans-2e" x="147.412109"/>
       <use xlink:href="#DejaVuSans-32" x="179.199219"/>
      </g>
     </g>
    </g>
    <g id="ytick_2">
     <g id="line2d_7">
      <g>
       <use xlink:href="#m7fd490e2e4" x="38.482813" y="220.89391" style="stroke: #000000; stroke-width: 0.8"/>
      </g>
     </g>
     <g id="text_7">
      <!-- −3.0 -->
      <g transform="translate(7.2 224.693129) scale(0.1 -0.1)">
       <use xlink:href="#DejaVuSans-2212"/>
       <use xlink:href="#DejaVuSans-33" x="83.789062"/>
       <use xlink:href="#DejaVuSans-2e" x="147.412109"/>
       <use xlink:href="#DejaVuSans-30" x="179.199219"/>
      </g>
     </g>
    </g>
    <g id="ytick_3">
     <g id="line2d_8">
      <g>
       <use xlink:href="#m7fd490e2e4" x="38.482813" y="188.854431" style="stroke: #000000; stroke-width: 0.8"/>
      </g>
     </g>
     <g id="text_8">
      <!-- −2.8 -->
      <g transform="translate(7.2 192.65365) scale(0.1 -0.1)">
       <use xlink:href="#DejaVuSans-2212"/>
       <use xlink:href="#DejaVuSans-32" x="83.789062"/>
       <use xlink:href="#DejaVuSans-2e" x="147.412109"/>
       <use xlink:href="#DejaVuSans-38" x="179.199219"/>
      </g>
     </g>
    </g>
    <g id="ytick_4">
     <g id="line2d_9">
      <g>
       <use xlink:href="#m7fd490e2e4" x="38.482813" y="156.814952" style="stroke: #000000; stroke-width: 0.8"/>
      </g>
     </g>
     <g id="text_9">
      <!-- −2.6 -->
      <g transform="translate(7.2 160.614171) scale(0.1 -0.1)">
       <use xlink:href="#DejaVuSans-2212"/>
       <use xlink:href="#DejaVuSans-32" x="83.789062"/>
       <use xlink:href="#DejaVuSans-2e" x="147.412109"/>
       <use xlink:href="#DejaVuSans-36" x="179.199219"/>
      </g>
     </g>
    </g>
    <g id="ytick_5">
     <g id="line2d_10">
      <g>
       <use xlink:href="#m7fd490e2e4" x="38.482813" y="124.775473" style="stroke: #000000; stroke-width: 0.8"/>
      </g>
     </g>
     <g id="text_10">
      <!-- −2.4 -->
      <g transform="translate(7.2 128.574692) scale(0.1 -0.1)">
       <use xlink:href="#DejaVuSans-2212"/>
       <use xlink:href="#DejaVuSans-32" x="83.789062"/>
       <use xlink:href="#DejaVuSans-2e" x="147.412109"/>
       <use xlink:href="#DejaVuSans-34" x="179.199219"/>
      </g>
     </g>
    </g>
    <g id="ytick_6">
     <g id="line2d_11">
      <g>
       <use xlink:href="#m7fd490e2e4" x="38.482813" y="92.735994" style="stroke: #000000; stroke-width: 0.8"/>
      </g>
     </g>
     <g id="text_11">
      <!-- −2.2 -->
      <g transform="translate(7.2 96.535213) scale(0.1 -0.1)">
       <use xlink:href="#DejaVuSans-2212"/>
       <use xlink:href="#DejaVuSans-32" x="83.789062"/>
       <use xlink:href="#DejaVuSans-2e" x="147.412109"/>
       <use xlink:href="#DejaVuSans-32" x="179.199219"/>
      </g>
     </g>
    </g>
    <g id="ytick_7">
     <g id="line2d_12">
      <g>
       <use xlink:href="#m7fd490e2e4" x="38.482813" y="60.696515" style="stroke: #000000; stroke-width: 0.8"/>
      </g>
     </g>
     <g id="text_12">
      <!-- −2.0 -->
      <g transform="translate(7.2 64.495734) scale(0.1 -0.1)">
       <use xlink:href="#DejaVuSans-2212"/>
       <use xlink:href="#DejaVuSans-32" x="83.789062"/>
       <use xlink:href="#DejaVuSans-2e" x="147.412109"/>
       <use xlink:href="#DejaVuSans-30" x="179.199219"/>
      </g>
     </g>
    </g>
    <g id="ytick_8">
     <g id="line2d_13">
      <g>
       <use xlink:href="#m7fd490e2e4" x="38.482813" y="28.657036" style="stroke: #000000; stroke-width: 0.8"/>
      </g>
     </g>
     <g id="text_13">
      <!-- −1.8 -->
      <g transform="translate(7.2 32.456255) scale(0.1 -0.1)">
       <use xlink:href="#DejaVuSans-2212"/>
       <use xlink:href="#DejaVuSans-31" x="83.789062"/>
       <use xlink:href="#DejaVuSans-2e" x="147.412109"/>
       <use xlink:href="#DejaVuSans-38" x="179.199219"/>
      </g>
     </g>
    </g>
   </g>
   <g id="line2d_14">
    <defs>
     <path id="m7803c6746d" d="M 0 3 
C 0.795609 3 1.55874 2.683901 2.12132 2.12132 
C 2.683901 1.55874 3 0.795609 3 0 
C 3 -0.795609 2.683901 -1.55874 2.12132 -2.12132 
C 1.55874 -2.683901 0.795609 -3 0 -3 
C -0.795609 -3 -1.55874 -2.683901 -2.12132 -2.12132 
C -2.683901 -1.55874 -3 -0.795609 -3 0 
C -3 0.795609 -2.683901 1.55874 -2.12132 2.12132 
C -1.55874 2.683901 -0.795609 3 0 3 
z
" style="stroke: #1f77b4"/>
    </defs>
    <g clip-path="url(#p2e6d812ecc)">
     <use xlink:href="#m7803c6746d" x="54.71554" y="152.595146" style="fill: #1f77b4; stroke: #1f77b4"/>
     <use xlink:href="#m7803c6746d" x="56.019373" y="177.02386" style="fill: #1f77b4; stroke: #1f77b4"/>
     <use xlink:href="#m7803c6746d" x="57.323207" y="170.250643" style="fill: #1f77b4; stroke: #1f77b4"/>
     <use xlink:href="#m7803c6746d" x="58.62704" y="152.444409" style="fill: #1f77b4; stroke: #1f77b4"/>
     <use xlink:href="#m7803c6746d" x="59.930874" y="160.757584" style="fill: #1f77b4; stroke: #1f77b4"/>
     <use xlink:href="#m7803c6746d" x="61.234707" y="208.584415" style="fill: #1f77b4; stroke: #1f77b4"/>
     <use xlink:href="#m7803c6746d" x="62.538541" y="179.884222" style="fill: #1f77b4; stroke: #1f77b4"/>
     <use xlink:href="#m7803c6746d" x="63.842374" y="199.628742" style="fill: #1f77b4; stroke: #1f77b4"/>
     <use xlink:href="#m7803c6746d" x="65.146208" y="200.882658" style="fill: #1f77b4; stroke: #1f77b4"/>
     <use xlink:href="#m7803c6746d" x="66.450041" y="194.603418" style="fill: #1f77b4; stroke: #1f77b4"/>
     <use xlink:href="#m7803c6746d" x="67.753875" y="200.753882" style="fill: #1f77b4; stroke: #1f77b4"/>
     <use xlink:href="#m7803c6746d" x="69.057708" y="181.57442" style="fill: #1f77b4; stroke: #1f77b4"/>
     <use xlink:href="#m7803c6746d" x="70.361542" y="194.421106" style="fill: #1f77b4; stroke: #1f77b4"/>
     <use xlink:href="#m7803c6746d" x="71.665375" y="206.337273" style="fill: #1f77b4; stroke: #1f77b4"/>
     <use xlink:href="#m7803c6746d" x="72.969209" y="202.783496" style="fill: #1f77b4; stroke: #1f77b4"/>
     <use xlink:href="#m7803c6746d" x="74.273043" y="206.091456" style="fill: #1f77b4; stroke: #1f77b4"/>
     <use xlink:href="#m7803c6746d" x="75.576876" y="188.981296" style="fill: #1f77b4; stroke: #1f77b4"/>
     <use xlink:href="#m7803c6746d" x="76.88071" y="217.619583" style="fill: #1f77b4; stroke: #1f77b4"/>
     <use xlink:href="#m7803c6746d" x="78.184543" y="210.673657" style="fill: #1f77b4; stroke: #1f77b4"/>
     <use xlink:href="#m7803c6746d" x="79.488377" y="230.667423" style="fill: #1f77b4; stroke: #1f77b4"/>
     <use xlink:href="#m7803c6746d" x="80.79221" y="259.120766" style="fill: #1f77b4; stroke: #1f77b4"/>
     <use xlink:href="#m7803c6746d" x="82.096044" y="208.931807" style="fill: #1f77b4; stroke: #1f77b4"/>
     <use xlink:href="#m7803c6746d" x="83.399877" y="206.678362" style="fill: #1f77b4; stroke: #1f77b4"/>
     <use xlink:href="#m7803c6746d" x="84.703711" y="233.484352" style="fill: #1f77b4; stroke: #1f77b4"/>
     <use xlink:href="#m7803c6746d" x="86.007544" y="186.248814" style="fill: #1f77b4; stroke: #1f77b4"/>
     <use xlink:href="#m7803c6746d" x="87.311378" y="246.869949" style="fill: #1f77b4; stroke: #1f77b4"/>
     <use xlink:href="#m7803c6746d" x="88.615211" y="223.748189" style="fill: #1f77b4; stroke: #1f77b4"/>
     <use xlink:href="#m7803c6746d" x="89.919045" y="228.338898" style="fill: #1f77b4; stroke: #1f77b4"/>
     <use xlink:href="#m7803c6746d" x="91.222878" y="201.594799" style="fill: #1f77b4; stroke: #1f77b4"/>
     <use xlink:href="#m7803c6746d" x="92.526712" y="203.371283" style="fill: #1f77b4; stroke: #1f77b4"/>
     <use xlink:href="#m7803c6746d" x="93.830545" y="225.140557" style="fill: #1f77b4; stroke: #1f77b4"/>
     <use xlink:href="#m7803c6746d" x="95.134379" y="222.230676" style="fill: #1f77b4; stroke: #1f77b4"/>
     <use xlink:href="#m7803c6746d" x="96.438212" y="243.130984" style="fill: #1f77b4; stroke: #1f77b4"/>
     <use xlink:href="#m7803c6746d" x="97.742046" y="261.216" style="fill: #1f77b4; stroke: #1f77b4"/>
     <use xlink:href="#m7803c6746d" x="99.045879" y="235.588936" style="fill: #1f77b4; stroke: #1f77b4"/>
     <use xlink:href="#m7803c6746d" x="100.349713" y="227.99908" style="fill: #1f77b4; stroke: #1f77b4"/>
     <use xlink:href="#m7803c6746d" x="101.653546" y="211.240937" style="fill: #1f77b4; stroke: #1f77b4"/>
     <use xlink:href="#m7803c6746d" x="102.95738" y="212.09291" style="fill: #1f77b4; stroke: #1f77b4"/>
     <use xlink:href="#m7803c6746d" x="104.261213" y="237.92403" style="fill: #1f77b4; stroke: #1f77b4"/>
     <use xlink:href="#m7803c6746d" x="105.565047" y="236.886826" style="fill: #1f77b4; stroke: #1f77b4"/>
     <use xlink:href="#m7803c6746d" x="106.86888" y="249.127675" style="fill: #1f77b4; stroke: #1f77b4"/>
     <use xlink:href="#m7803c6746d" x="108.172714" y="255.32663" style="fill: #1f77b4; stroke: #1f77b4"/>
     <use xlink:href="#m7803c6746d" x="109.476547" y="260.123366" style="fill: #1f77b4; stroke: #1f77b4"/>
     <use xlink:href="#m7803c6746d" x="110.780381" y="201.713146" style="fill: #1f77b4; stroke: #1f77b4"/>
     <use xlink:href="#m7803c6746d" x="112.084214" y="241.267669" style="fill: #1f77b4; stroke: #1f77b4"/>
     <use xlink:href="#m7803c6746d" x="113.388048" y="240.225297" style="fill: #1f77b4; stroke: #1f77b4"/>
     <use xlink:href="#m7803c6746d" x="114.691882" y="253.347115" style="fill: #1f77b4; stroke: #1f77b4"/>
     <use xlink:href="#m7803c6746d" x="115.995715" y="220.859304" style="fill: #1f77b4; stroke: #1f77b4"/>
     <use xlink:href="#m7803c6746d" x="117.299549" y="259.172911" style="fill: #1f77b4; stroke: #1f77b4"/>
     <use xlink:href="#m7803c6746d" x="118.603382" y="236.698974" style="fill: #1f77b4; stroke: #1f77b4"/>
     <use xlink:href="#m7803c6746d" x="119.907216" y="247.577053" style="fill: #1f77b4; stroke: #1f77b4"/>
     <use xlink:href="#m7803c6746d" x="121.211049" y="226.94423" style="fill: #1f77b4; stroke: #1f77b4"/>
     <use xlink:href="#m7803c6746d" x="122.514883" y="241.205744" style="fill: #1f77b4; stroke: #1f77b4"/>
     <use xlink:href="#m7803c6746d" x="123.818716" y="251.787397" style="fill: #1f77b4; stroke: #1f77b4"/>
     <use xlink:href="#m7803c6746d" x="125.12255" y="233.148009" style="fill: #1f77b4; stroke: #1f77b4"/>
     <use xlink:href="#m7803c6746d" x="126.426383" y="225.629322" style="fill: #1f77b4; stroke: #1f77b4"/>
     <use xlink:href="#m7803c6746d" x="127.730217" y="231.192652" style="fill: #1f77b4; stroke: #1f77b4"/>
     <use xlink:href="#m7803c6746d" x="129.03405" y="227.153078" style="fill: #1f77b4; stroke: #1f77b4"/>
     <use xlink:href="#m7803c6746d" x="130.337884" y="241.874431" style="fill: #1f77b4; stroke: #1f77b4"/>
     <use xlink:href="#m7803c6746d" x="131.641717" y="237.21231" style="fill: #1f77b4; stroke: #1f77b4"/>
     <use xlink:href="#m7803c6746d" x="132.945551" y="241.837416" style="fill: #1f77b4; stroke: #1f77b4"/>
     <use xlink:href="#m7803c6746d" x="134.249384" y="236.463713" style="fill: #1f77b4; stroke: #1f77b4"/>
     <use xlink:href="#m7803c6746d" x="135.553218" y="243.345204" style="fill: #1f77b4; stroke: #1f77b4"/>
     <use xlink:href="#m7803c6746d" x="136.857051" y="257.565051" style="fill: #1f77b4; stroke: #1f77b4"/>
     <use xlink:href="#m7803c6746d" x="138.160885" y="226.636897" style="fill: #1f77b4; stroke: #1f77b4"/>
     <use xlink:href="#m7803c6746d" x="139.464718" y="235.46205" style="fill: #1f77b4; stroke: #1f77b4"/>
     <use xlink:href="#m7803c6746d" x="140.768552" y="254.665533" style="fill: #1f77b4; stroke: #1f77b4"/>
     <use xlink:href="#m7803c6746d" x="142.072385" y="220.639736" style="fill: #1f77b4; stroke: #1f77b4"/>
     <use xlink:href="#m7803c6746d" x="143.376219" y="242.070418" style="fill: #1f77b4; stroke: #1f77b4"/>
     <use xlink:href="#m7803c6746d" x="144.680052" y="226.165552" style="fill: #1f77b4; stroke: #1f77b4"/>
     <use xlink:href="#m7803c6746d" x="145.983886" y="214.759925" style="fill: #1f77b4; stroke: #1f77b4"/>
     <use xlink:href="#m7803c6746d" x="147.287719" y="223.796111" style="fill: #1f77b4; stroke: #1f77b4"/>
     <use xlink:href="#m7803c6746d" x="148.591553" y="207.013111" style="fill: #1f77b4; stroke: #1f77b4"/>
     <use xlink:href="#m7803c6746d" x="149.895386" y="244.432686" style="fill: #1f77b4; stroke: #1f77b4"/>
     <use xlink:href="#m7803c6746d" x="151.19922" y="217.57267" style="fill: #1f77b4; stroke: #1f77b4"/>
     <use xlink:href="#m7803c6746d" x="152.503053" y="234.337861" style="fill: #1f77b4; stroke: #1f77b4"/>
     <use xlink:href="#m7803c6746d" x="153.806887" y="236.649374" style="fill: #1f77b4; stroke: #1f77b4"/>
     <use xlink:href="#m7803c6746d" x="155.11072" y="231.287658" style="fill: #1f77b4; stroke: #1f77b4"/>
     <use xlink:href="#m7803c6746d" x="156.414554" y="226.304398" style="fill: #1f77b4; stroke: #1f77b4"/>
     <use xlink:href="#m7803c6746d" x="157.718388" y="219.696385" style="fill: #1f77b4; stroke: #1f77b4"/>
     <use xlink:href="#m7803c6746d" x="159.022221" y="238.528621" style="fill: #1f77b4; stroke: #1f77b4"/>
     <use xlink:href="#m7803c6746d" x="160.326055" y="204.684037" style="fill: #1f77b4; stroke: #1f77b4"/>
     <use xlink:href="#m7803c6746d" x="161.629888" y="210.892182" style="fill: #1f77b4; stroke: #1f77b4"/>
     <use xlink:href="#m7803c6746d" x="162.933722" y="242.184607" style="fill: #1f77b4; stroke: #1f77b4"/>
     <use xlink:href="#m7803c6746d" x="164.237555" y="192.941223" style="fill: #1f77b4; stroke: #1f77b4"/>
     <use xlink:href="#m7803c6746d" x="165.541389" y="185.605432" style="fill: #1f77b4; stroke: #1f77b4"/>
     <use xlink:href="#m7803c6746d" x="166.845222" y="196.274334" style="fill: #1f77b4; stroke: #1f77b4"/>
     <use xlink:href="#m7803c6746d" x="168.149056" y="217.208303" style="fill: #1f77b4; stroke: #1f77b4"/>
     <use xlink:href="#m7803c6746d" x="169.452889" y="230.634232" style="fill: #1f77b4; stroke: #1f77b4"/>
     <use xlink:href="#m7803c6746d" x="170.756723" y="195.731662" style="fill: #1f77b4; stroke: #1f77b4"/>
     <use xlink:href="#m7803c6746d" x="172.060556" y="218.213016" style="fill: #1f77b4; stroke: #1f77b4"/>
     <use xlink:href="#m7803c6746d" x="173.36439" y="191.289686" style="fill: #1f77b4; stroke: #1f77b4"/>
     <use xlink:href="#m7803c6746d" x="174.668223" y="206.643637" style="fill: #1f77b4; stroke: #1f77b4"/>
     <use xlink:href="#m7803c6746d" x="175.972057" y="193.430659" style="fill: #1f77b4; stroke: #1f77b4"/>
     <use xlink:href="#m7803c6746d" x="177.27589" y="202.452381" style="fill: #1f77b4; stroke: #1f77b4"/>
     <use xlink:href="#m7803c6746d" x="178.579724" y="195.916671" style="fill: #1f77b4; stroke: #1f77b4"/>
     <use xlink:href="#m7803c6746d" x="179.883557" y="206.131775" style="fill: #1f77b4; stroke: #1f77b4"/>
     <use xlink:href="#m7803c6746d" x="181.187391" y="176.744961" style="fill: #1f77b4; stroke: #1f77b4"/>
     <use xlink:href="#m7803c6746d" x="182.491224" y="202.365441" style="fill: #1f77b4; stroke: #1f77b4"/>
     <use xlink:href="#m7803c6746d" x="183.795058" y="196.993685" style="fill: #1f77b4; stroke: #1f77b4"/>
     <use xlink:href="#m7803c6746d" x="185.098891" y="172.291554" style="fill: #1f77b4; stroke: #1f77b4"/>
     <use xlink:href="#m7803c6746d" x="186.402725" y="223.066614" style="fill: #1f77b4; stroke: #1f77b4"/>
     <use xlink:href="#m7803c6746d" x="187.706558" y="220.836725" style="fill: #1f77b4; stroke: #1f77b4"/>
     <use xlink:href="#m7803c6746d" x="189.010392" y="183.953969" style="fill: #1f77b4; stroke: #1f77b4"/>
     <use xlink:href="#m7803c6746d" x="190.314225" y="217.267941" style="fill: #1f77b4; stroke: #1f77b4"/>
     <use xlink:href="#m7803c6746d" x="191.618059" y="166.321894" style="fill: #1f77b4; stroke: #1f77b4"/>
     <use xlink:href="#m7803c6746d" x="192.921892" y="203.059927" style="fill: #1f77b4; stroke: #1f77b4"/>
     <use xlink:href="#m7803c6746d" x="194.225726" y="207.37605" style="fill: #1f77b4; stroke: #1f77b4"/>
     <use xlink:href="#m7803c6746d" x="195.529559" y="163.557877" style="fill: #1f77b4; stroke: #1f77b4"/>
     <use xlink:href="#m7803c6746d" x="196.833393" y="169.599286" style="fill: #1f77b4; stroke: #1f77b4"/>
     <use xlink:href="#m7803c6746d" x="198.137227" y="162.345951" style="fill: #1f77b4; stroke: #1f77b4"/>
     <use xlink:href="#m7803c6746d" x="199.44106" y="176.689556" style="fill: #1f77b4; stroke: #1f77b4"/>
     <use xlink:href="#m7803c6746d" x="200.744894" y="203.934759" style="fill: #1f77b4; stroke: #1f77b4"/>
     <use xlink:href="#m7803c6746d" x="202.048727" y="158.467198" style="fill: #1f77b4; stroke: #1f77b4"/>
     <use xlink:href="#m7803c6746d" x="203.352561" y="192.281084" style="fill: #1f77b4; stroke: #1f77b4"/>
     <use xlink:href="#m7803c6746d" x="204.656394" y="174.048597" style="fill: #1f77b4; stroke: #1f77b4"/>
     <use xlink:href="#m7803c6746d" x="205.960228" y="170.639407" style="fill: #1f77b4; stroke: #1f77b4"/>
     <use xlink:href="#m7803c6746d" x="207.264061" y="187.202343" style="fill: #1f77b4; stroke: #1f77b4"/>
     <use xlink:href="#m7803c6746d" x="208.567895" y="173.781489" style="fill: #1f77b4; stroke: #1f77b4"/>
     <use xlink:href="#m7803c6746d" x="209.871728" y="167.740087" style="fill: #1f77b4; stroke: #1f77b4"/>
     <use xlink:href="#m7803c6746d" x="211.175562" y="175.373212" style="fill: #1f77b4; stroke: #1f77b4"/>
     <use xlink:href="#m7803c6746d" x="212.479395" y="197.900732" style="fill: #1f77b4; stroke: #1f77b4"/>
     <use xlink:href="#m7803c6746d" x="213.783229" y="174.391573" style="fill: #1f77b4; stroke: #1f77b4"/>
     <use xlink:href="#m7803c6746d" x="215.087062" y="156.797222" style="fill: #1f77b4; stroke: #1f77b4"/>
     <use xlink:href="#m7803c6746d" x="216.390896" y="188.044503" style="fill: #1f77b4; stroke: #1f77b4"/>
     <use xlink:href="#m7803c6746d" x="217.694729" y="178.182925" style="fill: #1f77b4; stroke: #1f77b4"/>
     <use xlink:href="#m7803c6746d" x="218.998563" y="181.621119" style="fill: #1f77b4; stroke: #1f77b4"/>
     <use xlink:href="#m7803c6746d" x="220.302396" y="143.885902" style="fill: #1f77b4; stroke: #1f77b4"/>
     <use xlink:href="#m7803c6746d" x="221.60623" y="161.597644" style="fill: #1f77b4; stroke: #1f77b4"/>
     <use xlink:href="#m7803c6746d" x="222.910063" y="164.693805" style="fill: #1f77b4; stroke: #1f77b4"/>
     <use xlink:href="#m7803c6746d" x="224.213897" y="182.405447" style="fill: #1f77b4; stroke: #1f77b4"/>
     <use xlink:href="#m7803c6746d" x="225.51773" y="160.280209" style="fill: #1f77b4; stroke: #1f77b4"/>
     <use xlink:href="#m7803c6746d" x="226.821564" y="178.565756" style="fill: #1f77b4; stroke: #1f77b4"/>
     <use xlink:href="#m7803c6746d" x="228.125397" y="166.09466" style="fill: #1f77b4; stroke: #1f77b4"/>
     <use xlink:href="#m7803c6746d" x="229.429231" y="175.629428" style="fill: #1f77b4; stroke: #1f77b4"/>
     <use xlink:href="#m7803c6746d" x="230.733064" y="153.443257" style="fill: #1f77b4; stroke: #1f77b4"/>
     <use xlink:href="#m7803c6746d" x="232.036898" y="153.876481" style="fill: #1f77b4; stroke: #1f77b4"/>
     <use xlink:href="#m7803c6746d" x="233.340731" y="165.281679" style="fill: #1f77b4; stroke: #1f77b4"/>
     <use xlink:href="#m7803c6746d" x="234.644565" y="154.430157" style="fill: #1f77b4; stroke: #1f77b4"/>
     <use xlink:href="#m7803c6746d" x="235.948398" y="177.111882" style="fill: #1f77b4; stroke: #1f77b4"/>
     <use xlink:href="#m7803c6746d" x="237.252232" y="182.316185" style="fill: #1f77b4; stroke: #1f77b4"/>
     <use xlink:href="#m7803c6746d" x="238.556066" y="150.211174" style="fill: #1f77b4; stroke: #1f77b4"/>
     <use xlink:href="#m7803c6746d" x="239.859899" y="153.401835" style="fill: #1f77b4; stroke: #1f77b4"/>
     <use xlink:href="#m7803c6746d" x="241.163733" y="144.719059" style="fill: #1f77b4; stroke: #1f77b4"/>
     <use xlink:href="#m7803c6746d" x="242.467566" y="115.533455" style="fill: #1f77b4; stroke: #1f77b4"/>
     <use xlink:href="#m7803c6746d" x="243.7714" y="137.397844" style="fill: #1f77b4; stroke: #1f77b4"/>
     <use xlink:href="#m7803c6746d" x="245.075233" y="165.967413" style="fill: #1f77b4; stroke: #1f77b4"/>
     <use xlink:href="#m7803c6746d" x="246.379067" y="132.264847" style="fill: #1f77b4; stroke: #1f77b4"/>
     <use xlink:href="#m7803c6746d" x="247.6829" y="170.053509" style="fill: #1f77b4; stroke: #1f77b4"/>
     <use xlink:href="#m7803c6746d" x="248.986734" y="155.180377" style="fill: #1f77b4; stroke: #1f77b4"/>
     <use xlink:href="#m7803c6746d" x="250.290567" y="147.691159" style="fill: #1f77b4; stroke: #1f77b4"/>
     <use xlink:href="#m7803c6746d" x="251.594401" y="117.961907" style="fill: #1f77b4; stroke: #1f77b4"/>
     <use xlink:href="#m7803c6746d" x="252.898234" y="156.15058" style="fill: #1f77b4; stroke: #1f77b4"/>
     <use xlink:href="#m7803c6746d" x="254.202068" y="156.269138" style="fill: #1f77b4; stroke: #1f77b4"/>
     <use xlink:href="#m7803c6746d" x="255.505901" y="143.416505" style="fill: #1f77b4; stroke: #1f77b4"/>
     <use xlink:href="#m7803c6746d" x="256.809735" y="151.277176" style="fill: #1f77b4; stroke: #1f77b4"/>
     <use xlink:href="#m7803c6746d" x="258.113568" y="121.408798" style="fill: #1f77b4; stroke: #1f77b4"/>
     <use xlink:href="#m7803c6746d" x="259.417402" y="155.565981" style="fill: #1f77b4; stroke: #1f77b4"/>
     <use xlink:href="#m7803c6746d" x="260.721235" y="155.456301" style="fill: #1f77b4; stroke: #1f77b4"/>
     <use xlink:href="#m7803c6746d" x="262.025069" y="142.896233" style="fill: #1f77b4; stroke: #1f77b4"/>
     <use xlink:href="#m7803c6746d" x="263.328902" y="142.669142" style="fill: #1f77b4; stroke: #1f77b4"/>
     <use xlink:href="#m7803c6746d" x="264.632736" y="102.588593" style="fill: #1f77b4; stroke: #1f77b4"/>
     <use xlink:href="#m7803c6746d" x="265.936569" y="117.098279" style="fill: #1f77b4; stroke: #1f77b4"/>
     <use xlink:href="#m7803c6746d" x="267.240403" y="129.713993" style="fill: #1f77b4; stroke: #1f77b4"/>
     <use xlink:href="#m7803c6746d" x="268.544236" y="149.556789" style="fill: #1f77b4; stroke: #1f77b4"/>
     <use xlink:href="#m7803c6746d" x="269.84807" y="115.208618" style="fill: #1f77b4; stroke: #1f77b4"/>
     <use xlink:href="#m7803c6746d" x="271.151903" y="143.568186" style="fill: #1f77b4; stroke: #1f77b4"/>
     <use xlink:href="#m7803c6746d" x="272.455737" y="151.10224" style="fill: #1f77b4; stroke: #1f77b4"/>
     <use xlink:href="#m7803c6746d" x="273.75957" y="106.134468" style="fill: #1f77b4; stroke: #1f77b4"/>
     <use xlink:href="#m7803c6746d" x="275.063404" y="118.900683" style="fill: #1f77b4; stroke: #1f77b4"/>
     <use xlink:href="#m7803c6746d" x="276.367237" y="108.038431" style="fill: #1f77b4; stroke: #1f77b4"/>
     <use xlink:href="#m7803c6746d" x="277.671071" y="116.497507" style="fill: #1f77b4; stroke: #1f77b4"/>
     <use xlink:href="#m7803c6746d" x="278.974905" y="106.691153" style="fill: #1f77b4; stroke: #1f77b4"/>
     <use xlink:href="#m7803c6746d" x="280.278738" y="129.661416" style="fill: #1f77b4; stroke: #1f77b4"/>
     <use xlink:href="#m7803c6746d" x="281.582572" y="134.616196" style="fill: #1f77b4; stroke: #1f77b4"/>
     <use xlink:href="#m7803c6746d" x="282.886405" y="105.945665" style="fill: #1f77b4; stroke: #1f77b4"/>
     <use xlink:href="#m7803c6746d" x="284.190239" y="128.552834" style="fill: #1f77b4; stroke: #1f77b4"/>
     <use xlink:href="#m7803c6746d" x="285.494072" y="125.547723" style="fill: #1f77b4; stroke: #1f77b4"/>
     <use xlink:href="#m7803c6746d" x="286.797906" y="120.618881" style="fill: #1f77b4; stroke: #1f77b4"/>
     <use xlink:href="#m7803c6746d" x="288.101739" y="111.862621" style="fill: #1f77b4; stroke: #1f77b4"/>
     <use xlink:href="#m7803c6746d" x="289.405573" y="116.636046" style="fill: #1f77b4; stroke: #1f77b4"/>
     <use xlink:href="#m7803c6746d" x="290.709406" y="131.81535" style="fill: #1f77b4; stroke: #1f77b4"/>
     <use xlink:href="#m7803c6746d" x="292.01324" y="118.924777" style="fill: #1f77b4; stroke: #1f77b4"/>
     <use xlink:href="#m7803c6746d" x="293.317073" y="143.059111" style="fill: #1f77b4; stroke: #1f77b4"/>
     <use xlink:href="#m7803c6746d" x="294.620907" y="96.25277" style="fill: #1f77b4; stroke: #1f77b4"/>
     <use xlink:href="#m7803c6746d" x="295.92474" y="130.762899" style="fill: #1f77b4; stroke: #1f77b4"/>
     <use xlink:href="#m7803c6746d" x="297.228574" y="121.621362" style="fill: #1f77b4; stroke: #1f77b4"/>
     <use xlink:href="#m7803c6746d" x="298.532407" y="101.926414" style="fill: #1f77b4; stroke: #1f77b4"/>
     <use xlink:href="#m7803c6746d" x="299.836241" y="113.443969" style="fill: #1f77b4; stroke: #1f77b4"/>
     <use xlink:href="#m7803c6746d" x="301.140074" y="75.713611" style="fill: #1f77b4; stroke: #1f77b4"/>
     <use xlink:href="#m7803c6746d" x="302.443908" y="119.981176" style="fill: #1f77b4; stroke: #1f77b4"/>
     <use xlink:href="#m7803c6746d" x="303.747741" y="93.831242" style="fill: #1f77b4; stroke: #1f77b4"/>
     <use xlink:href="#m7803c6746d" x="305.051575" y="97.579789" style="fill: #1f77b4; stroke: #1f77b4"/>
     <use xlink:href="#m7803c6746d" x="306.355408" y="114.506019" style="fill: #1f77b4; stroke: #1f77b4"/>
     <use xlink:href="#m7803c6746d" x="307.659242" y="86.255536" style="fill: #1f77b4; stroke: #1f77b4"/>
     <use xlink:href="#m7803c6746d" x="308.963075" y="96.233132" style="fill: #1f77b4; stroke: #1f77b4"/>
     <use xlink:href="#m7803c6746d" x="310.266909" y="79.969753" style="fill: #1f77b4; stroke: #1f77b4"/>
     <use xlink:href="#m7803c6746d" x="311.570742" y="77.9919" style="fill: #1f77b4; stroke: #1f77b4"/>
     <use xlink:href="#m7803c6746d" x="312.874576" y="55.382317" style="fill: #1f77b4; stroke: #1f77b4"/>
     <use xlink:href="#m7803c6746d" x="314.178409" y="67.480552" style="fill: #1f77b4; stroke: #1f77b4"/>
     <use xlink:href="#m7803c6746d" x="315.482243" y="93.662214" style="fill: #1f77b4; stroke: #1f77b4"/>
     <use xlink:href="#m7803c6746d" x="316.786076" y="90.441522" style="fill: #1f77b4; stroke: #1f77b4"/>
     <use xlink:href="#m7803c6746d" x="318.08991" y="67.85129" style="fill: #1f77b4; stroke: #1f77b4"/>
     <use xlink:href="#m7803c6746d" x="319.393743" y="73.833351" style="fill: #1f77b4; stroke: #1f77b4"/>
     <use xlink:href="#m7803c6746d" x="320.697577" y="72.940883" style="fill: #1f77b4; stroke: #1f77b4"/>
     <use xlink:href="#m7803c6746d" x="322.001411" y="107.966146" style="fill: #1f77b4; stroke: #1f77b4"/>
     <use xlink:href="#m7803c6746d" x="323.305244" y="81.322153" style="fill: #1f77b4; stroke: #1f77b4"/>
     <use xlink:href="#m7803c6746d" x="324.609078" y="91.627284" style="fill: #1f77b4; stroke: #1f77b4"/>
     <use xlink:href="#m7803c6746d" x="325.912911" y="74.193934" style="fill: #1f77b4; stroke: #1f77b4"/>
     <use xlink:href="#m7803c6746d" x="327.216745" y="79.126919" style="fill: #1f77b4; stroke: #1f77b4"/>
     <use xlink:href="#m7803c6746d" x="328.520578" y="61.852383" style="fill: #1f77b4; stroke: #1f77b4"/>
     <use xlink:href="#m7803c6746d" x="329.824412" y="70.232432" style="fill: #1f77b4; stroke: #1f77b4"/>
     <use xlink:href="#m7803c6746d" x="331.128245" y="61.600748" style="fill: #1f77b4; stroke: #1f77b4"/>
     <use xlink:href="#m7803c6746d" x="332.432079" y="80.555142" style="fill: #1f77b4; stroke: #1f77b4"/>
     <use xlink:href="#m7803c6746d" x="333.735912" y="87.101127" style="fill: #1f77b4; stroke: #1f77b4"/>
     <use xlink:href="#m7803c6746d" x="335.039746" y="77.430769" style="fill: #1f77b4; stroke: #1f77b4"/>
     <use xlink:href="#m7803c6746d" x="336.343579" y="70.02752" style="fill: #1f77b4; stroke: #1f77b4"/>
     <use xlink:href="#m7803c6746d" x="337.647413" y="62.576383" style="fill: #1f77b4; stroke: #1f77b4"/>
     <use xlink:href="#m7803c6746d" x="338.951246" y="31.354672" style="fill: #1f77b4; stroke: #1f77b4"/>
     <use xlink:href="#m7803c6746d" x="340.25508" y="67.125576" style="fill: #1f77b4; stroke: #1f77b4"/>
     <use xlink:href="#m7803c6746d" x="341.558913" y="80.665547" style="fill: #1f77b4; stroke: #1f77b4"/>
     <use xlink:href="#m7803c6746d" x="342.862747" y="69.799556" style="fill: #1f77b4; stroke: #1f77b4"/>
     <use xlink:href="#m7803c6746d" x="344.16658" y="70.591714" style="fill: #1f77b4; stroke: #1f77b4"/>
     <use xlink:href="#m7803c6746d" x="345.470414" y="54.362393" style="fill: #1f77b4; stroke: #1f77b4"/>
     <use xlink:href="#m7803c6746d" x="346.774247" y="85.67192" style="fill: #1f77b4; stroke: #1f77b4"/>
     <use xlink:href="#m7803c6746d" x="348.078081" y="58.89106" style="fill: #1f77b4; stroke: #1f77b4"/>
     <use xlink:href="#m7803c6746d" x="349.381914" y="56.315662" style="fill: #1f77b4; stroke: #1f77b4"/>
     <use xlink:href="#m7803c6746d" x="350.685748" y="54.024355" style="fill: #1f77b4; stroke: #1f77b4"/>
     <use xlink:href="#m7803c6746d" x="351.989581" y="66.236297" style="fill: #1f77b4; stroke: #1f77b4"/>
     <use xlink:href="#m7803c6746d" x="353.293415" y="59.405156" style="fill: #1f77b4; stroke: #1f77b4"/>
     <use xlink:href="#m7803c6746d" x="354.597248" y="77.335722" style="fill: #1f77b4; stroke: #1f77b4"/>
     <use xlink:href="#m7803c6746d" x="355.901082" y="61.357092" style="fill: #1f77b4; stroke: #1f77b4"/>
     <use xlink:href="#m7803c6746d" x="357.204915" y="61.08502" style="fill: #1f77b4; stroke: #1f77b4"/>
     <use xlink:href="#m7803c6746d" x="358.508749" y="44.660488" style="fill: #1f77b4; stroke: #1f77b4"/>
     <use xlink:href="#m7803c6746d" x="359.812582" y="68.786932" style="fill: #1f77b4; stroke: #1f77b4"/>
     <use xlink:href="#m7803c6746d" x="361.116416" y="36.693007" style="fill: #1f77b4; stroke: #1f77b4"/>
     <use xlink:href="#m7803c6746d" x="362.42025" y="24.211478" style="fill: #1f77b4; stroke: #1f77b4"/>
     <use xlink:href="#m7803c6746d" x="363.724083" y="80.261224" style="fill: #1f77b4; stroke: #1f77b4"/>
     <use xlink:href="#m7803c6746d" x="365.027917" y="39.222668" style="fill: #1f77b4; stroke: #1f77b4"/>
     <use xlink:href="#m7803c6746d" x="366.33175" y="34.160707" style="fill: #1f77b4; stroke: #1f77b4"/>
     <use xlink:href="#m7803c6746d" x="367.635584" y="54.172311" style="fill: #1f77b4; stroke: #1f77b4"/>
     <use xlink:href="#m7803c6746d" x="368.939417" y="49.283838" style="fill: #1f77b4; stroke: #1f77b4"/>
     <use xlink:href="#m7803c6746d" x="370.243251" y="44.010051" style="fill: #1f77b4; stroke: #1f77b4"/>
     <use xlink:href="#m7803c6746d" x="371.547084" y="45.616351" style="fill: #1f77b4; stroke: #1f77b4"/>
     <use xlink:href="#m7803c6746d" x="372.850918" y="44.7634" style="fill: #1f77b4; stroke: #1f77b4"/>
     <use xlink:href="#m7803c6746d" x="374.154751" y="65.632312" style="fill: #1f77b4; stroke: #1f77b4"/>
     <use xlink:href="#m7803c6746d" x="375.458585" y="19.296" style="fill: #1f77b4; stroke: #1f77b4"/>
     <use xlink:href="#m7803c6746d" x="376.762418" y="19.436541" style="fill: #1f77b4; stroke: #1f77b4"/>
     <use xlink:href="#m7803c6746d" x="378.066252" y="48.74015" style="fill: #1f77b4; stroke: #1f77b4"/>
     <use xlink:href="#m7803c6746d" x="379.370085" y="58.183346" style="fill: #1f77b4; stroke: #1f77b4"/>
    </g>
   </g>
   <g id="line2d_15">
    <path d="M 54.71554 160.931271 
L 57.323207 168.979661 
L 59.930874 176.409225 
L 62.538541 183.254326 
L 65.146208 189.547476 
L 67.753875 195.319432 
L 70.361542 200.599294 
L 72.969209 205.414595 
L 75.576876 209.791381 
L 78.184543 213.754292 
L 80.79221 217.326639 
L 83.399877 220.530477 
L 86.007544 223.386666 
L 88.615211 225.914945 
L 91.222878 228.13398 
L 93.830545 230.061435 
L 96.438212 231.714015 
L 99.045879 233.107522 
L 101.653546 234.256904 
L 104.261213 235.176301 
L 106.86888 235.879087 
L 109.476547 236.37791 
L 112.084214 236.684735 
L 114.691882 236.810876 
L 117.299549 236.767037 
L 119.907216 236.563337 
L 123.818716 235.978846 
L 127.730217 235.086224 
L 131.641717 233.913187 
L 135.553218 232.485221 
L 139.464718 230.825756 
L 143.376219 228.956332 
L 148.591553 226.171153 
L 153.806887 223.090295 
L 159.022221 219.751784 
L 165.541389 215.26772 
L 172.060556 210.492345 
L 179.883557 204.448302 
L 189.010392 197.058006 
L 199.44106 188.284533 
L 212.479395 176.997498 
L 234.644565 157.445 
L 260.721235 134.511484 
L 277.671071 119.901133 
L 293.317073 106.71835 
L 307.659242 94.929285 
L 322.001411 83.444431 
L 335.039746 73.278162 
L 348.078081 63.378311 
L 361.116416 53.746417 
L 374.154751 44.381669 
L 379.370085 40.710048 
L 379.370085 40.710048 
" clip-path="url(#p2e6d812ecc)" style="fill: none; stroke: #ff7f0e; stroke-width: 1.5; stroke-linecap: square"/>
   </g>
   <g id="patch_3">
    <path d="M 38.482813 273.312 
L 38.482813 7.2 
" style="fill: none; stroke: #000000; stroke-width: 0.8; stroke-linejoin: miter; stroke-linecap: square"/>
   </g>
   <g id="patch_4">
    <path d="M 395.602813 273.312 
L 395.602813 7.2 
" style="fill: none; stroke: #000000; stroke-width: 0.8; stroke-linejoin: miter; stroke-linecap: square"/>
   </g>
   <g id="patch_5">
    <path d="M 38.482813 273.312 
L 395.602813 273.312 
" style="fill: none; stroke: #000000; stroke-width: 0.8; stroke-linejoin: miter; stroke-linecap: square"/>
   </g>
   <g id="patch_6">
    <path d="M 38.482813 7.2 
L 395.602813 7.2 
" style="fill: none; stroke: #000000; stroke-width: 0.8; stroke-linejoin: miter; stroke-linecap: square"/>
   </g>
   <g id="legend_1">
    <g id="patch_7">
     <path d="M 45.482813 29.878125 
L 112.510938 29.878125 
Q 114.510938 29.878125 114.510938 27.878125 
L 114.510938 14.2 
Q 114.510938 12.2 112.510938 12.2 
L 45.482813 12.2 
Q 43.482813 12.2 43.482813 14.2 
L 43.482813 27.878125 
Q 43.482813 29.878125 45.482813 29.878125 
z
" style="fill: #ffffff; opacity: 0.8; stroke: #cccccc; stroke-linejoin: miter"/>
    </g>
    <g id="line2d_16">
     <path d="M 47.482813 20.298437 
L 57.482813 20.298437 
L 67.482813 20.298437 
" style="fill: none; stroke: #ff7f0e; stroke-width: 1.5; stroke-linecap: square"/>
    </g>
    <g id="text_14">
     <!-- best fit -->
     <g transform="translate(75.482813 23.798437) scale(0.1 -0.1)">
      <defs>
       <path id="DejaVuSans-62" d="M 3116 1747 
Q 3116 2381 2855 2742 
Q 2594 3103 2138 3103 
Q 1681 3103 1420 2742 
Q 1159 2381 1159 1747 
Q 1159 1113 1420 752 
Q 1681 391 2138 391 
Q 2594 391 2855 752 
Q 3116 1113 3116 1747 
z
M 1159 2969 
Q 1341 3281 1617 3432 
Q 1894 3584 2278 3584 
Q 2916 3584 3314 3078 
Q 3713 2572 3713 1747 
Q 3713 922 3314 415 
Q 2916 -91 2278 -91 
Q 1894 -91 1617 61 
Q 1341 213 1159 525 
L 1159 0 
L 581 0 
L 581 4863 
L 1159 4863 
L 1159 2969 
z
" transform="scale(0.015625)"/>
       <path id="DejaVuSans-65" d="M 3597 1894 
L 3597 1613 
L 953 1613 
Q 991 1019 1311 708 
Q 1631 397 2203 397 
Q 2534 397 2845 478 
Q 3156 559 3463 722 
L 3463 178 
Q 3153 47 2828 -22 
Q 2503 -91 2169 -91 
Q 1331 -91 842 396 
Q 353 884 353 1716 
Q 353 2575 817 3079 
Q 1281 3584 2069 3584 
Q 2775 3584 3186 3129 
Q 3597 2675 3597 1894 
z
M 3022 2063 
Q 3016 2534 2758 2815 
Q 2500 3097 2075 3097 
Q 1594 3097 1305 2825 
Q 1016 2553 972 2059 
L 3022 2063 
z
" transform="scale(0.015625)"/>
       <path id="DejaVuSans-73" d="M 2834 3397 
L 2834 2853 
Q 2591 2978 2328 3040 
Q 2066 3103 1784 3103 
Q 1356 3103 1142 2972 
Q 928 2841 928 2578 
Q 928 2378 1081 2264 
Q 1234 2150 1697 2047 
L 1894 2003 
Q 2506 1872 2764 1633 
Q 3022 1394 3022 966 
Q 3022 478 2636 193 
Q 2250 -91 1575 -91 
Q 1294 -91 989 -36 
Q 684 19 347 128 
L 347 722 
Q 666 556 975 473 
Q 1284 391 1588 391 
Q 1994 391 2212 530 
Q 2431 669 2431 922 
Q 2431 1156 2273 1281 
Q 2116 1406 1581 1522 
L 1381 1569 
Q 847 1681 609 1914 
Q 372 2147 372 2553 
Q 372 3047 722 3315 
Q 1072 3584 1716 3584 
Q 2034 3584 2315 3537 
Q 2597 3491 2834 3397 
z
" transform="scale(0.015625)"/>
       <path id="DejaVuSans-74" d="M 1172 4494 
L 1172 3500 
L 2356 3500 
L 2356 3053 
L 1172 3053 
L 1172 1153 
Q 1172 725 1289 603 
Q 1406 481 1766 481 
L 2356 481 
L 2356 0 
L 1766 0 
Q 1100 0 847 248 
Q 594 497 594 1153 
L 594 3053 
L 172 3053 
L 172 3500 
L 594 3500 
L 594 4494 
L 1172 4494 
z
" transform="scale(0.015625)"/>
       <path id="DejaVuSans-20" transform="scale(0.015625)"/>
       <path id="DejaVuSans-66" d="M 2375 4863 
L 2375 4384 
L 1825 4384 
Q 1516 4384 1395 4259 
Q 1275 4134 1275 3809 
L 1275 3500 
L 2222 3500 
L 2222 3053 
L 1275 3053 
L 1275 0 
L 697 0 
L 697 3053 
L 147 3053 
L 147 3500 
L 697 3500 
L 697 3744 
Q 697 4328 969 4595 
Q 1241 4863 1831 4863 
L 2375 4863 
z
" transform="scale(0.015625)"/>
       <path id="DejaVuSans-69" d="M 603 3500 
L 1178 3500 
L 1178 0 
L 603 0 
L 603 3500 
z
M 603 4863 
L 1178 4863 
L 1178 4134 
L 603 4134 
L 603 4863 
z
" transform="scale(0.015625)"/>
      </defs>
      <use xlink:href="#DejaVuSans-62"/>
      <use xlink:href="#DejaVuSans-65" x="63.476562"/>
      <use xlink:href="#DejaVuSans-73" x="125"/>
      <use xlink:href="#DejaVuSans-74" x="177.099609"/>
      <use xlink:href="#DejaVuSans-20" x="216.308594"/>
      <use xlink:href="#DejaVuSans-66" x="248.095703"/>
      <use xlink:href="#DejaVuSans-69" x="283.300781"/>
      <use xlink:href="#DejaVuSans-74" x="311.083984"/>
     </g>
    </g>
   </g>
  </g>
 </g>
 <defs>
  <clipPath id="p2e6d812ecc">
   <rect x="38.482813" y="7.2" width="357.12" height="266.112"/>
  </clipPath>
 </defs>
</svg>
