<?xml version="1.0" encoding="utf-8" standalone="no"?>
<!DOCTYPE svg PUBLIC "-//W3C//DTD SVG 1.1//EN"
  "http://www.w3.org/Graphics/SVG/1.1/DTD/svg11.dtd">
<svg height="248.518125pt" version="1.1" viewBox="0 0 380.482812 248.518125" width="380.482812pt" xmlns="http://www.w3.org/2000/svg" xmlns:xlink="http://www.w3.org/1999/xlink">
 <metadata>
  <rdf:RDF xmlns:cc="http://creativecommons.org/ns#" xmlns:dc="http://purl.org/dc/elements/1.1/" xmlns:rdf="http://www.w3.org/1999/02/22-rdf-syntax-ns#">
   <cc:Work>
    <dc:type rdf:resource="http://purl.org/dc/dcmitype/StillImage"/>
    <dc:date>2021-10-14T14:44:48.943838</dc:date>
    <dc:format>image/svg+xml</dc:format>
    <dc:creator>
     <cc:Agent>
      <dc:title>Matplotlib v3.4.2, https://matplotlib.org/</dc:title>
     </cc:Agent>
    </dc:creator>
   </cc:Work>
  </rdf:RDF>
 </metadata>
 <defs>
  <style type="text/css">*{stroke-linecap:butt;stroke-linejoin:round;}</style>
 </defs>
 <g id="figure_1">
  <g id="patch_1">
   <path d="M -0 248.518125 
L 380.482812 248.518125 
L 380.482812 0 
L -0 0 
z
" style="fill:none;"/>
  </g>
  <g id="axes_1">
   <g id="patch_2">
    <path d="M 38.482813 224.64 
L 373.282813 224.64 
L 373.282813 7.2 
L 38.482813 7.2 
z
" style="fill:#ffffff;"/>
   </g>
   <g id="matplotlib.axis_1">
    <g id="xtick_1">
     <g id="line2d_1">
      <defs>
       <path d="M 0 0 
L 0 3.5 
" id="m535136d77a" style="stroke:#000000;stroke-width:0.8;"/>
      </defs>
      <g>
       <use style="stroke:#000000;stroke-width:0.8;" x="87.519176" xlink:href="#m535136d77a" y="224.64"/>
      </g>
     </g>
     <g id="text_1">
      <!-- 2 -->
      <g transform="translate(84.337926 239.238438)scale(0.1 -0.1)">
       <defs>
        <path d="M 1228 531 
L 3431 531 
L 3431 0 
L 469 0 
L 469 531 
Q 828 903 1448 1529 
Q 2069 2156 2228 2338 
Q 2531 2678 2651 2914 
Q 2772 3150 2772 3378 
Q 2772 3750 2511 3984 
Q 2250 4219 1831 4219 
Q 1534 4219 1204 4116 
Q 875 4013 500 3803 
L 500 4441 
Q 881 4594 1212 4672 
Q 1544 4750 1819 4750 
Q 2544 4750 2975 4387 
Q 3406 4025 3406 3419 
Q 3406 3131 3298 2873 
Q 3191 2616 2906 2266 
Q 2828 2175 2409 1742 
Q 1991 1309 1228 531 
z
" id="DejaVuSans-32" transform="scale(0.015625)"/>
       </defs>
       <use xlink:href="#DejaVuSans-32"/>
      </g>
     </g>
    </g>
    <g id="xtick_2">
     <g id="line2d_2">
      <g>
       <use style="stroke:#000000;stroke-width:0.8;" x="155.15554" xlink:href="#m535136d77a" y="224.64"/>
      </g>
     </g>
     <g id="text_2">
      <!-- 4 -->
      <g transform="translate(151.97429 239.238438)scale(0.1 -0.1)">
       <defs>
        <path d="M 2419 4116 
L 825 1625 
L 2419 1625 
L 2419 4116 
z
M 2253 4666 
L 3047 4666 
L 3047 1625 
L 3713 1625 
L 3713 1100 
L 3047 1100 
L 3047 0 
L 2419 0 
L 2419 1100 
L 313 1100 
L 313 1709 
L 2253 4666 
z
" id="DejaVuSans-34" transform="scale(0.015625)"/>
       </defs>
       <use xlink:href="#DejaVuSans-34"/>
      </g>
     </g>
    </g>
    <g id="xtick_3">
     <g id="line2d_3">
      <g>
       <use style="stroke:#000000;stroke-width:0.8;" x="222.791903" xlink:href="#m535136d77a" y="224.64"/>
      </g>
     </g>
     <g id="text_3">
      <!-- 6 -->
      <g transform="translate(219.610653 239.238438)scale(0.1 -0.1)">
       <defs>
        <path d="M 2113 2584 
Q 1688 2584 1439 2293 
Q 1191 2003 1191 1497 
Q 1191 994 1439 701 
Q 1688 409 2113 409 
Q 2538 409 2786 701 
Q 3034 994 3034 1497 
Q 3034 2003 2786 2293 
Q 2538 2584 2113 2584 
z
M 3366 4563 
L 3366 3988 
Q 3128 4100 2886 4159 
Q 2644 4219 2406 4219 
Q 1781 4219 1451 3797 
Q 1122 3375 1075 2522 
Q 1259 2794 1537 2939 
Q 1816 3084 2150 3084 
Q 2853 3084 3261 2657 
Q 3669 2231 3669 1497 
Q 3669 778 3244 343 
Q 2819 -91 2113 -91 
Q 1303 -91 875 529 
Q 447 1150 447 2328 
Q 447 3434 972 4092 
Q 1497 4750 2381 4750 
Q 2619 4750 2861 4703 
Q 3103 4656 3366 4563 
z
" id="DejaVuSans-36" transform="scale(0.015625)"/>
       </defs>
       <use xlink:href="#DejaVuSans-36"/>
      </g>
     </g>
    </g>
    <g id="xtick_4">
     <g id="line2d_4">
      <g>
       <use style="stroke:#000000;stroke-width:0.8;" x="290.428267" xlink:href="#m535136d77a" y="224.64"/>
      </g>
     </g>
     <g id="text_4">
      <!-- 8 -->
      <g transform="translate(287.247017 239.238438)scale(0.1 -0.1)">
       <defs>
        <path d="M 2034 2216 
Q 1584 2216 1326 1975 
Q 1069 1734 1069 1313 
Q 1069 891 1326 650 
Q 1584 409 2034 409 
Q 2484 409 2743 651 
Q 3003 894 3003 1313 
Q 3003 1734 2745 1975 
Q 2488 2216 2034 2216 
z
M 1403 2484 
Q 997 2584 770 2862 
Q 544 3141 544 3541 
Q 544 4100 942 4425 
Q 1341 4750 2034 4750 
Q 2731 4750 3128 4425 
Q 3525 4100 3525 3541 
Q 3525 3141 3298 2862 
Q 3072 2584 2669 2484 
Q 3125 2378 3379 2068 
Q 3634 1759 3634 1313 
Q 3634 634 3220 271 
Q 2806 -91 2034 -91 
Q 1263 -91 848 271 
Q 434 634 434 1313 
Q 434 1759 690 2068 
Q 947 2378 1403 2484 
z
M 1172 3481 
Q 1172 3119 1398 2916 
Q 1625 2713 2034 2713 
Q 2441 2713 2670 2916 
Q 2900 3119 2900 3481 
Q 2900 3844 2670 4047 
Q 2441 4250 2034 4250 
Q 1625 4250 1398 4047 
Q 1172 3844 1172 3481 
z
" id="DejaVuSans-38" transform="scale(0.015625)"/>
       </defs>
       <use xlink:href="#DejaVuSans-38"/>
      </g>
     </g>
    </g>
    <g id="xtick_5">
     <g id="line2d_5">
      <g>
       <use style="stroke:#000000;stroke-width:0.8;" x="358.064631" xlink:href="#m535136d77a" y="224.64"/>
      </g>
     </g>
     <g id="text_5">
      <!-- 10 -->
      <g transform="translate(351.702131 239.238438)scale(0.1 -0.1)">
       <defs>
        <path d="M 794 531 
L 1825 531 
L 1825 4091 
L 703 3866 
L 703 4441 
L 1819 4666 
L 2450 4666 
L 2450 531 
L 3481 531 
L 3481 0 
L 794 0 
L 794 531 
z
" id="DejaVuSans-31" transform="scale(0.015625)"/>
        <path d="M 2034 4250 
Q 1547 4250 1301 3770 
Q 1056 3291 1056 2328 
Q 1056 1369 1301 889 
Q 1547 409 2034 409 
Q 2525 409 2770 889 
Q 3016 1369 3016 2328 
Q 3016 3291 2770 3770 
Q 2525 4250 2034 4250 
z
M 2034 4750 
Q 2819 4750 3233 4129 
Q 3647 3509 3647 2328 
Q 3647 1150 3233 529 
Q 2819 -91 2034 -91 
Q 1250 -91 836 529 
Q 422 1150 422 2328 
Q 422 3509 836 4129 
Q 1250 4750 2034 4750 
z
" id="DejaVuSans-30" transform="scale(0.015625)"/>
       </defs>
       <use xlink:href="#DejaVuSans-31"/>
       <use x="63.623047" xlink:href="#DejaVuSans-30"/>
      </g>
     </g>
    </g>
   </g>
   <g id="matplotlib.axis_2">
    <g id="ytick_1">
     <g id="line2d_6">
      <defs>
       <path d="M 0 0 
L -3.5 0 
" id="md90e7f2c38" style="stroke:#000000;stroke-width:0.8;"/>
      </defs>
      <g>
       <use style="stroke:#000000;stroke-width:0.8;" x="38.482813" xlink:href="#md90e7f2c38" y="207.988646"/>
      </g>
     </g>
     <g id="text_6">
      <!-- −3.2 -->
      <g transform="translate(7.2 211.787865)scale(0.1 -0.1)">
       <defs>
        <path d="M 678 2272 
L 4684 2272 
L 4684 1741 
L 678 1741 
L 678 2272 
z
" id="DejaVuSans-2212" transform="scale(0.015625)"/>
        <path d="M 2597 2516 
Q 3050 2419 3304 2112 
Q 3559 1806 3559 1356 
Q 3559 666 3084 287 
Q 2609 -91 1734 -91 
Q 1441 -91 1130 -33 
Q 819 25 488 141 
L 488 750 
Q 750 597 1062 519 
Q 1375 441 1716 441 
Q 2309 441 2620 675 
Q 2931 909 2931 1356 
Q 2931 1769 2642 2001 
Q 2353 2234 1838 2234 
L 1294 2234 
L 1294 2753 
L 1863 2753 
Q 2328 2753 2575 2939 
Q 2822 3125 2822 3475 
Q 2822 3834 2567 4026 
Q 2313 4219 1838 4219 
Q 1578 4219 1281 4162 
Q 984 4106 628 3988 
L 628 4550 
Q 988 4650 1302 4700 
Q 1616 4750 1894 4750 
Q 2613 4750 3031 4423 
Q 3450 4097 3450 3541 
Q 3450 3153 3228 2886 
Q 3006 2619 2597 2516 
z
" id="DejaVuSans-33" transform="scale(0.015625)"/>
        <path d="M 684 794 
L 1344 794 
L 1344 0 
L 684 0 
L 684 794 
z
" id="DejaVuSans-2e" transform="scale(0.015625)"/>
       </defs>
       <use xlink:href="#DejaVuSans-2212"/>
       <use x="83.789062" xlink:href="#DejaVuSans-33"/>
       <use x="147.412109" xlink:href="#DejaVuSans-2e"/>
       <use x="179.199219" xlink:href="#DejaVuSans-32"/>
      </g>
     </g>
    </g>
    <g id="ytick_2">
     <g id="line2d_7">
      <g>
       <use style="stroke:#000000;stroke-width:0.8;" x="38.482813" xlink:href="#md90e7f2c38" y="181.809201"/>
      </g>
     </g>
     <g id="text_7">
      <!-- −3.0 -->
      <g transform="translate(7.2 185.60842)scale(0.1 -0.1)">
       <use xlink:href="#DejaVuSans-2212"/>
       <use x="83.789062" xlink:href="#DejaVuSans-33"/>
       <use x="147.412109" xlink:href="#DejaVuSans-2e"/>
       <use x="179.199219" xlink:href="#DejaVuSans-30"/>
      </g>
     </g>
    </g>
    <g id="ytick_3">
     <g id="line2d_8">
      <g>
       <use style="stroke:#000000;stroke-width:0.8;" x="38.482813" xlink:href="#md90e7f2c38" y="155.629757"/>
      </g>
     </g>
     <g id="text_8">
      <!-- −2.8 -->
      <g transform="translate(7.2 159.428976)scale(0.1 -0.1)">
       <use xlink:href="#DejaVuSans-2212"/>
       <use x="83.789062" xlink:href="#DejaVuSans-32"/>
       <use x="147.412109" xlink:href="#DejaVuSans-2e"/>
       <use x="179.199219" xlink:href="#DejaVuSans-38"/>
      </g>
     </g>
    </g>
    <g id="ytick_4">
     <g id="line2d_9">
      <g>
       <use style="stroke:#000000;stroke-width:0.8;" x="38.482813" xlink:href="#md90e7f2c38" y="129.450313"/>
      </g>
     </g>
     <g id="text_9">
      <!-- −2.6 -->
      <g transform="translate(7.2 133.249531)scale(0.1 -0.1)">
       <use xlink:href="#DejaVuSans-2212"/>
       <use x="83.789062" xlink:href="#DejaVuSans-32"/>
       <use x="147.412109" xlink:href="#DejaVuSans-2e"/>
       <use x="179.199219" xlink:href="#DejaVuSans-36"/>
      </g>
     </g>
    </g>
    <g id="ytick_5">
     <g id="line2d_10">
      <g>
       <use style="stroke:#000000;stroke-width:0.8;" x="38.482813" xlink:href="#md90e7f2c38" y="103.270868"/>
      </g>
     </g>
     <g id="text_10">
      <!-- −2.4 -->
      <g transform="translate(7.2 107.070087)scale(0.1 -0.1)">
       <use xlink:href="#DejaVuSans-2212"/>
       <use x="83.789062" xlink:href="#DejaVuSans-32"/>
       <use x="147.412109" xlink:href="#DejaVuSans-2e"/>
       <use x="179.199219" xlink:href="#DejaVuSans-34"/>
      </g>
     </g>
    </g>
    <g id="ytick_6">
     <g id="line2d_11">
      <g>
       <use style="stroke:#000000;stroke-width:0.8;" x="38.482813" xlink:href="#md90e7f2c38" y="77.091424"/>
      </g>
     </g>
     <g id="text_11">
      <!-- −2.2 -->
      <g transform="translate(7.2 80.890642)scale(0.1 -0.1)">
       <use xlink:href="#DejaVuSans-2212"/>
       <use x="83.789062" xlink:href="#DejaVuSans-32"/>
       <use x="147.412109" xlink:href="#DejaVuSans-2e"/>
       <use x="179.199219" xlink:href="#DejaVuSans-32"/>
      </g>
     </g>
    </g>
    <g id="ytick_7">
     <g id="line2d_12">
      <g>
       <use style="stroke:#000000;stroke-width:0.8;" x="38.482813" xlink:href="#md90e7f2c38" y="50.911979"/>
      </g>
     </g>
     <g id="text_12">
      <!-- −2.0 -->
      <g transform="translate(7.2 54.711198)scale(0.1 -0.1)">
       <use xlink:href="#DejaVuSans-2212"/>
       <use x="83.789062" xlink:href="#DejaVuSans-32"/>
       <use x="147.412109" xlink:href="#DejaVuSans-2e"/>
       <use x="179.199219" xlink:href="#DejaVuSans-30"/>
      </g>
     </g>
    </g>
    <g id="ytick_8">
     <g id="line2d_13">
      <g>
       <use style="stroke:#000000;stroke-width:0.8;" x="38.482813" xlink:href="#md90e7f2c38" y="24.732535"/>
      </g>
     </g>
     <g id="text_13">
      <!-- −1.8 -->
      <g transform="translate(7.2 28.531754)scale(0.1 -0.1)">
       <use xlink:href="#DejaVuSans-2212"/>
       <use x="83.789062" xlink:href="#DejaVuSans-31"/>
       <use x="147.412109" xlink:href="#DejaVuSans-2e"/>
       <use x="179.199219" xlink:href="#DejaVuSans-38"/>
      </g>
     </g>
    </g>
   </g>
   <g id="line2d_14">
    <defs>
     <path d="M 0 3 
C 0.795609 3 1.55874 2.683901 2.12132 2.12132 
C 2.683901 1.55874 3 0.795609 3 0 
C 3 -0.795609 2.683901 -1.55874 2.12132 -2.12132 
C 1.55874 -2.683901 0.795609 -3 0 -3 
C -0.795609 -3 -1.55874 -2.683901 -2.12132 -2.12132 
C -2.683901 -1.55874 -3 -0.795609 -3 0 
C -3 0.795609 -2.683901 1.55874 -2.12132 2.12132 
C -1.55874 2.683901 -0.795609 3 0 3 
z
" id="m5d7698bec5" style="stroke:#1f77b4;"/>
    </defs>
    <g clip-path="url(#p4d006714ae)">
     <use style="fill:#1f77b4;stroke:#1f77b4;" x="53.700994" xlink:href="#m5d7698bec5" y="126.002311"/>
     <use style="fill:#1f77b4;stroke:#1f77b4;" x="54.923338" xlink:href="#m5d7698bec5" y="145.963002"/>
     <use style="fill:#1f77b4;stroke:#1f77b4;" x="56.145682" xlink:href="#m5d7698bec5" y="140.42861"/>
     <use style="fill:#1f77b4;stroke:#1f77b4;" x="57.368026" xlink:href="#m5d7698bec5" y="125.879144"/>
     <use style="fill:#1f77b4;stroke:#1f77b4;" x="58.59037" xlink:href="#m5d7698bec5" y="132.671835"/>
     <use style="fill:#1f77b4;stroke:#1f77b4;" x="59.812714" xlink:href="#m5d7698bec5" y="171.751118"/>
     <use style="fill:#1f77b4;stroke:#1f77b4;" x="61.035058" xlink:href="#m5d7698bec5" y="148.300203"/>
     <use style="fill:#1f77b4;stroke:#1f77b4;" x="62.257402" xlink:href="#m5d7698bec5" y="164.433442"/>
     <use style="fill:#1f77b4;stroke:#1f77b4;" x="63.479746" xlink:href="#m5d7698bec5" y="165.458016"/>
     <use style="fill:#1f77b4;stroke:#1f77b4;" x="64.70209" xlink:href="#m5d7698bec5" y="160.327252"/>
     <use style="fill:#1f77b4;stroke:#1f77b4;" x="65.924434" xlink:href="#m5d7698bec5" y="165.352793"/>
     <use style="fill:#1f77b4;stroke:#1f77b4;" x="67.146777" xlink:href="#m5d7698bec5" y="149.681263"/>
     <use style="fill:#1f77b4;stroke:#1f77b4;" x="68.369121" xlink:href="#m5d7698bec5" y="160.178285"/>
     <use style="fill:#1f77b4;stroke:#1f77b4;" x="69.591465" xlink:href="#m5d7698bec5" y="169.914979"/>
     <use style="fill:#1f77b4;stroke:#1f77b4;" x="70.813809" xlink:href="#m5d7698bec5" y="167.01119"/>
     <use style="fill:#1f77b4;stroke:#1f77b4;" x="72.036153" xlink:href="#m5d7698bec5" y="169.714123"/>
     <use style="fill:#1f77b4;stroke:#1f77b4;" x="73.258497" xlink:href="#m5d7698bec5" y="155.733418"/>
     <use style="fill:#1f77b4;stroke:#1f77b4;" x="74.480841" xlink:href="#m5d7698bec5" y="179.13375"/>
     <use style="fill:#1f77b4;stroke:#1f77b4;" x="75.703185" xlink:href="#m5d7698bec5" y="173.458237"/>
     <use style="fill:#1f77b4;stroke:#1f77b4;" x="76.925529" xlink:href="#m5d7698bec5" y="189.795134"/>
     <use style="fill:#1f77b4;stroke:#1f77b4;" x="78.147873" xlink:href="#m5d7698bec5" y="213.044349"/>
     <use style="fill:#1f77b4;stroke:#1f77b4;" x="79.370217" xlink:href="#m5d7698bec5" y="172.034972"/>
     <use style="fill:#1f77b4;stroke:#1f77b4;" x="80.592561" xlink:href="#m5d7698bec5" y="170.193683"/>
     <use style="fill:#1f77b4;stroke:#1f77b4;" x="81.814905" xlink:href="#m5d7698bec5" y="192.096846"/>
     <use style="fill:#1f77b4;stroke:#1f77b4;" x="83.037248" xlink:href="#m5d7698bec5" y="153.500709"/>
     <use style="fill:#1f77b4;stroke:#1f77b4;" x="84.259592" xlink:href="#m5d7698bec5" y="203.034212"/>
     <use style="fill:#1f77b4;stroke:#1f77b4;" x="85.481936" xlink:href="#m5d7698bec5" y="184.141432"/>
     <use style="fill:#1f77b4;stroke:#1f77b4;" x="86.70428" xlink:href="#m5d7698bec5" y="187.892498"/>
     <use style="fill:#1f77b4;stroke:#1f77b4;" x="87.926624" xlink:href="#m5d7698bec5" y="166.039906"/>
     <use style="fill:#1f77b4;stroke:#1f77b4;" x="89.148968" xlink:href="#m5d7698bec5" y="167.491471"/>
     <use style="fill:#1f77b4;stroke:#1f77b4;" x="90.371312" xlink:href="#m5d7698bec5" y="185.279135"/>
     <use style="fill:#1f77b4;stroke:#1f77b4;" x="91.593656" xlink:href="#m5d7698bec5" y="182.901472"/>
     <use style="fill:#1f77b4;stroke:#1f77b4;" x="92.816" xlink:href="#m5d7698bec5" y="199.979105"/>
     <use style="fill:#1f77b4;stroke:#1f77b4;" x="94.038344" xlink:href="#m5d7698bec5" y="214.756364"/>
     <use style="fill:#1f77b4;stroke:#1f77b4;" x="95.260688" xlink:href="#m5d7698bec5" y="193.816501"/>
     <use style="fill:#1f77b4;stroke:#1f77b4;" x="96.483032" xlink:href="#m5d7698bec5" y="187.614833"/>
     <use style="fill:#1f77b4;stroke:#1f77b4;" x="97.705375" xlink:href="#m5d7698bec5" y="173.921762"/>
     <use style="fill:#1f77b4;stroke:#1f77b4;" x="98.927719" xlink:href="#m5d7698bec5" y="174.617908"/>
     <use style="fill:#1f77b4;stroke:#1f77b4;" x="100.150063" xlink:href="#m5d7698bec5" y="195.724505"/>
     <use style="fill:#1f77b4;stroke:#1f77b4;" x="101.372407" xlink:href="#m5d7698bec5" y="194.877006"/>
     <use style="fill:#1f77b4;stroke:#1f77b4;" x="102.594751" xlink:href="#m5d7698bec5" y="204.878999"/>
     <use style="fill:#1f77b4;stroke:#1f77b4;" x="103.817095" xlink:href="#m5d7698bec5" y="209.944162"/>
     <use style="fill:#1f77b4;stroke:#1f77b4;" x="105.039439" xlink:href="#m5d7698bec5" y="213.863573"/>
     <use style="fill:#1f77b4;stroke:#1f77b4;" x="106.261783" xlink:href="#m5d7698bec5" y="166.136607"/>
     <use style="fill:#1f77b4;stroke:#1f77b4;" x="107.484127" xlink:href="#m5d7698bec5" y="198.456591"/>
     <use style="fill:#1f77b4;stroke:#1f77b4;" x="108.706471" xlink:href="#m5d7698bec5" y="197.604869"/>
     <use style="fill:#1f77b4;stroke:#1f77b4;" x="109.928815" xlink:href="#m5d7698bec5" y="208.326701"/>
     <use style="fill:#1f77b4;stroke:#1f77b4;" x="111.151159" xlink:href="#m5d7698bec5" y="181.780925"/>
     <use style="fill:#1f77b4;stroke:#1f77b4;" x="112.373503" xlink:href="#m5d7698bec5" y="213.086956"/>
     <use style="fill:#1f77b4;stroke:#1f77b4;" x="113.595846" xlink:href="#m5d7698bec5" y="194.723512"/>
     <use style="fill:#1f77b4;stroke:#1f77b4;" x="114.81819" xlink:href="#m5d7698bec5" y="203.611986"/>
     <use style="fill:#1f77b4;stroke:#1f77b4;" x="116.040534" xlink:href="#m5d7698bec5" y="186.752915"/>
     <use style="fill:#1f77b4;stroke:#1f77b4;" x="117.262878" xlink:href="#m5d7698bec5" y="198.405992"/>
     <use style="fill:#1f77b4;stroke:#1f77b4;" x="118.485222" xlink:href="#m5d7698bec5" y="207.052256"/>
     <use style="fill:#1f77b4;stroke:#1f77b4;" x="119.707566" xlink:href="#m5d7698bec5" y="191.82202"/>
     <use style="fill:#1f77b4;stroke:#1f77b4;" x="120.92991" xlink:href="#m5d7698bec5" y="185.678504"/>
     <use style="fill:#1f77b4;stroke:#1f77b4;" x="122.152254" xlink:href="#m5d7698bec5" y="190.224299"/>
     <use style="fill:#1f77b4;stroke:#1f77b4;" x="123.374598" xlink:href="#m5d7698bec5" y="186.923565"/>
     <use style="fill:#1f77b4;stroke:#1f77b4;" x="124.596942" xlink:href="#m5d7698bec5" y="198.952376"/>
     <use style="fill:#1f77b4;stroke:#1f77b4;" x="125.819286" xlink:href="#m5d7698bec5" y="195.142959"/>
     <use style="fill:#1f77b4;stroke:#1f77b4;" x="127.04163" xlink:href="#m5d7698bec5" y="198.922131"/>
     <use style="fill:#1f77b4;stroke:#1f77b4;" x="128.263974" xlink:href="#m5d7698bec5" y="194.531281"/>
     <use style="fill:#1f77b4;stroke:#1f77b4;" x="129.486317" xlink:href="#m5d7698bec5" y="200.154144"/>
     <use style="fill:#1f77b4;stroke:#1f77b4;" x="130.708661" xlink:href="#m5d7698bec5" y="211.773175"/>
     <use style="fill:#1f77b4;stroke:#1f77b4;" x="131.931005" xlink:href="#m5d7698bec5" y="186.501794"/>
     <use style="fill:#1f77b4;stroke:#1f77b4;" x="133.153349" xlink:href="#m5d7698bec5" y="193.712822"/>
     <use style="fill:#1f77b4;stroke:#1f77b4;" x="134.375693" xlink:href="#m5d7698bec5" y="209.40398"/>
     <use style="fill:#1f77b4;stroke:#1f77b4;" x="135.598037" xlink:href="#m5d7698bec5" y="181.601516"/>
     <use style="fill:#1f77b4;stroke:#1f77b4;" x="136.820381" xlink:href="#m5d7698bec5" y="199.112517"/>
     <use style="fill:#1f77b4;stroke:#1f77b4;" x="138.042725" xlink:href="#m5d7698bec5" y="186.116658"/>
     <use style="fill:#1f77b4;stroke:#1f77b4;" x="139.265069" xlink:href="#m5d7698bec5" y="176.797125"/>
     <use style="fill:#1f77b4;stroke:#1f77b4;" x="140.487413" xlink:href="#m5d7698bec5" y="184.180589"/>
     <use style="fill:#1f77b4;stroke:#1f77b4;" x="141.709757" xlink:href="#m5d7698bec5" y="170.467206"/>
     <use style="fill:#1f77b4;stroke:#1f77b4;" x="142.932101" xlink:href="#m5d7698bec5" y="201.042725"/>
     <use style="fill:#1f77b4;stroke:#1f77b4;" x="144.154444" xlink:href="#m5d7698bec5" y="179.095418"/>
     <use style="fill:#1f77b4;stroke:#1f77b4;" x="145.376788" xlink:href="#m5d7698bec5" y="192.794248"/>
     <use style="fill:#1f77b4;stroke:#1f77b4;" x="146.599132" xlink:href="#m5d7698bec5" y="194.682984"/>
     <use style="fill:#1f77b4;stroke:#1f77b4;" x="147.821476" xlink:href="#m5d7698bec5" y="190.301928"/>
     <use style="fill:#1f77b4;stroke:#1f77b4;" x="149.04382" xlink:href="#m5d7698bec5" y="186.230109"/>
     <use style="fill:#1f77b4;stroke:#1f77b4;" x="150.266164" xlink:href="#m5d7698bec5" y="180.830705"/>
     <use style="fill:#1f77b4;stroke:#1f77b4;" x="151.488508" xlink:href="#m5d7698bec5" y="196.218516"/>
     <use style="fill:#1f77b4;stroke:#1f77b4;" x="152.710852" xlink:href="#m5d7698bec5" y="168.564122"/>
     <use style="fill:#1f77b4;stroke:#1f77b4;" x="153.933196" xlink:href="#m5d7698bec5" y="173.636794"/>
     <use style="fill:#1f77b4;stroke:#1f77b4;" x="155.15554" xlink:href="#m5d7698bec5" y="199.205821"/>
     <use style="fill:#1f77b4;stroke:#1f77b4;" x="156.377884" xlink:href="#m5d7698bec5" y="158.969073"/>
     <use style="fill:#1f77b4;stroke:#1f77b4;" x="157.600228" xlink:href="#m5d7698bec5" y="152.975001"/>
     <use style="fill:#1f77b4;stroke:#1f77b4;" x="158.822572" xlink:href="#m5d7698bec5" y="161.692556"/>
     <use style="fill:#1f77b4;stroke:#1f77b4;" x="160.044915" xlink:href="#m5d7698bec5" y="178.797693"/>
     <use style="fill:#1f77b4;stroke:#1f77b4;" x="161.267259" xlink:href="#m5d7698bec5" y="189.768014"/>
     <use style="fill:#1f77b4;stroke:#1f77b4;" x="162.489603" xlink:href="#m5d7698bec5" y="161.249139"/>
     <use style="fill:#1f77b4;stroke:#1f77b4;" x="163.711947" xlink:href="#m5d7698bec5" y="179.618644"/>
     <use style="fill:#1f77b4;stroke:#1f77b4;" x="164.934291" xlink:href="#m5d7698bec5" y="157.619602"/>
     <use style="fill:#1f77b4;stroke:#1f77b4;" x="166.156635" xlink:href="#m5d7698bec5" y="170.165309"/>
     <use style="fill:#1f77b4;stroke:#1f77b4;" x="167.378979" xlink:href="#m5d7698bec5" y="159.36899"/>
     <use style="fill:#1f77b4;stroke:#1f77b4;" x="168.601323" xlink:href="#m5d7698bec5" y="166.740636"/>
     <use style="fill:#1f77b4;stroke:#1f77b4;" x="169.823667" xlink:href="#m5d7698bec5" y="161.40031"/>
     <use style="fill:#1f77b4;stroke:#1f77b4;" x="171.046011" xlink:href="#m5d7698bec5" y="169.747067"/>
     <use style="fill:#1f77b4;stroke:#1f77b4;" x="172.268355" xlink:href="#m5d7698bec5" y="145.735114"/>
     <use style="fill:#1f77b4;stroke:#1f77b4;" x="173.490699" xlink:href="#m5d7698bec5" y="166.669597"/>
     <use style="fill:#1f77b4;stroke:#1f77b4;" x="174.713043" xlink:href="#m5d7698bec5" y="162.280338"/>
     <use style="fill:#1f77b4;stroke:#1f77b4;" x="175.935386" xlink:href="#m5d7698bec5" y="142.096238"/>
     <use style="fill:#1f77b4;stroke:#1f77b4;" x="177.15773" xlink:href="#m5d7698bec5" y="183.584517"/>
     <use style="fill:#1f77b4;stroke:#1f77b4;" x="178.380074" xlink:href="#m5d7698bec5" y="181.762475"/>
     <use style="fill:#1f77b4;stroke:#1f77b4;" x="179.602418" xlink:href="#m5d7698bec5" y="151.625592"/>
     <use style="fill:#1f77b4;stroke:#1f77b4;" x="180.824762" xlink:href="#m5d7698bec5" y="178.846423"/>
     <use style="fill:#1f77b4;stroke:#1f77b4;" x="182.047106" xlink:href="#m5d7698bec5" y="137.218431"/>
     <use style="fill:#1f77b4;stroke:#1f77b4;" x="183.26945" xlink:href="#m5d7698bec5" y="167.237061"/>
     <use style="fill:#1f77b4;stroke:#1f77b4;" x="184.491794" xlink:href="#m5d7698bec5" y="170.763764"/>
     <use style="fill:#1f77b4;stroke:#1f77b4;" x="185.714138" xlink:href="#m5d7698bec5" y="134.959953"/>
     <use style="fill:#1f77b4;stroke:#1f77b4;" x="186.936482" xlink:href="#m5d7698bec5" y="139.896387"/>
     <use style="fill:#1f77b4;stroke:#1f77b4;" x="188.158826" xlink:href="#m5d7698bec5" y="133.969689"/>
     <use style="fill:#1f77b4;stroke:#1f77b4;" x="189.38117" xlink:href="#m5d7698bec5" y="145.689843"/>
     <use style="fill:#1f77b4;stroke:#1f77b4;" x="190.603513" xlink:href="#m5d7698bec5" y="167.951886"/>
     <use style="fill:#1f77b4;stroke:#1f77b4;" x="191.825857" xlink:href="#m5d7698bec5" y="130.800362"/>
     <use style="fill:#1f77b4;stroke:#1f77b4;" x="193.048201" xlink:href="#m5d7698bec5" y="158.429673"/>
     <use style="fill:#1f77b4;stroke:#1f77b4;" x="194.270545" xlink:href="#m5d7698bec5" y="143.531917"/>
     <use style="fill:#1f77b4;stroke:#1f77b4;" x="195.492889" xlink:href="#m5d7698bec5" y="140.746269"/>
     <use style="fill:#1f77b4;stroke:#1f77b4;" x="196.715233" xlink:href="#m5d7698bec5" y="154.279837"/>
     <use style="fill:#1f77b4;stroke:#1f77b4;" x="197.937577" xlink:href="#m5d7698bec5" y="143.313663"/>
     <use style="fill:#1f77b4;stroke:#1f77b4;" x="199.159921" xlink:href="#m5d7698bec5" y="138.377235"/>
     <use style="fill:#1f77b4;stroke:#1f77b4;" x="200.382265" xlink:href="#m5d7698bec5" y="144.614259"/>
     <use style="fill:#1f77b4;stroke:#1f77b4;" x="201.604609" xlink:href="#m5d7698bec5" y="163.021486"/>
     <use style="fill:#1f77b4;stroke:#1f77b4;" x="202.826953" xlink:href="#m5d7698bec5" y="143.812162"/>
     <use style="fill:#1f77b4;stroke:#1f77b4;" x="204.049297" xlink:href="#m5d7698bec5" y="129.435825"/>
     <use style="fill:#1f77b4;stroke:#1f77b4;" x="205.271641" xlink:href="#m5d7698bec5" y="154.967965"/>
     <use style="fill:#1f77b4;stroke:#1f77b4;" x="206.493984" xlink:href="#m5d7698bec5" y="146.910074"/>
     <use style="fill:#1f77b4;stroke:#1f77b4;" x="207.716328" xlink:href="#m5d7698bec5" y="149.719421"/>
     <use style="fill:#1f77b4;stroke:#1f77b4;" x="208.938672" xlink:href="#m5d7698bec5" y="118.885992"/>
     <use style="fill:#1f77b4;stroke:#1f77b4;" x="210.161016" xlink:href="#m5d7698bec5" y="133.358248"/>
     <use style="fill:#1f77b4;stroke:#1f77b4;" x="211.38336" xlink:href="#m5d7698bec5" y="135.88812"/>
     <use style="fill:#1f77b4;stroke:#1f77b4;" x="212.605704" xlink:href="#m5d7698bec5" y="150.360295"/>
     <use style="fill:#1f77b4;stroke:#1f77b4;" x="213.828048" xlink:href="#m5d7698bec5" y="132.281773"/>
     <use style="fill:#1f77b4;stroke:#1f77b4;" x="215.050392" xlink:href="#m5d7698bec5" y="147.222885"/>
     <use style="fill:#1f77b4;stroke:#1f77b4;" x="216.272736" xlink:href="#m5d7698bec5" y="137.032758"/>
     <use style="fill:#1f77b4;stroke:#1f77b4;" x="217.49508" xlink:href="#m5d7698bec5" y="144.823613"/>
     <use style="fill:#1f77b4;stroke:#1f77b4;" x="218.717424" xlink:href="#m5d7698bec5" y="126.695302"/>
     <use style="fill:#1f77b4;stroke:#1f77b4;" x="219.939768" xlink:href="#m5d7698bec5" y="127.049289"/>
     <use style="fill:#1f77b4;stroke:#1f77b4;" x="221.162112" xlink:href="#m5d7698bec5" y="136.368471"/>
     <use style="fill:#1f77b4;stroke:#1f77b4;" x="222.384455" xlink:href="#m5d7698bec5" y="127.501698"/>
     <use style="fill:#1f77b4;stroke:#1f77b4;" x="223.606799" xlink:href="#m5d7698bec5" y="146.034926"/>
     <use style="fill:#1f77b4;stroke:#1f77b4;" x="224.829143" xlink:href="#m5d7698bec5" y="150.287359"/>
     <use style="fill:#1f77b4;stroke:#1f77b4;" x="226.051487" xlink:href="#m5d7698bec5" y="124.054369"/>
     <use style="fill:#1f77b4;stroke:#1f77b4;" x="227.273831" xlink:href="#m5d7698bec5" y="126.661456"/>
     <use style="fill:#1f77b4;stroke:#1f77b4;" x="228.496175" xlink:href="#m5d7698bec5" y="119.566763"/>
     <use style="fill:#1f77b4;stroke:#1f77b4;" x="229.718519" xlink:href="#m5d7698bec5" y="95.719219"/>
     <use style="fill:#1f77b4;stroke:#1f77b4;" x="230.940863" xlink:href="#m5d7698bec5" y="113.584602"/>
     <use style="fill:#1f77b4;stroke:#1f77b4;" x="232.163207" xlink:href="#m5d7698bec5" y="136.928785"/>
     <use style="fill:#1f77b4;stroke:#1f77b4;" x="233.385551" xlink:href="#m5d7698bec5" y="109.390433"/>
     <use style="fill:#1f77b4;stroke:#1f77b4;" x="234.607895" xlink:href="#m5d7698bec5" y="140.267532"/>
     <use style="fill:#1f77b4;stroke:#1f77b4;" x="235.830239" xlink:href="#m5d7698bec5" y="128.114702"/>
     <use style="fill:#1f77b4;stroke:#1f77b4;" x="237.052582" xlink:href="#m5d7698bec5" y="121.995265"/>
     <use style="fill:#1f77b4;stroke:#1f77b4;" x="238.274926" xlink:href="#m5d7698bec5" y="97.703506"/>
     <use style="fill:#1f77b4;stroke:#1f77b4;" x="239.49727" xlink:href="#m5d7698bec5" y="128.907454"/>
     <use style="fill:#1f77b4;stroke:#1f77b4;" x="240.719614" xlink:href="#m5d7698bec5" y="129.004329"/>
     <use style="fill:#1f77b4;stroke:#1f77b4;" x="241.941958" xlink:href="#m5d7698bec5" y="118.502447"/>
     <use style="fill:#1f77b4;stroke:#1f77b4;" x="243.164302" xlink:href="#m5d7698bec5" y="124.925398"/>
     <use style="fill:#1f77b4;stroke:#1f77b4;" x="244.386646" xlink:href="#m5d7698bec5" y="100.519959"/>
     <use style="fill:#1f77b4;stroke:#1f77b4;" x="245.60899" xlink:href="#m5d7698bec5" y="128.429779"/>
     <use style="fill:#1f77b4;stroke:#1f77b4;" x="246.831334" xlink:href="#m5d7698bec5" y="128.340159"/>
     <use style="fill:#1f77b4;stroke:#1f77b4;" x="248.053678" xlink:href="#m5d7698bec5" y="118.077333"/>
     <use style="fill:#1f77b4;stroke:#1f77b4;" x="249.276022" xlink:href="#m5d7698bec5" y="117.891777"/>
     <use style="fill:#1f77b4;stroke:#1f77b4;" x="250.498366" xlink:href="#m5d7698bec5" y="85.141978"/>
     <use style="fill:#1f77b4;stroke:#1f77b4;" x="251.72071" xlink:href="#m5d7698bec5" y="96.997836"/>
     <use style="fill:#1f77b4;stroke:#1f77b4;" x="252.943053" xlink:href="#m5d7698bec5" y="107.306131"/>
     <use style="fill:#1f77b4;stroke:#1f77b4;" x="254.165397" xlink:href="#m5d7698bec5" y="123.519671"/>
     <use style="fill:#1f77b4;stroke:#1f77b4;" x="255.387741" xlink:href="#m5d7698bec5" y="95.453795"/>
     <use style="fill:#1f77b4;stroke:#1f77b4;" x="256.610085" xlink:href="#m5d7698bec5" y="118.626386"/>
     <use style="fill:#1f77b4;stroke:#1f77b4;" x="257.832429" xlink:href="#m5d7698bec5" y="124.782458"/>
     <use style="fill:#1f77b4;stroke:#1f77b4;" x="259.054773" xlink:href="#m5d7698bec5" y="88.039311"/>
     <use style="fill:#1f77b4;stroke:#1f77b4;" x="260.277117" xlink:href="#m5d7698bec5" y="98.47058"/>
     <use style="fill:#1f77b4;stroke:#1f77b4;" x="261.499461" xlink:href="#m5d7698bec5" y="89.595038"/>
     <use style="fill:#1f77b4;stroke:#1f77b4;" x="262.721805" xlink:href="#m5d7698bec5" y="96.506945"/>
     <use style="fill:#1f77b4;stroke:#1f77b4;" x="263.944149" xlink:href="#m5d7698bec5" y="88.494178"/>
     <use style="fill:#1f77b4;stroke:#1f77b4;" x="265.166493" xlink:href="#m5d7698bec5" y="107.26317"/>
     <use style="fill:#1f77b4;stroke:#1f77b4;" x="266.388837" xlink:href="#m5d7698bec5" y="111.311718"/>
     <use style="fill:#1f77b4;stroke:#1f77b4;" x="267.611181" xlink:href="#m5d7698bec5" y="87.88504"/>
     <use style="fill:#1f77b4;stroke:#1f77b4;" x="268.833524" xlink:href="#m5d7698bec5" y="106.357348"/>
     <use style="fill:#1f77b4;stroke:#1f77b4;" x="270.055868" xlink:href="#m5d7698bec5" y="103.901873"/>
     <use style="fill:#1f77b4;stroke:#1f77b4;" x="271.278212" xlink:href="#m5d7698bec5" y="99.874518"/>
     <use style="fill:#1f77b4;stroke:#1f77b4;" x="272.500556" xlink:href="#m5d7698bec5" y="92.719782"/>
     <use style="fill:#1f77b4;stroke:#1f77b4;" x="273.7229" xlink:href="#m5d7698bec5" y="96.620146"/>
     <use style="fill:#1f77b4;stroke:#1f77b4;" x="274.945244" xlink:href="#m5d7698bec5" y="109.023148"/>
     <use style="fill:#1f77b4;stroke:#1f77b4;" x="276.167588" xlink:href="#m5d7698bec5" y="98.490267"/>
     <use style="fill:#1f77b4;stroke:#1f77b4;" x="277.389932" xlink:href="#m5d7698bec5" y="118.210421"/>
     <use style="fill:#1f77b4;stroke:#1f77b4;" x="278.612276" xlink:href="#m5d7698bec5" y="79.96498"/>
     <use style="fill:#1f77b4;stroke:#1f77b4;" x="279.83462" xlink:href="#m5d7698bec5" y="108.163192"/>
     <use style="fill:#1f77b4;stroke:#1f77b4;" x="281.056964" xlink:href="#m5d7698bec5" y="100.693645"/>
     <use style="fill:#1f77b4;stroke:#1f77b4;" x="282.279308" xlink:href="#m5d7698bec5" y="84.600912"/>
     <use style="fill:#1f77b4;stroke:#1f77b4;" x="283.501651" xlink:href="#m5d7698bec5" y="94.011901"/>
     <use style="fill:#1f77b4;stroke:#1f77b4;" x="284.723995" xlink:href="#m5d7698bec5" y="63.182442"/>
     <use style="fill:#1f77b4;stroke:#1f77b4;" x="285.946339" xlink:href="#m5d7698bec5" y="99.35345"/>
     <use style="fill:#1f77b4;stroke:#1f77b4;" x="287.168683" xlink:href="#m5d7698bec5" y="77.986351"/>
     <use style="fill:#1f77b4;stroke:#1f77b4;" x="288.391027" xlink:href="#m5d7698bec5" y="81.049287"/>
     <use style="fill:#1f77b4;stroke:#1f77b4;" x="289.613371" xlink:href="#m5d7698bec5" y="94.879701"/>
     <use style="fill:#1f77b4;stroke:#1f77b4;" x="290.835715" xlink:href="#m5d7698bec5" y="71.796244"/>
     <use style="fill:#1f77b4;stroke:#1f77b4;" x="292.058059" xlink:href="#m5d7698bec5" y="79.948934"/>
     <use style="fill:#1f77b4;stroke:#1f77b4;" x="293.280403" xlink:href="#m5d7698bec5" y="66.660134"/>
     <use style="fill:#1f77b4;stroke:#1f77b4;" x="294.502747" xlink:href="#m5d7698bec5" y="65.044031"/>
     <use style="fill:#1f77b4;stroke:#1f77b4;" x="295.725091" xlink:href="#m5d7698bec5" y="46.56975"/>
     <use style="fill:#1f77b4;stroke:#1f77b4;" x="296.947435" xlink:href="#m5d7698bec5" y="56.455213"/>
     <use style="fill:#1f77b4;stroke:#1f77b4;" x="298.169779" xlink:href="#m5d7698bec5" y="77.848237"/>
     <use style="fill:#1f77b4;stroke:#1f77b4;" x="299.392122" xlink:href="#m5d7698bec5" y="75.216612"/>
     <use style="fill:#1f77b4;stroke:#1f77b4;" x="300.614466" xlink:href="#m5d7698bec5" y="56.758142"/>
     <use style="fill:#1f77b4;stroke:#1f77b4;" x="301.83681" xlink:href="#m5d7698bec5" y="61.646082"/>
     <use style="fill:#1f77b4;stroke:#1f77b4;" x="303.059154" xlink:href="#m5d7698bec5" y="60.916847"/>
     <use style="fill:#1f77b4;stroke:#1f77b4;" x="304.281498" xlink:href="#m5d7698bec5" y="89.535974"/>
     <use style="fill:#1f77b4;stroke:#1f77b4;" x="305.503842" xlink:href="#m5d7698bec5" y="67.765179"/>
     <use style="fill:#1f77b4;stroke:#1f77b4;" x="306.726186" xlink:href="#m5d7698bec5" y="76.185497"/>
     <use style="fill:#1f77b4;stroke:#1f77b4;" x="307.94853" xlink:href="#m5d7698bec5" y="61.940714"/>
     <use style="fill:#1f77b4;stroke:#1f77b4;" x="309.170874" xlink:href="#m5d7698bec5" y="65.971454"/>
     <use style="fill:#1f77b4;stroke:#1f77b4;" x="310.393218" xlink:href="#m5d7698bec5" y="51.856438"/>
     <use style="fill:#1f77b4;stroke:#1f77b4;" x="311.615562" xlink:href="#m5d7698bec5" y="58.703773"/>
     <use style="fill:#1f77b4;stroke:#1f77b4;" x="312.837906" xlink:href="#m5d7698bec5" y="51.650827"/>
     <use style="fill:#1f77b4;stroke:#1f77b4;" x="314.06025" xlink:href="#m5d7698bec5" y="67.138455"/>
     <use style="fill:#1f77b4;stroke:#1f77b4;" x="315.282593" xlink:href="#m5d7698bec5" y="72.487176"/>
     <use style="fill:#1f77b4;stroke:#1f77b4;" x="316.504937" xlink:href="#m5d7698bec5" y="64.585531"/>
     <use style="fill:#1f77b4;stroke:#1f77b4;" x="317.727281" xlink:href="#m5d7698bec5" y="58.536339"/>
     <use style="fill:#1f77b4;stroke:#1f77b4;" x="318.949625" xlink:href="#m5d7698bec5" y="52.448019"/>
     <use style="fill:#1f77b4;stroke:#1f77b4;" x="320.171969" xlink:href="#m5d7698bec5" y="26.936772"/>
     <use style="fill:#1f77b4;stroke:#1f77b4;" x="321.394313" xlink:href="#m5d7698bec5" y="56.165162"/>
     <use style="fill:#1f77b4;stroke:#1f77b4;" x="322.616657" xlink:href="#m5d7698bec5" y="67.228666"/>
     <use style="fill:#1f77b4;stroke:#1f77b4;" x="323.839001" xlink:href="#m5d7698bec5" y="58.35007"/>
     <use style="fill:#1f77b4;stroke:#1f77b4;" x="325.061345" xlink:href="#m5d7698bec5" y="58.997342"/>
     <use style="fill:#1f77b4;stroke:#1f77b4;" x="326.283689" xlink:href="#m5d7698bec5" y="45.736371"/>
     <use style="fill:#1f77b4;stroke:#1f77b4;" x="327.506033" xlink:href="#m5d7698bec5" y="71.319372"/>
     <use style="fill:#1f77b4;stroke:#1f77b4;" x="328.728377" xlink:href="#m5d7698bec5" y="49.436742"/>
     <use style="fill:#1f77b4;stroke:#1f77b4;" x="329.95072" xlink:href="#m5d7698bec5" y="47.332386"/>
     <use style="fill:#1f77b4;stroke:#1f77b4;" x="331.173064" xlink:href="#m5d7698bec5" y="45.46016"/>
     <use style="fill:#1f77b4;stroke:#1f77b4;" x="332.395408" xlink:href="#m5d7698bec5" y="55.438532"/>
     <use style="fill:#1f77b4;stroke:#1f77b4;" x="333.617752" xlink:href="#m5d7698bec5" y="49.856811"/>
     <use style="fill:#1f77b4;stroke:#1f77b4;" x="334.840096" xlink:href="#m5d7698bec5" y="64.507868"/>
     <use style="fill:#1f77b4;stroke:#1f77b4;" x="336.06244" xlink:href="#m5d7698bec5" y="51.451737"/>
     <use style="fill:#1f77b4;stroke:#1f77b4;" x="337.284784" xlink:href="#m5d7698bec5" y="51.229427"/>
     <use style="fill:#1f77b4;stroke:#1f77b4;" x="338.507128" xlink:href="#m5d7698bec5" y="37.808949"/>
     <use style="fill:#1f77b4;stroke:#1f77b4;" x="339.729472" xlink:href="#m5d7698bec5" y="57.522655"/>
     <use style="fill:#1f77b4;stroke:#1f77b4;" x="340.951816" xlink:href="#m5d7698bec5" y="31.298723"/>
     <use style="fill:#1f77b4;stroke:#1f77b4;" x="342.17416" xlink:href="#m5d7698bec5" y="21.100071"/>
     <use style="fill:#1f77b4;stroke:#1f77b4;" x="343.396504" xlink:href="#m5d7698bec5" y="66.898295"/>
     <use style="fill:#1f77b4;stroke:#1f77b4;" x="344.618848" xlink:href="#m5d7698bec5" y="33.365708"/>
     <use style="fill:#1f77b4;stroke:#1f77b4;" x="345.841191" xlink:href="#m5d7698bec5" y="29.229582"/>
     <use style="fill:#1f77b4;stroke:#1f77b4;" x="347.063535" xlink:href="#m5d7698bec5" y="45.581055"/>
     <use style="fill:#1f77b4;stroke:#1f77b4;" x="348.285879" xlink:href="#m5d7698bec5" y="41.586686"/>
     <use style="fill:#1f77b4;stroke:#1f77b4;" x="349.508223" xlink:href="#m5d7698bec5" y="37.277477"/>
     <use style="fill:#1f77b4;stroke:#1f77b4;" x="350.730567" xlink:href="#m5d7698bec5" y="38.589983"/>
     <use style="fill:#1f77b4;stroke:#1f77b4;" x="351.952911" xlink:href="#m5d7698bec5" y="37.893038"/>
     <use style="fill:#1f77b4;stroke:#1f77b4;" x="353.175255" xlink:href="#m5d7698bec5" y="54.945017"/>
     <use style="fill:#1f77b4;stroke:#1f77b4;" x="354.397599" xlink:href="#m5d7698bec5" y="17.083636"/>
     <use style="fill:#1f77b4;stroke:#1f77b4;" x="355.619943" xlink:href="#m5d7698bec5" y="17.198472"/>
     <use style="fill:#1f77b4;stroke:#1f77b4;" x="356.842287" xlink:href="#m5d7698bec5" y="41.142439"/>
     <use style="fill:#1f77b4;stroke:#1f77b4;" x="358.064631" xlink:href="#m5d7698bec5" y="48.85847"/>
    </g>
   </g>
   <g id="line2d_15">
    <path clip-path="url(#p4d006714ae)" d="M 53.700994 132.813755 
L 56.145682 139.390091 
L 58.59037 145.460785 
L 61.035058 151.053914 
L 63.479746 156.196043 
L 65.924434 160.912306 
L 68.369121 165.22648 
L 70.813809 169.16106 
L 73.258497 172.73733 
L 75.703185 175.975422 
L 78.147873 178.894386 
L 80.592561 181.51224 
L 83.037248 183.846032 
L 85.481936 185.911886 
L 87.926624 187.72506 
L 90.371312 189.299982 
L 92.816 190.650304 
L 95.260688 191.788938 
L 97.705375 192.728098 
L 100.150063 193.479337 
L 102.594751 194.053583 
L 105.039439 194.461171 
L 107.484127 194.711877 
L 111.151159 194.813871 
L 114.81819 194.612684 
L 118.485222 194.135096 
L 122.152254 193.405735 
L 125.819286 192.447247 
L 129.486317 191.280457 
L 133.153349 189.924508 
L 138.042725 187.852546 
L 142.932101 185.513269 
L 147.821476 182.940491 
L 153.933196 179.441869 
L 160.044915 175.677372 
L 167.378979 170.872139 
L 175.935386 164.95237 
L 185.714138 157.879724 
L 197.937577 148.730471 
L 216.272736 134.678804 
L 248.053678 110.299293 
L 265.166493 97.474967 
L 279.83462 86.747148 
L 294.502747 76.299028 
L 307.94853 66.984549 
L 321.394313 57.930529 
L 334.840096 49.1408 
L 348.285879 40.61581 
L 358.064631 34.581046 
L 358.064631 34.581046 
" style="fill:none;stroke:#ff7f0e;stroke-linecap:square;stroke-width:1.5;"/>
   </g>
   <g id="patch_3">
    <path d="M 38.482813 224.64 
L 38.482813 7.2 
" style="fill:none;stroke:#000000;stroke-linecap:square;stroke-linejoin:miter;stroke-width:0.8;"/>
   </g>
   <g id="patch_4">
    <path d="M 373.282813 224.64 
L 373.282813 7.2 
" style="fill:none;stroke:#000000;stroke-linecap:square;stroke-linejoin:miter;stroke-width:0.8;"/>
   </g>
   <g id="patch_5">
    <path d="M 38.482812 224.64 
L 373.282812 224.64 
" style="fill:none;stroke:#000000;stroke-linecap:square;stroke-linejoin:miter;stroke-width:0.8;"/>
   </g>
   <g id="patch_6">
    <path d="M 38.482812 7.2 
L 373.282812 7.2 
" style="fill:none;stroke:#000000;stroke-linecap:square;stroke-linejoin:miter;stroke-width:0.8;"/>
   </g>
   <g id="legend_1">
    <g id="patch_7">
     <path d="M 45.482813 29.878125 
L 112.510938 29.878125 
Q 114.510938 29.878125 114.510938 27.878125 
L 114.510938 14.2 
Q 114.510938 12.2 112.510938 12.2 
L 45.482813 12.2 
Q 43.482813 12.2 43.482813 14.2 
L 43.482813 27.878125 
Q 43.482813 29.878125 45.482813 29.878125 
z
" style="fill:#ffffff;opacity:0.8;stroke:#cccccc;stroke-linejoin:miter;"/>
    </g>
    <g id="line2d_16">
     <path d="M 47.482813 20.298437 
L 67.482812 20.298437 
" style="fill:none;stroke:#ff7f0e;stroke-linecap:square;stroke-width:1.5;"/>
    </g>
    <g id="line2d_17"/>
    <g id="text_14">
     <!-- best fit -->
     <g transform="translate(75.482812 23.798437)scale(0.1 -0.1)">
      <defs>
       <path d="M 3116 1747 
Q 3116 2381 2855 2742 
Q 2594 3103 2138 3103 
Q 1681 3103 1420 2742 
Q 1159 2381 1159 1747 
Q 1159 1113 1420 752 
Q 1681 391 2138 391 
Q 2594 391 2855 752 
Q 3116 1113 3116 1747 
z
M 1159 2969 
Q 1341 3281 1617 3432 
Q 1894 3584 2278 3584 
Q 2916 3584 3314 3078 
Q 3713 2572 3713 1747 
Q 3713 922 3314 415 
Q 2916 -91 2278 -91 
Q 1894 -91 1617 61 
Q 1341 213 1159 525 
L 1159 0 
L 581 0 
L 581 4863 
L 1159 4863 
L 1159 2969 
z
" id="DejaVuSans-62" transform="scale(0.015625)"/>
       <path d="M 3597 1894 
L 3597 1613 
L 953 1613 
Q 991 1019 1311 708 
Q 1631 397 2203 397 
Q 2534 397 2845 478 
Q 3156 559 3463 722 
L 3463 178 
Q 3153 47 2828 -22 
Q 2503 -91 2169 -91 
Q 1331 -91 842 396 
Q 353 884 353 1716 
Q 353 2575 817 3079 
Q 1281 3584 2069 3584 
Q 2775 3584 3186 3129 
Q 3597 2675 3597 1894 
z
M 3022 2063 
Q 3016 2534 2758 2815 
Q 2500 3097 2075 3097 
Q 1594 3097 1305 2825 
Q 1016 2553 972 2059 
L 3022 2063 
z
" id="DejaVuSans-65" transform="scale(0.015625)"/>
       <path d="M 2834 3397 
L 2834 2853 
Q 2591 2978 2328 3040 
Q 2066 3103 1784 3103 
Q 1356 3103 1142 2972 
Q 928 2841 928 2578 
Q 928 2378 1081 2264 
Q 1234 2150 1697 2047 
L 1894 2003 
Q 2506 1872 2764 1633 
Q 3022 1394 3022 966 
Q 3022 478 2636 193 
Q 2250 -91 1575 -91 
Q 1294 -91 989 -36 
Q 684 19 347 128 
L 347 722 
Q 666 556 975 473 
Q 1284 391 1588 391 
Q 1994 391 2212 530 
Q 2431 669 2431 922 
Q 2431 1156 2273 1281 
Q 2116 1406 1581 1522 
L 1381 1569 
Q 847 1681 609 1914 
Q 372 2147 372 2553 
Q 372 3047 722 3315 
Q 1072 3584 1716 3584 
Q 2034 3584 2315 3537 
Q 2597 3491 2834 3397 
z
" id="DejaVuSans-73" transform="scale(0.015625)"/>
       <path d="M 1172 4494 
L 1172 3500 
L 2356 3500 
L 2356 3053 
L 1172 3053 
L 1172 1153 
Q 1172 725 1289 603 
Q 1406 481 1766 481 
L 2356 481 
L 2356 0 
L 1766 0 
Q 1100 0 847 248 
Q 594 497 594 1153 
L 594 3053 
L 172 3053 
L 172 3500 
L 594 3500 
L 594 4494 
L 1172 4494 
z
" id="DejaVuSans-74" transform="scale(0.015625)"/>
       <path id="DejaVuSans-20" transform="scale(0.015625)"/>
       <path d="M 2375 4863 
L 2375 4384 
L 1825 4384 
Q 1516 4384 1395 4259 
Q 1275 4134 1275 3809 
L 1275 3500 
L 2222 3500 
L 2222 3053 
L 1275 3053 
L 1275 0 
L 697 0 
L 697 3053 
L 147 3053 
L 147 3500 
L 697 3500 
L 697 3744 
Q 697 4328 969 4595 
Q 1241 4863 1831 4863 
L 2375 4863 
z
" id="DejaVuSans-66" transform="scale(0.015625)"/>
       <path d="M 603 3500 
L 1178 3500 
L 1178 0 
L 603 0 
L 603 3500 
z
M 603 4863 
L 1178 4863 
L 1178 4134 
L 603 4134 
L 603 4863 
z
" id="DejaVuSans-69" transform="scale(0.015625)"/>
      </defs>
      <use xlink:href="#DejaVuSans-62"/>
      <use x="63.476562" xlink:href="#DejaVuSans-65"/>
      <use x="125" xlink:href="#DejaVuSans-73"/>
      <use x="177.099609" xlink:href="#DejaVuSans-74"/>
      <use x="216.308594" xlink:href="#DejaVuSans-20"/>
      <use x="248.095703" xlink:href="#DejaVuSans-66"/>
      <use x="283.300781" xlink:href="#DejaVuSans-69"/>
      <use x="311.083984" xlink:href="#DejaVuSans-74"/>
     </g>
    </g>
   </g>
  </g>
 </g>
 <defs>
  <clipPath id="p4d006714ae">
   <rect height="217.44" width="334.8" x="38.482813" y="7.2"/>
  </clipPath>
 </defs>
</svg>
