<?xml version="1.0" encoding="utf-8" standalone="no"?>
<!DOCTYPE svg PUBLIC "-//W3C//DTD SVG 1.1//EN"
  "http://www.w3.org/Graphics/SVG/1.1/DTD/svg11.dtd">
<svg xmlns:xlink="http://www.w3.org/1999/xlink" width="380.482812pt" height="248.518125pt" viewBox="0 0 380.482812 248.518125" xmlns="http://www.w3.org/2000/svg" version="1.1">
 <metadata>
  <rdf:RDF xmlns:dc="http://purl.org/dc/elements/1.1/" xmlns:cc="http://creativecommons.org/ns#" xmlns:rdf="http://www.w3.org/1999/02/22-rdf-syntax-ns#">
   <cc:Work>
    <dc:type rdf:resource="http://purl.org/dc/dcmitype/StillImage"/>
    <dc:date>2022-10-26T21:53:15.922393</dc:date>
    <dc:format>image/svg+xml</dc:format>
    <dc:creator>
     <cc:Agent>
      <dc:title>Matplotlib v3.5.3, https://matplotlib.org/</dc:title>
     </cc:Agent>
    </dc:creator>
   </cc:Work>
  </rdf:RDF>
 </metadata>
 <defs>
  <style type="text/css">*{stroke-linejoin: round; stroke-linecap: butt}</style>
 </defs>
 <g id="figure_1">
  <g id="patch_1">
   <path d="M -0 248.518125 
L 380.482812 248.518125 
L 380.482812 0 
L -0 0 
L -0 248.518125 
z
" style="fill: none"/>
  </g>
  <g id="axes_1">
   <g id="patch_2">
    <path d="M 38.482813 224.64 
L 373.282813 224.64 
L 373.282813 7.2 
L 38.482813 7.2 
z
" style="fill: #ffffff"/>
   </g>
   <g id="matplotlib.axis_1">
    <g id="xtick_1">
     <g id="line2d_1">
      <defs>
       <path id="m4bbdfbb8c5" d="M 0 0 
L 0 3.5 
" style="stroke: #000000; stroke-width: 0.8"/>
      </defs>
      <g>
       <use xlink:href="#m4bbdfbb8c5" x="87.519176" y="224.64" style="stroke: #000000; stroke-width: 0.8"/>
      </g>
     </g>
     <g id="text_1">
      <!-- 2 -->
      <g transform="translate(84.337926 239.238438)scale(0.1 -0.1)">
       <defs>
        <path id="DejaVuSans-32" d="M 1228 531 
L 3431 531 
L 3431 0 
L 469 0 
L 469 531 
Q 828 903 1448 1529 
Q 2069 2156 2228 2338 
Q 2531 2678 2651 2914 
Q 2772 3150 2772 3378 
Q 2772 3750 2511 3984 
Q 2250 4219 1831 4219 
Q 1534 4219 1204 4116 
Q 875 4013 500 3803 
L 500 4441 
Q 881 4594 1212 4672 
Q 1544 4750 1819 4750 
Q 2544 4750 2975 4387 
Q 3406 4025 3406 3419 
Q 3406 3131 3298 2873 
Q 3191 2616 2906 2266 
Q 2828 2175 2409 1742 
Q 1991 1309 1228 531 
z
" transform="scale(0.015625)"/>
       </defs>
       <use xlink:href="#DejaVuSans-32"/>
      </g>
     </g>
    </g>
    <g id="xtick_2">
     <g id="line2d_2">
      <g>
       <use xlink:href="#m4bbdfbb8c5" x="155.15554" y="224.64" style="stroke: #000000; stroke-width: 0.8"/>
      </g>
     </g>
     <g id="text_2">
      <!-- 4 -->
      <g transform="translate(151.97429 239.238438)scale(0.1 -0.1)">
       <defs>
        <path id="DejaVuSans-34" d="M 2419 4116 
L 825 1625 
L 2419 1625 
L 2419 4116 
z
M 2253 4666 
L 3047 4666 
L 3047 1625 
L 3713 1625 
L 3713 1100 
L 3047 1100 
L 3047 0 
L 2419 0 
L 2419 1100 
L 313 1100 
L 313 1709 
L 2253 4666 
z
" transform="scale(0.015625)"/>
       </defs>
       <use xlink:href="#DejaVuSans-34"/>
      </g>
     </g>
    </g>
    <g id="xtick_3">
     <g id="line2d_3">
      <g>
       <use xlink:href="#m4bbdfbb8c5" x="222.791903" y="224.64" style="stroke: #000000; stroke-width: 0.8"/>
      </g>
     </g>
     <g id="text_3">
      <!-- 6 -->
      <g transform="translate(219.610653 239.238438)scale(0.1 -0.1)">
       <defs>
        <path id="DejaVuSans-36" d="M 2113 2584 
Q 1688 2584 1439 2293 
Q 1191 2003 1191 1497 
Q 1191 994 1439 701 
Q 1688 409 2113 409 
Q 2538 409 2786 701 
Q 3034 994 3034 1497 
Q 3034 2003 2786 2293 
Q 2538 2584 2113 2584 
z
M 3366 4563 
L 3366 3988 
Q 3128 4100 2886 4159 
Q 2644 4219 2406 4219 
Q 1781 4219 1451 3797 
Q 1122 3375 1075 2522 
Q 1259 2794 1537 2939 
Q 1816 3084 2150 3084 
Q 2853 3084 3261 2657 
Q 3669 2231 3669 1497 
Q 3669 778 3244 343 
Q 2819 -91 2113 -91 
Q 1303 -91 875 529 
Q 447 1150 447 2328 
Q 447 3434 972 4092 
Q 1497 4750 2381 4750 
Q 2619 4750 2861 4703 
Q 3103 4656 3366 4563 
z
" transform="scale(0.015625)"/>
       </defs>
       <use xlink:href="#DejaVuSans-36"/>
      </g>
     </g>
    </g>
    <g id="xtick_4">
     <g id="line2d_4">
      <g>
       <use xlink:href="#m4bbdfbb8c5" x="290.428267" y="224.64" style="stroke: #000000; stroke-width: 0.8"/>
      </g>
     </g>
     <g id="text_4">
      <!-- 8 -->
      <g transform="translate(287.247017 239.238438)scale(0.1 -0.1)">
       <defs>
        <path id="DejaVuSans-38" d="M 2034 2216 
Q 1584 2216 1326 1975 
Q 1069 1734 1069 1313 
Q 1069 891 1326 650 
Q 1584 409 2034 409 
Q 2484 409 2743 651 
Q 3003 894 3003 1313 
Q 3003 1734 2745 1975 
Q 2488 2216 2034 2216 
z
M 1403 2484 
Q 997 2584 770 2862 
Q 544 3141 544 3541 
Q 544 4100 942 4425 
Q 1341 4750 2034 4750 
Q 2731 4750 3128 4425 
Q 3525 4100 3525 3541 
Q 3525 3141 3298 2862 
Q 3072 2584 2669 2484 
Q 3125 2378 3379 2068 
Q 3634 1759 3634 1313 
Q 3634 634 3220 271 
Q 2806 -91 2034 -91 
Q 1263 -91 848 271 
Q 434 634 434 1313 
Q 434 1759 690 2068 
Q 947 2378 1403 2484 
z
M 1172 3481 
Q 1172 3119 1398 2916 
Q 1625 2713 2034 2713 
Q 2441 2713 2670 2916 
Q 2900 3119 2900 3481 
Q 2900 3844 2670 4047 
Q 2441 4250 2034 4250 
Q 1625 4250 1398 4047 
Q 1172 3844 1172 3481 
z
" transform="scale(0.015625)"/>
       </defs>
       <use xlink:href="#DejaVuSans-38"/>
      </g>
     </g>
    </g>
    <g id="xtick_5">
     <g id="line2d_5">
      <g>
       <use xlink:href="#m4bbdfbb8c5" x="358.064631" y="224.64" style="stroke: #000000; stroke-width: 0.8"/>
      </g>
     </g>
     <g id="text_5">
      <!-- 10 -->
      <g transform="translate(351.702131 239.238438)scale(0.1 -0.1)">
       <defs>
        <path id="DejaVuSans-31" d="M 794 531 
L 1825 531 
L 1825 4091 
L 703 3866 
L 703 4441 
L 1819 4666 
L 2450 4666 
L 2450 531 
L 3481 531 
L 3481 0 
L 794 0 
L 794 531 
z
" transform="scale(0.015625)"/>
        <path id="DejaVuSans-30" d="M 2034 4250 
Q 1547 4250 1301 3770 
Q 1056 3291 1056 2328 
Q 1056 1369 1301 889 
Q 1547 409 2034 409 
Q 2525 409 2770 889 
Q 3016 1369 3016 2328 
Q 3016 3291 2770 3770 
Q 2525 4250 2034 4250 
z
M 2034 4750 
Q 2819 4750 3233 4129 
Q 3647 3509 3647 2328 
Q 3647 1150 3233 529 
Q 2819 -91 2034 -91 
Q 1250 -91 836 529 
Q 422 1150 422 2328 
Q 422 3509 836 4129 
Q 1250 4750 2034 4750 
z
" transform="scale(0.015625)"/>
       </defs>
       <use xlink:href="#DejaVuSans-31"/>
       <use xlink:href="#DejaVuSans-30" x="63.623047"/>
      </g>
     </g>
    </g>
   </g>
   <g id="matplotlib.axis_2">
    <g id="ytick_1">
     <g id="line2d_6">
      <defs>
       <path id="m164fe4645e" d="M 0 0 
L -3.5 0 
" style="stroke: #000000; stroke-width: 0.8"/>
      </defs>
      <g>
       <use xlink:href="#m164fe4645e" x="38.482813" y="207.988646" style="stroke: #000000; stroke-width: 0.8"/>
      </g>
     </g>
     <g id="text_6">
      <!-- −3.2 -->
      <g transform="translate(7.2 211.787865)scale(0.1 -0.1)">
       <defs>
        <path id="DejaVuSans-2212" d="M 678 2272 
L 4684 2272 
L 4684 1741 
L 678 1741 
L 678 2272 
z
" transform="scale(0.015625)"/>
        <path id="DejaVuSans-33" d="M 2597 2516 
Q 3050 2419 3304 2112 
Q 3559 1806 3559 1356 
Q 3559 666 3084 287 
Q 2609 -91 1734 -91 
Q 1441 -91 1130 -33 
Q 819 25 488 141 
L 488 750 
Q 750 597 1062 519 
Q 1375 441 1716 441 
Q 2309 441 2620 675 
Q 2931 909 2931 1356 
Q 2931 1769 2642 2001 
Q 2353 2234 1838 2234 
L 1294 2234 
L 1294 2753 
L 1863 2753 
Q 2328 2753 2575 2939 
Q 2822 3125 2822 3475 
Q 2822 3834 2567 4026 
Q 2313 4219 1838 4219 
Q 1578 4219 1281 4162 
Q 984 4106 628 3988 
L 628 4550 
Q 988 4650 1302 4700 
Q 1616 4750 1894 4750 
Q 2613 4750 3031 4423 
Q 3450 4097 3450 3541 
Q 3450 3153 3228 2886 
Q 3006 2619 2597 2516 
z
" transform="scale(0.015625)"/>
        <path id="DejaVuSans-2e" d="M 684 794 
L 1344 794 
L 1344 0 
L 684 0 
L 684 794 
z
" transform="scale(0.015625)"/>
       </defs>
       <use xlink:href="#DejaVuSans-2212"/>
       <use xlink:href="#DejaVuSans-33" x="83.789062"/>
       <use xlink:href="#DejaVuSans-2e" x="147.412109"/>
       <use xlink:href="#DejaVuSans-32" x="179.199219"/>
      </g>
     </g>
    </g>
    <g id="ytick_2">
     <g id="line2d_7">
      <g>
       <use xlink:href="#m164fe4645e" x="38.482813" y="181.809201" style="stroke: #000000; stroke-width: 0.8"/>
      </g>
     </g>
     <g id="text_7">
      <!-- −3.0 -->
      <g transform="translate(7.2 185.60842)scale(0.1 -0.1)">
       <use xlink:href="#DejaVuSans-2212"/>
       <use xlink:href="#DejaVuSans-33" x="83.789062"/>
       <use xlink:href="#DejaVuSans-2e" x="147.412109"/>
       <use xlink:href="#DejaVuSans-30" x="179.199219"/>
      </g>
     </g>
    </g>
    <g id="ytick_3">
     <g id="line2d_8">
      <g>
       <use xlink:href="#m164fe4645e" x="38.482813" y="155.629757" style="stroke: #000000; stroke-width: 0.8"/>
      </g>
     </g>
     <g id="text_8">
      <!-- −2.8 -->
      <g transform="translate(7.2 159.428976)scale(0.1 -0.1)">
       <use xlink:href="#DejaVuSans-2212"/>
       <use xlink:href="#DejaVuSans-32" x="83.789062"/>
       <use xlink:href="#DejaVuSans-2e" x="147.412109"/>
       <use xlink:href="#DejaVuSans-38" x="179.199219"/>
      </g>
     </g>
    </g>
    <g id="ytick_4">
     <g id="line2d_9">
      <g>
       <use xlink:href="#m164fe4645e" x="38.482813" y="129.450313" style="stroke: #000000; stroke-width: 0.8"/>
      </g>
     </g>
     <g id="text_9">
      <!-- −2.6 -->
      <g transform="translate(7.2 133.249531)scale(0.1 -0.1)">
       <use xlink:href="#DejaVuSans-2212"/>
       <use xlink:href="#DejaVuSans-32" x="83.789062"/>
       <use xlink:href="#DejaVuSans-2e" x="147.412109"/>
       <use xlink:href="#DejaVuSans-36" x="179.199219"/>
      </g>
     </g>
    </g>
    <g id="ytick_5">
     <g id="line2d_10">
      <g>
       <use xlink:href="#m164fe4645e" x="38.482813" y="103.270868" style="stroke: #000000; stroke-width: 0.8"/>
      </g>
     </g>
     <g id="text_10">
      <!-- −2.4 -->
      <g transform="translate(7.2 107.070087)scale(0.1 -0.1)">
       <use xlink:href="#DejaVuSans-2212"/>
       <use xlink:href="#DejaVuSans-32" x="83.789062"/>
       <use xlink:href="#DejaVuSans-2e" x="147.412109"/>
       <use xlink:href="#DejaVuSans-34" x="179.199219"/>
      </g>
     </g>
    </g>
    <g id="ytick_6">
     <g id="line2d_11">
      <g>
       <use xlink:href="#m164fe4645e" x="38.482813" y="77.091424" style="stroke: #000000; stroke-width: 0.8"/>
      </g>
     </g>
     <g id="text_11">
      <!-- −2.2 -->
      <g transform="translate(7.2 80.890642)scale(0.1 -0.1)">
       <use xlink:href="#DejaVuSans-2212"/>
       <use xlink:href="#DejaVuSans-32" x="83.789062"/>
       <use xlink:href="#DejaVuSans-2e" x="147.412109"/>
       <use xlink:href="#DejaVuSans-32" x="179.199219"/>
      </g>
     </g>
    </g>
    <g id="ytick_7">
     <g id="line2d_12">
      <g>
       <use xlink:href="#m164fe4645e" x="38.482813" y="50.911979" style="stroke: #000000; stroke-width: 0.8"/>
      </g>
     </g>
     <g id="text_12">
      <!-- −2.0 -->
      <g transform="translate(7.2 54.711198)scale(0.1 -0.1)">
       <use xlink:href="#DejaVuSans-2212"/>
       <use xlink:href="#DejaVuSans-32" x="83.789062"/>
       <use xlink:href="#DejaVuSans-2e" x="147.412109"/>
       <use xlink:href="#DejaVuSans-30" x="179.199219"/>
      </g>
     </g>
    </g>
    <g id="ytick_8">
     <g id="line2d_13">
      <g>
       <use xlink:href="#m164fe4645e" x="38.482813" y="24.732535" style="stroke: #000000; stroke-width: 0.8"/>
      </g>
     </g>
     <g id="text_13">
      <!-- −1.8 -->
      <g transform="translate(7.2 28.531754)scale(0.1 -0.1)">
       <use xlink:href="#DejaVuSans-2212"/>
       <use xlink:href="#DejaVuSans-31" x="83.789062"/>
       <use xlink:href="#DejaVuSans-2e" x="147.412109"/>
       <use xlink:href="#DejaVuSans-38" x="179.199219"/>
      </g>
     </g>
    </g>
   </g>
   <g id="line2d_14">
    <defs>
     <path id="m7bd4914926" d="M 0 3 
C 0.795609 3 1.55874 2.683901 2.12132 2.12132 
C 2.683901 1.55874 3 0.795609 3 0 
C 3 -0.795609 2.683901 -1.55874 2.12132 -2.12132 
C 1.55874 -2.683901 0.795609 -3 0 -3 
C -0.795609 -3 -1.55874 -2.683901 -2.12132 -2.12132 
C -2.683901 -1.55874 -3 -0.795609 -3 0 
C -3 0.795609 -2.683901 1.55874 -2.12132 2.12132 
C -1.55874 2.683901 -0.795609 3 0 3 
z
" style="stroke: #1f77b4"/>
    </defs>
    <g clip-path="url(#p91750c52a5)">
     <use xlink:href="#m7bd4914926" x="53.700994" y="126.002311" style="fill: #1f77b4; stroke: #1f77b4"/>
     <use xlink:href="#m7bd4914926" x="54.923338" y="145.963002" style="fill: #1f77b4; stroke: #1f77b4"/>
     <use xlink:href="#m7bd4914926" x="56.145682" y="140.42861" style="fill: #1f77b4; stroke: #1f77b4"/>
     <use xlink:href="#m7bd4914926" x="57.368026" y="125.879144" style="fill: #1f77b4; stroke: #1f77b4"/>
     <use xlink:href="#m7bd4914926" x="58.59037" y="132.671835" style="fill: #1f77b4; stroke: #1f77b4"/>
     <use xlink:href="#m7bd4914926" x="59.812714" y="171.751118" style="fill: #1f77b4; stroke: #1f77b4"/>
     <use xlink:href="#m7bd4914926" x="61.035058" y="148.300203" style="fill: #1f77b4; stroke: #1f77b4"/>
     <use xlink:href="#m7bd4914926" x="62.257402" y="164.433442" style="fill: #1f77b4; stroke: #1f77b4"/>
     <use xlink:href="#m7bd4914926" x="63.479746" y="165.458016" style="fill: #1f77b4; stroke: #1f77b4"/>
     <use xlink:href="#m7bd4914926" x="64.70209" y="160.327252" style="fill: #1f77b4; stroke: #1f77b4"/>
     <use xlink:href="#m7bd4914926" x="65.924434" y="165.352793" style="fill: #1f77b4; stroke: #1f77b4"/>
     <use xlink:href="#m7bd4914926" x="67.146777" y="149.681263" style="fill: #1f77b4; stroke: #1f77b4"/>
     <use xlink:href="#m7bd4914926" x="68.369121" y="160.178285" style="fill: #1f77b4; stroke: #1f77b4"/>
     <use xlink:href="#m7bd4914926" x="69.591465" y="169.914979" style="fill: #1f77b4; stroke: #1f77b4"/>
     <use xlink:href="#m7bd4914926" x="70.813809" y="167.01119" style="fill: #1f77b4; stroke: #1f77b4"/>
     <use xlink:href="#m7bd4914926" x="72.036153" y="169.714123" style="fill: #1f77b4; stroke: #1f77b4"/>
     <use xlink:href="#m7bd4914926" x="73.258497" y="155.733418" style="fill: #1f77b4; stroke: #1f77b4"/>
     <use xlink:href="#m7bd4914926" x="74.480841" y="179.13375" style="fill: #1f77b4; stroke: #1f77b4"/>
     <use xlink:href="#m7bd4914926" x="75.703185" y="173.458237" style="fill: #1f77b4; stroke: #1f77b4"/>
     <use xlink:href="#m7bd4914926" x="76.925529" y="189.795134" style="fill: #1f77b4; stroke: #1f77b4"/>
     <use xlink:href="#m7bd4914926" x="78.147873" y="213.044349" style="fill: #1f77b4; stroke: #1f77b4"/>
     <use xlink:href="#m7bd4914926" x="79.370217" y="172.034972" style="fill: #1f77b4; stroke: #1f77b4"/>
     <use xlink:href="#m7bd4914926" x="80.592561" y="170.193683" style="fill: #1f77b4; stroke: #1f77b4"/>
     <use xlink:href="#m7bd4914926" x="81.814905" y="192.096846" style="fill: #1f77b4; stroke: #1f77b4"/>
     <use xlink:href="#m7bd4914926" x="83.037248" y="153.500709" style="fill: #1f77b4; stroke: #1f77b4"/>
     <use xlink:href="#m7bd4914926" x="84.259592" y="203.034212" style="fill: #1f77b4; stroke: #1f77b4"/>
     <use xlink:href="#m7bd4914926" x="85.481936" y="184.141432" style="fill: #1f77b4; stroke: #1f77b4"/>
     <use xlink:href="#m7bd4914926" x="86.70428" y="187.892498" style="fill: #1f77b4; stroke: #1f77b4"/>
     <use xlink:href="#m7bd4914926" x="87.926624" y="166.039906" style="fill: #1f77b4; stroke: #1f77b4"/>
     <use xlink:href="#m7bd4914926" x="89.148968" y="167.491471" style="fill: #1f77b4; stroke: #1f77b4"/>
     <use xlink:href="#m7bd4914926" x="90.371312" y="185.279135" style="fill: #1f77b4; stroke: #1f77b4"/>
     <use xlink:href="#m7bd4914926" x="91.593656" y="182.901472" style="fill: #1f77b4; stroke: #1f77b4"/>
     <use xlink:href="#m7bd4914926" x="92.816" y="199.979105" style="fill: #1f77b4; stroke: #1f77b4"/>
     <use xlink:href="#m7bd4914926" x="94.038344" y="214.756364" style="fill: #1f77b4; stroke: #1f77b4"/>
     <use xlink:href="#m7bd4914926" x="95.260688" y="193.816501" style="fill: #1f77b4; stroke: #1f77b4"/>
     <use xlink:href="#m7bd4914926" x="96.483032" y="187.614833" style="fill: #1f77b4; stroke: #1f77b4"/>
     <use xlink:href="#m7bd4914926" x="97.705375" y="173.921762" style="fill: #1f77b4; stroke: #1f77b4"/>
     <use xlink:href="#m7bd4914926" x="98.927719" y="174.617908" style="fill: #1f77b4; stroke: #1f77b4"/>
     <use xlink:href="#m7bd4914926" x="100.150063" y="195.724505" style="fill: #1f77b4; stroke: #1f77b4"/>
     <use xlink:href="#m7bd4914926" x="101.372407" y="194.877006" style="fill: #1f77b4; stroke: #1f77b4"/>
     <use xlink:href="#m7bd4914926" x="102.594751" y="204.878999" style="fill: #1f77b4; stroke: #1f77b4"/>
     <use xlink:href="#m7bd4914926" x="103.817095" y="209.944162" style="fill: #1f77b4; stroke: #1f77b4"/>
     <use xlink:href="#m7bd4914926" x="105.039439" y="213.863573" style="fill: #1f77b4; stroke: #1f77b4"/>
     <use xlink:href="#m7bd4914926" x="106.261783" y="166.136607" style="fill: #1f77b4; stroke: #1f77b4"/>
     <use xlink:href="#m7bd4914926" x="107.484127" y="198.456591" style="fill: #1f77b4; stroke: #1f77b4"/>
     <use xlink:href="#m7bd4914926" x="108.706471" y="197.604869" style="fill: #1f77b4; stroke: #1f77b4"/>
     <use xlink:href="#m7bd4914926" x="109.928815" y="208.326701" style="fill: #1f77b4; stroke: #1f77b4"/>
     <use xlink:href="#m7bd4914926" x="111.151159" y="181.780925" style="fill: #1f77b4; stroke: #1f77b4"/>
     <use xlink:href="#m7bd4914926" x="112.373503" y="213.086956" style="fill: #1f77b4; stroke: #1f77b4"/>
     <use xlink:href="#m7bd4914926" x="113.595846" y="194.723512" style="fill: #1f77b4; stroke: #1f77b4"/>
     <use xlink:href="#m7bd4914926" x="114.81819" y="203.611986" style="fill: #1f77b4; stroke: #1f77b4"/>
     <use xlink:href="#m7bd4914926" x="116.040534" y="186.752915" style="fill: #1f77b4; stroke: #1f77b4"/>
     <use xlink:href="#m7bd4914926" x="117.262878" y="198.405992" style="fill: #1f77b4; stroke: #1f77b4"/>
     <use xlink:href="#m7bd4914926" x="118.485222" y="207.052256" style="fill: #1f77b4; stroke: #1f77b4"/>
     <use xlink:href="#m7bd4914926" x="119.707566" y="191.82202" style="fill: #1f77b4; stroke: #1f77b4"/>
     <use xlink:href="#m7bd4914926" x="120.92991" y="185.678504" style="fill: #1f77b4; stroke: #1f77b4"/>
     <use xlink:href="#m7bd4914926" x="122.152254" y="190.224299" style="fill: #1f77b4; stroke: #1f77b4"/>
     <use xlink:href="#m7bd4914926" x="123.374598" y="186.923565" style="fill: #1f77b4; stroke: #1f77b4"/>
     <use xlink:href="#m7bd4914926" x="124.596942" y="198.952376" style="fill: #1f77b4; stroke: #1f77b4"/>
     <use xlink:href="#m7bd4914926" x="125.819286" y="195.142959" style="fill: #1f77b4; stroke: #1f77b4"/>
     <use xlink:href="#m7bd4914926" x="127.04163" y="198.922131" style="fill: #1f77b4; stroke: #1f77b4"/>
     <use xlink:href="#m7bd4914926" x="128.263974" y="194.531281" style="fill: #1f77b4; stroke: #1f77b4"/>
     <use xlink:href="#m7bd4914926" x="129.486317" y="200.154144" style="fill: #1f77b4; stroke: #1f77b4"/>
     <use xlink:href="#m7bd4914926" x="130.708661" y="211.773175" style="fill: #1f77b4; stroke: #1f77b4"/>
     <use xlink:href="#m7bd4914926" x="131.931005" y="186.501794" style="fill: #1f77b4; stroke: #1f77b4"/>
     <use xlink:href="#m7bd4914926" x="133.153349" y="193.712822" style="fill: #1f77b4; stroke: #1f77b4"/>
     <use xlink:href="#m7bd4914926" x="134.375693" y="209.40398" style="fill: #1f77b4; stroke: #1f77b4"/>
     <use xlink:href="#m7bd4914926" x="135.598037" y="181.601516" style="fill: #1f77b4; stroke: #1f77b4"/>
     <use xlink:href="#m7bd4914926" x="136.820381" y="199.112517" style="fill: #1f77b4; stroke: #1f77b4"/>
     <use xlink:href="#m7bd4914926" x="138.042725" y="186.116658" style="fill: #1f77b4; stroke: #1f77b4"/>
     <use xlink:href="#m7bd4914926" x="139.265069" y="176.797125" style="fill: #1f77b4; stroke: #1f77b4"/>
     <use xlink:href="#m7bd4914926" x="140.487413" y="184.180589" style="fill: #1f77b4; stroke: #1f77b4"/>
     <use xlink:href="#m7bd4914926" x="141.709757" y="170.467206" style="fill: #1f77b4; stroke: #1f77b4"/>
     <use xlink:href="#m7bd4914926" x="142.932101" y="201.042725" style="fill: #1f77b4; stroke: #1f77b4"/>
     <use xlink:href="#m7bd4914926" x="144.154444" y="179.095418" style="fill: #1f77b4; stroke: #1f77b4"/>
     <use xlink:href="#m7bd4914926" x="145.376788" y="192.794248" style="fill: #1f77b4; stroke: #1f77b4"/>
     <use xlink:href="#m7bd4914926" x="146.599132" y="194.682984" style="fill: #1f77b4; stroke: #1f77b4"/>
     <use xlink:href="#m7bd4914926" x="147.821476" y="190.301928" style="fill: #1f77b4; stroke: #1f77b4"/>
     <use xlink:href="#m7bd4914926" x="149.04382" y="186.230109" style="fill: #1f77b4; stroke: #1f77b4"/>
     <use xlink:href="#m7bd4914926" x="150.266164" y="180.830705" style="fill: #1f77b4; stroke: #1f77b4"/>
     <use xlink:href="#m7bd4914926" x="151.488508" y="196.218516" style="fill: #1f77b4; stroke: #1f77b4"/>
     <use xlink:href="#m7bd4914926" x="152.710852" y="168.564122" style="fill: #1f77b4; stroke: #1f77b4"/>
     <use xlink:href="#m7bd4914926" x="153.933196" y="173.636794" style="fill: #1f77b4; stroke: #1f77b4"/>
     <use xlink:href="#m7bd4914926" x="155.15554" y="199.205821" style="fill: #1f77b4; stroke: #1f77b4"/>
     <use xlink:href="#m7bd4914926" x="156.377884" y="158.969073" style="fill: #1f77b4; stroke: #1f77b4"/>
     <use xlink:href="#m7bd4914926" x="157.600228" y="152.975001" style="fill: #1f77b4; stroke: #1f77b4"/>
     <use xlink:href="#m7bd4914926" x="158.822572" y="161.692556" style="fill: #1f77b4; stroke: #1f77b4"/>
     <use xlink:href="#m7bd4914926" x="160.044915" y="178.797693" style="fill: #1f77b4; stroke: #1f77b4"/>
     <use xlink:href="#m7bd4914926" x="161.267259" y="189.768014" style="fill: #1f77b4; stroke: #1f77b4"/>
     <use xlink:href="#m7bd4914926" x="162.489603" y="161.249139" style="fill: #1f77b4; stroke: #1f77b4"/>
     <use xlink:href="#m7bd4914926" x="163.711947" y="179.618644" style="fill: #1f77b4; stroke: #1f77b4"/>
     <use xlink:href="#m7bd4914926" x="164.934291" y="157.619602" style="fill: #1f77b4; stroke: #1f77b4"/>
     <use xlink:href="#m7bd4914926" x="166.156635" y="170.165309" style="fill: #1f77b4; stroke: #1f77b4"/>
     <use xlink:href="#m7bd4914926" x="167.378979" y="159.36899" style="fill: #1f77b4; stroke: #1f77b4"/>
     <use xlink:href="#m7bd4914926" x="168.601323" y="166.740636" style="fill: #1f77b4; stroke: #1f77b4"/>
     <use xlink:href="#m7bd4914926" x="169.823667" y="161.40031" style="fill: #1f77b4; stroke: #1f77b4"/>
     <use xlink:href="#m7bd4914926" x="171.046011" y="169.747067" style="fill: #1f77b4; stroke: #1f77b4"/>
     <use xlink:href="#m7bd4914926" x="172.268355" y="145.735114" style="fill: #1f77b4; stroke: #1f77b4"/>
     <use xlink:href="#m7bd4914926" x="173.490699" y="166.669597" style="fill: #1f77b4; stroke: #1f77b4"/>
     <use xlink:href="#m7bd4914926" x="174.713043" y="162.280338" style="fill: #1f77b4; stroke: #1f77b4"/>
     <use xlink:href="#m7bd4914926" x="175.935386" y="142.096238" style="fill: #1f77b4; stroke: #1f77b4"/>
     <use xlink:href="#m7bd4914926" x="177.15773" y="183.584517" style="fill: #1f77b4; stroke: #1f77b4"/>
     <use xlink:href="#m7bd4914926" x="178.380074" y="181.762475" style="fill: #1f77b4; stroke: #1f77b4"/>
     <use xlink:href="#m7bd4914926" x="179.602418" y="151.625592" style="fill: #1f77b4; stroke: #1f77b4"/>
     <use xlink:href="#m7bd4914926" x="180.824762" y="178.846423" style="fill: #1f77b4; stroke: #1f77b4"/>
     <use xlink:href="#m7bd4914926" x="182.047106" y="137.218431" style="fill: #1f77b4; stroke: #1f77b4"/>
     <use xlink:href="#m7bd4914926" x="183.26945" y="167.237061" style="fill: #1f77b4; stroke: #1f77b4"/>
     <use xlink:href="#m7bd4914926" x="184.491794" y="170.763764" style="fill: #1f77b4; stroke: #1f77b4"/>
     <use xlink:href="#m7bd4914926" x="185.714138" y="134.959953" style="fill: #1f77b4; stroke: #1f77b4"/>
     <use xlink:href="#m7bd4914926" x="186.936482" y="139.896387" style="fill: #1f77b4; stroke: #1f77b4"/>
     <use xlink:href="#m7bd4914926" x="188.158826" y="133.969689" style="fill: #1f77b4; stroke: #1f77b4"/>
     <use xlink:href="#m7bd4914926" x="189.38117" y="145.689843" style="fill: #1f77b4; stroke: #1f77b4"/>
     <use xlink:href="#m7bd4914926" x="190.603513" y="167.951886" style="fill: #1f77b4; stroke: #1f77b4"/>
     <use xlink:href="#m7bd4914926" x="191.825857" y="130.800362" style="fill: #1f77b4; stroke: #1f77b4"/>
     <use xlink:href="#m7bd4914926" x="193.048201" y="158.429673" style="fill: #1f77b4; stroke: #1f77b4"/>
     <use xlink:href="#m7bd4914926" x="194.270545" y="143.531917" style="fill: #1f77b4; stroke: #1f77b4"/>
     <use xlink:href="#m7bd4914926" x="195.492889" y="140.746269" style="fill: #1f77b4; stroke: #1f77b4"/>
     <use xlink:href="#m7bd4914926" x="196.715233" y="154.279837" style="fill: #1f77b4; stroke: #1f77b4"/>
     <use xlink:href="#m7bd4914926" x="197.937577" y="143.313663" style="fill: #1f77b4; stroke: #1f77b4"/>
     <use xlink:href="#m7bd4914926" x="199.159921" y="138.377235" style="fill: #1f77b4; stroke: #1f77b4"/>
     <use xlink:href="#m7bd4914926" x="200.382265" y="144.614259" style="fill: #1f77b4; stroke: #1f77b4"/>
     <use xlink:href="#m7bd4914926" x="201.604609" y="163.021486" style="fill: #1f77b4; stroke: #1f77b4"/>
     <use xlink:href="#m7bd4914926" x="202.826953" y="143.812162" style="fill: #1f77b4; stroke: #1f77b4"/>
     <use xlink:href="#m7bd4914926" x="204.049297" y="129.435825" style="fill: #1f77b4; stroke: #1f77b4"/>
     <use xlink:href="#m7bd4914926" x="205.271641" y="154.967965" style="fill: #1f77b4; stroke: #1f77b4"/>
     <use xlink:href="#m7bd4914926" x="206.493984" y="146.910074" style="fill: #1f77b4; stroke: #1f77b4"/>
     <use xlink:href="#m7bd4914926" x="207.716328" y="149.719421" style="fill: #1f77b4; stroke: #1f77b4"/>
     <use xlink:href="#m7bd4914926" x="208.938672" y="118.885992" style="fill: #1f77b4; stroke: #1f77b4"/>
     <use xlink:href="#m7bd4914926" x="210.161016" y="133.358248" style="fill: #1f77b4; stroke: #1f77b4"/>
     <use xlink:href="#m7bd4914926" x="211.38336" y="135.88812" style="fill: #1f77b4; stroke: #1f77b4"/>
     <use xlink:href="#m7bd4914926" x="212.605704" y="150.360295" style="fill: #1f77b4; stroke: #1f77b4"/>
     <use xlink:href="#m7bd4914926" x="213.828048" y="132.281773" style="fill: #1f77b4; stroke: #1f77b4"/>
     <use xlink:href="#m7bd4914926" x="215.050392" y="147.222885" style="fill: #1f77b4; stroke: #1f77b4"/>
     <use xlink:href="#m7bd4914926" x="216.272736" y="137.032758" style="fill: #1f77b4; stroke: #1f77b4"/>
     <use xlink:href="#m7bd4914926" x="217.49508" y="144.823613" style="fill: #1f77b4; stroke: #1f77b4"/>
     <use xlink:href="#m7bd4914926" x="218.717424" y="126.695302" style="fill: #1f77b4; stroke: #1f77b4"/>
     <use xlink:href="#m7bd4914926" x="219.939768" y="127.049289" style="fill: #1f77b4; stroke: #1f77b4"/>
     <use xlink:href="#m7bd4914926" x="221.162112" y="136.368471" style="fill: #1f77b4; stroke: #1f77b4"/>
     <use xlink:href="#m7bd4914926" x="222.384455" y="127.501698" style="fill: #1f77b4; stroke: #1f77b4"/>
     <use xlink:href="#m7bd4914926" x="223.606799" y="146.034926" style="fill: #1f77b4; stroke: #1f77b4"/>
     <use xlink:href="#m7bd4914926" x="224.829143" y="150.287359" style="fill: #1f77b4; stroke: #1f77b4"/>
     <use xlink:href="#m7bd4914926" x="226.051487" y="124.054369" style="fill: #1f77b4; stroke: #1f77b4"/>
     <use xlink:href="#m7bd4914926" x="227.273831" y="126.661456" style="fill: #1f77b4; stroke: #1f77b4"/>
     <use xlink:href="#m7bd4914926" x="228.496175" y="119.566763" style="fill: #1f77b4; stroke: #1f77b4"/>
     <use xlink:href="#m7bd4914926" x="229.718519" y="95.719219" style="fill: #1f77b4; stroke: #1f77b4"/>
     <use xlink:href="#m7bd4914926" x="230.940863" y="113.584602" style="fill: #1f77b4; stroke: #1f77b4"/>
     <use xlink:href="#m7bd4914926" x="232.163207" y="136.928785" style="fill: #1f77b4; stroke: #1f77b4"/>
     <use xlink:href="#m7bd4914926" x="233.385551" y="109.390433" style="fill: #1f77b4; stroke: #1f77b4"/>
     <use xlink:href="#m7bd4914926" x="234.607895" y="140.267532" style="fill: #1f77b4; stroke: #1f77b4"/>
     <use xlink:href="#m7bd4914926" x="235.830239" y="128.114702" style="fill: #1f77b4; stroke: #1f77b4"/>
     <use xlink:href="#m7bd4914926" x="237.052582" y="121.995265" style="fill: #1f77b4; stroke: #1f77b4"/>
     <use xlink:href="#m7bd4914926" x="238.274926" y="97.703506" style="fill: #1f77b4; stroke: #1f77b4"/>
     <use xlink:href="#m7bd4914926" x="239.49727" y="128.907454" style="fill: #1f77b4; stroke: #1f77b4"/>
     <use xlink:href="#m7bd4914926" x="240.719614" y="129.004329" style="fill: #1f77b4; stroke: #1f77b4"/>
     <use xlink:href="#m7bd4914926" x="241.941958" y="118.502447" style="fill: #1f77b4; stroke: #1f77b4"/>
     <use xlink:href="#m7bd4914926" x="243.164302" y="124.925398" style="fill: #1f77b4; stroke: #1f77b4"/>
     <use xlink:href="#m7bd4914926" x="244.386646" y="100.519959" style="fill: #1f77b4; stroke: #1f77b4"/>
     <use xlink:href="#m7bd4914926" x="245.60899" y="128.429779" style="fill: #1f77b4; stroke: #1f77b4"/>
     <use xlink:href="#m7bd4914926" x="246.831334" y="128.340159" style="fill: #1f77b4; stroke: #1f77b4"/>
     <use xlink:href="#m7bd4914926" x="248.053678" y="118.077333" style="fill: #1f77b4; stroke: #1f77b4"/>
     <use xlink:href="#m7bd4914926" x="249.276022" y="117.891777" style="fill: #1f77b4; stroke: #1f77b4"/>
     <use xlink:href="#m7bd4914926" x="250.498366" y="85.141978" style="fill: #1f77b4; stroke: #1f77b4"/>
     <use xlink:href="#m7bd4914926" x="251.72071" y="96.997836" style="fill: #1f77b4; stroke: #1f77b4"/>
     <use xlink:href="#m7bd4914926" x="252.943053" y="107.306131" style="fill: #1f77b4; stroke: #1f77b4"/>
     <use xlink:href="#m7bd4914926" x="254.165397" y="123.519671" style="fill: #1f77b4; stroke: #1f77b4"/>
     <use xlink:href="#m7bd4914926" x="255.387741" y="95.453795" style="fill: #1f77b4; stroke: #1f77b4"/>
     <use xlink:href="#m7bd4914926" x="256.610085" y="118.626386" style="fill: #1f77b4; stroke: #1f77b4"/>
     <use xlink:href="#m7bd4914926" x="257.832429" y="124.782458" style="fill: #1f77b4; stroke: #1f77b4"/>
     <use xlink:href="#m7bd4914926" x="259.054773" y="88.039311" style="fill: #1f77b4; stroke: #1f77b4"/>
     <use xlink:href="#m7bd4914926" x="260.277117" y="98.47058" style="fill: #1f77b4; stroke: #1f77b4"/>
     <use xlink:href="#m7bd4914926" x="261.499461" y="89.595038" style="fill: #1f77b4; stroke: #1f77b4"/>
     <use xlink:href="#m7bd4914926" x="262.721805" y="96.506945" style="fill: #1f77b4; stroke: #1f77b4"/>
     <use xlink:href="#m7bd4914926" x="263.944149" y="88.494178" style="fill: #1f77b4; stroke: #1f77b4"/>
     <use xlink:href="#m7bd4914926" x="265.166493" y="107.26317" style="fill: #1f77b4; stroke: #1f77b4"/>
     <use xlink:href="#m7bd4914926" x="266.388837" y="111.311718" style="fill: #1f77b4; stroke: #1f77b4"/>
     <use xlink:href="#m7bd4914926" x="267.611181" y="87.88504" style="fill: #1f77b4; stroke: #1f77b4"/>
     <use xlink:href="#m7bd4914926" x="268.833524" y="106.357348" style="fill: #1f77b4; stroke: #1f77b4"/>
     <use xlink:href="#m7bd4914926" x="270.055868" y="103.901873" style="fill: #1f77b4; stroke: #1f77b4"/>
     <use xlink:href="#m7bd4914926" x="271.278212" y="99.874518" style="fill: #1f77b4; stroke: #1f77b4"/>
     <use xlink:href="#m7bd4914926" x="272.500556" y="92.719782" style="fill: #1f77b4; stroke: #1f77b4"/>
     <use xlink:href="#m7bd4914926" x="273.7229" y="96.620146" style="fill: #1f77b4; stroke: #1f77b4"/>
     <use xlink:href="#m7bd4914926" x="274.945244" y="109.023148" style="fill: #1f77b4; stroke: #1f77b4"/>
     <use xlink:href="#m7bd4914926" x="276.167588" y="98.490267" style="fill: #1f77b4; stroke: #1f77b4"/>
     <use xlink:href="#m7bd4914926" x="277.389932" y="118.210421" style="fill: #1f77b4; stroke: #1f77b4"/>
     <use xlink:href="#m7bd4914926" x="278.612276" y="79.96498" style="fill: #1f77b4; stroke: #1f77b4"/>
     <use xlink:href="#m7bd4914926" x="279.83462" y="108.163192" style="fill: #1f77b4; stroke: #1f77b4"/>
     <use xlink:href="#m7bd4914926" x="281.056964" y="100.693645" style="fill: #1f77b4; stroke: #1f77b4"/>
     <use xlink:href="#m7bd4914926" x="282.279308" y="84.600912" style="fill: #1f77b4; stroke: #1f77b4"/>
     <use xlink:href="#m7bd4914926" x="283.501651" y="94.011901" style="fill: #1f77b4; stroke: #1f77b4"/>
     <use xlink:href="#m7bd4914926" x="284.723995" y="63.182442" style="fill: #1f77b4; stroke: #1f77b4"/>
     <use xlink:href="#m7bd4914926" x="285.946339" y="99.35345" style="fill: #1f77b4; stroke: #1f77b4"/>
     <use xlink:href="#m7bd4914926" x="287.168683" y="77.986351" style="fill: #1f77b4; stroke: #1f77b4"/>
     <use xlink:href="#m7bd4914926" x="288.391027" y="81.049287" style="fill: #1f77b4; stroke: #1f77b4"/>
     <use xlink:href="#m7bd4914926" x="289.613371" y="94.879701" style="fill: #1f77b4; stroke: #1f77b4"/>
     <use xlink:href="#m7bd4914926" x="290.835715" y="71.796244" style="fill: #1f77b4; stroke: #1f77b4"/>
     <use xlink:href="#m7bd4914926" x="292.058059" y="79.948934" style="fill: #1f77b4; stroke: #1f77b4"/>
     <use xlink:href="#m7bd4914926" x="293.280403" y="66.660134" style="fill: #1f77b4; stroke: #1f77b4"/>
     <use xlink:href="#m7bd4914926" x="294.502747" y="65.044031" style="fill: #1f77b4; stroke: #1f77b4"/>
     <use xlink:href="#m7bd4914926" x="295.725091" y="46.56975" style="fill: #1f77b4; stroke: #1f77b4"/>
     <use xlink:href="#m7bd4914926" x="296.947435" y="56.455213" style="fill: #1f77b4; stroke: #1f77b4"/>
     <use xlink:href="#m7bd4914926" x="298.169779" y="77.848237" style="fill: #1f77b4; stroke: #1f77b4"/>
     <use xlink:href="#m7bd4914926" x="299.392122" y="75.216612" style="fill: #1f77b4; stroke: #1f77b4"/>
     <use xlink:href="#m7bd4914926" x="300.614466" y="56.758142" style="fill: #1f77b4; stroke: #1f77b4"/>
     <use xlink:href="#m7bd4914926" x="301.83681" y="61.646082" style="fill: #1f77b4; stroke: #1f77b4"/>
     <use xlink:href="#m7bd4914926" x="303.059154" y="60.916847" style="fill: #1f77b4; stroke: #1f77b4"/>
     <use xlink:href="#m7bd4914926" x="304.281498" y="89.535974" style="fill: #1f77b4; stroke: #1f77b4"/>
     <use xlink:href="#m7bd4914926" x="305.503842" y="67.765179" style="fill: #1f77b4; stroke: #1f77b4"/>
     <use xlink:href="#m7bd4914926" x="306.726186" y="76.185497" style="fill: #1f77b4; stroke: #1f77b4"/>
     <use xlink:href="#m7bd4914926" x="307.94853" y="61.940714" style="fill: #1f77b4; stroke: #1f77b4"/>
     <use xlink:href="#m7bd4914926" x="309.170874" y="65.971454" style="fill: #1f77b4; stroke: #1f77b4"/>
     <use xlink:href="#m7bd4914926" x="310.393218" y="51.856438" style="fill: #1f77b4; stroke: #1f77b4"/>
     <use xlink:href="#m7bd4914926" x="311.615562" y="58.703773" style="fill: #1f77b4; stroke: #1f77b4"/>
     <use xlink:href="#m7bd4914926" x="312.837906" y="51.650827" style="fill: #1f77b4; stroke: #1f77b4"/>
     <use xlink:href="#m7bd4914926" x="314.06025" y="67.138455" style="fill: #1f77b4; stroke: #1f77b4"/>
     <use xlink:href="#m7bd4914926" x="315.282593" y="72.487176" style="fill: #1f77b4; stroke: #1f77b4"/>
     <use xlink:href="#m7bd4914926" x="316.504937" y="64.585531" style="fill: #1f77b4; stroke: #1f77b4"/>
     <use xlink:href="#m7bd4914926" x="317.727281" y="58.536339" style="fill: #1f77b4; stroke: #1f77b4"/>
     <use xlink:href="#m7bd4914926" x="318.949625" y="52.448019" style="fill: #1f77b4; stroke: #1f77b4"/>
     <use xlink:href="#m7bd4914926" x="320.171969" y="26.936772" style="fill: #1f77b4; stroke: #1f77b4"/>
     <use xlink:href="#m7bd4914926" x="321.394313" y="56.165162" style="fill: #1f77b4; stroke: #1f77b4"/>
     <use xlink:href="#m7bd4914926" x="322.616657" y="67.228666" style="fill: #1f77b4; stroke: #1f77b4"/>
     <use xlink:href="#m7bd4914926" x="323.839001" y="58.35007" style="fill: #1f77b4; stroke: #1f77b4"/>
     <use xlink:href="#m7bd4914926" x="325.061345" y="58.997342" style="fill: #1f77b4; stroke: #1f77b4"/>
     <use xlink:href="#m7bd4914926" x="326.283689" y="45.736371" style="fill: #1f77b4; stroke: #1f77b4"/>
     <use xlink:href="#m7bd4914926" x="327.506033" y="71.319372" style="fill: #1f77b4; stroke: #1f77b4"/>
     <use xlink:href="#m7bd4914926" x="328.728377" y="49.436742" style="fill: #1f77b4; stroke: #1f77b4"/>
     <use xlink:href="#m7bd4914926" x="329.95072" y="47.332386" style="fill: #1f77b4; stroke: #1f77b4"/>
     <use xlink:href="#m7bd4914926" x="331.173064" y="45.46016" style="fill: #1f77b4; stroke: #1f77b4"/>
     <use xlink:href="#m7bd4914926" x="332.395408" y="55.438532" style="fill: #1f77b4; stroke: #1f77b4"/>
     <use xlink:href="#m7bd4914926" x="333.617752" y="49.856811" style="fill: #1f77b4; stroke: #1f77b4"/>
     <use xlink:href="#m7bd4914926" x="334.840096" y="64.507868" style="fill: #1f77b4; stroke: #1f77b4"/>
     <use xlink:href="#m7bd4914926" x="336.06244" y="51.451737" style="fill: #1f77b4; stroke: #1f77b4"/>
     <use xlink:href="#m7bd4914926" x="337.284784" y="51.229427" style="fill: #1f77b4; stroke: #1f77b4"/>
     <use xlink:href="#m7bd4914926" x="338.507128" y="37.808949" style="fill: #1f77b4; stroke: #1f77b4"/>
     <use xlink:href="#m7bd4914926" x="339.729472" y="57.522655" style="fill: #1f77b4; stroke: #1f77b4"/>
     <use xlink:href="#m7bd4914926" x="340.951816" y="31.298723" style="fill: #1f77b4; stroke: #1f77b4"/>
     <use xlink:href="#m7bd4914926" x="342.17416" y="21.100071" style="fill: #1f77b4; stroke: #1f77b4"/>
     <use xlink:href="#m7bd4914926" x="343.396504" y="66.898295" style="fill: #1f77b4; stroke: #1f77b4"/>
     <use xlink:href="#m7bd4914926" x="344.618848" y="33.365708" style="fill: #1f77b4; stroke: #1f77b4"/>
     <use xlink:href="#m7bd4914926" x="345.841191" y="29.229582" style="fill: #1f77b4; stroke: #1f77b4"/>
     <use xlink:href="#m7bd4914926" x="347.063535" y="45.581055" style="fill: #1f77b4; stroke: #1f77b4"/>
     <use xlink:href="#m7bd4914926" x="348.285879" y="41.586686" style="fill: #1f77b4; stroke: #1f77b4"/>
     <use xlink:href="#m7bd4914926" x="349.508223" y="37.277477" style="fill: #1f77b4; stroke: #1f77b4"/>
     <use xlink:href="#m7bd4914926" x="350.730567" y="38.589983" style="fill: #1f77b4; stroke: #1f77b4"/>
     <use xlink:href="#m7bd4914926" x="351.952911" y="37.893038" style="fill: #1f77b4; stroke: #1f77b4"/>
     <use xlink:href="#m7bd4914926" x="353.175255" y="54.945017" style="fill: #1f77b4; stroke: #1f77b4"/>
     <use xlink:href="#m7bd4914926" x="354.397599" y="17.083636" style="fill: #1f77b4; stroke: #1f77b4"/>
     <use xlink:href="#m7bd4914926" x="355.619943" y="17.198472" style="fill: #1f77b4; stroke: #1f77b4"/>
     <use xlink:href="#m7bd4914926" x="356.842287" y="41.142439" style="fill: #1f77b4; stroke: #1f77b4"/>
     <use xlink:href="#m7bd4914926" x="358.064631" y="48.85847" style="fill: #1f77b4; stroke: #1f77b4"/>
    </g>
   </g>
   <g id="line2d_15">
    <path d="M 53.700994 132.813755 
L 56.145682 139.390091 
L 58.59037 145.460785 
L 61.035058 151.053914 
L 63.479746 156.196043 
L 65.924434 160.912306 
L 68.369121 165.22648 
L 70.813809 169.16106 
L 73.258497 172.73733 
L 75.703185 175.975422 
L 78.147873 178.894386 
L 80.592561 181.51224 
L 83.037248 183.846032 
L 85.481936 185.911886 
L 87.926624 187.72506 
L 90.371312 189.299982 
L 92.816 190.650304 
L 95.260688 191.788938 
L 97.705375 192.728098 
L 100.150063 193.479337 
L 102.594751 194.053583 
L 105.039439 194.461171 
L 107.484127 194.711877 
L 111.151159 194.813871 
L 114.81819 194.612684 
L 118.485222 194.135096 
L 122.152254 193.405735 
L 125.819286 192.447247 
L 129.486317 191.280457 
L 133.153349 189.924508 
L 138.042725 187.852546 
L 142.932101 185.513269 
L 147.821476 182.940491 
L 153.933196 179.441869 
L 160.044915 175.677372 
L 167.378979 170.872139 
L 175.935386 164.95237 
L 185.714138 157.879724 
L 197.937577 148.730471 
L 216.272736 134.678804 
L 248.053678 110.299293 
L 265.166493 97.474967 
L 279.83462 86.747148 
L 294.502747 76.299028 
L 307.94853 66.984549 
L 321.394313 57.930529 
L 334.840096 49.1408 
L 348.285879 40.61581 
L 358.064631 34.581046 
L 358.064631 34.581046 
" clip-path="url(#p91750c52a5)" style="fill: none; stroke: #ff7f0e; stroke-width: 1.5; stroke-linecap: square"/>
   </g>
   <g id="patch_3">
    <path d="M 38.482813 224.64 
L 38.482813 7.2 
" style="fill: none; stroke: #000000; stroke-width: 0.8; stroke-linejoin: miter; stroke-linecap: square"/>
   </g>
   <g id="patch_4">
    <path d="M 373.282813 224.64 
L 373.282813 7.2 
" style="fill: none; stroke: #000000; stroke-width: 0.8; stroke-linejoin: miter; stroke-linecap: square"/>
   </g>
   <g id="patch_5">
    <path d="M 38.482812 224.64 
L 373.282812 224.64 
" style="fill: none; stroke: #000000; stroke-width: 0.8; stroke-linejoin: miter; stroke-linecap: square"/>
   </g>
   <g id="patch_6">
    <path d="M 38.482812 7.2 
L 373.282812 7.2 
" style="fill: none; stroke: #000000; stroke-width: 0.8; stroke-linejoin: miter; stroke-linecap: square"/>
   </g>
   <g id="legend_1">
    <g id="patch_7">
     <path d="M 45.482813 29.878125 
L 112.510938 29.878125 
Q 114.510938 29.878125 114.510938 27.878125 
L 114.510938 14.2 
Q 114.510938 12.2 112.510938 12.2 
L 45.482813 12.2 
Q 43.482813 12.2 43.482813 14.2 
L 43.482813 27.878125 
Q 43.482813 29.878125 45.482813 29.878125 
z
" style="fill: #ffffff; opacity: 0.8; stroke: #cccccc; stroke-linejoin: miter"/>
    </g>
    <g id="line2d_16">
     <path d="M 47.482813 20.298437 
L 57.482813 20.298437 
L 67.482812 20.298437 
" style="fill: none; stroke: #ff7f0e; stroke-width: 1.5; stroke-linecap: square"/>
    </g>
    <g id="text_14">
     <!-- best fit -->
     <g transform="translate(75.482812 23.798437)scale(0.1 -0.1)">
      <defs>
       <path id="DejaVuSans-62" d="M 3116 1747 
Q 3116 2381 2855 2742 
Q 2594 3103 2138 3103 
Q 1681 3103 1420 2742 
Q 1159 2381 1159 1747 
Q 1159 1113 1420 752 
Q 1681 391 2138 391 
Q 2594 391 2855 752 
Q 3116 1113 3116 1747 
z
M 1159 2969 
Q 1341 3281 1617 3432 
Q 1894 3584 2278 3584 
Q 2916 3584 3314 3078 
Q 3713 2572 3713 1747 
Q 3713 922 3314 415 
Q 2916 -91 2278 -91 
Q 1894 -91 1617 61 
Q 1341 213 1159 525 
L 1159 0 
L 581 0 
L 581 4863 
L 1159 4863 
L 1159 2969 
z
" transform="scale(0.015625)"/>
       <path id="DejaVuSans-65" d="M 3597 1894 
L 3597 1613 
L 953 1613 
Q 991 1019 1311 708 
Q 1631 397 2203 397 
Q 2534 397 2845 478 
Q 3156 559 3463 722 
L 3463 178 
Q 3153 47 2828 -22 
Q 2503 -91 2169 -91 
Q 1331 -91 842 396 
Q 353 884 353 1716 
Q 353 2575 817 3079 
Q 1281 3584 2069 3584 
Q 2775 3584 3186 3129 
Q 3597 2675 3597 1894 
z
M 3022 2063 
Q 3016 2534 2758 2815 
Q 2500 3097 2075 3097 
Q 1594 3097 1305 2825 
Q 1016 2553 972 2059 
L 3022 2063 
z
" transform="scale(0.015625)"/>
       <path id="DejaVuSans-73" d="M 2834 3397 
L 2834 2853 
Q 2591 2978 2328 3040 
Q 2066 3103 1784 3103 
Q 1356 3103 1142 2972 
Q 928 2841 928 2578 
Q 928 2378 1081 2264 
Q 1234 2150 1697 2047 
L 1894 2003 
Q 2506 1872 2764 1633 
Q 3022 1394 3022 966 
Q 3022 478 2636 193 
Q 2250 -91 1575 -91 
Q 1294 -91 989 -36 
Q 684 19 347 128 
L 347 722 
Q 666 556 975 473 
Q 1284 391 1588 391 
Q 1994 391 2212 530 
Q 2431 669 2431 922 
Q 2431 1156 2273 1281 
Q 2116 1406 1581 1522 
L 1381 1569 
Q 847 1681 609 1914 
Q 372 2147 372 2553 
Q 372 3047 722 3315 
Q 1072 3584 1716 3584 
Q 2034 3584 2315 3537 
Q 2597 3491 2834 3397 
z
" transform="scale(0.015625)"/>
       <path id="DejaVuSans-74" d="M 1172 4494 
L 1172 3500 
L 2356 3500 
L 2356 3053 
L 1172 3053 
L 1172 1153 
Q 1172 725 1289 603 
Q 1406 481 1766 481 
L 2356 481 
L 2356 0 
L 1766 0 
Q 1100 0 847 248 
Q 594 497 594 1153 
L 594 3053 
L 172 3053 
L 172 3500 
L 594 3500 
L 594 4494 
L 1172 4494 
z
" transform="scale(0.015625)"/>
       <path id="DejaVuSans-20" transform="scale(0.015625)"/>
       <path id="DejaVuSans-66" d="M 2375 4863 
L 2375 4384 
L 1825 4384 
Q 1516 4384 1395 4259 
Q 1275 4134 1275 3809 
L 1275 3500 
L 2222 3500 
L 2222 3053 
L 1275 3053 
L 1275 0 
L 697 0 
L 697 3053 
L 147 3053 
L 147 3500 
L 697 3500 
L 697 3744 
Q 697 4328 969 4595 
Q 1241 4863 1831 4863 
L 2375 4863 
z
" transform="scale(0.015625)"/>
       <path id="DejaVuSans-69" d="M 603 3500 
L 1178 3500 
L 1178 0 
L 603 0 
L 603 3500 
z
M 603 4863 
L 1178 4863 
L 1178 4134 
L 603 4134 
L 603 4863 
z
" transform="scale(0.015625)"/>
      </defs>
      <use xlink:href="#DejaVuSans-62"/>
      <use xlink:href="#DejaVuSans-65" x="63.476562"/>
      <use xlink:href="#DejaVuSans-73" x="125"/>
      <use xlink:href="#DejaVuSans-74" x="177.099609"/>
      <use xlink:href="#DejaVuSans-20" x="216.308594"/>
      <use xlink:href="#DejaVuSans-66" x="248.095703"/>
      <use xlink:href="#DejaVuSans-69" x="283.300781"/>
      <use xlink:href="#DejaVuSans-74" x="311.083984"/>
     </g>
    </g>
   </g>
  </g>
 </g>
 <defs>
  <clipPath id="p91750c52a5">
   <rect x="38.482813" y="7.2" width="334.8" height="217.44"/>
  </clipPath>
 </defs>
</svg>
