<?xml version="1.0" encoding="utf-8" standalone="no"?>
<!DOCTYPE svg PUBLIC "-//W3C//DTD SVG 1.1//EN"
  "http://www.w3.org/Graphics/SVG/1.1/DTD/svg11.dtd">
<svg xmlns:xlink="http://www.w3.org/1999/xlink" width="392.14375pt" height="262.19625pt" viewBox="0 0 392.14375 262.19625" xmlns="http://www.w3.org/2000/svg" version="1.1">
 <metadata>
  <rdf:RDF xmlns:dc="http://purl.org/dc/elements/1.1/" xmlns:cc="http://creativecommons.org/ns#" xmlns:rdf="http://www.w3.org/1999/02/22-rdf-syntax-ns#">
   <cc:Work>
    <dc:type rdf:resource="http://purl.org/dc/dcmitype/StillImage"/>
    <dc:date>2022-10-26T21:53:21.417373</dc:date>
    <dc:format>image/svg+xml</dc:format>
    <dc:creator>
     <cc:Agent>
      <dc:title>Matplotlib v3.5.3, https://matplotlib.org/</dc:title>
     </cc:Agent>
    </dc:creator>
   </cc:Work>
  </rdf:RDF>
 </metadata>
 <defs>
  <style type="text/css">*{stroke-linejoin: round; stroke-linecap: butt}</style>
 </defs>
 <g id="figure_1">
  <g id="patch_1">
   <path d="M 0 262.19625 
L 392.14375 262.19625 
L 392.14375 0 
L 0 0 
L 0 262.19625 
z
" style="fill: none"/>
  </g>
  <g id="axes_1">
   <g id="patch_2">
    <path d="M 50.14375 224.64 
L 384.94375 224.64 
L 384.94375 7.2 
L 50.14375 7.2 
z
" style="fill: #ffffff"/>
   </g>
   <g id="matplotlib.axis_1">
    <g id="xtick_1">
     <g id="line2d_1">
      <defs>
       <path id="m0581e7114d" d="M 0 0 
L 0 3.5 
" style="stroke: #000000; stroke-width: 0.8"/>
      </defs>
      <g>
       <use xlink:href="#m0581e7114d" x="65.361932" y="224.64" style="stroke: #000000; stroke-width: 0.8"/>
      </g>
     </g>
     <g id="text_1">
      <!-- 0 -->
      <g transform="translate(62.180682 239.238438)scale(0.1 -0.1)">
       <defs>
        <path id="DejaVuSans-30" d="M 2034 4250 
Q 1547 4250 1301 3770 
Q 1056 3291 1056 2328 
Q 1056 1369 1301 889 
Q 1547 409 2034 409 
Q 2525 409 2770 889 
Q 3016 1369 3016 2328 
Q 3016 3291 2770 3770 
Q 2525 4250 2034 4250 
z
M 2034 4750 
Q 2819 4750 3233 4129 
Q 3647 3509 3647 2328 
Q 3647 1150 3233 529 
Q 2819 -91 2034 -91 
Q 1250 -91 836 529 
Q 422 1150 422 2328 
Q 422 3509 836 4129 
Q 1250 4750 2034 4750 
z
" transform="scale(0.015625)"/>
       </defs>
       <use xlink:href="#DejaVuSans-30"/>
      </g>
     </g>
    </g>
    <g id="xtick_2">
     <g id="line2d_2">
      <g>
       <use xlink:href="#m0581e7114d" x="126.849535" y="224.64" style="stroke: #000000; stroke-width: 0.8"/>
      </g>
     </g>
     <g id="text_2">
      <!-- 20 -->
      <g transform="translate(120.487035 239.238438)scale(0.1 -0.1)">
       <defs>
        <path id="DejaVuSans-32" d="M 1228 531 
L 3431 531 
L 3431 0 
L 469 0 
L 469 531 
Q 828 903 1448 1529 
Q 2069 2156 2228 2338 
Q 2531 2678 2651 2914 
Q 2772 3150 2772 3378 
Q 2772 3750 2511 3984 
Q 2250 4219 1831 4219 
Q 1534 4219 1204 4116 
Q 875 4013 500 3803 
L 500 4441 
Q 881 4594 1212 4672 
Q 1544 4750 1819 4750 
Q 2544 4750 2975 4387 
Q 3406 4025 3406 3419 
Q 3406 3131 3298 2873 
Q 3191 2616 2906 2266 
Q 2828 2175 2409 1742 
Q 1991 1309 1228 531 
z
" transform="scale(0.015625)"/>
       </defs>
       <use xlink:href="#DejaVuSans-32"/>
       <use xlink:href="#DejaVuSans-30" x="63.623047"/>
      </g>
     </g>
    </g>
    <g id="xtick_3">
     <g id="line2d_3">
      <g>
       <use xlink:href="#m0581e7114d" x="188.337138" y="224.64" style="stroke: #000000; stroke-width: 0.8"/>
      </g>
     </g>
     <g id="text_3">
      <!-- 40 -->
      <g transform="translate(181.974638 239.238438)scale(0.1 -0.1)">
       <defs>
        <path id="DejaVuSans-34" d="M 2419 4116 
L 825 1625 
L 2419 1625 
L 2419 4116 
z
M 2253 4666 
L 3047 4666 
L 3047 1625 
L 3713 1625 
L 3713 1100 
L 3047 1100 
L 3047 0 
L 2419 0 
L 2419 1100 
L 313 1100 
L 313 1709 
L 2253 4666 
z
" transform="scale(0.015625)"/>
       </defs>
       <use xlink:href="#DejaVuSans-34"/>
       <use xlink:href="#DejaVuSans-30" x="63.623047"/>
      </g>
     </g>
    </g>
    <g id="xtick_4">
     <g id="line2d_4">
      <g>
       <use xlink:href="#m0581e7114d" x="249.824742" y="224.64" style="stroke: #000000; stroke-width: 0.8"/>
      </g>
     </g>
     <g id="text_4">
      <!-- 60 -->
      <g transform="translate(243.462242 239.238438)scale(0.1 -0.1)">
       <defs>
        <path id="DejaVuSans-36" d="M 2113 2584 
Q 1688 2584 1439 2293 
Q 1191 2003 1191 1497 
Q 1191 994 1439 701 
Q 1688 409 2113 409 
Q 2538 409 2786 701 
Q 3034 994 3034 1497 
Q 3034 2003 2786 2293 
Q 2538 2584 2113 2584 
z
M 3366 4563 
L 3366 3988 
Q 3128 4100 2886 4159 
Q 2644 4219 2406 4219 
Q 1781 4219 1451 3797 
Q 1122 3375 1075 2522 
Q 1259 2794 1537 2939 
Q 1816 3084 2150 3084 
Q 2853 3084 3261 2657 
Q 3669 2231 3669 1497 
Q 3669 778 3244 343 
Q 2819 -91 2113 -91 
Q 1303 -91 875 529 
Q 447 1150 447 2328 
Q 447 3434 972 4092 
Q 1497 4750 2381 4750 
Q 2619 4750 2861 4703 
Q 3103 4656 3366 4563 
z
" transform="scale(0.015625)"/>
       </defs>
       <use xlink:href="#DejaVuSans-36"/>
       <use xlink:href="#DejaVuSans-30" x="63.623047"/>
      </g>
     </g>
    </g>
    <g id="xtick_5">
     <g id="line2d_5">
      <g>
       <use xlink:href="#m0581e7114d" x="311.312345" y="224.64" style="stroke: #000000; stroke-width: 0.8"/>
      </g>
     </g>
     <g id="text_5">
      <!-- 80 -->
      <g transform="translate(304.949845 239.238438)scale(0.1 -0.1)">
       <defs>
        <path id="DejaVuSans-38" d="M 2034 2216 
Q 1584 2216 1326 1975 
Q 1069 1734 1069 1313 
Q 1069 891 1326 650 
Q 1584 409 2034 409 
Q 2484 409 2743 651 
Q 3003 894 3003 1313 
Q 3003 1734 2745 1975 
Q 2488 2216 2034 2216 
z
M 1403 2484 
Q 997 2584 770 2862 
Q 544 3141 544 3541 
Q 544 4100 942 4425 
Q 1341 4750 2034 4750 
Q 2731 4750 3128 4425 
Q 3525 4100 3525 3541 
Q 3525 3141 3298 2862 
Q 3072 2584 2669 2484 
Q 3125 2378 3379 2068 
Q 3634 1759 3634 1313 
Q 3634 634 3220 271 
Q 2806 -91 2034 -91 
Q 1263 -91 848 271 
Q 434 634 434 1313 
Q 434 1759 690 2068 
Q 947 2378 1403 2484 
z
M 1172 3481 
Q 1172 3119 1398 2916 
Q 1625 2713 2034 2713 
Q 2441 2713 2670 2916 
Q 2900 3119 2900 3481 
Q 2900 3844 2670 4047 
Q 2441 4250 2034 4250 
Q 1625 4250 1398 4047 
Q 1172 3844 1172 3481 
z
" transform="scale(0.015625)"/>
       </defs>
       <use xlink:href="#DejaVuSans-38"/>
       <use xlink:href="#DejaVuSans-30" x="63.623047"/>
      </g>
     </g>
    </g>
    <g id="xtick_6">
     <g id="line2d_6">
      <g>
       <use xlink:href="#m0581e7114d" x="372.799948" y="224.64" style="stroke: #000000; stroke-width: 0.8"/>
      </g>
     </g>
     <g id="text_6">
      <!-- 100 -->
      <g transform="translate(363.256198 239.238438)scale(0.1 -0.1)">
       <defs>
        <path id="DejaVuSans-31" d="M 794 531 
L 1825 531 
L 1825 4091 
L 703 3866 
L 703 4441 
L 1819 4666 
L 2450 4666 
L 2450 531 
L 3481 531 
L 3481 0 
L 794 0 
L 794 531 
z
" transform="scale(0.015625)"/>
       </defs>
       <use xlink:href="#DejaVuSans-31"/>
       <use xlink:href="#DejaVuSans-30" x="63.623047"/>
       <use xlink:href="#DejaVuSans-30" x="127.246094"/>
      </g>
     </g>
    </g>
    <g id="text_7">
     <!-- walker -->
     <g transform="translate(201.155469 252.916563)scale(0.1 -0.1)">
      <defs>
       <path id="DejaVuSans-77" d="M 269 3500 
L 844 3500 
L 1563 769 
L 2278 3500 
L 2956 3500 
L 3675 769 
L 4391 3500 
L 4966 3500 
L 4050 0 
L 3372 0 
L 2619 2869 
L 1863 0 
L 1184 0 
L 269 3500 
z
" transform="scale(0.015625)"/>
       <path id="DejaVuSans-61" d="M 2194 1759 
Q 1497 1759 1228 1600 
Q 959 1441 959 1056 
Q 959 750 1161 570 
Q 1363 391 1709 391 
Q 2188 391 2477 730 
Q 2766 1069 2766 1631 
L 2766 1759 
L 2194 1759 
z
M 3341 1997 
L 3341 0 
L 2766 0 
L 2766 531 
Q 2569 213 2275 61 
Q 1981 -91 1556 -91 
Q 1019 -91 701 211 
Q 384 513 384 1019 
Q 384 1609 779 1909 
Q 1175 2209 1959 2209 
L 2766 2209 
L 2766 2266 
Q 2766 2663 2505 2880 
Q 2244 3097 1772 3097 
Q 1472 3097 1187 3025 
Q 903 2953 641 2809 
L 641 3341 
Q 956 3463 1253 3523 
Q 1550 3584 1831 3584 
Q 2591 3584 2966 3190 
Q 3341 2797 3341 1997 
z
" transform="scale(0.015625)"/>
       <path id="DejaVuSans-6c" d="M 603 4863 
L 1178 4863 
L 1178 0 
L 603 0 
L 603 4863 
z
" transform="scale(0.015625)"/>
       <path id="DejaVuSans-6b" d="M 581 4863 
L 1159 4863 
L 1159 1991 
L 2875 3500 
L 3609 3500 
L 1753 1863 
L 3688 0 
L 2938 0 
L 1159 1709 
L 1159 0 
L 581 0 
L 581 4863 
z
" transform="scale(0.015625)"/>
       <path id="DejaVuSans-65" d="M 3597 1894 
L 3597 1613 
L 953 1613 
Q 991 1019 1311 708 
Q 1631 397 2203 397 
Q 2534 397 2845 478 
Q 3156 559 3463 722 
L 3463 178 
Q 3153 47 2828 -22 
Q 2503 -91 2169 -91 
Q 1331 -91 842 396 
Q 353 884 353 1716 
Q 353 2575 817 3079 
Q 1281 3584 2069 3584 
Q 2775 3584 3186 3129 
Q 3597 2675 3597 1894 
z
M 3022 2063 
Q 3016 2534 2758 2815 
Q 2500 3097 2075 3097 
Q 1594 3097 1305 2825 
Q 1016 2553 972 2059 
L 3022 2063 
z
" transform="scale(0.015625)"/>
       <path id="DejaVuSans-72" d="M 2631 2963 
Q 2534 3019 2420 3045 
Q 2306 3072 2169 3072 
Q 1681 3072 1420 2755 
Q 1159 2438 1159 1844 
L 1159 0 
L 581 0 
L 581 3500 
L 1159 3500 
L 1159 2956 
Q 1341 3275 1631 3429 
Q 1922 3584 2338 3584 
Q 2397 3584 2469 3576 
Q 2541 3569 2628 3553 
L 2631 2963 
z
" transform="scale(0.015625)"/>
      </defs>
      <use xlink:href="#DejaVuSans-77"/>
      <use xlink:href="#DejaVuSans-61" x="81.787109"/>
      <use xlink:href="#DejaVuSans-6c" x="143.066406"/>
      <use xlink:href="#DejaVuSans-6b" x="170.849609"/>
      <use xlink:href="#DejaVuSans-65" x="225.134766"/>
      <use xlink:href="#DejaVuSans-72" x="286.658203"/>
     </g>
    </g>
   </g>
   <g id="matplotlib.axis_2">
    <g id="ytick_1">
     <g id="line2d_7">
      <defs>
       <path id="m81a036300d" d="M 0 0 
L -3.5 0 
" style="stroke: #000000; stroke-width: 0.8"/>
      </defs>
      <g>
       <use xlink:href="#m81a036300d" x="50.14375" y="216.881877" style="stroke: #000000; stroke-width: 0.8"/>
      </g>
     </g>
     <g id="text_8">
      <!-- 0.48 -->
      <g transform="translate(20.878125 220.681096)scale(0.1 -0.1)">
       <defs>
        <path id="DejaVuSans-2e" d="M 684 794 
L 1344 794 
L 1344 0 
L 684 0 
L 684 794 
z
" transform="scale(0.015625)"/>
       </defs>
       <use xlink:href="#DejaVuSans-30"/>
       <use xlink:href="#DejaVuSans-2e" x="63.623047"/>
       <use xlink:href="#DejaVuSans-34" x="95.410156"/>
       <use xlink:href="#DejaVuSans-38" x="159.033203"/>
      </g>
     </g>
    </g>
    <g id="ytick_2">
     <g id="line2d_8">
      <g>
       <use xlink:href="#m81a036300d" x="50.14375" y="174.371613" style="stroke: #000000; stroke-width: 0.8"/>
      </g>
     </g>
     <g id="text_9">
      <!-- 0.50 -->
      <g transform="translate(20.878125 178.170832)scale(0.1 -0.1)">
       <defs>
        <path id="DejaVuSans-35" d="M 691 4666 
L 3169 4666 
L 3169 4134 
L 1269 4134 
L 1269 2991 
Q 1406 3038 1543 3061 
Q 1681 3084 1819 3084 
Q 2600 3084 3056 2656 
Q 3513 2228 3513 1497 
Q 3513 744 3044 326 
Q 2575 -91 1722 -91 
Q 1428 -91 1123 -41 
Q 819 9 494 109 
L 494 744 
Q 775 591 1075 516 
Q 1375 441 1709 441 
Q 2250 441 2565 725 
Q 2881 1009 2881 1497 
Q 2881 1984 2565 2268 
Q 2250 2553 1709 2553 
Q 1456 2553 1204 2497 
Q 953 2441 691 2322 
L 691 4666 
z
" transform="scale(0.015625)"/>
       </defs>
       <use xlink:href="#DejaVuSans-30"/>
       <use xlink:href="#DejaVuSans-2e" x="63.623047"/>
       <use xlink:href="#DejaVuSans-35" x="95.410156"/>
       <use xlink:href="#DejaVuSans-30" x="159.033203"/>
      </g>
     </g>
    </g>
    <g id="ytick_3">
     <g id="line2d_9">
      <g>
       <use xlink:href="#m81a036300d" x="50.14375" y="131.861349" style="stroke: #000000; stroke-width: 0.8"/>
      </g>
     </g>
     <g id="text_10">
      <!-- 0.52 -->
      <g transform="translate(20.878125 135.660568)scale(0.1 -0.1)">
       <use xlink:href="#DejaVuSans-30"/>
       <use xlink:href="#DejaVuSans-2e" x="63.623047"/>
       <use xlink:href="#DejaVuSans-35" x="95.410156"/>
       <use xlink:href="#DejaVuSans-32" x="159.033203"/>
      </g>
     </g>
    </g>
    <g id="ytick_4">
     <g id="line2d_10">
      <g>
       <use xlink:href="#m81a036300d" x="50.14375" y="89.351085" style="stroke: #000000; stroke-width: 0.8"/>
      </g>
     </g>
     <g id="text_11">
      <!-- 0.54 -->
      <g transform="translate(20.878125 93.150304)scale(0.1 -0.1)">
       <use xlink:href="#DejaVuSans-30"/>
       <use xlink:href="#DejaVuSans-2e" x="63.623047"/>
       <use xlink:href="#DejaVuSans-35" x="95.410156"/>
       <use xlink:href="#DejaVuSans-34" x="159.033203"/>
      </g>
     </g>
    </g>
    <g id="ytick_5">
     <g id="line2d_11">
      <g>
       <use xlink:href="#m81a036300d" x="50.14375" y="46.840821" style="stroke: #000000; stroke-width: 0.8"/>
      </g>
     </g>
     <g id="text_12">
      <!-- 0.56 -->
      <g transform="translate(20.878125 50.64004)scale(0.1 -0.1)">
       <use xlink:href="#DejaVuSans-30"/>
       <use xlink:href="#DejaVuSans-2e" x="63.623047"/>
       <use xlink:href="#DejaVuSans-35" x="95.410156"/>
       <use xlink:href="#DejaVuSans-36" x="159.033203"/>
      </g>
     </g>
    </g>
    <g id="text_13">
     <!-- acceptance fraction -->
     <g transform="translate(14.798438 165.547344)rotate(-90)scale(0.1 -0.1)">
      <defs>
       <path id="DejaVuSans-63" d="M 3122 3366 
L 3122 2828 
Q 2878 2963 2633 3030 
Q 2388 3097 2138 3097 
Q 1578 3097 1268 2742 
Q 959 2388 959 1747 
Q 959 1106 1268 751 
Q 1578 397 2138 397 
Q 2388 397 2633 464 
Q 2878 531 3122 666 
L 3122 134 
Q 2881 22 2623 -34 
Q 2366 -91 2075 -91 
Q 1284 -91 818 406 
Q 353 903 353 1747 
Q 353 2603 823 3093 
Q 1294 3584 2113 3584 
Q 2378 3584 2631 3529 
Q 2884 3475 3122 3366 
z
" transform="scale(0.015625)"/>
       <path id="DejaVuSans-70" d="M 1159 525 
L 1159 -1331 
L 581 -1331 
L 581 3500 
L 1159 3500 
L 1159 2969 
Q 1341 3281 1617 3432 
Q 1894 3584 2278 3584 
Q 2916 3584 3314 3078 
Q 3713 2572 3713 1747 
Q 3713 922 3314 415 
Q 2916 -91 2278 -91 
Q 1894 -91 1617 61 
Q 1341 213 1159 525 
z
M 3116 1747 
Q 3116 2381 2855 2742 
Q 2594 3103 2138 3103 
Q 1681 3103 1420 2742 
Q 1159 2381 1159 1747 
Q 1159 1113 1420 752 
Q 1681 391 2138 391 
Q 2594 391 2855 752 
Q 3116 1113 3116 1747 
z
" transform="scale(0.015625)"/>
       <path id="DejaVuSans-74" d="M 1172 4494 
L 1172 3500 
L 2356 3500 
L 2356 3053 
L 1172 3053 
L 1172 1153 
Q 1172 725 1289 603 
Q 1406 481 1766 481 
L 2356 481 
L 2356 0 
L 1766 0 
Q 1100 0 847 248 
Q 594 497 594 1153 
L 594 3053 
L 172 3053 
L 172 3500 
L 594 3500 
L 594 4494 
L 1172 4494 
z
" transform="scale(0.015625)"/>
       <path id="DejaVuSans-6e" d="M 3513 2113 
L 3513 0 
L 2938 0 
L 2938 2094 
Q 2938 2591 2744 2837 
Q 2550 3084 2163 3084 
Q 1697 3084 1428 2787 
Q 1159 2491 1159 1978 
L 1159 0 
L 581 0 
L 581 3500 
L 1159 3500 
L 1159 2956 
Q 1366 3272 1645 3428 
Q 1925 3584 2291 3584 
Q 2894 3584 3203 3211 
Q 3513 2838 3513 2113 
z
" transform="scale(0.015625)"/>
       <path id="DejaVuSans-20" transform="scale(0.015625)"/>
       <path id="DejaVuSans-66" d="M 2375 4863 
L 2375 4384 
L 1825 4384 
Q 1516 4384 1395 4259 
Q 1275 4134 1275 3809 
L 1275 3500 
L 2222 3500 
L 2222 3053 
L 1275 3053 
L 1275 0 
L 697 0 
L 697 3053 
L 147 3053 
L 147 3500 
L 697 3500 
L 697 3744 
Q 697 4328 969 4595 
Q 1241 4863 1831 4863 
L 2375 4863 
z
" transform="scale(0.015625)"/>
       <path id="DejaVuSans-69" d="M 603 3500 
L 1178 3500 
L 1178 0 
L 603 0 
L 603 3500 
z
M 603 4863 
L 1178 4863 
L 1178 4134 
L 603 4134 
L 603 4863 
z
" transform="scale(0.015625)"/>
       <path id="DejaVuSans-6f" d="M 1959 3097 
Q 1497 3097 1228 2736 
Q 959 2375 959 1747 
Q 959 1119 1226 758 
Q 1494 397 1959 397 
Q 2419 397 2687 759 
Q 2956 1122 2956 1747 
Q 2956 2369 2687 2733 
Q 2419 3097 1959 3097 
z
M 1959 3584 
Q 2709 3584 3137 3096 
Q 3566 2609 3566 1747 
Q 3566 888 3137 398 
Q 2709 -91 1959 -91 
Q 1206 -91 779 398 
Q 353 888 353 1747 
Q 353 2609 779 3096 
Q 1206 3584 1959 3584 
z
" transform="scale(0.015625)"/>
      </defs>
      <use xlink:href="#DejaVuSans-61"/>
      <use xlink:href="#DejaVuSans-63" x="61.279297"/>
      <use xlink:href="#DejaVuSans-63" x="116.259766"/>
      <use xlink:href="#DejaVuSans-65" x="171.240234"/>
      <use xlink:href="#DejaVuSans-70" x="232.763672"/>
      <use xlink:href="#DejaVuSans-74" x="296.240234"/>
      <use xlink:href="#DejaVuSans-61" x="335.449219"/>
      <use xlink:href="#DejaVuSans-6e" x="396.728516"/>
      <use xlink:href="#DejaVuSans-63" x="460.107422"/>
      <use xlink:href="#DejaVuSans-65" x="515.087891"/>
      <use xlink:href="#DejaVuSans-20" x="576.611328"/>
      <use xlink:href="#DejaVuSans-66" x="608.398438"/>
      <use xlink:href="#DejaVuSans-72" x="643.603516"/>
      <use xlink:href="#DejaVuSans-61" x="684.716797"/>
      <use xlink:href="#DejaVuSans-63" x="745.996094"/>
      <use xlink:href="#DejaVuSans-74" x="800.976562"/>
      <use xlink:href="#DejaVuSans-69" x="840.185547"/>
      <use xlink:href="#DejaVuSans-6f" x="867.96875"/>
      <use xlink:href="#DejaVuSans-6e" x="929.150391"/>
     </g>
    </g>
   </g>
   <g id="line2d_12">
    <defs>
     <path id="m8106a4b5b5" d="M 0 3 
C 0.795609 3 1.55874 2.683901 2.12132 2.12132 
C 2.683901 1.55874 3 0.795609 3 0 
C 3 -0.795609 2.683901 -1.55874 2.12132 -2.12132 
C 1.55874 -2.683901 0.795609 -3 0 -3 
C -0.795609 -3 -1.55874 -2.683901 -2.12132 -2.12132 
C -2.683901 -1.55874 -3 -0.795609 -3 0 
C -3 0.795609 -2.683901 1.55874 -2.12132 2.12132 
C -1.55874 2.683901 -0.795609 3 0 3 
z
" style="stroke: #1f77b4"/>
    </defs>
    <g clip-path="url(#p610c357884)">
     <use xlink:href="#m8106a4b5b5" x="65.361932" y="125.484809" style="fill: #1f77b4; stroke: #1f77b4"/>
     <use xlink:href="#m8106a4b5b5" x="68.436312" y="76.598006" style="fill: #1f77b4; stroke: #1f77b4"/>
     <use xlink:href="#m8106a4b5b5" x="71.510692" y="144.614428" style="fill: #1f77b4; stroke: #1f77b4"/>
     <use xlink:href="#m8106a4b5b5" x="74.585072" y="133.986862" style="fill: #1f77b4; stroke: #1f77b4"/>
     <use xlink:href="#m8106a4b5b5" x="77.659452" y="150.990968" style="fill: #1f77b4; stroke: #1f77b4"/>
     <use xlink:href="#m8106a4b5b5" x="80.733833" y="68.095953" style="fill: #1f77b4; stroke: #1f77b4"/>
     <use xlink:href="#m8106a4b5b5" x="83.808213" y="131.861349" style="fill: #1f77b4; stroke: #1f77b4"/>
     <use xlink:href="#m8106a4b5b5" x="86.882593" y="140.363402" style="fill: #1f77b4; stroke: #1f77b4"/>
     <use xlink:href="#m8106a4b5b5" x="89.956973" y="106.355191" style="fill: #1f77b4; stroke: #1f77b4"/>
     <use xlink:href="#m8106a4b5b5" x="93.031353" y="95.727625" style="fill: #1f77b4; stroke: #1f77b4"/>
     <use xlink:href="#m8106a4b5b5" x="96.105733" y="110.606217" style="fill: #1f77b4; stroke: #1f77b4"/>
     <use xlink:href="#m8106a4b5b5" x="99.180114" y="140.363402" style="fill: #1f77b4; stroke: #1f77b4"/>
     <use xlink:href="#m8106a4b5b5" x="102.254494" y="119.10827" style="fill: #1f77b4; stroke: #1f77b4"/>
     <use xlink:href="#m8106a4b5b5" x="105.328874" y="65.97044" style="fill: #1f77b4; stroke: #1f77b4"/>
     <use xlink:href="#m8106a4b5b5" x="108.403254" y="108.480704" style="fill: #1f77b4; stroke: #1f77b4"/>
     <use xlink:href="#m8106a4b5b5" x="111.477634" y="146.739941" style="fill: #1f77b4; stroke: #1f77b4"/>
     <use xlink:href="#m8106a4b5b5" x="114.552014" y="125.484809" style="fill: #1f77b4; stroke: #1f77b4"/>
     <use xlink:href="#m8106a4b5b5" x="117.626395" y="140.363402" style="fill: #1f77b4; stroke: #1f77b4"/>
     <use xlink:href="#m8106a4b5b5" x="120.700775" y="112.73173" style="fill: #1f77b4; stroke: #1f77b4"/>
     <use xlink:href="#m8106a4b5b5" x="123.775155" y="155.241994" style="fill: #1f77b4; stroke: #1f77b4"/>
     <use xlink:href="#m8106a4b5b5" x="126.849535" y="157.367507" style="fill: #1f77b4; stroke: #1f77b4"/>
     <use xlink:href="#m8106a4b5b5" x="129.923915" y="36.213255" style="fill: #1f77b4; stroke: #1f77b4"/>
     <use xlink:href="#m8106a4b5b5" x="132.998295" y="189.250205" style="fill: #1f77b4; stroke: #1f77b4"/>
     <use xlink:href="#m8106a4b5b5" x="136.072676" y="146.739941" style="fill: #1f77b4; stroke: #1f77b4"/>
     <use xlink:href="#m8106a4b5b5" x="139.147056" y="108.480704" style="fill: #1f77b4; stroke: #1f77b4"/>
     <use xlink:href="#m8106a4b5b5" x="142.221436" y="180.748152" style="fill: #1f77b4; stroke: #1f77b4"/>
     <use xlink:href="#m8106a4b5b5" x="145.295816" y="150.990968" style="fill: #1f77b4; stroke: #1f77b4"/>
     <use xlink:href="#m8106a4b5b5" x="148.370196" y="142.488915" style="fill: #1f77b4; stroke: #1f77b4"/>
     <use xlink:href="#m8106a4b5b5" x="151.444576" y="127.610323" style="fill: #1f77b4; stroke: #1f77b4"/>
     <use xlink:href="#m8106a4b5b5" x="154.518957" y="51.091848" style="fill: #1f77b4; stroke: #1f77b4"/>
     <use xlink:href="#m8106a4b5b5" x="157.593337" y="161.618534" style="fill: #1f77b4; stroke: #1f77b4"/>
     <use xlink:href="#m8106a4b5b5" x="160.667717" y="138.237889" style="fill: #1f77b4; stroke: #1f77b4"/>
     <use xlink:href="#m8106a4b5b5" x="163.742097" y="106.355191" style="fill: #1f77b4; stroke: #1f77b4"/>
     <use xlink:href="#m8106a4b5b5" x="166.816477" y="91.476598" style="fill: #1f77b4; stroke: #1f77b4"/>
     <use xlink:href="#m8106a4b5b5" x="169.890857" y="159.493021" style="fill: #1f77b4; stroke: #1f77b4"/>
     <use xlink:href="#m8106a4b5b5" x="172.965238" y="114.857243" style="fill: #1f77b4; stroke: #1f77b4"/>
     <use xlink:href="#m8106a4b5b5" x="176.039618" y="144.614428" style="fill: #1f77b4; stroke: #1f77b4"/>
     <use xlink:href="#m8106a4b5b5" x="179.113998" y="127.610323" style="fill: #1f77b4; stroke: #1f77b4"/>
     <use xlink:href="#m8106a4b5b5" x="182.188378" y="114.857243" style="fill: #1f77b4; stroke: #1f77b4"/>
     <use xlink:href="#m8106a4b5b5" x="185.262758" y="150.990968" style="fill: #1f77b4; stroke: #1f77b4"/>
     <use xlink:href="#m8106a4b5b5" x="188.337138" y="85.100059" style="fill: #1f77b4; stroke: #1f77b4"/>
     <use xlink:href="#m8106a4b5b5" x="191.411519" y="110.606217" style="fill: #1f77b4; stroke: #1f77b4"/>
     <use xlink:href="#m8106a4b5b5" x="194.485899" y="167.995073" style="fill: #1f77b4; stroke: #1f77b4"/>
     <use xlink:href="#m8106a4b5b5" x="197.560279" y="76.598006" style="fill: #1f77b4; stroke: #1f77b4"/>
     <use xlink:href="#m8106a4b5b5" x="200.634659" y="187.124692" style="fill: #1f77b4; stroke: #1f77b4"/>
     <use xlink:href="#m8106a4b5b5" x="203.709039" y="214.756364" style="fill: #1f77b4; stroke: #1f77b4"/>
     <use xlink:href="#m8106a4b5b5" x="206.783419" y="161.618534" style="fill: #1f77b4; stroke: #1f77b4"/>
     <use xlink:href="#m8106a4b5b5" x="209.8578" y="36.213255" style="fill: #1f77b4; stroke: #1f77b4"/>
     <use xlink:href="#m8106a4b5b5" x="212.93218" y="110.606217" style="fill: #1f77b4; stroke: #1f77b4"/>
     <use xlink:href="#m8106a4b5b5" x="216.00656" y="106.355191" style="fill: #1f77b4; stroke: #1f77b4"/>
     <use xlink:href="#m8106a4b5b5" x="219.08094" y="114.857243" style="fill: #1f77b4; stroke: #1f77b4"/>
     <use xlink:href="#m8106a4b5b5" x="222.15532" y="59.5939" style="fill: #1f77b4; stroke: #1f77b4"/>
     <use xlink:href="#m8106a4b5b5" x="225.2297" y="123.359296" style="fill: #1f77b4; stroke: #1f77b4"/>
     <use xlink:href="#m8106a4b5b5" x="228.304081" y="63.844927" style="fill: #1f77b4; stroke: #1f77b4"/>
     <use xlink:href="#m8106a4b5b5" x="231.378461" y="144.614428" style="fill: #1f77b4; stroke: #1f77b4"/>
     <use xlink:href="#m8106a4b5b5" x="234.452841" y="55.342874" style="fill: #1f77b4; stroke: #1f77b4"/>
     <use xlink:href="#m8106a4b5b5" x="237.527221" y="97.853138" style="fill: #1f77b4; stroke: #1f77b4"/>
     <use xlink:href="#m8106a4b5b5" x="240.601601" y="80.849032" style="fill: #1f77b4; stroke: #1f77b4"/>
     <use xlink:href="#m8106a4b5b5" x="243.675981" y="93.602111" style="fill: #1f77b4; stroke: #1f77b4"/>
     <use xlink:href="#m8106a4b5b5" x="246.750362" y="80.849032" style="fill: #1f77b4; stroke: #1f77b4"/>
     <use xlink:href="#m8106a4b5b5" x="249.824742" y="138.237889" style="fill: #1f77b4; stroke: #1f77b4"/>
     <use xlink:href="#m8106a4b5b5" x="252.899122" y="131.861349" style="fill: #1f77b4; stroke: #1f77b4"/>
     <use xlink:href="#m8106a4b5b5" x="255.973502" y="53.217361" style="fill: #1f77b4; stroke: #1f77b4"/>
     <use xlink:href="#m8106a4b5b5" x="259.047882" y="189.250205" style="fill: #1f77b4; stroke: #1f77b4"/>
     <use xlink:href="#m8106a4b5b5" x="262.122262" y="127.610323" style="fill: #1f77b4; stroke: #1f77b4"/>
     <use xlink:href="#m8106a4b5b5" x="265.196643" y="136.112375" style="fill: #1f77b4; stroke: #1f77b4"/>
     <use xlink:href="#m8106a4b5b5" x="268.271023" y="82.974545" style="fill: #1f77b4; stroke: #1f77b4"/>
     <use xlink:href="#m8106a4b5b5" x="271.345403" y="148.865455" style="fill: #1f77b4; stroke: #1f77b4"/>
     <use xlink:href="#m8106a4b5b5" x="274.419783" y="138.237889" style="fill: #1f77b4; stroke: #1f77b4"/>
     <use xlink:href="#m8106a4b5b5" x="277.494163" y="85.100059" style="fill: #1f77b4; stroke: #1f77b4"/>
     <use xlink:href="#m8106a4b5b5" x="280.568543" y="127.610323" style="fill: #1f77b4; stroke: #1f77b4"/>
     <use xlink:href="#m8106a4b5b5" x="283.642924" y="110.606217" style="fill: #1f77b4; stroke: #1f77b4"/>
     <use xlink:href="#m8106a4b5b5" x="286.717304" y="140.363402" style="fill: #1f77b4; stroke: #1f77b4"/>
     <use xlink:href="#m8106a4b5b5" x="289.791684" y="82.974545" style="fill: #1f77b4; stroke: #1f77b4"/>
     <use xlink:href="#m8106a4b5b5" x="292.866064" y="97.853138" style="fill: #1f77b4; stroke: #1f77b4"/>
     <use xlink:href="#m8106a4b5b5" x="295.940444" y="99.978651" style="fill: #1f77b4; stroke: #1f77b4"/>
     <use xlink:href="#m8106a4b5b5" x="299.014824" y="110.606217" style="fill: #1f77b4; stroke: #1f77b4"/>
     <use xlink:href="#m8106a4b5b5" x="302.089205" y="91.476598" style="fill: #1f77b4; stroke: #1f77b4"/>
     <use xlink:href="#m8106a4b5b5" x="305.163585" y="89.351085" style="fill: #1f77b4; stroke: #1f77b4"/>
     <use xlink:href="#m8106a4b5b5" x="308.237965" y="46.840821" style="fill: #1f77b4; stroke: #1f77b4"/>
     <use xlink:href="#m8106a4b5b5" x="311.312345" y="136.112375" style="fill: #1f77b4; stroke: #1f77b4"/>
     <use xlink:href="#m8106a4b5b5" x="314.386725" y="172.2461" style="fill: #1f77b4; stroke: #1f77b4"/>
     <use xlink:href="#m8106a4b5b5" x="317.461105" y="102.104164" style="fill: #1f77b4; stroke: #1f77b4"/>
     <use xlink:href="#m8106a4b5b5" x="320.535486" y="76.598006" style="fill: #1f77b4; stroke: #1f77b4"/>
     <use xlink:href="#m8106a4b5b5" x="323.609866" y="161.618534" style="fill: #1f77b4; stroke: #1f77b4"/>
     <use xlink:href="#m8106a4b5b5" x="326.684246" y="144.614428" style="fill: #1f77b4; stroke: #1f77b4"/>
     <use xlink:href="#m8106a4b5b5" x="329.758626" y="17.083636" style="fill: #1f77b4; stroke: #1f77b4"/>
     <use xlink:href="#m8106a4b5b5" x="332.833006" y="184.999179" style="fill: #1f77b4; stroke: #1f77b4"/>
     <use xlink:href="#m8106a4b5b5" x="335.907386" y="199.877771" style="fill: #1f77b4; stroke: #1f77b4"/>
     <use xlink:href="#m8106a4b5b5" x="338.981767" y="74.472493" style="fill: #1f77b4; stroke: #1f77b4"/>
     <use xlink:href="#m8106a4b5b5" x="342.056147" y="144.614428" style="fill: #1f77b4; stroke: #1f77b4"/>
     <use xlink:href="#m8106a4b5b5" x="345.130527" y="108.480704" style="fill: #1f77b4; stroke: #1f77b4"/>
     <use xlink:href="#m8106a4b5b5" x="348.204907" y="55.342874" style="fill: #1f77b4; stroke: #1f77b4"/>
     <use xlink:href="#m8106a4b5b5" x="351.279287" y="199.877771" style="fill: #1f77b4; stroke: #1f77b4"/>
     <use xlink:href="#m8106a4b5b5" x="354.353667" y="57.468387" style="fill: #1f77b4; stroke: #1f77b4"/>
     <use xlink:href="#m8106a4b5b5" x="357.428048" y="146.739941" style="fill: #1f77b4; stroke: #1f77b4"/>
     <use xlink:href="#m8106a4b5b5" x="360.502428" y="112.73173" style="fill: #1f77b4; stroke: #1f77b4"/>
     <use xlink:href="#m8106a4b5b5" x="363.576808" y="116.982757" style="fill: #1f77b4; stroke: #1f77b4"/>
     <use xlink:href="#m8106a4b5b5" x="366.651188" y="108.480704" style="fill: #1f77b4; stroke: #1f77b4"/>
     <use xlink:href="#m8106a4b5b5" x="369.725568" y="125.484809" style="fill: #1f77b4; stroke: #1f77b4"/>
    </g>
   </g>
   <g id="patch_3">
    <path d="M 50.14375 224.64 
L 50.14375 7.2 
" style="fill: none; stroke: #000000; stroke-width: 0.8; stroke-linejoin: miter; stroke-linecap: square"/>
   </g>
   <g id="patch_4">
    <path d="M 384.94375 224.64 
L 384.94375 7.2 
" style="fill: none; stroke: #000000; stroke-width: 0.8; stroke-linejoin: miter; stroke-linecap: square"/>
   </g>
   <g id="patch_5">
    <path d="M 50.14375 224.64 
L 384.94375 224.64 
" style="fill: none; stroke: #000000; stroke-width: 0.8; stroke-linejoin: miter; stroke-linecap: square"/>
   </g>
   <g id="patch_6">
    <path d="M 50.14375 7.2 
L 384.94375 7.2 
" style="fill: none; stroke: #000000; stroke-width: 0.8; stroke-linejoin: miter; stroke-linecap: square"/>
   </g>
  </g>
 </g>
 <defs>
  <clipPath id="p610c357884">
   <rect x="50.14375" y="7.2" width="334.8" height="217.44"/>
  </clipPath>
 </defs>
</svg>
