<?xml version="1.0" encoding="utf-8" standalone="no"?>
<!DOCTYPE svg PUBLIC "-//W3C//DTD SVG 1.1//EN"
  "http://www.w3.org/Graphics/SVG/1.1/DTD/svg11.dtd">
<svg height="262.19625pt" version="1.1" viewBox="0 0 392.14375 262.19625" width="392.14375pt" xmlns="http://www.w3.org/2000/svg" xmlns:xlink="http://www.w3.org/1999/xlink">
 <metadata>
  <rdf:RDF xmlns:cc="http://creativecommons.org/ns#" xmlns:dc="http://purl.org/dc/elements/1.1/" xmlns:rdf="http://www.w3.org/1999/02/22-rdf-syntax-ns#">
   <cc:Work>
    <dc:type rdf:resource="http://purl.org/dc/dcmitype/StillImage"/>
    <dc:date>2021-10-14T14:44:54.852091</dc:date>
    <dc:format>image/svg+xml</dc:format>
    <dc:creator>
     <cc:Agent>
      <dc:title>Matplotlib v3.4.2, https://matplotlib.org/</dc:title>
     </cc:Agent>
    </dc:creator>
   </cc:Work>
  </rdf:RDF>
 </metadata>
 <defs>
  <style type="text/css">*{stroke-linecap:butt;stroke-linejoin:round;}</style>
 </defs>
 <g id="figure_1">
  <g id="patch_1">
   <path d="M 0 262.19625 
L 392.14375 262.19625 
L 392.14375 0 
L 0 0 
z
" style="fill:none;"/>
  </g>
  <g id="axes_1">
   <g id="patch_2">
    <path d="M 50.14375 224.64 
L 384.94375 224.64 
L 384.94375 7.2 
L 50.14375 7.2 
z
" style="fill:#ffffff;"/>
   </g>
   <g id="matplotlib.axis_1">
    <g id="xtick_1">
     <g id="line2d_1">
      <defs>
       <path d="M 0 0 
L 0 3.5 
" id="md51fe2ab19" style="stroke:#000000;stroke-width:0.8;"/>
      </defs>
      <g>
       <use style="stroke:#000000;stroke-width:0.8;" x="65.361932" xlink:href="#md51fe2ab19" y="224.64"/>
      </g>
     </g>
     <g id="text_1">
      <!-- 0 -->
      <g transform="translate(62.180682 239.238438)scale(0.1 -0.1)">
       <defs>
        <path d="M 2034 4250 
Q 1547 4250 1301 3770 
Q 1056 3291 1056 2328 
Q 1056 1369 1301 889 
Q 1547 409 2034 409 
Q 2525 409 2770 889 
Q 3016 1369 3016 2328 
Q 3016 3291 2770 3770 
Q 2525 4250 2034 4250 
z
M 2034 4750 
Q 2819 4750 3233 4129 
Q 3647 3509 3647 2328 
Q 3647 1150 3233 529 
Q 2819 -91 2034 -91 
Q 1250 -91 836 529 
Q 422 1150 422 2328 
Q 422 3509 836 4129 
Q 1250 4750 2034 4750 
z
" id="DejaVuSans-30" transform="scale(0.015625)"/>
       </defs>
       <use xlink:href="#DejaVuSans-30"/>
      </g>
     </g>
    </g>
    <g id="xtick_2">
     <g id="line2d_2">
      <g>
       <use style="stroke:#000000;stroke-width:0.8;" x="126.849535" xlink:href="#md51fe2ab19" y="224.64"/>
      </g>
     </g>
     <g id="text_2">
      <!-- 20 -->
      <g transform="translate(120.487035 239.238438)scale(0.1 -0.1)">
       <defs>
        <path d="M 1228 531 
L 3431 531 
L 3431 0 
L 469 0 
L 469 531 
Q 828 903 1448 1529 
Q 2069 2156 2228 2338 
Q 2531 2678 2651 2914 
Q 2772 3150 2772 3378 
Q 2772 3750 2511 3984 
Q 2250 4219 1831 4219 
Q 1534 4219 1204 4116 
Q 875 4013 500 3803 
L 500 4441 
Q 881 4594 1212 4672 
Q 1544 4750 1819 4750 
Q 2544 4750 2975 4387 
Q 3406 4025 3406 3419 
Q 3406 3131 3298 2873 
Q 3191 2616 2906 2266 
Q 2828 2175 2409 1742 
Q 1991 1309 1228 531 
z
" id="DejaVuSans-32" transform="scale(0.015625)"/>
       </defs>
       <use xlink:href="#DejaVuSans-32"/>
       <use x="63.623047" xlink:href="#DejaVuSans-30"/>
      </g>
     </g>
    </g>
    <g id="xtick_3">
     <g id="line2d_3">
      <g>
       <use style="stroke:#000000;stroke-width:0.8;" x="188.337138" xlink:href="#md51fe2ab19" y="224.64"/>
      </g>
     </g>
     <g id="text_3">
      <!-- 40 -->
      <g transform="translate(181.974638 239.238438)scale(0.1 -0.1)">
       <defs>
        <path d="M 2419 4116 
L 825 1625 
L 2419 1625 
L 2419 4116 
z
M 2253 4666 
L 3047 4666 
L 3047 1625 
L 3713 1625 
L 3713 1100 
L 3047 1100 
L 3047 0 
L 2419 0 
L 2419 1100 
L 313 1100 
L 313 1709 
L 2253 4666 
z
" id="DejaVuSans-34" transform="scale(0.015625)"/>
       </defs>
       <use xlink:href="#DejaVuSans-34"/>
       <use x="63.623047" xlink:href="#DejaVuSans-30"/>
      </g>
     </g>
    </g>
    <g id="xtick_4">
     <g id="line2d_4">
      <g>
       <use style="stroke:#000000;stroke-width:0.8;" x="249.824742" xlink:href="#md51fe2ab19" y="224.64"/>
      </g>
     </g>
     <g id="text_4">
      <!-- 60 -->
      <g transform="translate(243.462242 239.238438)scale(0.1 -0.1)">
       <defs>
        <path d="M 2113 2584 
Q 1688 2584 1439 2293 
Q 1191 2003 1191 1497 
Q 1191 994 1439 701 
Q 1688 409 2113 409 
Q 2538 409 2786 701 
Q 3034 994 3034 1497 
Q 3034 2003 2786 2293 
Q 2538 2584 2113 2584 
z
M 3366 4563 
L 3366 3988 
Q 3128 4100 2886 4159 
Q 2644 4219 2406 4219 
Q 1781 4219 1451 3797 
Q 1122 3375 1075 2522 
Q 1259 2794 1537 2939 
Q 1816 3084 2150 3084 
Q 2853 3084 3261 2657 
Q 3669 2231 3669 1497 
Q 3669 778 3244 343 
Q 2819 -91 2113 -91 
Q 1303 -91 875 529 
Q 447 1150 447 2328 
Q 447 3434 972 4092 
Q 1497 4750 2381 4750 
Q 2619 4750 2861 4703 
Q 3103 4656 3366 4563 
z
" id="DejaVuSans-36" transform="scale(0.015625)"/>
       </defs>
       <use xlink:href="#DejaVuSans-36"/>
       <use x="63.623047" xlink:href="#DejaVuSans-30"/>
      </g>
     </g>
    </g>
    <g id="xtick_5">
     <g id="line2d_5">
      <g>
       <use style="stroke:#000000;stroke-width:0.8;" x="311.312345" xlink:href="#md51fe2ab19" y="224.64"/>
      </g>
     </g>
     <g id="text_5">
      <!-- 80 -->
      <g transform="translate(304.949845 239.238438)scale(0.1 -0.1)">
       <defs>
        <path d="M 2034 2216 
Q 1584 2216 1326 1975 
Q 1069 1734 1069 1313 
Q 1069 891 1326 650 
Q 1584 409 2034 409 
Q 2484 409 2743 651 
Q 3003 894 3003 1313 
Q 3003 1734 2745 1975 
Q 2488 2216 2034 2216 
z
M 1403 2484 
Q 997 2584 770 2862 
Q 544 3141 544 3541 
Q 544 4100 942 4425 
Q 1341 4750 2034 4750 
Q 2731 4750 3128 4425 
Q 3525 4100 3525 3541 
Q 3525 3141 3298 2862 
Q 3072 2584 2669 2484 
Q 3125 2378 3379 2068 
Q 3634 1759 3634 1313 
Q 3634 634 3220 271 
Q 2806 -91 2034 -91 
Q 1263 -91 848 271 
Q 434 634 434 1313 
Q 434 1759 690 2068 
Q 947 2378 1403 2484 
z
M 1172 3481 
Q 1172 3119 1398 2916 
Q 1625 2713 2034 2713 
Q 2441 2713 2670 2916 
Q 2900 3119 2900 3481 
Q 2900 3844 2670 4047 
Q 2441 4250 2034 4250 
Q 1625 4250 1398 4047 
Q 1172 3844 1172 3481 
z
" id="DejaVuSans-38" transform="scale(0.015625)"/>
       </defs>
       <use xlink:href="#DejaVuSans-38"/>
       <use x="63.623047" xlink:href="#DejaVuSans-30"/>
      </g>
     </g>
    </g>
    <g id="xtick_6">
     <g id="line2d_6">
      <g>
       <use style="stroke:#000000;stroke-width:0.8;" x="372.799948" xlink:href="#md51fe2ab19" y="224.64"/>
      </g>
     </g>
     <g id="text_6">
      <!-- 100 -->
      <g transform="translate(363.256198 239.238438)scale(0.1 -0.1)">
       <defs>
        <path d="M 794 531 
L 1825 531 
L 1825 4091 
L 703 3866 
L 703 4441 
L 1819 4666 
L 2450 4666 
L 2450 531 
L 3481 531 
L 3481 0 
L 794 0 
L 794 531 
z
" id="DejaVuSans-31" transform="scale(0.015625)"/>
       </defs>
       <use xlink:href="#DejaVuSans-31"/>
       <use x="63.623047" xlink:href="#DejaVuSans-30"/>
       <use x="127.246094" xlink:href="#DejaVuSans-30"/>
      </g>
     </g>
    </g>
    <g id="text_7">
     <!-- walker -->
     <g transform="translate(201.155469 252.916563)scale(0.1 -0.1)">
      <defs>
       <path d="M 269 3500 
L 844 3500 
L 1563 769 
L 2278 3500 
L 2956 3500 
L 3675 769 
L 4391 3500 
L 4966 3500 
L 4050 0 
L 3372 0 
L 2619 2869 
L 1863 0 
L 1184 0 
L 269 3500 
z
" id="DejaVuSans-77" transform="scale(0.015625)"/>
       <path d="M 2194 1759 
Q 1497 1759 1228 1600 
Q 959 1441 959 1056 
Q 959 750 1161 570 
Q 1363 391 1709 391 
Q 2188 391 2477 730 
Q 2766 1069 2766 1631 
L 2766 1759 
L 2194 1759 
z
M 3341 1997 
L 3341 0 
L 2766 0 
L 2766 531 
Q 2569 213 2275 61 
Q 1981 -91 1556 -91 
Q 1019 -91 701 211 
Q 384 513 384 1019 
Q 384 1609 779 1909 
Q 1175 2209 1959 2209 
L 2766 2209 
L 2766 2266 
Q 2766 2663 2505 2880 
Q 2244 3097 1772 3097 
Q 1472 3097 1187 3025 
Q 903 2953 641 2809 
L 641 3341 
Q 956 3463 1253 3523 
Q 1550 3584 1831 3584 
Q 2591 3584 2966 3190 
Q 3341 2797 3341 1997 
z
" id="DejaVuSans-61" transform="scale(0.015625)"/>
       <path d="M 603 4863 
L 1178 4863 
L 1178 0 
L 603 0 
L 603 4863 
z
" id="DejaVuSans-6c" transform="scale(0.015625)"/>
       <path d="M 581 4863 
L 1159 4863 
L 1159 1991 
L 2875 3500 
L 3609 3500 
L 1753 1863 
L 3688 0 
L 2938 0 
L 1159 1709 
L 1159 0 
L 581 0 
L 581 4863 
z
" id="DejaVuSans-6b" transform="scale(0.015625)"/>
       <path d="M 3597 1894 
L 3597 1613 
L 953 1613 
Q 991 1019 1311 708 
Q 1631 397 2203 397 
Q 2534 397 2845 478 
Q 3156 559 3463 722 
L 3463 178 
Q 3153 47 2828 -22 
Q 2503 -91 2169 -91 
Q 1331 -91 842 396 
Q 353 884 353 1716 
Q 353 2575 817 3079 
Q 1281 3584 2069 3584 
Q 2775 3584 3186 3129 
Q 3597 2675 3597 1894 
z
M 3022 2063 
Q 3016 2534 2758 2815 
Q 2500 3097 2075 3097 
Q 1594 3097 1305 2825 
Q 1016 2553 972 2059 
L 3022 2063 
z
" id="DejaVuSans-65" transform="scale(0.015625)"/>
       <path d="M 2631 2963 
Q 2534 3019 2420 3045 
Q 2306 3072 2169 3072 
Q 1681 3072 1420 2755 
Q 1159 2438 1159 1844 
L 1159 0 
L 581 0 
L 581 3500 
L 1159 3500 
L 1159 2956 
Q 1341 3275 1631 3429 
Q 1922 3584 2338 3584 
Q 2397 3584 2469 3576 
Q 2541 3569 2628 3553 
L 2631 2963 
z
" id="DejaVuSans-72" transform="scale(0.015625)"/>
      </defs>
      <use xlink:href="#DejaVuSans-77"/>
      <use x="81.787109" xlink:href="#DejaVuSans-61"/>
      <use x="143.066406" xlink:href="#DejaVuSans-6c"/>
      <use x="170.849609" xlink:href="#DejaVuSans-6b"/>
      <use x="225.134766" xlink:href="#DejaVuSans-65"/>
      <use x="286.658203" xlink:href="#DejaVuSans-72"/>
     </g>
    </g>
   </g>
   <g id="matplotlib.axis_2">
    <g id="ytick_1">
     <g id="line2d_7">
      <defs>
       <path d="M 0 0 
L -3.5 0 
" id="mc7a7501361" style="stroke:#000000;stroke-width:0.8;"/>
      </defs>
      <g>
       <use style="stroke:#000000;stroke-width:0.8;" x="50.14375" xlink:href="#mc7a7501361" y="216.881877"/>
      </g>
     </g>
     <g id="text_8">
      <!-- 0.48 -->
      <g transform="translate(20.878125 220.681096)scale(0.1 -0.1)">
       <defs>
        <path d="M 684 794 
L 1344 794 
L 1344 0 
L 684 0 
L 684 794 
z
" id="DejaVuSans-2e" transform="scale(0.015625)"/>
       </defs>
       <use xlink:href="#DejaVuSans-30"/>
       <use x="63.623047" xlink:href="#DejaVuSans-2e"/>
       <use x="95.410156" xlink:href="#DejaVuSans-34"/>
       <use x="159.033203" xlink:href="#DejaVuSans-38"/>
      </g>
     </g>
    </g>
    <g id="ytick_2">
     <g id="line2d_8">
      <g>
       <use style="stroke:#000000;stroke-width:0.8;" x="50.14375" xlink:href="#mc7a7501361" y="174.371613"/>
      </g>
     </g>
     <g id="text_9">
      <!-- 0.50 -->
      <g transform="translate(20.878125 178.170832)scale(0.1 -0.1)">
       <defs>
        <path d="M 691 4666 
L 3169 4666 
L 3169 4134 
L 1269 4134 
L 1269 2991 
Q 1406 3038 1543 3061 
Q 1681 3084 1819 3084 
Q 2600 3084 3056 2656 
Q 3513 2228 3513 1497 
Q 3513 744 3044 326 
Q 2575 -91 1722 -91 
Q 1428 -91 1123 -41 
Q 819 9 494 109 
L 494 744 
Q 775 591 1075 516 
Q 1375 441 1709 441 
Q 2250 441 2565 725 
Q 2881 1009 2881 1497 
Q 2881 1984 2565 2268 
Q 2250 2553 1709 2553 
Q 1456 2553 1204 2497 
Q 953 2441 691 2322 
L 691 4666 
z
" id="DejaVuSans-35" transform="scale(0.015625)"/>
       </defs>
       <use xlink:href="#DejaVuSans-30"/>
       <use x="63.623047" xlink:href="#DejaVuSans-2e"/>
       <use x="95.410156" xlink:href="#DejaVuSans-35"/>
       <use x="159.033203" xlink:href="#DejaVuSans-30"/>
      </g>
     </g>
    </g>
    <g id="ytick_3">
     <g id="line2d_9">
      <g>
       <use style="stroke:#000000;stroke-width:0.8;" x="50.14375" xlink:href="#mc7a7501361" y="131.861349"/>
      </g>
     </g>
     <g id="text_10">
      <!-- 0.52 -->
      <g transform="translate(20.878125 135.660568)scale(0.1 -0.1)">
       <use xlink:href="#DejaVuSans-30"/>
       <use x="63.623047" xlink:href="#DejaVuSans-2e"/>
       <use x="95.410156" xlink:href="#DejaVuSans-35"/>
       <use x="159.033203" xlink:href="#DejaVuSans-32"/>
      </g>
     </g>
    </g>
    <g id="ytick_4">
     <g id="line2d_10">
      <g>
       <use style="stroke:#000000;stroke-width:0.8;" x="50.14375" xlink:href="#mc7a7501361" y="89.351085"/>
      </g>
     </g>
     <g id="text_11">
      <!-- 0.54 -->
      <g transform="translate(20.878125 93.150304)scale(0.1 -0.1)">
       <use xlink:href="#DejaVuSans-30"/>
       <use x="63.623047" xlink:href="#DejaVuSans-2e"/>
       <use x="95.410156" xlink:href="#DejaVuSans-35"/>
       <use x="159.033203" xlink:href="#DejaVuSans-34"/>
      </g>
     </g>
    </g>
    <g id="ytick_5">
     <g id="line2d_11">
      <g>
       <use style="stroke:#000000;stroke-width:0.8;" x="50.14375" xlink:href="#mc7a7501361" y="46.840821"/>
      </g>
     </g>
     <g id="text_12">
      <!-- 0.56 -->
      <g transform="translate(20.878125 50.64004)scale(0.1 -0.1)">
       <use xlink:href="#DejaVuSans-30"/>
       <use x="63.623047" xlink:href="#DejaVuSans-2e"/>
       <use x="95.410156" xlink:href="#DejaVuSans-35"/>
       <use x="159.033203" xlink:href="#DejaVuSans-36"/>
      </g>
     </g>
    </g>
    <g id="text_13">
     <!-- acceptance fraction -->
     <g transform="translate(14.798438 165.547344)rotate(-90)scale(0.1 -0.1)">
      <defs>
       <path d="M 3122 3366 
L 3122 2828 
Q 2878 2963 2633 3030 
Q 2388 3097 2138 3097 
Q 1578 3097 1268 2742 
Q 959 2388 959 1747 
Q 959 1106 1268 751 
Q 1578 397 2138 397 
Q 2388 397 2633 464 
Q 2878 531 3122 666 
L 3122 134 
Q 2881 22 2623 -34 
Q 2366 -91 2075 -91 
Q 1284 -91 818 406 
Q 353 903 353 1747 
Q 353 2603 823 3093 
Q 1294 3584 2113 3584 
Q 2378 3584 2631 3529 
Q 2884 3475 3122 3366 
z
" id="DejaVuSans-63" transform="scale(0.015625)"/>
       <path d="M 1159 525 
L 1159 -1331 
L 581 -1331 
L 581 3500 
L 1159 3500 
L 1159 2969 
Q 1341 3281 1617 3432 
Q 1894 3584 2278 3584 
Q 2916 3584 3314 3078 
Q 3713 2572 3713 1747 
Q 3713 922 3314 415 
Q 2916 -91 2278 -91 
Q 1894 -91 1617 61 
Q 1341 213 1159 525 
z
M 3116 1747 
Q 3116 2381 2855 2742 
Q 2594 3103 2138 3103 
Q 1681 3103 1420 2742 
Q 1159 2381 1159 1747 
Q 1159 1113 1420 752 
Q 1681 391 2138 391 
Q 2594 391 2855 752 
Q 3116 1113 3116 1747 
z
" id="DejaVuSans-70" transform="scale(0.015625)"/>
       <path d="M 1172 4494 
L 1172 3500 
L 2356 3500 
L 2356 3053 
L 1172 3053 
L 1172 1153 
Q 1172 725 1289 603 
Q 1406 481 1766 481 
L 2356 481 
L 2356 0 
L 1766 0 
Q 1100 0 847 248 
Q 594 497 594 1153 
L 594 3053 
L 172 3053 
L 172 3500 
L 594 3500 
L 594 4494 
L 1172 4494 
z
" id="DejaVuSans-74" transform="scale(0.015625)"/>
       <path d="M 3513 2113 
L 3513 0 
L 2938 0 
L 2938 2094 
Q 2938 2591 2744 2837 
Q 2550 3084 2163 3084 
Q 1697 3084 1428 2787 
Q 1159 2491 1159 1978 
L 1159 0 
L 581 0 
L 581 3500 
L 1159 3500 
L 1159 2956 
Q 1366 3272 1645 3428 
Q 1925 3584 2291 3584 
Q 2894 3584 3203 3211 
Q 3513 2838 3513 2113 
z
" id="DejaVuSans-6e" transform="scale(0.015625)"/>
       <path id="DejaVuSans-20" transform="scale(0.015625)"/>
       <path d="M 2375 4863 
L 2375 4384 
L 1825 4384 
Q 1516 4384 1395 4259 
Q 1275 4134 1275 3809 
L 1275 3500 
L 2222 3500 
L 2222 3053 
L 1275 3053 
L 1275 0 
L 697 0 
L 697 3053 
L 147 3053 
L 147 3500 
L 697 3500 
L 697 3744 
Q 697 4328 969 4595 
Q 1241 4863 1831 4863 
L 2375 4863 
z
" id="DejaVuSans-66" transform="scale(0.015625)"/>
       <path d="M 603 3500 
L 1178 3500 
L 1178 0 
L 603 0 
L 603 3500 
z
M 603 4863 
L 1178 4863 
L 1178 4134 
L 603 4134 
L 603 4863 
z
" id="DejaVuSans-69" transform="scale(0.015625)"/>
       <path d="M 1959 3097 
Q 1497 3097 1228 2736 
Q 959 2375 959 1747 
Q 959 1119 1226 758 
Q 1494 397 1959 397 
Q 2419 397 2687 759 
Q 2956 1122 2956 1747 
Q 2956 2369 2687 2733 
Q 2419 3097 1959 3097 
z
M 1959 3584 
Q 2709 3584 3137 3096 
Q 3566 2609 3566 1747 
Q 3566 888 3137 398 
Q 2709 -91 1959 -91 
Q 1206 -91 779 398 
Q 353 888 353 1747 
Q 353 2609 779 3096 
Q 1206 3584 1959 3584 
z
" id="DejaVuSans-6f" transform="scale(0.015625)"/>
      </defs>
      <use xlink:href="#DejaVuSans-61"/>
      <use x="61.279297" xlink:href="#DejaVuSans-63"/>
      <use x="116.259766" xlink:href="#DejaVuSans-63"/>
      <use x="171.240234" xlink:href="#DejaVuSans-65"/>
      <use x="232.763672" xlink:href="#DejaVuSans-70"/>
      <use x="296.240234" xlink:href="#DejaVuSans-74"/>
      <use x="335.449219" xlink:href="#DejaVuSans-61"/>
      <use x="396.728516" xlink:href="#DejaVuSans-6e"/>
      <use x="460.107422" xlink:href="#DejaVuSans-63"/>
      <use x="515.087891" xlink:href="#DejaVuSans-65"/>
      <use x="576.611328" xlink:href="#DejaVuSans-20"/>
      <use x="608.398438" xlink:href="#DejaVuSans-66"/>
      <use x="643.603516" xlink:href="#DejaVuSans-72"/>
      <use x="684.716797" xlink:href="#DejaVuSans-61"/>
      <use x="745.996094" xlink:href="#DejaVuSans-63"/>
      <use x="800.976562" xlink:href="#DejaVuSans-74"/>
      <use x="840.185547" xlink:href="#DejaVuSans-69"/>
      <use x="867.96875" xlink:href="#DejaVuSans-6f"/>
      <use x="929.150391" xlink:href="#DejaVuSans-6e"/>
     </g>
    </g>
   </g>
   <g id="line2d_12">
    <defs>
     <path d="M 0 3 
C 0.795609 3 1.55874 2.683901 2.12132 2.12132 
C 2.683901 1.55874 3 0.795609 3 0 
C 3 -0.795609 2.683901 -1.55874 2.12132 -2.12132 
C 1.55874 -2.683901 0.795609 -3 0 -3 
C -0.795609 -3 -1.55874 -2.683901 -2.12132 -2.12132 
C -2.683901 -1.55874 -3 -0.795609 -3 0 
C -3 0.795609 -2.683901 1.55874 -2.12132 2.12132 
C -1.55874 2.683901 -0.795609 3 0 3 
z
" id="mda0fa10d43" style="stroke:#1f77b4;"/>
    </defs>
    <g clip-path="url(#pf501bcbd12)">
     <use style="fill:#1f77b4;stroke:#1f77b4;" x="65.361932" xlink:href="#mda0fa10d43" y="125.484809"/>
     <use style="fill:#1f77b4;stroke:#1f77b4;" x="68.436312" xlink:href="#mda0fa10d43" y="76.598006"/>
     <use style="fill:#1f77b4;stroke:#1f77b4;" x="71.510692" xlink:href="#mda0fa10d43" y="144.614428"/>
     <use style="fill:#1f77b4;stroke:#1f77b4;" x="74.585072" xlink:href="#mda0fa10d43" y="133.986862"/>
     <use style="fill:#1f77b4;stroke:#1f77b4;" x="77.659452" xlink:href="#mda0fa10d43" y="150.990968"/>
     <use style="fill:#1f77b4;stroke:#1f77b4;" x="80.733833" xlink:href="#mda0fa10d43" y="68.095953"/>
     <use style="fill:#1f77b4;stroke:#1f77b4;" x="83.808213" xlink:href="#mda0fa10d43" y="131.861349"/>
     <use style="fill:#1f77b4;stroke:#1f77b4;" x="86.882593" xlink:href="#mda0fa10d43" y="140.363402"/>
     <use style="fill:#1f77b4;stroke:#1f77b4;" x="89.956973" xlink:href="#mda0fa10d43" y="106.355191"/>
     <use style="fill:#1f77b4;stroke:#1f77b4;" x="93.031353" xlink:href="#mda0fa10d43" y="95.727625"/>
     <use style="fill:#1f77b4;stroke:#1f77b4;" x="96.105733" xlink:href="#mda0fa10d43" y="110.606217"/>
     <use style="fill:#1f77b4;stroke:#1f77b4;" x="99.180114" xlink:href="#mda0fa10d43" y="140.363402"/>
     <use style="fill:#1f77b4;stroke:#1f77b4;" x="102.254494" xlink:href="#mda0fa10d43" y="119.10827"/>
     <use style="fill:#1f77b4;stroke:#1f77b4;" x="105.328874" xlink:href="#mda0fa10d43" y="65.97044"/>
     <use style="fill:#1f77b4;stroke:#1f77b4;" x="108.403254" xlink:href="#mda0fa10d43" y="108.480704"/>
     <use style="fill:#1f77b4;stroke:#1f77b4;" x="111.477634" xlink:href="#mda0fa10d43" y="146.739941"/>
     <use style="fill:#1f77b4;stroke:#1f77b4;" x="114.552014" xlink:href="#mda0fa10d43" y="125.484809"/>
     <use style="fill:#1f77b4;stroke:#1f77b4;" x="117.626395" xlink:href="#mda0fa10d43" y="140.363402"/>
     <use style="fill:#1f77b4;stroke:#1f77b4;" x="120.700775" xlink:href="#mda0fa10d43" y="112.73173"/>
     <use style="fill:#1f77b4;stroke:#1f77b4;" x="123.775155" xlink:href="#mda0fa10d43" y="155.241994"/>
     <use style="fill:#1f77b4;stroke:#1f77b4;" x="126.849535" xlink:href="#mda0fa10d43" y="157.367507"/>
     <use style="fill:#1f77b4;stroke:#1f77b4;" x="129.923915" xlink:href="#mda0fa10d43" y="36.213255"/>
     <use style="fill:#1f77b4;stroke:#1f77b4;" x="132.998295" xlink:href="#mda0fa10d43" y="189.250205"/>
     <use style="fill:#1f77b4;stroke:#1f77b4;" x="136.072676" xlink:href="#mda0fa10d43" y="146.739941"/>
     <use style="fill:#1f77b4;stroke:#1f77b4;" x="139.147056" xlink:href="#mda0fa10d43" y="108.480704"/>
     <use style="fill:#1f77b4;stroke:#1f77b4;" x="142.221436" xlink:href="#mda0fa10d43" y="180.748152"/>
     <use style="fill:#1f77b4;stroke:#1f77b4;" x="145.295816" xlink:href="#mda0fa10d43" y="150.990968"/>
     <use style="fill:#1f77b4;stroke:#1f77b4;" x="148.370196" xlink:href="#mda0fa10d43" y="142.488915"/>
     <use style="fill:#1f77b4;stroke:#1f77b4;" x="151.444576" xlink:href="#mda0fa10d43" y="127.610323"/>
     <use style="fill:#1f77b4;stroke:#1f77b4;" x="154.518957" xlink:href="#mda0fa10d43" y="51.091848"/>
     <use style="fill:#1f77b4;stroke:#1f77b4;" x="157.593337" xlink:href="#mda0fa10d43" y="161.618534"/>
     <use style="fill:#1f77b4;stroke:#1f77b4;" x="160.667717" xlink:href="#mda0fa10d43" y="138.237889"/>
     <use style="fill:#1f77b4;stroke:#1f77b4;" x="163.742097" xlink:href="#mda0fa10d43" y="106.355191"/>
     <use style="fill:#1f77b4;stroke:#1f77b4;" x="166.816477" xlink:href="#mda0fa10d43" y="91.476598"/>
     <use style="fill:#1f77b4;stroke:#1f77b4;" x="169.890857" xlink:href="#mda0fa10d43" y="159.493021"/>
     <use style="fill:#1f77b4;stroke:#1f77b4;" x="172.965238" xlink:href="#mda0fa10d43" y="114.857243"/>
     <use style="fill:#1f77b4;stroke:#1f77b4;" x="176.039618" xlink:href="#mda0fa10d43" y="144.614428"/>
     <use style="fill:#1f77b4;stroke:#1f77b4;" x="179.113998" xlink:href="#mda0fa10d43" y="127.610323"/>
     <use style="fill:#1f77b4;stroke:#1f77b4;" x="182.188378" xlink:href="#mda0fa10d43" y="114.857243"/>
     <use style="fill:#1f77b4;stroke:#1f77b4;" x="185.262758" xlink:href="#mda0fa10d43" y="150.990968"/>
     <use style="fill:#1f77b4;stroke:#1f77b4;" x="188.337138" xlink:href="#mda0fa10d43" y="85.100059"/>
     <use style="fill:#1f77b4;stroke:#1f77b4;" x="191.411519" xlink:href="#mda0fa10d43" y="110.606217"/>
     <use style="fill:#1f77b4;stroke:#1f77b4;" x="194.485899" xlink:href="#mda0fa10d43" y="167.995073"/>
     <use style="fill:#1f77b4;stroke:#1f77b4;" x="197.560279" xlink:href="#mda0fa10d43" y="76.598006"/>
     <use style="fill:#1f77b4;stroke:#1f77b4;" x="200.634659" xlink:href="#mda0fa10d43" y="187.124692"/>
     <use style="fill:#1f77b4;stroke:#1f77b4;" x="203.709039" xlink:href="#mda0fa10d43" y="214.756364"/>
     <use style="fill:#1f77b4;stroke:#1f77b4;" x="206.783419" xlink:href="#mda0fa10d43" y="161.618534"/>
     <use style="fill:#1f77b4;stroke:#1f77b4;" x="209.8578" xlink:href="#mda0fa10d43" y="36.213255"/>
     <use style="fill:#1f77b4;stroke:#1f77b4;" x="212.93218" xlink:href="#mda0fa10d43" y="110.606217"/>
     <use style="fill:#1f77b4;stroke:#1f77b4;" x="216.00656" xlink:href="#mda0fa10d43" y="106.355191"/>
     <use style="fill:#1f77b4;stroke:#1f77b4;" x="219.08094" xlink:href="#mda0fa10d43" y="114.857243"/>
     <use style="fill:#1f77b4;stroke:#1f77b4;" x="222.15532" xlink:href="#mda0fa10d43" y="59.5939"/>
     <use style="fill:#1f77b4;stroke:#1f77b4;" x="225.2297" xlink:href="#mda0fa10d43" y="123.359296"/>
     <use style="fill:#1f77b4;stroke:#1f77b4;" x="228.304081" xlink:href="#mda0fa10d43" y="63.844927"/>
     <use style="fill:#1f77b4;stroke:#1f77b4;" x="231.378461" xlink:href="#mda0fa10d43" y="144.614428"/>
     <use style="fill:#1f77b4;stroke:#1f77b4;" x="234.452841" xlink:href="#mda0fa10d43" y="55.342874"/>
     <use style="fill:#1f77b4;stroke:#1f77b4;" x="237.527221" xlink:href="#mda0fa10d43" y="97.853138"/>
     <use style="fill:#1f77b4;stroke:#1f77b4;" x="240.601601" xlink:href="#mda0fa10d43" y="80.849032"/>
     <use style="fill:#1f77b4;stroke:#1f77b4;" x="243.675981" xlink:href="#mda0fa10d43" y="93.602111"/>
     <use style="fill:#1f77b4;stroke:#1f77b4;" x="246.750362" xlink:href="#mda0fa10d43" y="80.849032"/>
     <use style="fill:#1f77b4;stroke:#1f77b4;" x="249.824742" xlink:href="#mda0fa10d43" y="138.237889"/>
     <use style="fill:#1f77b4;stroke:#1f77b4;" x="252.899122" xlink:href="#mda0fa10d43" y="131.861349"/>
     <use style="fill:#1f77b4;stroke:#1f77b4;" x="255.973502" xlink:href="#mda0fa10d43" y="53.217361"/>
     <use style="fill:#1f77b4;stroke:#1f77b4;" x="259.047882" xlink:href="#mda0fa10d43" y="189.250205"/>
     <use style="fill:#1f77b4;stroke:#1f77b4;" x="262.122262" xlink:href="#mda0fa10d43" y="127.610323"/>
     <use style="fill:#1f77b4;stroke:#1f77b4;" x="265.196643" xlink:href="#mda0fa10d43" y="136.112375"/>
     <use style="fill:#1f77b4;stroke:#1f77b4;" x="268.271023" xlink:href="#mda0fa10d43" y="82.974545"/>
     <use style="fill:#1f77b4;stroke:#1f77b4;" x="271.345403" xlink:href="#mda0fa10d43" y="148.865455"/>
     <use style="fill:#1f77b4;stroke:#1f77b4;" x="274.419783" xlink:href="#mda0fa10d43" y="138.237889"/>
     <use style="fill:#1f77b4;stroke:#1f77b4;" x="277.494163" xlink:href="#mda0fa10d43" y="85.100059"/>
     <use style="fill:#1f77b4;stroke:#1f77b4;" x="280.568543" xlink:href="#mda0fa10d43" y="127.610323"/>
     <use style="fill:#1f77b4;stroke:#1f77b4;" x="283.642924" xlink:href="#mda0fa10d43" y="110.606217"/>
     <use style="fill:#1f77b4;stroke:#1f77b4;" x="286.717304" xlink:href="#mda0fa10d43" y="140.363402"/>
     <use style="fill:#1f77b4;stroke:#1f77b4;" x="289.791684" xlink:href="#mda0fa10d43" y="82.974545"/>
     <use style="fill:#1f77b4;stroke:#1f77b4;" x="292.866064" xlink:href="#mda0fa10d43" y="97.853138"/>
     <use style="fill:#1f77b4;stroke:#1f77b4;" x="295.940444" xlink:href="#mda0fa10d43" y="99.978651"/>
     <use style="fill:#1f77b4;stroke:#1f77b4;" x="299.014824" xlink:href="#mda0fa10d43" y="110.606217"/>
     <use style="fill:#1f77b4;stroke:#1f77b4;" x="302.089205" xlink:href="#mda0fa10d43" y="91.476598"/>
     <use style="fill:#1f77b4;stroke:#1f77b4;" x="305.163585" xlink:href="#mda0fa10d43" y="89.351085"/>
     <use style="fill:#1f77b4;stroke:#1f77b4;" x="308.237965" xlink:href="#mda0fa10d43" y="46.840821"/>
     <use style="fill:#1f77b4;stroke:#1f77b4;" x="311.312345" xlink:href="#mda0fa10d43" y="136.112375"/>
     <use style="fill:#1f77b4;stroke:#1f77b4;" x="314.386725" xlink:href="#mda0fa10d43" y="172.2461"/>
     <use style="fill:#1f77b4;stroke:#1f77b4;" x="317.461105" xlink:href="#mda0fa10d43" y="102.104164"/>
     <use style="fill:#1f77b4;stroke:#1f77b4;" x="320.535486" xlink:href="#mda0fa10d43" y="76.598006"/>
     <use style="fill:#1f77b4;stroke:#1f77b4;" x="323.609866" xlink:href="#mda0fa10d43" y="161.618534"/>
     <use style="fill:#1f77b4;stroke:#1f77b4;" x="326.684246" xlink:href="#mda0fa10d43" y="144.614428"/>
     <use style="fill:#1f77b4;stroke:#1f77b4;" x="329.758626" xlink:href="#mda0fa10d43" y="17.083636"/>
     <use style="fill:#1f77b4;stroke:#1f77b4;" x="332.833006" xlink:href="#mda0fa10d43" y="184.999179"/>
     <use style="fill:#1f77b4;stroke:#1f77b4;" x="335.907386" xlink:href="#mda0fa10d43" y="199.877771"/>
     <use style="fill:#1f77b4;stroke:#1f77b4;" x="338.981767" xlink:href="#mda0fa10d43" y="74.472493"/>
     <use style="fill:#1f77b4;stroke:#1f77b4;" x="342.056147" xlink:href="#mda0fa10d43" y="144.614428"/>
     <use style="fill:#1f77b4;stroke:#1f77b4;" x="345.130527" xlink:href="#mda0fa10d43" y="108.480704"/>
     <use style="fill:#1f77b4;stroke:#1f77b4;" x="348.204907" xlink:href="#mda0fa10d43" y="55.342874"/>
     <use style="fill:#1f77b4;stroke:#1f77b4;" x="351.279287" xlink:href="#mda0fa10d43" y="199.877771"/>
     <use style="fill:#1f77b4;stroke:#1f77b4;" x="354.353667" xlink:href="#mda0fa10d43" y="57.468387"/>
     <use style="fill:#1f77b4;stroke:#1f77b4;" x="357.428048" xlink:href="#mda0fa10d43" y="146.739941"/>
     <use style="fill:#1f77b4;stroke:#1f77b4;" x="360.502428" xlink:href="#mda0fa10d43" y="112.73173"/>
     <use style="fill:#1f77b4;stroke:#1f77b4;" x="363.576808" xlink:href="#mda0fa10d43" y="116.982757"/>
     <use style="fill:#1f77b4;stroke:#1f77b4;" x="366.651188" xlink:href="#mda0fa10d43" y="108.480704"/>
     <use style="fill:#1f77b4;stroke:#1f77b4;" x="369.725568" xlink:href="#mda0fa10d43" y="125.484809"/>
    </g>
   </g>
   <g id="patch_3">
    <path d="M 50.14375 224.64 
L 50.14375 7.2 
" style="fill:none;stroke:#000000;stroke-linecap:square;stroke-linejoin:miter;stroke-width:0.8;"/>
   </g>
   <g id="patch_4">
    <path d="M 384.94375 224.64 
L 384.94375 7.2 
" style="fill:none;stroke:#000000;stroke-linecap:square;stroke-linejoin:miter;stroke-width:0.8;"/>
   </g>
   <g id="patch_5">
    <path d="M 50.14375 224.64 
L 384.94375 224.64 
" style="fill:none;stroke:#000000;stroke-linecap:square;stroke-linejoin:miter;stroke-width:0.8;"/>
   </g>
   <g id="patch_6">
    <path d="M 50.14375 7.2 
L 384.94375 7.2 
" style="fill:none;stroke:#000000;stroke-linecap:square;stroke-linejoin:miter;stroke-width:0.8;"/>
   </g>
  </g>
 </g>
 <defs>
  <clipPath id="pf501bcbd12">
   <rect height="217.44" width="334.8" x="50.14375" y="7.2"/>
  </clipPath>
 </defs>
</svg>
