<?xml version="1.0" encoding="utf-8" standalone="no"?>
<!DOCTYPE svg PUBLIC "-//W3C//DTD SVG 1.1//EN"
  "http://www.w3.org/Graphics/SVG/1.1/DTD/svg11.dtd">
<svg xmlns:xlink="http://www.w3.org/1999/xlink" width="384.8825pt" height="297.190125pt" viewBox="0 0 384.8825 297.190125" xmlns="http://www.w3.org/2000/svg" version="1.1">
 <metadata>
  <rdf:RDF xmlns:dc="http://purl.org/dc/elements/1.1/" xmlns:cc="http://creativecommons.org/ns#" xmlns:rdf="http://www.w3.org/1999/02/22-rdf-syntax-ns#">
   <cc:Work>
    <dc:type rdf:resource="http://purl.org/dc/dcmitype/StillImage"/>
    <dc:date>2024-04-19T09:37:42.576714</dc:date>
    <dc:format>image/svg+xml</dc:format>
    <dc:creator>
     <cc:Agent>
      <dc:title>Matplotlib v3.8.4, https://matplotlib.org/</dc:title>
     </cc:Agent>
    </dc:creator>
   </cc:Work>
  </rdf:RDF>
 </metadata>
 <defs>
  <style type="text/css">*{stroke-linejoin: round; stroke-linecap: butt}</style>
 </defs>
 <g id="figure_1">
  <g id="patch_1">
   <path d="M 0 297.190125 
L 384.8825 297.190125 
L 384.8825 0 
L 0 0 
z
" style="fill: #ffffff"/>
  </g>
  <g id="axes_1">
   <g id="patch_2">
    <path d="M 20.5625 273.312 
L 377.6825 273.312 
L 377.6825 7.2 
L 20.5625 7.2 
z
" style="fill: #ffffff"/>
   </g>
   <g id="matplotlib.axis_1">
    <g id="xtick_1">
     <g id="line2d_1">
      <defs>
       <path id="maa809dd14d" d="M 0 0 
L 0 3.5 
" style="stroke: #000000; stroke-width: 0.8"/>
      </defs>
      <g>
       <use xlink:href="#maa809dd14d" x="36.795227" y="273.312" style="stroke: #000000; stroke-width: 0.8"/>
      </g>
     </g>
     <g id="text_1">
      <!-- 0 -->
      <g transform="translate(33.613977 287.910437) scale(0.1 -0.1)">
       <defs>
        <path id="DejaVuSans-30" d="M 2034 4250 
Q 1547 4250 1301 3770 
Q 1056 3291 1056 2328 
Q 1056 1369 1301 889 
Q 1547 409 2034 409 
Q 2525 409 2770 889 
Q 3016 1369 3016 2328 
Q 3016 3291 2770 3770 
Q 2525 4250 2034 4250 
z
M 2034 4750 
Q 2819 4750 3233 4129 
Q 3647 3509 3647 2328 
Q 3647 1150 3233 529 
Q 2819 -91 2034 -91 
Q 1250 -91 836 529 
Q 422 1150 422 2328 
Q 422 3509 836 4129 
Q 1250 4750 2034 4750 
z
" transform="scale(0.015625)"/>
       </defs>
       <use xlink:href="#DejaVuSans-30"/>
      </g>
     </g>
    </g>
    <g id="xtick_2">
     <g id="line2d_2">
      <g>
       <use xlink:href="#maa809dd14d" x="101.726136" y="273.312" style="stroke: #000000; stroke-width: 0.8"/>
      </g>
     </g>
     <g id="text_2">
      <!-- 2 -->
      <g transform="translate(98.544886 287.910437) scale(0.1 -0.1)">
       <defs>
        <path id="DejaVuSans-32" d="M 1228 531 
L 3431 531 
L 3431 0 
L 469 0 
L 469 531 
Q 828 903 1448 1529 
Q 2069 2156 2228 2338 
Q 2531 2678 2651 2914 
Q 2772 3150 2772 3378 
Q 2772 3750 2511 3984 
Q 2250 4219 1831 4219 
Q 1534 4219 1204 4116 
Q 875 4013 500 3803 
L 500 4441 
Q 881 4594 1212 4672 
Q 1544 4750 1819 4750 
Q 2544 4750 2975 4387 
Q 3406 4025 3406 3419 
Q 3406 3131 3298 2873 
Q 3191 2616 2906 2266 
Q 2828 2175 2409 1742 
Q 1991 1309 1228 531 
z
" transform="scale(0.015625)"/>
       </defs>
       <use xlink:href="#DejaVuSans-32"/>
      </g>
     </g>
    </g>
    <g id="xtick_3">
     <g id="line2d_3">
      <g>
       <use xlink:href="#maa809dd14d" x="166.657045" y="273.312" style="stroke: #000000; stroke-width: 0.8"/>
      </g>
     </g>
     <g id="text_3">
      <!-- 4 -->
      <g transform="translate(163.475795 287.910437) scale(0.1 -0.1)">
       <defs>
        <path id="DejaVuSans-34" d="M 2419 4116 
L 825 1625 
L 2419 1625 
L 2419 4116 
z
M 2253 4666 
L 3047 4666 
L 3047 1625 
L 3713 1625 
L 3713 1100 
L 3047 1100 
L 3047 0 
L 2419 0 
L 2419 1100 
L 313 1100 
L 313 1709 
L 2253 4666 
z
" transform="scale(0.015625)"/>
       </defs>
       <use xlink:href="#DejaVuSans-34"/>
      </g>
     </g>
    </g>
    <g id="xtick_4">
     <g id="line2d_4">
      <g>
       <use xlink:href="#maa809dd14d" x="231.587955" y="273.312" style="stroke: #000000; stroke-width: 0.8"/>
      </g>
     </g>
     <g id="text_4">
      <!-- 6 -->
      <g transform="translate(228.406705 287.910437) scale(0.1 -0.1)">
       <defs>
        <path id="DejaVuSans-36" d="M 2113 2584 
Q 1688 2584 1439 2293 
Q 1191 2003 1191 1497 
Q 1191 994 1439 701 
Q 1688 409 2113 409 
Q 2538 409 2786 701 
Q 3034 994 3034 1497 
Q 3034 2003 2786 2293 
Q 2538 2584 2113 2584 
z
M 3366 4563 
L 3366 3988 
Q 3128 4100 2886 4159 
Q 2644 4219 2406 4219 
Q 1781 4219 1451 3797 
Q 1122 3375 1075 2522 
Q 1259 2794 1537 2939 
Q 1816 3084 2150 3084 
Q 2853 3084 3261 2657 
Q 3669 2231 3669 1497 
Q 3669 778 3244 343 
Q 2819 -91 2113 -91 
Q 1303 -91 875 529 
Q 447 1150 447 2328 
Q 447 3434 972 4092 
Q 1497 4750 2381 4750 
Q 2619 4750 2861 4703 
Q 3103 4656 3366 4563 
z
" transform="scale(0.015625)"/>
       </defs>
       <use xlink:href="#DejaVuSans-36"/>
      </g>
     </g>
    </g>
    <g id="xtick_5">
     <g id="line2d_5">
      <g>
       <use xlink:href="#maa809dd14d" x="296.518864" y="273.312" style="stroke: #000000; stroke-width: 0.8"/>
      </g>
     </g>
     <g id="text_5">
      <!-- 8 -->
      <g transform="translate(293.337614 287.910437) scale(0.1 -0.1)">
       <defs>
        <path id="DejaVuSans-38" d="M 2034 2216 
Q 1584 2216 1326 1975 
Q 1069 1734 1069 1313 
Q 1069 891 1326 650 
Q 1584 409 2034 409 
Q 2484 409 2743 651 
Q 3003 894 3003 1313 
Q 3003 1734 2745 1975 
Q 2488 2216 2034 2216 
z
M 1403 2484 
Q 997 2584 770 2862 
Q 544 3141 544 3541 
Q 544 4100 942 4425 
Q 1341 4750 2034 4750 
Q 2731 4750 3128 4425 
Q 3525 4100 3525 3541 
Q 3525 3141 3298 2862 
Q 3072 2584 2669 2484 
Q 3125 2378 3379 2068 
Q 3634 1759 3634 1313 
Q 3634 634 3220 271 
Q 2806 -91 2034 -91 
Q 1263 -91 848 271 
Q 434 634 434 1313 
Q 434 1759 690 2068 
Q 947 2378 1403 2484 
z
M 1172 3481 
Q 1172 3119 1398 2916 
Q 1625 2713 2034 2713 
Q 2441 2713 2670 2916 
Q 2900 3119 2900 3481 
Q 2900 3844 2670 4047 
Q 2441 4250 2034 4250 
Q 1625 4250 1398 4047 
Q 1172 3844 1172 3481 
z
" transform="scale(0.015625)"/>
       </defs>
       <use xlink:href="#DejaVuSans-38"/>
      </g>
     </g>
    </g>
    <g id="xtick_6">
     <g id="line2d_6">
      <g>
       <use xlink:href="#maa809dd14d" x="361.449773" y="273.312" style="stroke: #000000; stroke-width: 0.8"/>
      </g>
     </g>
     <g id="text_6">
      <!-- 10 -->
      <g transform="translate(355.087273 287.910437) scale(0.1 -0.1)">
       <defs>
        <path id="DejaVuSans-31" d="M 794 531 
L 1825 531 
L 1825 4091 
L 703 3866 
L 703 4441 
L 1819 4666 
L 2450 4666 
L 2450 531 
L 3481 531 
L 3481 0 
L 794 0 
L 794 531 
z
" transform="scale(0.015625)"/>
       </defs>
       <use xlink:href="#DejaVuSans-31"/>
       <use xlink:href="#DejaVuSans-30" x="63.623047"/>
      </g>
     </g>
    </g>
   </g>
   <g id="matplotlib.axis_2">
    <g id="ytick_1">
     <g id="line2d_7">
      <defs>
       <path id="ma52085a587" d="M 0 0 
L -3.5 0 
" style="stroke: #000000; stroke-width: 0.8"/>
      </defs>
      <g>
       <use xlink:href="#ma52085a587" x="20.5625" y="246.620354" style="stroke: #000000; stroke-width: 0.8"/>
      </g>
     </g>
     <g id="text_7">
      <!-- 0 -->
      <g transform="translate(7.2 250.419573) scale(0.1 -0.1)">
       <use xlink:href="#DejaVuSans-30"/>
      </g>
     </g>
    </g>
    <g id="ytick_2">
     <g id="line2d_8">
      <g>
       <use xlink:href="#ma52085a587" x="20.5625" y="202.270976" style="stroke: #000000; stroke-width: 0.8"/>
      </g>
     </g>
     <g id="text_8">
      <!-- 1 -->
      <g transform="translate(7.2 206.070195) scale(0.1 -0.1)">
       <use xlink:href="#DejaVuSans-31"/>
      </g>
     </g>
    </g>
    <g id="ytick_3">
     <g id="line2d_9">
      <g>
       <use xlink:href="#ma52085a587" x="20.5625" y="157.921599" style="stroke: #000000; stroke-width: 0.8"/>
      </g>
     </g>
     <g id="text_9">
      <!-- 2 -->
      <g transform="translate(7.2 161.720818) scale(0.1 -0.1)">
       <use xlink:href="#DejaVuSans-32"/>
      </g>
     </g>
    </g>
    <g id="ytick_4">
     <g id="line2d_10">
      <g>
       <use xlink:href="#ma52085a587" x="20.5625" y="113.572221" style="stroke: #000000; stroke-width: 0.8"/>
      </g>
     </g>
     <g id="text_10">
      <!-- 3 -->
      <g transform="translate(7.2 117.37144) scale(0.1 -0.1)">
       <defs>
        <path id="DejaVuSans-33" d="M 2597 2516 
Q 3050 2419 3304 2112 
Q 3559 1806 3559 1356 
Q 3559 666 3084 287 
Q 2609 -91 1734 -91 
Q 1441 -91 1130 -33 
Q 819 25 488 141 
L 488 750 
Q 750 597 1062 519 
Q 1375 441 1716 441 
Q 2309 441 2620 675 
Q 2931 909 2931 1356 
Q 2931 1769 2642 2001 
Q 2353 2234 1838 2234 
L 1294 2234 
L 1294 2753 
L 1863 2753 
Q 2328 2753 2575 2939 
Q 2822 3125 2822 3475 
Q 2822 3834 2567 4026 
Q 2313 4219 1838 4219 
Q 1578 4219 1281 4162 
Q 984 4106 628 3988 
L 628 4550 
Q 988 4650 1302 4700 
Q 1616 4750 1894 4750 
Q 2613 4750 3031 4423 
Q 3450 4097 3450 3541 
Q 3450 3153 3228 2886 
Q 3006 2619 2597 2516 
z
" transform="scale(0.015625)"/>
       </defs>
       <use xlink:href="#DejaVuSans-33"/>
      </g>
     </g>
    </g>
    <g id="ytick_5">
     <g id="line2d_11">
      <g>
       <use xlink:href="#ma52085a587" x="20.5625" y="69.222844" style="stroke: #000000; stroke-width: 0.8"/>
      </g>
     </g>
     <g id="text_11">
      <!-- 4 -->
      <g transform="translate(7.2 73.022063) scale(0.1 -0.1)">
       <use xlink:href="#DejaVuSans-34"/>
      </g>
     </g>
    </g>
    <g id="ytick_6">
     <g id="line2d_12">
      <g>
       <use xlink:href="#ma52085a587" x="20.5625" y="24.873466" style="stroke: #000000; stroke-width: 0.8"/>
      </g>
     </g>
     <g id="text_12">
      <!-- 5 -->
      <g transform="translate(7.2 28.672685) scale(0.1 -0.1)">
       <defs>
        <path id="DejaVuSans-35" d="M 691 4666 
L 3169 4666 
L 3169 4134 
L 1269 4134 
L 1269 2991 
Q 1406 3038 1543 3061 
Q 1681 3084 1819 3084 
Q 2600 3084 3056 2656 
Q 3513 2228 3513 1497 
Q 3513 744 3044 326 
Q 2575 -91 1722 -91 
Q 1428 -91 1123 -41 
Q 819 9 494 109 
L 494 744 
Q 775 591 1075 516 
Q 1375 441 1709 441 
Q 2250 441 2565 725 
Q 2881 1009 2881 1497 
Q 2881 1984 2565 2268 
Q 2250 2553 1709 2553 
Q 1456 2553 1204 2497 
Q 953 2441 691 2322 
L 691 4666 
z
" transform="scale(0.015625)"/>
       </defs>
       <use xlink:href="#DejaVuSans-35"/>
      </g>
     </g>
    </g>
   </g>
   <g id="line2d_13">
    <defs>
     <path id="m877e1b9561" d="M 0 3 
C 0.795609 3 1.55874 2.683901 2.12132 2.12132 
C 2.683901 1.55874 3 0.795609 3 0 
C 3 -0.795609 2.683901 -1.55874 2.12132 -2.12132 
C 1.55874 -2.683901 0.795609 -3 0 -3 
C -0.795609 -3 -1.55874 -2.683901 -2.12132 -2.12132 
C -2.683901 -1.55874 -3 -0.795609 -3 0 
C -3 0.795609 -2.683901 1.55874 -2.12132 2.12132 
C -1.55874 2.683901 -0.795609 3 0 3 
z
" style="stroke: #1f77b4"/>
    </defs>
    <g clip-path="url(#pe869fb4597)">
     <use xlink:href="#m877e1b9561" x="36.795227" y="260.155606" style="fill: #1f77b4; stroke: #1f77b4"/>
     <use xlink:href="#m877e1b9561" x="40.041773" y="246.401623" style="fill: #1f77b4; stroke: #1f77b4"/>
     <use xlink:href="#m877e1b9561" x="43.288318" y="238.081546" style="fill: #1f77b4; stroke: #1f77b4"/>
     <use xlink:href="#m877e1b9561" x="46.534864" y="242.157077" style="fill: #1f77b4; stroke: #1f77b4"/>
     <use xlink:href="#m877e1b9561" x="49.781409" y="235.755111" style="fill: #1f77b4; stroke: #1f77b4"/>
     <use xlink:href="#m877e1b9561" x="53.027955" y="246.668916" style="fill: #1f77b4; stroke: #1f77b4"/>
     <use xlink:href="#m877e1b9561" x="56.2745" y="247.38272" style="fill: #1f77b4; stroke: #1f77b4"/>
     <use xlink:href="#m877e1b9561" x="59.521045" y="252.755203" style="fill: #1f77b4; stroke: #1f77b4"/>
     <use xlink:href="#m877e1b9561" x="62.767591" y="249.527278" style="fill: #1f77b4; stroke: #1f77b4"/>
     <use xlink:href="#m877e1b9561" x="66.014136" y="239.964" style="fill: #1f77b4; stroke: #1f77b4"/>
     <use xlink:href="#m877e1b9561" x="69.260682" y="245.64551" style="fill: #1f77b4; stroke: #1f77b4"/>
     <use xlink:href="#m877e1b9561" x="72.507227" y="236.348594" style="fill: #1f77b4; stroke: #1f77b4"/>
     <use xlink:href="#m877e1b9561" x="75.753773" y="238.365959" style="fill: #1f77b4; stroke: #1f77b4"/>
     <use xlink:href="#m877e1b9561" x="79.000318" y="236.677756" style="fill: #1f77b4; stroke: #1f77b4"/>
     <use xlink:href="#m877e1b9561" x="82.246864" y="230.836233" style="fill: #1f77b4; stroke: #1f77b4"/>
     <use xlink:href="#m877e1b9561" x="85.493409" y="249.71359" style="fill: #1f77b4; stroke: #1f77b4"/>
     <use xlink:href="#m877e1b9561" x="88.739955" y="243.855525" style="fill: #1f77b4; stroke: #1f77b4"/>
     <use xlink:href="#m877e1b9561" x="91.9865" y="247.755299" style="fill: #1f77b4; stroke: #1f77b4"/>
     <use xlink:href="#m877e1b9561" x="95.233045" y="244.310638" style="fill: #1f77b4; stroke: #1f77b4"/>
     <use xlink:href="#m877e1b9561" x="98.479591" y="261.216" style="fill: #1f77b4; stroke: #1f77b4"/>
     <use xlink:href="#m877e1b9561" x="101.726136" y="247.1584" style="fill: #1f77b4; stroke: #1f77b4"/>
     <use xlink:href="#m877e1b9561" x="104.972682" y="237.509306" style="fill: #1f77b4; stroke: #1f77b4"/>
     <use xlink:href="#m877e1b9561" x="108.219227" y="241.383003" style="fill: #1f77b4; stroke: #1f77b4"/>
     <use xlink:href="#m877e1b9561" x="111.465773" y="245.813018" style="fill: #1f77b4; stroke: #1f77b4"/>
     <use xlink:href="#m877e1b9561" x="114.712318" y="251.64842" style="fill: #1f77b4; stroke: #1f77b4"/>
     <use xlink:href="#m877e1b9561" x="117.958864" y="250.446153" style="fill: #1f77b4; stroke: #1f77b4"/>
     <use xlink:href="#m877e1b9561" x="121.205409" y="249.935337" style="fill: #1f77b4; stroke: #1f77b4"/>
     <use xlink:href="#m877e1b9561" x="124.451955" y="238.672324" style="fill: #1f77b4; stroke: #1f77b4"/>
     <use xlink:href="#m877e1b9561" x="127.6985" y="239.152007" style="fill: #1f77b4; stroke: #1f77b4"/>
     <use xlink:href="#m877e1b9561" x="130.945045" y="243.606636" style="fill: #1f77b4; stroke: #1f77b4"/>
     <use xlink:href="#m877e1b9561" x="134.191591" y="243.22736" style="fill: #1f77b4; stroke: #1f77b4"/>
     <use xlink:href="#m877e1b9561" x="137.438136" y="227.383013" style="fill: #1f77b4; stroke: #1f77b4"/>
     <use xlink:href="#m877e1b9561" x="140.684682" y="245.773414" style="fill: #1f77b4; stroke: #1f77b4"/>
     <use xlink:href="#m877e1b9561" x="143.931227" y="235.977701" style="fill: #1f77b4; stroke: #1f77b4"/>
     <use xlink:href="#m877e1b9561" x="147.177773" y="246.327337" style="fill: #1f77b4; stroke: #1f77b4"/>
     <use xlink:href="#m877e1b9561" x="150.424318" y="251.994345" style="fill: #1f77b4; stroke: #1f77b4"/>
     <use xlink:href="#m877e1b9561" x="153.670864" y="239.410165" style="fill: #1f77b4; stroke: #1f77b4"/>
     <use xlink:href="#m877e1b9561" x="156.917409" y="244.756349" style="fill: #1f77b4; stroke: #1f77b4"/>
     <use xlink:href="#m877e1b9561" x="160.163955" y="233.81589" style="fill: #1f77b4; stroke: #1f77b4"/>
     <use xlink:href="#m877e1b9561" x="163.4105" y="240.524975" style="fill: #1f77b4; stroke: #1f77b4"/>
     <use xlink:href="#m877e1b9561" x="166.657045" y="220.314387" style="fill: #1f77b4; stroke: #1f77b4"/>
     <use xlink:href="#m877e1b9561" x="169.903591" y="225.314336" style="fill: #1f77b4; stroke: #1f77b4"/>
     <use xlink:href="#m877e1b9561" x="173.150136" y="206.629855" style="fill: #1f77b4; stroke: #1f77b4"/>
     <use xlink:href="#m877e1b9561" x="176.396682" y="208.112632" style="fill: #1f77b4; stroke: #1f77b4"/>
     <use xlink:href="#m877e1b9561" x="179.643227" y="188.893164" style="fill: #1f77b4; stroke: #1f77b4"/>
     <use xlink:href="#m877e1b9561" x="182.889773" y="198.145509" style="fill: #1f77b4; stroke: #1f77b4"/>
     <use xlink:href="#m877e1b9561" x="186.136318" y="178.687308" style="fill: #1f77b4; stroke: #1f77b4"/>
     <use xlink:href="#m877e1b9561" x="189.382864" y="168.011171" style="fill: #1f77b4; stroke: #1f77b4"/>
     <use xlink:href="#m877e1b9561" x="192.629409" y="142.544827" style="fill: #1f77b4; stroke: #1f77b4"/>
     <use xlink:href="#m877e1b9561" x="195.875955" y="126.141101" style="fill: #1f77b4; stroke: #1f77b4"/>
     <use xlink:href="#m877e1b9561" x="199.1225" y="98.802016" style="fill: #1f77b4; stroke: #1f77b4"/>
     <use xlink:href="#m877e1b9561" x="202.369045" y="83.037542" style="fill: #1f77b4; stroke: #1f77b4"/>
     <use xlink:href="#m877e1b9561" x="205.615591" y="77.127012" style="fill: #1f77b4; stroke: #1f77b4"/>
     <use xlink:href="#m877e1b9561" x="208.862136" y="43.332387" style="fill: #1f77b4; stroke: #1f77b4"/>
     <use xlink:href="#m877e1b9561" x="212.108682" y="33.492147" style="fill: #1f77b4; stroke: #1f77b4"/>
     <use xlink:href="#m877e1b9561" x="215.355227" y="19.296" style="fill: #1f77b4; stroke: #1f77b4"/>
     <use xlink:href="#m877e1b9561" x="218.601773" y="26.426493" style="fill: #1f77b4; stroke: #1f77b4"/>
     <use xlink:href="#m877e1b9561" x="221.848318" y="25.367696" style="fill: #1f77b4; stroke: #1f77b4"/>
     <use xlink:href="#m877e1b9561" x="225.094864" y="31.308738" style="fill: #1f77b4; stroke: #1f77b4"/>
     <use xlink:href="#m877e1b9561" x="228.341409" y="36.48706" style="fill: #1f77b4; stroke: #1f77b4"/>
     <use xlink:href="#m877e1b9561" x="231.587955" y="33.07238" style="fill: #1f77b4; stroke: #1f77b4"/>
     <use xlink:href="#m877e1b9561" x="234.8345" y="66.095104" style="fill: #1f77b4; stroke: #1f77b4"/>
     <use xlink:href="#m877e1b9561" x="238.081045" y="69.974965" style="fill: #1f77b4; stroke: #1f77b4"/>
     <use xlink:href="#m877e1b9561" x="241.327591" y="108.824443" style="fill: #1f77b4; stroke: #1f77b4"/>
     <use xlink:href="#m877e1b9561" x="244.574136" y="120.619116" style="fill: #1f77b4; stroke: #1f77b4"/>
     <use xlink:href="#m877e1b9561" x="247.820682" y="130.86329" style="fill: #1f77b4; stroke: #1f77b4"/>
     <use xlink:href="#m877e1b9561" x="251.067227" y="151.44313" style="fill: #1f77b4; stroke: #1f77b4"/>
     <use xlink:href="#m877e1b9561" x="254.313773" y="171.963233" style="fill: #1f77b4; stroke: #1f77b4"/>
     <use xlink:href="#m877e1b9561" x="257.560318" y="188.187965" style="fill: #1f77b4; stroke: #1f77b4"/>
     <use xlink:href="#m877e1b9561" x="260.806864" y="211.604835" style="fill: #1f77b4; stroke: #1f77b4"/>
     <use xlink:href="#m877e1b9561" x="264.053409" y="220.639069" style="fill: #1f77b4; stroke: #1f77b4"/>
     <use xlink:href="#m877e1b9561" x="267.299955" y="224.682269" style="fill: #1f77b4; stroke: #1f77b4"/>
     <use xlink:href="#m877e1b9561" x="270.5465" y="226.794497" style="fill: #1f77b4; stroke: #1f77b4"/>
     <use xlink:href="#m877e1b9561" x="273.793045" y="227.021211" style="fill: #1f77b4; stroke: #1f77b4"/>
     <use xlink:href="#m877e1b9561" x="277.039591" y="229.166789" style="fill: #1f77b4; stroke: #1f77b4"/>
     <use xlink:href="#m877e1b9561" x="280.286136" y="248.123798" style="fill: #1f77b4; stroke: #1f77b4"/>
     <use xlink:href="#m877e1b9561" x="283.532682" y="244.715681" style="fill: #1f77b4; stroke: #1f77b4"/>
     <use xlink:href="#m877e1b9561" x="286.779227" y="251.77588" style="fill: #1f77b4; stroke: #1f77b4"/>
     <use xlink:href="#m877e1b9561" x="290.025773" y="243.892157" style="fill: #1f77b4; stroke: #1f77b4"/>
     <use xlink:href="#m877e1b9561" x="293.272318" y="238.477143" style="fill: #1f77b4; stroke: #1f77b4"/>
     <use xlink:href="#m877e1b9561" x="296.518864" y="252.260442" style="fill: #1f77b4; stroke: #1f77b4"/>
     <use xlink:href="#m877e1b9561" x="299.765409" y="230.277076" style="fill: #1f77b4; stroke: #1f77b4"/>
     <use xlink:href="#m877e1b9561" x="303.011955" y="237.999677" style="fill: #1f77b4; stroke: #1f77b4"/>
     <use xlink:href="#m877e1b9561" x="306.2585" y="233.245735" style="fill: #1f77b4; stroke: #1f77b4"/>
     <use xlink:href="#m877e1b9561" x="309.505045" y="244.62033" style="fill: #1f77b4; stroke: #1f77b4"/>
     <use xlink:href="#m877e1b9561" x="312.751591" y="241.717841" style="fill: #1f77b4; stroke: #1f77b4"/>
     <use xlink:href="#m877e1b9561" x="315.998136" y="234.949194" style="fill: #1f77b4; stroke: #1f77b4"/>
     <use xlink:href="#m877e1b9561" x="319.244682" y="238.161952" style="fill: #1f77b4; stroke: #1f77b4"/>
     <use xlink:href="#m877e1b9561" x="322.491227" y="227.771558" style="fill: #1f77b4; stroke: #1f77b4"/>
     <use xlink:href="#m877e1b9561" x="325.737773" y="235.392688" style="fill: #1f77b4; stroke: #1f77b4"/>
     <use xlink:href="#m877e1b9561" x="328.984318" y="237.683112" style="fill: #1f77b4; stroke: #1f77b4"/>
     <use xlink:href="#m877e1b9561" x="332.230864" y="240.753286" style="fill: #1f77b4; stroke: #1f77b4"/>
     <use xlink:href="#m877e1b9561" x="335.477409" y="233.115126" style="fill: #1f77b4; stroke: #1f77b4"/>
     <use xlink:href="#m877e1b9561" x="338.723955" y="240.895027" style="fill: #1f77b4; stroke: #1f77b4"/>
     <use xlink:href="#m877e1b9561" x="341.9705" y="234.682787" style="fill: #1f77b4; stroke: #1f77b4"/>
     <use xlink:href="#m877e1b9561" x="345.217045" y="238.22036" style="fill: #1f77b4; stroke: #1f77b4"/>
     <use xlink:href="#m877e1b9561" x="348.463591" y="235.811169" style="fill: #1f77b4; stroke: #1f77b4"/>
     <use xlink:href="#m877e1b9561" x="351.710136" y="228.350051" style="fill: #1f77b4; stroke: #1f77b4"/>
     <use xlink:href="#m877e1b9561" x="354.956682" y="243.042157" style="fill: #1f77b4; stroke: #1f77b4"/>
     <use xlink:href="#m877e1b9561" x="358.203227" y="231.866558" style="fill: #1f77b4; stroke: #1f77b4"/>
     <use xlink:href="#m877e1b9561" x="361.449773" y="249.596197" style="fill: #1f77b4; stroke: #1f77b4"/>
    </g>
   </g>
   <g id="line2d_14">
    <path d="M 36.795227 246.620024 
L 40.041773 246.619813 
L 43.288318 246.619475 
L 46.534864 246.618941 
L 49.781409 246.618105 
L 53.027955 246.616809 
L 56.2745 246.614823 
L 59.521045 246.611809 
L 62.767591 246.607283 
L 66.014136 246.60056 
L 69.260682 246.590677 
L 72.507227 246.576303 
L 75.753773 246.555615 
L 79.000318 246.52616 
L 82.246864 246.484666 
L 85.493409 246.426839 
L 88.739955 246.347113 
L 91.9865 246.238379 
L 95.233045 246.09169 
L 98.479591 245.895947 
L 101.726136 245.637605 
L 104.972682 245.300398 
L 108.219227 244.865127 
L 111.465773 244.309544 
L 114.712318 243.608373 
L 117.958864 242.733508 
L 121.205409 241.654436 
L 124.451955 240.338921 
L 127.6985 238.753973 
L 130.945045 236.867128 
L 134.191591 234.648025 
L 137.438136 232.070251 
L 140.684682 229.113402 
L 143.931227 225.765264 
L 147.177773 222.024004 
L 150.424318 217.90023 
L 153.670864 213.418754 
L 156.917409 208.619902 
L 160.163955 203.560201 
L 163.4105 198.312312 
L 166.657045 192.964099 
L 169.903591 187.616778 
L 173.150136 182.382154 
L 176.396682 177.379016 
L 179.643227 172.728835 
L 182.889773 168.550963 
L 186.136318 164.957596 
L 189.382864 162.048793 
L 192.629409 159.907854 
L 195.875955 158.597362 
L 199.1225 158.156145 
L 202.369045 158.597362 
L 205.615591 159.907854 
L 208.862136 162.048793 
L 212.108682 164.957596 
L 215.355227 168.550963 
L 218.601773 172.728835 
L 221.848318 177.379016 
L 225.094864 182.382154 
L 228.341409 187.616778 
L 231.587955 192.964099 
L 234.8345 198.312312 
L 238.081045 203.560201 
L 241.327591 208.619902 
L 244.574136 213.418754 
L 247.820682 217.90023 
L 251.067227 222.024004 
L 254.313773 225.765264 
L 257.560318 229.113402 
L 260.806864 232.070251 
L 264.053409 234.648025 
L 267.299955 236.867128 
L 270.5465 238.753973 
L 273.793045 240.338921 
L 277.039591 241.654436 
L 280.286136 242.733508 
L 283.532682 243.608373 
L 286.779227 244.309544 
L 290.025773 244.865127 
L 293.272318 245.300398 
L 296.518864 245.637605 
L 299.765409 245.895947 
L 303.011955 246.09169 
L 306.2585 246.238379 
L 309.505045 246.347113 
L 312.751591 246.426839 
L 315.998136 246.484666 
L 319.244682 246.52616 
L 322.491227 246.555615 
L 325.737773 246.576303 
L 328.984318 246.590677 
L 332.230864 246.60056 
L 335.477409 246.607283 
L 338.723955 246.611809 
L 341.9705 246.614823 
L 345.217045 246.616809 
L 348.463591 246.618105 
L 351.710136 246.618941 
L 354.956682 246.619475 
L 358.203227 246.619813 
L 361.449773 246.620024 
" clip-path="url(#pe869fb4597)" style="fill: none; stroke-dasharray: 5.55,2.4; stroke-dashoffset: 0; stroke: #ff7f0e; stroke-width: 1.5"/>
   </g>
   <g id="line2d_15">
    <path d="M 36.795227 246.620354 
L 40.041773 246.620354 
L 43.288318 246.620354 
L 46.534864 246.620354 
L 49.781409 246.620354 
L 53.027955 246.620354 
L 56.2745 246.620354 
L 59.521045 246.620354 
L 62.767591 246.620354 
L 66.014136 246.620354 
L 69.260682 246.620354 
L 72.507227 246.620354 
L 75.753773 246.620353 
L 79.000318 246.620353 
L 82.246864 246.620352 
L 85.493409 246.620349 
L 88.739955 246.620344 
L 91.9865 246.620331 
L 95.233045 246.620303 
L 98.479591 246.620242 
L 101.726136 246.620114 
L 104.972682 246.61985 
L 108.219227 246.619317 
L 111.465773 246.618265 
L 114.712318 246.616232 
L 117.958864 246.612386 
L 121.205409 246.605262 
L 124.451955 246.592351 
L 127.6985 246.569452 
L 130.945045 246.529708 
L 134.191591 246.462216 
L 137.438136 246.350081 
L 140.684682 246.167826 
L 143.931227 245.878076 
L 147.177773 245.427561 
L 150.424318 244.742593 
L 153.670864 243.724393 
L 156.917409 242.244908 
L 160.163955 240.144022 
L 163.4105 237.229328 
L 166.657045 233.279792 
L 169.903591 228.054608 
L 173.150136 221.308275 
L 176.396682 212.812282 
L 179.643227 202.382897 
L 182.889773 189.913304 
L 186.136318 175.407054 
L 189.382864 159.008608 
L 192.629409 141.025996 
L 195.875955 121.94051 
L 199.1225 102.399206 
L 202.369045 83.187711 
L 205.615591 65.18337 
L 208.862136 49.291773 
L 212.108682 36.37262 
L 215.355227 27.163163 
L 218.601773 22.208669 
L 221.848318 21.808982 
L 225.094864 25.988485 
L 228.341409 34.493637 
L 231.587955 46.818435 
L 234.8345 62.254241 
L 238.081045 79.957159 
L 241.327591 99.024056 
L 244.574136 118.567758 
L 247.820682 137.782877 
L 251.067227 155.995837 
L 254.313773 172.695563 
L 257.560318 187.544275 
L 260.806864 200.370499 
L 264.053409 211.148307 
L 267.299955 219.967772 
L 270.5465 227.001688 
L 273.793045 232.472948 
L 277.039591 236.625848 
L 280.286136 239.703271 
L 283.532682 241.930473 
L 286.779227 243.505212 
L 290.025773 244.593273 
L 293.272318 245.328119 
L 296.518864 245.813326 
L 299.765409 246.126597 
L 303.011955 246.324406 
L 306.2585 246.446576 
L 309.505045 246.520388 
L 312.751591 246.564018 
L 315.998136 246.589251 
L 319.244682 246.603532 
L 322.491227 246.61144 
L 325.737773 246.615727 
L 328.984318 246.618001 
L 332.230864 246.619182 
L 335.477409 246.619782 
L 338.723955 246.62008 
L 341.9705 246.620226 
L 345.217045 246.620295 
L 348.463591 246.620327 
L 351.710136 246.620342 
L 354.956682 246.620349 
L 358.203227 246.620352 
L 361.449773 246.620353 
" clip-path="url(#pe869fb4597)" style="fill: none; stroke: #2ca02c; stroke-width: 1.5; stroke-linecap: square"/>
   </g>
   <g id="patch_3">
    <path d="M 20.5625 273.312 
L 20.5625 7.2 
" style="fill: none; stroke: #000000; stroke-width: 0.8; stroke-linejoin: miter; stroke-linecap: square"/>
   </g>
   <g id="patch_4">
    <path d="M 377.6825 273.312 
L 377.6825 7.2 
" style="fill: none; stroke: #000000; stroke-width: 0.8; stroke-linejoin: miter; stroke-linecap: square"/>
   </g>
   <g id="patch_5">
    <path d="M 20.5625 273.312 
L 377.6825 273.312 
" style="fill: none; stroke: #000000; stroke-width: 0.8; stroke-linejoin: miter; stroke-linecap: square"/>
   </g>
   <g id="patch_6">
    <path d="M 20.5625 7.2 
L 377.6825 7.2 
" style="fill: none; stroke: #000000; stroke-width: 0.8; stroke-linejoin: miter; stroke-linecap: square"/>
   </g>
   <g id="legend_1">
    <g id="patch_7">
     <path d="M 297.787188 44.55625 
L 370.6825 44.55625 
Q 372.6825 44.55625 372.6825 42.55625 
L 372.6825 14.2 
Q 372.6825 12.2 370.6825 12.2 
L 297.787188 12.2 
Q 295.787188 12.2 295.787188 14.2 
L 295.787188 42.55625 
Q 295.787188 44.55625 297.787188 44.55625 
z
" style="fill: #ffffff; opacity: 0.8; stroke: #cccccc; stroke-linejoin: miter"/>
    </g>
    <g id="line2d_16">
     <path d="M 299.787188 20.298437 
L 309.787188 20.298437 
L 319.787188 20.298437 
" style="fill: none; stroke-dasharray: 5.55,2.4; stroke-dashoffset: 0; stroke: #ff7f0e; stroke-width: 1.5"/>
    </g>
    <g id="text_13">
     <!-- initial fit -->
     <g transform="translate(327.787188 23.798437) scale(0.1 -0.1)">
      <defs>
       <path id="DejaVuSans-69" d="M 603 3500 
L 1178 3500 
L 1178 0 
L 603 0 
L 603 3500 
z
M 603 4863 
L 1178 4863 
L 1178 4134 
L 603 4134 
L 603 4863 
z
" transform="scale(0.015625)"/>
       <path id="DejaVuSans-6e" d="M 3513 2113 
L 3513 0 
L 2938 0 
L 2938 2094 
Q 2938 2591 2744 2837 
Q 2550 3084 2163 3084 
Q 1697 3084 1428 2787 
Q 1159 2491 1159 1978 
L 1159 0 
L 581 0 
L 581 3500 
L 1159 3500 
L 1159 2956 
Q 1366 3272 1645 3428 
Q 1925 3584 2291 3584 
Q 2894 3584 3203 3211 
Q 3513 2838 3513 2113 
z
" transform="scale(0.015625)"/>
       <path id="DejaVuSans-74" d="M 1172 4494 
L 1172 3500 
L 2356 3500 
L 2356 3053 
L 1172 3053 
L 1172 1153 
Q 1172 725 1289 603 
Q 1406 481 1766 481 
L 2356 481 
L 2356 0 
L 1766 0 
Q 1100 0 847 248 
Q 594 497 594 1153 
L 594 3053 
L 172 3053 
L 172 3500 
L 594 3500 
L 594 4494 
L 1172 4494 
z
" transform="scale(0.015625)"/>
       <path id="DejaVuSans-61" d="M 2194 1759 
Q 1497 1759 1228 1600 
Q 959 1441 959 1056 
Q 959 750 1161 570 
Q 1363 391 1709 391 
Q 2188 391 2477 730 
Q 2766 1069 2766 1631 
L 2766 1759 
L 2194 1759 
z
M 3341 1997 
L 3341 0 
L 2766 0 
L 2766 531 
Q 2569 213 2275 61 
Q 1981 -91 1556 -91 
Q 1019 -91 701 211 
Q 384 513 384 1019 
Q 384 1609 779 1909 
Q 1175 2209 1959 2209 
L 2766 2209 
L 2766 2266 
Q 2766 2663 2505 2880 
Q 2244 3097 1772 3097 
Q 1472 3097 1187 3025 
Q 903 2953 641 2809 
L 641 3341 
Q 956 3463 1253 3523 
Q 1550 3584 1831 3584 
Q 2591 3584 2966 3190 
Q 3341 2797 3341 1997 
z
" transform="scale(0.015625)"/>
       <path id="DejaVuSans-6c" d="M 603 4863 
L 1178 4863 
L 1178 0 
L 603 0 
L 603 4863 
z
" transform="scale(0.015625)"/>
       <path id="DejaVuSans-20" transform="scale(0.015625)"/>
       <path id="DejaVuSans-66" d="M 2375 4863 
L 2375 4384 
L 1825 4384 
Q 1516 4384 1395 4259 
Q 1275 4134 1275 3809 
L 1275 3500 
L 2222 3500 
L 2222 3053 
L 1275 3053 
L 1275 0 
L 697 0 
L 697 3053 
L 147 3053 
L 147 3500 
L 697 3500 
L 697 3744 
Q 697 4328 969 4595 
Q 1241 4863 1831 4863 
L 2375 4863 
z
" transform="scale(0.015625)"/>
      </defs>
      <use xlink:href="#DejaVuSans-69"/>
      <use xlink:href="#DejaVuSans-6e" x="27.783203"/>
      <use xlink:href="#DejaVuSans-69" x="91.162109"/>
      <use xlink:href="#DejaVuSans-74" x="118.945312"/>
      <use xlink:href="#DejaVuSans-69" x="158.154297"/>
      <use xlink:href="#DejaVuSans-61" x="185.9375"/>
      <use xlink:href="#DejaVuSans-6c" x="247.216797"/>
      <use xlink:href="#DejaVuSans-20" x="275"/>
      <use xlink:href="#DejaVuSans-66" x="306.787109"/>
      <use xlink:href="#DejaVuSans-69" x="341.992188"/>
      <use xlink:href="#DejaVuSans-74" x="369.775391"/>
     </g>
    </g>
    <g id="line2d_17">
     <path d="M 299.787188 34.976562 
L 309.787188 34.976562 
L 319.787188 34.976562 
" style="fill: none; stroke: #2ca02c; stroke-width: 1.5; stroke-linecap: square"/>
    </g>
    <g id="text_14">
     <!-- best fit -->
     <g transform="translate(327.787188 38.476562) scale(0.1 -0.1)">
      <defs>
       <path id="DejaVuSans-62" d="M 3116 1747 
Q 3116 2381 2855 2742 
Q 2594 3103 2138 3103 
Q 1681 3103 1420 2742 
Q 1159 2381 1159 1747 
Q 1159 1113 1420 752 
Q 1681 391 2138 391 
Q 2594 391 2855 752 
Q 3116 1113 3116 1747 
z
M 1159 2969 
Q 1341 3281 1617 3432 
Q 1894 3584 2278 3584 
Q 2916 3584 3314 3078 
Q 3713 2572 3713 1747 
Q 3713 922 3314 415 
Q 2916 -91 2278 -91 
Q 1894 -91 1617 61 
Q 1341 213 1159 525 
L 1159 0 
L 581 0 
L 581 4863 
L 1159 4863 
L 1159 2969 
z
" transform="scale(0.015625)"/>
       <path id="DejaVuSans-65" d="M 3597 1894 
L 3597 1613 
L 953 1613 
Q 991 1019 1311 708 
Q 1631 397 2203 397 
Q 2534 397 2845 478 
Q 3156 559 3463 722 
L 3463 178 
Q 3153 47 2828 -22 
Q 2503 -91 2169 -91 
Q 1331 -91 842 396 
Q 353 884 353 1716 
Q 353 2575 817 3079 
Q 1281 3584 2069 3584 
Q 2775 3584 3186 3129 
Q 3597 2675 3597 1894 
z
M 3022 2063 
Q 3016 2534 2758 2815 
Q 2500 3097 2075 3097 
Q 1594 3097 1305 2825 
Q 1016 2553 972 2059 
L 3022 2063 
z
" transform="scale(0.015625)"/>
       <path id="DejaVuSans-73" d="M 2834 3397 
L 2834 2853 
Q 2591 2978 2328 3040 
Q 2066 3103 1784 3103 
Q 1356 3103 1142 2972 
Q 928 2841 928 2578 
Q 928 2378 1081 2264 
Q 1234 2150 1697 2047 
L 1894 2003 
Q 2506 1872 2764 1633 
Q 3022 1394 3022 966 
Q 3022 478 2636 193 
Q 2250 -91 1575 -91 
Q 1294 -91 989 -36 
Q 684 19 347 128 
L 347 722 
Q 666 556 975 473 
Q 1284 391 1588 391 
Q 1994 391 2212 530 
Q 2431 669 2431 922 
Q 2431 1156 2273 1281 
Q 2116 1406 1581 1522 
L 1381 1569 
Q 847 1681 609 1914 
Q 372 2147 372 2553 
Q 372 3047 722 3315 
Q 1072 3584 1716 3584 
Q 2034 3584 2315 3537 
Q 2597 3491 2834 3397 
z
" transform="scale(0.015625)"/>
      </defs>
      <use xlink:href="#DejaVuSans-62"/>
      <use xlink:href="#DejaVuSans-65" x="63.476562"/>
      <use xlink:href="#DejaVuSans-73" x="125"/>
      <use xlink:href="#DejaVuSans-74" x="177.099609"/>
      <use xlink:href="#DejaVuSans-20" x="216.308594"/>
      <use xlink:href="#DejaVuSans-66" x="248.095703"/>
      <use xlink:href="#DejaVuSans-69" x="283.300781"/>
      <use xlink:href="#DejaVuSans-74" x="311.083984"/>
     </g>
    </g>
   </g>
  </g>
 </g>
 <defs>
  <clipPath id="pe869fb4597">
   <rect x="20.5625" y="7.2" width="357.12" height="266.112"/>
  </clipPath>
 </defs>
</svg>
