<?xml version="1.0" encoding="utf-8" standalone="no"?>
<!DOCTYPE svg PUBLIC "-//W3C//DTD SVG 1.1//EN"
  "http://www.w3.org/Graphics/SVG/1.1/DTD/svg11.dtd">
<svg xmlns:xlink="http://www.w3.org/1999/xlink" width="750.382187pt" height="292.006125pt" viewBox="0 0 750.382187 292.006125" xmlns="http://www.w3.org/2000/svg" version="1.1">
 <metadata>
  <rdf:RDF xmlns:dc="http://purl.org/dc/elements/1.1/" xmlns:cc="http://creativecommons.org/ns#" xmlns:rdf="http://www.w3.org/1999/02/22-rdf-syntax-ns#">
   <cc:Work>
    <dc:type rdf:resource="http://purl.org/dc/dcmitype/StillImage"/>
    <dc:date>2022-10-26T21:53:32.492764</dc:date>
    <dc:format>image/svg+xml</dc:format>
    <dc:creator>
     <cc:Agent>
      <dc:title>Matplotlib v3.5.3, https://matplotlib.org/</dc:title>
     </cc:Agent>
    </dc:creator>
   </cc:Work>
  </rdf:RDF>
 </metadata>
 <defs>
  <style type="text/css">*{stroke-linejoin: round; stroke-linecap: butt}</style>
 </defs>
 <g id="figure_1">
  <g id="patch_1">
   <path d="M 0 292.006125 
L 750.382187 292.006125 
L 750.382187 0 
L 0 0 
L 0 292.006125 
z
" style="fill: none"/>
  </g>
  <g id="axes_1">
   <g id="patch_2">
    <path d="M 28.942188 268.128 
L 353.596733 268.128 
L 353.596733 7.2 
L 28.942188 7.2 
z
" style="fill: #ffffff"/>
   </g>
   <g id="matplotlib.axis_1">
    <g id="xtick_1">
     <g id="line2d_1">
      <defs>
       <path id="m7a7e7d25a8" d="M 0 0 
L 0 3.5 
" style="stroke: #000000; stroke-width: 0.8"/>
      </defs>
      <g>
       <use xlink:href="#m7a7e7d25a8" x="43.699212" y="268.128" style="stroke: #000000; stroke-width: 0.8"/>
      </g>
     </g>
     <g id="text_1">
      <!-- 0 -->
      <g transform="translate(40.517962 282.726437)scale(0.1 -0.1)">
       <defs>
        <path id="DejaVuSans-30" d="M 2034 4250 
Q 1547 4250 1301 3770 
Q 1056 3291 1056 2328 
Q 1056 1369 1301 889 
Q 1547 409 2034 409 
Q 2525 409 2770 889 
Q 3016 1369 3016 2328 
Q 3016 3291 2770 3770 
Q 2525 4250 2034 4250 
z
M 2034 4750 
Q 2819 4750 3233 4129 
Q 3647 3509 3647 2328 
Q 3647 1150 3233 529 
Q 2819 -91 2034 -91 
Q 1250 -91 836 529 
Q 422 1150 422 2328 
Q 422 3509 836 4129 
Q 1250 4750 2034 4750 
z
" transform="scale(0.015625)"/>
       </defs>
       <use xlink:href="#DejaVuSans-30"/>
      </g>
     </g>
    </g>
    <g id="xtick_2">
     <g id="line2d_2">
      <g>
       <use xlink:href="#m7a7e7d25a8" x="102.727311" y="268.128" style="stroke: #000000; stroke-width: 0.8"/>
      </g>
     </g>
     <g id="text_2">
      <!-- 2 -->
      <g transform="translate(99.546061 282.726437)scale(0.1 -0.1)">
       <defs>
        <path id="DejaVuSans-32" d="M 1228 531 
L 3431 531 
L 3431 0 
L 469 0 
L 469 531 
Q 828 903 1448 1529 
Q 2069 2156 2228 2338 
Q 2531 2678 2651 2914 
Q 2772 3150 2772 3378 
Q 2772 3750 2511 3984 
Q 2250 4219 1831 4219 
Q 1534 4219 1204 4116 
Q 875 4013 500 3803 
L 500 4441 
Q 881 4594 1212 4672 
Q 1544 4750 1819 4750 
Q 2544 4750 2975 4387 
Q 3406 4025 3406 3419 
Q 3406 3131 3298 2873 
Q 3191 2616 2906 2266 
Q 2828 2175 2409 1742 
Q 1991 1309 1228 531 
z
" transform="scale(0.015625)"/>
       </defs>
       <use xlink:href="#DejaVuSans-32"/>
      </g>
     </g>
    </g>
    <g id="xtick_3">
     <g id="line2d_3">
      <g>
       <use xlink:href="#m7a7e7d25a8" x="161.755411" y="268.128" style="stroke: #000000; stroke-width: 0.8"/>
      </g>
     </g>
     <g id="text_3">
      <!-- 4 -->
      <g transform="translate(158.574161 282.726437)scale(0.1 -0.1)">
       <defs>
        <path id="DejaVuSans-34" d="M 2419 4116 
L 825 1625 
L 2419 1625 
L 2419 4116 
z
M 2253 4666 
L 3047 4666 
L 3047 1625 
L 3713 1625 
L 3713 1100 
L 3047 1100 
L 3047 0 
L 2419 0 
L 2419 1100 
L 313 1100 
L 313 1709 
L 2253 4666 
z
" transform="scale(0.015625)"/>
       </defs>
       <use xlink:href="#DejaVuSans-34"/>
      </g>
     </g>
    </g>
    <g id="xtick_4">
     <g id="line2d_4">
      <g>
       <use xlink:href="#m7a7e7d25a8" x="220.78351" y="268.128" style="stroke: #000000; stroke-width: 0.8"/>
      </g>
     </g>
     <g id="text_4">
      <!-- 6 -->
      <g transform="translate(217.60226 282.726437)scale(0.1 -0.1)">
       <defs>
        <path id="DejaVuSans-36" d="M 2113 2584 
Q 1688 2584 1439 2293 
Q 1191 2003 1191 1497 
Q 1191 994 1439 701 
Q 1688 409 2113 409 
Q 2538 409 2786 701 
Q 3034 994 3034 1497 
Q 3034 2003 2786 2293 
Q 2538 2584 2113 2584 
z
M 3366 4563 
L 3366 3988 
Q 3128 4100 2886 4159 
Q 2644 4219 2406 4219 
Q 1781 4219 1451 3797 
Q 1122 3375 1075 2522 
Q 1259 2794 1537 2939 
Q 1816 3084 2150 3084 
Q 2853 3084 3261 2657 
Q 3669 2231 3669 1497 
Q 3669 778 3244 343 
Q 2819 -91 2113 -91 
Q 1303 -91 875 529 
Q 447 1150 447 2328 
Q 447 3434 972 4092 
Q 1497 4750 2381 4750 
Q 2619 4750 2861 4703 
Q 3103 4656 3366 4563 
z
" transform="scale(0.015625)"/>
       </defs>
       <use xlink:href="#DejaVuSans-36"/>
      </g>
     </g>
    </g>
    <g id="xtick_5">
     <g id="line2d_5">
      <g>
       <use xlink:href="#m7a7e7d25a8" x="279.811609" y="268.128" style="stroke: #000000; stroke-width: 0.8"/>
      </g>
     </g>
     <g id="text_5">
      <!-- 8 -->
      <g transform="translate(276.630359 282.726437)scale(0.1 -0.1)">
       <defs>
        <path id="DejaVuSans-38" d="M 2034 2216 
Q 1584 2216 1326 1975 
Q 1069 1734 1069 1313 
Q 1069 891 1326 650 
Q 1584 409 2034 409 
Q 2484 409 2743 651 
Q 3003 894 3003 1313 
Q 3003 1734 2745 1975 
Q 2488 2216 2034 2216 
z
M 1403 2484 
Q 997 2584 770 2862 
Q 544 3141 544 3541 
Q 544 4100 942 4425 
Q 1341 4750 2034 4750 
Q 2731 4750 3128 4425 
Q 3525 4100 3525 3541 
Q 3525 3141 3298 2862 
Q 3072 2584 2669 2484 
Q 3125 2378 3379 2068 
Q 3634 1759 3634 1313 
Q 3634 634 3220 271 
Q 2806 -91 2034 -91 
Q 1263 -91 848 271 
Q 434 634 434 1313 
Q 434 1759 690 2068 
Q 947 2378 1403 2484 
z
M 1172 3481 
Q 1172 3119 1398 2916 
Q 1625 2713 2034 2713 
Q 2441 2713 2670 2916 
Q 2900 3119 2900 3481 
Q 2900 3844 2670 4047 
Q 2441 4250 2034 4250 
Q 1625 4250 1398 4047 
Q 1172 3844 1172 3481 
z
" transform="scale(0.015625)"/>
       </defs>
       <use xlink:href="#DejaVuSans-38"/>
      </g>
     </g>
    </g>
    <g id="xtick_6">
     <g id="line2d_6">
      <g>
       <use xlink:href="#m7a7e7d25a8" x="338.839708" y="268.128" style="stroke: #000000; stroke-width: 0.8"/>
      </g>
     </g>
     <g id="text_6">
      <!-- 10 -->
      <g transform="translate(332.477208 282.726437)scale(0.1 -0.1)">
       <defs>
        <path id="DejaVuSans-31" d="M 794 531 
L 1825 531 
L 1825 4091 
L 703 3866 
L 703 4441 
L 1819 4666 
L 2450 4666 
L 2450 531 
L 3481 531 
L 3481 0 
L 794 0 
L 794 531 
z
" transform="scale(0.015625)"/>
       </defs>
       <use xlink:href="#DejaVuSans-31"/>
       <use xlink:href="#DejaVuSans-30" x="63.623047"/>
      </g>
     </g>
    </g>
   </g>
   <g id="matplotlib.axis_2">
    <g id="ytick_1">
     <g id="line2d_7">
      <defs>
       <path id="m3e089e4346" d="M 0 0 
L -3.5 0 
" style="stroke: #000000; stroke-width: 0.8"/>
      </defs>
      <g>
       <use xlink:href="#m3e089e4346" x="28.942188" y="245.670698" style="stroke: #000000; stroke-width: 0.8"/>
      </g>
     </g>
     <g id="text_7">
      <!-- −1 -->
      <g transform="translate(7.2 249.469917)scale(0.1 -0.1)">
       <defs>
        <path id="DejaVuSans-2212" d="M 678 2272 
L 4684 2272 
L 4684 1741 
L 678 1741 
L 678 2272 
z
" transform="scale(0.015625)"/>
       </defs>
       <use xlink:href="#DejaVuSans-2212"/>
       <use xlink:href="#DejaVuSans-31" x="83.789062"/>
      </g>
     </g>
    </g>
    <g id="ytick_2">
     <g id="line2d_8">
      <g>
       <use xlink:href="#m3e089e4346" x="28.942188" y="210.948952" style="stroke: #000000; stroke-width: 0.8"/>
      </g>
     </g>
     <g id="text_8">
      <!-- 0 -->
      <g transform="translate(15.579688 214.74817)scale(0.1 -0.1)">
       <use xlink:href="#DejaVuSans-30"/>
      </g>
     </g>
    </g>
    <g id="ytick_3">
     <g id="line2d_9">
      <g>
       <use xlink:href="#m3e089e4346" x="28.942188" y="176.227205" style="stroke: #000000; stroke-width: 0.8"/>
      </g>
     </g>
     <g id="text_9">
      <!-- 1 -->
      <g transform="translate(15.579688 180.026424)scale(0.1 -0.1)">
       <use xlink:href="#DejaVuSans-31"/>
      </g>
     </g>
    </g>
    <g id="ytick_4">
     <g id="line2d_10">
      <g>
       <use xlink:href="#m3e089e4346" x="28.942188" y="141.505458" style="stroke: #000000; stroke-width: 0.8"/>
      </g>
     </g>
     <g id="text_10">
      <!-- 2 -->
      <g transform="translate(15.579688 145.304677)scale(0.1 -0.1)">
       <use xlink:href="#DejaVuSans-32"/>
      </g>
     </g>
    </g>
    <g id="ytick_5">
     <g id="line2d_11">
      <g>
       <use xlink:href="#m3e089e4346" x="28.942188" y="106.783712" style="stroke: #000000; stroke-width: 0.8"/>
      </g>
     </g>
     <g id="text_11">
      <!-- 3 -->
      <g transform="translate(15.579688 110.582931)scale(0.1 -0.1)">
       <defs>
        <path id="DejaVuSans-33" d="M 2597 2516 
Q 3050 2419 3304 2112 
Q 3559 1806 3559 1356 
Q 3559 666 3084 287 
Q 2609 -91 1734 -91 
Q 1441 -91 1130 -33 
Q 819 25 488 141 
L 488 750 
Q 750 597 1062 519 
Q 1375 441 1716 441 
Q 2309 441 2620 675 
Q 2931 909 2931 1356 
Q 2931 1769 2642 2001 
Q 2353 2234 1838 2234 
L 1294 2234 
L 1294 2753 
L 1863 2753 
Q 2328 2753 2575 2939 
Q 2822 3125 2822 3475 
Q 2822 3834 2567 4026 
Q 2313 4219 1838 4219 
Q 1578 4219 1281 4162 
Q 984 4106 628 3988 
L 628 4550 
Q 988 4650 1302 4700 
Q 1616 4750 1894 4750 
Q 2613 4750 3031 4423 
Q 3450 4097 3450 3541 
Q 3450 3153 3228 2886 
Q 3006 2619 2597 2516 
z
" transform="scale(0.015625)"/>
       </defs>
       <use xlink:href="#DejaVuSans-33"/>
      </g>
     </g>
    </g>
    <g id="ytick_6">
     <g id="line2d_12">
      <g>
       <use xlink:href="#m3e089e4346" x="28.942188" y="72.061965" style="stroke: #000000; stroke-width: 0.8"/>
      </g>
     </g>
     <g id="text_12">
      <!-- 4 -->
      <g transform="translate(15.579688 75.861184)scale(0.1 -0.1)">
       <use xlink:href="#DejaVuSans-34"/>
      </g>
     </g>
    </g>
    <g id="ytick_7">
     <g id="line2d_13">
      <g>
       <use xlink:href="#m3e089e4346" x="28.942188" y="37.340219" style="stroke: #000000; stroke-width: 0.8"/>
      </g>
     </g>
     <g id="text_13">
      <!-- 5 -->
      <g transform="translate(15.579688 41.139437)scale(0.1 -0.1)">
       <defs>
        <path id="DejaVuSans-35" d="M 691 4666 
L 3169 4666 
L 3169 4134 
L 1269 4134 
L 1269 2991 
Q 1406 3038 1543 3061 
Q 1681 3084 1819 3084 
Q 2600 3084 3056 2656 
Q 3513 2228 3513 1497 
Q 3513 744 3044 326 
Q 2575 -91 1722 -91 
Q 1428 -91 1123 -41 
Q 819 9 494 109 
L 494 744 
Q 775 591 1075 516 
Q 1375 441 1709 441 
Q 2250 441 2565 725 
Q 2881 1009 2881 1497 
Q 2881 1984 2565 2268 
Q 2250 2553 1709 2553 
Q 1456 2553 1204 2497 
Q 953 2441 691 2322 
L 691 4666 
z
" transform="scale(0.015625)"/>
       </defs>
       <use xlink:href="#DejaVuSans-35"/>
      </g>
     </g>
    </g>
   </g>
   <g id="line2d_14">
    <defs>
     <path id="m5c2ac87f6d" d="M 0 3 
C 0.795609 3 1.55874 2.683901 2.12132 2.12132 
C 2.683901 1.55874 3 0.795609 3 0 
C 3 -0.795609 2.683901 -1.55874 2.12132 -2.12132 
C 1.55874 -2.683901 0.795609 -3 0 -3 
C -0.795609 -3 -1.55874 -2.683901 -2.12132 -2.12132 
C -2.683901 -1.55874 -3 -0.795609 -3 0 
C -3 0.795609 -2.683901 1.55874 -2.12132 2.12132 
C -1.55874 2.683901 -0.795609 3 0 3 
z
" style="stroke: #1f77b4"/>
    </defs>
    <g clip-path="url(#p07a98e8dad)">
     <use xlink:href="#m5c2ac87f6d" x="43.699212" y="256.267636" style="fill: #1f77b4; stroke: #1f77b4"/>
     <use xlink:href="#m5c2ac87f6d" x="46.650617" y="244.631407" style="fill: #1f77b4; stroke: #1f77b4"/>
     <use xlink:href="#m5c2ac87f6d" x="49.602022" y="237.249459" style="fill: #1f77b4; stroke: #1f77b4"/>
     <use xlink:href="#m5c2ac87f6d" x="52.553427" y="239.572205" style="fill: #1f77b4; stroke: #1f77b4"/>
     <use xlink:href="#m5c2ac87f6d" x="55.504832" y="233.691973" style="fill: #1f77b4; stroke: #1f77b4"/>
     <use xlink:href="#m5c2ac87f6d" x="58.456237" y="241.3685" style="fill: #1f77b4; stroke: #1f77b4"/>
     <use xlink:href="#m5c2ac87f6d" x="61.407642" y="241.059303" style="fill: #1f77b4; stroke: #1f77b4"/>
     <use xlink:href="#m5c2ac87f6d" x="64.359047" y="244.397452" style="fill: #1f77b4; stroke: #1f77b4"/>
     <use xlink:href="#m5c2ac87f6d" x="67.310452" y="241.00222" style="fill: #1f77b4; stroke: #1f77b4"/>
     <use xlink:href="#m5c2ac87f6d" x="70.261857" y="232.646953" style="fill: #1f77b4; stroke: #1f77b4"/>
     <use xlink:href="#m5c2ac87f6d" x="73.213262" y="236.227043" style="fill: #1f77b4; stroke: #1f77b4"/>
     <use xlink:href="#m5c2ac87f6d" x="76.164667" y="228.080314" style="fill: #1f77b4; stroke: #1f77b4"/>
     <use xlink:href="#m5c2ac87f6d" x="79.116072" y="228.791693" style="fill: #1f77b4; stroke: #1f77b4"/>
     <use xlink:href="#m5c2ac87f6d" x="82.067477" y="226.601932" style="fill: #1f77b4; stroke: #1f77b4"/>
     <use xlink:href="#m5c2ac87f6d" x="85.018882" y="221.160478" style="fill: #1f77b4; stroke: #1f77b4"/>
     <use xlink:href="#m5c2ac87f6d" x="87.970287" y="235.071781" style="fill: #1f77b4; stroke: #1f77b4"/>
     <use xlink:href="#m5c2ac87f6d" x="90.921692" y="229.617376" style="fill: #1f77b4; stroke: #1f77b4"/>
     <use xlink:href="#m5c2ac87f6d" x="93.873097" y="231.80252" style="fill: #1f77b4; stroke: #1f77b4"/>
     <use xlink:href="#m5c2ac87f6d" x="96.824502" y="228.237604" style="fill: #1f77b4; stroke: #1f77b4"/>
     <use xlink:href="#m5c2ac87f6d" x="99.775907" y="240.605004" style="fill: #1f77b4; stroke: #1f77b4"/>
     <use xlink:href="#m5c2ac87f6d" x="102.727311" y="228.731069" style="fill: #1f77b4; stroke: #1f77b4"/>
     <use xlink:href="#m5c2ac87f6d" x="105.678716" y="220.308615" style="fill: #1f77b4; stroke: #1f77b4"/>
     <use xlink:href="#m5c2ac87f6d" x="108.630121" y="222.473342" style="fill: #1f77b4; stroke: #1f77b4"/>
     <use xlink:href="#m5c2ac87f6d" x="111.581526" y="225.073619" style="fill: #1f77b4; stroke: #1f77b4"/>
     <use xlink:href="#m5c2ac87f6d" x="114.532931" y="228.774194" style="fill: #1f77b4; stroke: #1f77b4"/>
     <use xlink:href="#m5c2ac87f6d" x="117.484336" y="226.964878" style="fill: #1f77b4; stroke: #1f77b4"/>
     <use xlink:href="#m5c2ac87f6d" x="120.435741" y="225.696909" style="fill: #1f77b4; stroke: #1f77b4"/>
     <use xlink:href="#m5c2ac87f6d" x="123.387146" y="216.010896" style="fill: #1f77b4; stroke: #1f77b4"/>
     <use xlink:href="#m5c2ac87f6d" x="126.338551" y="215.518403" style="fill: #1f77b4; stroke: #1f77b4"/>
     <use xlink:href="#m5c2ac87f6d" x="129.289956" y="218.13795" style="fill: #1f77b4; stroke: #1f77b4"/>
     <use xlink:href="#m5c2ac87f6d" x="132.241361" y="216.972966" style="fill: #1f77b4; stroke: #1f77b4"/>
     <use xlink:href="#m5c2ac87f6d" x="135.192766" y="203.700162" style="fill: #1f77b4; stroke: #1f77b4"/>
     <use xlink:href="#m5c2ac87f6d" x="138.144171" y="217.23022" style="fill: #1f77b4; stroke: #1f77b4"/>
     <use xlink:href="#m5c2ac87f6d" x="141.095576" y="208.692976" style="fill: #1f77b4; stroke: #1f77b4"/>
     <use xlink:href="#m5c2ac87f6d" x="144.046981" y="215.927807" style="fill: #1f77b4; stroke: #1f77b4"/>
     <use xlink:href="#m5c2ac87f6d" x="146.998386" y="219.496543" style="fill: #1f77b4; stroke: #1f77b4"/>
     <use xlink:href="#m5c2ac87f6d" x="149.949791" y="208.776169" style="fill: #1f77b4; stroke: #1f77b4"/>
     <use xlink:href="#m5c2ac87f6d" x="152.901196" y="212.093728" style="fill: #1f77b4; stroke: #1f77b4"/>
     <use xlink:href="#m5c2ac87f6d" x="155.852601" y="202.660246" style="fill: #1f77b4; stroke: #1f77b4"/>
     <use xlink:href="#m5c2ac87f6d" x="158.804006" y="207.044838" style="fill: #1f77b4; stroke: #1f77b4"/>
     <use xlink:href="#m5c2ac87f6d" x="161.755411" y="190.353643" style="fill: #1f77b4; stroke: #1f77b4"/>
     <use xlink:href="#m5c2ac87f6d" x="164.706816" y="193.400129" style="fill: #1f77b4; stroke: #1f77b4"/>
     <use xlink:href="#m5c2ac87f6d" x="167.658221" y="177.903745" style="fill: #1f77b4; stroke: #1f77b4"/>
     <use xlink:href="#m5c2ac87f6d" x="170.609626" y="178.196588" style="fill: #1f77b4; stroke: #1f77b4"/>
     <use xlink:href="#m5c2ac87f6d" x="173.56103" y="162.281354" style="fill: #1f77b4; stroke: #1f77b4"/>
     <use xlink:href="#m5c2ac87f6d" x="176.512435" y="168.6571" style="fill: #1f77b4; stroke: #1f77b4"/>
     <use xlink:href="#m5c2ac87f6d" x="179.46384" y="152.55496" style="fill: #1f77b4; stroke: #1f77b4"/>
     <use xlink:href="#m5c2ac87f6d" x="182.415245" y="143.32842" style="fill: #1f77b4; stroke: #1f77b4"/>
     <use xlink:href="#m5c2ac87f6d" x="185.36665" y="122.52242" style="fill: #1f77b4; stroke: #1f77b4"/>
     <use xlink:href="#m5c2ac87f6d" x="188.318055" y="108.81167" style="fill: #1f77b4; stroke: #1f77b4"/>
     <use xlink:href="#m5c2ac87f6d" x="191.26946" y="86.539475" style="fill: #1f77b4; stroke: #1f77b4"/>
     <use xlink:href="#m5c2ac87f6d" x="194.220865" y="73.329205" style="fill: #1f77b4; stroke: #1f77b4"/>
     <use xlink:href="#m5c2ac87f6d" x="197.17227" y="67.833725" style="fill: #1f77b4; stroke: #1f77b4"/>
     <use xlink:href="#m5c2ac87f6d" x="200.123675" y="40.507397" style="fill: #1f77b4; stroke: #1f77b4"/>
     <use xlink:href="#m5c2ac87f6d" x="203.07508" y="31.935293" style="fill: #1f77b4; stroke: #1f77b4"/>
     <use xlink:href="#m5c2ac87f6d" x="206.026485" y="19.952887" style="fill: #1f77b4; stroke: #1f77b4"/>
     <use xlink:href="#m5c2ac87f6d" x="208.97789" y="24.667406" style="fill: #1f77b4; stroke: #1f77b4"/>
     <use xlink:href="#m5c2ac87f6d" x="211.929295" y="22.970415" style="fill: #1f77b4; stroke: #1f77b4"/>
     <use xlink:href="#m5c2ac87f6d" x="214.8807" y="26.753697" style="fill: #1f77b4; stroke: #1f77b4"/>
     <use xlink:href="#m5c2ac87f6d" x="217.832105" y="29.939834" style="fill: #1f77b4; stroke: #1f77b4"/>
     <use xlink:href="#m5c2ac87f6d" x="220.78351" y="26.398389" style="fill: #1f77b4; stroke: #1f77b4"/>
     <use xlink:href="#m5c2ac87f6d" x="223.734915" y="51.384297" style="fill: #1f77b4; stroke: #1f77b4"/>
     <use xlink:href="#m5c2ac87f6d" x="226.68632" y="53.553851" style="fill: #1f77b4; stroke: #1f77b4"/>
     <use xlink:href="#m5c2ac87f6d" x="229.637725" y="83.101606" style="fill: #1f77b4; stroke: #1f77b4"/>
     <use xlink:href="#m5c2ac87f6d" x="232.58913" y="91.467776" style="fill: #1f77b4; stroke: #1f77b4"/>
     <use xlink:href="#m5c2ac87f6d" x="235.540535" y="98.620039" style="fill: #1f77b4; stroke: #1f77b4"/>
     <use xlink:href="#m5c2ac87f6d" x="238.49194" y="113.86424" style="fill: #1f77b4; stroke: #1f77b4"/>
     <use xlink:href="#m5c2ac87f6d" x="241.443345" y="129.061671" style="fill: #1f77b4; stroke: #1f77b4"/>
     <use xlink:href="#m5c2ac87f6d" x="244.394749" y="140.896196" style="fill: #1f77b4; stroke: #1f77b4"/>
     <use xlink:href="#m5c2ac87f6d" x="247.346154" y="158.361547" style="fill: #1f77b4; stroke: #1f77b4"/>
     <use xlink:href="#m5c2ac87f6d" x="250.297559" y="164.566531" style="fill: #1f77b4; stroke: #1f77b4"/>
     <use xlink:href="#m5c2ac87f6d" x="253.248964" y="166.863965" style="fill: #1f77b4; stroke: #1f77b4"/>
     <use xlink:href="#m5c2ac87f6d" x="256.200369" y="167.649614" style="fill: #1f77b4; stroke: #1f77b4"/>
     <use xlink:href="#m5c2ac87f6d" x="259.151774" y="166.959068" style="fill: #1f77b4; stroke: #1f77b4"/>
     <use xlink:href="#m5c2ac87f6d" x="262.103179" y="167.770828" style="fill: #1f77b4; stroke: #1f77b4"/>
     <use xlink:href="#m5c2ac87f6d" x="265.054584" y="181.744491" style="fill: #1f77b4; stroke: #1f77b4"/>
     <use xlink:href="#m5c2ac87f6d" x="268.005989" y="178.208185" style="fill: #1f77b4; stroke: #1f77b4"/>
     <use xlink:href="#m5c2ac87f6d" x="270.957394" y="182.86767" style="fill: #1f77b4; stroke: #1f77b4"/>
     <use xlink:href="#m5c2ac87f6d" x="273.908799" y="175.827349" style="fill: #1f77b4; stroke: #1f77b4"/>
     <use xlink:href="#m5c2ac87f6d" x="276.860204" y="170.719815" style="fill: #1f77b4; stroke: #1f77b4"/>
     <use xlink:href="#m5c2ac87f6d" x="279.811609" y="180.642908" style="fill: #1f77b4; stroke: #1f77b4"/>
     <use xlink:href="#m5c2ac87f6d" x="282.763014" y="162.563781" style="fill: #1f77b4; stroke: #1f77b4"/>
     <use xlink:href="#m5c2ac87f6d" x="285.714419" y="167.74187" style="fill: #1f77b4; stroke: #1f77b4"/>
     <use xlink:href="#m5c2ac87f6d" x="288.665824" y="163.151898" style="fill: #1f77b4; stroke: #1f77b4"/>
     <use xlink:href="#m5c2ac87f6d" x="291.617229" y="171.189184" style="fill: #1f77b4; stroke: #1f77b4"/>
     <use xlink:href="#m5c2ac87f6d" x="294.568634" y="168.048741" style="fill: #1f77b4; stroke: #1f77b4"/>
     <use xlink:href="#m5c2ac87f6d" x="297.520039" y="161.881429" style="fill: #1f77b4; stroke: #1f77b4"/>
     <use xlink:href="#m5c2ac87f6d" x="300.471444" y="163.528698" style="fill: #1f77b4; stroke: #1f77b4"/>
     <use xlink:href="#m5c2ac87f6d" x="303.422849" y="154.52587" style="fill: #1f77b4; stroke: #1f77b4"/>
     <use xlink:href="#m5c2ac87f6d" x="306.374254" y="159.624516" style="fill: #1f77b4; stroke: #1f77b4"/>
     <use xlink:href="#m5c2ac87f6d" x="309.325659" y="160.549677" style="fill: #1f77b4; stroke: #1f77b4"/>
     <use xlink:href="#m5c2ac87f6d" x="312.277064" y="162.085315" style="fill: #1f77b4; stroke: #1f77b4"/>
     <use xlink:href="#m5c2ac87f6d" x="315.228468" y="155.237249" style="fill: #1f77b4; stroke: #1f77b4"/>
     <use xlink:href="#m5c2ac87f6d" x="318.179873" y="160.460199" style="fill: #1f77b4; stroke: #1f77b4"/>
     <use xlink:href="#m5c2ac87f6d" x="321.131278" y="154.728506" style="fill: #1f77b4; stroke: #1f77b4"/>
     <use xlink:href="#m5c2ac87f6d" x="324.082683" y="156.630078" style="fill: #1f77b4; stroke: #1f77b4"/>
     <use xlink:href="#m5c2ac87f6d" x="327.034088" y="153.875845" style="fill: #1f77b4; stroke: #1f77b4"/>
     <use xlink:href="#m5c2ac87f6d" x="329.985493" y="147.166388" style="fill: #1f77b4; stroke: #1f77b4"/>
     <use xlink:href="#m5c2ac87f6d" x="332.936898" y="157.800999" style="fill: #1f77b4; stroke: #1f77b4"/>
     <use xlink:href="#m5c2ac87f6d" x="335.888303" y="148.183422" style="fill: #1f77b4; stroke: #1f77b4"/>
     <use xlink:href="#m5c2ac87f6d" x="338.839708" y="161.196161" style="fill: #1f77b4; stroke: #1f77b4"/>
    </g>
   </g>
   <g id="line2d_15">
    <path d="M 43.699212 176.226947 
L 46.650617 176.226782 
L 49.602022 176.226517 
L 52.553427 176.226099 
L 55.504832 176.225444 
L 58.456237 176.22443 
L 61.407642 176.222875 
L 64.359047 176.220515 
L 67.310452 176.216972 
L 70.261857 176.211708 
L 73.213262 176.203971 
L 76.164667 176.192717 
L 79.116072 176.17652 
L 82.067477 176.153459 
L 85.018882 176.120973 
L 87.970287 176.0757 
L 90.921692 176.013281 
L 93.873097 175.928152 
L 96.824502 175.813306 
L 99.775907 175.660057 
L 102.727311 175.457797 
L 105.678716 175.193793 
L 108.630121 174.853013 
L 111.581526 174.41804 
L 114.532931 173.869083 
L 117.484336 173.184139 
L 120.435741 172.339319 
L 123.387146 171.309384 
L 126.338551 170.068506 
L 129.289956 168.591269 
L 132.241361 166.853902 
L 135.192766 164.835727 
L 138.144171 162.520768 
L 141.095576 159.899464 
L 144.046981 156.970379 
L 146.998386 153.741819 
L 149.949791 150.233209 
L 152.901196 146.476121 
L 155.852601 142.51481 
L 158.804006 138.406165 
L 161.755411 134.218974 
L 164.706816 130.032482 
L 167.658221 125.934222 
L 170.609626 122.017195 
L 173.56103 118.376504 
L 176.512435 115.10559 
L 179.46384 112.292293 
L 182.415245 110.01495 
L 185.36665 108.338778 
L 188.318055 107.312776 
L 191.26946 106.967341 
L 194.220865 107.312776 
L 197.17227 108.338778 
L 200.123675 110.01495 
L 203.07508 112.292293 
L 206.026485 115.10559 
L 208.97789 118.376504 
L 211.929295 122.017195 
L 214.8807 125.934222 
L 217.832105 130.032482 
L 220.78351 134.218974 
L 223.734915 138.406165 
L 226.68632 142.51481 
L 229.637725 146.476121 
L 232.58913 150.233209 
L 235.540535 153.741819 
L 238.49194 156.970379 
L 241.443345 159.899464 
L 244.394749 162.520768 
L 247.346154 164.835727 
L 250.297559 166.853902 
L 253.248964 168.591269 
L 256.200369 170.068506 
L 259.151774 171.309384 
L 262.103179 172.339319 
L 265.054584 173.184139 
L 268.005989 173.869083 
L 270.957394 174.41804 
L 273.908799 174.853013 
L 276.860204 175.193793 
L 279.811609 175.457797 
L 282.763014 175.660057 
L 285.714419 175.813306 
L 288.665824 175.928152 
L 291.617229 176.013281 
L 294.568634 176.0757 
L 297.520039 176.120973 
L 300.471444 176.153459 
L 303.422849 176.17652 
L 306.374254 176.192717 
L 309.325659 176.203971 
L 312.277064 176.211708 
L 315.228468 176.216972 
L 318.179873 176.220515 
L 321.131278 176.222875 
L 324.082683 176.22443 
L 327.034088 176.225444 
L 329.985493 176.226099 
L 332.936898 176.226517 
L 335.888303 176.226782 
L 338.839708 176.226947 
" clip-path="url(#p07a98e8dad)" style="fill: none; stroke-dasharray: 5.55,2.4; stroke-dashoffset: 0; stroke: #ff7f0e; stroke-width: 1.5"/>
   </g>
   <g id="line2d_16">
    <path d="M 43.699212 244.580505 
L 46.650617 243.660921 
L 49.602022 242.741336 
L 52.553427 241.821751 
L 55.504832 240.902166 
L 58.456237 239.982582 
L 61.407642 239.062997 
L 64.359047 238.143412 
L 67.310452 237.223827 
L 70.261857 236.304243 
L 73.213262 235.384658 
L 76.164667 234.465073 
L 79.116072 233.545488 
L 82.067477 232.625903 
L 85.018882 231.706318 
L 87.970287 230.786733 
L 90.921692 229.867147 
L 93.873097 228.947558 
L 96.824502 228.027965 
L 99.775907 227.108361 
L 102.727311 226.188734 
L 105.678716 225.269059 
L 108.630121 224.349281 
L 111.581526 223.429297 
L 114.532931 222.508904 
L 117.484336 221.587723 
L 120.435741 220.665053 
L 123.387146 219.739642 
L 126.338551 218.809304 
L 129.289956 217.870327 
L 132.241361 216.916569 
L 135.192766 215.938148 
L 138.144171 214.919602 
L 141.095576 213.837431 
L 144.046981 212.656957 
L 146.998386 211.328578 
L 149.949791 209.78359 
L 152.901196 207.930038 
L 155.852601 205.649256 
L 158.804006 202.794094 
L 161.755411 199.190007 
L 164.706816 194.640311 
L 167.658221 188.936784 
L 170.609626 181.876328 
L 173.56103 173.283691 
L 176.512435 163.039106 
L 179.46384 151.108465 
L 182.415245 137.572374 
L 185.36665 122.649487 
L 188.318055 106.709186 
L 191.26946 90.269192 
L 194.220865 73.975171 
L 197.17227 58.561773 
L 200.123675 44.797438 
L 203.07508 33.418261 
L 206.026485 25.058636 
L 208.97789 20.187694 
L 211.929295 19.060364 
L 214.8807 21.690155 
L 217.832105 27.84771 
L 220.78351 37.085322 
L 223.734915 48.783797 
L 226.68632 62.214824 
L 229.637725 76.610152 
L 232.58913 91.228483 
L 235.540535 105.412174 
L 238.49194 118.628152 
L 241.443345 130.490357 
L 244.394749 140.763999 
L 247.346154 149.354334 
L 250.297559 156.284255 
L 253.248964 161.665631 
L 256.200369 165.669054 
L 259.151774 168.49578 
L 262.103179 170.354398 
L 265.054584 171.443477 
L 268.005989 171.940331 
L 270.957394 171.995232 
L 273.908799 171.729918 
L 276.860204 171.239126 
L 279.811609 170.593909 
L 282.763014 169.845755 
L 285.714419 169.030784 
L 288.665824 168.173556 
L 291.617229 167.290282 
L 294.568634 166.391355 
L 297.520039 165.483254 
L 300.471444 164.569907 
L 303.422849 163.653634 
L 306.374254 162.735768 
L 309.325659 161.817054 
L 312.277064 160.897901 
L 315.228468 159.978526 
L 318.179873 159.05904 
L 321.131278 158.139501 
L 324.082683 157.219937 
L 327.034088 156.300362 
L 329.985493 155.380781 
L 332.936898 154.461198 
L 335.888303 153.541614 
L 338.839708 152.622029 
" clip-path="url(#p07a98e8dad)" style="fill: none; stroke: #2ca02c; stroke-width: 1.5; stroke-linecap: square"/>
   </g>
   <g id="patch_3">
    <path d="M 28.942188 268.128 
L 28.942188 7.2 
" style="fill: none; stroke: #000000; stroke-width: 0.8; stroke-linejoin: miter; stroke-linecap: square"/>
   </g>
   <g id="patch_4">
    <path d="M 353.596733 268.128 
L 353.596733 7.2 
" style="fill: none; stroke: #000000; stroke-width: 0.8; stroke-linejoin: miter; stroke-linecap: square"/>
   </g>
   <g id="patch_5">
    <path d="M 28.942188 268.128 
L 353.596733 268.128 
" style="fill: none; stroke: #000000; stroke-width: 0.8; stroke-linejoin: miter; stroke-linecap: square"/>
   </g>
   <g id="patch_6">
    <path d="M 28.942188 7.2 
L 353.596733 7.2 
" style="fill: none; stroke: #000000; stroke-width: 0.8; stroke-linejoin: miter; stroke-linecap: square"/>
   </g>
   <g id="legend_1">
    <g id="patch_7">
     <path d="M 273.70142 44.55625 
L 346.596733 44.55625 
Q 348.596733 44.55625 348.596733 42.55625 
L 348.596733 14.2 
Q 348.596733 12.2 346.596733 12.2 
L 273.70142 12.2 
Q 271.70142 12.2 271.70142 14.2 
L 271.70142 42.55625 
Q 271.70142 44.55625 273.70142 44.55625 
z
" style="fill: #ffffff; opacity: 0.8; stroke: #cccccc; stroke-linejoin: miter"/>
    </g>
    <g id="line2d_17">
     <path d="M 275.70142 20.298437 
L 285.70142 20.298437 
L 295.70142 20.298437 
" style="fill: none; stroke-dasharray: 5.55,2.4; stroke-dashoffset: 0; stroke: #ff7f0e; stroke-width: 1.5"/>
    </g>
    <g id="text_14">
     <!-- initial fit -->
     <g transform="translate(303.70142 23.798437)scale(0.1 -0.1)">
      <defs>
       <path id="DejaVuSans-69" d="M 603 3500 
L 1178 3500 
L 1178 0 
L 603 0 
L 603 3500 
z
M 603 4863 
L 1178 4863 
L 1178 4134 
L 603 4134 
L 603 4863 
z
" transform="scale(0.015625)"/>
       <path id="DejaVuSans-6e" d="M 3513 2113 
L 3513 0 
L 2938 0 
L 2938 2094 
Q 2938 2591 2744 2837 
Q 2550 3084 2163 3084 
Q 1697 3084 1428 2787 
Q 1159 2491 1159 1978 
L 1159 0 
L 581 0 
L 581 3500 
L 1159 3500 
L 1159 2956 
Q 1366 3272 1645 3428 
Q 1925 3584 2291 3584 
Q 2894 3584 3203 3211 
Q 3513 2838 3513 2113 
z
" transform="scale(0.015625)"/>
       <path id="DejaVuSans-74" d="M 1172 4494 
L 1172 3500 
L 2356 3500 
L 2356 3053 
L 1172 3053 
L 1172 1153 
Q 1172 725 1289 603 
Q 1406 481 1766 481 
L 2356 481 
L 2356 0 
L 1766 0 
Q 1100 0 847 248 
Q 594 497 594 1153 
L 594 3053 
L 172 3053 
L 172 3500 
L 594 3500 
L 594 4494 
L 1172 4494 
z
" transform="scale(0.015625)"/>
       <path id="DejaVuSans-61" d="M 2194 1759 
Q 1497 1759 1228 1600 
Q 959 1441 959 1056 
Q 959 750 1161 570 
Q 1363 391 1709 391 
Q 2188 391 2477 730 
Q 2766 1069 2766 1631 
L 2766 1759 
L 2194 1759 
z
M 3341 1997 
L 3341 0 
L 2766 0 
L 2766 531 
Q 2569 213 2275 61 
Q 1981 -91 1556 -91 
Q 1019 -91 701 211 
Q 384 513 384 1019 
Q 384 1609 779 1909 
Q 1175 2209 1959 2209 
L 2766 2209 
L 2766 2266 
Q 2766 2663 2505 2880 
Q 2244 3097 1772 3097 
Q 1472 3097 1187 3025 
Q 903 2953 641 2809 
L 641 3341 
Q 956 3463 1253 3523 
Q 1550 3584 1831 3584 
Q 2591 3584 2966 3190 
Q 3341 2797 3341 1997 
z
" transform="scale(0.015625)"/>
       <path id="DejaVuSans-6c" d="M 603 4863 
L 1178 4863 
L 1178 0 
L 603 0 
L 603 4863 
z
" transform="scale(0.015625)"/>
       <path id="DejaVuSans-20" transform="scale(0.015625)"/>
       <path id="DejaVuSans-66" d="M 2375 4863 
L 2375 4384 
L 1825 4384 
Q 1516 4384 1395 4259 
Q 1275 4134 1275 3809 
L 1275 3500 
L 2222 3500 
L 2222 3053 
L 1275 3053 
L 1275 0 
L 697 0 
L 697 3053 
L 147 3053 
L 147 3500 
L 697 3500 
L 697 3744 
Q 697 4328 969 4595 
Q 1241 4863 1831 4863 
L 2375 4863 
z
" transform="scale(0.015625)"/>
      </defs>
      <use xlink:href="#DejaVuSans-69"/>
      <use xlink:href="#DejaVuSans-6e" x="27.783203"/>
      <use xlink:href="#DejaVuSans-69" x="91.162109"/>
      <use xlink:href="#DejaVuSans-74" x="118.945312"/>
      <use xlink:href="#DejaVuSans-69" x="158.154297"/>
      <use xlink:href="#DejaVuSans-61" x="185.9375"/>
      <use xlink:href="#DejaVuSans-6c" x="247.216797"/>
      <use xlink:href="#DejaVuSans-20" x="275"/>
      <use xlink:href="#DejaVuSans-66" x="306.787109"/>
      <use xlink:href="#DejaVuSans-69" x="341.992188"/>
      <use xlink:href="#DejaVuSans-74" x="369.775391"/>
     </g>
    </g>
    <g id="line2d_18">
     <path d="M 275.70142 34.976562 
L 285.70142 34.976562 
L 295.70142 34.976562 
" style="fill: none; stroke: #2ca02c; stroke-width: 1.5; stroke-linecap: square"/>
    </g>
    <g id="text_15">
     <!-- best fit -->
     <g transform="translate(303.70142 38.476562)scale(0.1 -0.1)">
      <defs>
       <path id="DejaVuSans-62" d="M 3116 1747 
Q 3116 2381 2855 2742 
Q 2594 3103 2138 3103 
Q 1681 3103 1420 2742 
Q 1159 2381 1159 1747 
Q 1159 1113 1420 752 
Q 1681 391 2138 391 
Q 2594 391 2855 752 
Q 3116 1113 3116 1747 
z
M 1159 2969 
Q 1341 3281 1617 3432 
Q 1894 3584 2278 3584 
Q 2916 3584 3314 3078 
Q 3713 2572 3713 1747 
Q 3713 922 3314 415 
Q 2916 -91 2278 -91 
Q 1894 -91 1617 61 
Q 1341 213 1159 525 
L 1159 0 
L 581 0 
L 581 4863 
L 1159 4863 
L 1159 2969 
z
" transform="scale(0.015625)"/>
       <path id="DejaVuSans-65" d="M 3597 1894 
L 3597 1613 
L 953 1613 
Q 991 1019 1311 708 
Q 1631 397 2203 397 
Q 2534 397 2845 478 
Q 3156 559 3463 722 
L 3463 178 
Q 3153 47 2828 -22 
Q 2503 -91 2169 -91 
Q 1331 -91 842 396 
Q 353 884 353 1716 
Q 353 2575 817 3079 
Q 1281 3584 2069 3584 
Q 2775 3584 3186 3129 
Q 3597 2675 3597 1894 
z
M 3022 2063 
Q 3016 2534 2758 2815 
Q 2500 3097 2075 3097 
Q 1594 3097 1305 2825 
Q 1016 2553 972 2059 
L 3022 2063 
z
" transform="scale(0.015625)"/>
       <path id="DejaVuSans-73" d="M 2834 3397 
L 2834 2853 
Q 2591 2978 2328 3040 
Q 2066 3103 1784 3103 
Q 1356 3103 1142 2972 
Q 928 2841 928 2578 
Q 928 2378 1081 2264 
Q 1234 2150 1697 2047 
L 1894 2003 
Q 2506 1872 2764 1633 
Q 3022 1394 3022 966 
Q 3022 478 2636 193 
Q 2250 -91 1575 -91 
Q 1294 -91 989 -36 
Q 684 19 347 128 
L 347 722 
Q 666 556 975 473 
Q 1284 391 1588 391 
Q 1994 391 2212 530 
Q 2431 669 2431 922 
Q 2431 1156 2273 1281 
Q 2116 1406 1581 1522 
L 1381 1569 
Q 847 1681 609 1914 
Q 372 2147 372 2553 
Q 372 3047 722 3315 
Q 1072 3584 1716 3584 
Q 2034 3584 2315 3537 
Q 2597 3491 2834 3397 
z
" transform="scale(0.015625)"/>
      </defs>
      <use xlink:href="#DejaVuSans-62"/>
      <use xlink:href="#DejaVuSans-65" x="63.476562"/>
      <use xlink:href="#DejaVuSans-73" x="125"/>
      <use xlink:href="#DejaVuSans-74" x="177.099609"/>
      <use xlink:href="#DejaVuSans-20" x="216.308594"/>
      <use xlink:href="#DejaVuSans-66" x="248.095703"/>
      <use xlink:href="#DejaVuSans-69" x="283.300781"/>
      <use xlink:href="#DejaVuSans-74" x="311.083984"/>
     </g>
    </g>
   </g>
  </g>
  <g id="axes_2">
   <g id="patch_8">
    <path d="M 418.527642 268.128 
L 743.182187 268.128 
L 743.182187 7.2 
L 418.527642 7.2 
z
" style="fill: #ffffff"/>
   </g>
   <g id="matplotlib.axis_3">
    <g id="xtick_7">
     <g id="line2d_19">
      <g>
       <use xlink:href="#m7a7e7d25a8" x="433.284667" y="268.128" style="stroke: #000000; stroke-width: 0.8"/>
      </g>
     </g>
     <g id="text_16">
      <!-- 0 -->
      <g transform="translate(430.103417 282.726437)scale(0.1 -0.1)">
       <use xlink:href="#DejaVuSans-30"/>
      </g>
     </g>
    </g>
    <g id="xtick_8">
     <g id="line2d_20">
      <g>
       <use xlink:href="#m7a7e7d25a8" x="492.312766" y="268.128" style="stroke: #000000; stroke-width: 0.8"/>
      </g>
     </g>
     <g id="text_17">
      <!-- 2 -->
      <g transform="translate(489.131516 282.726437)scale(0.1 -0.1)">
       <use xlink:href="#DejaVuSans-32"/>
      </g>
     </g>
    </g>
    <g id="xtick_9">
     <g id="line2d_21">
      <g>
       <use xlink:href="#m7a7e7d25a8" x="551.340865" y="268.128" style="stroke: #000000; stroke-width: 0.8"/>
      </g>
     </g>
     <g id="text_18">
      <!-- 4 -->
      <g transform="translate(548.159615 282.726437)scale(0.1 -0.1)">
       <use xlink:href="#DejaVuSans-34"/>
      </g>
     </g>
    </g>
    <g id="xtick_10">
     <g id="line2d_22">
      <g>
       <use xlink:href="#m7a7e7d25a8" x="610.368964" y="268.128" style="stroke: #000000; stroke-width: 0.8"/>
      </g>
     </g>
     <g id="text_19">
      <!-- 6 -->
      <g transform="translate(607.187714 282.726437)scale(0.1 -0.1)">
       <use xlink:href="#DejaVuSans-36"/>
      </g>
     </g>
    </g>
    <g id="xtick_11">
     <g id="line2d_23">
      <g>
       <use xlink:href="#m7a7e7d25a8" x="669.397064" y="268.128" style="stroke: #000000; stroke-width: 0.8"/>
      </g>
     </g>
     <g id="text_20">
      <!-- 8 -->
      <g transform="translate(666.215814 282.726437)scale(0.1 -0.1)">
       <use xlink:href="#DejaVuSans-38"/>
      </g>
     </g>
    </g>
    <g id="xtick_12">
     <g id="line2d_24">
      <g>
       <use xlink:href="#m7a7e7d25a8" x="728.425163" y="268.128" style="stroke: #000000; stroke-width: 0.8"/>
      </g>
     </g>
     <g id="text_21">
      <!-- 10 -->
      <g transform="translate(722.062663 282.726437)scale(0.1 -0.1)">
       <use xlink:href="#DejaVuSans-31"/>
       <use xlink:href="#DejaVuSans-30" x="63.623047"/>
      </g>
     </g>
    </g>
   </g>
   <g id="matplotlib.axis_4">
    <g id="ytick_8">
     <g id="line2d_25">
      <g>
       <use xlink:href="#m3e089e4346" x="418.527642" y="245.630675" style="stroke: #000000; stroke-width: 0.8"/>
      </g>
     </g>
     <g id="text_22">
      <!-- −1 -->
      <g transform="translate(396.785455 249.429894)scale(0.1 -0.1)">
       <use xlink:href="#DejaVuSans-2212"/>
       <use xlink:href="#DejaVuSans-31" x="83.789062"/>
      </g>
     </g>
    </g>
    <g id="ytick_9">
     <g id="line2d_26">
      <g>
       <use xlink:href="#m3e089e4346" x="418.527642" y="210.77779" style="stroke: #000000; stroke-width: 0.8"/>
      </g>
     </g>
     <g id="text_23">
      <!-- 0 -->
      <g transform="translate(405.165142 214.577009)scale(0.1 -0.1)">
       <use xlink:href="#DejaVuSans-30"/>
      </g>
     </g>
    </g>
    <g id="ytick_10">
     <g id="line2d_27">
      <g>
       <use xlink:href="#m3e089e4346" x="418.527642" y="175.924905" style="stroke: #000000; stroke-width: 0.8"/>
      </g>
     </g>
     <g id="text_24">
      <!-- 1 -->
      <g transform="translate(405.165142 179.724124)scale(0.1 -0.1)">
       <use xlink:href="#DejaVuSans-31"/>
      </g>
     </g>
    </g>
    <g id="ytick_11">
     <g id="line2d_28">
      <g>
       <use xlink:href="#m3e089e4346" x="418.527642" y="141.07202" style="stroke: #000000; stroke-width: 0.8"/>
      </g>
     </g>
     <g id="text_25">
      <!-- 2 -->
      <g transform="translate(405.165142 144.871238)scale(0.1 -0.1)">
       <use xlink:href="#DejaVuSans-32"/>
      </g>
     </g>
    </g>
    <g id="ytick_12">
     <g id="line2d_29">
      <g>
       <use xlink:href="#m3e089e4346" x="418.527642" y="106.219134" style="stroke: #000000; stroke-width: 0.8"/>
      </g>
     </g>
     <g id="text_26">
      <!-- 3 -->
      <g transform="translate(405.165142 110.018353)scale(0.1 -0.1)">
       <use xlink:href="#DejaVuSans-33"/>
      </g>
     </g>
    </g>
    <g id="ytick_13">
     <g id="line2d_30">
      <g>
       <use xlink:href="#m3e089e4346" x="418.527642" y="71.366249" style="stroke: #000000; stroke-width: 0.8"/>
      </g>
     </g>
     <g id="text_27">
      <!-- 4 -->
      <g transform="translate(405.165142 75.165468)scale(0.1 -0.1)">
       <use xlink:href="#DejaVuSans-34"/>
      </g>
     </g>
    </g>
    <g id="ytick_14">
     <g id="line2d_31">
      <g>
       <use xlink:href="#m3e089e4346" x="418.527642" y="36.513364" style="stroke: #000000; stroke-width: 0.8"/>
      </g>
     </g>
     <g id="text_28">
      <!-- 5 -->
      <g transform="translate(405.165142 40.312583)scale(0.1 -0.1)">
       <use xlink:href="#DejaVuSans-35"/>
      </g>
     </g>
    </g>
   </g>
   <g id="line2d_32">
    <g clip-path="url(#peedc70f49a)">
     <use xlink:href="#m5c2ac87f6d" x="433.284667" y="256.267636" style="fill: #1f77b4; stroke: #1f77b4"/>
     <use xlink:href="#m5c2ac87f6d" x="436.236072" y="244.587459" style="fill: #1f77b4; stroke: #1f77b4"/>
     <use xlink:href="#m5c2ac87f6d" x="439.187477" y="237.177631" style="fill: #1f77b4; stroke: #1f77b4"/>
     <use xlink:href="#m5c2ac87f6d" x="442.138882" y="239.509149" style="fill: #1f77b4; stroke: #1f77b4"/>
     <use xlink:href="#m5c2ac87f6d" x="445.090287" y="233.606709" style="fill: #1f77b4; stroke: #1f77b4"/>
     <use xlink:href="#m5c2ac87f6d" x="448.041692" y="241.312228" style="fill: #1f77b4; stroke: #1f77b4"/>
     <use xlink:href="#m5c2ac87f6d" x="450.993097" y="241.001864" style="fill: #1f77b4; stroke: #1f77b4"/>
     <use xlink:href="#m5c2ac87f6d" x="453.944502" y="244.35262" style="fill: #1f77b4; stroke: #1f77b4"/>
     <use xlink:href="#m5c2ac87f6d" x="456.895907" y="240.944565" style="fill: #1f77b4; stroke: #1f77b4"/>
     <use xlink:href="#m5c2ac87f6d" x="459.847311" y="232.557741" style="fill: #1f77b4; stroke: #1f77b4"/>
     <use xlink:href="#m5c2ac87f6d" x="462.798716" y="236.151353" style="fill: #1f77b4; stroke: #1f77b4"/>
     <use xlink:href="#m5c2ac87f6d" x="465.750121" y="227.973855" style="fill: #1f77b4; stroke: #1f77b4"/>
     <use xlink:href="#m5c2ac87f6d" x="468.701526" y="228.687921" style="fill: #1f77b4; stroke: #1f77b4"/>
     <use xlink:href="#m5c2ac87f6d" x="471.652931" y="226.489889" style="fill: #1f77b4; stroke: #1f77b4"/>
     <use xlink:href="#m5c2ac87f6d" x="474.604336" y="221.027884" style="fill: #1f77b4; stroke: #1f77b4"/>
     <use xlink:href="#m5c2ac87f6d" x="477.555741" y="234.991727" style="fill: #1f77b4; stroke: #1f77b4"/>
     <use xlink:href="#m5c2ac87f6d" x="480.507146" y="229.516723" style="fill: #1f77b4; stroke: #1f77b4"/>
     <use xlink:href="#m5c2ac87f6d" x="483.458551" y="231.710119" style="fill: #1f77b4; stroke: #1f77b4"/>
     <use xlink:href="#m5c2ac87f6d" x="486.409956" y="228.131739" style="fill: #1f77b4; stroke: #1f77b4"/>
     <use xlink:href="#m5c2ac87f6d" x="489.361361" y="240.545848" style="fill: #1f77b4; stroke: #1f77b4"/>
     <use xlink:href="#m5c2ac87f6d" x="492.312766" y="228.627068" style="fill: #1f77b4; stroke: #1f77b4"/>
     <use xlink:href="#m5c2ac87f6d" x="495.264171" y="220.172803" style="fill: #1f77b4; stroke: #1f77b4"/>
     <use xlink:href="#m5c2ac87f6d" x="498.215576" y="222.345707" style="fill: #1f77b4; stroke: #1f77b4"/>
     <use xlink:href="#m5c2ac87f6d" x="501.166981" y="224.955804" style="fill: #1f77b4; stroke: #1f77b4"/>
     <use xlink:href="#m5c2ac87f6d" x="504.118386" y="228.670355" style="fill: #1f77b4; stroke: #1f77b4"/>
     <use xlink:href="#m5c2ac87f6d" x="507.069791" y="226.854206" style="fill: #1f77b4; stroke: #1f77b4"/>
     <use xlink:href="#m5c2ac87f6d" x="510.021196" y="225.581448" style="fill: #1f77b4; stroke: #1f77b4"/>
     <use xlink:href="#m5c2ac87f6d" x="512.972601" y="215.858853" style="fill: #1f77b4; stroke: #1f77b4"/>
     <use xlink:href="#m5c2ac87f6d" x="515.924006" y="215.364499" style="fill: #1f77b4; stroke: #1f77b4"/>
     <use xlink:href="#m5c2ac87f6d" x="518.875411" y="217.993941" style="fill: #1f77b4; stroke: #1f77b4"/>
     <use xlink:href="#m5c2ac87f6d" x="521.826816" y="216.824556" style="fill: #1f77b4; stroke: #1f77b4"/>
     <use xlink:href="#m5c2ac87f6d" x="524.778221" y="203.501623" style="fill: #1f77b4; stroke: #1f77b4"/>
     <use xlink:href="#m5c2ac87f6d" x="527.729626" y="217.082782" style="fill: #1f77b4; stroke: #1f77b4"/>
     <use xlink:href="#m5c2ac87f6d" x="530.68103" y="208.513294" style="fill: #1f77b4; stroke: #1f77b4"/>
     <use xlink:href="#m5c2ac87f6d" x="533.632435" y="215.77545" style="fill: #1f77b4; stroke: #1f77b4"/>
     <use xlink:href="#m5c2ac87f6d" x="536.58384" y="219.357664" style="fill: #1f77b4; stroke: #1f77b4"/>
     <use xlink:href="#m5c2ac87f6d" x="539.535245" y="208.596801" style="fill: #1f77b4; stroke: #1f77b4"/>
     <use xlink:href="#m5c2ac87f6d" x="542.48665" y="211.92689" style="fill: #1f77b4; stroke: #1f77b4"/>
     <use xlink:href="#m5c2ac87f6d" x="545.438055" y="202.457779" style="fill: #1f77b4; stroke: #1f77b4"/>
     <use xlink:href="#m5c2ac87f6d" x="548.38946" y="206.858932" style="fill: #1f77b4; stroke: #1f77b4"/>
     <use xlink:href="#m5c2ac87f6d" x="551.340865" y="190.104697" style="fill: #1f77b4; stroke: #1f77b4"/>
     <use xlink:href="#m5c2ac87f6d" x="554.29227" y="193.162689" style="fill: #1f77b4; stroke: #1f77b4"/>
     <use xlink:href="#m5c2ac87f6d" x="557.243675" y="177.607776" style="fill: #1f77b4; stroke: #1f77b4"/>
     <use xlink:href="#m5c2ac87f6d" x="560.19508" y="177.901726" style="fill: #1f77b4; stroke: #1f77b4"/>
     <use xlink:href="#m5c2ac87f6d" x="563.146485" y="161.926383" style="fill: #1f77b4; stroke: #1f77b4"/>
     <use xlink:href="#m5c2ac87f6d" x="566.09789" y="168.326209" style="fill: #1f77b4; stroke: #1f77b4"/>
     <use xlink:href="#m5c2ac87f6d" x="569.049295" y="152.163253" style="fill: #1f77b4; stroke: #1f77b4"/>
     <use xlink:href="#m5c2ac87f6d" x="572.0007" y="142.901866" style="fill: #1f77b4; stroke: #1f77b4"/>
     <use xlink:href="#m5c2ac87f6d" x="574.952105" y="122.017285" style="fill: #1f77b4; stroke: #1f77b4"/>
     <use xlink:href="#m5c2ac87f6d" x="577.90351" y="108.254752" style="fill: #1f77b4; stroke: #1f77b4"/>
     <use xlink:href="#m5c2ac87f6d" x="580.854915" y="85.898439" style="fill: #1f77b4; stroke: #1f77b4"/>
     <use xlink:href="#m5c2ac87f6d" x="583.80632" y="72.638275" style="fill: #1f77b4; stroke: #1f77b4"/>
     <use xlink:href="#m5c2ac87f6d" x="586.757725" y="67.122039" style="fill: #1f77b4; stroke: #1f77b4"/>
     <use xlink:href="#m5c2ac87f6d" x="589.70913" y="39.692505" style="fill: #1f77b4; stroke: #1f77b4"/>
     <use xlink:href="#m5c2ac87f6d" x="592.660535" y="31.088025" style="fill: #1f77b4; stroke: #1f77b4"/>
     <use xlink:href="#m5c2ac87f6d" x="595.61194" y="19.060364" style="fill: #1f77b4; stroke: #1f77b4"/>
     <use xlink:href="#m5c2ac87f6d" x="598.563345" y="23.792688" style="fill: #1f77b4; stroke: #1f77b4"/>
     <use xlink:href="#m5c2ac87f6d" x="601.514749" y="22.089288" style="fill: #1f77b4; stroke: #1f77b4"/>
     <use xlink:href="#m5c2ac87f6d" x="604.466154" y="25.886859" style="fill: #1f77b4; stroke: #1f77b4"/>
     <use xlink:href="#m5c2ac87f6d" x="607.417559" y="29.085029" style="fill: #1f77b4; stroke: #1f77b4"/>
     <use xlink:href="#m5c2ac87f6d" x="610.368964" y="25.530209" style="fill: #1f77b4; stroke: #1f77b4"/>
     <use xlink:href="#m5c2ac87f6d" x="613.320369" y="50.610485" style="fill: #1f77b4; stroke: #1f77b4"/>
     <use xlink:href="#m5c2ac87f6d" x="616.271774" y="52.788233" style="fill: #1f77b4; stroke: #1f77b4"/>
     <use xlink:href="#m5c2ac87f6d" x="619.223179" y="82.447585" style="fill: #1f77b4; stroke: #1f77b4"/>
     <use xlink:href="#m5c2ac87f6d" x="622.174584" y="90.845353" style="fill: #1f77b4; stroke: #1f77b4"/>
     <use xlink:href="#m5c2ac87f6d" x="625.125989" y="98.024629" style="fill: #1f77b4; stroke: #1f77b4"/>
     <use xlink:href="#m5c2ac87f6d" x="628.077394" y="113.326405" style="fill: #1f77b4; stroke: #1f77b4"/>
     <use xlink:href="#m5c2ac87f6d" x="631.028799" y="128.581234" style="fill: #1f77b4; stroke: #1f77b4"/>
     <use xlink:href="#m5c2ac87f6d" x="633.980204" y="140.460456" style="fill: #1f77b4; stroke: #1f77b4"/>
     <use xlink:href="#m5c2ac87f6d" x="636.931609" y="157.991771" style="fill: #1f77b4; stroke: #1f77b4"/>
     <use xlink:href="#m5c2ac87f6d" x="639.883014" y="164.220191" style="fill: #1f77b4; stroke: #1f77b4"/>
     <use xlink:href="#m5c2ac87f6d" x="642.834419" y="166.526302" style="fill: #1f77b4; stroke: #1f77b4"/>
     <use xlink:href="#m5c2ac87f6d" x="645.785824" y="167.314918" style="fill: #1f77b4; stroke: #1f77b4"/>
     <use xlink:href="#m5c2ac87f6d" x="648.737229" y="166.621764" style="fill: #1f77b4; stroke: #1f77b4"/>
     <use xlink:href="#m5c2ac87f6d" x="651.688634" y="167.436589" style="fill: #1f77b4; stroke: #1f77b4"/>
     <use xlink:href="#m5c2ac87f6d" x="654.640039" y="181.463028" style="fill: #1f77b4; stroke: #1f77b4"/>
     <use xlink:href="#m5c2ac87f6d" x="657.591444" y="177.913367" style="fill: #1f77b4; stroke: #1f77b4"/>
     <use xlink:href="#m5c2ac87f6d" x="660.542849" y="182.590449" style="fill: #1f77b4; stroke: #1f77b4"/>
     <use xlink:href="#m5c2ac87f6d" x="663.494254" y="175.523539" style="fill: #1f77b4; stroke: #1f77b4"/>
     <use xlink:href="#m5c2ac87f6d" x="666.445659" y="170.396714" style="fill: #1f77b4; stroke: #1f77b4"/>
     <use xlink:href="#m5c2ac87f6d" x="669.397064" y="180.357286" style="fill: #1f77b4; stroke: #1f77b4"/>
     <use xlink:href="#m5c2ac87f6d" x="672.348468" y="162.209876" style="fill: #1f77b4; stroke: #1f77b4"/>
     <use xlink:href="#m5c2ac87f6d" x="675.299873" y="167.407522" style="fill: #1f77b4; stroke: #1f77b4"/>
     <use xlink:href="#m5c2ac87f6d" x="678.251278" y="162.800214" style="fill: #1f77b4; stroke: #1f77b4"/>
     <use xlink:href="#m5c2ac87f6d" x="681.202683" y="170.867856" style="fill: #1f77b4; stroke: #1f77b4"/>
     <use xlink:href="#m5c2ac87f6d" x="684.154088" y="167.715552" style="fill: #1f77b4; stroke: #1f77b4"/>
     <use xlink:href="#m5c2ac87f6d" x="687.105493" y="161.524947" style="fill: #1f77b4; stroke: #1f77b4"/>
     <use xlink:href="#m5c2ac87f6d" x="690.056898" y="163.178438" style="fill: #1f77b4; stroke: #1f77b4"/>
     <use xlink:href="#m5c2ac87f6d" x="693.008303" y="154.141608" style="fill: #1f77b4; stroke: #1f77b4"/>
     <use xlink:href="#m5c2ac87f6d" x="695.959708" y="159.25951" style="fill: #1f77b4; stroke: #1f77b4"/>
     <use xlink:href="#m5c2ac87f6d" x="698.911113" y="160.188165" style="fill: #1f77b4; stroke: #1f77b4"/>
     <use xlink:href="#m5c2ac87f6d" x="701.862518" y="161.729604" style="fill: #1f77b4; stroke: #1f77b4"/>
     <use xlink:href="#m5c2ac87f6d" x="704.813923" y="154.855674" style="fill: #1f77b4; stroke: #1f77b4"/>
     <use xlink:href="#m5c2ac87f6d" x="707.765328" y="160.098349" style="fill: #1f77b4; stroke: #1f77b4"/>
     <use xlink:href="#m5c2ac87f6d" x="710.716733" y="154.345009" style="fill: #1f77b4; stroke: #1f77b4"/>
     <use xlink:href="#m5c2ac87f6d" x="713.668138" y="156.253762" style="fill: #1f77b4; stroke: #1f77b4"/>
     <use xlink:href="#m5c2ac87f6d" x="716.619543" y="153.489127" style="fill: #1f77b4; stroke: #1f77b4"/>
     <use xlink:href="#m5c2ac87f6d" x="719.570948" y="146.75433" style="fill: #1f77b4; stroke: #1f77b4"/>
     <use xlink:href="#m5c2ac87f6d" x="722.522353" y="157.429106" style="fill: #1f77b4; stroke: #1f77b4"/>
     <use xlink:href="#m5c2ac87f6d" x="725.473758" y="147.775205" style="fill: #1f77b4; stroke: #1f77b4"/>
     <use xlink:href="#m5c2ac87f6d" x="728.425163" y="160.837091" style="fill: #1f77b4; stroke: #1f77b4"/>
    </g>
   </g>
   <g id="line2d_33">
    <path d="M 433.284667 210.77779 
L 436.236072 210.77779 
L 439.187477 210.77779 
L 442.138882 210.77779 
L 445.090287 210.77779 
L 448.041692 210.77779 
L 450.993097 210.77779 
L 453.944502 210.77779 
L 456.895907 210.77779 
L 459.847311 210.77779 
L 462.798716 210.77779 
L 465.750121 210.77779 
L 468.701526 210.77779 
L 471.652931 210.77779 
L 474.604336 210.77779 
L 477.555741 210.777789 
L 480.507146 210.777787 
L 483.458551 210.777784 
L 486.409956 210.777775 
L 489.361361 210.777756 
L 492.312766 210.777714 
L 495.264171 210.777622 
L 498.215576 210.777429 
L 501.166981 210.777028 
L 504.118386 210.776217 
L 507.069791 210.774614 
L 510.021196 210.771517 
L 512.972601 210.765669 
L 515.924006 210.754876 
L 518.875411 210.73541 
L 521.826816 210.701108 
L 524.778221 210.642049 
L 527.729626 210.542715 
L 530.68103 210.379514 
L 533.632435 210.11764 
L 536.58384 209.707301 
L 539.535245 209.079536 
L 542.48665 208.142041 
L 545.438055 206.775703 
L 548.38946 204.832816 
L 551.340865 202.138174 
L 554.29227 198.494353 
L 557.243675 193.692342 
L 560.19508 187.528278 
L 563.146485 179.826246 
L 566.09789 170.466027 
L 569.049295 159.413384 
L 572.0007 146.749226 
L 574.952105 132.693036 
L 577.90351 117.615589 
L 580.854915 102.036562 
L 583.80632 86.604058 
L 586.757725 72.055504 
L 589.70913 59.162241 
L 592.660535 48.663144 
L 595.61194 41.195005 
L 598.563345 37.228724 
L 601.514749 37.020194 
L 604.466154 40.582976 
L 607.417559 47.686845 
L 610.368964 57.882404 
L 613.320369 70.548119 
L 616.271774 84.952931 
L 619.223179 100.325686 
L 622.174584 115.922286 
L 625.125989 131.082605 
L 628.077394 145.271555 
L 631.028799 158.10162 
L 633.980204 169.337122 
L 636.931609 178.882959 
L 639.883014 186.762111 
L 642.834419 193.086869 
L 645.785824 198.02847 
L 648.737229 201.78893 
L 651.688634 204.577626 
L 654.640039 206.593876 
L 657.591444 208.015665 
L 660.542849 208.993831 
L 663.494254 209.650573 
L 666.445659 210.080985 
L 669.397064 210.356389 
L 672.348468 210.528468 
L 675.299873 210.633476 
L 678.251278 210.696069 
L 681.202683 210.732517 
L 684.154088 210.753252 
L 687.105493 210.764779 
L 690.056898 210.771041 
L 693.008303 210.774365 
L 695.959708 210.776089 
L 698.911113 210.776964 
L 701.862518 210.777398 
L 704.813923 210.777608 
L 707.765328 210.777707 
L 710.716733 210.777753 
L 713.668138 210.777774 
L 716.619543 210.777783 
L 719.570948 210.777787 
L 722.522353 210.777789 
L 725.473758 210.77779 
L 728.425163 210.77779 
" clip-path="url(#peedc70f49a)" style="fill: none; stroke-dasharray: 5.55,2.4; stroke-dashoffset: 0; stroke: #ff7f0e; stroke-width: 1.5"/>
   </g>
   <g id="line2d_34">
    <path d="M 433.284667 244.536365 
L 436.236072 243.613307 
L 439.187477 242.690249 
L 442.138882 241.767191 
L 445.090287 240.844133 
L 448.041692 239.921076 
L 450.993097 238.998018 
L 453.944502 238.07496 
L 456.895907 237.151902 
L 459.847311 236.228844 
L 462.798716 235.305786 
L 465.750121 234.382728 
L 468.701526 233.45967 
L 471.652931 232.536612 
L 474.604336 231.613555 
L 477.555741 230.690497 
L 480.507146 229.767439 
L 483.458551 228.844381 
L 486.409956 227.921323 
L 489.361361 226.998265 
L 492.312766 226.075207 
L 495.264171 225.152149 
L 498.215576 224.229091 
L 501.166981 223.306034 
L 504.118386 222.382976 
L 507.069791 221.459918 
L 510.021196 220.53686 
L 512.972601 219.613802 
L 515.924006 218.690744 
L 518.875411 217.767686 
L 521.826816 216.844628 
L 524.778221 215.92157 
L 527.729626 214.998513 
L 530.68103 214.075455 
L 533.632435 213.152397 
L 536.58384 212.229339 
L 539.535245 211.306281 
L 542.48665 210.383223 
L 545.438055 209.460165 
L 548.38946 208.537107 
L 551.340865 207.614049 
L 554.29227 206.690992 
L 557.243675 205.767934 
L 560.19508 204.844876 
L 563.146485 203.921818 
L 566.09789 202.99876 
L 569.049295 202.075702 
L 572.0007 201.152644 
L 574.952105 200.229586 
L 577.90351 199.306528 
L 580.854915 198.383471 
L 583.80632 197.460413 
L 586.757725 196.537355 
L 589.70913 195.614297 
L 592.660535 194.691239 
L 595.61194 193.768181 
L 598.563345 192.845123 
L 601.514749 191.922065 
L 604.466154 190.999007 
L 607.417559 190.07595 
L 610.368964 189.152892 
L 613.320369 188.229834 
L 616.271774 187.306776 
L 619.223179 186.383718 
L 622.174584 185.46066 
L 625.125989 184.537602 
L 628.077394 183.614544 
L 631.028799 182.691486 
L 633.980204 181.768429 
L 636.931609 180.845371 
L 639.883014 179.922313 
L 642.834419 178.999255 
L 645.785824 178.076197 
L 648.737229 177.153139 
L 651.688634 176.230081 
L 654.640039 175.307023 
L 657.591444 174.383965 
L 660.542849 173.460908 
L 663.494254 172.53785 
L 666.445659 171.614792 
L 669.397064 170.691734 
L 672.348468 169.768676 
L 675.299873 168.845618 
L 678.251278 167.92256 
L 681.202683 166.999502 
L 684.154088 166.076444 
L 687.105493 165.153387 
L 690.056898 164.230329 
L 693.008303 163.307271 
L 695.959708 162.384213 
L 698.911113 161.461155 
L 701.862518 160.538097 
L 704.813923 159.615039 
L 707.765328 158.691981 
L 710.716733 157.768923 
L 713.668138 156.845866 
L 716.619543 155.922808 
L 719.570948 154.99975 
L 722.522353 154.076692 
L 725.473758 153.153634 
L 728.425163 152.230576 
" clip-path="url(#peedc70f49a)" style="fill: none; stroke-dasharray: 5.55,2.4; stroke-dashoffset: 0; stroke: #2ca02c; stroke-width: 1.5"/>
   </g>
   <g id="patch_9">
    <path d="M 418.527642 268.128 
L 418.527642 7.2 
" style="fill: none; stroke: #000000; stroke-width: 0.8; stroke-linejoin: miter; stroke-linecap: square"/>
   </g>
   <g id="patch_10">
    <path d="M 743.182187 268.128 
L 743.182187 7.2 
" style="fill: none; stroke: #000000; stroke-width: 0.8; stroke-linejoin: miter; stroke-linecap: square"/>
   </g>
   <g id="patch_11">
    <path d="M 418.527642 268.128 
L 743.182187 268.128 
" style="fill: none; stroke: #000000; stroke-width: 0.8; stroke-linejoin: miter; stroke-linecap: square"/>
   </g>
   <g id="patch_12">
    <path d="M 418.527642 7.2 
L 743.182187 7.2 
" style="fill: none; stroke: #000000; stroke-width: 0.8; stroke-linejoin: miter; stroke-linecap: square"/>
   </g>
   <g id="legend_2">
    <g id="patch_13">
     <path d="M 425.527642 44.55625 
L 563.155767 44.55625 
Q 565.155767 44.55625 565.155767 42.55625 
L 565.155767 14.2 
Q 565.155767 12.2 563.155767 12.2 
L 425.527642 12.2 
Q 423.527642 12.2 423.527642 14.2 
L 423.527642 42.55625 
Q 423.527642 44.55625 425.527642 44.55625 
z
" style="fill: #ffffff; opacity: 0.8; stroke: #cccccc; stroke-linejoin: miter"/>
    </g>
    <g id="line2d_35">
     <path d="M 427.527642 20.298437 
L 437.527642 20.298437 
L 447.527642 20.298437 
" style="fill: none; stroke-dasharray: 5.55,2.4; stroke-dashoffset: 0; stroke: #ff7f0e; stroke-width: 1.5"/>
    </g>
    <g id="text_29">
     <!-- Gaussian component -->
     <g transform="translate(455.527642 23.798437)scale(0.1 -0.1)">
      <defs>
       <path id="DejaVuSans-47" d="M 3809 666 
L 3809 1919 
L 2778 1919 
L 2778 2438 
L 4434 2438 
L 4434 434 
Q 4069 175 3628 42 
Q 3188 -91 2688 -91 
Q 1594 -91 976 548 
Q 359 1188 359 2328 
Q 359 3472 976 4111 
Q 1594 4750 2688 4750 
Q 3144 4750 3555 4637 
Q 3966 4525 4313 4306 
L 4313 3634 
Q 3963 3931 3569 4081 
Q 3175 4231 2741 4231 
Q 1884 4231 1454 3753 
Q 1025 3275 1025 2328 
Q 1025 1384 1454 906 
Q 1884 428 2741 428 
Q 3075 428 3337 486 
Q 3600 544 3809 666 
z
" transform="scale(0.015625)"/>
       <path id="DejaVuSans-75" d="M 544 1381 
L 544 3500 
L 1119 3500 
L 1119 1403 
Q 1119 906 1312 657 
Q 1506 409 1894 409 
Q 2359 409 2629 706 
Q 2900 1003 2900 1516 
L 2900 3500 
L 3475 3500 
L 3475 0 
L 2900 0 
L 2900 538 
Q 2691 219 2414 64 
Q 2138 -91 1772 -91 
Q 1169 -91 856 284 
Q 544 659 544 1381 
z
M 1991 3584 
L 1991 3584 
z
" transform="scale(0.015625)"/>
       <path id="DejaVuSans-63" d="M 3122 3366 
L 3122 2828 
Q 2878 2963 2633 3030 
Q 2388 3097 2138 3097 
Q 1578 3097 1268 2742 
Q 959 2388 959 1747 
Q 959 1106 1268 751 
Q 1578 397 2138 397 
Q 2388 397 2633 464 
Q 2878 531 3122 666 
L 3122 134 
Q 2881 22 2623 -34 
Q 2366 -91 2075 -91 
Q 1284 -91 818 406 
Q 353 903 353 1747 
Q 353 2603 823 3093 
Q 1294 3584 2113 3584 
Q 2378 3584 2631 3529 
Q 2884 3475 3122 3366 
z
" transform="scale(0.015625)"/>
       <path id="DejaVuSans-6f" d="M 1959 3097 
Q 1497 3097 1228 2736 
Q 959 2375 959 1747 
Q 959 1119 1226 758 
Q 1494 397 1959 397 
Q 2419 397 2687 759 
Q 2956 1122 2956 1747 
Q 2956 2369 2687 2733 
Q 2419 3097 1959 3097 
z
M 1959 3584 
Q 2709 3584 3137 3096 
Q 3566 2609 3566 1747 
Q 3566 888 3137 398 
Q 2709 -91 1959 -91 
Q 1206 -91 779 398 
Q 353 888 353 1747 
Q 353 2609 779 3096 
Q 1206 3584 1959 3584 
z
" transform="scale(0.015625)"/>
       <path id="DejaVuSans-6d" d="M 3328 2828 
Q 3544 3216 3844 3400 
Q 4144 3584 4550 3584 
Q 5097 3584 5394 3201 
Q 5691 2819 5691 2113 
L 5691 0 
L 5113 0 
L 5113 2094 
Q 5113 2597 4934 2840 
Q 4756 3084 4391 3084 
Q 3944 3084 3684 2787 
Q 3425 2491 3425 1978 
L 3425 0 
L 2847 0 
L 2847 2094 
Q 2847 2600 2669 2842 
Q 2491 3084 2119 3084 
Q 1678 3084 1418 2786 
Q 1159 2488 1159 1978 
L 1159 0 
L 581 0 
L 581 3500 
L 1159 3500 
L 1159 2956 
Q 1356 3278 1631 3431 
Q 1906 3584 2284 3584 
Q 2666 3584 2933 3390 
Q 3200 3197 3328 2828 
z
" transform="scale(0.015625)"/>
       <path id="DejaVuSans-70" d="M 1159 525 
L 1159 -1331 
L 581 -1331 
L 581 3500 
L 1159 3500 
L 1159 2969 
Q 1341 3281 1617 3432 
Q 1894 3584 2278 3584 
Q 2916 3584 3314 3078 
Q 3713 2572 3713 1747 
Q 3713 922 3314 415 
Q 2916 -91 2278 -91 
Q 1894 -91 1617 61 
Q 1341 213 1159 525 
z
M 3116 1747 
Q 3116 2381 2855 2742 
Q 2594 3103 2138 3103 
Q 1681 3103 1420 2742 
Q 1159 2381 1159 1747 
Q 1159 1113 1420 752 
Q 1681 391 2138 391 
Q 2594 391 2855 752 
Q 3116 1113 3116 1747 
z
" transform="scale(0.015625)"/>
      </defs>
      <use xlink:href="#DejaVuSans-47"/>
      <use xlink:href="#DejaVuSans-61" x="77.490234"/>
      <use xlink:href="#DejaVuSans-75" x="138.769531"/>
      <use xlink:href="#DejaVuSans-73" x="202.148438"/>
      <use xlink:href="#DejaVuSans-73" x="254.248047"/>
      <use xlink:href="#DejaVuSans-69" x="306.347656"/>
      <use xlink:href="#DejaVuSans-61" x="334.130859"/>
      <use xlink:href="#DejaVuSans-6e" x="395.410156"/>
      <use xlink:href="#DejaVuSans-20" x="458.789062"/>
      <use xlink:href="#DejaVuSans-63" x="490.576172"/>
      <use xlink:href="#DejaVuSans-6f" x="545.556641"/>
      <use xlink:href="#DejaVuSans-6d" x="606.738281"/>
      <use xlink:href="#DejaVuSans-70" x="704.150391"/>
      <use xlink:href="#DejaVuSans-6f" x="767.626953"/>
      <use xlink:href="#DejaVuSans-6e" x="828.808594"/>
      <use xlink:href="#DejaVuSans-65" x="892.1875"/>
      <use xlink:href="#DejaVuSans-6e" x="953.710938"/>
      <use xlink:href="#DejaVuSans-74" x="1017.089844"/>
     </g>
    </g>
    <g id="line2d_36">
     <path d="M 427.527642 34.976562 
L 437.527642 34.976562 
L 447.527642 34.976562 
" style="fill: none; stroke-dasharray: 5.55,2.4; stroke-dashoffset: 0; stroke: #2ca02c; stroke-width: 1.5"/>
    </g>
    <g id="text_30">
     <!-- Line component -->
     <g transform="translate(455.527642 38.476562)scale(0.1 -0.1)">
      <defs>
       <path id="DejaVuSans-4c" d="M 628 4666 
L 1259 4666 
L 1259 531 
L 3531 531 
L 3531 0 
L 628 0 
L 628 4666 
z
" transform="scale(0.015625)"/>
      </defs>
      <use xlink:href="#DejaVuSans-4c"/>
      <use xlink:href="#DejaVuSans-69" x="55.712891"/>
      <use xlink:href="#DejaVuSans-6e" x="83.496094"/>
      <use xlink:href="#DejaVuSans-65" x="146.875"/>
      <use xlink:href="#DejaVuSans-20" x="208.398438"/>
      <use xlink:href="#DejaVuSans-63" x="240.185547"/>
      <use xlink:href="#DejaVuSans-6f" x="295.166016"/>
      <use xlink:href="#DejaVuSans-6d" x="356.347656"/>
      <use xlink:href="#DejaVuSans-70" x="453.759766"/>
      <use xlink:href="#DejaVuSans-6f" x="517.236328"/>
      <use xlink:href="#DejaVuSans-6e" x="578.417969"/>
      <use xlink:href="#DejaVuSans-65" x="641.796875"/>
      <use xlink:href="#DejaVuSans-6e" x="703.320312"/>
      <use xlink:href="#DejaVuSans-74" x="766.699219"/>
     </g>
    </g>
   </g>
  </g>
 </g>
 <defs>
  <clipPath id="p07a98e8dad">
   <rect x="28.942188" y="7.2" width="324.654545" height="260.928"/>
  </clipPath>
  <clipPath id="peedc70f49a">
   <rect x="418.527642" y="7.2" width="324.654545" height="260.928"/>
  </clipPath>
 </defs>
</svg>
