<?xml version="1.0" encoding="utf-8" standalone="no"?>
<!DOCTYPE svg PUBLIC "-//W3C//DTD SVG 1.1//EN"
  "http://www.w3.org/Graphics/SVG/1.1/DTD/svg11.dtd">
<svg height="248.518125pt" version="1.1" viewBox="0 0 362.5625 248.518125" width="362.5625pt" xmlns="http://www.w3.org/2000/svg" xmlns:xlink="http://www.w3.org/1999/xlink">
 <metadata>
  <rdf:RDF xmlns:cc="http://creativecommons.org/ns#" xmlns:dc="http://purl.org/dc/elements/1.1/" xmlns:rdf="http://www.w3.org/1999/02/22-rdf-syntax-ns#">
   <cc:Work>
    <dc:type rdf:resource="http://purl.org/dc/dcmitype/StillImage"/>
    <dc:date>2021-10-14T14:45:01.072585</dc:date>
    <dc:format>image/svg+xml</dc:format>
    <dc:creator>
     <cc:Agent>
      <dc:title>Matplotlib v3.4.2, https://matplotlib.org/</dc:title>
     </cc:Agent>
    </dc:creator>
   </cc:Work>
  </rdf:RDF>
 </metadata>
 <defs>
  <style type="text/css">*{stroke-linecap:butt;stroke-linejoin:round;}</style>
 </defs>
 <g id="figure_1">
  <g id="patch_1">
   <path d="M 0 248.518125 
L 362.5625 248.518125 
L 362.5625 0 
L 0 0 
z
" style="fill:none;"/>
  </g>
  <g id="axes_1">
   <g id="patch_2">
    <path d="M 20.5625 224.64 
L 355.3625 224.64 
L 355.3625 7.2 
L 20.5625 7.2 
z
" style="fill:#ffffff;"/>
   </g>
   <g id="matplotlib.axis_1">
    <g id="xtick_1">
     <g id="line2d_1">
      <defs>
       <path d="M 0 0 
L 0 3.5 
" id="m1b116caac5" style="stroke:#000000;stroke-width:0.8;"/>
      </defs>
      <g>
       <use style="stroke:#000000;stroke-width:0.8;" x="35.780682" xlink:href="#m1b116caac5" y="224.64"/>
      </g>
     </g>
     <g id="text_1">
      <!-- 0 -->
      <g transform="translate(32.599432 239.238437)scale(0.1 -0.1)">
       <defs>
        <path d="M 2034 4250 
Q 1547 4250 1301 3770 
Q 1056 3291 1056 2328 
Q 1056 1369 1301 889 
Q 1547 409 2034 409 
Q 2525 409 2770 889 
Q 3016 1369 3016 2328 
Q 3016 3291 2770 3770 
Q 2525 4250 2034 4250 
z
M 2034 4750 
Q 2819 4750 3233 4129 
Q 3647 3509 3647 2328 
Q 3647 1150 3233 529 
Q 2819 -91 2034 -91 
Q 1250 -91 836 529 
Q 422 1150 422 2328 
Q 422 3509 836 4129 
Q 1250 4750 2034 4750 
z
" id="DejaVuSans-30" transform="scale(0.015625)"/>
       </defs>
       <use xlink:href="#DejaVuSans-30"/>
      </g>
     </g>
    </g>
    <g id="xtick_2">
     <g id="line2d_2">
      <g>
       <use style="stroke:#000000;stroke-width:0.8;" x="96.653409" xlink:href="#m1b116caac5" y="224.64"/>
      </g>
     </g>
     <g id="text_2">
      <!-- 2 -->
      <g transform="translate(93.472159 239.238437)scale(0.1 -0.1)">
       <defs>
        <path d="M 1228 531 
L 3431 531 
L 3431 0 
L 469 0 
L 469 531 
Q 828 903 1448 1529 
Q 2069 2156 2228 2338 
Q 2531 2678 2651 2914 
Q 2772 3150 2772 3378 
Q 2772 3750 2511 3984 
Q 2250 4219 1831 4219 
Q 1534 4219 1204 4116 
Q 875 4013 500 3803 
L 500 4441 
Q 881 4594 1212 4672 
Q 1544 4750 1819 4750 
Q 2544 4750 2975 4387 
Q 3406 4025 3406 3419 
Q 3406 3131 3298 2873 
Q 3191 2616 2906 2266 
Q 2828 2175 2409 1742 
Q 1991 1309 1228 531 
z
" id="DejaVuSans-32" transform="scale(0.015625)"/>
       </defs>
       <use xlink:href="#DejaVuSans-32"/>
      </g>
     </g>
    </g>
    <g id="xtick_3">
     <g id="line2d_3">
      <g>
       <use style="stroke:#000000;stroke-width:0.8;" x="157.526136" xlink:href="#m1b116caac5" y="224.64"/>
      </g>
     </g>
     <g id="text_3">
      <!-- 4 -->
      <g transform="translate(154.344886 239.238437)scale(0.1 -0.1)">
       <defs>
        <path d="M 2419 4116 
L 825 1625 
L 2419 1625 
L 2419 4116 
z
M 2253 4666 
L 3047 4666 
L 3047 1625 
L 3713 1625 
L 3713 1100 
L 3047 1100 
L 3047 0 
L 2419 0 
L 2419 1100 
L 313 1100 
L 313 1709 
L 2253 4666 
z
" id="DejaVuSans-34" transform="scale(0.015625)"/>
       </defs>
       <use xlink:href="#DejaVuSans-34"/>
      </g>
     </g>
    </g>
    <g id="xtick_4">
     <g id="line2d_4">
      <g>
       <use style="stroke:#000000;stroke-width:0.8;" x="218.398864" xlink:href="#m1b116caac5" y="224.64"/>
      </g>
     </g>
     <g id="text_4">
      <!-- 6 -->
      <g transform="translate(215.217614 239.238437)scale(0.1 -0.1)">
       <defs>
        <path d="M 2113 2584 
Q 1688 2584 1439 2293 
Q 1191 2003 1191 1497 
Q 1191 994 1439 701 
Q 1688 409 2113 409 
Q 2538 409 2786 701 
Q 3034 994 3034 1497 
Q 3034 2003 2786 2293 
Q 2538 2584 2113 2584 
z
M 3366 4563 
L 3366 3988 
Q 3128 4100 2886 4159 
Q 2644 4219 2406 4219 
Q 1781 4219 1451 3797 
Q 1122 3375 1075 2522 
Q 1259 2794 1537 2939 
Q 1816 3084 2150 3084 
Q 2853 3084 3261 2657 
Q 3669 2231 3669 1497 
Q 3669 778 3244 343 
Q 2819 -91 2113 -91 
Q 1303 -91 875 529 
Q 447 1150 447 2328 
Q 447 3434 972 4092 
Q 1497 4750 2381 4750 
Q 2619 4750 2861 4703 
Q 3103 4656 3366 4563 
z
" id="DejaVuSans-36" transform="scale(0.015625)"/>
       </defs>
       <use xlink:href="#DejaVuSans-36"/>
      </g>
     </g>
    </g>
    <g id="xtick_5">
     <g id="line2d_5">
      <g>
       <use style="stroke:#000000;stroke-width:0.8;" x="279.271591" xlink:href="#m1b116caac5" y="224.64"/>
      </g>
     </g>
     <g id="text_5">
      <!-- 8 -->
      <g transform="translate(276.090341 239.238437)scale(0.1 -0.1)">
       <defs>
        <path d="M 2034 2216 
Q 1584 2216 1326 1975 
Q 1069 1734 1069 1313 
Q 1069 891 1326 650 
Q 1584 409 2034 409 
Q 2484 409 2743 651 
Q 3003 894 3003 1313 
Q 3003 1734 2745 1975 
Q 2488 2216 2034 2216 
z
M 1403 2484 
Q 997 2584 770 2862 
Q 544 3141 544 3541 
Q 544 4100 942 4425 
Q 1341 4750 2034 4750 
Q 2731 4750 3128 4425 
Q 3525 4100 3525 3541 
Q 3525 3141 3298 2862 
Q 3072 2584 2669 2484 
Q 3125 2378 3379 2068 
Q 3634 1759 3634 1313 
Q 3634 634 3220 271 
Q 2806 -91 2034 -91 
Q 1263 -91 848 271 
Q 434 634 434 1313 
Q 434 1759 690 2068 
Q 947 2378 1403 2484 
z
M 1172 3481 
Q 1172 3119 1398 2916 
Q 1625 2713 2034 2713 
Q 2441 2713 2670 2916 
Q 2900 3119 2900 3481 
Q 2900 3844 2670 4047 
Q 2441 4250 2034 4250 
Q 1625 4250 1398 4047 
Q 1172 3844 1172 3481 
z
" id="DejaVuSans-38" transform="scale(0.015625)"/>
       </defs>
       <use xlink:href="#DejaVuSans-38"/>
      </g>
     </g>
    </g>
    <g id="xtick_6">
     <g id="line2d_6">
      <g>
       <use style="stroke:#000000;stroke-width:0.8;" x="340.144318" xlink:href="#m1b116caac5" y="224.64"/>
      </g>
     </g>
     <g id="text_6">
      <!-- 10 -->
      <g transform="translate(333.781818 239.238437)scale(0.1 -0.1)">
       <defs>
        <path d="M 794 531 
L 1825 531 
L 1825 4091 
L 703 3866 
L 703 4441 
L 1819 4666 
L 2450 4666 
L 2450 531 
L 3481 531 
L 3481 0 
L 794 0 
L 794 531 
z
" id="DejaVuSans-31" transform="scale(0.015625)"/>
       </defs>
       <use xlink:href="#DejaVuSans-31"/>
       <use x="63.623047" xlink:href="#DejaVuSans-30"/>
      </g>
     </g>
    </g>
   </g>
   <g id="matplotlib.axis_2">
    <g id="ytick_1">
     <g id="line2d_7">
      <defs>
       <path d="M 0 0 
L -3.5 0 
" id="m46bbb36740" style="stroke:#000000;stroke-width:0.8;"/>
      </defs>
      <g>
       <use style="stroke:#000000;stroke-width:0.8;" x="20.5625" xlink:href="#m46bbb36740" y="202.830267"/>
      </g>
     </g>
     <g id="text_7">
      <!-- 0 -->
      <g transform="translate(7.2 206.629486)scale(0.1 -0.1)">
       <use xlink:href="#DejaVuSans-30"/>
      </g>
     </g>
    </g>
    <g id="ytick_2">
     <g id="line2d_8">
      <g>
       <use style="stroke:#000000;stroke-width:0.8;" x="20.5625" xlink:href="#m46bbb36740" y="166.59241"/>
      </g>
     </g>
     <g id="text_8">
      <!-- 1 -->
      <g transform="translate(7.2 170.391629)scale(0.1 -0.1)">
       <use xlink:href="#DejaVuSans-31"/>
      </g>
     </g>
    </g>
    <g id="ytick_3">
     <g id="line2d_9">
      <g>
       <use style="stroke:#000000;stroke-width:0.8;" x="20.5625" xlink:href="#m46bbb36740" y="130.354553"/>
      </g>
     </g>
     <g id="text_9">
      <!-- 2 -->
      <g transform="translate(7.2 134.153772)scale(0.1 -0.1)">
       <use xlink:href="#DejaVuSans-32"/>
      </g>
     </g>
    </g>
    <g id="ytick_4">
     <g id="line2d_10">
      <g>
       <use style="stroke:#000000;stroke-width:0.8;" x="20.5625" xlink:href="#m46bbb36740" y="94.116696"/>
      </g>
     </g>
     <g id="text_10">
      <!-- 3 -->
      <g transform="translate(7.2 97.915915)scale(0.1 -0.1)">
       <defs>
        <path d="M 2597 2516 
Q 3050 2419 3304 2112 
Q 3559 1806 3559 1356 
Q 3559 666 3084 287 
Q 2609 -91 1734 -91 
Q 1441 -91 1130 -33 
Q 819 25 488 141 
L 488 750 
Q 750 597 1062 519 
Q 1375 441 1716 441 
Q 2309 441 2620 675 
Q 2931 909 2931 1356 
Q 2931 1769 2642 2001 
Q 2353 2234 1838 2234 
L 1294 2234 
L 1294 2753 
L 1863 2753 
Q 2328 2753 2575 2939 
Q 2822 3125 2822 3475 
Q 2822 3834 2567 4026 
Q 2313 4219 1838 4219 
Q 1578 4219 1281 4162 
Q 984 4106 628 3988 
L 628 4550 
Q 988 4650 1302 4700 
Q 1616 4750 1894 4750 
Q 2613 4750 3031 4423 
Q 3450 4097 3450 3541 
Q 3450 3153 3228 2886 
Q 3006 2619 2597 2516 
z
" id="DejaVuSans-33" transform="scale(0.015625)"/>
       </defs>
       <use xlink:href="#DejaVuSans-33"/>
      </g>
     </g>
    </g>
    <g id="ytick_5">
     <g id="line2d_11">
      <g>
       <use style="stroke:#000000;stroke-width:0.8;" x="20.5625" xlink:href="#m46bbb36740" y="57.878839"/>
      </g>
     </g>
     <g id="text_11">
      <!-- 4 -->
      <g transform="translate(7.2 61.678058)scale(0.1 -0.1)">
       <use xlink:href="#DejaVuSans-34"/>
      </g>
     </g>
    </g>
    <g id="ytick_6">
     <g id="line2d_12">
      <g>
       <use style="stroke:#000000;stroke-width:0.8;" x="20.5625" xlink:href="#m46bbb36740" y="21.640982"/>
      </g>
     </g>
     <g id="text_12">
      <!-- 5 -->
      <g transform="translate(7.2 25.440201)scale(0.1 -0.1)">
       <defs>
        <path d="M 691 4666 
L 3169 4666 
L 3169 4134 
L 1269 4134 
L 1269 2991 
Q 1406 3038 1543 3061 
Q 1681 3084 1819 3084 
Q 2600 3084 3056 2656 
Q 3513 2228 3513 1497 
Q 3513 744 3044 326 
Q 2575 -91 1722 -91 
Q 1428 -91 1123 -41 
Q 819 9 494 109 
L 494 744 
Q 775 591 1075 516 
Q 1375 441 1709 441 
Q 2250 441 2565 725 
Q 2881 1009 2881 1497 
Q 2881 1984 2565 2268 
Q 2250 2553 1709 2553 
Q 1456 2553 1204 2497 
Q 953 2441 691 2322 
L 691 4666 
z
" id="DejaVuSans-35" transform="scale(0.015625)"/>
       </defs>
       <use xlink:href="#DejaVuSans-35"/>
      </g>
     </g>
    </g>
   </g>
   <g id="line2d_13">
    <defs>
     <path d="M 0 3 
C 0.795609 3 1.55874 2.683901 2.12132 2.12132 
C 2.683901 1.55874 3 0.795609 3 0 
C 3 -0.795609 2.683901 -1.55874 2.12132 -2.12132 
C 1.55874 -2.683901 0.795609 -3 0 -3 
C -0.795609 -3 -1.55874 -2.683901 -2.12132 -2.12132 
C -2.683901 -1.55874 -3 -0.795609 -3 0 
C -3 0.795609 -2.683901 1.55874 -2.12132 2.12132 
C -1.55874 2.683901 -0.795609 3 0 3 
z
" id="m16e69fbb05" style="stroke:#1f77b4;"/>
    </defs>
    <g clip-path="url(#p4697d73d94)">
     <use style="fill:#1f77b4;stroke:#1f77b4;" x="35.780682" xlink:href="#m16e69fbb05" y="213.889916"/>
     <use style="fill:#1f77b4;stroke:#1f77b4;" x="38.824318" xlink:href="#m16e69fbb05" y="202.651542"/>
     <use style="fill:#1f77b4;stroke:#1f77b4;" x="41.867955" xlink:href="#m16e69fbb05" y="195.853212"/>
     <use style="fill:#1f77b4;stroke:#1f77b4;" x="44.911591" xlink:href="#m16e69fbb05" y="199.183326"/>
     <use style="fill:#1f77b4;stroke:#1f77b4;" x="47.955227" xlink:href="#m16e69fbb05" y="193.952282"/>
     <use style="fill:#1f77b4;stroke:#1f77b4;" x="50.998864" xlink:href="#m16e69fbb05" y="202.869948"/>
     <use style="fill:#1f77b4;stroke:#1f77b4;" x="54.0425" xlink:href="#m16e69fbb05" y="203.453196"/>
     <use style="fill:#1f77b4;stroke:#1f77b4;" x="57.086136" xlink:href="#m16e69fbb05" y="207.84305"/>
     <use style="fill:#1f77b4;stroke:#1f77b4;" x="60.129773" xlink:href="#m16e69fbb05" y="205.205514"/>
     <use style="fill:#1f77b4;stroke:#1f77b4;" x="63.173409" xlink:href="#m16e69fbb05" y="197.391364"/>
     <use style="fill:#1f77b4;stroke:#1f77b4;" x="66.217045" xlink:href="#m16e69fbb05" y="202.033723"/>
     <use style="fill:#1f77b4;stroke:#1f77b4;" x="69.260682" xlink:href="#m16e69fbb05" y="194.437217"/>
     <use style="fill:#1f77b4;stroke:#1f77b4;" x="72.304318" xlink:href="#m16e69fbb05" y="196.085605"/>
     <use style="fill:#1f77b4;stroke:#1f77b4;" x="75.347955" xlink:href="#m16e69fbb05" y="194.706175"/>
     <use style="fill:#1f77b4;stroke:#1f77b4;" x="78.391591" xlink:href="#m16e69fbb05" y="189.933069"/>
     <use style="fill:#1f77b4;stroke:#1f77b4;" x="81.435227" xlink:href="#m16e69fbb05" y="205.357749"/>
     <use style="fill:#1f77b4;stroke:#1f77b4;" x="84.478864" xlink:href="#m16e69fbb05" y="200.571127"/>
     <use style="fill:#1f77b4;stroke:#1f77b4;" x="87.5225" xlink:href="#m16e69fbb05" y="203.75763"/>
     <use style="fill:#1f77b4;stroke:#1f77b4;" x="90.566136" xlink:href="#m16e69fbb05" y="200.943"/>
     <use style="fill:#1f77b4;stroke:#1f77b4;" x="93.609773" xlink:href="#m16e69fbb05" y="214.756364"/>
     <use style="fill:#1f77b4;stroke:#1f77b4;" x="96.653409" xlink:href="#m16e69fbb05" y="203.269905"/>
     <use style="fill:#1f77b4;stroke:#1f77b4;" x="99.697045" xlink:href="#m16e69fbb05" y="195.385635"/>
     <use style="fill:#1f77b4;stroke:#1f77b4;" x="102.740682" xlink:href="#m16e69fbb05" y="198.55083"/>
     <use style="fill:#1f77b4;stroke:#1f77b4;" x="105.784318" xlink:href="#m16e69fbb05" y="202.170593"/>
     <use style="fill:#1f77b4;stroke:#1f77b4;" x="108.827955" xlink:href="#m16e69fbb05" y="206.938698"/>
     <use style="fill:#1f77b4;stroke:#1f77b4;" x="111.871591" xlink:href="#m16e69fbb05" y="205.956326"/>
     <use style="fill:#1f77b4;stroke:#1f77b4;" x="114.915227" xlink:href="#m16e69fbb05" y="205.538939"/>
     <use style="fill:#1f77b4;stroke:#1f77b4;" x="117.958864" xlink:href="#m16e69fbb05" y="196.335936"/>
     <use style="fill:#1f77b4;stroke:#1f77b4;" x="121.0025" xlink:href="#m16e69fbb05" y="196.727885"/>
     <use style="fill:#1f77b4;stroke:#1f77b4;" x="124.046136" xlink:href="#m16e69fbb05" y="200.36776"/>
     <use style="fill:#1f77b4;stroke:#1f77b4;" x="127.089773" xlink:href="#m16e69fbb05" y="200.057854"/>
     <use style="fill:#1f77b4;stroke:#1f77b4;" x="130.133409" xlink:href="#m16e69fbb05" y="187.111445"/>
     <use style="fill:#1f77b4;stroke:#1f77b4;" x="133.177045" xlink:href="#m16e69fbb05" y="202.138233"/>
     <use style="fill:#1f77b4;stroke:#1f77b4;" x="136.220682" xlink:href="#m16e69fbb05" y="194.13416"/>
     <use style="fill:#1f77b4;stroke:#1f77b4;" x="139.264318" xlink:href="#m16e69fbb05" y="202.590844"/>
     <use style="fill:#1f77b4;stroke:#1f77b4;" x="142.307955" xlink:href="#m16e69fbb05" y="207.221354"/>
     <use style="fill:#1f77b4;stroke:#1f77b4;" x="145.351591" xlink:href="#m16e69fbb05" y="196.938825"/>
     <use style="fill:#1f77b4;stroke:#1f77b4;" x="148.395227" xlink:href="#m16e69fbb05" y="201.30719"/>
     <use style="fill:#1f77b4;stroke:#1f77b4;" x="151.438864" xlink:href="#m16e69fbb05" y="192.367746"/>
     <use style="fill:#1f77b4;stroke:#1f77b4;" x="154.4825" xlink:href="#m16e69fbb05" y="197.849736"/>
     <use style="fill:#1f77b4;stroke:#1f77b4;" x="157.526136" xlink:href="#m16e69fbb05" y="181.335674"/>
     <use style="fill:#1f77b4;stroke:#1f77b4;" x="160.569773" xlink:href="#m16e69fbb05" y="185.42113"/>
     <use style="fill:#1f77b4;stroke:#1f77b4;" x="163.613409" xlink:href="#m16e69fbb05" y="170.154048"/>
     <use style="fill:#1f77b4;stroke:#1f77b4;" x="166.657045" xlink:href="#m16e69fbb05" y="171.365625"/>
     <use style="fill:#1f77b4;stroke:#1f77b4;" x="169.700682" xlink:href="#m16e69fbb05" y="155.661406"/>
     <use style="fill:#1f77b4;stroke:#1f77b4;" x="172.744318" xlink:href="#m16e69fbb05" y="163.221492"/>
     <use style="fill:#1f77b4;stroke:#1f77b4;" x="175.787955" xlink:href="#m16e69fbb05" y="147.322205"/>
     <use style="fill:#1f77b4;stroke:#1f77b4;" x="178.831591" xlink:href="#m16e69fbb05" y="138.598738"/>
     <use style="fill:#1f77b4;stroke:#1f77b4;" x="181.875227" xlink:href="#m16e69fbb05" y="117.7902"/>
     <use style="fill:#1f77b4;stroke:#1f77b4;" x="184.918864" xlink:href="#m16e69fbb05" y="104.386722"/>
     <use style="fill:#1f77b4;stroke:#1f77b4;" x="187.9625" xlink:href="#m16e69fbb05" y="82.047968"/>
     <use style="fill:#1f77b4;stroke:#1f77b4;" x="191.006136" xlink:href="#m16e69fbb05" y="69.166823"/>
     <use style="fill:#1f77b4;stroke:#1f77b4;" x="194.049773" xlink:href="#m16e69fbb05" y="64.337331"/>
     <use style="fill:#1f77b4;stroke:#1f77b4;" x="197.093409" xlink:href="#m16e69fbb05" y="36.723758"/>
     <use style="fill:#1f77b4;stroke:#1f77b4;" x="200.137045" xlink:href="#m16e69fbb05" y="28.683302"/>
     <use style="fill:#1f77b4;stroke:#1f77b4;" x="203.180682" xlink:href="#m16e69fbb05" y="17.083636"/>
     <use style="fill:#1f77b4;stroke:#1f77b4;" x="206.224318" xlink:href="#m16e69fbb05" y="22.909959"/>
     <use style="fill:#1f77b4;stroke:#1f77b4;" x="209.267955" xlink:href="#m16e69fbb05" y="22.044816"/>
     <use style="fill:#1f77b4;stroke:#1f77b4;" x="212.311591" xlink:href="#m16e69fbb05" y="26.89924"/>
     <use style="fill:#1f77b4;stroke:#1f77b4;" x="215.355227" xlink:href="#m16e69fbb05" y="31.130444"/>
     <use style="fill:#1f77b4;stroke:#1f77b4;" x="218.398864" xlink:href="#m16e69fbb05" y="28.340311"/>
     <use style="fill:#1f77b4;stroke:#1f77b4;" x="221.4425" xlink:href="#m16e69fbb05" y="55.323164"/>
     <use style="fill:#1f77b4;stroke:#1f77b4;" x="224.486136" xlink:href="#m16e69fbb05" y="58.493397"/>
     <use style="fill:#1f77b4;stroke:#1f77b4;" x="227.529773" xlink:href="#m16e69fbb05" y="90.237288"/>
     <use style="fill:#1f77b4;stroke:#1f77b4;" x="230.573409" xlink:href="#m16e69fbb05" y="99.87471"/>
     <use style="fill:#1f77b4;stroke:#1f77b4;" x="233.617045" xlink:href="#m16e69fbb05" y="108.24522"/>
     <use style="fill:#1f77b4;stroke:#1f77b4;" x="236.660682" xlink:href="#m16e69fbb05" y="125.060999"/>
     <use style="fill:#1f77b4;stroke:#1f77b4;" x="239.704318" xlink:href="#m16e69fbb05" y="141.827966"/>
     <use style="fill:#1f77b4;stroke:#1f77b4;" x="242.747955" xlink:href="#m16e69fbb05" y="155.085187"/>
     <use style="fill:#1f77b4;stroke:#1f77b4;" x="245.791591" xlink:href="#m16e69fbb05" y="174.219102"/>
     <use style="fill:#1f77b4;stroke:#1f77b4;" x="248.835227" xlink:href="#m16e69fbb05" y="181.600971"/>
     <use style="fill:#1f77b4;stroke:#1f77b4;" x="251.878864" xlink:href="#m16e69fbb05" y="184.904668"/>
     <use style="fill:#1f77b4;stroke:#1f77b4;" x="254.9225" xlink:href="#m16e69fbb05" y="186.630568"/>
     <use style="fill:#1f77b4;stroke:#1f77b4;" x="257.966136" xlink:href="#m16e69fbb05" y="186.815816"/>
     <use style="fill:#1f77b4;stroke:#1f77b4;" x="261.009773" xlink:href="#m16e69fbb05" y="188.568967"/>
     <use style="fill:#1f77b4;stroke:#1f77b4;" x="264.053409" xlink:href="#m16e69fbb05" y="204.058731"/>
     <use style="fill:#1f77b4;stroke:#1f77b4;" x="267.097045" xlink:href="#m16e69fbb05" y="201.27396"/>
     <use style="fill:#1f77b4;stroke:#1f77b4;" x="270.140682" xlink:href="#m16e69fbb05" y="207.042846"/>
     <use style="fill:#1f77b4;stroke:#1f77b4;" x="273.184318" xlink:href="#m16e69fbb05" y="200.601059"/>
     <use style="fill:#1f77b4;stroke:#1f77b4;" x="276.227955" xlink:href="#m16e69fbb05" y="196.176453"/>
     <use style="fill:#1f77b4;stroke:#1f77b4;" x="279.271591" xlink:href="#m16e69fbb05" y="207.438781"/>
     <use style="fill:#1f77b4;stroke:#1f77b4;" x="282.315227" xlink:href="#m16e69fbb05" y="189.476182"/>
     <use style="fill:#1f77b4;stroke:#1f77b4;" x="285.358864" xlink:href="#m16e69fbb05" y="195.786317"/>
     <use style="fill:#1f77b4;stroke:#1f77b4;" x="288.4025" xlink:href="#m16e69fbb05" y="191.901872"/>
     <use style="fill:#1f77b4;stroke:#1f77b4;" x="291.446136" xlink:href="#m16e69fbb05" y="201.196049"/>
     <use style="fill:#1f77b4;stroke:#1f77b4;" x="294.489773" xlink:href="#m16e69fbb05" y="198.824426"/>
     <use style="fill:#1f77b4;stroke:#1f77b4;" x="297.533409" xlink:href="#m16e69fbb05" y="193.293768"/>
     <use style="fill:#1f77b4;stroke:#1f77b4;" x="300.577045" xlink:href="#m16e69fbb05" y="195.918911"/>
     <use style="fill:#1f77b4;stroke:#1f77b4;" x="303.620682" xlink:href="#m16e69fbb05" y="187.428924"/>
     <use style="fill:#1f77b4;stroke:#1f77b4;" x="306.664318" xlink:href="#m16e69fbb05" y="193.656147"/>
     <use style="fill:#1f77b4;stroke:#1f77b4;" x="309.707955" xlink:href="#m16e69fbb05" y="195.527651"/>
     <use style="fill:#1f77b4;stroke:#1f77b4;" x="312.751591" xlink:href="#m16e69fbb05" y="198.036289"/>
     <use style="fill:#1f77b4;stroke:#1f77b4;" x="315.795227" xlink:href="#m16e69fbb05" y="191.795151"/>
     <use style="fill:#1f77b4;stroke:#1f77b4;" x="318.838864" xlink:href="#m16e69fbb05" y="198.152105"/>
     <use style="fill:#1f77b4;stroke:#1f77b4;" x="321.8825" xlink:href="#m16e69fbb05" y="193.076087"/>
     <use style="fill:#1f77b4;stroke:#1f77b4;" x="324.926136" xlink:href="#m16e69fbb05" y="195.966636"/>
     <use style="fill:#1f77b4;stroke:#1f77b4;" x="327.969773" xlink:href="#m16e69fbb05" y="193.998087"/>
     <use style="fill:#1f77b4;stroke:#1f77b4;" x="331.013409" xlink:href="#m16e69fbb05" y="187.901611"/>
     <use style="fill:#1f77b4;stroke:#1f77b4;" x="334.057045" xlink:href="#m16e69fbb05" y="199.906525"/>
     <use style="fill:#1f77b4;stroke:#1f77b4;" x="337.100682" xlink:href="#m16e69fbb05" y="190.774947"/>
     <use style="fill:#1f77b4;stroke:#1f77b4;" x="340.144318" xlink:href="#m16e69fbb05" y="205.261828"/>
    </g>
   </g>
   <g id="line2d_14">
    <path clip-path="url(#p4697d73d94)" d="M 35.780682 202.829998 
L 38.824318 202.829826 
L 41.867955 202.82955 
L 44.911591 202.829113 
L 47.955227 202.82843 
L 50.998864 202.827371 
L 54.0425 202.825748 
L 57.086136 202.823285 
L 60.129773 202.819588 
L 63.173409 202.814094 
L 66.217045 202.806019 
L 69.260682 202.794273 
L 72.304318 202.77737 
L 75.347955 202.753302 
L 78.391591 202.719397 
L 81.435227 202.672147 
L 84.478864 202.607003 
L 87.5225 202.518156 
L 90.566136 202.398296 
L 93.609773 202.238355 
L 96.653409 202.027264 
L 99.697045 201.751732 
L 102.740682 201.396072 
L 105.784318 200.942106 
L 108.827955 200.369179 
L 111.871591 199.654327 
L 114.915227 198.772618 
L 117.958864 197.697712 
L 121.0025 196.402651 
L 124.046136 194.860911 
L 127.089773 193.047683 
L 130.133409 190.941385 
L 133.177045 188.525345 
L 136.220682 185.789582 
L 139.264318 182.732601 
L 142.307955 179.363067 
L 145.351591 175.701255 
L 148.395227 171.780115 
L 151.438864 167.645835 
L 154.4825 163.357787 
L 157.526136 158.987765 
L 160.569773 154.618471 
L 163.613409 150.341262 
L 166.657045 146.2532 
L 169.700682 142.45354 
L 172.744318 139.039802 
L 175.787955 136.103664 
L 178.831591 133.726882 
L 181.875227 131.977521 
L 184.918864 130.906719 
L 187.9625 130.546201 
L 191.006136 130.906719 
L 194.049773 131.977521 
L 197.093409 133.726882 
L 200.137045 136.103664 
L 203.180682 139.039802 
L 206.224318 142.45354 
L 209.267955 146.2532 
L 212.311591 150.341262 
L 215.355227 154.618471 
L 218.398864 158.987765 
L 221.4425 163.357787 
L 224.486136 167.645835 
L 227.529773 171.780115 
L 230.573409 175.701255 
L 233.617045 179.363067 
L 236.660682 182.732601 
L 239.704318 185.789582 
L 242.747955 188.525345 
L 245.791591 190.941385 
L 248.835227 193.047683 
L 251.878864 194.860911 
L 254.9225 196.402651 
L 257.966136 197.697712 
L 261.009773 198.772618 
L 264.053409 199.654327 
L 267.097045 200.369179 
L 270.140682 200.942106 
L 273.184318 201.396072 
L 276.227955 201.751732 
L 279.271591 202.027264 
L 282.315227 202.238355 
L 285.358864 202.398296 
L 288.4025 202.518156 
L 291.446136 202.607003 
L 294.489773 202.672147 
L 297.533409 202.719397 
L 300.577045 202.753302 
L 303.620682 202.77737 
L 306.664318 202.794273 
L 309.707955 202.806019 
L 312.751591 202.814094 
L 315.795227 202.819588 
L 318.838864 202.823285 
L 321.8825 202.825748 
L 324.926136 202.827371 
L 327.969773 202.82843 
L 331.013409 202.829113 
L 334.057045 202.82955 
L 337.100682 202.829826 
L 340.144318 202.829998 
" style="fill:none;stroke:#ff7f0e;stroke-dasharray:5.55,2.4;stroke-dashoffset:0;stroke-width:1.5;"/>
   </g>
   <g id="line2d_15">
    <path clip-path="url(#p4697d73d94)" d="M 35.780682 202.830267 
L 38.824318 202.830267 
L 41.867955 202.830267 
L 44.911591 202.830267 
L 47.955227 202.830267 
L 50.998864 202.830267 
L 54.0425 202.830267 
L 57.086136 202.830267 
L 60.129773 202.830267 
L 63.173409 202.830267 
L 66.217045 202.830267 
L 69.260682 202.830267 
L 72.304318 202.830267 
L 75.347955 202.830267 
L 78.391591 202.830266 
L 81.435227 202.830264 
L 84.478864 202.830259 
L 87.5225 202.830249 
L 90.566136 202.830226 
L 93.609773 202.830176 
L 96.653409 202.830071 
L 99.697045 202.829855 
L 102.740682 202.82942 
L 105.784318 202.828561 
L 108.827955 202.8269 
L 111.871591 202.823757 
L 114.915227 202.817936 
L 117.958864 202.807387 
L 121.0025 202.788676 
L 124.046136 202.756201 
L 127.089773 202.701054 
L 130.133409 202.609428 
L 133.177045 202.460507 
L 136.220682 202.223753 
L 139.264318 201.855639 
L 142.307955 201.295952 
L 145.351591 200.463982 
L 148.395227 199.255097 
L 151.438864 197.538465 
L 154.4825 195.156871 
L 157.526136 191.929708 
L 160.569773 187.660215 
L 163.613409 182.14779 
L 166.657045 175.20572 
L 169.700682 166.683876 
L 172.744318 156.494977 
L 175.787955 144.641926 
L 178.831591 131.242763 
L 181.875227 116.549177 
L 184.918864 100.954431 
L 187.9625 84.987237 
L 191.006136 69.289529 
L 194.049773 54.578185 
L 197.093409 41.593165 
L 200.137045 31.036926 
L 203.180682 23.511881 
L 206.224318 19.463564 
L 209.267955 19.13698 
L 212.311591 22.552051 
L 215.355227 29.50161 
L 218.398864 39.572199 
L 221.4425 52.184794 
L 224.486136 66.649845 
L 227.529773 82.229402 
L 230.573409 98.198556 
L 233.617045 113.899224 
L 236.660682 128.781028 
L 239.704318 142.426368 
L 242.747955 154.559244 
L 245.791591 165.039545 
L 248.835227 173.846086 
L 251.878864 181.052466 
L 254.9225 186.799874 
L 257.966136 191.270436 
L 261.009773 194.663768 
L 264.053409 197.178327 
L 267.097045 198.998172 
L 270.140682 200.284889 
L 273.184318 201.173943 
L 276.227955 201.774385 
L 279.271591 202.170846 
L 282.315227 202.426819 
L 285.358864 202.588449 
L 288.4025 202.688274 
L 291.446136 202.748586 
L 294.489773 202.784236 
L 297.533409 202.804854 
L 300.577045 202.816522 
L 303.620682 202.822984 
L 306.664318 202.826487 
L 309.707955 202.828345 
L 312.751591 202.82931 
L 315.795227 202.8298 
L 318.838864 202.830044 
L 321.8825 202.830163 
L 324.926136 202.830219 
L 327.969773 202.830246 
L 331.013409 202.830258 
L 334.057045 202.830263 
L 337.100682 202.830266 
L 340.144318 202.830267 
" style="fill:none;stroke:#2ca02c;stroke-linecap:square;stroke-width:1.5;"/>
   </g>
   <g id="patch_3">
    <path d="M 20.5625 224.64 
L 20.5625 7.2 
" style="fill:none;stroke:#000000;stroke-linecap:square;stroke-linejoin:miter;stroke-width:0.8;"/>
   </g>
   <g id="patch_4">
    <path d="M 355.3625 224.64 
L 355.3625 7.2 
" style="fill:none;stroke:#000000;stroke-linecap:square;stroke-linejoin:miter;stroke-width:0.8;"/>
   </g>
   <g id="patch_5">
    <path d="M 20.5625 224.64 
L 355.3625 224.64 
" style="fill:none;stroke:#000000;stroke-linecap:square;stroke-linejoin:miter;stroke-width:0.8;"/>
   </g>
   <g id="patch_6">
    <path d="M 20.5625 7.2 
L 355.3625 7.2 
" style="fill:none;stroke:#000000;stroke-linecap:square;stroke-linejoin:miter;stroke-width:0.8;"/>
   </g>
   <g id="legend_1">
    <g id="patch_7">
     <path d="M 275.467188 44.55625 
L 348.3625 44.55625 
Q 350.3625 44.55625 350.3625 42.55625 
L 350.3625 14.2 
Q 350.3625 12.2 348.3625 12.2 
L 275.467188 12.2 
Q 273.467188 12.2 273.467188 14.2 
L 273.467188 42.55625 
Q 273.467188 44.55625 275.467188 44.55625 
z
" style="fill:#ffffff;opacity:0.8;stroke:#cccccc;stroke-linejoin:miter;"/>
    </g>
    <g id="line2d_16">
     <path d="M 277.467188 20.298437 
L 297.467188 20.298437 
" style="fill:none;stroke:#ff7f0e;stroke-dasharray:5.55,2.4;stroke-dashoffset:0;stroke-width:1.5;"/>
    </g>
    <g id="line2d_17"/>
    <g id="text_13">
     <!-- initial fit -->
     <g transform="translate(305.467188 23.798437)scale(0.1 -0.1)">
      <defs>
       <path d="M 603 3500 
L 1178 3500 
L 1178 0 
L 603 0 
L 603 3500 
z
M 603 4863 
L 1178 4863 
L 1178 4134 
L 603 4134 
L 603 4863 
z
" id="DejaVuSans-69" transform="scale(0.015625)"/>
       <path d="M 3513 2113 
L 3513 0 
L 2938 0 
L 2938 2094 
Q 2938 2591 2744 2837 
Q 2550 3084 2163 3084 
Q 1697 3084 1428 2787 
Q 1159 2491 1159 1978 
L 1159 0 
L 581 0 
L 581 3500 
L 1159 3500 
L 1159 2956 
Q 1366 3272 1645 3428 
Q 1925 3584 2291 3584 
Q 2894 3584 3203 3211 
Q 3513 2838 3513 2113 
z
" id="DejaVuSans-6e" transform="scale(0.015625)"/>
       <path d="M 1172 4494 
L 1172 3500 
L 2356 3500 
L 2356 3053 
L 1172 3053 
L 1172 1153 
Q 1172 725 1289 603 
Q 1406 481 1766 481 
L 2356 481 
L 2356 0 
L 1766 0 
Q 1100 0 847 248 
Q 594 497 594 1153 
L 594 3053 
L 172 3053 
L 172 3500 
L 594 3500 
L 594 4494 
L 1172 4494 
z
" id="DejaVuSans-74" transform="scale(0.015625)"/>
       <path d="M 2194 1759 
Q 1497 1759 1228 1600 
Q 959 1441 959 1056 
Q 959 750 1161 570 
Q 1363 391 1709 391 
Q 2188 391 2477 730 
Q 2766 1069 2766 1631 
L 2766 1759 
L 2194 1759 
z
M 3341 1997 
L 3341 0 
L 2766 0 
L 2766 531 
Q 2569 213 2275 61 
Q 1981 -91 1556 -91 
Q 1019 -91 701 211 
Q 384 513 384 1019 
Q 384 1609 779 1909 
Q 1175 2209 1959 2209 
L 2766 2209 
L 2766 2266 
Q 2766 2663 2505 2880 
Q 2244 3097 1772 3097 
Q 1472 3097 1187 3025 
Q 903 2953 641 2809 
L 641 3341 
Q 956 3463 1253 3523 
Q 1550 3584 1831 3584 
Q 2591 3584 2966 3190 
Q 3341 2797 3341 1997 
z
" id="DejaVuSans-61" transform="scale(0.015625)"/>
       <path d="M 603 4863 
L 1178 4863 
L 1178 0 
L 603 0 
L 603 4863 
z
" id="DejaVuSans-6c" transform="scale(0.015625)"/>
       <path id="DejaVuSans-20" transform="scale(0.015625)"/>
       <path d="M 2375 4863 
L 2375 4384 
L 1825 4384 
Q 1516 4384 1395 4259 
Q 1275 4134 1275 3809 
L 1275 3500 
L 2222 3500 
L 2222 3053 
L 1275 3053 
L 1275 0 
L 697 0 
L 697 3053 
L 147 3053 
L 147 3500 
L 697 3500 
L 697 3744 
Q 697 4328 969 4595 
Q 1241 4863 1831 4863 
L 2375 4863 
z
" id="DejaVuSans-66" transform="scale(0.015625)"/>
      </defs>
      <use xlink:href="#DejaVuSans-69"/>
      <use x="27.783203" xlink:href="#DejaVuSans-6e"/>
      <use x="91.162109" xlink:href="#DejaVuSans-69"/>
      <use x="118.945312" xlink:href="#DejaVuSans-74"/>
      <use x="158.154297" xlink:href="#DejaVuSans-69"/>
      <use x="185.9375" xlink:href="#DejaVuSans-61"/>
      <use x="247.216797" xlink:href="#DejaVuSans-6c"/>
      <use x="275" xlink:href="#DejaVuSans-20"/>
      <use x="306.787109" xlink:href="#DejaVuSans-66"/>
      <use x="341.992188" xlink:href="#DejaVuSans-69"/>
      <use x="369.775391" xlink:href="#DejaVuSans-74"/>
     </g>
    </g>
    <g id="line2d_18">
     <path d="M 277.467188 34.976562 
L 297.467188 34.976562 
" style="fill:none;stroke:#2ca02c;stroke-linecap:square;stroke-width:1.5;"/>
    </g>
    <g id="line2d_19"/>
    <g id="text_14">
     <!-- best fit -->
     <g transform="translate(305.467188 38.476562)scale(0.1 -0.1)">
      <defs>
       <path d="M 3116 1747 
Q 3116 2381 2855 2742 
Q 2594 3103 2138 3103 
Q 1681 3103 1420 2742 
Q 1159 2381 1159 1747 
Q 1159 1113 1420 752 
Q 1681 391 2138 391 
Q 2594 391 2855 752 
Q 3116 1113 3116 1747 
z
M 1159 2969 
Q 1341 3281 1617 3432 
Q 1894 3584 2278 3584 
Q 2916 3584 3314 3078 
Q 3713 2572 3713 1747 
Q 3713 922 3314 415 
Q 2916 -91 2278 -91 
Q 1894 -91 1617 61 
Q 1341 213 1159 525 
L 1159 0 
L 581 0 
L 581 4863 
L 1159 4863 
L 1159 2969 
z
" id="DejaVuSans-62" transform="scale(0.015625)"/>
       <path d="M 3597 1894 
L 3597 1613 
L 953 1613 
Q 991 1019 1311 708 
Q 1631 397 2203 397 
Q 2534 397 2845 478 
Q 3156 559 3463 722 
L 3463 178 
Q 3153 47 2828 -22 
Q 2503 -91 2169 -91 
Q 1331 -91 842 396 
Q 353 884 353 1716 
Q 353 2575 817 3079 
Q 1281 3584 2069 3584 
Q 2775 3584 3186 3129 
Q 3597 2675 3597 1894 
z
M 3022 2063 
Q 3016 2534 2758 2815 
Q 2500 3097 2075 3097 
Q 1594 3097 1305 2825 
Q 1016 2553 972 2059 
L 3022 2063 
z
" id="DejaVuSans-65" transform="scale(0.015625)"/>
       <path d="M 2834 3397 
L 2834 2853 
Q 2591 2978 2328 3040 
Q 2066 3103 1784 3103 
Q 1356 3103 1142 2972 
Q 928 2841 928 2578 
Q 928 2378 1081 2264 
Q 1234 2150 1697 2047 
L 1894 2003 
Q 2506 1872 2764 1633 
Q 3022 1394 3022 966 
Q 3022 478 2636 193 
Q 2250 -91 1575 -91 
Q 1294 -91 989 -36 
Q 684 19 347 128 
L 347 722 
Q 666 556 975 473 
Q 1284 391 1588 391 
Q 1994 391 2212 530 
Q 2431 669 2431 922 
Q 2431 1156 2273 1281 
Q 2116 1406 1581 1522 
L 1381 1569 
Q 847 1681 609 1914 
Q 372 2147 372 2553 
Q 372 3047 722 3315 
Q 1072 3584 1716 3584 
Q 2034 3584 2315 3537 
Q 2597 3491 2834 3397 
z
" id="DejaVuSans-73" transform="scale(0.015625)"/>
      </defs>
      <use xlink:href="#DejaVuSans-62"/>
      <use x="63.476562" xlink:href="#DejaVuSans-65"/>
      <use x="125" xlink:href="#DejaVuSans-73"/>
      <use x="177.099609" xlink:href="#DejaVuSans-74"/>
      <use x="216.308594" xlink:href="#DejaVuSans-20"/>
      <use x="248.095703" xlink:href="#DejaVuSans-66"/>
      <use x="283.300781" xlink:href="#DejaVuSans-69"/>
      <use x="311.083984" xlink:href="#DejaVuSans-74"/>
     </g>
    </g>
   </g>
  </g>
 </g>
 <defs>
  <clipPath id="p4697d73d94">
   <rect height="217.44" width="334.8" x="20.5625" y="7.2"/>
  </clipPath>
 </defs>
</svg>
