<?xml version="1.0" encoding="utf-8" standalone="no"?>
<!DOCTYPE svg PUBLIC "-//W3C//DTD SVG 1.1//EN"
  "http://www.w3.org/Graphics/SVG/1.1/DTD/svg11.dtd">
<svg height="248.518125pt" version="1.1" viewBox="0 0 362.5625 248.518125" width="362.5625pt" xmlns="http://www.w3.org/2000/svg" xmlns:xlink="http://www.w3.org/1999/xlink">
 <metadata>
  <rdf:RDF xmlns:cc="http://creativecommons.org/ns#" xmlns:dc="http://purl.org/dc/elements/1.1/" xmlns:rdf="http://www.w3.org/1999/02/22-rdf-syntax-ns#">
   <cc:Work>
    <dc:type rdf:resource="http://purl.org/dc/dcmitype/StillImage"/>
    <dc:date>2021-10-14T14:45:01.856336</dc:date>
    <dc:format>image/svg+xml</dc:format>
    <dc:creator>
     <cc:Agent>
      <dc:title>Matplotlib v3.4.2, https://matplotlib.org/</dc:title>
     </cc:Agent>
    </dc:creator>
   </cc:Work>
  </rdf:RDF>
 </metadata>
 <defs>
  <style type="text/css">*{stroke-linecap:butt;stroke-linejoin:round;}</style>
 </defs>
 <g id="figure_1">
  <g id="patch_1">
   <path d="M 0 248.518125 
L 362.5625 248.518125 
L 362.5625 0 
L 0 0 
z
" style="fill:none;"/>
  </g>
  <g id="axes_1">
   <g id="patch_2">
    <path d="M 20.5625 224.64 
L 355.3625 224.64 
L 355.3625 7.2 
L 20.5625 7.2 
z
" style="fill:#ffffff;"/>
   </g>
   <g id="PolyCollection_1">
    <defs>
     <path d="M 35.780682 -45.383297 
L 35.780682 -45.383297 
L 38.824318 -45.383297 
L 41.867955 -45.383297 
L 44.911591 -45.383297 
L 47.955227 -45.383297 
L 50.998864 -45.383297 
L 54.0425 -45.383297 
L 57.086136 -45.383297 
L 60.129773 -45.383297 
L 63.173409 -45.383297 
L 66.217045 -45.383297 
L 69.260682 -45.383297 
L 72.304318 -45.383297 
L 75.347955 -45.383296 
L 78.391591 -45.383296 
L 81.435227 -45.383295 
L 84.478864 -45.383293 
L 87.5225 -45.383288 
L 90.566136 -45.383281 
L 93.609773 -45.383268 
L 96.653409 -45.383248 
L 99.697045 -45.383222 
L 102.740682 -45.383198 
L 105.784318 -45.383204 
L 108.827955 -45.383317 
L 111.871591 -45.383718 
L 114.915227 -45.384794 
L 117.958864 -45.387329 
L 121.0025 -45.392831 
L 124.046136 -45.404063 
L 127.089773 -45.425896 
L 130.133409 -45.466583 
L 133.177045 -45.539613 
L 136.220682 -45.666246 
L 139.264318 -45.878837 
L 142.307955 -46.224896 
L 145.351591 -46.771708 
L 148.395227 -47.611077 
L 151.438864 -48.863441 
L 154.4825 -50.680305 
L 157.526136 -53.243658 
L 160.569773 -56.760876 
L 163.613409 -61.453763 
L 166.657045 -67.540763 
L 169.700682 -75.212253 
L 172.744318 -84.599928 
L 175.787955 -95.742755 
L 178.831591 -108.553377 
L 181.875227 -122.790135 
L 184.918864 -138.041096 
L 187.9625 -153.72779 
L 191.006136 -169.137707 
L 194.049773 -183.491512 
L 197.093409 -196.034086 
L 200.137045 -206.114811 
L 203.180682 -213.229144 
L 206.224318 -217.030722 
L 209.267955 -217.336607 
L 212.311591 -214.132118 
L 215.355227 -207.571325 
L 218.398864 -197.97267 
L 221.4425 -185.81374 
L 224.486136 -171.721686 
L 227.529773 -156.438365 
L 230.573409 -140.74567 
L 233.617045 -125.373452 
L 236.660682 -110.926669 
L 239.704318 -97.847056 
L 242.747955 -86.405065 
L 245.791591 -76.713028 
L 248.835227 -68.751539 
L 251.878864 -62.40248 
L 254.9225 -57.483314 
L 257.966136 -53.778501 
L 261.009773 -51.06535 
L 264.053409 -49.133015 
L 267.097045 -47.7946 
L 270.140682 -46.893168 
L 273.184318 -46.303008 
L 276.227955 -45.92762 
L 279.271591 -45.695804 
L 282.315227 -45.556966 
L 285.358864 -45.476438 
L 288.4025 -45.431295 
L 291.446136 -45.406907 
L 294.489773 -45.394263 
L 297.533409 -45.388012 
L 300.577045 -45.385098 
L 303.620682 -45.38384 
L 306.664318 -45.383359 
L 309.707955 -45.383213 
L 312.751591 -45.383196 
L 315.795227 -45.383218 
L 318.838864 -45.383244 
L 321.8825 -45.383265 
L 324.926136 -45.383279 
L 327.969773 -45.383287 
L 331.013409 -45.383292 
L 334.057045 -45.383294 
L 337.100682 -45.383296 
L 340.144318 -45.383296 
L 340.144318 -45.383299 
L 340.144318 -45.383299 
L 337.100682 -45.383301 
L 334.057045 -45.383307 
L 331.013409 -45.38332 
L 327.969773 -45.383349 
L 324.926136 -45.383408 
L 321.8825 -45.383533 
L 318.838864 -45.383785 
L 315.795227 -45.384287 
L 312.751591 -45.385265 
L 309.707955 -45.387128 
L 306.664318 -45.390603 
L 303.620682 -45.396948 
L 300.577045 -45.408285 
L 297.533409 -45.428111 
L 294.489773 -45.462044 
L 291.446136 -45.518878 
L 288.4025 -45.612033 
L 285.358864 -45.761442 
L 282.315227 -45.995918 
L 279.271591 -46.355953 
L 276.227955 -46.89681 
L 273.184318 -47.691639 
L 270.140682 -48.834178 
L 267.097045 -50.440463 
L 264.053409 -52.648789 
L 261.009773 -55.617143 
L 257.966136 -59.517341 
L 254.9225 -64.52532 
L 251.878864 -70.807423 
L 248.835227 -78.50306 
L 245.791591 -87.704861 
L 242.747955 -98.438149 
L 239.704318 -110.642228 
L 236.660682 -124.156364 
L 233.617045 -138.713106 
L 230.573409 -153.940317 
L 227.529773 -169.370312 
L 224.486136 -184.450384 
L 221.4425 -198.549635 
L 218.398864 -210.971709 
L 215.355227 -220.999881 
L 212.311591 -227.983259 
L 209.267955 -231.434489 
L 206.224318 -231.103886 
L 203.180682 -227.015597 
L 200.137045 -219.464178 
L 197.093409 -208.971583 
L 194.049773 -196.207321 
L 191.006136 -181.889816 
L 187.9625 -166.706072 
L 184.918864 -151.273896 
L 181.875227 -136.131863 
L 178.831591 -121.731919 
L 175.787955 -108.428571 
L 172.744318 -96.470687 
L 169.700682 -86.00096 
L 166.657045 -77.064011 
L 163.613409 -69.621435 
L 160.569773 -63.571018 
L 157.526136 -58.767312 
L 154.4825 -55.041165 
L 151.438864 -52.216481 
L 148.395227 -50.123257 
L 145.351591 -48.606599 
L 142.307955 -47.531964 
L 139.264318 -46.787235 
L 136.220682 -46.282399 
L 133.177045 -45.947616 
L 130.133409 -45.730409 
L 127.089773 -45.592526 
L 124.046136 -45.50688 
L 121.0025 -45.454822 
L 117.958864 -45.423858 
L 114.915227 -45.405833 
L 111.871591 -45.395565 
L 108.827955 -45.38984 
L 105.784318 -45.386715 
L 102.740682 -45.385047 
L 99.697045 -45.384174 
L 96.653409 -45.383728 
L 93.609773 -45.383504 
L 90.566136 -45.383395 
L 87.5225 -45.383342 
L 84.478864 -45.383317 
L 81.435227 -45.383306 
L 78.391591 -45.383301 
L 75.347955 -45.383299 
L 72.304318 -45.383298 
L 69.260682 -45.383297 
L 66.217045 -45.383297 
L 63.173409 -45.383297 
L 60.129773 -45.383297 
L 57.086136 -45.383297 
L 54.0425 -45.383297 
L 50.998864 -45.383297 
L 47.955227 -45.383297 
L 44.911591 -45.383297 
L 41.867955 -45.383297 
L 38.824318 -45.383297 
L 35.780682 -45.383297 
z
" id="ma717e91072" style="stroke:#ababab;"/>
    </defs>
    <g clip-path="url(#p2e9096f37e)">
     <use style="fill:#ababab;stroke:#ababab;" x="0" xlink:href="#ma717e91072" y="248.518125"/>
    </g>
   </g>
   <g id="matplotlib.axis_1">
    <g id="xtick_1">
     <g id="line2d_1">
      <defs>
       <path d="M 0 0 
L 0 3.5 
" id="m3abdb43c68" style="stroke:#000000;stroke-width:0.8;"/>
      </defs>
      <g>
       <use style="stroke:#000000;stroke-width:0.8;" x="35.780682" xlink:href="#m3abdb43c68" y="224.64"/>
      </g>
     </g>
     <g id="text_1">
      <!-- 0 -->
      <g transform="translate(32.599432 239.238437)scale(0.1 -0.1)">
       <defs>
        <path d="M 2034 4250 
Q 1547 4250 1301 3770 
Q 1056 3291 1056 2328 
Q 1056 1369 1301 889 
Q 1547 409 2034 409 
Q 2525 409 2770 889 
Q 3016 1369 3016 2328 
Q 3016 3291 2770 3770 
Q 2525 4250 2034 4250 
z
M 2034 4750 
Q 2819 4750 3233 4129 
Q 3647 3509 3647 2328 
Q 3647 1150 3233 529 
Q 2819 -91 2034 -91 
Q 1250 -91 836 529 
Q 422 1150 422 2328 
Q 422 3509 836 4129 
Q 1250 4750 2034 4750 
z
" id="DejaVuSans-30" transform="scale(0.015625)"/>
       </defs>
       <use xlink:href="#DejaVuSans-30"/>
      </g>
     </g>
    </g>
    <g id="xtick_2">
     <g id="line2d_2">
      <g>
       <use style="stroke:#000000;stroke-width:0.8;" x="96.653409" xlink:href="#m3abdb43c68" y="224.64"/>
      </g>
     </g>
     <g id="text_2">
      <!-- 2 -->
      <g transform="translate(93.472159 239.238437)scale(0.1 -0.1)">
       <defs>
        <path d="M 1228 531 
L 3431 531 
L 3431 0 
L 469 0 
L 469 531 
Q 828 903 1448 1529 
Q 2069 2156 2228 2338 
Q 2531 2678 2651 2914 
Q 2772 3150 2772 3378 
Q 2772 3750 2511 3984 
Q 2250 4219 1831 4219 
Q 1534 4219 1204 4116 
Q 875 4013 500 3803 
L 500 4441 
Q 881 4594 1212 4672 
Q 1544 4750 1819 4750 
Q 2544 4750 2975 4387 
Q 3406 4025 3406 3419 
Q 3406 3131 3298 2873 
Q 3191 2616 2906 2266 
Q 2828 2175 2409 1742 
Q 1991 1309 1228 531 
z
" id="DejaVuSans-32" transform="scale(0.015625)"/>
       </defs>
       <use xlink:href="#DejaVuSans-32"/>
      </g>
     </g>
    </g>
    <g id="xtick_3">
     <g id="line2d_3">
      <g>
       <use style="stroke:#000000;stroke-width:0.8;" x="157.526136" xlink:href="#m3abdb43c68" y="224.64"/>
      </g>
     </g>
     <g id="text_3">
      <!-- 4 -->
      <g transform="translate(154.344886 239.238437)scale(0.1 -0.1)">
       <defs>
        <path d="M 2419 4116 
L 825 1625 
L 2419 1625 
L 2419 4116 
z
M 2253 4666 
L 3047 4666 
L 3047 1625 
L 3713 1625 
L 3713 1100 
L 3047 1100 
L 3047 0 
L 2419 0 
L 2419 1100 
L 313 1100 
L 313 1709 
L 2253 4666 
z
" id="DejaVuSans-34" transform="scale(0.015625)"/>
       </defs>
       <use xlink:href="#DejaVuSans-34"/>
      </g>
     </g>
    </g>
    <g id="xtick_4">
     <g id="line2d_4">
      <g>
       <use style="stroke:#000000;stroke-width:0.8;" x="218.398864" xlink:href="#m3abdb43c68" y="224.64"/>
      </g>
     </g>
     <g id="text_4">
      <!-- 6 -->
      <g transform="translate(215.217614 239.238437)scale(0.1 -0.1)">
       <defs>
        <path d="M 2113 2584 
Q 1688 2584 1439 2293 
Q 1191 2003 1191 1497 
Q 1191 994 1439 701 
Q 1688 409 2113 409 
Q 2538 409 2786 701 
Q 3034 994 3034 1497 
Q 3034 2003 2786 2293 
Q 2538 2584 2113 2584 
z
M 3366 4563 
L 3366 3988 
Q 3128 4100 2886 4159 
Q 2644 4219 2406 4219 
Q 1781 4219 1451 3797 
Q 1122 3375 1075 2522 
Q 1259 2794 1537 2939 
Q 1816 3084 2150 3084 
Q 2853 3084 3261 2657 
Q 3669 2231 3669 1497 
Q 3669 778 3244 343 
Q 2819 -91 2113 -91 
Q 1303 -91 875 529 
Q 447 1150 447 2328 
Q 447 3434 972 4092 
Q 1497 4750 2381 4750 
Q 2619 4750 2861 4703 
Q 3103 4656 3366 4563 
z
" id="DejaVuSans-36" transform="scale(0.015625)"/>
       </defs>
       <use xlink:href="#DejaVuSans-36"/>
      </g>
     </g>
    </g>
    <g id="xtick_5">
     <g id="line2d_5">
      <g>
       <use style="stroke:#000000;stroke-width:0.8;" x="279.271591" xlink:href="#m3abdb43c68" y="224.64"/>
      </g>
     </g>
     <g id="text_5">
      <!-- 8 -->
      <g transform="translate(276.090341 239.238437)scale(0.1 -0.1)">
       <defs>
        <path d="M 2034 2216 
Q 1584 2216 1326 1975 
Q 1069 1734 1069 1313 
Q 1069 891 1326 650 
Q 1584 409 2034 409 
Q 2484 409 2743 651 
Q 3003 894 3003 1313 
Q 3003 1734 2745 1975 
Q 2488 2216 2034 2216 
z
M 1403 2484 
Q 997 2584 770 2862 
Q 544 3141 544 3541 
Q 544 4100 942 4425 
Q 1341 4750 2034 4750 
Q 2731 4750 3128 4425 
Q 3525 4100 3525 3541 
Q 3525 3141 3298 2862 
Q 3072 2584 2669 2484 
Q 3125 2378 3379 2068 
Q 3634 1759 3634 1313 
Q 3634 634 3220 271 
Q 2806 -91 2034 -91 
Q 1263 -91 848 271 
Q 434 634 434 1313 
Q 434 1759 690 2068 
Q 947 2378 1403 2484 
z
M 1172 3481 
Q 1172 3119 1398 2916 
Q 1625 2713 2034 2713 
Q 2441 2713 2670 2916 
Q 2900 3119 2900 3481 
Q 2900 3844 2670 4047 
Q 2441 4250 2034 4250 
Q 1625 4250 1398 4047 
Q 1172 3844 1172 3481 
z
" id="DejaVuSans-38" transform="scale(0.015625)"/>
       </defs>
       <use xlink:href="#DejaVuSans-38"/>
      </g>
     </g>
    </g>
    <g id="xtick_6">
     <g id="line2d_6">
      <g>
       <use style="stroke:#000000;stroke-width:0.8;" x="340.144318" xlink:href="#m3abdb43c68" y="224.64"/>
      </g>
     </g>
     <g id="text_6">
      <!-- 10 -->
      <g transform="translate(333.781818 239.238437)scale(0.1 -0.1)">
       <defs>
        <path d="M 794 531 
L 1825 531 
L 1825 4091 
L 703 3866 
L 703 4441 
L 1819 4666 
L 2450 4666 
L 2450 531 
L 3481 531 
L 3481 0 
L 794 0 
L 794 531 
z
" id="DejaVuSans-31" transform="scale(0.015625)"/>
       </defs>
       <use xlink:href="#DejaVuSans-31"/>
       <use x="63.623047" xlink:href="#DejaVuSans-30"/>
      </g>
     </g>
    </g>
   </g>
   <g id="matplotlib.axis_2">
    <g id="ytick_1">
     <g id="line2d_7">
      <defs>
       <path d="M 0 0 
L -3.5 0 
" id="m66c7655a3f" style="stroke:#000000;stroke-width:0.8;"/>
      </defs>
      <g>
       <use style="stroke:#000000;stroke-width:0.8;" x="20.5625" xlink:href="#m66c7655a3f" y="203.134828"/>
      </g>
     </g>
     <g id="text_7">
      <!-- 0 -->
      <g transform="translate(7.2 206.934047)scale(0.1 -0.1)">
       <use xlink:href="#DejaVuSans-30"/>
      </g>
     </g>
    </g>
    <g id="ytick_2">
     <g id="line2d_8">
      <g>
       <use style="stroke:#000000;stroke-width:0.8;" x="20.5625" xlink:href="#m66c7655a3f" y="167.822389"/>
      </g>
     </g>
     <g id="text_8">
      <!-- 1 -->
      <g transform="translate(7.2 171.621608)scale(0.1 -0.1)">
       <use xlink:href="#DejaVuSans-31"/>
      </g>
     </g>
    </g>
    <g id="ytick_3">
     <g id="line2d_9">
      <g>
       <use style="stroke:#000000;stroke-width:0.8;" x="20.5625" xlink:href="#m66c7655a3f" y="132.50995"/>
      </g>
     </g>
     <g id="text_9">
      <!-- 2 -->
      <g transform="translate(7.2 136.309169)scale(0.1 -0.1)">
       <use xlink:href="#DejaVuSans-32"/>
      </g>
     </g>
    </g>
    <g id="ytick_4">
     <g id="line2d_10">
      <g>
       <use style="stroke:#000000;stroke-width:0.8;" x="20.5625" xlink:href="#m66c7655a3f" y="97.197511"/>
      </g>
     </g>
     <g id="text_10">
      <!-- 3 -->
      <g transform="translate(7.2 100.99673)scale(0.1 -0.1)">
       <defs>
        <path d="M 2597 2516 
Q 3050 2419 3304 2112 
Q 3559 1806 3559 1356 
Q 3559 666 3084 287 
Q 2609 -91 1734 -91 
Q 1441 -91 1130 -33 
Q 819 25 488 141 
L 488 750 
Q 750 597 1062 519 
Q 1375 441 1716 441 
Q 2309 441 2620 675 
Q 2931 909 2931 1356 
Q 2931 1769 2642 2001 
Q 2353 2234 1838 2234 
L 1294 2234 
L 1294 2753 
L 1863 2753 
Q 2328 2753 2575 2939 
Q 2822 3125 2822 3475 
Q 2822 3834 2567 4026 
Q 2313 4219 1838 4219 
Q 1578 4219 1281 4162 
Q 984 4106 628 3988 
L 628 4550 
Q 988 4650 1302 4700 
Q 1616 4750 1894 4750 
Q 2613 4750 3031 4423 
Q 3450 4097 3450 3541 
Q 3450 3153 3228 2886 
Q 3006 2619 2597 2516 
z
" id="DejaVuSans-33" transform="scale(0.015625)"/>
       </defs>
       <use xlink:href="#DejaVuSans-33"/>
      </g>
     </g>
    </g>
    <g id="ytick_5">
     <g id="line2d_11">
      <g>
       <use style="stroke:#000000;stroke-width:0.8;" x="20.5625" xlink:href="#m66c7655a3f" y="61.885072"/>
      </g>
     </g>
     <g id="text_11">
      <!-- 4 -->
      <g transform="translate(7.2 65.684291)scale(0.1 -0.1)">
       <use xlink:href="#DejaVuSans-34"/>
      </g>
     </g>
    </g>
    <g id="ytick_6">
     <g id="line2d_12">
      <g>
       <use style="stroke:#000000;stroke-width:0.8;" x="20.5625" xlink:href="#m66c7655a3f" y="26.572633"/>
      </g>
     </g>
     <g id="text_12">
      <!-- 5 -->
      <g transform="translate(7.2 30.371852)scale(0.1 -0.1)">
       <defs>
        <path d="M 691 4666 
L 3169 4666 
L 3169 4134 
L 1269 4134 
L 1269 2991 
Q 1406 3038 1543 3061 
Q 1681 3084 1819 3084 
Q 2600 3084 3056 2656 
Q 3513 2228 3513 1497 
Q 3513 744 3044 326 
Q 2575 -91 1722 -91 
Q 1428 -91 1123 -41 
Q 819 9 494 109 
L 494 744 
Q 775 591 1075 516 
Q 1375 441 1709 441 
Q 2250 441 2565 725 
Q 2881 1009 2881 1497 
Q 2881 1984 2565 2268 
Q 2250 2553 1709 2553 
Q 1456 2553 1204 2497 
Q 953 2441 691 2322 
L 691 4666 
z
" id="DejaVuSans-35" transform="scale(0.015625)"/>
       </defs>
       <use xlink:href="#DejaVuSans-35"/>
      </g>
     </g>
    </g>
   </g>
   <g id="line2d_13">
    <defs>
     <path d="M 0 3 
C 0.795609 3 1.55874 2.683901 2.12132 2.12132 
C 2.683901 1.55874 3 0.795609 3 0 
C 3 -0.795609 2.683901 -1.55874 2.12132 -2.12132 
C 1.55874 -2.683901 0.795609 -3 0 -3 
C -0.795609 -3 -1.55874 -2.683901 -2.12132 -2.12132 
C -2.683901 -1.55874 -3 -0.795609 -3 0 
C -3 0.795609 -2.683901 1.55874 -2.12132 2.12132 
C -1.55874 2.683901 -0.795609 3 0 3 
z
" id="m8bb54f68d1" style="stroke:#1f77b4;"/>
    </defs>
    <g clip-path="url(#p2e9096f37e)">
     <use style="fill:#1f77b4;stroke:#1f77b4;" x="35.780682" xlink:href="#m8bb54f68d1" y="213.912043"/>
     <use style="fill:#1f77b4;stroke:#1f77b4;" x="38.824318" xlink:href="#m8bb54f68d1" y="202.960667"/>
     <use style="fill:#1f77b4;stroke:#1f77b4;" x="41.867955" xlink:href="#m8bb54f68d1" y="196.335948"/>
     <use style="fill:#1f77b4;stroke:#1f77b4;" x="44.911591" xlink:href="#m8bb54f68d1" y="199.58102"/>
     <use style="fill:#1f77b4;stroke:#1f77b4;" x="47.955227" xlink:href="#m8bb54f68d1" y="194.483563"/>
     <use style="fill:#1f77b4;stroke:#1f77b4;" x="50.998864" xlink:href="#m8bb54f68d1" y="203.173495"/>
     <use style="fill:#1f77b4;stroke:#1f77b4;" x="54.0425" xlink:href="#m8bb54f68d1" y="203.741849"/>
     <use style="fill:#1f77b4;stroke:#1f77b4;" x="57.086136" xlink:href="#m8bb54f68d1" y="208.019598"/>
     <use style="fill:#1f77b4;stroke:#1f77b4;" x="60.129773" xlink:href="#m8bb54f68d1" y="205.449417"/>
     <use style="fill:#1f77b4;stroke:#1f77b4;" x="63.173409" xlink:href="#m8bb54f68d1" y="197.834819"/>
     <use style="fill:#1f77b4;stroke:#1f77b4;" x="66.217045" xlink:href="#m8bb54f68d1" y="202.358625"/>
     <use style="fill:#1f77b4;stroke:#1f77b4;" x="69.260682" xlink:href="#m8bb54f68d1" y="194.956114"/>
     <use style="fill:#1f77b4;stroke:#1f77b4;" x="72.304318" xlink:href="#m8bb54f68d1" y="196.562406"/>
     <use style="fill:#1f77b4;stroke:#1f77b4;" x="75.347955" xlink:href="#m8bb54f68d1" y="195.218203"/>
     <use style="fill:#1f77b4;stroke:#1f77b4;" x="78.391591" xlink:href="#m8bb54f68d1" y="190.56699"/>
     <use style="fill:#1f77b4;stroke:#1f77b4;" x="81.435227" xlink:href="#m8bb54f68d1" y="205.597765"/>
     <use style="fill:#1f77b4;stroke:#1f77b4;" x="84.478864" xlink:href="#m8bb54f68d1" y="200.93338"/>
     <use style="fill:#1f77b4;stroke:#1f77b4;" x="87.5225" xlink:href="#m8bb54f68d1" y="204.038509"/>
     <use style="fill:#1f77b4;stroke:#1f77b4;" x="90.566136" xlink:href="#m8bb54f68d1" y="201.295756"/>
     <use style="fill:#1f77b4;stroke:#1f77b4;" x="93.609773" xlink:href="#m8bb54f68d1" y="214.756364"/>
     <use style="fill:#1f77b4;stroke:#1f77b4;" x="96.653409" xlink:href="#m8bb54f68d1" y="203.563239"/>
     <use style="fill:#1f77b4;stroke:#1f77b4;" x="99.697045" xlink:href="#m8bb54f68d1" y="195.880311"/>
     <use style="fill:#1f77b4;stroke:#1f77b4;" x="102.740682" xlink:href="#m8bb54f68d1" y="198.964676"/>
     <use style="fill:#1f77b4;stroke:#1f77b4;" x="105.784318" xlink:href="#m8bb54f68d1" y="202.492"/>
     <use style="fill:#1f77b4;stroke:#1f77b4;" x="108.827955" xlink:href="#m8bb54f68d1" y="207.138341"/>
     <use style="fill:#1f77b4;stroke:#1f77b4;" x="111.871591" xlink:href="#m8bb54f68d1" y="206.181056"/>
     <use style="fill:#1f77b4;stroke:#1f77b4;" x="114.915227" xlink:href="#m8bb54f68d1" y="205.774327"/>
     <use style="fill:#1f77b4;stroke:#1f77b4;" x="117.958864" xlink:href="#m8bb54f68d1" y="196.806345"/>
     <use style="fill:#1f77b4;stroke:#1f77b4;" x="121.0025" xlink:href="#m8bb54f68d1" y="197.188284"/>
     <use style="fill:#1f77b4;stroke:#1f77b4;" x="124.046136" xlink:href="#m8bb54f68d1" y="200.735207"/>
     <use style="fill:#1f77b4;stroke:#1f77b4;" x="127.089773" xlink:href="#m8bb54f68d1" y="200.433215"/>
     <use style="fill:#1f77b4;stroke:#1f77b4;" x="130.133409" xlink:href="#m8bb54f68d1" y="187.817422"/>
     <use style="fill:#1f77b4;stroke:#1f77b4;" x="133.177045" xlink:href="#m8bb54f68d1" y="202.460466"/>
     <use style="fill:#1f77b4;stroke:#1f77b4;" x="136.220682" xlink:href="#m8bb54f68d1" y="194.660796"/>
     <use style="fill:#1f77b4;stroke:#1f77b4;" x="139.264318" xlink:href="#m8bb54f68d1" y="202.901519"/>
     <use style="fill:#1f77b4;stroke:#1f77b4;" x="142.307955" xlink:href="#m8bb54f68d1" y="207.413778"/>
     <use style="fill:#1f77b4;stroke:#1f77b4;" x="145.351591" xlink:href="#m8bb54f68d1" y="197.393838"/>
     <use style="fill:#1f77b4;stroke:#1f77b4;" x="148.395227" xlink:href="#m8bb54f68d1" y="201.650646"/>
     <use style="fill:#1f77b4;stroke:#1f77b4;" x="151.438864" xlink:href="#m8bb54f68d1" y="192.939491"/>
     <use style="fill:#1f77b4;stroke:#1f77b4;" x="154.4825" xlink:href="#m8bb54f68d1" y="198.281486"/>
     <use style="fill:#1f77b4;stroke:#1f77b4;" x="157.526136" xlink:href="#m8bb54f68d1" y="182.189149"/>
     <use style="fill:#1f77b4;stroke:#1f77b4;" x="160.569773" xlink:href="#m8bb54f68d1" y="186.170273"/>
     <use style="fill:#1f77b4;stroke:#1f77b4;" x="163.613409" xlink:href="#m8bb54f68d1" y="171.293072"/>
     <use style="fill:#1f77b4;stroke:#1f77b4;" x="166.657045" xlink:href="#m8bb54f68d1" y="172.473708"/>
     <use style="fill:#1f77b4;stroke:#1f77b4;" x="169.700682" xlink:href="#m8bb54f68d1" y="157.170533"/>
     <use style="fill:#1f77b4;stroke:#1f77b4;" x="172.744318" xlink:href="#m8bb54f68d1" y="164.537555"/>
     <use style="fill:#1f77b4;stroke:#1f77b4;" x="175.787955" xlink:href="#m8bb54f68d1" y="149.044293"/>
     <use style="fill:#1f77b4;stroke:#1f77b4;" x="178.831591" xlink:href="#m8bb54f68d1" y="140.543601"/>
     <use style="fill:#1f77b4;stroke:#1f77b4;" x="181.875227" xlink:href="#m8bb54f68d1" y="120.266457"/>
     <use style="fill:#1f77b4;stroke:#1f77b4;" x="184.918864" xlink:href="#m8bb54f68d1" y="107.205268"/>
     <use style="fill:#1f77b4;stroke:#1f77b4;" x="187.9625" xlink:href="#m8bb54f68d1" y="85.436986"/>
     <use style="fill:#1f77b4;stroke:#1f77b4;" x="191.006136" xlink:href="#m8bb54f68d1" y="72.884791"/>
     <use style="fill:#1f77b4;stroke:#1f77b4;" x="194.049773" xlink:href="#m8bb54f68d1" y="68.178632"/>
     <use style="fill:#1f77b4;stroke:#1f77b4;" x="197.093409" xlink:href="#m8bb54f68d1" y="41.270235"/>
     <use style="fill:#1f77b4;stroke:#1f77b4;" x="200.137045" xlink:href="#m8bb54f68d1" y="33.435111"/>
     <use style="fill:#1f77b4;stroke:#1f77b4;" x="203.180682" xlink:href="#m8bb54f68d1" y="22.13167"/>
     <use style="fill:#1f77b4;stroke:#1f77b4;" x="206.224318" xlink:href="#m8bb54f68d1" y="27.809204"/>
     <use style="fill:#1f77b4;stroke:#1f77b4;" x="209.267955" xlink:href="#m8bb54f68d1" y="26.966155"/>
     <use style="fill:#1f77b4;stroke:#1f77b4;" x="212.311591" xlink:href="#m8bb54f68d1" y="31.696609"/>
     <use style="fill:#1f77b4;stroke:#1f77b4;" x="215.355227" xlink:href="#m8bb54f68d1" y="35.81976"/>
     <use style="fill:#1f77b4;stroke:#1f77b4;" x="218.398864" xlink:href="#m8bb54f68d1" y="33.100879"/>
     <use style="fill:#1f77b4;stroke:#1f77b4;" x="221.4425" xlink:href="#m8bb54f68d1" y="59.394662"/>
     <use style="fill:#1f77b4;stroke:#1f77b4;" x="224.486136" xlink:href="#m8bb54f68d1" y="62.483936"/>
     <use style="fill:#1f77b4;stroke:#1f77b4;" x="227.529773" xlink:href="#m8bb54f68d1" y="93.417173"/>
     <use style="fill:#1f77b4;stroke:#1f77b4;" x="230.573409" xlink:href="#m8bb54f68d1" y="102.808481"/>
     <use style="fill:#1f77b4;stroke:#1f77b4;" x="233.617045" xlink:href="#m8bb54f68d1" y="110.965231"/>
     <use style="fill:#1f77b4;stroke:#1f77b4;" x="236.660682" xlink:href="#m8bb54f68d1" y="127.35158"/>
     <use style="fill:#1f77b4;stroke:#1f77b4;" x="239.704318" xlink:href="#m8bb54f68d1" y="143.690363"/>
     <use style="fill:#1f77b4;stroke:#1f77b4;" x="242.747955" xlink:href="#m8bb54f68d1" y="156.60903"/>
     <use style="fill:#1f77b4;stroke:#1f77b4;" x="245.791591" xlink:href="#m8bb54f68d1" y="175.254316"/>
     <use style="fill:#1f77b4;stroke:#1f77b4;" x="248.835227" xlink:href="#m8bb54f68d1" y="182.447671"/>
     <use style="fill:#1f77b4;stroke:#1f77b4;" x="251.878864" xlink:href="#m8bb54f68d1" y="185.667"/>
     <use style="fill:#1f77b4;stroke:#1f77b4;" x="254.9225" xlink:href="#m8bb54f68d1" y="187.348826"/>
     <use style="fill:#1f77b4;stroke:#1f77b4;" x="257.966136" xlink:href="#m8bb54f68d1" y="187.529343"/>
     <use style="fill:#1f77b4;stroke:#1f77b4;" x="261.009773" xlink:href="#m8bb54f68d1" y="189.237724"/>
     <use style="fill:#1f77b4;stroke:#1f77b4;" x="264.053409" xlink:href="#m8bb54f68d1" y="204.33192"/>
     <use style="fill:#1f77b4;stroke:#1f77b4;" x="267.097045" xlink:href="#m8bb54f68d1" y="201.618265"/>
     <use style="fill:#1f77b4;stroke:#1f77b4;" x="270.140682" xlink:href="#m8bb54f68d1" y="207.239829"/>
     <use style="fill:#1f77b4;stroke:#1f77b4;" x="273.184318" xlink:href="#m8bb54f68d1" y="200.962548"/>
     <use style="fill:#1f77b4;stroke:#1f77b4;" x="276.227955" xlink:href="#m8bb54f68d1" y="196.650935"/>
     <use style="fill:#1f77b4;stroke:#1f77b4;" x="279.271591" xlink:href="#m8bb54f68d1" y="207.625652"/>
     <use style="fill:#1f77b4;stroke:#1f77b4;" x="282.315227" xlink:href="#m8bb54f68d1" y="190.121771"/>
     <use style="fill:#1f77b4;stroke:#1f77b4;" x="285.358864" xlink:href="#m8bb54f68d1" y="196.270761"/>
     <use style="fill:#1f77b4;stroke:#1f77b4;" x="288.4025" xlink:href="#m8bb54f68d1" y="192.485515"/>
     <use style="fill:#1f77b4;stroke:#1f77b4;" x="291.446136" xlink:href="#m8bb54f68d1" y="201.542343"/>
     <use style="fill:#1f77b4;stroke:#1f77b4;" x="294.489773" xlink:href="#m8bb54f68d1" y="199.231285"/>
     <use style="fill:#1f77b4;stroke:#1f77b4;" x="297.533409" xlink:href="#m8bb54f68d1" y="193.841865"/>
     <use style="fill:#1f77b4;stroke:#1f77b4;" x="300.577045" xlink:href="#m8bb54f68d1" y="196.399969"/>
     <use style="fill:#1f77b4;stroke:#1f77b4;" x="303.620682" xlink:href="#m8bb54f68d1" y="188.126794"/>
     <use style="fill:#1f77b4;stroke:#1f77b4;" x="306.664318" xlink:href="#m8bb54f68d1" y="194.19499"/>
     <use style="fill:#1f77b4;stroke:#1f77b4;" x="309.707955" xlink:href="#m8bb54f68d1" y="196.018701"/>
     <use style="fill:#1f77b4;stroke:#1f77b4;" x="312.751591" xlink:href="#m8bb54f68d1" y="198.463275"/>
     <use style="fill:#1f77b4;stroke:#1f77b4;" x="315.795227" xlink:href="#m8bb54f68d1" y="192.381519"/>
     <use style="fill:#1f77b4;stroke:#1f77b4;" x="318.838864" xlink:href="#m8bb54f68d1" y="198.576133"/>
     <use style="fill:#1f77b4;stroke:#1f77b4;" x="321.8825" xlink:href="#m8bb54f68d1" y="193.629744"/>
     <use style="fill:#1f77b4;stroke:#1f77b4;" x="324.926136" xlink:href="#m8bb54f68d1" y="196.446476"/>
     <use style="fill:#1f77b4;stroke:#1f77b4;" x="327.969773" xlink:href="#m8bb54f68d1" y="194.528198"/>
     <use style="fill:#1f77b4;stroke:#1f77b4;" x="331.013409" xlink:href="#m8bb54f68d1" y="188.58741"/>
     <use style="fill:#1f77b4;stroke:#1f77b4;" x="334.057045" xlink:href="#m8bb54f68d1" y="200.28575"/>
     <use style="fill:#1f77b4;stroke:#1f77b4;" x="337.100682" xlink:href="#m8bb54f68d1" y="191.387368"/>
     <use style="fill:#1f77b4;stroke:#1f77b4;" x="340.144318" xlink:href="#m8bb54f68d1" y="205.504293"/>
    </g>
   </g>
   <g id="line2d_14">
    <path clip-path="url(#p2e9096f37e)" d="M 35.780682 203.134566 
L 38.824318 203.134397 
L 41.867955 203.134129 
L 44.911591 203.133703 
L 47.955227 203.133038 
L 50.998864 203.132006 
L 54.0425 203.130424 
L 57.086136 203.128024 
L 60.129773 203.124421 
L 63.173409 203.119068 
L 66.217045 203.111199 
L 69.260682 203.099753 
L 72.304318 203.083281 
L 75.347955 203.059828 
L 78.391591 203.026789 
L 81.435227 202.980745 
L 84.478864 202.917265 
L 87.5225 202.830688 
L 90.566136 202.713888 
L 93.609773 202.558031 
L 96.653409 202.352331 
L 99.697045 202.083836 
L 102.740682 201.737259 
L 105.784318 201.294885 
L 108.827955 200.736589 
L 111.871591 200.039993 
L 114.915227 199.180801 
L 117.958864 198.133344 
L 121.0025 196.871356 
L 124.046136 195.368988 
L 127.089773 193.602065 
L 130.133409 191.549556 
L 133.177045 189.195215 
L 136.220682 186.529317 
L 139.264318 183.550402 
L 142.307955 180.266917 
L 145.351591 176.698618 
L 148.395227 172.877613 
L 151.438864 168.848912 
L 154.4825 164.67037 
L 157.526136 160.411946 
L 160.569773 156.154232 
L 163.613409 151.986252 
L 166.657045 148.002588 
L 169.700682 144.299961 
L 172.744318 140.973401 
L 175.787955 138.112244 
L 178.831591 135.796158 
L 181.875227 134.091472 
L 184.918864 133.048015 
L 187.9625 132.696703 
L 191.006136 133.048015 
L 194.049773 134.091472 
L 197.093409 135.796158 
L 200.137045 138.112244 
L 203.180682 140.973401 
L 206.224318 144.299961 
L 209.267955 148.002588 
L 212.311591 151.986252 
L 215.355227 156.154232 
L 218.398864 160.411946 
L 221.4425 164.67037 
L 224.486136 168.848912 
L 227.529773 172.877613 
L 230.573409 176.698618 
L 233.617045 180.266917 
L 236.660682 183.550402 
L 239.704318 186.529317 
L 242.747955 189.195215 
L 245.791591 191.549556 
L 248.835227 193.602065 
L 251.878864 195.368988 
L 254.9225 196.871356 
L 257.966136 198.133344 
L 261.009773 199.180801 
L 264.053409 200.039993 
L 267.097045 200.736589 
L 270.140682 201.294885 
L 273.184318 201.737259 
L 276.227955 202.083836 
L 279.271591 202.352331 
L 282.315227 202.558031 
L 285.358864 202.713888 
L 288.4025 202.830688 
L 291.446136 202.917265 
L 294.489773 202.980745 
L 297.533409 203.026789 
L 300.577045 203.059828 
L 303.620682 203.083281 
L 306.664318 203.099753 
L 309.707955 203.111199 
L 312.751591 203.119068 
L 315.795227 203.124421 
L 318.838864 203.128024 
L 321.8825 203.130424 
L 324.926136 203.132006 
L 327.969773 203.133038 
L 331.013409 203.133703 
L 334.057045 203.134129 
L 337.100682 203.134397 
L 340.144318 203.134566 
" style="fill:none;stroke:#ff7f0e;stroke-dasharray:5.55,2.4;stroke-dashoffset:0;stroke-width:1.5;"/>
   </g>
   <g id="line2d_15">
    <path clip-path="url(#p2e9096f37e)" d="M 35.780682 203.134828 
L 38.824318 203.134828 
L 41.867955 203.134828 
L 44.911591 203.134828 
L 47.955227 203.134828 
L 50.998864 203.134828 
L 54.0425 203.134828 
L 57.086136 203.134828 
L 60.129773 203.134828 
L 63.173409 203.134828 
L 66.217045 203.134828 
L 69.260682 203.134828 
L 72.304318 203.134828 
L 75.347955 203.134827 
L 78.391591 203.134827 
L 81.435227 203.134825 
L 84.478864 203.13482 
L 87.5225 203.13481 
L 90.566136 203.134787 
L 93.609773 203.134739 
L 96.653409 203.134637 
L 99.697045 203.134427 
L 102.740682 203.134003 
L 105.784318 203.133165 
L 108.827955 203.131546 
L 111.871591 203.128484 
L 114.915227 203.122812 
L 117.958864 203.112532 
L 121.0025 203.094298 
L 124.046136 203.062653 
L 127.089773 203.008914 
L 130.133409 202.919629 
L 133.177045 202.774511 
L 136.220682 202.543803 
L 139.264318 202.185089 
L 142.307955 201.639695 
L 145.351591 200.828971 
L 148.395227 199.650958 
L 151.438864 197.978164 
L 154.4825 195.65739 
L 157.526136 192.51264 
L 160.569773 188.352178 
L 163.613409 182.980526 
L 166.657045 176.215738 
L 169.700682 167.911519 
L 172.744318 157.982818 
L 175.787955 146.432462 
L 178.831591 133.375477 
L 181.875227 119.057126 
L 184.918864 103.860629 
L 187.9625 88.301194 
L 191.006136 73.004364 
L 194.049773 58.668709 
L 197.093409 46.015291 
L 200.137045 35.72863 
L 203.180682 28.395754 
L 206.224318 24.450821 
L 209.267955 24.132577 
L 212.311591 27.460437 
L 215.355227 34.232522 
L 218.398864 44.045936 
L 221.4425 56.336438 
L 224.486136 70.43209 
L 227.529773 85.613787 
L 230.573409 101.175131 
L 233.617045 116.474846 
L 236.660682 130.976608 
L 239.704318 144.273483 
L 242.747955 156.096518 
L 245.791591 166.30918 
L 248.835227 174.890826 
L 251.878864 181.913174 
L 254.9225 187.513808 
L 257.966136 191.870204 
L 261.009773 195.176879 
L 264.053409 197.627223 
L 267.097045 199.400594 
L 270.140682 200.654452 
L 273.184318 201.520802 
L 276.227955 202.10591 
L 279.271591 202.492247 
L 282.315227 202.741683 
L 285.358864 202.899185 
L 288.4025 202.996461 
L 291.446136 203.055232 
L 294.489773 203.089972 
L 297.533409 203.110063 
L 300.577045 203.121434 
L 303.620682 203.127731 
L 306.664318 203.131144 
L 309.707955 203.132955 
L 312.751591 203.133895 
L 315.795227 203.134373 
L 318.838864 203.13461 
L 321.8825 203.134726 
L 324.926136 203.134781 
L 327.969773 203.134807 
L 331.013409 203.134819 
L 334.057045 203.134824 
L 337.100682 203.134826 
L 340.144318 203.134827 
" style="fill:none;stroke:#2ca02c;stroke-linecap:square;stroke-width:1.5;"/>
   </g>
   <g id="patch_3">
    <path d="M 20.5625 224.64 
L 20.5625 7.2 
" style="fill:none;stroke:#000000;stroke-linecap:square;stroke-linejoin:miter;stroke-width:0.8;"/>
   </g>
   <g id="patch_4">
    <path d="M 355.3625 224.64 
L 355.3625 7.2 
" style="fill:none;stroke:#000000;stroke-linecap:square;stroke-linejoin:miter;stroke-width:0.8;"/>
   </g>
   <g id="patch_5">
    <path d="M 20.5625 224.64 
L 355.3625 224.64 
" style="fill:none;stroke:#000000;stroke-linecap:square;stroke-linejoin:miter;stroke-width:0.8;"/>
   </g>
   <g id="patch_6">
    <path d="M 20.5625 7.2 
L 355.3625 7.2 
" style="fill:none;stroke:#000000;stroke-linecap:square;stroke-linejoin:miter;stroke-width:0.8;"/>
   </g>
   <g id="legend_1">
    <g id="patch_7">
     <path d="M 27.5625 59.25625 
L 164.8625 59.25625 
Q 166.8625 59.25625 166.8625 57.25625 
L 166.8625 14.2 
Q 166.8625 12.2 164.8625 12.2 
L 27.5625 12.2 
Q 25.5625 12.2 25.5625 14.2 
L 25.5625 57.25625 
Q 25.5625 59.25625 27.5625 59.25625 
z
" style="fill:#ffffff;opacity:0.8;stroke:#cccccc;stroke-linejoin:miter;"/>
    </g>
    <g id="line2d_16">
     <path d="M 29.5625 20.298437 
L 49.5625 20.298437 
" style="fill:none;stroke:#ff7f0e;stroke-dasharray:5.55,2.4;stroke-dashoffset:0;stroke-width:1.5;"/>
    </g>
    <g id="line2d_17"/>
    <g id="text_13">
     <!-- initial fit -->
     <g transform="translate(57.5625 23.798437)scale(0.1 -0.1)">
      <defs>
       <path d="M 603 3500 
L 1178 3500 
L 1178 0 
L 603 0 
L 603 3500 
z
M 603 4863 
L 1178 4863 
L 1178 4134 
L 603 4134 
L 603 4863 
z
" id="DejaVuSans-69" transform="scale(0.015625)"/>
       <path d="M 3513 2113 
L 3513 0 
L 2938 0 
L 2938 2094 
Q 2938 2591 2744 2837 
Q 2550 3084 2163 3084 
Q 1697 3084 1428 2787 
Q 1159 2491 1159 1978 
L 1159 0 
L 581 0 
L 581 3500 
L 1159 3500 
L 1159 2956 
Q 1366 3272 1645 3428 
Q 1925 3584 2291 3584 
Q 2894 3584 3203 3211 
Q 3513 2838 3513 2113 
z
" id="DejaVuSans-6e" transform="scale(0.015625)"/>
       <path d="M 1172 4494 
L 1172 3500 
L 2356 3500 
L 2356 3053 
L 1172 3053 
L 1172 1153 
Q 1172 725 1289 603 
Q 1406 481 1766 481 
L 2356 481 
L 2356 0 
L 1766 0 
Q 1100 0 847 248 
Q 594 497 594 1153 
L 594 3053 
L 172 3053 
L 172 3500 
L 594 3500 
L 594 4494 
L 1172 4494 
z
" id="DejaVuSans-74" transform="scale(0.015625)"/>
       <path d="M 2194 1759 
Q 1497 1759 1228 1600 
Q 959 1441 959 1056 
Q 959 750 1161 570 
Q 1363 391 1709 391 
Q 2188 391 2477 730 
Q 2766 1069 2766 1631 
L 2766 1759 
L 2194 1759 
z
M 3341 1997 
L 3341 0 
L 2766 0 
L 2766 531 
Q 2569 213 2275 61 
Q 1981 -91 1556 -91 
Q 1019 -91 701 211 
Q 384 513 384 1019 
Q 384 1609 779 1909 
Q 1175 2209 1959 2209 
L 2766 2209 
L 2766 2266 
Q 2766 2663 2505 2880 
Q 2244 3097 1772 3097 
Q 1472 3097 1187 3025 
Q 903 2953 641 2809 
L 641 3341 
Q 956 3463 1253 3523 
Q 1550 3584 1831 3584 
Q 2591 3584 2966 3190 
Q 3341 2797 3341 1997 
z
" id="DejaVuSans-61" transform="scale(0.015625)"/>
       <path d="M 603 4863 
L 1178 4863 
L 1178 0 
L 603 0 
L 603 4863 
z
" id="DejaVuSans-6c" transform="scale(0.015625)"/>
       <path id="DejaVuSans-20" transform="scale(0.015625)"/>
       <path d="M 2375 4863 
L 2375 4384 
L 1825 4384 
Q 1516 4384 1395 4259 
Q 1275 4134 1275 3809 
L 1275 3500 
L 2222 3500 
L 2222 3053 
L 1275 3053 
L 1275 0 
L 697 0 
L 697 3053 
L 147 3053 
L 147 3500 
L 697 3500 
L 697 3744 
Q 697 4328 969 4595 
Q 1241 4863 1831 4863 
L 2375 4863 
z
" id="DejaVuSans-66" transform="scale(0.015625)"/>
      </defs>
      <use xlink:href="#DejaVuSans-69"/>
      <use x="27.783203" xlink:href="#DejaVuSans-6e"/>
      <use x="91.162109" xlink:href="#DejaVuSans-69"/>
      <use x="118.945312" xlink:href="#DejaVuSans-74"/>
      <use x="158.154297" xlink:href="#DejaVuSans-69"/>
      <use x="185.9375" xlink:href="#DejaVuSans-61"/>
      <use x="247.216797" xlink:href="#DejaVuSans-6c"/>
      <use x="275" xlink:href="#DejaVuSans-20"/>
      <use x="306.787109" xlink:href="#DejaVuSans-66"/>
      <use x="341.992188" xlink:href="#DejaVuSans-69"/>
      <use x="369.775391" xlink:href="#DejaVuSans-74"/>
     </g>
    </g>
    <g id="line2d_18">
     <path d="M 29.5625 34.976562 
L 49.5625 34.976562 
" style="fill:none;stroke:#2ca02c;stroke-linecap:square;stroke-width:1.5;"/>
    </g>
    <g id="line2d_19"/>
    <g id="text_14">
     <!-- best fit -->
     <g transform="translate(57.5625 38.476562)scale(0.1 -0.1)">
      <defs>
       <path d="M 3116 1747 
Q 3116 2381 2855 2742 
Q 2594 3103 2138 3103 
Q 1681 3103 1420 2742 
Q 1159 2381 1159 1747 
Q 1159 1113 1420 752 
Q 1681 391 2138 391 
Q 2594 391 2855 752 
Q 3116 1113 3116 1747 
z
M 1159 2969 
Q 1341 3281 1617 3432 
Q 1894 3584 2278 3584 
Q 2916 3584 3314 3078 
Q 3713 2572 3713 1747 
Q 3713 922 3314 415 
Q 2916 -91 2278 -91 
Q 1894 -91 1617 61 
Q 1341 213 1159 525 
L 1159 0 
L 581 0 
L 581 4863 
L 1159 4863 
L 1159 2969 
z
" id="DejaVuSans-62" transform="scale(0.015625)"/>
       <path d="M 3597 1894 
L 3597 1613 
L 953 1613 
Q 991 1019 1311 708 
Q 1631 397 2203 397 
Q 2534 397 2845 478 
Q 3156 559 3463 722 
L 3463 178 
Q 3153 47 2828 -22 
Q 2503 -91 2169 -91 
Q 1331 -91 842 396 
Q 353 884 353 1716 
Q 353 2575 817 3079 
Q 1281 3584 2069 3584 
Q 2775 3584 3186 3129 
Q 3597 2675 3597 1894 
z
M 3022 2063 
Q 3016 2534 2758 2815 
Q 2500 3097 2075 3097 
Q 1594 3097 1305 2825 
Q 1016 2553 972 2059 
L 3022 2063 
z
" id="DejaVuSans-65" transform="scale(0.015625)"/>
       <path d="M 2834 3397 
L 2834 2853 
Q 2591 2978 2328 3040 
Q 2066 3103 1784 3103 
Q 1356 3103 1142 2972 
Q 928 2841 928 2578 
Q 928 2378 1081 2264 
Q 1234 2150 1697 2047 
L 1894 2003 
Q 2506 1872 2764 1633 
Q 3022 1394 3022 966 
Q 3022 478 2636 193 
Q 2250 -91 1575 -91 
Q 1294 -91 989 -36 
Q 684 19 347 128 
L 347 722 
Q 666 556 975 473 
Q 1284 391 1588 391 
Q 1994 391 2212 530 
Q 2431 669 2431 922 
Q 2431 1156 2273 1281 
Q 2116 1406 1581 1522 
L 1381 1569 
Q 847 1681 609 1914 
Q 372 2147 372 2553 
Q 372 3047 722 3315 
Q 1072 3584 1716 3584 
Q 2034 3584 2315 3537 
Q 2597 3491 2834 3397 
z
" id="DejaVuSans-73" transform="scale(0.015625)"/>
      </defs>
      <use xlink:href="#DejaVuSans-62"/>
      <use x="63.476562" xlink:href="#DejaVuSans-65"/>
      <use x="125" xlink:href="#DejaVuSans-73"/>
      <use x="177.099609" xlink:href="#DejaVuSans-74"/>
      <use x="216.308594" xlink:href="#DejaVuSans-20"/>
      <use x="248.095703" xlink:href="#DejaVuSans-66"/>
      <use x="283.300781" xlink:href="#DejaVuSans-69"/>
      <use x="311.083984" xlink:href="#DejaVuSans-74"/>
     </g>
    </g>
    <g id="patch_8">
     <path d="M 29.5625 53.15625 
L 49.5625 53.15625 
L 49.5625 46.15625 
L 29.5625 46.15625 
z
" style="fill:#ababab;stroke:#ababab;stroke-linejoin:miter;"/>
    </g>
    <g id="text_15">
     <!-- 3-$\sigma$ uncertainty band -->
     <g transform="translate(57.5625 53.15625)scale(0.1 -0.1)">
      <defs>
       <path d="M 313 2009 
L 1997 2009 
L 1997 1497 
L 313 1497 
L 313 2009 
z
" id="DejaVuSans-2d" transform="scale(0.015625)"/>
       <path d="M 2219 3044 
Q 1744 3044 1422 2700 
Q 1081 2341 969 1747 
Q 844 1119 1044 756 
Q 1241 397 1706 397 
Q 2166 397 2503 759 
Q 2844 1122 2966 1747 
Q 3075 2319 2881 2700 
Q 2700 3044 2219 3044 
z
M 2309 3503 
L 4219 3500 
L 4106 2925 
L 3463 2925 
Q 3706 2438 3575 1747 
Q 3406 888 2884 400 
Q 2359 -91 1609 -91 
Q 856 -91 525 400 
Q 194 888 363 1747 
Q 528 2609 1050 3097 
Q 1484 3503 2309 3503 
z
" id="DejaVuSans-Oblique-3c3" transform="scale(0.015625)"/>
       <path d="M 544 1381 
L 544 3500 
L 1119 3500 
L 1119 1403 
Q 1119 906 1312 657 
Q 1506 409 1894 409 
Q 2359 409 2629 706 
Q 2900 1003 2900 1516 
L 2900 3500 
L 3475 3500 
L 3475 0 
L 2900 0 
L 2900 538 
Q 2691 219 2414 64 
Q 2138 -91 1772 -91 
Q 1169 -91 856 284 
Q 544 659 544 1381 
z
M 1991 3584 
L 1991 3584 
z
" id="DejaVuSans-75" transform="scale(0.015625)"/>
       <path d="M 3122 3366 
L 3122 2828 
Q 2878 2963 2633 3030 
Q 2388 3097 2138 3097 
Q 1578 3097 1268 2742 
Q 959 2388 959 1747 
Q 959 1106 1268 751 
Q 1578 397 2138 397 
Q 2388 397 2633 464 
Q 2878 531 3122 666 
L 3122 134 
Q 2881 22 2623 -34 
Q 2366 -91 2075 -91 
Q 1284 -91 818 406 
Q 353 903 353 1747 
Q 353 2603 823 3093 
Q 1294 3584 2113 3584 
Q 2378 3584 2631 3529 
Q 2884 3475 3122 3366 
z
" id="DejaVuSans-63" transform="scale(0.015625)"/>
       <path d="M 2631 2963 
Q 2534 3019 2420 3045 
Q 2306 3072 2169 3072 
Q 1681 3072 1420 2755 
Q 1159 2438 1159 1844 
L 1159 0 
L 581 0 
L 581 3500 
L 1159 3500 
L 1159 2956 
Q 1341 3275 1631 3429 
Q 1922 3584 2338 3584 
Q 2397 3584 2469 3576 
Q 2541 3569 2628 3553 
L 2631 2963 
z
" id="DejaVuSans-72" transform="scale(0.015625)"/>
       <path d="M 2059 -325 
Q 1816 -950 1584 -1140 
Q 1353 -1331 966 -1331 
L 506 -1331 
L 506 -850 
L 844 -850 
Q 1081 -850 1212 -737 
Q 1344 -625 1503 -206 
L 1606 56 
L 191 3500 
L 800 3500 
L 1894 763 
L 2988 3500 
L 3597 3500 
L 2059 -325 
z
" id="DejaVuSans-79" transform="scale(0.015625)"/>
       <path d="M 2906 2969 
L 2906 4863 
L 3481 4863 
L 3481 0 
L 2906 0 
L 2906 525 
Q 2725 213 2448 61 
Q 2172 -91 1784 -91 
Q 1150 -91 751 415 
Q 353 922 353 1747 
Q 353 2572 751 3078 
Q 1150 3584 1784 3584 
Q 2172 3584 2448 3432 
Q 2725 3281 2906 2969 
z
M 947 1747 
Q 947 1113 1208 752 
Q 1469 391 1925 391 
Q 2381 391 2643 752 
Q 2906 1113 2906 1747 
Q 2906 2381 2643 2742 
Q 2381 3103 1925 3103 
Q 1469 3103 1208 2742 
Q 947 2381 947 1747 
z
" id="DejaVuSans-64" transform="scale(0.015625)"/>
      </defs>
      <use transform="translate(0 0.015625)" xlink:href="#DejaVuSans-33"/>
      <use transform="translate(63.623047 0.015625)" xlink:href="#DejaVuSans-2d"/>
      <use transform="translate(99.707031 0.015625)" xlink:href="#DejaVuSans-Oblique-3c3"/>
      <use transform="translate(163.085938 0.015625)" xlink:href="#DejaVuSans-20"/>
      <use transform="translate(194.873047 0.015625)" xlink:href="#DejaVuSans-75"/>
      <use transform="translate(258.251953 0.015625)" xlink:href="#DejaVuSans-6e"/>
      <use transform="translate(321.630859 0.015625)" xlink:href="#DejaVuSans-63"/>
      <use transform="translate(376.611328 0.015625)" xlink:href="#DejaVuSans-65"/>
      <use transform="translate(438.134766 0.015625)" xlink:href="#DejaVuSans-72"/>
      <use transform="translate(479.248047 0.015625)" xlink:href="#DejaVuSans-74"/>
      <use transform="translate(518.457031 0.015625)" xlink:href="#DejaVuSans-61"/>
      <use transform="translate(579.736328 0.015625)" xlink:href="#DejaVuSans-69"/>
      <use transform="translate(607.519531 0.015625)" xlink:href="#DejaVuSans-6e"/>
      <use transform="translate(670.898438 0.015625)" xlink:href="#DejaVuSans-74"/>
      <use transform="translate(710.107422 0.015625)" xlink:href="#DejaVuSans-79"/>
      <use transform="translate(769.287109 0.015625)" xlink:href="#DejaVuSans-20"/>
      <use transform="translate(801.074219 0.015625)" xlink:href="#DejaVuSans-62"/>
      <use transform="translate(864.550781 0.015625)" xlink:href="#DejaVuSans-61"/>
      <use transform="translate(925.830078 0.015625)" xlink:href="#DejaVuSans-6e"/>
      <use transform="translate(989.208984 0.015625)" xlink:href="#DejaVuSans-64"/>
     </g>
    </g>
   </g>
  </g>
 </g>
 <defs>
  <clipPath id="p2e9096f37e">
   <rect height="217.44" width="334.8" x="20.5625" y="7.2"/>
  </clipPath>
 </defs>
</svg>
