<?xml version="1.0" encoding="utf-8" standalone="no"?>
<!DOCTYPE svg PUBLIC "-//W3C//DTD SVG 1.1//EN"
  "http://www.w3.org/Graphics/SVG/1.1/DTD/svg11.dtd">
<!-- Created with matplotlib (https://matplotlib.org/) -->
<svg height="292.006125pt" version="1.1" viewBox="0 0 750.382187 292.006125" width="750.382187pt" xmlns="http://www.w3.org/2000/svg" xmlns:xlink="http://www.w3.org/1999/xlink">
 <defs>
  <style type="text/css">
*{stroke-linecap:butt;stroke-linejoin:round;white-space:pre;}
  </style>
 </defs>
 <g id="figure_1">
  <g id="patch_1">
   <path d="M 0 292.006125 
L 750.382187 292.006125 
L 750.382187 0 
L 0 0 
z
" style="fill:none;"/>
  </g>
  <g id="axes_1">
   <g id="patch_2">
    <path d="M 28.942188 268.128 
L 353.596733 268.128 
L 353.596733 7.2 
L 28.942188 7.2 
z
" style="fill:#ffffff;"/>
   </g>
   <g id="matplotlib.axis_1">
    <g id="xtick_1">
     <g id="line2d_1">
      <defs>
       <path d="M 0 0 
L 0 3.5 
" id="mf8a223d0a1" style="stroke:#000000;stroke-width:0.8;"/>
      </defs>
      <g>
       <use style="stroke:#000000;stroke-width:0.8;" x="43.699212" xlink:href="#mf8a223d0a1" y="268.128"/>
      </g>
     </g>
     <g id="text_1">
      <!-- 0 -->
      <defs>
       <path d="M 31.78125 66.40625 
Q 24.171875 66.40625 20.328125 58.90625 
Q 16.5 51.421875 16.5 36.375 
Q 16.5 21.390625 20.328125 13.890625 
Q 24.171875 6.390625 31.78125 6.390625 
Q 39.453125 6.390625 43.28125 13.890625 
Q 47.125 21.390625 47.125 36.375 
Q 47.125 51.421875 43.28125 58.90625 
Q 39.453125 66.40625 31.78125 66.40625 
z
M 31.78125 74.21875 
Q 44.046875 74.21875 50.515625 64.515625 
Q 56.984375 54.828125 56.984375 36.375 
Q 56.984375 17.96875 50.515625 8.265625 
Q 44.046875 -1.421875 31.78125 -1.421875 
Q 19.53125 -1.421875 13.0625 8.265625 
Q 6.59375 17.96875 6.59375 36.375 
Q 6.59375 54.828125 13.0625 64.515625 
Q 19.53125 74.21875 31.78125 74.21875 
z
" id="DejaVuSans-48"/>
      </defs>
      <g transform="translate(40.517962 282.726437)scale(0.1 -0.1)">
       <use xlink:href="#DejaVuSans-48"/>
      </g>
     </g>
    </g>
    <g id="xtick_2">
     <g id="line2d_2">
      <g>
       <use style="stroke:#000000;stroke-width:0.8;" x="102.727311" xlink:href="#mf8a223d0a1" y="268.128"/>
      </g>
     </g>
     <g id="text_2">
      <!-- 2 -->
      <defs>
       <path d="M 19.1875 8.296875 
L 53.609375 8.296875 
L 53.609375 0 
L 7.328125 0 
L 7.328125 8.296875 
Q 12.9375 14.109375 22.625 23.890625 
Q 32.328125 33.6875 34.8125 36.53125 
Q 39.546875 41.84375 41.421875 45.53125 
Q 43.3125 49.21875 43.3125 52.78125 
Q 43.3125 58.59375 39.234375 62.25 
Q 35.15625 65.921875 28.609375 65.921875 
Q 23.96875 65.921875 18.8125 64.3125 
Q 13.671875 62.703125 7.8125 59.421875 
L 7.8125 69.390625 
Q 13.765625 71.78125 18.9375 73 
Q 24.125 74.21875 28.421875 74.21875 
Q 39.75 74.21875 46.484375 68.546875 
Q 53.21875 62.890625 53.21875 53.421875 
Q 53.21875 48.921875 51.53125 44.890625 
Q 49.859375 40.875 45.40625 35.40625 
Q 44.1875 33.984375 37.640625 27.21875 
Q 31.109375 20.453125 19.1875 8.296875 
z
" id="DejaVuSans-50"/>
      </defs>
      <g transform="translate(99.546061 282.726437)scale(0.1 -0.1)">
       <use xlink:href="#DejaVuSans-50"/>
      </g>
     </g>
    </g>
    <g id="xtick_3">
     <g id="line2d_3">
      <g>
       <use style="stroke:#000000;stroke-width:0.8;" x="161.755411" xlink:href="#mf8a223d0a1" y="268.128"/>
      </g>
     </g>
     <g id="text_3">
      <!-- 4 -->
      <defs>
       <path d="M 37.796875 64.3125 
L 12.890625 25.390625 
L 37.796875 25.390625 
z
M 35.203125 72.90625 
L 47.609375 72.90625 
L 47.609375 25.390625 
L 58.015625 25.390625 
L 58.015625 17.1875 
L 47.609375 17.1875 
L 47.609375 0 
L 37.796875 0 
L 37.796875 17.1875 
L 4.890625 17.1875 
L 4.890625 26.703125 
z
" id="DejaVuSans-52"/>
      </defs>
      <g transform="translate(158.574161 282.726437)scale(0.1 -0.1)">
       <use xlink:href="#DejaVuSans-52"/>
      </g>
     </g>
    </g>
    <g id="xtick_4">
     <g id="line2d_4">
      <g>
       <use style="stroke:#000000;stroke-width:0.8;" x="220.78351" xlink:href="#mf8a223d0a1" y="268.128"/>
      </g>
     </g>
     <g id="text_4">
      <!-- 6 -->
      <defs>
       <path d="M 33.015625 40.375 
Q 26.375 40.375 22.484375 35.828125 
Q 18.609375 31.296875 18.609375 23.390625 
Q 18.609375 15.53125 22.484375 10.953125 
Q 26.375 6.390625 33.015625 6.390625 
Q 39.65625 6.390625 43.53125 10.953125 
Q 47.40625 15.53125 47.40625 23.390625 
Q 47.40625 31.296875 43.53125 35.828125 
Q 39.65625 40.375 33.015625 40.375 
z
M 52.59375 71.296875 
L 52.59375 62.3125 
Q 48.875 64.0625 45.09375 64.984375 
Q 41.3125 65.921875 37.59375 65.921875 
Q 27.828125 65.921875 22.671875 59.328125 
Q 17.53125 52.734375 16.796875 39.40625 
Q 19.671875 43.65625 24.015625 45.921875 
Q 28.375 48.1875 33.59375 48.1875 
Q 44.578125 48.1875 50.953125 41.515625 
Q 57.328125 34.859375 57.328125 23.390625 
Q 57.328125 12.15625 50.6875 5.359375 
Q 44.046875 -1.421875 33.015625 -1.421875 
Q 20.359375 -1.421875 13.671875 8.265625 
Q 6.984375 17.96875 6.984375 36.375 
Q 6.984375 53.65625 15.1875 63.9375 
Q 23.390625 74.21875 37.203125 74.21875 
Q 40.921875 74.21875 44.703125 73.484375 
Q 48.484375 72.75 52.59375 71.296875 
z
" id="DejaVuSans-54"/>
      </defs>
      <g transform="translate(217.60226 282.726437)scale(0.1 -0.1)">
       <use xlink:href="#DejaVuSans-54"/>
      </g>
     </g>
    </g>
    <g id="xtick_5">
     <g id="line2d_5">
      <g>
       <use style="stroke:#000000;stroke-width:0.8;" x="279.811609" xlink:href="#mf8a223d0a1" y="268.128"/>
      </g>
     </g>
     <g id="text_5">
      <!-- 8 -->
      <defs>
       <path d="M 31.78125 34.625 
Q 24.75 34.625 20.71875 30.859375 
Q 16.703125 27.09375 16.703125 20.515625 
Q 16.703125 13.921875 20.71875 10.15625 
Q 24.75 6.390625 31.78125 6.390625 
Q 38.8125 6.390625 42.859375 10.171875 
Q 46.921875 13.96875 46.921875 20.515625 
Q 46.921875 27.09375 42.890625 30.859375 
Q 38.875 34.625 31.78125 34.625 
z
M 21.921875 38.8125 
Q 15.578125 40.375 12.03125 44.71875 
Q 8.5 49.078125 8.5 55.328125 
Q 8.5 64.0625 14.71875 69.140625 
Q 20.953125 74.21875 31.78125 74.21875 
Q 42.671875 74.21875 48.875 69.140625 
Q 55.078125 64.0625 55.078125 55.328125 
Q 55.078125 49.078125 51.53125 44.71875 
Q 48 40.375 41.703125 38.8125 
Q 48.828125 37.15625 52.796875 32.3125 
Q 56.78125 27.484375 56.78125 20.515625 
Q 56.78125 9.90625 50.3125 4.234375 
Q 43.84375 -1.421875 31.78125 -1.421875 
Q 19.734375 -1.421875 13.25 4.234375 
Q 6.78125 9.90625 6.78125 20.515625 
Q 6.78125 27.484375 10.78125 32.3125 
Q 14.796875 37.15625 21.921875 38.8125 
z
M 18.3125 54.390625 
Q 18.3125 48.734375 21.84375 45.5625 
Q 25.390625 42.390625 31.78125 42.390625 
Q 38.140625 42.390625 41.71875 45.5625 
Q 45.3125 48.734375 45.3125 54.390625 
Q 45.3125 60.0625 41.71875 63.234375 
Q 38.140625 66.40625 31.78125 66.40625 
Q 25.390625 66.40625 21.84375 63.234375 
Q 18.3125 60.0625 18.3125 54.390625 
z
" id="DejaVuSans-56"/>
      </defs>
      <g transform="translate(276.630359 282.726437)scale(0.1 -0.1)">
       <use xlink:href="#DejaVuSans-56"/>
      </g>
     </g>
    </g>
    <g id="xtick_6">
     <g id="line2d_6">
      <g>
       <use style="stroke:#000000;stroke-width:0.8;" x="338.839708" xlink:href="#mf8a223d0a1" y="268.128"/>
      </g>
     </g>
     <g id="text_6">
      <!-- 10 -->
      <defs>
       <path d="M 12.40625 8.296875 
L 28.515625 8.296875 
L 28.515625 63.921875 
L 10.984375 60.40625 
L 10.984375 69.390625 
L 28.421875 72.90625 
L 38.28125 72.90625 
L 38.28125 8.296875 
L 54.390625 8.296875 
L 54.390625 0 
L 12.40625 0 
z
" id="DejaVuSans-49"/>
      </defs>
      <g transform="translate(332.477208 282.726437)scale(0.1 -0.1)">
       <use xlink:href="#DejaVuSans-49"/>
       <use x="63.623047" xlink:href="#DejaVuSans-48"/>
      </g>
     </g>
    </g>
   </g>
   <g id="matplotlib.axis_2">
    <g id="ytick_1">
     <g id="line2d_7">
      <defs>
       <path d="M 0 0 
L -3.5 0 
" id="mc069635a41" style="stroke:#000000;stroke-width:0.8;"/>
      </defs>
      <g>
       <use style="stroke:#000000;stroke-width:0.8;" x="28.942188" xlink:href="#mc069635a41" y="245.670698"/>
      </g>
     </g>
     <g id="text_7">
      <!-- −1 -->
      <defs>
       <path d="M 10.59375 35.5 
L 73.1875 35.5 
L 73.1875 27.203125 
L 10.59375 27.203125 
z
" id="DejaVuSans-8722"/>
      </defs>
      <g transform="translate(7.2 249.469917)scale(0.1 -0.1)">
       <use xlink:href="#DejaVuSans-8722"/>
       <use x="83.789062" xlink:href="#DejaVuSans-49"/>
      </g>
     </g>
    </g>
    <g id="ytick_2">
     <g id="line2d_8">
      <g>
       <use style="stroke:#000000;stroke-width:0.8;" x="28.942188" xlink:href="#mc069635a41" y="210.948952"/>
      </g>
     </g>
     <g id="text_8">
      <!-- 0 -->
      <g transform="translate(15.579688 214.74817)scale(0.1 -0.1)">
       <use xlink:href="#DejaVuSans-48"/>
      </g>
     </g>
    </g>
    <g id="ytick_3">
     <g id="line2d_9">
      <g>
       <use style="stroke:#000000;stroke-width:0.8;" x="28.942188" xlink:href="#mc069635a41" y="176.227205"/>
      </g>
     </g>
     <g id="text_9">
      <!-- 1 -->
      <g transform="translate(15.579688 180.026424)scale(0.1 -0.1)">
       <use xlink:href="#DejaVuSans-49"/>
      </g>
     </g>
    </g>
    <g id="ytick_4">
     <g id="line2d_10">
      <g>
       <use style="stroke:#000000;stroke-width:0.8;" x="28.942188" xlink:href="#mc069635a41" y="141.505458"/>
      </g>
     </g>
     <g id="text_10">
      <!-- 2 -->
      <g transform="translate(15.579688 145.304677)scale(0.1 -0.1)">
       <use xlink:href="#DejaVuSans-50"/>
      </g>
     </g>
    </g>
    <g id="ytick_5">
     <g id="line2d_11">
      <g>
       <use style="stroke:#000000;stroke-width:0.8;" x="28.942188" xlink:href="#mc069635a41" y="106.783712"/>
      </g>
     </g>
     <g id="text_11">
      <!-- 3 -->
      <defs>
       <path d="M 40.578125 39.3125 
Q 47.65625 37.796875 51.625 33 
Q 55.609375 28.21875 55.609375 21.1875 
Q 55.609375 10.40625 48.1875 4.484375 
Q 40.765625 -1.421875 27.09375 -1.421875 
Q 22.515625 -1.421875 17.65625 -0.515625 
Q 12.796875 0.390625 7.625 2.203125 
L 7.625 11.71875 
Q 11.71875 9.328125 16.59375 8.109375 
Q 21.484375 6.890625 26.8125 6.890625 
Q 36.078125 6.890625 40.9375 10.546875 
Q 45.796875 14.203125 45.796875 21.1875 
Q 45.796875 27.640625 41.28125 31.265625 
Q 36.765625 34.90625 28.71875 34.90625 
L 20.21875 34.90625 
L 20.21875 43.015625 
L 29.109375 43.015625 
Q 36.375 43.015625 40.234375 45.921875 
Q 44.09375 48.828125 44.09375 54.296875 
Q 44.09375 59.90625 40.109375 62.90625 
Q 36.140625 65.921875 28.71875 65.921875 
Q 24.65625 65.921875 20.015625 65.03125 
Q 15.375 64.15625 9.8125 62.3125 
L 9.8125 71.09375 
Q 15.4375 72.65625 20.34375 73.4375 
Q 25.25 74.21875 29.59375 74.21875 
Q 40.828125 74.21875 47.359375 69.109375 
Q 53.90625 64.015625 53.90625 55.328125 
Q 53.90625 49.265625 50.4375 45.09375 
Q 46.96875 40.921875 40.578125 39.3125 
z
" id="DejaVuSans-51"/>
      </defs>
      <g transform="translate(15.579688 110.582931)scale(0.1 -0.1)">
       <use xlink:href="#DejaVuSans-51"/>
      </g>
     </g>
    </g>
    <g id="ytick_6">
     <g id="line2d_12">
      <g>
       <use style="stroke:#000000;stroke-width:0.8;" x="28.942188" xlink:href="#mc069635a41" y="72.061965"/>
      </g>
     </g>
     <g id="text_12">
      <!-- 4 -->
      <g transform="translate(15.579688 75.861184)scale(0.1 -0.1)">
       <use xlink:href="#DejaVuSans-52"/>
      </g>
     </g>
    </g>
    <g id="ytick_7">
     <g id="line2d_13">
      <g>
       <use style="stroke:#000000;stroke-width:0.8;" x="28.942188" xlink:href="#mc069635a41" y="37.340219"/>
      </g>
     </g>
     <g id="text_13">
      <!-- 5 -->
      <defs>
       <path d="M 10.796875 72.90625 
L 49.515625 72.90625 
L 49.515625 64.59375 
L 19.828125 64.59375 
L 19.828125 46.734375 
Q 21.96875 47.46875 24.109375 47.828125 
Q 26.265625 48.1875 28.421875 48.1875 
Q 40.625 48.1875 47.75 41.5 
Q 54.890625 34.8125 54.890625 23.390625 
Q 54.890625 11.625 47.5625 5.09375 
Q 40.234375 -1.421875 26.90625 -1.421875 
Q 22.3125 -1.421875 17.546875 -0.640625 
Q 12.796875 0.140625 7.71875 1.703125 
L 7.71875 11.625 
Q 12.109375 9.234375 16.796875 8.0625 
Q 21.484375 6.890625 26.703125 6.890625 
Q 35.15625 6.890625 40.078125 11.328125 
Q 45.015625 15.765625 45.015625 23.390625 
Q 45.015625 31 40.078125 35.4375 
Q 35.15625 39.890625 26.703125 39.890625 
Q 22.75 39.890625 18.8125 39.015625 
Q 14.890625 38.140625 10.796875 36.28125 
z
" id="DejaVuSans-53"/>
      </defs>
      <g transform="translate(15.579688 41.139437)scale(0.1 -0.1)">
       <use xlink:href="#DejaVuSans-53"/>
      </g>
     </g>
    </g>
   </g>
   <g id="line2d_14">
    <defs>
     <path d="M 0 3 
C 0.795609 3 1.55874 2.683901 2.12132 2.12132 
C 2.683901 1.55874 3 0.795609 3 0 
C 3 -0.795609 2.683901 -1.55874 2.12132 -2.12132 
C 1.55874 -2.683901 0.795609 -3 0 -3 
C -0.795609 -3 -1.55874 -2.683901 -2.12132 -2.12132 
C -2.683901 -1.55874 -3 -0.795609 -3 0 
C -3 0.795609 -2.683901 1.55874 -2.12132 2.12132 
C -1.55874 2.683901 -0.795609 3 0 3 
z
" id="m6705c805ce" style="stroke:#0000ff;"/>
    </defs>
    <g clip-path="url(#p37f3357408)">
     <use style="fill:#0000ff;stroke:#0000ff;" x="43.699212" xlink:href="#m6705c805ce" y="256.267636"/>
     <use style="fill:#0000ff;stroke:#0000ff;" x="46.650617" xlink:href="#m6705c805ce" y="244.631407"/>
     <use style="fill:#0000ff;stroke:#0000ff;" x="49.602022" xlink:href="#m6705c805ce" y="237.249459"/>
     <use style="fill:#0000ff;stroke:#0000ff;" x="52.553427" xlink:href="#m6705c805ce" y="239.572205"/>
     <use style="fill:#0000ff;stroke:#0000ff;" x="55.504832" xlink:href="#m6705c805ce" y="233.691973"/>
     <use style="fill:#0000ff;stroke:#0000ff;" x="58.456237" xlink:href="#m6705c805ce" y="241.3685"/>
     <use style="fill:#0000ff;stroke:#0000ff;" x="61.407642" xlink:href="#m6705c805ce" y="241.059303"/>
     <use style="fill:#0000ff;stroke:#0000ff;" x="64.359047" xlink:href="#m6705c805ce" y="244.397452"/>
     <use style="fill:#0000ff;stroke:#0000ff;" x="67.310452" xlink:href="#m6705c805ce" y="241.00222"/>
     <use style="fill:#0000ff;stroke:#0000ff;" x="70.261857" xlink:href="#m6705c805ce" y="232.646953"/>
     <use style="fill:#0000ff;stroke:#0000ff;" x="73.213262" xlink:href="#m6705c805ce" y="236.227043"/>
     <use style="fill:#0000ff;stroke:#0000ff;" x="76.164667" xlink:href="#m6705c805ce" y="228.080314"/>
     <use style="fill:#0000ff;stroke:#0000ff;" x="79.116072" xlink:href="#m6705c805ce" y="228.791693"/>
     <use style="fill:#0000ff;stroke:#0000ff;" x="82.067477" xlink:href="#m6705c805ce" y="226.601932"/>
     <use style="fill:#0000ff;stroke:#0000ff;" x="85.018882" xlink:href="#m6705c805ce" y="221.160478"/>
     <use style="fill:#0000ff;stroke:#0000ff;" x="87.970287" xlink:href="#m6705c805ce" y="235.071781"/>
     <use style="fill:#0000ff;stroke:#0000ff;" x="90.921692" xlink:href="#m6705c805ce" y="229.617376"/>
     <use style="fill:#0000ff;stroke:#0000ff;" x="93.873097" xlink:href="#m6705c805ce" y="231.80252"/>
     <use style="fill:#0000ff;stroke:#0000ff;" x="96.824502" xlink:href="#m6705c805ce" y="228.237604"/>
     <use style="fill:#0000ff;stroke:#0000ff;" x="99.775907" xlink:href="#m6705c805ce" y="240.605004"/>
     <use style="fill:#0000ff;stroke:#0000ff;" x="102.727311" xlink:href="#m6705c805ce" y="228.731069"/>
     <use style="fill:#0000ff;stroke:#0000ff;" x="105.678716" xlink:href="#m6705c805ce" y="220.308615"/>
     <use style="fill:#0000ff;stroke:#0000ff;" x="108.630121" xlink:href="#m6705c805ce" y="222.473342"/>
     <use style="fill:#0000ff;stroke:#0000ff;" x="111.581526" xlink:href="#m6705c805ce" y="225.073619"/>
     <use style="fill:#0000ff;stroke:#0000ff;" x="114.532931" xlink:href="#m6705c805ce" y="228.774194"/>
     <use style="fill:#0000ff;stroke:#0000ff;" x="117.484336" xlink:href="#m6705c805ce" y="226.964878"/>
     <use style="fill:#0000ff;stroke:#0000ff;" x="120.435741" xlink:href="#m6705c805ce" y="225.696909"/>
     <use style="fill:#0000ff;stroke:#0000ff;" x="123.387146" xlink:href="#m6705c805ce" y="216.010896"/>
     <use style="fill:#0000ff;stroke:#0000ff;" x="126.338551" xlink:href="#m6705c805ce" y="215.518403"/>
     <use style="fill:#0000ff;stroke:#0000ff;" x="129.289956" xlink:href="#m6705c805ce" y="218.13795"/>
     <use style="fill:#0000ff;stroke:#0000ff;" x="132.241361" xlink:href="#m6705c805ce" y="216.972966"/>
     <use style="fill:#0000ff;stroke:#0000ff;" x="135.192766" xlink:href="#m6705c805ce" y="203.700162"/>
     <use style="fill:#0000ff;stroke:#0000ff;" x="138.144171" xlink:href="#m6705c805ce" y="217.23022"/>
     <use style="fill:#0000ff;stroke:#0000ff;" x="141.095576" xlink:href="#m6705c805ce" y="208.692976"/>
     <use style="fill:#0000ff;stroke:#0000ff;" x="144.046981" xlink:href="#m6705c805ce" y="215.927807"/>
     <use style="fill:#0000ff;stroke:#0000ff;" x="146.998386" xlink:href="#m6705c805ce" y="219.496543"/>
     <use style="fill:#0000ff;stroke:#0000ff;" x="149.949791" xlink:href="#m6705c805ce" y="208.776169"/>
     <use style="fill:#0000ff;stroke:#0000ff;" x="152.901196" xlink:href="#m6705c805ce" y="212.093728"/>
     <use style="fill:#0000ff;stroke:#0000ff;" x="155.852601" xlink:href="#m6705c805ce" y="202.660246"/>
     <use style="fill:#0000ff;stroke:#0000ff;" x="158.804006" xlink:href="#m6705c805ce" y="207.044838"/>
     <use style="fill:#0000ff;stroke:#0000ff;" x="161.755411" xlink:href="#m6705c805ce" y="190.353643"/>
     <use style="fill:#0000ff;stroke:#0000ff;" x="164.706816" xlink:href="#m6705c805ce" y="193.400129"/>
     <use style="fill:#0000ff;stroke:#0000ff;" x="167.658221" xlink:href="#m6705c805ce" y="177.903745"/>
     <use style="fill:#0000ff;stroke:#0000ff;" x="170.609626" xlink:href="#m6705c805ce" y="178.196588"/>
     <use style="fill:#0000ff;stroke:#0000ff;" x="173.56103" xlink:href="#m6705c805ce" y="162.281354"/>
     <use style="fill:#0000ff;stroke:#0000ff;" x="176.512435" xlink:href="#m6705c805ce" y="168.6571"/>
     <use style="fill:#0000ff;stroke:#0000ff;" x="179.46384" xlink:href="#m6705c805ce" y="152.55496"/>
     <use style="fill:#0000ff;stroke:#0000ff;" x="182.415245" xlink:href="#m6705c805ce" y="143.32842"/>
     <use style="fill:#0000ff;stroke:#0000ff;" x="185.36665" xlink:href="#m6705c805ce" y="122.52242"/>
     <use style="fill:#0000ff;stroke:#0000ff;" x="188.318055" xlink:href="#m6705c805ce" y="108.81167"/>
     <use style="fill:#0000ff;stroke:#0000ff;" x="191.26946" xlink:href="#m6705c805ce" y="86.539475"/>
     <use style="fill:#0000ff;stroke:#0000ff;" x="194.220865" xlink:href="#m6705c805ce" y="73.329205"/>
     <use style="fill:#0000ff;stroke:#0000ff;" x="197.17227" xlink:href="#m6705c805ce" y="67.833725"/>
     <use style="fill:#0000ff;stroke:#0000ff;" x="200.123675" xlink:href="#m6705c805ce" y="40.507397"/>
     <use style="fill:#0000ff;stroke:#0000ff;" x="203.07508" xlink:href="#m6705c805ce" y="31.935293"/>
     <use style="fill:#0000ff;stroke:#0000ff;" x="206.026485" xlink:href="#m6705c805ce" y="19.952887"/>
     <use style="fill:#0000ff;stroke:#0000ff;" x="208.97789" xlink:href="#m6705c805ce" y="24.667406"/>
     <use style="fill:#0000ff;stroke:#0000ff;" x="211.929295" xlink:href="#m6705c805ce" y="22.970415"/>
     <use style="fill:#0000ff;stroke:#0000ff;" x="214.8807" xlink:href="#m6705c805ce" y="26.753697"/>
     <use style="fill:#0000ff;stroke:#0000ff;" x="217.832105" xlink:href="#m6705c805ce" y="29.939834"/>
     <use style="fill:#0000ff;stroke:#0000ff;" x="220.78351" xlink:href="#m6705c805ce" y="26.398389"/>
     <use style="fill:#0000ff;stroke:#0000ff;" x="223.734915" xlink:href="#m6705c805ce" y="51.384297"/>
     <use style="fill:#0000ff;stroke:#0000ff;" x="226.68632" xlink:href="#m6705c805ce" y="53.553851"/>
     <use style="fill:#0000ff;stroke:#0000ff;" x="229.637725" xlink:href="#m6705c805ce" y="83.101606"/>
     <use style="fill:#0000ff;stroke:#0000ff;" x="232.58913" xlink:href="#m6705c805ce" y="91.467776"/>
     <use style="fill:#0000ff;stroke:#0000ff;" x="235.540535" xlink:href="#m6705c805ce" y="98.620039"/>
     <use style="fill:#0000ff;stroke:#0000ff;" x="238.49194" xlink:href="#m6705c805ce" y="113.86424"/>
     <use style="fill:#0000ff;stroke:#0000ff;" x="241.443345" xlink:href="#m6705c805ce" y="129.061671"/>
     <use style="fill:#0000ff;stroke:#0000ff;" x="244.394749" xlink:href="#m6705c805ce" y="140.896196"/>
     <use style="fill:#0000ff;stroke:#0000ff;" x="247.346154" xlink:href="#m6705c805ce" y="158.361547"/>
     <use style="fill:#0000ff;stroke:#0000ff;" x="250.297559" xlink:href="#m6705c805ce" y="164.566531"/>
     <use style="fill:#0000ff;stroke:#0000ff;" x="253.248964" xlink:href="#m6705c805ce" y="166.863965"/>
     <use style="fill:#0000ff;stroke:#0000ff;" x="256.200369" xlink:href="#m6705c805ce" y="167.649614"/>
     <use style="fill:#0000ff;stroke:#0000ff;" x="259.151774" xlink:href="#m6705c805ce" y="166.959068"/>
     <use style="fill:#0000ff;stroke:#0000ff;" x="262.103179" xlink:href="#m6705c805ce" y="167.770828"/>
     <use style="fill:#0000ff;stroke:#0000ff;" x="265.054584" xlink:href="#m6705c805ce" y="181.744491"/>
     <use style="fill:#0000ff;stroke:#0000ff;" x="268.005989" xlink:href="#m6705c805ce" y="178.208185"/>
     <use style="fill:#0000ff;stroke:#0000ff;" x="270.957394" xlink:href="#m6705c805ce" y="182.86767"/>
     <use style="fill:#0000ff;stroke:#0000ff;" x="273.908799" xlink:href="#m6705c805ce" y="175.827349"/>
     <use style="fill:#0000ff;stroke:#0000ff;" x="276.860204" xlink:href="#m6705c805ce" y="170.719815"/>
     <use style="fill:#0000ff;stroke:#0000ff;" x="279.811609" xlink:href="#m6705c805ce" y="180.642908"/>
     <use style="fill:#0000ff;stroke:#0000ff;" x="282.763014" xlink:href="#m6705c805ce" y="162.563781"/>
     <use style="fill:#0000ff;stroke:#0000ff;" x="285.714419" xlink:href="#m6705c805ce" y="167.74187"/>
     <use style="fill:#0000ff;stroke:#0000ff;" x="288.665824" xlink:href="#m6705c805ce" y="163.151898"/>
     <use style="fill:#0000ff;stroke:#0000ff;" x="291.617229" xlink:href="#m6705c805ce" y="171.189184"/>
     <use style="fill:#0000ff;stroke:#0000ff;" x="294.568634" xlink:href="#m6705c805ce" y="168.048741"/>
     <use style="fill:#0000ff;stroke:#0000ff;" x="297.520039" xlink:href="#m6705c805ce" y="161.881429"/>
     <use style="fill:#0000ff;stroke:#0000ff;" x="300.471444" xlink:href="#m6705c805ce" y="163.528698"/>
     <use style="fill:#0000ff;stroke:#0000ff;" x="303.422849" xlink:href="#m6705c805ce" y="154.52587"/>
     <use style="fill:#0000ff;stroke:#0000ff;" x="306.374254" xlink:href="#m6705c805ce" y="159.624516"/>
     <use style="fill:#0000ff;stroke:#0000ff;" x="309.325659" xlink:href="#m6705c805ce" y="160.549677"/>
     <use style="fill:#0000ff;stroke:#0000ff;" x="312.277064" xlink:href="#m6705c805ce" y="162.085315"/>
     <use style="fill:#0000ff;stroke:#0000ff;" x="315.228468" xlink:href="#m6705c805ce" y="155.237249"/>
     <use style="fill:#0000ff;stroke:#0000ff;" x="318.179873" xlink:href="#m6705c805ce" y="160.460199"/>
     <use style="fill:#0000ff;stroke:#0000ff;" x="321.131278" xlink:href="#m6705c805ce" y="154.728506"/>
     <use style="fill:#0000ff;stroke:#0000ff;" x="324.082683" xlink:href="#m6705c805ce" y="156.630078"/>
     <use style="fill:#0000ff;stroke:#0000ff;" x="327.034088" xlink:href="#m6705c805ce" y="153.875845"/>
     <use style="fill:#0000ff;stroke:#0000ff;" x="329.985493" xlink:href="#m6705c805ce" y="147.166388"/>
     <use style="fill:#0000ff;stroke:#0000ff;" x="332.936898" xlink:href="#m6705c805ce" y="157.800999"/>
     <use style="fill:#0000ff;stroke:#0000ff;" x="335.888303" xlink:href="#m6705c805ce" y="148.183422"/>
     <use style="fill:#0000ff;stroke:#0000ff;" x="338.839708" xlink:href="#m6705c805ce" y="161.196161"/>
    </g>
   </g>
   <g id="line2d_15">
    <path clip-path="url(#p37f3357408)" d="M 43.699212 176.226947 
L 46.650617 176.226782 
L 49.602022 176.226517 
L 52.553427 176.226099 
L 55.504832 176.225444 
L 58.456237 176.22443 
L 61.407642 176.222875 
L 64.359047 176.220515 
L 67.310452 176.216972 
L 70.261857 176.211708 
L 73.213262 176.203971 
L 76.164667 176.192717 
L 79.116072 176.17652 
L 82.067477 176.153459 
L 85.018882 176.120973 
L 87.970287 176.0757 
L 90.921692 176.013281 
L 93.873097 175.928152 
L 96.824502 175.813306 
L 99.775907 175.660057 
L 102.727311 175.457797 
L 105.678716 175.193793 
L 108.630121 174.853013 
L 111.581526 174.41804 
L 114.532931 173.869083 
L 117.484336 173.184139 
L 120.435741 172.339319 
L 123.387146 171.309384 
L 126.338551 170.068506 
L 129.289956 168.591269 
L 132.241361 166.853902 
L 135.192766 164.835727 
L 138.144171 162.520768 
L 141.095576 159.899464 
L 144.046981 156.970379 
L 146.998386 153.741819 
L 149.949791 150.233209 
L 152.901196 146.476121 
L 155.852601 142.51481 
L 158.804006 138.406165 
L 161.755411 134.218974 
L 164.706816 130.032482 
L 167.658221 125.934222 
L 170.609626 122.017195 
L 173.56103 118.376504 
L 176.512435 115.10559 
L 179.46384 112.292293 
L 182.415245 110.01495 
L 185.36665 108.338778 
L 188.318055 107.312776 
L 191.26946 106.967341 
L 194.220865 107.312776 
L 197.17227 108.338778 
L 200.123675 110.01495 
L 203.07508 112.292293 
L 206.026485 115.10559 
L 208.97789 118.376504 
L 211.929295 122.017195 
L 214.8807 125.934222 
L 217.832105 130.032482 
L 220.78351 134.218974 
L 223.734915 138.406165 
L 226.68632 142.51481 
L 229.637725 146.476121 
L 232.58913 150.233209 
L 235.540535 153.741819 
L 238.49194 156.970379 
L 241.443345 159.899464 
L 244.394749 162.520768 
L 247.346154 164.835727 
L 250.297559 166.853902 
L 253.248964 168.591269 
L 256.200369 170.068506 
L 259.151774 171.309384 
L 262.103179 172.339319 
L 265.054584 173.184139 
L 268.005989 173.869083 
L 270.957394 174.41804 
L 273.908799 174.853013 
L 276.860204 175.193793 
L 279.811609 175.457797 
L 282.763014 175.660057 
L 285.714419 175.813306 
L 288.665824 175.928152 
L 291.617229 176.013281 
L 294.568634 176.0757 
L 297.520039 176.120973 
L 300.471444 176.153459 
L 303.422849 176.17652 
L 306.374254 176.192717 
L 309.325659 176.203971 
L 312.277064 176.211708 
L 315.228468 176.216972 
L 318.179873 176.220515 
L 321.131278 176.222875 
L 324.082683 176.22443 
L 327.034088 176.225444 
L 329.985493 176.226099 
L 332.936898 176.226517 
L 335.888303 176.226782 
L 338.839708 176.226947 
" style="fill:none;stroke:#000000;stroke-dasharray:5.55,2.4;stroke-dashoffset:0;stroke-width:1.5;"/>
   </g>
   <g id="line2d_16">
    <path clip-path="url(#p37f3357408)" d="M 43.699212 244.580505 
L 46.650617 243.660921 
L 49.602022 242.741336 
L 52.553427 241.821751 
L 55.504832 240.902166 
L 58.456237 239.982582 
L 61.407642 239.062997 
L 64.359047 238.143412 
L 67.310452 237.223827 
L 70.261857 236.304243 
L 73.213262 235.384658 
L 76.164667 234.465073 
L 79.116072 233.545488 
L 82.067477 232.625903 
L 85.018882 231.706318 
L 87.970287 230.786733 
L 90.921692 229.867147 
L 93.873097 228.947558 
L 96.824502 228.027965 
L 99.775907 227.108361 
L 102.727311 226.188734 
L 105.678716 225.269059 
L 108.630121 224.349281 
L 111.581526 223.429297 
L 114.532931 222.508904 
L 117.484336 221.587723 
L 120.435741 220.665053 
L 123.387146 219.739642 
L 126.338551 218.809304 
L 129.289956 217.870327 
L 132.241361 216.916569 
L 135.192766 215.938148 
L 138.144171 214.919602 
L 141.095576 213.837431 
L 144.046981 212.656957 
L 146.998386 211.328578 
L 149.949791 209.78359 
L 152.901196 207.930038 
L 155.852601 205.649256 
L 158.804006 202.794094 
L 161.755411 199.190007 
L 164.706816 194.640311 
L 167.658221 188.936784 
L 170.609626 181.876328 
L 173.56103 173.283691 
L 176.512435 163.039106 
L 179.46384 151.108465 
L 182.415245 137.572374 
L 185.36665 122.649487 
L 188.318055 106.709186 
L 191.26946 90.269192 
L 194.220865 73.975171 
L 197.17227 58.561773 
L 200.123675 44.797438 
L 203.07508 33.418261 
L 206.026485 25.058636 
L 208.97789 20.187694 
L 211.929295 19.060364 
L 214.8807 21.690155 
L 217.832105 27.84771 
L 220.78351 37.085322 
L 223.734915 48.783797 
L 226.68632 62.214824 
L 229.637725 76.610152 
L 232.58913 91.228483 
L 235.540535 105.412174 
L 238.49194 118.628152 
L 241.443345 130.490357 
L 244.394749 140.763999 
L 247.346154 149.354334 
L 250.297559 156.284255 
L 253.248964 161.665631 
L 256.200369 165.669054 
L 259.151774 168.49578 
L 262.103179 170.354398 
L 265.054584 171.443477 
L 268.005989 171.940331 
L 270.957394 171.995232 
L 273.908799 171.729918 
L 276.860204 171.239126 
L 279.811609 170.593909 
L 282.763014 169.845755 
L 285.714419 169.030784 
L 288.665824 168.173556 
L 291.617229 167.290282 
L 294.568634 166.391355 
L 297.520039 165.483254 
L 300.471444 164.569907 
L 303.422849 163.653634 
L 306.374254 162.735768 
L 309.325659 161.817054 
L 312.277064 160.897901 
L 315.228468 159.978526 
L 318.179873 159.05904 
L 321.131278 158.139501 
L 324.082683 157.219937 
L 327.034088 156.300362 
L 329.985493 155.380781 
L 332.936898 154.461198 
L 335.888303 153.541614 
L 338.839708 152.622029 
" style="fill:none;stroke:#ff0000;stroke-linecap:square;stroke-width:1.5;"/>
   </g>
   <g id="patch_3">
    <path d="M 28.942188 268.128 
L 28.942188 7.2 
" style="fill:none;stroke:#000000;stroke-linecap:square;stroke-linejoin:miter;stroke-width:0.8;"/>
   </g>
   <g id="patch_4">
    <path d="M 353.596733 268.128 
L 353.596733 7.2 
" style="fill:none;stroke:#000000;stroke-linecap:square;stroke-linejoin:miter;stroke-width:0.8;"/>
   </g>
   <g id="patch_5">
    <path d="M 28.942188 268.128 
L 353.596733 268.128 
" style="fill:none;stroke:#000000;stroke-linecap:square;stroke-linejoin:miter;stroke-width:0.8;"/>
   </g>
   <g id="patch_6">
    <path d="M 28.942188 7.2 
L 353.596733 7.2 
" style="fill:none;stroke:#000000;stroke-linecap:square;stroke-linejoin:miter;stroke-width:0.8;"/>
   </g>
   <g id="legend_1">
    <g id="patch_7">
     <path d="M 273.70142 44.55625 
L 346.596733 44.55625 
Q 348.596733 44.55625 348.596733 42.55625 
L 348.596733 14.2 
Q 348.596733 12.2 346.596733 12.2 
L 273.70142 12.2 
Q 271.70142 12.2 271.70142 14.2 
L 271.70142 42.55625 
Q 271.70142 44.55625 273.70142 44.55625 
z
" style="fill:#ffffff;opacity:0.8;stroke:#cccccc;stroke-linejoin:miter;"/>
    </g>
    <g id="line2d_17">
     <path d="M 275.70142 20.298437 
L 295.70142 20.298437 
" style="fill:none;stroke:#000000;stroke-dasharray:5.55,2.4;stroke-dashoffset:0;stroke-width:1.5;"/>
    </g>
    <g id="line2d_18"/>
    <g id="text_14">
     <!-- initial fit -->
     <defs>
      <path d="M 9.421875 54.6875 
L 18.40625 54.6875 
L 18.40625 0 
L 9.421875 0 
z
M 9.421875 75.984375 
L 18.40625 75.984375 
L 18.40625 64.59375 
L 9.421875 64.59375 
z
" id="DejaVuSans-105"/>
      <path d="M 54.890625 33.015625 
L 54.890625 0 
L 45.90625 0 
L 45.90625 32.71875 
Q 45.90625 40.484375 42.875 44.328125 
Q 39.84375 48.1875 33.796875 48.1875 
Q 26.515625 48.1875 22.3125 43.546875 
Q 18.109375 38.921875 18.109375 30.90625 
L 18.109375 0 
L 9.078125 0 
L 9.078125 54.6875 
L 18.109375 54.6875 
L 18.109375 46.1875 
Q 21.34375 51.125 25.703125 53.5625 
Q 30.078125 56 35.796875 56 
Q 45.21875 56 50.046875 50.171875 
Q 54.890625 44.34375 54.890625 33.015625 
z
" id="DejaVuSans-110"/>
      <path d="M 18.3125 70.21875 
L 18.3125 54.6875 
L 36.8125 54.6875 
L 36.8125 47.703125 
L 18.3125 47.703125 
L 18.3125 18.015625 
Q 18.3125 11.328125 20.140625 9.421875 
Q 21.96875 7.515625 27.59375 7.515625 
L 36.8125 7.515625 
L 36.8125 0 
L 27.59375 0 
Q 17.1875 0 13.234375 3.875 
Q 9.28125 7.765625 9.28125 18.015625 
L 9.28125 47.703125 
L 2.6875 47.703125 
L 2.6875 54.6875 
L 9.28125 54.6875 
L 9.28125 70.21875 
z
" id="DejaVuSans-116"/>
      <path d="M 34.28125 27.484375 
Q 23.390625 27.484375 19.1875 25 
Q 14.984375 22.515625 14.984375 16.5 
Q 14.984375 11.71875 18.140625 8.90625 
Q 21.296875 6.109375 26.703125 6.109375 
Q 34.1875 6.109375 38.703125 11.40625 
Q 43.21875 16.703125 43.21875 25.484375 
L 43.21875 27.484375 
z
M 52.203125 31.203125 
L 52.203125 0 
L 43.21875 0 
L 43.21875 8.296875 
Q 40.140625 3.328125 35.546875 0.953125 
Q 30.953125 -1.421875 24.3125 -1.421875 
Q 15.921875 -1.421875 10.953125 3.296875 
Q 6 8.015625 6 15.921875 
Q 6 25.140625 12.171875 29.828125 
Q 18.359375 34.515625 30.609375 34.515625 
L 43.21875 34.515625 
L 43.21875 35.40625 
Q 43.21875 41.609375 39.140625 45 
Q 35.0625 48.390625 27.6875 48.390625 
Q 23 48.390625 18.546875 47.265625 
Q 14.109375 46.140625 10.015625 43.890625 
L 10.015625 52.203125 
Q 14.9375 54.109375 19.578125 55.046875 
Q 24.21875 56 28.609375 56 
Q 40.484375 56 46.34375 49.84375 
Q 52.203125 43.703125 52.203125 31.203125 
z
" id="DejaVuSans-97"/>
      <path d="M 9.421875 75.984375 
L 18.40625 75.984375 
L 18.40625 0 
L 9.421875 0 
z
" id="DejaVuSans-108"/>
      <path id="DejaVuSans-32"/>
      <path d="M 37.109375 75.984375 
L 37.109375 68.5 
L 28.515625 68.5 
Q 23.6875 68.5 21.796875 66.546875 
Q 19.921875 64.59375 19.921875 59.515625 
L 19.921875 54.6875 
L 34.71875 54.6875 
L 34.71875 47.703125 
L 19.921875 47.703125 
L 19.921875 0 
L 10.890625 0 
L 10.890625 47.703125 
L 2.296875 47.703125 
L 2.296875 54.6875 
L 10.890625 54.6875 
L 10.890625 58.5 
Q 10.890625 67.625 15.140625 71.796875 
Q 19.390625 75.984375 28.609375 75.984375 
z
" id="DejaVuSans-102"/>
     </defs>
     <g transform="translate(303.70142 23.798437)scale(0.1 -0.1)">
      <use xlink:href="#DejaVuSans-105"/>
      <use x="27.783203" xlink:href="#DejaVuSans-110"/>
      <use x="91.162109" xlink:href="#DejaVuSans-105"/>
      <use x="118.945312" xlink:href="#DejaVuSans-116"/>
      <use x="158.154297" xlink:href="#DejaVuSans-105"/>
      <use x="185.9375" xlink:href="#DejaVuSans-97"/>
      <use x="247.216797" xlink:href="#DejaVuSans-108"/>
      <use x="275" xlink:href="#DejaVuSans-32"/>
      <use x="306.787109" xlink:href="#DejaVuSans-102"/>
      <use x="341.992188" xlink:href="#DejaVuSans-105"/>
      <use x="369.775391" xlink:href="#DejaVuSans-116"/>
     </g>
    </g>
    <g id="line2d_19">
     <path d="M 275.70142 34.976562 
L 295.70142 34.976562 
" style="fill:none;stroke:#ff0000;stroke-linecap:square;stroke-width:1.5;"/>
    </g>
    <g id="line2d_20"/>
    <g id="text_15">
     <!-- best fit -->
     <defs>
      <path d="M 48.6875 27.296875 
Q 48.6875 37.203125 44.609375 42.84375 
Q 40.53125 48.484375 33.40625 48.484375 
Q 26.265625 48.484375 22.1875 42.84375 
Q 18.109375 37.203125 18.109375 27.296875 
Q 18.109375 17.390625 22.1875 11.75 
Q 26.265625 6.109375 33.40625 6.109375 
Q 40.53125 6.109375 44.609375 11.75 
Q 48.6875 17.390625 48.6875 27.296875 
z
M 18.109375 46.390625 
Q 20.953125 51.265625 25.265625 53.625 
Q 29.59375 56 35.59375 56 
Q 45.5625 56 51.78125 48.09375 
Q 58.015625 40.1875 58.015625 27.296875 
Q 58.015625 14.40625 51.78125 6.484375 
Q 45.5625 -1.421875 35.59375 -1.421875 
Q 29.59375 -1.421875 25.265625 0.953125 
Q 20.953125 3.328125 18.109375 8.203125 
L 18.109375 0 
L 9.078125 0 
L 9.078125 75.984375 
L 18.109375 75.984375 
z
" id="DejaVuSans-98"/>
      <path d="M 56.203125 29.59375 
L 56.203125 25.203125 
L 14.890625 25.203125 
Q 15.484375 15.921875 20.484375 11.0625 
Q 25.484375 6.203125 34.421875 6.203125 
Q 39.59375 6.203125 44.453125 7.46875 
Q 49.3125 8.734375 54.109375 11.28125 
L 54.109375 2.78125 
Q 49.265625 0.734375 44.1875 -0.34375 
Q 39.109375 -1.421875 33.890625 -1.421875 
Q 20.796875 -1.421875 13.15625 6.1875 
Q 5.515625 13.8125 5.515625 26.8125 
Q 5.515625 40.234375 12.765625 48.109375 
Q 20.015625 56 32.328125 56 
Q 43.359375 56 49.78125 48.890625 
Q 56.203125 41.796875 56.203125 29.59375 
z
M 47.21875 32.234375 
Q 47.125 39.59375 43.09375 43.984375 
Q 39.0625 48.390625 32.421875 48.390625 
Q 24.90625 48.390625 20.390625 44.140625 
Q 15.875 39.890625 15.1875 32.171875 
z
" id="DejaVuSans-101"/>
      <path d="M 44.28125 53.078125 
L 44.28125 44.578125 
Q 40.484375 46.53125 36.375 47.5 
Q 32.28125 48.484375 27.875 48.484375 
Q 21.1875 48.484375 17.84375 46.4375 
Q 14.5 44.390625 14.5 40.28125 
Q 14.5 37.15625 16.890625 35.375 
Q 19.28125 33.59375 26.515625 31.984375 
L 29.59375 31.296875 
Q 39.15625 29.25 43.1875 25.515625 
Q 47.21875 21.78125 47.21875 15.09375 
Q 47.21875 7.46875 41.1875 3.015625 
Q 35.15625 -1.421875 24.609375 -1.421875 
Q 20.21875 -1.421875 15.453125 -0.5625 
Q 10.6875 0.296875 5.421875 2 
L 5.421875 11.28125 
Q 10.40625 8.6875 15.234375 7.390625 
Q 20.0625 6.109375 24.8125 6.109375 
Q 31.15625 6.109375 34.5625 8.28125 
Q 37.984375 10.453125 37.984375 14.40625 
Q 37.984375 18.0625 35.515625 20.015625 
Q 33.0625 21.96875 24.703125 23.78125 
L 21.578125 24.515625 
Q 13.234375 26.265625 9.515625 29.90625 
Q 5.8125 33.546875 5.8125 39.890625 
Q 5.8125 47.609375 11.28125 51.796875 
Q 16.75 56 26.8125 56 
Q 31.78125 56 36.171875 55.265625 
Q 40.578125 54.546875 44.28125 53.078125 
z
" id="DejaVuSans-115"/>
     </defs>
     <g transform="translate(303.70142 38.476562)scale(0.1 -0.1)">
      <use xlink:href="#DejaVuSans-98"/>
      <use x="63.476562" xlink:href="#DejaVuSans-101"/>
      <use x="125" xlink:href="#DejaVuSans-115"/>
      <use x="177.099609" xlink:href="#DejaVuSans-116"/>
      <use x="216.308594" xlink:href="#DejaVuSans-32"/>
      <use x="248.095703" xlink:href="#DejaVuSans-102"/>
      <use x="283.300781" xlink:href="#DejaVuSans-105"/>
      <use x="311.083984" xlink:href="#DejaVuSans-116"/>
     </g>
    </g>
   </g>
  </g>
  <g id="axes_2">
   <g id="patch_8">
    <path d="M 418.527642 268.128 
L 743.182187 268.128 
L 743.182187 7.2 
L 418.527642 7.2 
z
" style="fill:#ffffff;"/>
   </g>
   <g id="matplotlib.axis_3">
    <g id="xtick_7">
     <g id="line2d_21">
      <g>
       <use style="stroke:#000000;stroke-width:0.8;" x="433.284667" xlink:href="#mf8a223d0a1" y="268.128"/>
      </g>
     </g>
     <g id="text_16">
      <!-- 0 -->
      <g transform="translate(430.103417 282.726437)scale(0.1 -0.1)">
       <use xlink:href="#DejaVuSans-48"/>
      </g>
     </g>
    </g>
    <g id="xtick_8">
     <g id="line2d_22">
      <g>
       <use style="stroke:#000000;stroke-width:0.8;" x="492.312766" xlink:href="#mf8a223d0a1" y="268.128"/>
      </g>
     </g>
     <g id="text_17">
      <!-- 2 -->
      <g transform="translate(489.131516 282.726437)scale(0.1 -0.1)">
       <use xlink:href="#DejaVuSans-50"/>
      </g>
     </g>
    </g>
    <g id="xtick_9">
     <g id="line2d_23">
      <g>
       <use style="stroke:#000000;stroke-width:0.8;" x="551.340865" xlink:href="#mf8a223d0a1" y="268.128"/>
      </g>
     </g>
     <g id="text_18">
      <!-- 4 -->
      <g transform="translate(548.159615 282.726437)scale(0.1 -0.1)">
       <use xlink:href="#DejaVuSans-52"/>
      </g>
     </g>
    </g>
    <g id="xtick_10">
     <g id="line2d_24">
      <g>
       <use style="stroke:#000000;stroke-width:0.8;" x="610.368964" xlink:href="#mf8a223d0a1" y="268.128"/>
      </g>
     </g>
     <g id="text_19">
      <!-- 6 -->
      <g transform="translate(607.187714 282.726437)scale(0.1 -0.1)">
       <use xlink:href="#DejaVuSans-54"/>
      </g>
     </g>
    </g>
    <g id="xtick_11">
     <g id="line2d_25">
      <g>
       <use style="stroke:#000000;stroke-width:0.8;" x="669.397064" xlink:href="#mf8a223d0a1" y="268.128"/>
      </g>
     </g>
     <g id="text_20">
      <!-- 8 -->
      <g transform="translate(666.215814 282.726437)scale(0.1 -0.1)">
       <use xlink:href="#DejaVuSans-56"/>
      </g>
     </g>
    </g>
    <g id="xtick_12">
     <g id="line2d_26">
      <g>
       <use style="stroke:#000000;stroke-width:0.8;" x="728.425163" xlink:href="#mf8a223d0a1" y="268.128"/>
      </g>
     </g>
     <g id="text_21">
      <!-- 10 -->
      <g transform="translate(722.062663 282.726437)scale(0.1 -0.1)">
       <use xlink:href="#DejaVuSans-49"/>
       <use x="63.623047" xlink:href="#DejaVuSans-48"/>
      </g>
     </g>
    </g>
   </g>
   <g id="matplotlib.axis_4">
    <g id="ytick_8">
     <g id="line2d_27">
      <g>
       <use style="stroke:#000000;stroke-width:0.8;" x="418.527642" xlink:href="#mc069635a41" y="245.630675"/>
      </g>
     </g>
     <g id="text_22">
      <!-- −1 -->
      <g transform="translate(396.785455 249.429894)scale(0.1 -0.1)">
       <use xlink:href="#DejaVuSans-8722"/>
       <use x="83.789062" xlink:href="#DejaVuSans-49"/>
      </g>
     </g>
    </g>
    <g id="ytick_9">
     <g id="line2d_28">
      <g>
       <use style="stroke:#000000;stroke-width:0.8;" x="418.527642" xlink:href="#mc069635a41" y="210.77779"/>
      </g>
     </g>
     <g id="text_23">
      <!-- 0 -->
      <g transform="translate(405.165142 214.577009)scale(0.1 -0.1)">
       <use xlink:href="#DejaVuSans-48"/>
      </g>
     </g>
    </g>
    <g id="ytick_10">
     <g id="line2d_29">
      <g>
       <use style="stroke:#000000;stroke-width:0.8;" x="418.527642" xlink:href="#mc069635a41" y="175.924905"/>
      </g>
     </g>
     <g id="text_24">
      <!-- 1 -->
      <g transform="translate(405.165142 179.724124)scale(0.1 -0.1)">
       <use xlink:href="#DejaVuSans-49"/>
      </g>
     </g>
    </g>
    <g id="ytick_11">
     <g id="line2d_30">
      <g>
       <use style="stroke:#000000;stroke-width:0.8;" x="418.527642" xlink:href="#mc069635a41" y="141.07202"/>
      </g>
     </g>
     <g id="text_25">
      <!-- 2 -->
      <g transform="translate(405.165142 144.871238)scale(0.1 -0.1)">
       <use xlink:href="#DejaVuSans-50"/>
      </g>
     </g>
    </g>
    <g id="ytick_12">
     <g id="line2d_31">
      <g>
       <use style="stroke:#000000;stroke-width:0.8;" x="418.527642" xlink:href="#mc069635a41" y="106.219134"/>
      </g>
     </g>
     <g id="text_26">
      <!-- 3 -->
      <g transform="translate(405.165142 110.018353)scale(0.1 -0.1)">
       <use xlink:href="#DejaVuSans-51"/>
      </g>
     </g>
    </g>
    <g id="ytick_13">
     <g id="line2d_32">
      <g>
       <use style="stroke:#000000;stroke-width:0.8;" x="418.527642" xlink:href="#mc069635a41" y="71.366249"/>
      </g>
     </g>
     <g id="text_27">
      <!-- 4 -->
      <g transform="translate(405.165142 75.165468)scale(0.1 -0.1)">
       <use xlink:href="#DejaVuSans-52"/>
      </g>
     </g>
    </g>
    <g id="ytick_14">
     <g id="line2d_33">
      <g>
       <use style="stroke:#000000;stroke-width:0.8;" x="418.527642" xlink:href="#mc069635a41" y="36.513364"/>
      </g>
     </g>
     <g id="text_28">
      <!-- 5 -->
      <g transform="translate(405.165142 40.312583)scale(0.1 -0.1)">
       <use xlink:href="#DejaVuSans-53"/>
      </g>
     </g>
    </g>
   </g>
   <g id="line2d_34">
    <g clip-path="url(#paafec68fb7)">
     <use style="fill:#0000ff;stroke:#0000ff;" x="433.284667" xlink:href="#m6705c805ce" y="256.267636"/>
     <use style="fill:#0000ff;stroke:#0000ff;" x="436.236072" xlink:href="#m6705c805ce" y="244.587459"/>
     <use style="fill:#0000ff;stroke:#0000ff;" x="439.187477" xlink:href="#m6705c805ce" y="237.177631"/>
     <use style="fill:#0000ff;stroke:#0000ff;" x="442.138882" xlink:href="#m6705c805ce" y="239.509149"/>
     <use style="fill:#0000ff;stroke:#0000ff;" x="445.090287" xlink:href="#m6705c805ce" y="233.606709"/>
     <use style="fill:#0000ff;stroke:#0000ff;" x="448.041692" xlink:href="#m6705c805ce" y="241.312228"/>
     <use style="fill:#0000ff;stroke:#0000ff;" x="450.993097" xlink:href="#m6705c805ce" y="241.001864"/>
     <use style="fill:#0000ff;stroke:#0000ff;" x="453.944502" xlink:href="#m6705c805ce" y="244.35262"/>
     <use style="fill:#0000ff;stroke:#0000ff;" x="456.895907" xlink:href="#m6705c805ce" y="240.944565"/>
     <use style="fill:#0000ff;stroke:#0000ff;" x="459.847311" xlink:href="#m6705c805ce" y="232.557741"/>
     <use style="fill:#0000ff;stroke:#0000ff;" x="462.798716" xlink:href="#m6705c805ce" y="236.151353"/>
     <use style="fill:#0000ff;stroke:#0000ff;" x="465.750121" xlink:href="#m6705c805ce" y="227.973855"/>
     <use style="fill:#0000ff;stroke:#0000ff;" x="468.701526" xlink:href="#m6705c805ce" y="228.687921"/>
     <use style="fill:#0000ff;stroke:#0000ff;" x="471.652931" xlink:href="#m6705c805ce" y="226.489889"/>
     <use style="fill:#0000ff;stroke:#0000ff;" x="474.604336" xlink:href="#m6705c805ce" y="221.027884"/>
     <use style="fill:#0000ff;stroke:#0000ff;" x="477.555741" xlink:href="#m6705c805ce" y="234.991727"/>
     <use style="fill:#0000ff;stroke:#0000ff;" x="480.507146" xlink:href="#m6705c805ce" y="229.516723"/>
     <use style="fill:#0000ff;stroke:#0000ff;" x="483.458551" xlink:href="#m6705c805ce" y="231.710119"/>
     <use style="fill:#0000ff;stroke:#0000ff;" x="486.409956" xlink:href="#m6705c805ce" y="228.131739"/>
     <use style="fill:#0000ff;stroke:#0000ff;" x="489.361361" xlink:href="#m6705c805ce" y="240.545848"/>
     <use style="fill:#0000ff;stroke:#0000ff;" x="492.312766" xlink:href="#m6705c805ce" y="228.627068"/>
     <use style="fill:#0000ff;stroke:#0000ff;" x="495.264171" xlink:href="#m6705c805ce" y="220.172803"/>
     <use style="fill:#0000ff;stroke:#0000ff;" x="498.215576" xlink:href="#m6705c805ce" y="222.345707"/>
     <use style="fill:#0000ff;stroke:#0000ff;" x="501.166981" xlink:href="#m6705c805ce" y="224.955804"/>
     <use style="fill:#0000ff;stroke:#0000ff;" x="504.118386" xlink:href="#m6705c805ce" y="228.670355"/>
     <use style="fill:#0000ff;stroke:#0000ff;" x="507.069791" xlink:href="#m6705c805ce" y="226.854206"/>
     <use style="fill:#0000ff;stroke:#0000ff;" x="510.021196" xlink:href="#m6705c805ce" y="225.581448"/>
     <use style="fill:#0000ff;stroke:#0000ff;" x="512.972601" xlink:href="#m6705c805ce" y="215.858853"/>
     <use style="fill:#0000ff;stroke:#0000ff;" x="515.924006" xlink:href="#m6705c805ce" y="215.364499"/>
     <use style="fill:#0000ff;stroke:#0000ff;" x="518.875411" xlink:href="#m6705c805ce" y="217.993941"/>
     <use style="fill:#0000ff;stroke:#0000ff;" x="521.826816" xlink:href="#m6705c805ce" y="216.824556"/>
     <use style="fill:#0000ff;stroke:#0000ff;" x="524.778221" xlink:href="#m6705c805ce" y="203.501623"/>
     <use style="fill:#0000ff;stroke:#0000ff;" x="527.729626" xlink:href="#m6705c805ce" y="217.082782"/>
     <use style="fill:#0000ff;stroke:#0000ff;" x="530.68103" xlink:href="#m6705c805ce" y="208.513294"/>
     <use style="fill:#0000ff;stroke:#0000ff;" x="533.632435" xlink:href="#m6705c805ce" y="215.77545"/>
     <use style="fill:#0000ff;stroke:#0000ff;" x="536.58384" xlink:href="#m6705c805ce" y="219.357664"/>
     <use style="fill:#0000ff;stroke:#0000ff;" x="539.535245" xlink:href="#m6705c805ce" y="208.596801"/>
     <use style="fill:#0000ff;stroke:#0000ff;" x="542.48665" xlink:href="#m6705c805ce" y="211.92689"/>
     <use style="fill:#0000ff;stroke:#0000ff;" x="545.438055" xlink:href="#m6705c805ce" y="202.457779"/>
     <use style="fill:#0000ff;stroke:#0000ff;" x="548.38946" xlink:href="#m6705c805ce" y="206.858932"/>
     <use style="fill:#0000ff;stroke:#0000ff;" x="551.340865" xlink:href="#m6705c805ce" y="190.104697"/>
     <use style="fill:#0000ff;stroke:#0000ff;" x="554.29227" xlink:href="#m6705c805ce" y="193.162689"/>
     <use style="fill:#0000ff;stroke:#0000ff;" x="557.243675" xlink:href="#m6705c805ce" y="177.607776"/>
     <use style="fill:#0000ff;stroke:#0000ff;" x="560.19508" xlink:href="#m6705c805ce" y="177.901726"/>
     <use style="fill:#0000ff;stroke:#0000ff;" x="563.146485" xlink:href="#m6705c805ce" y="161.926383"/>
     <use style="fill:#0000ff;stroke:#0000ff;" x="566.09789" xlink:href="#m6705c805ce" y="168.326209"/>
     <use style="fill:#0000ff;stroke:#0000ff;" x="569.049295" xlink:href="#m6705c805ce" y="152.163253"/>
     <use style="fill:#0000ff;stroke:#0000ff;" x="572.0007" xlink:href="#m6705c805ce" y="142.901866"/>
     <use style="fill:#0000ff;stroke:#0000ff;" x="574.952105" xlink:href="#m6705c805ce" y="122.017285"/>
     <use style="fill:#0000ff;stroke:#0000ff;" x="577.90351" xlink:href="#m6705c805ce" y="108.254752"/>
     <use style="fill:#0000ff;stroke:#0000ff;" x="580.854915" xlink:href="#m6705c805ce" y="85.898439"/>
     <use style="fill:#0000ff;stroke:#0000ff;" x="583.80632" xlink:href="#m6705c805ce" y="72.638275"/>
     <use style="fill:#0000ff;stroke:#0000ff;" x="586.757725" xlink:href="#m6705c805ce" y="67.122039"/>
     <use style="fill:#0000ff;stroke:#0000ff;" x="589.70913" xlink:href="#m6705c805ce" y="39.692505"/>
     <use style="fill:#0000ff;stroke:#0000ff;" x="592.660535" xlink:href="#m6705c805ce" y="31.088025"/>
     <use style="fill:#0000ff;stroke:#0000ff;" x="595.61194" xlink:href="#m6705c805ce" y="19.060364"/>
     <use style="fill:#0000ff;stroke:#0000ff;" x="598.563345" xlink:href="#m6705c805ce" y="23.792688"/>
     <use style="fill:#0000ff;stroke:#0000ff;" x="601.514749" xlink:href="#m6705c805ce" y="22.089288"/>
     <use style="fill:#0000ff;stroke:#0000ff;" x="604.466154" xlink:href="#m6705c805ce" y="25.886859"/>
     <use style="fill:#0000ff;stroke:#0000ff;" x="607.417559" xlink:href="#m6705c805ce" y="29.085029"/>
     <use style="fill:#0000ff;stroke:#0000ff;" x="610.368964" xlink:href="#m6705c805ce" y="25.530209"/>
     <use style="fill:#0000ff;stroke:#0000ff;" x="613.320369" xlink:href="#m6705c805ce" y="50.610485"/>
     <use style="fill:#0000ff;stroke:#0000ff;" x="616.271774" xlink:href="#m6705c805ce" y="52.788233"/>
     <use style="fill:#0000ff;stroke:#0000ff;" x="619.223179" xlink:href="#m6705c805ce" y="82.447585"/>
     <use style="fill:#0000ff;stroke:#0000ff;" x="622.174584" xlink:href="#m6705c805ce" y="90.845353"/>
     <use style="fill:#0000ff;stroke:#0000ff;" x="625.125989" xlink:href="#m6705c805ce" y="98.024629"/>
     <use style="fill:#0000ff;stroke:#0000ff;" x="628.077394" xlink:href="#m6705c805ce" y="113.326405"/>
     <use style="fill:#0000ff;stroke:#0000ff;" x="631.028799" xlink:href="#m6705c805ce" y="128.581234"/>
     <use style="fill:#0000ff;stroke:#0000ff;" x="633.980204" xlink:href="#m6705c805ce" y="140.460456"/>
     <use style="fill:#0000ff;stroke:#0000ff;" x="636.931609" xlink:href="#m6705c805ce" y="157.991771"/>
     <use style="fill:#0000ff;stroke:#0000ff;" x="639.883014" xlink:href="#m6705c805ce" y="164.220191"/>
     <use style="fill:#0000ff;stroke:#0000ff;" x="642.834419" xlink:href="#m6705c805ce" y="166.526302"/>
     <use style="fill:#0000ff;stroke:#0000ff;" x="645.785824" xlink:href="#m6705c805ce" y="167.314918"/>
     <use style="fill:#0000ff;stroke:#0000ff;" x="648.737229" xlink:href="#m6705c805ce" y="166.621764"/>
     <use style="fill:#0000ff;stroke:#0000ff;" x="651.688634" xlink:href="#m6705c805ce" y="167.436589"/>
     <use style="fill:#0000ff;stroke:#0000ff;" x="654.640039" xlink:href="#m6705c805ce" y="181.463028"/>
     <use style="fill:#0000ff;stroke:#0000ff;" x="657.591444" xlink:href="#m6705c805ce" y="177.913367"/>
     <use style="fill:#0000ff;stroke:#0000ff;" x="660.542849" xlink:href="#m6705c805ce" y="182.590449"/>
     <use style="fill:#0000ff;stroke:#0000ff;" x="663.494254" xlink:href="#m6705c805ce" y="175.523539"/>
     <use style="fill:#0000ff;stroke:#0000ff;" x="666.445659" xlink:href="#m6705c805ce" y="170.396714"/>
     <use style="fill:#0000ff;stroke:#0000ff;" x="669.397064" xlink:href="#m6705c805ce" y="180.357286"/>
     <use style="fill:#0000ff;stroke:#0000ff;" x="672.348468" xlink:href="#m6705c805ce" y="162.209876"/>
     <use style="fill:#0000ff;stroke:#0000ff;" x="675.299873" xlink:href="#m6705c805ce" y="167.407522"/>
     <use style="fill:#0000ff;stroke:#0000ff;" x="678.251278" xlink:href="#m6705c805ce" y="162.800214"/>
     <use style="fill:#0000ff;stroke:#0000ff;" x="681.202683" xlink:href="#m6705c805ce" y="170.867856"/>
     <use style="fill:#0000ff;stroke:#0000ff;" x="684.154088" xlink:href="#m6705c805ce" y="167.715552"/>
     <use style="fill:#0000ff;stroke:#0000ff;" x="687.105493" xlink:href="#m6705c805ce" y="161.524947"/>
     <use style="fill:#0000ff;stroke:#0000ff;" x="690.056898" xlink:href="#m6705c805ce" y="163.178438"/>
     <use style="fill:#0000ff;stroke:#0000ff;" x="693.008303" xlink:href="#m6705c805ce" y="154.141608"/>
     <use style="fill:#0000ff;stroke:#0000ff;" x="695.959708" xlink:href="#m6705c805ce" y="159.25951"/>
     <use style="fill:#0000ff;stroke:#0000ff;" x="698.911113" xlink:href="#m6705c805ce" y="160.188165"/>
     <use style="fill:#0000ff;stroke:#0000ff;" x="701.862518" xlink:href="#m6705c805ce" y="161.729604"/>
     <use style="fill:#0000ff;stroke:#0000ff;" x="704.813923" xlink:href="#m6705c805ce" y="154.855674"/>
     <use style="fill:#0000ff;stroke:#0000ff;" x="707.765328" xlink:href="#m6705c805ce" y="160.098349"/>
     <use style="fill:#0000ff;stroke:#0000ff;" x="710.716733" xlink:href="#m6705c805ce" y="154.345009"/>
     <use style="fill:#0000ff;stroke:#0000ff;" x="713.668138" xlink:href="#m6705c805ce" y="156.253762"/>
     <use style="fill:#0000ff;stroke:#0000ff;" x="716.619543" xlink:href="#m6705c805ce" y="153.489127"/>
     <use style="fill:#0000ff;stroke:#0000ff;" x="719.570948" xlink:href="#m6705c805ce" y="146.75433"/>
     <use style="fill:#0000ff;stroke:#0000ff;" x="722.522353" xlink:href="#m6705c805ce" y="157.429106"/>
     <use style="fill:#0000ff;stroke:#0000ff;" x="725.473758" xlink:href="#m6705c805ce" y="147.775205"/>
     <use style="fill:#0000ff;stroke:#0000ff;" x="728.425163" xlink:href="#m6705c805ce" y="160.837091"/>
    </g>
   </g>
   <g id="line2d_35">
    <path clip-path="url(#paafec68fb7)" d="M 433.284667 210.77779 
L 436.236072 210.77779 
L 439.187477 210.77779 
L 442.138882 210.77779 
L 445.090287 210.77779 
L 448.041692 210.77779 
L 450.993097 210.77779 
L 453.944502 210.77779 
L 456.895907 210.77779 
L 459.847311 210.77779 
L 462.798716 210.77779 
L 465.750121 210.77779 
L 468.701526 210.77779 
L 471.652931 210.77779 
L 474.604336 210.77779 
L 477.555741 210.777789 
L 480.507146 210.777787 
L 483.458551 210.777784 
L 486.409956 210.777775 
L 489.361361 210.777756 
L 492.312766 210.777714 
L 495.264171 210.777622 
L 498.215576 210.777429 
L 501.166981 210.777028 
L 504.118386 210.776217 
L 507.069791 210.774614 
L 510.021196 210.771517 
L 512.972601 210.765669 
L 515.924006 210.754876 
L 518.875411 210.73541 
L 521.826816 210.701108 
L 524.778221 210.642049 
L 527.729626 210.542715 
L 530.68103 210.379514 
L 533.632435 210.11764 
L 536.58384 209.707301 
L 539.535245 209.079536 
L 542.48665 208.142041 
L 545.438055 206.775703 
L 548.38946 204.832816 
L 551.340865 202.138174 
L 554.29227 198.494353 
L 557.243675 193.692342 
L 560.19508 187.528278 
L 563.146485 179.826246 
L 566.09789 170.466027 
L 569.049295 159.413384 
L 572.0007 146.749226 
L 574.952105 132.693036 
L 577.90351 117.615589 
L 580.854915 102.036562 
L 583.80632 86.604058 
L 586.757725 72.055504 
L 589.70913 59.162241 
L 592.660535 48.663144 
L 595.61194 41.195005 
L 598.563345 37.228724 
L 601.514749 37.020194 
L 604.466154 40.582976 
L 607.417559 47.686845 
L 610.368964 57.882404 
L 613.320369 70.548119 
L 616.271774 84.952931 
L 619.223179 100.325686 
L 622.174584 115.922286 
L 625.125989 131.082605 
L 628.077394 145.271555 
L 631.028799 158.10162 
L 633.980204 169.337122 
L 636.931609 178.882959 
L 639.883014 186.762111 
L 642.834419 193.086869 
L 645.785824 198.02847 
L 648.737229 201.78893 
L 651.688634 204.577626 
L 654.640039 206.593876 
L 657.591444 208.015665 
L 660.542849 208.993831 
L 663.494254 209.650573 
L 666.445659 210.080985 
L 669.397064 210.356389 
L 672.348468 210.528468 
L 675.299873 210.633476 
L 678.251278 210.696069 
L 681.202683 210.732517 
L 684.154088 210.753252 
L 687.105493 210.764779 
L 690.056898 210.771041 
L 693.008303 210.774365 
L 695.959708 210.776089 
L 698.911113 210.776964 
L 701.862518 210.777398 
L 704.813923 210.777608 
L 707.765328 210.777707 
L 710.716733 210.777753 
L 713.668138 210.777774 
L 716.619543 210.777783 
L 719.570948 210.777787 
L 722.522353 210.777789 
L 725.473758 210.77779 
L 728.425163 210.77779 
" style="fill:none;stroke:#000000;stroke-dasharray:5.55,2.4;stroke-dashoffset:0;stroke-width:1.5;"/>
   </g>
   <g id="line2d_36">
    <path clip-path="url(#paafec68fb7)" d="M 433.284667 244.536365 
L 436.236072 243.613307 
L 439.187477 242.690249 
L 442.138882 241.767191 
L 445.090287 240.844133 
L 448.041692 239.921076 
L 450.993097 238.998018 
L 453.944502 238.07496 
L 456.895907 237.151902 
L 459.847311 236.228844 
L 462.798716 235.305786 
L 465.750121 234.382728 
L 468.701526 233.45967 
L 471.652931 232.536612 
L 474.604336 231.613555 
L 477.555741 230.690497 
L 480.507146 229.767439 
L 483.458551 228.844381 
L 486.409956 227.921323 
L 489.361361 226.998265 
L 492.312766 226.075207 
L 495.264171 225.152149 
L 498.215576 224.229091 
L 501.166981 223.306034 
L 504.118386 222.382976 
L 507.069791 221.459918 
L 510.021196 220.53686 
L 512.972601 219.613802 
L 515.924006 218.690744 
L 518.875411 217.767686 
L 521.826816 216.844628 
L 524.778221 215.92157 
L 527.729626 214.998513 
L 530.68103 214.075455 
L 533.632435 213.152397 
L 536.58384 212.229339 
L 539.535245 211.306281 
L 542.48665 210.383223 
L 545.438055 209.460165 
L 548.38946 208.537107 
L 551.340865 207.614049 
L 554.29227 206.690992 
L 557.243675 205.767934 
L 560.19508 204.844876 
L 563.146485 203.921818 
L 566.09789 202.99876 
L 569.049295 202.075702 
L 572.0007 201.152644 
L 574.952105 200.229586 
L 577.90351 199.306528 
L 580.854915 198.383471 
L 583.80632 197.460413 
L 586.757725 196.537355 
L 589.70913 195.614297 
L 592.660535 194.691239 
L 595.61194 193.768181 
L 598.563345 192.845123 
L 601.514749 191.922065 
L 604.466154 190.999007 
L 607.417559 190.07595 
L 610.368964 189.152892 
L 613.320369 188.229834 
L 616.271774 187.306776 
L 619.223179 186.383718 
L 622.174584 185.46066 
L 625.125989 184.537602 
L 628.077394 183.614544 
L 631.028799 182.691486 
L 633.980204 181.768429 
L 636.931609 180.845371 
L 639.883014 179.922313 
L 642.834419 178.999255 
L 645.785824 178.076197 
L 648.737229 177.153139 
L 651.688634 176.230081 
L 654.640039 175.307023 
L 657.591444 174.383965 
L 660.542849 173.460908 
L 663.494254 172.53785 
L 666.445659 171.614792 
L 669.397064 170.691734 
L 672.348468 169.768676 
L 675.299873 168.845618 
L 678.251278 167.92256 
L 681.202683 166.999502 
L 684.154088 166.076444 
L 687.105493 165.153387 
L 690.056898 164.230329 
L 693.008303 163.307271 
L 695.959708 162.384213 
L 698.911113 161.461155 
L 701.862518 160.538097 
L 704.813923 159.615039 
L 707.765328 158.691981 
L 710.716733 157.768923 
L 713.668138 156.845866 
L 716.619543 155.922808 
L 719.570948 154.99975 
L 722.522353 154.076692 
L 725.473758 153.153634 
L 728.425163 152.230576 
" style="fill:none;stroke:#ff0000;stroke-dasharray:5.55,2.4;stroke-dashoffset:0;stroke-width:1.5;"/>
   </g>
   <g id="patch_9">
    <path d="M 418.527642 268.128 
L 418.527642 7.2 
" style="fill:none;stroke:#000000;stroke-linecap:square;stroke-linejoin:miter;stroke-width:0.8;"/>
   </g>
   <g id="patch_10">
    <path d="M 743.182187 268.128 
L 743.182187 7.2 
" style="fill:none;stroke:#000000;stroke-linecap:square;stroke-linejoin:miter;stroke-width:0.8;"/>
   </g>
   <g id="patch_11">
    <path d="M 418.527642 268.128 
L 743.182187 268.128 
" style="fill:none;stroke:#000000;stroke-linecap:square;stroke-linejoin:miter;stroke-width:0.8;"/>
   </g>
   <g id="patch_12">
    <path d="M 418.527642 7.2 
L 743.182187 7.2 
" style="fill:none;stroke:#000000;stroke-linecap:square;stroke-linejoin:miter;stroke-width:0.8;"/>
   </g>
   <g id="legend_2">
    <g id="patch_13">
     <path d="M 425.527642 44.55625 
L 563.155767 44.55625 
Q 565.155767 44.55625 565.155767 42.55625 
L 565.155767 14.2 
Q 565.155767 12.2 563.155767 12.2 
L 425.527642 12.2 
Q 423.527642 12.2 423.527642 14.2 
L 423.527642 42.55625 
Q 423.527642 44.55625 425.527642 44.55625 
z
" style="fill:#ffffff;opacity:0.8;stroke:#cccccc;stroke-linejoin:miter;"/>
    </g>
    <g id="line2d_37">
     <path d="M 427.527642 20.298437 
L 447.527642 20.298437 
" style="fill:none;stroke:#000000;stroke-dasharray:5.55,2.4;stroke-dashoffset:0;stroke-width:1.5;"/>
    </g>
    <g id="line2d_38"/>
    <g id="text_29">
     <!-- Gaussian component -->
     <defs>
      <path d="M 59.515625 10.40625 
L 59.515625 29.984375 
L 43.40625 29.984375 
L 43.40625 38.09375 
L 69.28125 38.09375 
L 69.28125 6.78125 
Q 63.578125 2.734375 56.6875 0.65625 
Q 49.8125 -1.421875 42 -1.421875 
Q 24.90625 -1.421875 15.25 8.5625 
Q 5.609375 18.5625 5.609375 36.375 
Q 5.609375 54.25 15.25 64.234375 
Q 24.90625 74.21875 42 74.21875 
Q 49.125 74.21875 55.546875 72.453125 
Q 61.96875 70.703125 67.390625 67.28125 
L 67.390625 56.78125 
Q 61.921875 61.421875 55.765625 63.765625 
Q 49.609375 66.109375 42.828125 66.109375 
Q 29.4375 66.109375 22.71875 58.640625 
Q 16.015625 51.171875 16.015625 36.375 
Q 16.015625 21.625 22.71875 14.15625 
Q 29.4375 6.6875 42.828125 6.6875 
Q 48.046875 6.6875 52.140625 7.59375 
Q 56.25 8.5 59.515625 10.40625 
z
" id="DejaVuSans-71"/>
      <path d="M 8.5 21.578125 
L 8.5 54.6875 
L 17.484375 54.6875 
L 17.484375 21.921875 
Q 17.484375 14.15625 20.5 10.265625 
Q 23.53125 6.390625 29.59375 6.390625 
Q 36.859375 6.390625 41.078125 11.03125 
Q 45.3125 15.671875 45.3125 23.6875 
L 45.3125 54.6875 
L 54.296875 54.6875 
L 54.296875 0 
L 45.3125 0 
L 45.3125 8.40625 
Q 42.046875 3.421875 37.71875 1 
Q 33.40625 -1.421875 27.6875 -1.421875 
Q 18.265625 -1.421875 13.375 4.4375 
Q 8.5 10.296875 8.5 21.578125 
z
M 31.109375 56 
z
" id="DejaVuSans-117"/>
      <path d="M 48.78125 52.59375 
L 48.78125 44.1875 
Q 44.96875 46.296875 41.140625 47.34375 
Q 37.3125 48.390625 33.40625 48.390625 
Q 24.65625 48.390625 19.8125 42.84375 
Q 14.984375 37.3125 14.984375 27.296875 
Q 14.984375 17.28125 19.8125 11.734375 
Q 24.65625 6.203125 33.40625 6.203125 
Q 37.3125 6.203125 41.140625 7.25 
Q 44.96875 8.296875 48.78125 10.40625 
L 48.78125 2.09375 
Q 45.015625 0.34375 40.984375 -0.53125 
Q 36.96875 -1.421875 32.421875 -1.421875 
Q 20.0625 -1.421875 12.78125 6.34375 
Q 5.515625 14.109375 5.515625 27.296875 
Q 5.515625 40.671875 12.859375 48.328125 
Q 20.21875 56 33.015625 56 
Q 37.15625 56 41.109375 55.140625 
Q 45.0625 54.296875 48.78125 52.59375 
z
" id="DejaVuSans-99"/>
      <path d="M 30.609375 48.390625 
Q 23.390625 48.390625 19.1875 42.75 
Q 14.984375 37.109375 14.984375 27.296875 
Q 14.984375 17.484375 19.15625 11.84375 
Q 23.34375 6.203125 30.609375 6.203125 
Q 37.796875 6.203125 41.984375 11.859375 
Q 46.1875 17.53125 46.1875 27.296875 
Q 46.1875 37.015625 41.984375 42.703125 
Q 37.796875 48.390625 30.609375 48.390625 
z
M 30.609375 56 
Q 42.328125 56 49.015625 48.375 
Q 55.71875 40.765625 55.71875 27.296875 
Q 55.71875 13.875 49.015625 6.21875 
Q 42.328125 -1.421875 30.609375 -1.421875 
Q 18.84375 -1.421875 12.171875 6.21875 
Q 5.515625 13.875 5.515625 27.296875 
Q 5.515625 40.765625 12.171875 48.375 
Q 18.84375 56 30.609375 56 
z
" id="DejaVuSans-111"/>
      <path d="M 52 44.1875 
Q 55.375 50.25 60.0625 53.125 
Q 64.75 56 71.09375 56 
Q 79.640625 56 84.28125 50.015625 
Q 88.921875 44.046875 88.921875 33.015625 
L 88.921875 0 
L 79.890625 0 
L 79.890625 32.71875 
Q 79.890625 40.578125 77.09375 44.375 
Q 74.3125 48.1875 68.609375 48.1875 
Q 61.625 48.1875 57.5625 43.546875 
Q 53.515625 38.921875 53.515625 30.90625 
L 53.515625 0 
L 44.484375 0 
L 44.484375 32.71875 
Q 44.484375 40.625 41.703125 44.40625 
Q 38.921875 48.1875 33.109375 48.1875 
Q 26.21875 48.1875 22.15625 43.53125 
Q 18.109375 38.875 18.109375 30.90625 
L 18.109375 0 
L 9.078125 0 
L 9.078125 54.6875 
L 18.109375 54.6875 
L 18.109375 46.1875 
Q 21.1875 51.21875 25.484375 53.609375 
Q 29.78125 56 35.6875 56 
Q 41.65625 56 45.828125 52.96875 
Q 50 49.953125 52 44.1875 
z
" id="DejaVuSans-109"/>
      <path d="M 18.109375 8.203125 
L 18.109375 -20.796875 
L 9.078125 -20.796875 
L 9.078125 54.6875 
L 18.109375 54.6875 
L 18.109375 46.390625 
Q 20.953125 51.265625 25.265625 53.625 
Q 29.59375 56 35.59375 56 
Q 45.5625 56 51.78125 48.09375 
Q 58.015625 40.1875 58.015625 27.296875 
Q 58.015625 14.40625 51.78125 6.484375 
Q 45.5625 -1.421875 35.59375 -1.421875 
Q 29.59375 -1.421875 25.265625 0.953125 
Q 20.953125 3.328125 18.109375 8.203125 
z
M 48.6875 27.296875 
Q 48.6875 37.203125 44.609375 42.84375 
Q 40.53125 48.484375 33.40625 48.484375 
Q 26.265625 48.484375 22.1875 42.84375 
Q 18.109375 37.203125 18.109375 27.296875 
Q 18.109375 17.390625 22.1875 11.75 
Q 26.265625 6.109375 33.40625 6.109375 
Q 40.53125 6.109375 44.609375 11.75 
Q 48.6875 17.390625 48.6875 27.296875 
z
" id="DejaVuSans-112"/>
     </defs>
     <g transform="translate(455.527642 23.798437)scale(0.1 -0.1)">
      <use xlink:href="#DejaVuSans-71"/>
      <use x="77.490234" xlink:href="#DejaVuSans-97"/>
      <use x="138.769531" xlink:href="#DejaVuSans-117"/>
      <use x="202.148438" xlink:href="#DejaVuSans-115"/>
      <use x="254.248047" xlink:href="#DejaVuSans-115"/>
      <use x="306.347656" xlink:href="#DejaVuSans-105"/>
      <use x="334.130859" xlink:href="#DejaVuSans-97"/>
      <use x="395.410156" xlink:href="#DejaVuSans-110"/>
      <use x="458.789062" xlink:href="#DejaVuSans-32"/>
      <use x="490.576172" xlink:href="#DejaVuSans-99"/>
      <use x="545.556641" xlink:href="#DejaVuSans-111"/>
      <use x="606.738281" xlink:href="#DejaVuSans-109"/>
      <use x="704.150391" xlink:href="#DejaVuSans-112"/>
      <use x="767.626953" xlink:href="#DejaVuSans-111"/>
      <use x="828.808594" xlink:href="#DejaVuSans-110"/>
      <use x="892.1875" xlink:href="#DejaVuSans-101"/>
      <use x="953.710938" xlink:href="#DejaVuSans-110"/>
      <use x="1017.089844" xlink:href="#DejaVuSans-116"/>
     </g>
    </g>
    <g id="line2d_39">
     <path d="M 427.527642 34.976562 
L 447.527642 34.976562 
" style="fill:none;stroke:#ff0000;stroke-dasharray:5.55,2.4;stroke-dashoffset:0;stroke-width:1.5;"/>
    </g>
    <g id="line2d_40"/>
    <g id="text_30">
     <!-- Line component -->
     <defs>
      <path d="M 9.8125 72.90625 
L 19.671875 72.90625 
L 19.671875 8.296875 
L 55.171875 8.296875 
L 55.171875 0 
L 9.8125 0 
z
" id="DejaVuSans-76"/>
     </defs>
     <g transform="translate(455.527642 38.476562)scale(0.1 -0.1)">
      <use xlink:href="#DejaVuSans-76"/>
      <use x="55.712891" xlink:href="#DejaVuSans-105"/>
      <use x="83.496094" xlink:href="#DejaVuSans-110"/>
      <use x="146.875" xlink:href="#DejaVuSans-101"/>
      <use x="208.398438" xlink:href="#DejaVuSans-32"/>
      <use x="240.185547" xlink:href="#DejaVuSans-99"/>
      <use x="295.166016" xlink:href="#DejaVuSans-111"/>
      <use x="356.347656" xlink:href="#DejaVuSans-109"/>
      <use x="453.759766" xlink:href="#DejaVuSans-112"/>
      <use x="517.236328" xlink:href="#DejaVuSans-111"/>
      <use x="578.417969" xlink:href="#DejaVuSans-110"/>
      <use x="641.796875" xlink:href="#DejaVuSans-101"/>
      <use x="703.320312" xlink:href="#DejaVuSans-110"/>
      <use x="766.699219" xlink:href="#DejaVuSans-116"/>
     </g>
    </g>
   </g>
  </g>
 </g>
 <defs>
  <clipPath id="p37f3357408">
   <rect height="260.928" width="324.654545" x="28.942188" y="7.2"/>
  </clipPath>
  <clipPath id="paafec68fb7">
   <rect height="260.928" width="324.654545" x="418.527642" y="7.2"/>
  </clipPath>
 </defs>
</svg>
