<?xml version="1.0" encoding="utf-8" standalone="no"?>
<!DOCTYPE svg PUBLIC "-//W3C//DTD SVG 1.1//EN"
  "http://www.w3.org/Graphics/SVG/1.1/DTD/svg11.dtd">
<!-- Created with matplotlib (https://matplotlib.org/) -->
<svg height="248.518125pt" version="1.1" viewBox="0 0 362.5625 248.518125" width="362.5625pt" xmlns="http://www.w3.org/2000/svg" xmlns:xlink="http://www.w3.org/1999/xlink">
 <metadata>
  <rdf:RDF xmlns:cc="http://creativecommons.org/ns#" xmlns:dc="http://purl.org/dc/elements/1.1/" xmlns:rdf="http://www.w3.org/1999/02/22-rdf-syntax-ns#">
   <cc:Work>
    <dc:type rdf:resource="http://purl.org/dc/dcmitype/StillImage"/>
    <dc:date>2021-02-07T18:54:49.153154</dc:date>
    <dc:format>image/svg+xml</dc:format>
    <dc:creator>
     <cc:Agent>
      <dc:title>Matplotlib v3.3.2, https://matplotlib.org/</dc:title>
     </cc:Agent>
    </dc:creator>
   </cc:Work>
  </rdf:RDF>
 </metadata>
 <defs>
  <style type="text/css">*{stroke-linecap:butt;stroke-linejoin:round;}</style>
 </defs>
 <g id="figure_1">
  <g id="patch_1">
   <path d="M 0 248.518125 
L 362.5625 248.518125 
L 362.5625 0 
L 0 0 
z
" style="fill:none;"/>
  </g>
  <g id="axes_1">
   <g id="patch_2">
    <path d="M 20.5625 224.64 
L 355.3625 224.64 
L 355.3625 7.2 
L 20.5625 7.2 
z
" style="fill:#ffffff;"/>
   </g>
   <g id="matplotlib.axis_1">
    <g id="xtick_1">
     <g id="line2d_1">
      <defs>
       <path d="M 0 0 
L 0 3.5 
" id="m5b318a8801" style="stroke:#000000;stroke-width:0.8;"/>
      </defs>
      <g>
       <use style="stroke:#000000;stroke-width:0.8;" x="35.780682" xlink:href="#m5b318a8801" y="224.64"/>
      </g>
     </g>
     <g id="text_1">
      <!-- 0 -->
      <g transform="translate(32.599432 239.238437)scale(0.1 -0.1)">
       <defs>
        <path d="M 31.78125 66.40625 
Q 24.171875 66.40625 20.328125 58.90625 
Q 16.5 51.421875 16.5 36.375 
Q 16.5 21.390625 20.328125 13.890625 
Q 24.171875 6.390625 31.78125 6.390625 
Q 39.453125 6.390625 43.28125 13.890625 
Q 47.125 21.390625 47.125 36.375 
Q 47.125 51.421875 43.28125 58.90625 
Q 39.453125 66.40625 31.78125 66.40625 
z
M 31.78125 74.21875 
Q 44.046875 74.21875 50.515625 64.515625 
Q 56.984375 54.828125 56.984375 36.375 
Q 56.984375 17.96875 50.515625 8.265625 
Q 44.046875 -1.421875 31.78125 -1.421875 
Q 19.53125 -1.421875 13.0625 8.265625 
Q 6.59375 17.96875 6.59375 36.375 
Q 6.59375 54.828125 13.0625 64.515625 
Q 19.53125 74.21875 31.78125 74.21875 
z
" id="DejaVuSans-48"/>
       </defs>
       <use xlink:href="#DejaVuSans-48"/>
      </g>
     </g>
    </g>
    <g id="xtick_2">
     <g id="line2d_2">
      <g>
       <use style="stroke:#000000;stroke-width:0.8;" x="96.653409" xlink:href="#m5b318a8801" y="224.64"/>
      </g>
     </g>
     <g id="text_2">
      <!-- 2 -->
      <g transform="translate(93.472159 239.238437)scale(0.1 -0.1)">
       <defs>
        <path d="M 19.1875 8.296875 
L 53.609375 8.296875 
L 53.609375 0 
L 7.328125 0 
L 7.328125 8.296875 
Q 12.9375 14.109375 22.625 23.890625 
Q 32.328125 33.6875 34.8125 36.53125 
Q 39.546875 41.84375 41.421875 45.53125 
Q 43.3125 49.21875 43.3125 52.78125 
Q 43.3125 58.59375 39.234375 62.25 
Q 35.15625 65.921875 28.609375 65.921875 
Q 23.96875 65.921875 18.8125 64.3125 
Q 13.671875 62.703125 7.8125 59.421875 
L 7.8125 69.390625 
Q 13.765625 71.78125 18.9375 73 
Q 24.125 74.21875 28.421875 74.21875 
Q 39.75 74.21875 46.484375 68.546875 
Q 53.21875 62.890625 53.21875 53.421875 
Q 53.21875 48.921875 51.53125 44.890625 
Q 49.859375 40.875 45.40625 35.40625 
Q 44.1875 33.984375 37.640625 27.21875 
Q 31.109375 20.453125 19.1875 8.296875 
z
" id="DejaVuSans-50"/>
       </defs>
       <use xlink:href="#DejaVuSans-50"/>
      </g>
     </g>
    </g>
    <g id="xtick_3">
     <g id="line2d_3">
      <g>
       <use style="stroke:#000000;stroke-width:0.8;" x="157.526136" xlink:href="#m5b318a8801" y="224.64"/>
      </g>
     </g>
     <g id="text_3">
      <!-- 4 -->
      <g transform="translate(154.344886 239.238437)scale(0.1 -0.1)">
       <defs>
        <path d="M 37.796875 64.3125 
L 12.890625 25.390625 
L 37.796875 25.390625 
z
M 35.203125 72.90625 
L 47.609375 72.90625 
L 47.609375 25.390625 
L 58.015625 25.390625 
L 58.015625 17.1875 
L 47.609375 17.1875 
L 47.609375 0 
L 37.796875 0 
L 37.796875 17.1875 
L 4.890625 17.1875 
L 4.890625 26.703125 
z
" id="DejaVuSans-52"/>
       </defs>
       <use xlink:href="#DejaVuSans-52"/>
      </g>
     </g>
    </g>
    <g id="xtick_4">
     <g id="line2d_4">
      <g>
       <use style="stroke:#000000;stroke-width:0.8;" x="218.398864" xlink:href="#m5b318a8801" y="224.64"/>
      </g>
     </g>
     <g id="text_4">
      <!-- 6 -->
      <g transform="translate(215.217614 239.238437)scale(0.1 -0.1)">
       <defs>
        <path d="M 33.015625 40.375 
Q 26.375 40.375 22.484375 35.828125 
Q 18.609375 31.296875 18.609375 23.390625 
Q 18.609375 15.53125 22.484375 10.953125 
Q 26.375 6.390625 33.015625 6.390625 
Q 39.65625 6.390625 43.53125 10.953125 
Q 47.40625 15.53125 47.40625 23.390625 
Q 47.40625 31.296875 43.53125 35.828125 
Q 39.65625 40.375 33.015625 40.375 
z
M 52.59375 71.296875 
L 52.59375 62.3125 
Q 48.875 64.0625 45.09375 64.984375 
Q 41.3125 65.921875 37.59375 65.921875 
Q 27.828125 65.921875 22.671875 59.328125 
Q 17.53125 52.734375 16.796875 39.40625 
Q 19.671875 43.65625 24.015625 45.921875 
Q 28.375 48.1875 33.59375 48.1875 
Q 44.578125 48.1875 50.953125 41.515625 
Q 57.328125 34.859375 57.328125 23.390625 
Q 57.328125 12.15625 50.6875 5.359375 
Q 44.046875 -1.421875 33.015625 -1.421875 
Q 20.359375 -1.421875 13.671875 8.265625 
Q 6.984375 17.96875 6.984375 36.375 
Q 6.984375 53.65625 15.1875 63.9375 
Q 23.390625 74.21875 37.203125 74.21875 
Q 40.921875 74.21875 44.703125 73.484375 
Q 48.484375 72.75 52.59375 71.296875 
z
" id="DejaVuSans-54"/>
       </defs>
       <use xlink:href="#DejaVuSans-54"/>
      </g>
     </g>
    </g>
    <g id="xtick_5">
     <g id="line2d_5">
      <g>
       <use style="stroke:#000000;stroke-width:0.8;" x="279.271591" xlink:href="#m5b318a8801" y="224.64"/>
      </g>
     </g>
     <g id="text_5">
      <!-- 8 -->
      <g transform="translate(276.090341 239.238437)scale(0.1 -0.1)">
       <defs>
        <path d="M 31.78125 34.625 
Q 24.75 34.625 20.71875 30.859375 
Q 16.703125 27.09375 16.703125 20.515625 
Q 16.703125 13.921875 20.71875 10.15625 
Q 24.75 6.390625 31.78125 6.390625 
Q 38.8125 6.390625 42.859375 10.171875 
Q 46.921875 13.96875 46.921875 20.515625 
Q 46.921875 27.09375 42.890625 30.859375 
Q 38.875 34.625 31.78125 34.625 
z
M 21.921875 38.8125 
Q 15.578125 40.375 12.03125 44.71875 
Q 8.5 49.078125 8.5 55.328125 
Q 8.5 64.0625 14.71875 69.140625 
Q 20.953125 74.21875 31.78125 74.21875 
Q 42.671875 74.21875 48.875 69.140625 
Q 55.078125 64.0625 55.078125 55.328125 
Q 55.078125 49.078125 51.53125 44.71875 
Q 48 40.375 41.703125 38.8125 
Q 48.828125 37.15625 52.796875 32.3125 
Q 56.78125 27.484375 56.78125 20.515625 
Q 56.78125 9.90625 50.3125 4.234375 
Q 43.84375 -1.421875 31.78125 -1.421875 
Q 19.734375 -1.421875 13.25 4.234375 
Q 6.78125 9.90625 6.78125 20.515625 
Q 6.78125 27.484375 10.78125 32.3125 
Q 14.796875 37.15625 21.921875 38.8125 
z
M 18.3125 54.390625 
Q 18.3125 48.734375 21.84375 45.5625 
Q 25.390625 42.390625 31.78125 42.390625 
Q 38.140625 42.390625 41.71875 45.5625 
Q 45.3125 48.734375 45.3125 54.390625 
Q 45.3125 60.0625 41.71875 63.234375 
Q 38.140625 66.40625 31.78125 66.40625 
Q 25.390625 66.40625 21.84375 63.234375 
Q 18.3125 60.0625 18.3125 54.390625 
z
" id="DejaVuSans-56"/>
       </defs>
       <use xlink:href="#DejaVuSans-56"/>
      </g>
     </g>
    </g>
    <g id="xtick_6">
     <g id="line2d_6">
      <g>
       <use style="stroke:#000000;stroke-width:0.8;" x="340.144318" xlink:href="#m5b318a8801" y="224.64"/>
      </g>
     </g>
     <g id="text_6">
      <!-- 10 -->
      <g transform="translate(333.781818 239.238437)scale(0.1 -0.1)">
       <defs>
        <path d="M 12.40625 8.296875 
L 28.515625 8.296875 
L 28.515625 63.921875 
L 10.984375 60.40625 
L 10.984375 69.390625 
L 28.421875 72.90625 
L 38.28125 72.90625 
L 38.28125 8.296875 
L 54.390625 8.296875 
L 54.390625 0 
L 12.40625 0 
z
" id="DejaVuSans-49"/>
       </defs>
       <use xlink:href="#DejaVuSans-49"/>
       <use x="63.623047" xlink:href="#DejaVuSans-48"/>
      </g>
     </g>
    </g>
   </g>
   <g id="matplotlib.axis_2">
    <g id="ytick_1">
     <g id="line2d_7">
      <defs>
       <path d="M 0 0 
L -3.5 0 
" id="m41d4f988fa" style="stroke:#000000;stroke-width:0.8;"/>
      </defs>
      <g>
       <use style="stroke:#000000;stroke-width:0.8;" x="20.5625" xlink:href="#m41d4f988fa" y="202.830267"/>
      </g>
     </g>
     <g id="text_7">
      <!-- 0 -->
      <g transform="translate(7.2 206.629486)scale(0.1 -0.1)">
       <use xlink:href="#DejaVuSans-48"/>
      </g>
     </g>
    </g>
    <g id="ytick_2">
     <g id="line2d_8">
      <g>
       <use style="stroke:#000000;stroke-width:0.8;" x="20.5625" xlink:href="#m41d4f988fa" y="166.59241"/>
      </g>
     </g>
     <g id="text_8">
      <!-- 1 -->
      <g transform="translate(7.2 170.391629)scale(0.1 -0.1)">
       <use xlink:href="#DejaVuSans-49"/>
      </g>
     </g>
    </g>
    <g id="ytick_3">
     <g id="line2d_9">
      <g>
       <use style="stroke:#000000;stroke-width:0.8;" x="20.5625" xlink:href="#m41d4f988fa" y="130.354553"/>
      </g>
     </g>
     <g id="text_9">
      <!-- 2 -->
      <g transform="translate(7.2 134.153772)scale(0.1 -0.1)">
       <use xlink:href="#DejaVuSans-50"/>
      </g>
     </g>
    </g>
    <g id="ytick_4">
     <g id="line2d_10">
      <g>
       <use style="stroke:#000000;stroke-width:0.8;" x="20.5625" xlink:href="#m41d4f988fa" y="94.116696"/>
      </g>
     </g>
     <g id="text_10">
      <!-- 3 -->
      <g transform="translate(7.2 97.915915)scale(0.1 -0.1)">
       <defs>
        <path d="M 40.578125 39.3125 
Q 47.65625 37.796875 51.625 33 
Q 55.609375 28.21875 55.609375 21.1875 
Q 55.609375 10.40625 48.1875 4.484375 
Q 40.765625 -1.421875 27.09375 -1.421875 
Q 22.515625 -1.421875 17.65625 -0.515625 
Q 12.796875 0.390625 7.625 2.203125 
L 7.625 11.71875 
Q 11.71875 9.328125 16.59375 8.109375 
Q 21.484375 6.890625 26.8125 6.890625 
Q 36.078125 6.890625 40.9375 10.546875 
Q 45.796875 14.203125 45.796875 21.1875 
Q 45.796875 27.640625 41.28125 31.265625 
Q 36.765625 34.90625 28.71875 34.90625 
L 20.21875 34.90625 
L 20.21875 43.015625 
L 29.109375 43.015625 
Q 36.375 43.015625 40.234375 45.921875 
Q 44.09375 48.828125 44.09375 54.296875 
Q 44.09375 59.90625 40.109375 62.90625 
Q 36.140625 65.921875 28.71875 65.921875 
Q 24.65625 65.921875 20.015625 65.03125 
Q 15.375 64.15625 9.8125 62.3125 
L 9.8125 71.09375 
Q 15.4375 72.65625 20.34375 73.4375 
Q 25.25 74.21875 29.59375 74.21875 
Q 40.828125 74.21875 47.359375 69.109375 
Q 53.90625 64.015625 53.90625 55.328125 
Q 53.90625 49.265625 50.4375 45.09375 
Q 46.96875 40.921875 40.578125 39.3125 
z
" id="DejaVuSans-51"/>
       </defs>
       <use xlink:href="#DejaVuSans-51"/>
      </g>
     </g>
    </g>
    <g id="ytick_5">
     <g id="line2d_11">
      <g>
       <use style="stroke:#000000;stroke-width:0.8;" x="20.5625" xlink:href="#m41d4f988fa" y="57.878839"/>
      </g>
     </g>
     <g id="text_11">
      <!-- 4 -->
      <g transform="translate(7.2 61.678058)scale(0.1 -0.1)">
       <use xlink:href="#DejaVuSans-52"/>
      </g>
     </g>
    </g>
    <g id="ytick_6">
     <g id="line2d_12">
      <g>
       <use style="stroke:#000000;stroke-width:0.8;" x="20.5625" xlink:href="#m41d4f988fa" y="21.640982"/>
      </g>
     </g>
     <g id="text_12">
      <!-- 5 -->
      <g transform="translate(7.2 25.440201)scale(0.1 -0.1)">
       <defs>
        <path d="M 10.796875 72.90625 
L 49.515625 72.90625 
L 49.515625 64.59375 
L 19.828125 64.59375 
L 19.828125 46.734375 
Q 21.96875 47.46875 24.109375 47.828125 
Q 26.265625 48.1875 28.421875 48.1875 
Q 40.625 48.1875 47.75 41.5 
Q 54.890625 34.8125 54.890625 23.390625 
Q 54.890625 11.625 47.5625 5.09375 
Q 40.234375 -1.421875 26.90625 -1.421875 
Q 22.3125 -1.421875 17.546875 -0.640625 
Q 12.796875 0.140625 7.71875 1.703125 
L 7.71875 11.625 
Q 12.109375 9.234375 16.796875 8.0625 
Q 21.484375 6.890625 26.703125 6.890625 
Q 35.15625 6.890625 40.078125 11.328125 
Q 45.015625 15.765625 45.015625 23.390625 
Q 45.015625 31 40.078125 35.4375 
Q 35.15625 39.890625 26.703125 39.890625 
Q 22.75 39.890625 18.8125 39.015625 
Q 14.890625 38.140625 10.796875 36.28125 
z
" id="DejaVuSans-53"/>
       </defs>
       <use xlink:href="#DejaVuSans-53"/>
      </g>
     </g>
    </g>
   </g>
   <g id="line2d_13">
    <defs>
     <path d="M 0 3 
C 0.795609 3 1.55874 2.683901 2.12132 2.12132 
C 2.683901 1.55874 3 0.795609 3 0 
C 3 -0.795609 2.683901 -1.55874 2.12132 -2.12132 
C 1.55874 -2.683901 0.795609 -3 0 -3 
C -0.795609 -3 -1.55874 -2.683901 -2.12132 -2.12132 
C -2.683901 -1.55874 -3 -0.795609 -3 0 
C -3 0.795609 -2.683901 1.55874 -2.12132 2.12132 
C -1.55874 2.683901 -0.795609 3 0 3 
z
" id="mfd3dc65ff4" style="stroke:#0000ff;"/>
    </defs>
    <g clip-path="url(#p7c792bc878)">
     <use style="fill:#0000ff;stroke:#0000ff;" x="35.780682" xlink:href="#mfd3dc65ff4" y="213.889916"/>
     <use style="fill:#0000ff;stroke:#0000ff;" x="38.824318" xlink:href="#mfd3dc65ff4" y="202.651542"/>
     <use style="fill:#0000ff;stroke:#0000ff;" x="41.867955" xlink:href="#mfd3dc65ff4" y="195.853212"/>
     <use style="fill:#0000ff;stroke:#0000ff;" x="44.911591" xlink:href="#mfd3dc65ff4" y="199.183326"/>
     <use style="fill:#0000ff;stroke:#0000ff;" x="47.955227" xlink:href="#mfd3dc65ff4" y="193.952282"/>
     <use style="fill:#0000ff;stroke:#0000ff;" x="50.998864" xlink:href="#mfd3dc65ff4" y="202.869948"/>
     <use style="fill:#0000ff;stroke:#0000ff;" x="54.0425" xlink:href="#mfd3dc65ff4" y="203.453196"/>
     <use style="fill:#0000ff;stroke:#0000ff;" x="57.086136" xlink:href="#mfd3dc65ff4" y="207.84305"/>
     <use style="fill:#0000ff;stroke:#0000ff;" x="60.129773" xlink:href="#mfd3dc65ff4" y="205.205514"/>
     <use style="fill:#0000ff;stroke:#0000ff;" x="63.173409" xlink:href="#mfd3dc65ff4" y="197.391364"/>
     <use style="fill:#0000ff;stroke:#0000ff;" x="66.217045" xlink:href="#mfd3dc65ff4" y="202.033723"/>
     <use style="fill:#0000ff;stroke:#0000ff;" x="69.260682" xlink:href="#mfd3dc65ff4" y="194.437217"/>
     <use style="fill:#0000ff;stroke:#0000ff;" x="72.304318" xlink:href="#mfd3dc65ff4" y="196.085605"/>
     <use style="fill:#0000ff;stroke:#0000ff;" x="75.347955" xlink:href="#mfd3dc65ff4" y="194.706175"/>
     <use style="fill:#0000ff;stroke:#0000ff;" x="78.391591" xlink:href="#mfd3dc65ff4" y="189.933069"/>
     <use style="fill:#0000ff;stroke:#0000ff;" x="81.435227" xlink:href="#mfd3dc65ff4" y="205.357749"/>
     <use style="fill:#0000ff;stroke:#0000ff;" x="84.478864" xlink:href="#mfd3dc65ff4" y="200.571127"/>
     <use style="fill:#0000ff;stroke:#0000ff;" x="87.5225" xlink:href="#mfd3dc65ff4" y="203.75763"/>
     <use style="fill:#0000ff;stroke:#0000ff;" x="90.566136" xlink:href="#mfd3dc65ff4" y="200.943"/>
     <use style="fill:#0000ff;stroke:#0000ff;" x="93.609773" xlink:href="#mfd3dc65ff4" y="214.756364"/>
     <use style="fill:#0000ff;stroke:#0000ff;" x="96.653409" xlink:href="#mfd3dc65ff4" y="203.269905"/>
     <use style="fill:#0000ff;stroke:#0000ff;" x="99.697045" xlink:href="#mfd3dc65ff4" y="195.385635"/>
     <use style="fill:#0000ff;stroke:#0000ff;" x="102.740682" xlink:href="#mfd3dc65ff4" y="198.55083"/>
     <use style="fill:#0000ff;stroke:#0000ff;" x="105.784318" xlink:href="#mfd3dc65ff4" y="202.170593"/>
     <use style="fill:#0000ff;stroke:#0000ff;" x="108.827955" xlink:href="#mfd3dc65ff4" y="206.938698"/>
     <use style="fill:#0000ff;stroke:#0000ff;" x="111.871591" xlink:href="#mfd3dc65ff4" y="205.956326"/>
     <use style="fill:#0000ff;stroke:#0000ff;" x="114.915227" xlink:href="#mfd3dc65ff4" y="205.538939"/>
     <use style="fill:#0000ff;stroke:#0000ff;" x="117.958864" xlink:href="#mfd3dc65ff4" y="196.335936"/>
     <use style="fill:#0000ff;stroke:#0000ff;" x="121.0025" xlink:href="#mfd3dc65ff4" y="196.727885"/>
     <use style="fill:#0000ff;stroke:#0000ff;" x="124.046136" xlink:href="#mfd3dc65ff4" y="200.36776"/>
     <use style="fill:#0000ff;stroke:#0000ff;" x="127.089773" xlink:href="#mfd3dc65ff4" y="200.057854"/>
     <use style="fill:#0000ff;stroke:#0000ff;" x="130.133409" xlink:href="#mfd3dc65ff4" y="187.111445"/>
     <use style="fill:#0000ff;stroke:#0000ff;" x="133.177045" xlink:href="#mfd3dc65ff4" y="202.138233"/>
     <use style="fill:#0000ff;stroke:#0000ff;" x="136.220682" xlink:href="#mfd3dc65ff4" y="194.13416"/>
     <use style="fill:#0000ff;stroke:#0000ff;" x="139.264318" xlink:href="#mfd3dc65ff4" y="202.590844"/>
     <use style="fill:#0000ff;stroke:#0000ff;" x="142.307955" xlink:href="#mfd3dc65ff4" y="207.221354"/>
     <use style="fill:#0000ff;stroke:#0000ff;" x="145.351591" xlink:href="#mfd3dc65ff4" y="196.938825"/>
     <use style="fill:#0000ff;stroke:#0000ff;" x="148.395227" xlink:href="#mfd3dc65ff4" y="201.30719"/>
     <use style="fill:#0000ff;stroke:#0000ff;" x="151.438864" xlink:href="#mfd3dc65ff4" y="192.367746"/>
     <use style="fill:#0000ff;stroke:#0000ff;" x="154.4825" xlink:href="#mfd3dc65ff4" y="197.849736"/>
     <use style="fill:#0000ff;stroke:#0000ff;" x="157.526136" xlink:href="#mfd3dc65ff4" y="181.335674"/>
     <use style="fill:#0000ff;stroke:#0000ff;" x="160.569773" xlink:href="#mfd3dc65ff4" y="185.42113"/>
     <use style="fill:#0000ff;stroke:#0000ff;" x="163.613409" xlink:href="#mfd3dc65ff4" y="170.154048"/>
     <use style="fill:#0000ff;stroke:#0000ff;" x="166.657045" xlink:href="#mfd3dc65ff4" y="171.365625"/>
     <use style="fill:#0000ff;stroke:#0000ff;" x="169.700682" xlink:href="#mfd3dc65ff4" y="155.661406"/>
     <use style="fill:#0000ff;stroke:#0000ff;" x="172.744318" xlink:href="#mfd3dc65ff4" y="163.221492"/>
     <use style="fill:#0000ff;stroke:#0000ff;" x="175.787955" xlink:href="#mfd3dc65ff4" y="147.322205"/>
     <use style="fill:#0000ff;stroke:#0000ff;" x="178.831591" xlink:href="#mfd3dc65ff4" y="138.598738"/>
     <use style="fill:#0000ff;stroke:#0000ff;" x="181.875227" xlink:href="#mfd3dc65ff4" y="117.7902"/>
     <use style="fill:#0000ff;stroke:#0000ff;" x="184.918864" xlink:href="#mfd3dc65ff4" y="104.386722"/>
     <use style="fill:#0000ff;stroke:#0000ff;" x="187.9625" xlink:href="#mfd3dc65ff4" y="82.047968"/>
     <use style="fill:#0000ff;stroke:#0000ff;" x="191.006136" xlink:href="#mfd3dc65ff4" y="69.166823"/>
     <use style="fill:#0000ff;stroke:#0000ff;" x="194.049773" xlink:href="#mfd3dc65ff4" y="64.337331"/>
     <use style="fill:#0000ff;stroke:#0000ff;" x="197.093409" xlink:href="#mfd3dc65ff4" y="36.723758"/>
     <use style="fill:#0000ff;stroke:#0000ff;" x="200.137045" xlink:href="#mfd3dc65ff4" y="28.683302"/>
     <use style="fill:#0000ff;stroke:#0000ff;" x="203.180682" xlink:href="#mfd3dc65ff4" y="17.083636"/>
     <use style="fill:#0000ff;stroke:#0000ff;" x="206.224318" xlink:href="#mfd3dc65ff4" y="22.909959"/>
     <use style="fill:#0000ff;stroke:#0000ff;" x="209.267955" xlink:href="#mfd3dc65ff4" y="22.044816"/>
     <use style="fill:#0000ff;stroke:#0000ff;" x="212.311591" xlink:href="#mfd3dc65ff4" y="26.89924"/>
     <use style="fill:#0000ff;stroke:#0000ff;" x="215.355227" xlink:href="#mfd3dc65ff4" y="31.130444"/>
     <use style="fill:#0000ff;stroke:#0000ff;" x="218.398864" xlink:href="#mfd3dc65ff4" y="28.340311"/>
     <use style="fill:#0000ff;stroke:#0000ff;" x="221.4425" xlink:href="#mfd3dc65ff4" y="55.323164"/>
     <use style="fill:#0000ff;stroke:#0000ff;" x="224.486136" xlink:href="#mfd3dc65ff4" y="58.493397"/>
     <use style="fill:#0000ff;stroke:#0000ff;" x="227.529773" xlink:href="#mfd3dc65ff4" y="90.237288"/>
     <use style="fill:#0000ff;stroke:#0000ff;" x="230.573409" xlink:href="#mfd3dc65ff4" y="99.87471"/>
     <use style="fill:#0000ff;stroke:#0000ff;" x="233.617045" xlink:href="#mfd3dc65ff4" y="108.24522"/>
     <use style="fill:#0000ff;stroke:#0000ff;" x="236.660682" xlink:href="#mfd3dc65ff4" y="125.060999"/>
     <use style="fill:#0000ff;stroke:#0000ff;" x="239.704318" xlink:href="#mfd3dc65ff4" y="141.827966"/>
     <use style="fill:#0000ff;stroke:#0000ff;" x="242.747955" xlink:href="#mfd3dc65ff4" y="155.085187"/>
     <use style="fill:#0000ff;stroke:#0000ff;" x="245.791591" xlink:href="#mfd3dc65ff4" y="174.219102"/>
     <use style="fill:#0000ff;stroke:#0000ff;" x="248.835227" xlink:href="#mfd3dc65ff4" y="181.600971"/>
     <use style="fill:#0000ff;stroke:#0000ff;" x="251.878864" xlink:href="#mfd3dc65ff4" y="184.904668"/>
     <use style="fill:#0000ff;stroke:#0000ff;" x="254.9225" xlink:href="#mfd3dc65ff4" y="186.630568"/>
     <use style="fill:#0000ff;stroke:#0000ff;" x="257.966136" xlink:href="#mfd3dc65ff4" y="186.815816"/>
     <use style="fill:#0000ff;stroke:#0000ff;" x="261.009773" xlink:href="#mfd3dc65ff4" y="188.568967"/>
     <use style="fill:#0000ff;stroke:#0000ff;" x="264.053409" xlink:href="#mfd3dc65ff4" y="204.058731"/>
     <use style="fill:#0000ff;stroke:#0000ff;" x="267.097045" xlink:href="#mfd3dc65ff4" y="201.27396"/>
     <use style="fill:#0000ff;stroke:#0000ff;" x="270.140682" xlink:href="#mfd3dc65ff4" y="207.042846"/>
     <use style="fill:#0000ff;stroke:#0000ff;" x="273.184318" xlink:href="#mfd3dc65ff4" y="200.601059"/>
     <use style="fill:#0000ff;stroke:#0000ff;" x="276.227955" xlink:href="#mfd3dc65ff4" y="196.176453"/>
     <use style="fill:#0000ff;stroke:#0000ff;" x="279.271591" xlink:href="#mfd3dc65ff4" y="207.438781"/>
     <use style="fill:#0000ff;stroke:#0000ff;" x="282.315227" xlink:href="#mfd3dc65ff4" y="189.476182"/>
     <use style="fill:#0000ff;stroke:#0000ff;" x="285.358864" xlink:href="#mfd3dc65ff4" y="195.786317"/>
     <use style="fill:#0000ff;stroke:#0000ff;" x="288.4025" xlink:href="#mfd3dc65ff4" y="191.901872"/>
     <use style="fill:#0000ff;stroke:#0000ff;" x="291.446136" xlink:href="#mfd3dc65ff4" y="201.196049"/>
     <use style="fill:#0000ff;stroke:#0000ff;" x="294.489773" xlink:href="#mfd3dc65ff4" y="198.824426"/>
     <use style="fill:#0000ff;stroke:#0000ff;" x="297.533409" xlink:href="#mfd3dc65ff4" y="193.293768"/>
     <use style="fill:#0000ff;stroke:#0000ff;" x="300.577045" xlink:href="#mfd3dc65ff4" y="195.918911"/>
     <use style="fill:#0000ff;stroke:#0000ff;" x="303.620682" xlink:href="#mfd3dc65ff4" y="187.428924"/>
     <use style="fill:#0000ff;stroke:#0000ff;" x="306.664318" xlink:href="#mfd3dc65ff4" y="193.656147"/>
     <use style="fill:#0000ff;stroke:#0000ff;" x="309.707955" xlink:href="#mfd3dc65ff4" y="195.527651"/>
     <use style="fill:#0000ff;stroke:#0000ff;" x="312.751591" xlink:href="#mfd3dc65ff4" y="198.036289"/>
     <use style="fill:#0000ff;stroke:#0000ff;" x="315.795227" xlink:href="#mfd3dc65ff4" y="191.795151"/>
     <use style="fill:#0000ff;stroke:#0000ff;" x="318.838864" xlink:href="#mfd3dc65ff4" y="198.152105"/>
     <use style="fill:#0000ff;stroke:#0000ff;" x="321.8825" xlink:href="#mfd3dc65ff4" y="193.076087"/>
     <use style="fill:#0000ff;stroke:#0000ff;" x="324.926136" xlink:href="#mfd3dc65ff4" y="195.966636"/>
     <use style="fill:#0000ff;stroke:#0000ff;" x="327.969773" xlink:href="#mfd3dc65ff4" y="193.998087"/>
     <use style="fill:#0000ff;stroke:#0000ff;" x="331.013409" xlink:href="#mfd3dc65ff4" y="187.901611"/>
     <use style="fill:#0000ff;stroke:#0000ff;" x="334.057045" xlink:href="#mfd3dc65ff4" y="199.906525"/>
     <use style="fill:#0000ff;stroke:#0000ff;" x="337.100682" xlink:href="#mfd3dc65ff4" y="190.774947"/>
     <use style="fill:#0000ff;stroke:#0000ff;" x="340.144318" xlink:href="#mfd3dc65ff4" y="205.261828"/>
    </g>
   </g>
   <g id="line2d_14">
    <path clip-path="url(#p7c792bc878)" d="M 35.780682 202.829998 
L 38.824318 202.829826 
L 41.867955 202.82955 
L 44.911591 202.829113 
L 47.955227 202.82843 
L 50.998864 202.827371 
L 54.0425 202.825748 
L 57.086136 202.823285 
L 60.129773 202.819588 
L 63.173409 202.814094 
L 66.217045 202.806019 
L 69.260682 202.794273 
L 72.304318 202.77737 
L 75.347955 202.753302 
L 78.391591 202.719397 
L 81.435227 202.672147 
L 84.478864 202.607003 
L 87.5225 202.518156 
L 90.566136 202.398296 
L 93.609773 202.238355 
L 96.653409 202.027264 
L 99.697045 201.751732 
L 102.740682 201.396072 
L 105.784318 200.942106 
L 108.827955 200.369179 
L 111.871591 199.654327 
L 114.915227 198.772618 
L 117.958864 197.697712 
L 121.0025 196.402651 
L 124.046136 194.860911 
L 127.089773 193.047683 
L 130.133409 190.941385 
L 133.177045 188.525345 
L 136.220682 185.789582 
L 139.264318 182.732601 
L 142.307955 179.363067 
L 145.351591 175.701255 
L 148.395227 171.780115 
L 151.438864 167.645835 
L 154.4825 163.357787 
L 157.526136 158.987765 
L 160.569773 154.618471 
L 163.613409 150.341262 
L 166.657045 146.2532 
L 169.700682 142.45354 
L 172.744318 139.039802 
L 175.787955 136.103664 
L 178.831591 133.726882 
L 181.875227 131.977521 
L 184.918864 130.906719 
L 187.9625 130.546201 
L 191.006136 130.906719 
L 194.049773 131.977521 
L 197.093409 133.726882 
L 200.137045 136.103664 
L 203.180682 139.039802 
L 206.224318 142.45354 
L 209.267955 146.2532 
L 212.311591 150.341262 
L 215.355227 154.618471 
L 218.398864 158.987765 
L 221.4425 163.357787 
L 224.486136 167.645835 
L 227.529773 171.780115 
L 230.573409 175.701255 
L 233.617045 179.363067 
L 236.660682 182.732601 
L 239.704318 185.789582 
L 242.747955 188.525345 
L 245.791591 190.941385 
L 248.835227 193.047683 
L 251.878864 194.860911 
L 254.9225 196.402651 
L 257.966136 197.697712 
L 261.009773 198.772618 
L 264.053409 199.654327 
L 267.097045 200.369179 
L 270.140682 200.942106 
L 273.184318 201.396072 
L 276.227955 201.751732 
L 279.271591 202.027264 
L 282.315227 202.238355 
L 285.358864 202.398296 
L 288.4025 202.518156 
L 291.446136 202.607003 
L 294.489773 202.672147 
L 297.533409 202.719397 
L 300.577045 202.753302 
L 303.620682 202.77737 
L 306.664318 202.794273 
L 309.707955 202.806019 
L 312.751591 202.814094 
L 315.795227 202.819588 
L 318.838864 202.823285 
L 321.8825 202.825748 
L 324.926136 202.827371 
L 327.969773 202.82843 
L 331.013409 202.829113 
L 334.057045 202.82955 
L 337.100682 202.829826 
L 340.144318 202.829998 
" style="fill:none;stroke:#000000;stroke-dasharray:5.55,2.4;stroke-dashoffset:0;stroke-width:1.5;"/>
   </g>
   <g id="line2d_15">
    <path clip-path="url(#p7c792bc878)" d="M 35.780682 202.830267 
L 38.824318 202.830267 
L 41.867955 202.830267 
L 44.911591 202.830267 
L 47.955227 202.830267 
L 50.998864 202.830267 
L 54.0425 202.830267 
L 57.086136 202.830267 
L 60.129773 202.830267 
L 63.173409 202.830267 
L 66.217045 202.830267 
L 69.260682 202.830267 
L 72.304318 202.830267 
L 75.347955 202.830267 
L 78.391591 202.830266 
L 81.435227 202.830264 
L 84.478864 202.830259 
L 87.5225 202.830249 
L 90.566136 202.830226 
L 93.609773 202.830176 
L 96.653409 202.830071 
L 99.697045 202.829855 
L 102.740682 202.82942 
L 105.784318 202.828561 
L 108.827955 202.8269 
L 111.871591 202.823757 
L 114.915227 202.817936 
L 117.958864 202.807387 
L 121.0025 202.788676 
L 124.046136 202.756201 
L 127.089773 202.701054 
L 130.133409 202.609428 
L 133.177045 202.460507 
L 136.220682 202.223753 
L 139.264318 201.855639 
L 142.307955 201.295952 
L 145.351591 200.463982 
L 148.395227 199.255097 
L 151.438864 197.538465 
L 154.4825 195.156871 
L 157.526136 191.929708 
L 160.569773 187.660215 
L 163.613409 182.14779 
L 166.657045 175.20572 
L 169.700682 166.683876 
L 172.744318 156.494977 
L 175.787955 144.641926 
L 178.831591 131.242763 
L 181.875227 116.549177 
L 184.918864 100.954431 
L 187.9625 84.987237 
L 191.006136 69.289529 
L 194.049773 54.578185 
L 197.093409 41.593165 
L 200.137045 31.036926 
L 203.180682 23.511881 
L 206.224318 19.463564 
L 209.267955 19.13698 
L 212.311591 22.552051 
L 215.355227 29.50161 
L 218.398864 39.572199 
L 221.4425 52.184794 
L 224.486136 66.649845 
L 227.529773 82.229402 
L 230.573409 98.198556 
L 233.617045 113.899224 
L 236.660682 128.781028 
L 239.704318 142.426368 
L 242.747955 154.559244 
L 245.791591 165.039545 
L 248.835227 173.846086 
L 251.878864 181.052466 
L 254.9225 186.799874 
L 257.966136 191.270436 
L 261.009773 194.663768 
L 264.053409 197.178327 
L 267.097045 198.998172 
L 270.140682 200.284889 
L 273.184318 201.173943 
L 276.227955 201.774385 
L 279.271591 202.170846 
L 282.315227 202.426819 
L 285.358864 202.588449 
L 288.4025 202.688274 
L 291.446136 202.748586 
L 294.489773 202.784236 
L 297.533409 202.804854 
L 300.577045 202.816522 
L 303.620682 202.822984 
L 306.664318 202.826487 
L 309.707955 202.828345 
L 312.751591 202.82931 
L 315.795227 202.8298 
L 318.838864 202.830044 
L 321.8825 202.830163 
L 324.926136 202.830219 
L 327.969773 202.830246 
L 331.013409 202.830258 
L 334.057045 202.830263 
L 337.100682 202.830266 
L 340.144318 202.830267 
" style="fill:none;stroke:#ff0000;stroke-linecap:square;stroke-width:1.5;"/>
   </g>
   <g id="patch_3">
    <path d="M 20.5625 224.64 
L 20.5625 7.2 
" style="fill:none;stroke:#000000;stroke-linecap:square;stroke-linejoin:miter;stroke-width:0.8;"/>
   </g>
   <g id="patch_4">
    <path d="M 355.3625 224.64 
L 355.3625 7.2 
" style="fill:none;stroke:#000000;stroke-linecap:square;stroke-linejoin:miter;stroke-width:0.8;"/>
   </g>
   <g id="patch_5">
    <path d="M 20.5625 224.64 
L 355.3625 224.64 
" style="fill:none;stroke:#000000;stroke-linecap:square;stroke-linejoin:miter;stroke-width:0.8;"/>
   </g>
   <g id="patch_6">
    <path d="M 20.5625 7.2 
L 355.3625 7.2 
" style="fill:none;stroke:#000000;stroke-linecap:square;stroke-linejoin:miter;stroke-width:0.8;"/>
   </g>
   <g id="legend_1">
    <g id="patch_7">
     <path d="M 275.467188 44.55625 
L 348.3625 44.55625 
Q 350.3625 44.55625 350.3625 42.55625 
L 350.3625 14.2 
Q 350.3625 12.2 348.3625 12.2 
L 275.467188 12.2 
Q 273.467188 12.2 273.467188 14.2 
L 273.467188 42.55625 
Q 273.467188 44.55625 275.467188 44.55625 
z
" style="fill:#ffffff;opacity:0.8;stroke:#cccccc;stroke-linejoin:miter;"/>
    </g>
    <g id="line2d_16">
     <path d="M 277.467188 20.298437 
L 297.467188 20.298437 
" style="fill:none;stroke:#000000;stroke-dasharray:5.55,2.4;stroke-dashoffset:0;stroke-width:1.5;"/>
    </g>
    <g id="line2d_17"/>
    <g id="text_13">
     <!-- initial fit -->
     <g transform="translate(305.467188 23.798437)scale(0.1 -0.1)">
      <defs>
       <path d="M 9.421875 54.6875 
L 18.40625 54.6875 
L 18.40625 0 
L 9.421875 0 
z
M 9.421875 75.984375 
L 18.40625 75.984375 
L 18.40625 64.59375 
L 9.421875 64.59375 
z
" id="DejaVuSans-105"/>
       <path d="M 54.890625 33.015625 
L 54.890625 0 
L 45.90625 0 
L 45.90625 32.71875 
Q 45.90625 40.484375 42.875 44.328125 
Q 39.84375 48.1875 33.796875 48.1875 
Q 26.515625 48.1875 22.3125 43.546875 
Q 18.109375 38.921875 18.109375 30.90625 
L 18.109375 0 
L 9.078125 0 
L 9.078125 54.6875 
L 18.109375 54.6875 
L 18.109375 46.1875 
Q 21.34375 51.125 25.703125 53.5625 
Q 30.078125 56 35.796875 56 
Q 45.21875 56 50.046875 50.171875 
Q 54.890625 44.34375 54.890625 33.015625 
z
" id="DejaVuSans-110"/>
       <path d="M 18.3125 70.21875 
L 18.3125 54.6875 
L 36.8125 54.6875 
L 36.8125 47.703125 
L 18.3125 47.703125 
L 18.3125 18.015625 
Q 18.3125 11.328125 20.140625 9.421875 
Q 21.96875 7.515625 27.59375 7.515625 
L 36.8125 7.515625 
L 36.8125 0 
L 27.59375 0 
Q 17.1875 0 13.234375 3.875 
Q 9.28125 7.765625 9.28125 18.015625 
L 9.28125 47.703125 
L 2.6875 47.703125 
L 2.6875 54.6875 
L 9.28125 54.6875 
L 9.28125 70.21875 
z
" id="DejaVuSans-116"/>
       <path d="M 34.28125 27.484375 
Q 23.390625 27.484375 19.1875 25 
Q 14.984375 22.515625 14.984375 16.5 
Q 14.984375 11.71875 18.140625 8.90625 
Q 21.296875 6.109375 26.703125 6.109375 
Q 34.1875 6.109375 38.703125 11.40625 
Q 43.21875 16.703125 43.21875 25.484375 
L 43.21875 27.484375 
z
M 52.203125 31.203125 
L 52.203125 0 
L 43.21875 0 
L 43.21875 8.296875 
Q 40.140625 3.328125 35.546875 0.953125 
Q 30.953125 -1.421875 24.3125 -1.421875 
Q 15.921875 -1.421875 10.953125 3.296875 
Q 6 8.015625 6 15.921875 
Q 6 25.140625 12.171875 29.828125 
Q 18.359375 34.515625 30.609375 34.515625 
L 43.21875 34.515625 
L 43.21875 35.40625 
Q 43.21875 41.609375 39.140625 45 
Q 35.0625 48.390625 27.6875 48.390625 
Q 23 48.390625 18.546875 47.265625 
Q 14.109375 46.140625 10.015625 43.890625 
L 10.015625 52.203125 
Q 14.9375 54.109375 19.578125 55.046875 
Q 24.21875 56 28.609375 56 
Q 40.484375 56 46.34375 49.84375 
Q 52.203125 43.703125 52.203125 31.203125 
z
" id="DejaVuSans-97"/>
       <path d="M 9.421875 75.984375 
L 18.40625 75.984375 
L 18.40625 0 
L 9.421875 0 
z
" id="DejaVuSans-108"/>
       <path id="DejaVuSans-32"/>
       <path d="M 37.109375 75.984375 
L 37.109375 68.5 
L 28.515625 68.5 
Q 23.6875 68.5 21.796875 66.546875 
Q 19.921875 64.59375 19.921875 59.515625 
L 19.921875 54.6875 
L 34.71875 54.6875 
L 34.71875 47.703125 
L 19.921875 47.703125 
L 19.921875 0 
L 10.890625 0 
L 10.890625 47.703125 
L 2.296875 47.703125 
L 2.296875 54.6875 
L 10.890625 54.6875 
L 10.890625 58.5 
Q 10.890625 67.625 15.140625 71.796875 
Q 19.390625 75.984375 28.609375 75.984375 
z
" id="DejaVuSans-102"/>
      </defs>
      <use xlink:href="#DejaVuSans-105"/>
      <use x="27.783203" xlink:href="#DejaVuSans-110"/>
      <use x="91.162109" xlink:href="#DejaVuSans-105"/>
      <use x="118.945312" xlink:href="#DejaVuSans-116"/>
      <use x="158.154297" xlink:href="#DejaVuSans-105"/>
      <use x="185.9375" xlink:href="#DejaVuSans-97"/>
      <use x="247.216797" xlink:href="#DejaVuSans-108"/>
      <use x="275" xlink:href="#DejaVuSans-32"/>
      <use x="306.787109" xlink:href="#DejaVuSans-102"/>
      <use x="341.992188" xlink:href="#DejaVuSans-105"/>
      <use x="369.775391" xlink:href="#DejaVuSans-116"/>
     </g>
    </g>
    <g id="line2d_18">
     <path d="M 277.467188 34.976562 
L 297.467188 34.976562 
" style="fill:none;stroke:#ff0000;stroke-linecap:square;stroke-width:1.5;"/>
    </g>
    <g id="line2d_19"/>
    <g id="text_14">
     <!-- best fit -->
     <g transform="translate(305.467188 38.476562)scale(0.1 -0.1)">
      <defs>
       <path d="M 48.6875 27.296875 
Q 48.6875 37.203125 44.609375 42.84375 
Q 40.53125 48.484375 33.40625 48.484375 
Q 26.265625 48.484375 22.1875 42.84375 
Q 18.109375 37.203125 18.109375 27.296875 
Q 18.109375 17.390625 22.1875 11.75 
Q 26.265625 6.109375 33.40625 6.109375 
Q 40.53125 6.109375 44.609375 11.75 
Q 48.6875 17.390625 48.6875 27.296875 
z
M 18.109375 46.390625 
Q 20.953125 51.265625 25.265625 53.625 
Q 29.59375 56 35.59375 56 
Q 45.5625 56 51.78125 48.09375 
Q 58.015625 40.1875 58.015625 27.296875 
Q 58.015625 14.40625 51.78125 6.484375 
Q 45.5625 -1.421875 35.59375 -1.421875 
Q 29.59375 -1.421875 25.265625 0.953125 
Q 20.953125 3.328125 18.109375 8.203125 
L 18.109375 0 
L 9.078125 0 
L 9.078125 75.984375 
L 18.109375 75.984375 
z
" id="DejaVuSans-98"/>
       <path d="M 56.203125 29.59375 
L 56.203125 25.203125 
L 14.890625 25.203125 
Q 15.484375 15.921875 20.484375 11.0625 
Q 25.484375 6.203125 34.421875 6.203125 
Q 39.59375 6.203125 44.453125 7.46875 
Q 49.3125 8.734375 54.109375 11.28125 
L 54.109375 2.78125 
Q 49.265625 0.734375 44.1875 -0.34375 
Q 39.109375 -1.421875 33.890625 -1.421875 
Q 20.796875 -1.421875 13.15625 6.1875 
Q 5.515625 13.8125 5.515625 26.8125 
Q 5.515625 40.234375 12.765625 48.109375 
Q 20.015625 56 32.328125 56 
Q 43.359375 56 49.78125 48.890625 
Q 56.203125 41.796875 56.203125 29.59375 
z
M 47.21875 32.234375 
Q 47.125 39.59375 43.09375 43.984375 
Q 39.0625 48.390625 32.421875 48.390625 
Q 24.90625 48.390625 20.390625 44.140625 
Q 15.875 39.890625 15.1875 32.171875 
z
" id="DejaVuSans-101"/>
       <path d="M 44.28125 53.078125 
L 44.28125 44.578125 
Q 40.484375 46.53125 36.375 47.5 
Q 32.28125 48.484375 27.875 48.484375 
Q 21.1875 48.484375 17.84375 46.4375 
Q 14.5 44.390625 14.5 40.28125 
Q 14.5 37.15625 16.890625 35.375 
Q 19.28125 33.59375 26.515625 31.984375 
L 29.59375 31.296875 
Q 39.15625 29.25 43.1875 25.515625 
Q 47.21875 21.78125 47.21875 15.09375 
Q 47.21875 7.46875 41.1875 3.015625 
Q 35.15625 -1.421875 24.609375 -1.421875 
Q 20.21875 -1.421875 15.453125 -0.5625 
Q 10.6875 0.296875 5.421875 2 
L 5.421875 11.28125 
Q 10.40625 8.6875 15.234375 7.390625 
Q 20.0625 6.109375 24.8125 6.109375 
Q 31.15625 6.109375 34.5625 8.28125 
Q 37.984375 10.453125 37.984375 14.40625 
Q 37.984375 18.0625 35.515625 20.015625 
Q 33.0625 21.96875 24.703125 23.78125 
L 21.578125 24.515625 
Q 13.234375 26.265625 9.515625 29.90625 
Q 5.8125 33.546875 5.8125 39.890625 
Q 5.8125 47.609375 11.28125 51.796875 
Q 16.75 56 26.8125 56 
Q 31.78125 56 36.171875 55.265625 
Q 40.578125 54.546875 44.28125 53.078125 
z
" id="DejaVuSans-115"/>
      </defs>
      <use xlink:href="#DejaVuSans-98"/>
      <use x="63.476562" xlink:href="#DejaVuSans-101"/>
      <use x="125" xlink:href="#DejaVuSans-115"/>
      <use x="177.099609" xlink:href="#DejaVuSans-116"/>
      <use x="216.308594" xlink:href="#DejaVuSans-32"/>
      <use x="248.095703" xlink:href="#DejaVuSans-102"/>
      <use x="283.300781" xlink:href="#DejaVuSans-105"/>
      <use x="311.083984" xlink:href="#DejaVuSans-116"/>
     </g>
    </g>
   </g>
  </g>
 </g>
 <defs>
  <clipPath id="p7c792bc878">
   <rect height="217.44" width="334.8" x="20.5625" y="7.2"/>
  </clipPath>
 </defs>
</svg>
