<?xml version="1.0" encoding="utf-8" standalone="no"?>
<!DOCTYPE svg PUBLIC "-//W3C//DTD SVG 1.1//EN"
  "http://www.w3.org/Graphics/SVG/1.1/DTD/svg11.dtd">
<!-- Created with matplotlib (https://matplotlib.org/) -->
<svg height="248.518125pt" version="1.1" viewBox="0 0 362.5625 248.518125" width="362.5625pt" xmlns="http://www.w3.org/2000/svg" xmlns:xlink="http://www.w3.org/1999/xlink">
 <metadata>
  <rdf:RDF xmlns:cc="http://creativecommons.org/ns#" xmlns:dc="http://purl.org/dc/elements/1.1/" xmlns:rdf="http://www.w3.org/1999/02/22-rdf-syntax-ns#">
   <cc:Work>
    <dc:type rdf:resource="http://purl.org/dc/dcmitype/StillImage"/>
    <dc:date>2021-02-07T18:09:57.217276</dc:date>
    <dc:format>image/svg+xml</dc:format>
    <dc:creator>
     <cc:Agent>
      <dc:title>Matplotlib v3.3.2, https://matplotlib.org/</dc:title>
     </cc:Agent>
    </dc:creator>
   </cc:Work>
  </rdf:RDF>
 </metadata>
 <defs>
  <style type="text/css">*{stroke-linecap:butt;stroke-linejoin:round;}</style>
 </defs>
 <g id="figure_1">
  <g id="patch_1">
   <path d="M 0 248.518125 
L 362.5625 248.518125 
L 362.5625 0 
L 0 0 
z
" style="fill:none;"/>
  </g>
  <g id="axes_1">
   <g id="patch_2">
    <path d="M 20.5625 224.64 
L 355.3625 224.64 
L 355.3625 7.2 
L 20.5625 7.2 
z
" style="fill:#ffffff;"/>
   </g>
   <g id="PolyCollection_1">
    <defs>
     <path d="M 35.780682 -45.383297 
L 35.780682 -45.383297 
L 38.824318 -45.383297 
L 41.867955 -45.383297 
L 44.911591 -45.383297 
L 47.955227 -45.383297 
L 50.998864 -45.383297 
L 54.0425 -45.383297 
L 57.086136 -45.383297 
L 60.129773 -45.383297 
L 63.173409 -45.383297 
L 66.217045 -45.383297 
L 69.260682 -45.383297 
L 72.304318 -45.383297 
L 75.347955 -45.383296 
L 78.391591 -45.383296 
L 81.435227 -45.383295 
L 84.478864 -45.383293 
L 87.5225 -45.383288 
L 90.566136 -45.383281 
L 93.609773 -45.383268 
L 96.653409 -45.383248 
L 99.697045 -45.383222 
L 102.740682 -45.383198 
L 105.784318 -45.383204 
L 108.827955 -45.383317 
L 111.871591 -45.383718 
L 114.915227 -45.384794 
L 117.958864 -45.387329 
L 121.0025 -45.392831 
L 124.046136 -45.404063 
L 127.089773 -45.425896 
L 130.133409 -45.466583 
L 133.177045 -45.539613 
L 136.220682 -45.666246 
L 139.264318 -45.878837 
L 142.307955 -46.224896 
L 145.351591 -46.771708 
L 148.395227 -47.611077 
L 151.438864 -48.863441 
L 154.4825 -50.680305 
L 157.526136 -53.243658 
L 160.569773 -56.760876 
L 163.613409 -61.453763 
L 166.657045 -67.540763 
L 169.700682 -75.212253 
L 172.744318 -84.599928 
L 175.787955 -95.742755 
L 178.831591 -108.553377 
L 181.875227 -122.790135 
L 184.918864 -138.041096 
L 187.9625 -153.72779 
L 191.006136 -169.137707 
L 194.049773 -183.491512 
L 197.093409 -196.034086 
L 200.137045 -206.114811 
L 203.180682 -213.229144 
L 206.224318 -217.030722 
L 209.267955 -217.336607 
L 212.311591 -214.132118 
L 215.355227 -207.571325 
L 218.398864 -197.97267 
L 221.4425 -185.81374 
L 224.486136 -171.721686 
L 227.529773 -156.438365 
L 230.573409 -140.74567 
L 233.617045 -125.373452 
L 236.660682 -110.926669 
L 239.704318 -97.847056 
L 242.747955 -86.405065 
L 245.791591 -76.713028 
L 248.835227 -68.751539 
L 251.878864 -62.40248 
L 254.9225 -57.483314 
L 257.966136 -53.778501 
L 261.009773 -51.06535 
L 264.053409 -49.133015 
L 267.097045 -47.7946 
L 270.140682 -46.893168 
L 273.184318 -46.303008 
L 276.227955 -45.92762 
L 279.271591 -45.695804 
L 282.315227 -45.556966 
L 285.358864 -45.476438 
L 288.4025 -45.431295 
L 291.446136 -45.406907 
L 294.489773 -45.394263 
L 297.533409 -45.388012 
L 300.577045 -45.385098 
L 303.620682 -45.38384 
L 306.664318 -45.383359 
L 309.707955 -45.383213 
L 312.751591 -45.383196 
L 315.795227 -45.383218 
L 318.838864 -45.383244 
L 321.8825 -45.383265 
L 324.926136 -45.383279 
L 327.969773 -45.383287 
L 331.013409 -45.383292 
L 334.057045 -45.383294 
L 337.100682 -45.383296 
L 340.144318 -45.383296 
L 340.144318 -45.383299 
L 340.144318 -45.383299 
L 337.100682 -45.383301 
L 334.057045 -45.383307 
L 331.013409 -45.38332 
L 327.969773 -45.383349 
L 324.926136 -45.383408 
L 321.8825 -45.383533 
L 318.838864 -45.383785 
L 315.795227 -45.384287 
L 312.751591 -45.385265 
L 309.707955 -45.387128 
L 306.664318 -45.390603 
L 303.620682 -45.396948 
L 300.577045 -45.408285 
L 297.533409 -45.428111 
L 294.489773 -45.462044 
L 291.446136 -45.518878 
L 288.4025 -45.612033 
L 285.358864 -45.761442 
L 282.315227 -45.995918 
L 279.271591 -46.355953 
L 276.227955 -46.89681 
L 273.184318 -47.691639 
L 270.140682 -48.834178 
L 267.097045 -50.440463 
L 264.053409 -52.648789 
L 261.009773 -55.617143 
L 257.966136 -59.517341 
L 254.9225 -64.52532 
L 251.878864 -70.807423 
L 248.835227 -78.50306 
L 245.791591 -87.704861 
L 242.747955 -98.438149 
L 239.704318 -110.642228 
L 236.660682 -124.156364 
L 233.617045 -138.713106 
L 230.573409 -153.940317 
L 227.529773 -169.370312 
L 224.486136 -184.450384 
L 221.4425 -198.549635 
L 218.398864 -210.971709 
L 215.355227 -220.999881 
L 212.311591 -227.983259 
L 209.267955 -231.434489 
L 206.224318 -231.103886 
L 203.180682 -227.015597 
L 200.137045 -219.464178 
L 197.093409 -208.971583 
L 194.049773 -196.207321 
L 191.006136 -181.889816 
L 187.9625 -166.706072 
L 184.918864 -151.273896 
L 181.875227 -136.131863 
L 178.831591 -121.731919 
L 175.787955 -108.428571 
L 172.744318 -96.470687 
L 169.700682 -86.00096 
L 166.657045 -77.064011 
L 163.613409 -69.621435 
L 160.569773 -63.571017 
L 157.526136 -58.767312 
L 154.4825 -55.041165 
L 151.438864 -52.216481 
L 148.395227 -50.123257 
L 145.351591 -48.606599 
L 142.307955 -47.531964 
L 139.264318 -46.787235 
L 136.220682 -46.282399 
L 133.177045 -45.947616 
L 130.133409 -45.730409 
L 127.089773 -45.592526 
L 124.046136 -45.50688 
L 121.0025 -45.454822 
L 117.958864 -45.423858 
L 114.915227 -45.405833 
L 111.871591 -45.395565 
L 108.827955 -45.38984 
L 105.784318 -45.386715 
L 102.740682 -45.385047 
L 99.697045 -45.384174 
L 96.653409 -45.383728 
L 93.609773 -45.383504 
L 90.566136 -45.383395 
L 87.5225 -45.383342 
L 84.478864 -45.383317 
L 81.435227 -45.383306 
L 78.391591 -45.383301 
L 75.347955 -45.383299 
L 72.304318 -45.383298 
L 69.260682 -45.383297 
L 66.217045 -45.383297 
L 63.173409 -45.383297 
L 60.129773 -45.383297 
L 57.086136 -45.383297 
L 54.0425 -45.383297 
L 50.998864 -45.383297 
L 47.955227 -45.383297 
L 44.911591 -45.383297 
L 41.867955 -45.383297 
L 38.824318 -45.383297 
L 35.780682 -45.383297 
z
" id="m832587b0a9" style="stroke:#ababab;"/>
    </defs>
    <g clip-path="url(#p2b9a3a2b4f)">
     <use style="fill:#ababab;stroke:#ababab;" x="0" xlink:href="#m832587b0a9" y="248.518125"/>
    </g>
   </g>
   <g id="matplotlib.axis_1">
    <g id="xtick_1">
     <g id="line2d_1">
      <defs>
       <path d="M 0 0 
L 0 3.5 
" id="m37407c3bcc" style="stroke:#000000;stroke-width:0.8;"/>
      </defs>
      <g>
       <use style="stroke:#000000;stroke-width:0.8;" x="35.780682" xlink:href="#m37407c3bcc" y="224.64"/>
      </g>
     </g>
     <g id="text_1">
      <!-- 0 -->
      <g transform="translate(32.599432 239.238437)scale(0.1 -0.1)">
       <defs>
        <path d="M 31.78125 66.40625 
Q 24.171875 66.40625 20.328125 58.90625 
Q 16.5 51.421875 16.5 36.375 
Q 16.5 21.390625 20.328125 13.890625 
Q 24.171875 6.390625 31.78125 6.390625 
Q 39.453125 6.390625 43.28125 13.890625 
Q 47.125 21.390625 47.125 36.375 
Q 47.125 51.421875 43.28125 58.90625 
Q 39.453125 66.40625 31.78125 66.40625 
z
M 31.78125 74.21875 
Q 44.046875 74.21875 50.515625 64.515625 
Q 56.984375 54.828125 56.984375 36.375 
Q 56.984375 17.96875 50.515625 8.265625 
Q 44.046875 -1.421875 31.78125 -1.421875 
Q 19.53125 -1.421875 13.0625 8.265625 
Q 6.59375 17.96875 6.59375 36.375 
Q 6.59375 54.828125 13.0625 64.515625 
Q 19.53125 74.21875 31.78125 74.21875 
z
" id="DejaVuSans-48"/>
       </defs>
       <use xlink:href="#DejaVuSans-48"/>
      </g>
     </g>
    </g>
    <g id="xtick_2">
     <g id="line2d_2">
      <g>
       <use style="stroke:#000000;stroke-width:0.8;" x="96.653409" xlink:href="#m37407c3bcc" y="224.64"/>
      </g>
     </g>
     <g id="text_2">
      <!-- 2 -->
      <g transform="translate(93.472159 239.238437)scale(0.1 -0.1)">
       <defs>
        <path d="M 19.1875 8.296875 
L 53.609375 8.296875 
L 53.609375 0 
L 7.328125 0 
L 7.328125 8.296875 
Q 12.9375 14.109375 22.625 23.890625 
Q 32.328125 33.6875 34.8125 36.53125 
Q 39.546875 41.84375 41.421875 45.53125 
Q 43.3125 49.21875 43.3125 52.78125 
Q 43.3125 58.59375 39.234375 62.25 
Q 35.15625 65.921875 28.609375 65.921875 
Q 23.96875 65.921875 18.8125 64.3125 
Q 13.671875 62.703125 7.8125 59.421875 
L 7.8125 69.390625 
Q 13.765625 71.78125 18.9375 73 
Q 24.125 74.21875 28.421875 74.21875 
Q 39.75 74.21875 46.484375 68.546875 
Q 53.21875 62.890625 53.21875 53.421875 
Q 53.21875 48.921875 51.53125 44.890625 
Q 49.859375 40.875 45.40625 35.40625 
Q 44.1875 33.984375 37.640625 27.21875 
Q 31.109375 20.453125 19.1875 8.296875 
z
" id="DejaVuSans-50"/>
       </defs>
       <use xlink:href="#DejaVuSans-50"/>
      </g>
     </g>
    </g>
    <g id="xtick_3">
     <g id="line2d_3">
      <g>
       <use style="stroke:#000000;stroke-width:0.8;" x="157.526136" xlink:href="#m37407c3bcc" y="224.64"/>
      </g>
     </g>
     <g id="text_3">
      <!-- 4 -->
      <g transform="translate(154.344886 239.238437)scale(0.1 -0.1)">
       <defs>
        <path d="M 37.796875 64.3125 
L 12.890625 25.390625 
L 37.796875 25.390625 
z
M 35.203125 72.90625 
L 47.609375 72.90625 
L 47.609375 25.390625 
L 58.015625 25.390625 
L 58.015625 17.1875 
L 47.609375 17.1875 
L 47.609375 0 
L 37.796875 0 
L 37.796875 17.1875 
L 4.890625 17.1875 
L 4.890625 26.703125 
z
" id="DejaVuSans-52"/>
       </defs>
       <use xlink:href="#DejaVuSans-52"/>
      </g>
     </g>
    </g>
    <g id="xtick_4">
     <g id="line2d_4">
      <g>
       <use style="stroke:#000000;stroke-width:0.8;" x="218.398864" xlink:href="#m37407c3bcc" y="224.64"/>
      </g>
     </g>
     <g id="text_4">
      <!-- 6 -->
      <g transform="translate(215.217614 239.238437)scale(0.1 -0.1)">
       <defs>
        <path d="M 33.015625 40.375 
Q 26.375 40.375 22.484375 35.828125 
Q 18.609375 31.296875 18.609375 23.390625 
Q 18.609375 15.53125 22.484375 10.953125 
Q 26.375 6.390625 33.015625 6.390625 
Q 39.65625 6.390625 43.53125 10.953125 
Q 47.40625 15.53125 47.40625 23.390625 
Q 47.40625 31.296875 43.53125 35.828125 
Q 39.65625 40.375 33.015625 40.375 
z
M 52.59375 71.296875 
L 52.59375 62.3125 
Q 48.875 64.0625 45.09375 64.984375 
Q 41.3125 65.921875 37.59375 65.921875 
Q 27.828125 65.921875 22.671875 59.328125 
Q 17.53125 52.734375 16.796875 39.40625 
Q 19.671875 43.65625 24.015625 45.921875 
Q 28.375 48.1875 33.59375 48.1875 
Q 44.578125 48.1875 50.953125 41.515625 
Q 57.328125 34.859375 57.328125 23.390625 
Q 57.328125 12.15625 50.6875 5.359375 
Q 44.046875 -1.421875 33.015625 -1.421875 
Q 20.359375 -1.421875 13.671875 8.265625 
Q 6.984375 17.96875 6.984375 36.375 
Q 6.984375 53.65625 15.1875 63.9375 
Q 23.390625 74.21875 37.203125 74.21875 
Q 40.921875 74.21875 44.703125 73.484375 
Q 48.484375 72.75 52.59375 71.296875 
z
" id="DejaVuSans-54"/>
       </defs>
       <use xlink:href="#DejaVuSans-54"/>
      </g>
     </g>
    </g>
    <g id="xtick_5">
     <g id="line2d_5">
      <g>
       <use style="stroke:#000000;stroke-width:0.8;" x="279.271591" xlink:href="#m37407c3bcc" y="224.64"/>
      </g>
     </g>
     <g id="text_5">
      <!-- 8 -->
      <g transform="translate(276.090341 239.238437)scale(0.1 -0.1)">
       <defs>
        <path d="M 31.78125 34.625 
Q 24.75 34.625 20.71875 30.859375 
Q 16.703125 27.09375 16.703125 20.515625 
Q 16.703125 13.921875 20.71875 10.15625 
Q 24.75 6.390625 31.78125 6.390625 
Q 38.8125 6.390625 42.859375 10.171875 
Q 46.921875 13.96875 46.921875 20.515625 
Q 46.921875 27.09375 42.890625 30.859375 
Q 38.875 34.625 31.78125 34.625 
z
M 21.921875 38.8125 
Q 15.578125 40.375 12.03125 44.71875 
Q 8.5 49.078125 8.5 55.328125 
Q 8.5 64.0625 14.71875 69.140625 
Q 20.953125 74.21875 31.78125 74.21875 
Q 42.671875 74.21875 48.875 69.140625 
Q 55.078125 64.0625 55.078125 55.328125 
Q 55.078125 49.078125 51.53125 44.71875 
Q 48 40.375 41.703125 38.8125 
Q 48.828125 37.15625 52.796875 32.3125 
Q 56.78125 27.484375 56.78125 20.515625 
Q 56.78125 9.90625 50.3125 4.234375 
Q 43.84375 -1.421875 31.78125 -1.421875 
Q 19.734375 -1.421875 13.25 4.234375 
Q 6.78125 9.90625 6.78125 20.515625 
Q 6.78125 27.484375 10.78125 32.3125 
Q 14.796875 37.15625 21.921875 38.8125 
z
M 18.3125 54.390625 
Q 18.3125 48.734375 21.84375 45.5625 
Q 25.390625 42.390625 31.78125 42.390625 
Q 38.140625 42.390625 41.71875 45.5625 
Q 45.3125 48.734375 45.3125 54.390625 
Q 45.3125 60.0625 41.71875 63.234375 
Q 38.140625 66.40625 31.78125 66.40625 
Q 25.390625 66.40625 21.84375 63.234375 
Q 18.3125 60.0625 18.3125 54.390625 
z
" id="DejaVuSans-56"/>
       </defs>
       <use xlink:href="#DejaVuSans-56"/>
      </g>
     </g>
    </g>
    <g id="xtick_6">
     <g id="line2d_6">
      <g>
       <use style="stroke:#000000;stroke-width:0.8;" x="340.144318" xlink:href="#m37407c3bcc" y="224.64"/>
      </g>
     </g>
     <g id="text_6">
      <!-- 10 -->
      <g transform="translate(333.781818 239.238437)scale(0.1 -0.1)">
       <defs>
        <path d="M 12.40625 8.296875 
L 28.515625 8.296875 
L 28.515625 63.921875 
L 10.984375 60.40625 
L 10.984375 69.390625 
L 28.421875 72.90625 
L 38.28125 72.90625 
L 38.28125 8.296875 
L 54.390625 8.296875 
L 54.390625 0 
L 12.40625 0 
z
" id="DejaVuSans-49"/>
       </defs>
       <use xlink:href="#DejaVuSans-49"/>
       <use x="63.623047" xlink:href="#DejaVuSans-48"/>
      </g>
     </g>
    </g>
   </g>
   <g id="matplotlib.axis_2">
    <g id="ytick_1">
     <g id="line2d_7">
      <defs>
       <path d="M 0 0 
L -3.5 0 
" id="m3a84982e5a" style="stroke:#000000;stroke-width:0.8;"/>
      </defs>
      <g>
       <use style="stroke:#000000;stroke-width:0.8;" x="20.5625" xlink:href="#m3a84982e5a" y="203.134828"/>
      </g>
     </g>
     <g id="text_7">
      <!-- 0 -->
      <g transform="translate(7.2 206.934047)scale(0.1 -0.1)">
       <use xlink:href="#DejaVuSans-48"/>
      </g>
     </g>
    </g>
    <g id="ytick_2">
     <g id="line2d_8">
      <g>
       <use style="stroke:#000000;stroke-width:0.8;" x="20.5625" xlink:href="#m3a84982e5a" y="167.822389"/>
      </g>
     </g>
     <g id="text_8">
      <!-- 1 -->
      <g transform="translate(7.2 171.621608)scale(0.1 -0.1)">
       <use xlink:href="#DejaVuSans-49"/>
      </g>
     </g>
    </g>
    <g id="ytick_3">
     <g id="line2d_9">
      <g>
       <use style="stroke:#000000;stroke-width:0.8;" x="20.5625" xlink:href="#m3a84982e5a" y="132.50995"/>
      </g>
     </g>
     <g id="text_9">
      <!-- 2 -->
      <g transform="translate(7.2 136.309169)scale(0.1 -0.1)">
       <use xlink:href="#DejaVuSans-50"/>
      </g>
     </g>
    </g>
    <g id="ytick_4">
     <g id="line2d_10">
      <g>
       <use style="stroke:#000000;stroke-width:0.8;" x="20.5625" xlink:href="#m3a84982e5a" y="97.197511"/>
      </g>
     </g>
     <g id="text_10">
      <!-- 3 -->
      <g transform="translate(7.2 100.99673)scale(0.1 -0.1)">
       <defs>
        <path d="M 40.578125 39.3125 
Q 47.65625 37.796875 51.625 33 
Q 55.609375 28.21875 55.609375 21.1875 
Q 55.609375 10.40625 48.1875 4.484375 
Q 40.765625 -1.421875 27.09375 -1.421875 
Q 22.515625 -1.421875 17.65625 -0.515625 
Q 12.796875 0.390625 7.625 2.203125 
L 7.625 11.71875 
Q 11.71875 9.328125 16.59375 8.109375 
Q 21.484375 6.890625 26.8125 6.890625 
Q 36.078125 6.890625 40.9375 10.546875 
Q 45.796875 14.203125 45.796875 21.1875 
Q 45.796875 27.640625 41.28125 31.265625 
Q 36.765625 34.90625 28.71875 34.90625 
L 20.21875 34.90625 
L 20.21875 43.015625 
L 29.109375 43.015625 
Q 36.375 43.015625 40.234375 45.921875 
Q 44.09375 48.828125 44.09375 54.296875 
Q 44.09375 59.90625 40.109375 62.90625 
Q 36.140625 65.921875 28.71875 65.921875 
Q 24.65625 65.921875 20.015625 65.03125 
Q 15.375 64.15625 9.8125 62.3125 
L 9.8125 71.09375 
Q 15.4375 72.65625 20.34375 73.4375 
Q 25.25 74.21875 29.59375 74.21875 
Q 40.828125 74.21875 47.359375 69.109375 
Q 53.90625 64.015625 53.90625 55.328125 
Q 53.90625 49.265625 50.4375 45.09375 
Q 46.96875 40.921875 40.578125 39.3125 
z
" id="DejaVuSans-51"/>
       </defs>
       <use xlink:href="#DejaVuSans-51"/>
      </g>
     </g>
    </g>
    <g id="ytick_5">
     <g id="line2d_11">
      <g>
       <use style="stroke:#000000;stroke-width:0.8;" x="20.5625" xlink:href="#m3a84982e5a" y="61.885072"/>
      </g>
     </g>
     <g id="text_11">
      <!-- 4 -->
      <g transform="translate(7.2 65.684291)scale(0.1 -0.1)">
       <use xlink:href="#DejaVuSans-52"/>
      </g>
     </g>
    </g>
    <g id="ytick_6">
     <g id="line2d_12">
      <g>
       <use style="stroke:#000000;stroke-width:0.8;" x="20.5625" xlink:href="#m3a84982e5a" y="26.572633"/>
      </g>
     </g>
     <g id="text_12">
      <!-- 5 -->
      <g transform="translate(7.2 30.371852)scale(0.1 -0.1)">
       <defs>
        <path d="M 10.796875 72.90625 
L 49.515625 72.90625 
L 49.515625 64.59375 
L 19.828125 64.59375 
L 19.828125 46.734375 
Q 21.96875 47.46875 24.109375 47.828125 
Q 26.265625 48.1875 28.421875 48.1875 
Q 40.625 48.1875 47.75 41.5 
Q 54.890625 34.8125 54.890625 23.390625 
Q 54.890625 11.625 47.5625 5.09375 
Q 40.234375 -1.421875 26.90625 -1.421875 
Q 22.3125 -1.421875 17.546875 -0.640625 
Q 12.796875 0.140625 7.71875 1.703125 
L 7.71875 11.625 
Q 12.109375 9.234375 16.796875 8.0625 
Q 21.484375 6.890625 26.703125 6.890625 
Q 35.15625 6.890625 40.078125 11.328125 
Q 45.015625 15.765625 45.015625 23.390625 
Q 45.015625 31 40.078125 35.4375 
Q 35.15625 39.890625 26.703125 39.890625 
Q 22.75 39.890625 18.8125 39.015625 
Q 14.890625 38.140625 10.796875 36.28125 
z
" id="DejaVuSans-53"/>
       </defs>
       <use xlink:href="#DejaVuSans-53"/>
      </g>
     </g>
    </g>
   </g>
   <g id="line2d_13">
    <defs>
     <path d="M 0 3 
C 0.795609 3 1.55874 2.683901 2.12132 2.12132 
C 2.683901 1.55874 3 0.795609 3 0 
C 3 -0.795609 2.683901 -1.55874 2.12132 -2.12132 
C 1.55874 -2.683901 0.795609 -3 0 -3 
C -0.795609 -3 -1.55874 -2.683901 -2.12132 -2.12132 
C -2.683901 -1.55874 -3 -0.795609 -3 0 
C -3 0.795609 -2.683901 1.55874 -2.12132 2.12132 
C -1.55874 2.683901 -0.795609 3 0 3 
z
" id="me8bf497590" style="stroke:#0000ff;"/>
    </defs>
    <g clip-path="url(#p2b9a3a2b4f)">
     <use style="fill:#0000ff;stroke:#0000ff;" x="35.780682" xlink:href="#me8bf497590" y="213.912043"/>
     <use style="fill:#0000ff;stroke:#0000ff;" x="38.824318" xlink:href="#me8bf497590" y="202.960667"/>
     <use style="fill:#0000ff;stroke:#0000ff;" x="41.867955" xlink:href="#me8bf497590" y="196.335948"/>
     <use style="fill:#0000ff;stroke:#0000ff;" x="44.911591" xlink:href="#me8bf497590" y="199.58102"/>
     <use style="fill:#0000ff;stroke:#0000ff;" x="47.955227" xlink:href="#me8bf497590" y="194.483563"/>
     <use style="fill:#0000ff;stroke:#0000ff;" x="50.998864" xlink:href="#me8bf497590" y="203.173495"/>
     <use style="fill:#0000ff;stroke:#0000ff;" x="54.0425" xlink:href="#me8bf497590" y="203.741849"/>
     <use style="fill:#0000ff;stroke:#0000ff;" x="57.086136" xlink:href="#me8bf497590" y="208.019598"/>
     <use style="fill:#0000ff;stroke:#0000ff;" x="60.129773" xlink:href="#me8bf497590" y="205.449417"/>
     <use style="fill:#0000ff;stroke:#0000ff;" x="63.173409" xlink:href="#me8bf497590" y="197.834819"/>
     <use style="fill:#0000ff;stroke:#0000ff;" x="66.217045" xlink:href="#me8bf497590" y="202.358625"/>
     <use style="fill:#0000ff;stroke:#0000ff;" x="69.260682" xlink:href="#me8bf497590" y="194.956114"/>
     <use style="fill:#0000ff;stroke:#0000ff;" x="72.304318" xlink:href="#me8bf497590" y="196.562406"/>
     <use style="fill:#0000ff;stroke:#0000ff;" x="75.347955" xlink:href="#me8bf497590" y="195.218203"/>
     <use style="fill:#0000ff;stroke:#0000ff;" x="78.391591" xlink:href="#me8bf497590" y="190.56699"/>
     <use style="fill:#0000ff;stroke:#0000ff;" x="81.435227" xlink:href="#me8bf497590" y="205.597765"/>
     <use style="fill:#0000ff;stroke:#0000ff;" x="84.478864" xlink:href="#me8bf497590" y="200.93338"/>
     <use style="fill:#0000ff;stroke:#0000ff;" x="87.5225" xlink:href="#me8bf497590" y="204.038509"/>
     <use style="fill:#0000ff;stroke:#0000ff;" x="90.566136" xlink:href="#me8bf497590" y="201.295756"/>
     <use style="fill:#0000ff;stroke:#0000ff;" x="93.609773" xlink:href="#me8bf497590" y="214.756364"/>
     <use style="fill:#0000ff;stroke:#0000ff;" x="96.653409" xlink:href="#me8bf497590" y="203.563239"/>
     <use style="fill:#0000ff;stroke:#0000ff;" x="99.697045" xlink:href="#me8bf497590" y="195.880311"/>
     <use style="fill:#0000ff;stroke:#0000ff;" x="102.740682" xlink:href="#me8bf497590" y="198.964676"/>
     <use style="fill:#0000ff;stroke:#0000ff;" x="105.784318" xlink:href="#me8bf497590" y="202.492"/>
     <use style="fill:#0000ff;stroke:#0000ff;" x="108.827955" xlink:href="#me8bf497590" y="207.138341"/>
     <use style="fill:#0000ff;stroke:#0000ff;" x="111.871591" xlink:href="#me8bf497590" y="206.181056"/>
     <use style="fill:#0000ff;stroke:#0000ff;" x="114.915227" xlink:href="#me8bf497590" y="205.774327"/>
     <use style="fill:#0000ff;stroke:#0000ff;" x="117.958864" xlink:href="#me8bf497590" y="196.806345"/>
     <use style="fill:#0000ff;stroke:#0000ff;" x="121.0025" xlink:href="#me8bf497590" y="197.188284"/>
     <use style="fill:#0000ff;stroke:#0000ff;" x="124.046136" xlink:href="#me8bf497590" y="200.735207"/>
     <use style="fill:#0000ff;stroke:#0000ff;" x="127.089773" xlink:href="#me8bf497590" y="200.433215"/>
     <use style="fill:#0000ff;stroke:#0000ff;" x="130.133409" xlink:href="#me8bf497590" y="187.817422"/>
     <use style="fill:#0000ff;stroke:#0000ff;" x="133.177045" xlink:href="#me8bf497590" y="202.460466"/>
     <use style="fill:#0000ff;stroke:#0000ff;" x="136.220682" xlink:href="#me8bf497590" y="194.660796"/>
     <use style="fill:#0000ff;stroke:#0000ff;" x="139.264318" xlink:href="#me8bf497590" y="202.901519"/>
     <use style="fill:#0000ff;stroke:#0000ff;" x="142.307955" xlink:href="#me8bf497590" y="207.413778"/>
     <use style="fill:#0000ff;stroke:#0000ff;" x="145.351591" xlink:href="#me8bf497590" y="197.393838"/>
     <use style="fill:#0000ff;stroke:#0000ff;" x="148.395227" xlink:href="#me8bf497590" y="201.650646"/>
     <use style="fill:#0000ff;stroke:#0000ff;" x="151.438864" xlink:href="#me8bf497590" y="192.939491"/>
     <use style="fill:#0000ff;stroke:#0000ff;" x="154.4825" xlink:href="#me8bf497590" y="198.281486"/>
     <use style="fill:#0000ff;stroke:#0000ff;" x="157.526136" xlink:href="#me8bf497590" y="182.189149"/>
     <use style="fill:#0000ff;stroke:#0000ff;" x="160.569773" xlink:href="#me8bf497590" y="186.170273"/>
     <use style="fill:#0000ff;stroke:#0000ff;" x="163.613409" xlink:href="#me8bf497590" y="171.293072"/>
     <use style="fill:#0000ff;stroke:#0000ff;" x="166.657045" xlink:href="#me8bf497590" y="172.473708"/>
     <use style="fill:#0000ff;stroke:#0000ff;" x="169.700682" xlink:href="#me8bf497590" y="157.170533"/>
     <use style="fill:#0000ff;stroke:#0000ff;" x="172.744318" xlink:href="#me8bf497590" y="164.537555"/>
     <use style="fill:#0000ff;stroke:#0000ff;" x="175.787955" xlink:href="#me8bf497590" y="149.044293"/>
     <use style="fill:#0000ff;stroke:#0000ff;" x="178.831591" xlink:href="#me8bf497590" y="140.543601"/>
     <use style="fill:#0000ff;stroke:#0000ff;" x="181.875227" xlink:href="#me8bf497590" y="120.266457"/>
     <use style="fill:#0000ff;stroke:#0000ff;" x="184.918864" xlink:href="#me8bf497590" y="107.205268"/>
     <use style="fill:#0000ff;stroke:#0000ff;" x="187.9625" xlink:href="#me8bf497590" y="85.436986"/>
     <use style="fill:#0000ff;stroke:#0000ff;" x="191.006136" xlink:href="#me8bf497590" y="72.884791"/>
     <use style="fill:#0000ff;stroke:#0000ff;" x="194.049773" xlink:href="#me8bf497590" y="68.178632"/>
     <use style="fill:#0000ff;stroke:#0000ff;" x="197.093409" xlink:href="#me8bf497590" y="41.270235"/>
     <use style="fill:#0000ff;stroke:#0000ff;" x="200.137045" xlink:href="#me8bf497590" y="33.435111"/>
     <use style="fill:#0000ff;stroke:#0000ff;" x="203.180682" xlink:href="#me8bf497590" y="22.13167"/>
     <use style="fill:#0000ff;stroke:#0000ff;" x="206.224318" xlink:href="#me8bf497590" y="27.809204"/>
     <use style="fill:#0000ff;stroke:#0000ff;" x="209.267955" xlink:href="#me8bf497590" y="26.966155"/>
     <use style="fill:#0000ff;stroke:#0000ff;" x="212.311591" xlink:href="#me8bf497590" y="31.696609"/>
     <use style="fill:#0000ff;stroke:#0000ff;" x="215.355227" xlink:href="#me8bf497590" y="35.81976"/>
     <use style="fill:#0000ff;stroke:#0000ff;" x="218.398864" xlink:href="#me8bf497590" y="33.100879"/>
     <use style="fill:#0000ff;stroke:#0000ff;" x="221.4425" xlink:href="#me8bf497590" y="59.394662"/>
     <use style="fill:#0000ff;stroke:#0000ff;" x="224.486136" xlink:href="#me8bf497590" y="62.483936"/>
     <use style="fill:#0000ff;stroke:#0000ff;" x="227.529773" xlink:href="#me8bf497590" y="93.417173"/>
     <use style="fill:#0000ff;stroke:#0000ff;" x="230.573409" xlink:href="#me8bf497590" y="102.808481"/>
     <use style="fill:#0000ff;stroke:#0000ff;" x="233.617045" xlink:href="#me8bf497590" y="110.965231"/>
     <use style="fill:#0000ff;stroke:#0000ff;" x="236.660682" xlink:href="#me8bf497590" y="127.35158"/>
     <use style="fill:#0000ff;stroke:#0000ff;" x="239.704318" xlink:href="#me8bf497590" y="143.690363"/>
     <use style="fill:#0000ff;stroke:#0000ff;" x="242.747955" xlink:href="#me8bf497590" y="156.60903"/>
     <use style="fill:#0000ff;stroke:#0000ff;" x="245.791591" xlink:href="#me8bf497590" y="175.254316"/>
     <use style="fill:#0000ff;stroke:#0000ff;" x="248.835227" xlink:href="#me8bf497590" y="182.447671"/>
     <use style="fill:#0000ff;stroke:#0000ff;" x="251.878864" xlink:href="#me8bf497590" y="185.667"/>
     <use style="fill:#0000ff;stroke:#0000ff;" x="254.9225" xlink:href="#me8bf497590" y="187.348826"/>
     <use style="fill:#0000ff;stroke:#0000ff;" x="257.966136" xlink:href="#me8bf497590" y="187.529343"/>
     <use style="fill:#0000ff;stroke:#0000ff;" x="261.009773" xlink:href="#me8bf497590" y="189.237724"/>
     <use style="fill:#0000ff;stroke:#0000ff;" x="264.053409" xlink:href="#me8bf497590" y="204.33192"/>
     <use style="fill:#0000ff;stroke:#0000ff;" x="267.097045" xlink:href="#me8bf497590" y="201.618265"/>
     <use style="fill:#0000ff;stroke:#0000ff;" x="270.140682" xlink:href="#me8bf497590" y="207.239829"/>
     <use style="fill:#0000ff;stroke:#0000ff;" x="273.184318" xlink:href="#me8bf497590" y="200.962548"/>
     <use style="fill:#0000ff;stroke:#0000ff;" x="276.227955" xlink:href="#me8bf497590" y="196.650935"/>
     <use style="fill:#0000ff;stroke:#0000ff;" x="279.271591" xlink:href="#me8bf497590" y="207.625652"/>
     <use style="fill:#0000ff;stroke:#0000ff;" x="282.315227" xlink:href="#me8bf497590" y="190.121771"/>
     <use style="fill:#0000ff;stroke:#0000ff;" x="285.358864" xlink:href="#me8bf497590" y="196.270761"/>
     <use style="fill:#0000ff;stroke:#0000ff;" x="288.4025" xlink:href="#me8bf497590" y="192.485515"/>
     <use style="fill:#0000ff;stroke:#0000ff;" x="291.446136" xlink:href="#me8bf497590" y="201.542343"/>
     <use style="fill:#0000ff;stroke:#0000ff;" x="294.489773" xlink:href="#me8bf497590" y="199.231285"/>
     <use style="fill:#0000ff;stroke:#0000ff;" x="297.533409" xlink:href="#me8bf497590" y="193.841865"/>
     <use style="fill:#0000ff;stroke:#0000ff;" x="300.577045" xlink:href="#me8bf497590" y="196.399969"/>
     <use style="fill:#0000ff;stroke:#0000ff;" x="303.620682" xlink:href="#me8bf497590" y="188.126794"/>
     <use style="fill:#0000ff;stroke:#0000ff;" x="306.664318" xlink:href="#me8bf497590" y="194.19499"/>
     <use style="fill:#0000ff;stroke:#0000ff;" x="309.707955" xlink:href="#me8bf497590" y="196.018701"/>
     <use style="fill:#0000ff;stroke:#0000ff;" x="312.751591" xlink:href="#me8bf497590" y="198.463275"/>
     <use style="fill:#0000ff;stroke:#0000ff;" x="315.795227" xlink:href="#me8bf497590" y="192.381519"/>
     <use style="fill:#0000ff;stroke:#0000ff;" x="318.838864" xlink:href="#me8bf497590" y="198.576133"/>
     <use style="fill:#0000ff;stroke:#0000ff;" x="321.8825" xlink:href="#me8bf497590" y="193.629744"/>
     <use style="fill:#0000ff;stroke:#0000ff;" x="324.926136" xlink:href="#me8bf497590" y="196.446476"/>
     <use style="fill:#0000ff;stroke:#0000ff;" x="327.969773" xlink:href="#me8bf497590" y="194.528198"/>
     <use style="fill:#0000ff;stroke:#0000ff;" x="331.013409" xlink:href="#me8bf497590" y="188.58741"/>
     <use style="fill:#0000ff;stroke:#0000ff;" x="334.057045" xlink:href="#me8bf497590" y="200.28575"/>
     <use style="fill:#0000ff;stroke:#0000ff;" x="337.100682" xlink:href="#me8bf497590" y="191.387368"/>
     <use style="fill:#0000ff;stroke:#0000ff;" x="340.144318" xlink:href="#me8bf497590" y="205.504293"/>
    </g>
   </g>
   <g id="line2d_14">
    <path clip-path="url(#p2b9a3a2b4f)" d="M 35.780682 203.134566 
L 38.824318 203.134397 
L 41.867955 203.134129 
L 44.911591 203.133703 
L 47.955227 203.133038 
L 50.998864 203.132006 
L 54.0425 203.130424 
L 57.086136 203.128024 
L 60.129773 203.124421 
L 63.173409 203.119068 
L 66.217045 203.111199 
L 69.260682 203.099753 
L 72.304318 203.083281 
L 75.347955 203.059828 
L 78.391591 203.026789 
L 81.435227 202.980745 
L 84.478864 202.917265 
L 87.5225 202.830688 
L 90.566136 202.713888 
L 93.609773 202.558031 
L 96.653409 202.352331 
L 99.697045 202.083836 
L 102.740682 201.737259 
L 105.784318 201.294885 
L 108.827955 200.736589 
L 111.871591 200.039993 
L 114.915227 199.180801 
L 117.958864 198.133344 
L 121.0025 196.871356 
L 124.046136 195.368988 
L 127.089773 193.602065 
L 130.133409 191.549556 
L 133.177045 189.195215 
L 136.220682 186.529317 
L 139.264318 183.550402 
L 142.307955 180.266917 
L 145.351591 176.698618 
L 148.395227 172.877613 
L 151.438864 168.848912 
L 154.4825 164.67037 
L 157.526136 160.411946 
L 160.569773 156.154232 
L 163.613409 151.986252 
L 166.657045 148.002588 
L 169.700682 144.299961 
L 172.744318 140.973401 
L 175.787955 138.112244 
L 178.831591 135.796158 
L 181.875227 134.091472 
L 184.918864 133.048015 
L 187.9625 132.696703 
L 191.006136 133.048015 
L 194.049773 134.091472 
L 197.093409 135.796158 
L 200.137045 138.112244 
L 203.180682 140.973401 
L 206.224318 144.299961 
L 209.267955 148.002588 
L 212.311591 151.986252 
L 215.355227 156.154232 
L 218.398864 160.411946 
L 221.4425 164.67037 
L 224.486136 168.848912 
L 227.529773 172.877613 
L 230.573409 176.698618 
L 233.617045 180.266917 
L 236.660682 183.550402 
L 239.704318 186.529317 
L 242.747955 189.195215 
L 245.791591 191.549556 
L 248.835227 193.602065 
L 251.878864 195.368988 
L 254.9225 196.871356 
L 257.966136 198.133344 
L 261.009773 199.180801 
L 264.053409 200.039993 
L 267.097045 200.736589 
L 270.140682 201.294885 
L 273.184318 201.737259 
L 276.227955 202.083836 
L 279.271591 202.352331 
L 282.315227 202.558031 
L 285.358864 202.713888 
L 288.4025 202.830688 
L 291.446136 202.917265 
L 294.489773 202.980745 
L 297.533409 203.026789 
L 300.577045 203.059828 
L 303.620682 203.083281 
L 306.664318 203.099753 
L 309.707955 203.111199 
L 312.751591 203.119068 
L 315.795227 203.124421 
L 318.838864 203.128024 
L 321.8825 203.130424 
L 324.926136 203.132006 
L 327.969773 203.133038 
L 331.013409 203.133703 
L 334.057045 203.134129 
L 337.100682 203.134397 
L 340.144318 203.134566 
" style="fill:none;stroke:#000000;stroke-dasharray:5.55,2.4;stroke-dashoffset:0;stroke-width:1.5;"/>
   </g>
   <g id="line2d_15">
    <path clip-path="url(#p2b9a3a2b4f)" d="M 35.780682 203.134828 
L 38.824318 203.134828 
L 41.867955 203.134828 
L 44.911591 203.134828 
L 47.955227 203.134828 
L 50.998864 203.134828 
L 54.0425 203.134828 
L 57.086136 203.134828 
L 60.129773 203.134828 
L 63.173409 203.134828 
L 66.217045 203.134828 
L 69.260682 203.134828 
L 72.304318 203.134828 
L 75.347955 203.134827 
L 78.391591 203.134827 
L 81.435227 203.134825 
L 84.478864 203.13482 
L 87.5225 203.13481 
L 90.566136 203.134787 
L 93.609773 203.134739 
L 96.653409 203.134637 
L 99.697045 203.134427 
L 102.740682 203.134003 
L 105.784318 203.133165 
L 108.827955 203.131546 
L 111.871591 203.128484 
L 114.915227 203.122812 
L 117.958864 203.112532 
L 121.0025 203.094298 
L 124.046136 203.062653 
L 127.089773 203.008914 
L 130.133409 202.919629 
L 133.177045 202.774511 
L 136.220682 202.543803 
L 139.264318 202.185089 
L 142.307955 201.639695 
L 145.351591 200.828971 
L 148.395227 199.650958 
L 151.438864 197.978164 
L 154.4825 195.65739 
L 157.526136 192.51264 
L 160.569773 188.352178 
L 163.613409 182.980526 
L 166.657045 176.215738 
L 169.700682 167.911519 
L 172.744318 157.982818 
L 175.787955 146.432462 
L 178.831591 133.375477 
L 181.875227 119.057126 
L 184.918864 103.860629 
L 187.9625 88.301194 
L 191.006136 73.004364 
L 194.049773 58.668709 
L 197.093409 46.015291 
L 200.137045 35.72863 
L 203.180682 28.395754 
L 206.224318 24.450821 
L 209.267955 24.132577 
L 212.311591 27.460437 
L 215.355227 34.232522 
L 218.398864 44.045936 
L 221.4425 56.336438 
L 224.486136 70.43209 
L 227.529773 85.613787 
L 230.573409 101.175131 
L 233.617045 116.474846 
L 236.660682 130.976608 
L 239.704318 144.273483 
L 242.747955 156.096518 
L 245.791591 166.30918 
L 248.835227 174.890826 
L 251.878864 181.913174 
L 254.9225 187.513808 
L 257.966136 191.870204 
L 261.009773 195.176879 
L 264.053409 197.627223 
L 267.097045 199.400594 
L 270.140682 200.654452 
L 273.184318 201.520802 
L 276.227955 202.10591 
L 279.271591 202.492247 
L 282.315227 202.741683 
L 285.358864 202.899185 
L 288.4025 202.996461 
L 291.446136 203.055232 
L 294.489773 203.089972 
L 297.533409 203.110063 
L 300.577045 203.121434 
L 303.620682 203.127731 
L 306.664318 203.131144 
L 309.707955 203.132955 
L 312.751591 203.133895 
L 315.795227 203.134373 
L 318.838864 203.13461 
L 321.8825 203.134726 
L 324.926136 203.134781 
L 327.969773 203.134807 
L 331.013409 203.134819 
L 334.057045 203.134824 
L 337.100682 203.134826 
L 340.144318 203.134827 
" style="fill:none;stroke:#ff0000;stroke-linecap:square;stroke-width:1.5;"/>
   </g>
   <g id="patch_3">
    <path d="M 20.5625 224.64 
L 20.5625 7.2 
" style="fill:none;stroke:#000000;stroke-linecap:square;stroke-linejoin:miter;stroke-width:0.8;"/>
   </g>
   <g id="patch_4">
    <path d="M 355.3625 224.64 
L 355.3625 7.2 
" style="fill:none;stroke:#000000;stroke-linecap:square;stroke-linejoin:miter;stroke-width:0.8;"/>
   </g>
   <g id="patch_5">
    <path d="M 20.5625 224.64 
L 355.3625 224.64 
" style="fill:none;stroke:#000000;stroke-linecap:square;stroke-linejoin:miter;stroke-width:0.8;"/>
   </g>
   <g id="patch_6">
    <path d="M 20.5625 7.2 
L 355.3625 7.2 
" style="fill:none;stroke:#000000;stroke-linecap:square;stroke-linejoin:miter;stroke-width:0.8;"/>
   </g>
   <g id="legend_1">
    <g id="patch_7">
     <path d="M 27.5625 59.25625 
L 164.8625 59.25625 
Q 166.8625 59.25625 166.8625 57.25625 
L 166.8625 14.2 
Q 166.8625 12.2 164.8625 12.2 
L 27.5625 12.2 
Q 25.5625 12.2 25.5625 14.2 
L 25.5625 57.25625 
Q 25.5625 59.25625 27.5625 59.25625 
z
" style="fill:#ffffff;opacity:0.8;stroke:#cccccc;stroke-linejoin:miter;"/>
    </g>
    <g id="line2d_16">
     <path d="M 29.5625 20.298437 
L 49.5625 20.298437 
" style="fill:none;stroke:#000000;stroke-dasharray:5.55,2.4;stroke-dashoffset:0;stroke-width:1.5;"/>
    </g>
    <g id="line2d_17"/>
    <g id="text_13">
     <!-- initial fit -->
     <g transform="translate(57.5625 23.798437)scale(0.1 -0.1)">
      <defs>
       <path d="M 9.421875 54.6875 
L 18.40625 54.6875 
L 18.40625 0 
L 9.421875 0 
z
M 9.421875 75.984375 
L 18.40625 75.984375 
L 18.40625 64.59375 
L 9.421875 64.59375 
z
" id="DejaVuSans-105"/>
       <path d="M 54.890625 33.015625 
L 54.890625 0 
L 45.90625 0 
L 45.90625 32.71875 
Q 45.90625 40.484375 42.875 44.328125 
Q 39.84375 48.1875 33.796875 48.1875 
Q 26.515625 48.1875 22.3125 43.546875 
Q 18.109375 38.921875 18.109375 30.90625 
L 18.109375 0 
L 9.078125 0 
L 9.078125 54.6875 
L 18.109375 54.6875 
L 18.109375 46.1875 
Q 21.34375 51.125 25.703125 53.5625 
Q 30.078125 56 35.796875 56 
Q 45.21875 56 50.046875 50.171875 
Q 54.890625 44.34375 54.890625 33.015625 
z
" id="DejaVuSans-110"/>
       <path d="M 18.3125 70.21875 
L 18.3125 54.6875 
L 36.8125 54.6875 
L 36.8125 47.703125 
L 18.3125 47.703125 
L 18.3125 18.015625 
Q 18.3125 11.328125 20.140625 9.421875 
Q 21.96875 7.515625 27.59375 7.515625 
L 36.8125 7.515625 
L 36.8125 0 
L 27.59375 0 
Q 17.1875 0 13.234375 3.875 
Q 9.28125 7.765625 9.28125 18.015625 
L 9.28125 47.703125 
L 2.6875 47.703125 
L 2.6875 54.6875 
L 9.28125 54.6875 
L 9.28125 70.21875 
z
" id="DejaVuSans-116"/>
       <path d="M 34.28125 27.484375 
Q 23.390625 27.484375 19.1875 25 
Q 14.984375 22.515625 14.984375 16.5 
Q 14.984375 11.71875 18.140625 8.90625 
Q 21.296875 6.109375 26.703125 6.109375 
Q 34.1875 6.109375 38.703125 11.40625 
Q 43.21875 16.703125 43.21875 25.484375 
L 43.21875 27.484375 
z
M 52.203125 31.203125 
L 52.203125 0 
L 43.21875 0 
L 43.21875 8.296875 
Q 40.140625 3.328125 35.546875 0.953125 
Q 30.953125 -1.421875 24.3125 -1.421875 
Q 15.921875 -1.421875 10.953125 3.296875 
Q 6 8.015625 6 15.921875 
Q 6 25.140625 12.171875 29.828125 
Q 18.359375 34.515625 30.609375 34.515625 
L 43.21875 34.515625 
L 43.21875 35.40625 
Q 43.21875 41.609375 39.140625 45 
Q 35.0625 48.390625 27.6875 48.390625 
Q 23 48.390625 18.546875 47.265625 
Q 14.109375 46.140625 10.015625 43.890625 
L 10.015625 52.203125 
Q 14.9375 54.109375 19.578125 55.046875 
Q 24.21875 56 28.609375 56 
Q 40.484375 56 46.34375 49.84375 
Q 52.203125 43.703125 52.203125 31.203125 
z
" id="DejaVuSans-97"/>
       <path d="M 9.421875 75.984375 
L 18.40625 75.984375 
L 18.40625 0 
L 9.421875 0 
z
" id="DejaVuSans-108"/>
       <path id="DejaVuSans-32"/>
       <path d="M 37.109375 75.984375 
L 37.109375 68.5 
L 28.515625 68.5 
Q 23.6875 68.5 21.796875 66.546875 
Q 19.921875 64.59375 19.921875 59.515625 
L 19.921875 54.6875 
L 34.71875 54.6875 
L 34.71875 47.703125 
L 19.921875 47.703125 
L 19.921875 0 
L 10.890625 0 
L 10.890625 47.703125 
L 2.296875 47.703125 
L 2.296875 54.6875 
L 10.890625 54.6875 
L 10.890625 58.5 
Q 10.890625 67.625 15.140625 71.796875 
Q 19.390625 75.984375 28.609375 75.984375 
z
" id="DejaVuSans-102"/>
      </defs>
      <use xlink:href="#DejaVuSans-105"/>
      <use x="27.783203" xlink:href="#DejaVuSans-110"/>
      <use x="91.162109" xlink:href="#DejaVuSans-105"/>
      <use x="118.945312" xlink:href="#DejaVuSans-116"/>
      <use x="158.154297" xlink:href="#DejaVuSans-105"/>
      <use x="185.9375" xlink:href="#DejaVuSans-97"/>
      <use x="247.216797" xlink:href="#DejaVuSans-108"/>
      <use x="275" xlink:href="#DejaVuSans-32"/>
      <use x="306.787109" xlink:href="#DejaVuSans-102"/>
      <use x="341.992188" xlink:href="#DejaVuSans-105"/>
      <use x="369.775391" xlink:href="#DejaVuSans-116"/>
     </g>
    </g>
    <g id="line2d_18">
     <path d="M 29.5625 34.976562 
L 49.5625 34.976562 
" style="fill:none;stroke:#ff0000;stroke-linecap:square;stroke-width:1.5;"/>
    </g>
    <g id="line2d_19"/>
    <g id="text_14">
     <!-- best fit -->
     <g transform="translate(57.5625 38.476562)scale(0.1 -0.1)">
      <defs>
       <path d="M 48.6875 27.296875 
Q 48.6875 37.203125 44.609375 42.84375 
Q 40.53125 48.484375 33.40625 48.484375 
Q 26.265625 48.484375 22.1875 42.84375 
Q 18.109375 37.203125 18.109375 27.296875 
Q 18.109375 17.390625 22.1875 11.75 
Q 26.265625 6.109375 33.40625 6.109375 
Q 40.53125 6.109375 44.609375 11.75 
Q 48.6875 17.390625 48.6875 27.296875 
z
M 18.109375 46.390625 
Q 20.953125 51.265625 25.265625 53.625 
Q 29.59375 56 35.59375 56 
Q 45.5625 56 51.78125 48.09375 
Q 58.015625 40.1875 58.015625 27.296875 
Q 58.015625 14.40625 51.78125 6.484375 
Q 45.5625 -1.421875 35.59375 -1.421875 
Q 29.59375 -1.421875 25.265625 0.953125 
Q 20.953125 3.328125 18.109375 8.203125 
L 18.109375 0 
L 9.078125 0 
L 9.078125 75.984375 
L 18.109375 75.984375 
z
" id="DejaVuSans-98"/>
       <path d="M 56.203125 29.59375 
L 56.203125 25.203125 
L 14.890625 25.203125 
Q 15.484375 15.921875 20.484375 11.0625 
Q 25.484375 6.203125 34.421875 6.203125 
Q 39.59375 6.203125 44.453125 7.46875 
Q 49.3125 8.734375 54.109375 11.28125 
L 54.109375 2.78125 
Q 49.265625 0.734375 44.1875 -0.34375 
Q 39.109375 -1.421875 33.890625 -1.421875 
Q 20.796875 -1.421875 13.15625 6.1875 
Q 5.515625 13.8125 5.515625 26.8125 
Q 5.515625 40.234375 12.765625 48.109375 
Q 20.015625 56 32.328125 56 
Q 43.359375 56 49.78125 48.890625 
Q 56.203125 41.796875 56.203125 29.59375 
z
M 47.21875 32.234375 
Q 47.125 39.59375 43.09375 43.984375 
Q 39.0625 48.390625 32.421875 48.390625 
Q 24.90625 48.390625 20.390625 44.140625 
Q 15.875 39.890625 15.1875 32.171875 
z
" id="DejaVuSans-101"/>
       <path d="M 44.28125 53.078125 
L 44.28125 44.578125 
Q 40.484375 46.53125 36.375 47.5 
Q 32.28125 48.484375 27.875 48.484375 
Q 21.1875 48.484375 17.84375 46.4375 
Q 14.5 44.390625 14.5 40.28125 
Q 14.5 37.15625 16.890625 35.375 
Q 19.28125 33.59375 26.515625 31.984375 
L 29.59375 31.296875 
Q 39.15625 29.25 43.1875 25.515625 
Q 47.21875 21.78125 47.21875 15.09375 
Q 47.21875 7.46875 41.1875 3.015625 
Q 35.15625 -1.421875 24.609375 -1.421875 
Q 20.21875 -1.421875 15.453125 -0.5625 
Q 10.6875 0.296875 5.421875 2 
L 5.421875 11.28125 
Q 10.40625 8.6875 15.234375 7.390625 
Q 20.0625 6.109375 24.8125 6.109375 
Q 31.15625 6.109375 34.5625 8.28125 
Q 37.984375 10.453125 37.984375 14.40625 
Q 37.984375 18.0625 35.515625 20.015625 
Q 33.0625 21.96875 24.703125 23.78125 
L 21.578125 24.515625 
Q 13.234375 26.265625 9.515625 29.90625 
Q 5.8125 33.546875 5.8125 39.890625 
Q 5.8125 47.609375 11.28125 51.796875 
Q 16.75 56 26.8125 56 
Q 31.78125 56 36.171875 55.265625 
Q 40.578125 54.546875 44.28125 53.078125 
z
" id="DejaVuSans-115"/>
      </defs>
      <use xlink:href="#DejaVuSans-98"/>
      <use x="63.476562" xlink:href="#DejaVuSans-101"/>
      <use x="125" xlink:href="#DejaVuSans-115"/>
      <use x="177.099609" xlink:href="#DejaVuSans-116"/>
      <use x="216.308594" xlink:href="#DejaVuSans-32"/>
      <use x="248.095703" xlink:href="#DejaVuSans-102"/>
      <use x="283.300781" xlink:href="#DejaVuSans-105"/>
      <use x="311.083984" xlink:href="#DejaVuSans-116"/>
     </g>
    </g>
    <g id="patch_8">
     <path d="M 29.5625 53.15625 
L 49.5625 53.15625 
L 49.5625 46.15625 
L 29.5625 46.15625 
z
" style="fill:#ababab;stroke:#ababab;stroke-linejoin:miter;"/>
    </g>
    <g id="text_15">
     <!-- 3-$\sigma$ uncertainty band -->
     <g transform="translate(57.5625 53.15625)scale(0.1 -0.1)">
      <defs>
       <path d="M 4.890625 31.390625 
L 31.203125 31.390625 
L 31.203125 23.390625 
L 4.890625 23.390625 
z
" id="DejaVuSans-45"/>
       <path d="M 34.671875 47.5625 
Q 27.25 47.5625 22.21875 42.1875 
Q 16.890625 36.578125 15.140625 27.296875 
Q 13.1875 17.484375 16.3125 11.8125 
Q 19.390625 6.203125 26.65625 6.203125 
Q 33.84375 6.203125 39.109375 11.859375 
Q 44.4375 17.53125 46.34375 27.296875 
Q 48.046875 36.234375 45.015625 42.1875 
Q 42.1875 47.5625 34.671875 47.5625 
z
M 36.078125 54.734375 
L 65.921875 54.6875 
L 64.15625 45.703125 
L 54.109375 45.703125 
Q 57.90625 38.09375 55.859375 27.296875 
Q 53.21875 13.875 45.0625 6.25 
Q 36.859375 -1.421875 25.140625 -1.421875 
Q 13.375 -1.421875 8.203125 6.25 
Q 3.03125 13.875 5.671875 27.296875 
Q 8.25 40.765625 16.40625 48.390625 
Q 23.1875 54.734375 36.078125 54.734375 
z
" id="DejaVuSans-Oblique-963"/>
       <path d="M 8.5 21.578125 
L 8.5 54.6875 
L 17.484375 54.6875 
L 17.484375 21.921875 
Q 17.484375 14.15625 20.5 10.265625 
Q 23.53125 6.390625 29.59375 6.390625 
Q 36.859375 6.390625 41.078125 11.03125 
Q 45.3125 15.671875 45.3125 23.6875 
L 45.3125 54.6875 
L 54.296875 54.6875 
L 54.296875 0 
L 45.3125 0 
L 45.3125 8.40625 
Q 42.046875 3.421875 37.71875 1 
Q 33.40625 -1.421875 27.6875 -1.421875 
Q 18.265625 -1.421875 13.375 4.4375 
Q 8.5 10.296875 8.5 21.578125 
z
M 31.109375 56 
z
" id="DejaVuSans-117"/>
       <path d="M 48.78125 52.59375 
L 48.78125 44.1875 
Q 44.96875 46.296875 41.140625 47.34375 
Q 37.3125 48.390625 33.40625 48.390625 
Q 24.65625 48.390625 19.8125 42.84375 
Q 14.984375 37.3125 14.984375 27.296875 
Q 14.984375 17.28125 19.8125 11.734375 
Q 24.65625 6.203125 33.40625 6.203125 
Q 37.3125 6.203125 41.140625 7.25 
Q 44.96875 8.296875 48.78125 10.40625 
L 48.78125 2.09375 
Q 45.015625 0.34375 40.984375 -0.53125 
Q 36.96875 -1.421875 32.421875 -1.421875 
Q 20.0625 -1.421875 12.78125 6.34375 
Q 5.515625 14.109375 5.515625 27.296875 
Q 5.515625 40.671875 12.859375 48.328125 
Q 20.21875 56 33.015625 56 
Q 37.15625 56 41.109375 55.140625 
Q 45.0625 54.296875 48.78125 52.59375 
z
" id="DejaVuSans-99"/>
       <path d="M 41.109375 46.296875 
Q 39.59375 47.171875 37.8125 47.578125 
Q 36.03125 48 33.890625 48 
Q 26.265625 48 22.1875 43.046875 
Q 18.109375 38.09375 18.109375 28.8125 
L 18.109375 0 
L 9.078125 0 
L 9.078125 54.6875 
L 18.109375 54.6875 
L 18.109375 46.1875 
Q 20.953125 51.171875 25.484375 53.578125 
Q 30.03125 56 36.53125 56 
Q 37.453125 56 38.578125 55.875 
Q 39.703125 55.765625 41.0625 55.515625 
z
" id="DejaVuSans-114"/>
       <path d="M 32.171875 -5.078125 
Q 28.375 -14.84375 24.75 -17.8125 
Q 21.140625 -20.796875 15.09375 -20.796875 
L 7.90625 -20.796875 
L 7.90625 -13.28125 
L 13.1875 -13.28125 
Q 16.890625 -13.28125 18.9375 -11.515625 
Q 21 -9.765625 23.484375 -3.21875 
L 25.09375 0.875 
L 2.984375 54.6875 
L 12.5 54.6875 
L 29.59375 11.921875 
L 46.6875 54.6875 
L 56.203125 54.6875 
z
" id="DejaVuSans-121"/>
       <path d="M 45.40625 46.390625 
L 45.40625 75.984375 
L 54.390625 75.984375 
L 54.390625 0 
L 45.40625 0 
L 45.40625 8.203125 
Q 42.578125 3.328125 38.25 0.953125 
Q 33.9375 -1.421875 27.875 -1.421875 
Q 17.96875 -1.421875 11.734375 6.484375 
Q 5.515625 14.40625 5.515625 27.296875 
Q 5.515625 40.1875 11.734375 48.09375 
Q 17.96875 56 27.875 56 
Q 33.9375 56 38.25 53.625 
Q 42.578125 51.265625 45.40625 46.390625 
z
M 14.796875 27.296875 
Q 14.796875 17.390625 18.875 11.75 
Q 22.953125 6.109375 30.078125 6.109375 
Q 37.203125 6.109375 41.296875 11.75 
Q 45.40625 17.390625 45.40625 27.296875 
Q 45.40625 37.203125 41.296875 42.84375 
Q 37.203125 48.484375 30.078125 48.484375 
Q 22.953125 48.484375 18.875 42.84375 
Q 14.796875 37.203125 14.796875 27.296875 
z
" id="DejaVuSans-100"/>
      </defs>
      <use transform="translate(0 0.015625)" xlink:href="#DejaVuSans-51"/>
      <use transform="translate(63.623047 0.015625)" xlink:href="#DejaVuSans-45"/>
      <use transform="translate(99.707031 0.015625)" xlink:href="#DejaVuSans-Oblique-963"/>
      <use transform="translate(163.085938 0.015625)" xlink:href="#DejaVuSans-32"/>
      <use transform="translate(194.873047 0.015625)" xlink:href="#DejaVuSans-117"/>
      <use transform="translate(258.251953 0.015625)" xlink:href="#DejaVuSans-110"/>
      <use transform="translate(321.630859 0.015625)" xlink:href="#DejaVuSans-99"/>
      <use transform="translate(376.611328 0.015625)" xlink:href="#DejaVuSans-101"/>
      <use transform="translate(438.134766 0.015625)" xlink:href="#DejaVuSans-114"/>
      <use transform="translate(479.248047 0.015625)" xlink:href="#DejaVuSans-116"/>
      <use transform="translate(518.457031 0.015625)" xlink:href="#DejaVuSans-97"/>
      <use transform="translate(579.736328 0.015625)" xlink:href="#DejaVuSans-105"/>
      <use transform="translate(607.519531 0.015625)" xlink:href="#DejaVuSans-110"/>
      <use transform="translate(670.898438 0.015625)" xlink:href="#DejaVuSans-116"/>
      <use transform="translate(710.107422 0.015625)" xlink:href="#DejaVuSans-121"/>
      <use transform="translate(769.287109 0.015625)" xlink:href="#DejaVuSans-32"/>
      <use transform="translate(801.074219 0.015625)" xlink:href="#DejaVuSans-98"/>
      <use transform="translate(864.550781 0.015625)" xlink:href="#DejaVuSans-97"/>
      <use transform="translate(925.830078 0.015625)" xlink:href="#DejaVuSans-110"/>
      <use transform="translate(989.208984 0.015625)" xlink:href="#DejaVuSans-100"/>
     </g>
    </g>
   </g>
  </g>
 </g>
 <defs>
  <clipPath id="p2b9a3a2b4f">
   <rect height="217.44" width="334.8" x="20.5625" y="7.2"/>
  </clipPath>
 </defs>
</svg>
