<?xml version="1.0" encoding="utf-8" standalone="no"?>
<!DOCTYPE svg PUBLIC "-//W3C//DTD SVG 1.1//EN"
  "http://www.w3.org/Graphics/SVG/1.1/DTD/svg11.dtd">
<svg xmlns:xlink="http://www.w3.org/1999/xlink" width="384.8825pt" height="297.190125pt" viewBox="0 0 384.8825 297.190125" xmlns="http://www.w3.org/2000/svg" version="1.1">
 <metadata>
  <rdf:RDF xmlns:dc="http://purl.org/dc/elements/1.1/" xmlns:cc="http://creativecommons.org/ns#" xmlns:rdf="http://www.w3.org/1999/02/22-rdf-syntax-ns#">
   <cc:Work>
    <dc:type rdf:resource="http://purl.org/dc/dcmitype/StillImage"/>
    <dc:date>2024-04-04T21:27:50.000813</dc:date>
    <dc:format>image/svg+xml</dc:format>
    <dc:creator>
     <cc:Agent>
      <dc:title>Matplotlib v3.8.3, https://matplotlib.org/</dc:title>
     </cc:Agent>
    </dc:creator>
   </cc:Work>
  </rdf:RDF>
 </metadata>
 <defs>
  <style type="text/css">*{stroke-linejoin: round; stroke-linecap: butt}</style>
 </defs>
 <g id="figure_1">
  <g id="patch_1">
   <path d="M 0 297.190125 
L 384.8825 297.190125 
L 384.8825 0 
L 0 0 
z
" style="fill: #ffffff"/>
  </g>
  <g id="axes_1">
   <g id="patch_2">
    <path d="M 20.5625 273.312 
L 377.6825 273.312 
L 377.6825 7.2 
L 20.5625 7.2 
z
" style="fill: #ffffff"/>
   </g>
   <g id="PolyCollection_1">
    <defs>
     <path id="mcebc3b7d77" d="M 36.795227 -50.197043 
L 36.795227 -50.197043 
L 40.041773 -50.197043 
L 43.288318 -50.197043 
L 46.534864 -50.197043 
L 49.781409 -50.197043 
L 53.027955 -50.197043 
L 56.2745 -50.197043 
L 59.521045 -50.197043 
L 62.767591 -50.197043 
L 66.014136 -50.197043 
L 69.260682 -50.197043 
L 72.507227 -50.197042 
L 75.753773 -50.197042 
L 79.000318 -50.197042 
L 82.246864 -50.197041 
L 85.493409 -50.19704 
L 88.739955 -50.197037 
L 91.9865 -50.197032 
L 95.233045 -50.197023 
L 98.479591 -50.197008 
L 101.726136 -50.196984 
L 104.972682 -50.196952 
L 108.219227 -50.196923 
L 111.465773 -50.196931 
L 114.712318 -50.197071 
L 117.958864 -50.197563 
L 121.205409 -50.198882 
L 124.451955 -50.201989 
L 127.6985 -50.208726 
L 130.945045 -50.222477 
L 134.191591 -50.249201 
L 137.438136 -50.298999 
L 140.684682 -50.388375 
L 143.931227 -50.543351 
L 147.177773 -50.803519 
L 150.424318 -51.227023 
L 153.670864 -51.89621 
L 156.917409 -52.923432 
L 160.163955 -54.456088 
L 163.4105 -56.6796 
L 166.657045 -59.816699 
L 169.903591 -64.121188 
L 173.150136 -69.864523 
L 176.396682 -77.314054 
L 179.643227 -86.702768 
L 182.889773 -98.191839 
L 186.136318 -111.828951 
L 189.382864 -127.507179 
L 192.629409 -144.930761 
L 195.875955 -163.595551 
L 199.1225 -182.793591 
L 202.369045 -201.652893 
L 205.615591 -219.219688 
L 208.862136 -234.569834 
L 212.108682 -246.907073 
L 215.355227 -255.613901 
L 218.601773 -260.266407 
L 221.848318 -260.640699 
L 225.094864 -256.718819 
L 228.341409 -248.689354 
L 231.587955 -236.942062 
L 234.8345 -222.061466 
L 238.081045 -204.815099 
L 241.327591 -186.110843 
L 244.574136 -166.905568 
L 247.820682 -148.092465 
L 251.067227 -130.4119 
L 254.313773 -114.404494 
L 257.560318 -100.401257 
L 260.806864 -88.53968 
L 264.053409 -78.796027 
L 267.299955 -71.02575 
L 270.5465 -65.005455 
L 273.793045 -60.471353 
L 277.039591 -57.150901 
L 280.286136 -54.786052 
L 283.532682 -53.148069 
L 286.779227 -52.044881 
L 290.025773 -51.322636 
L 293.272318 -50.863232 
L 296.518864 -50.579533 
L 299.765409 -50.409618 
L 303.011955 -50.311063 
L 306.2585 -50.255811 
L 309.505045 -50.225959 
L 312.751591 -50.21048 
L 315.998136 -50.202826 
L 319.244682 -50.199255 
L 322.491227 -50.197714 
L 325.737773 -50.197122 
L 328.984318 -50.196942 
L 332.230864 -50.19692 
L 335.477409 -50.196947 
L 338.723955 -50.196979 
L 341.9705 -50.197004 
L 345.217045 -50.197021 
L 348.463591 -50.197031 
L 351.710136 -50.197037 
L 354.956682 -50.19704 
L 358.203227 -50.197041 
L 361.449773 -50.197042 
L 361.449773 -50.197045 
L 361.449773 -50.197045 
L 358.203227 -50.197048 
L 354.956682 -50.197055 
L 351.710136 -50.197071 
L 348.463591 -50.197106 
L 345.217045 -50.197179 
L 341.9705 -50.197331 
L 338.723955 -50.19764 
L 335.477409 -50.198254 
L 332.230864 -50.199449 
L 328.984318 -50.201729 
L 325.737773 -50.20598 
L 322.491227 -50.213743 
L 319.244682 -50.227615 
L 315.998136 -50.251876 
L 312.751591 -50.2934 
L 309.505045 -50.362951 
L 306.2585 -50.476954 
L 303.011955 -50.659803 
L 299.765409 -50.946763 
L 296.518864 -51.387391 
L 293.272318 -52.049322 
L 290.025773 -53.022079 
L 286.779227 -54.420385 
L 283.532682 -56.386248 
L 280.286136 -59.088917 
L 277.039591 -62.721737 
L 273.793045 -67.49498 
L 270.5465 -73.62396 
L 267.299955 -81.312246 
L 264.053409 -90.730454 
L 260.806864 -101.991952 
L 257.560318 -115.127737 
L 254.313773 -130.063541 
L 251.067227 -146.602668 
L 247.820682 -164.417815 
L 244.574136 -183.053557 
L 241.327591 -201.937512 
L 238.081045 -220.393229 
L 234.8345 -237.648541 
L 231.587955 -252.851189 
L 228.341409 -265.124016 
L 225.094864 -273.670463 
L 221.848318 -277.894125 
L 218.601773 -277.489457 
L 215.355227 -272.486021 
L 212.108682 -263.2443 
L 208.862136 -250.403063 
L 205.615591 -234.781663 
L 202.369045 -217.259327 
L 199.1225 -198.676846 
L 195.875955 -179.79033 
L 192.629409 -161.258918 
L 189.382864 -143.63572 
L 186.136318 -127.35459 
L 182.889773 -112.720092 
L 179.643227 -99.906848 
L 176.396682 -88.969464 
L 173.150136 -79.860932 
L 169.903591 -72.456162 
L 166.657045 -66.577155 
L 163.4105 -62.016899 
L 160.163955 -58.559889 
L 156.917409 -55.998073 
L 153.670864 -54.141888 
L 150.424318 -52.826678 
L 147.177773 -51.91523 
L 143.931227 -51.29738 
L 140.684682 -50.887654 
L 137.438136 -50.621828 
L 134.191591 -50.453083 
L 130.945045 -50.348269 
L 127.6985 -50.284563 
L 124.451955 -50.246671 
L 121.205409 -50.224615 
L 117.958864 -50.212051 
L 114.712318 -50.205046 
L 111.465773 -50.201224 
L 108.219227 -50.199183 
L 104.972682 -50.198116 
L 101.726136 -50.19757 
L 98.479591 -50.197296 
L 95.233045 -50.197162 
L 91.9865 -50.197098 
L 88.739955 -50.197068 
L 85.493409 -50.197054 
L 82.246864 -50.197047 
L 79.000318 -50.197045 
L 75.753773 -50.197043 
L 72.507227 -50.197043 
L 69.260682 -50.197043 
L 66.014136 -50.197043 
L 62.767591 -50.197043 
L 59.521045 -50.197043 
L 56.2745 -50.197043 
L 53.027955 -50.197043 
L 49.781409 -50.197043 
L 46.534864 -50.197043 
L 43.288318 -50.197043 
L 40.041773 -50.197043 
L 36.795227 -50.197043 
z
" style="stroke: #ababab"/>
    </defs>
    <g clip-path="url(#p39f8597a29)">
     <use xlink:href="#mcebc3b7d77" x="0" y="297.190125" style="fill: #ababab; stroke: #ababab"/>
    </g>
   </g>
   <g id="matplotlib.axis_1">
    <g id="xtick_1">
     <g id="line2d_1">
      <defs>
       <path id="m93a0dc92ba" d="M 0 0 
L 0 3.5 
" style="stroke: #000000; stroke-width: 0.8"/>
      </defs>
      <g>
       <use xlink:href="#m93a0dc92ba" x="36.795227" y="273.312" style="stroke: #000000; stroke-width: 0.8"/>
      </g>
     </g>
     <g id="text_1">
      <!-- 0 -->
      <g transform="translate(33.613977 287.910437) scale(0.1 -0.1)">
       <defs>
        <path id="DejaVuSans-30" d="M 2034 4250 
Q 1547 4250 1301 3770 
Q 1056 3291 1056 2328 
Q 1056 1369 1301 889 
Q 1547 409 2034 409 
Q 2525 409 2770 889 
Q 3016 1369 3016 2328 
Q 3016 3291 2770 3770 
Q 2525 4250 2034 4250 
z
M 2034 4750 
Q 2819 4750 3233 4129 
Q 3647 3509 3647 2328 
Q 3647 1150 3233 529 
Q 2819 -91 2034 -91 
Q 1250 -91 836 529 
Q 422 1150 422 2328 
Q 422 3509 836 4129 
Q 1250 4750 2034 4750 
z
" transform="scale(0.015625)"/>
       </defs>
       <use xlink:href="#DejaVuSans-30"/>
      </g>
     </g>
    </g>
    <g id="xtick_2">
     <g id="line2d_2">
      <g>
       <use xlink:href="#m93a0dc92ba" x="101.726136" y="273.312" style="stroke: #000000; stroke-width: 0.8"/>
      </g>
     </g>
     <g id="text_2">
      <!-- 2 -->
      <g transform="translate(98.544886 287.910437) scale(0.1 -0.1)">
       <defs>
        <path id="DejaVuSans-32" d="M 1228 531 
L 3431 531 
L 3431 0 
L 469 0 
L 469 531 
Q 828 903 1448 1529 
Q 2069 2156 2228 2338 
Q 2531 2678 2651 2914 
Q 2772 3150 2772 3378 
Q 2772 3750 2511 3984 
Q 2250 4219 1831 4219 
Q 1534 4219 1204 4116 
Q 875 4013 500 3803 
L 500 4441 
Q 881 4594 1212 4672 
Q 1544 4750 1819 4750 
Q 2544 4750 2975 4387 
Q 3406 4025 3406 3419 
Q 3406 3131 3298 2873 
Q 3191 2616 2906 2266 
Q 2828 2175 2409 1742 
Q 1991 1309 1228 531 
z
" transform="scale(0.015625)"/>
       </defs>
       <use xlink:href="#DejaVuSans-32"/>
      </g>
     </g>
    </g>
    <g id="xtick_3">
     <g id="line2d_3">
      <g>
       <use xlink:href="#m93a0dc92ba" x="166.657045" y="273.312" style="stroke: #000000; stroke-width: 0.8"/>
      </g>
     </g>
     <g id="text_3">
      <!-- 4 -->
      <g transform="translate(163.475795 287.910437) scale(0.1 -0.1)">
       <defs>
        <path id="DejaVuSans-34" d="M 2419 4116 
L 825 1625 
L 2419 1625 
L 2419 4116 
z
M 2253 4666 
L 3047 4666 
L 3047 1625 
L 3713 1625 
L 3713 1100 
L 3047 1100 
L 3047 0 
L 2419 0 
L 2419 1100 
L 313 1100 
L 313 1709 
L 2253 4666 
z
" transform="scale(0.015625)"/>
       </defs>
       <use xlink:href="#DejaVuSans-34"/>
      </g>
     </g>
    </g>
    <g id="xtick_4">
     <g id="line2d_4">
      <g>
       <use xlink:href="#m93a0dc92ba" x="231.587955" y="273.312" style="stroke: #000000; stroke-width: 0.8"/>
      </g>
     </g>
     <g id="text_4">
      <!-- 6 -->
      <g transform="translate(228.406705 287.910437) scale(0.1 -0.1)">
       <defs>
        <path id="DejaVuSans-36" d="M 2113 2584 
Q 1688 2584 1439 2293 
Q 1191 2003 1191 1497 
Q 1191 994 1439 701 
Q 1688 409 2113 409 
Q 2538 409 2786 701 
Q 3034 994 3034 1497 
Q 3034 2003 2786 2293 
Q 2538 2584 2113 2584 
z
M 3366 4563 
L 3366 3988 
Q 3128 4100 2886 4159 
Q 2644 4219 2406 4219 
Q 1781 4219 1451 3797 
Q 1122 3375 1075 2522 
Q 1259 2794 1537 2939 
Q 1816 3084 2150 3084 
Q 2853 3084 3261 2657 
Q 3669 2231 3669 1497 
Q 3669 778 3244 343 
Q 2819 -91 2113 -91 
Q 1303 -91 875 529 
Q 447 1150 447 2328 
Q 447 3434 972 4092 
Q 1497 4750 2381 4750 
Q 2619 4750 2861 4703 
Q 3103 4656 3366 4563 
z
" transform="scale(0.015625)"/>
       </defs>
       <use xlink:href="#DejaVuSans-36"/>
      </g>
     </g>
    </g>
    <g id="xtick_5">
     <g id="line2d_5">
      <g>
       <use xlink:href="#m93a0dc92ba" x="296.518864" y="273.312" style="stroke: #000000; stroke-width: 0.8"/>
      </g>
     </g>
     <g id="text_5">
      <!-- 8 -->
      <g transform="translate(293.337614 287.910437) scale(0.1 -0.1)">
       <defs>
        <path id="DejaVuSans-38" d="M 2034 2216 
Q 1584 2216 1326 1975 
Q 1069 1734 1069 1313 
Q 1069 891 1326 650 
Q 1584 409 2034 409 
Q 2484 409 2743 651 
Q 3003 894 3003 1313 
Q 3003 1734 2745 1975 
Q 2488 2216 2034 2216 
z
M 1403 2484 
Q 997 2584 770 2862 
Q 544 3141 544 3541 
Q 544 4100 942 4425 
Q 1341 4750 2034 4750 
Q 2731 4750 3128 4425 
Q 3525 4100 3525 3541 
Q 3525 3141 3298 2862 
Q 3072 2584 2669 2484 
Q 3125 2378 3379 2068 
Q 3634 1759 3634 1313 
Q 3634 634 3220 271 
Q 2806 -91 2034 -91 
Q 1263 -91 848 271 
Q 434 634 434 1313 
Q 434 1759 690 2068 
Q 947 2378 1403 2484 
z
M 1172 3481 
Q 1172 3119 1398 2916 
Q 1625 2713 2034 2713 
Q 2441 2713 2670 2916 
Q 2900 3119 2900 3481 
Q 2900 3844 2670 4047 
Q 2441 4250 2034 4250 
Q 1625 4250 1398 4047 
Q 1172 3844 1172 3481 
z
" transform="scale(0.015625)"/>
       </defs>
       <use xlink:href="#DejaVuSans-38"/>
      </g>
     </g>
    </g>
    <g id="xtick_6">
     <g id="line2d_6">
      <g>
       <use xlink:href="#m93a0dc92ba" x="361.449773" y="273.312" style="stroke: #000000; stroke-width: 0.8"/>
      </g>
     </g>
     <g id="text_6">
      <!-- 10 -->
      <g transform="translate(355.087273 287.910437) scale(0.1 -0.1)">
       <defs>
        <path id="DejaVuSans-31" d="M 794 531 
L 1825 531 
L 1825 4091 
L 703 3866 
L 703 4441 
L 1819 4666 
L 2450 4666 
L 2450 531 
L 3481 531 
L 3481 0 
L 794 0 
L 794 531 
z
" transform="scale(0.015625)"/>
       </defs>
       <use xlink:href="#DejaVuSans-31"/>
       <use xlink:href="#DejaVuSans-30" x="63.623047"/>
      </g>
     </g>
    </g>
   </g>
   <g id="matplotlib.axis_2">
    <g id="ytick_1">
     <g id="line2d_7">
      <defs>
       <path id="m0fd1405d26" d="M 0 0 
L -3.5 0 
" style="stroke: #000000; stroke-width: 0.8"/>
      </defs>
      <g>
       <use xlink:href="#m0fd1405d26" x="20.5625" y="246.993082" style="stroke: #000000; stroke-width: 0.8"/>
      </g>
     </g>
     <g id="text_7">
      <!-- 0 -->
      <g transform="translate(7.2 250.792301) scale(0.1 -0.1)">
       <use xlink:href="#DejaVuSans-30"/>
      </g>
     </g>
    </g>
    <g id="ytick_2">
     <g id="line2d_8">
      <g>
       <use xlink:href="#m0fd1405d26" x="20.5625" y="203.776254" style="stroke: #000000; stroke-width: 0.8"/>
      </g>
     </g>
     <g id="text_8">
      <!-- 1 -->
      <g transform="translate(7.2 207.575473) scale(0.1 -0.1)">
       <use xlink:href="#DejaVuSans-31"/>
      </g>
     </g>
    </g>
    <g id="ytick_3">
     <g id="line2d_9">
      <g>
       <use xlink:href="#m0fd1405d26" x="20.5625" y="160.559425" style="stroke: #000000; stroke-width: 0.8"/>
      </g>
     </g>
     <g id="text_9">
      <!-- 2 -->
      <g transform="translate(7.2 164.358644) scale(0.1 -0.1)">
       <use xlink:href="#DejaVuSans-32"/>
      </g>
     </g>
    </g>
    <g id="ytick_4">
     <g id="line2d_10">
      <g>
       <use xlink:href="#m0fd1405d26" x="20.5625" y="117.342597" style="stroke: #000000; stroke-width: 0.8"/>
      </g>
     </g>
     <g id="text_10">
      <!-- 3 -->
      <g transform="translate(7.2 121.141815) scale(0.1 -0.1)">
       <defs>
        <path id="DejaVuSans-33" d="M 2597 2516 
Q 3050 2419 3304 2112 
Q 3559 1806 3559 1356 
Q 3559 666 3084 287 
Q 2609 -91 1734 -91 
Q 1441 -91 1130 -33 
Q 819 25 488 141 
L 488 750 
Q 750 597 1062 519 
Q 1375 441 1716 441 
Q 2309 441 2620 675 
Q 2931 909 2931 1356 
Q 2931 1769 2642 2001 
Q 2353 2234 1838 2234 
L 1294 2234 
L 1294 2753 
L 1863 2753 
Q 2328 2753 2575 2939 
Q 2822 3125 2822 3475 
Q 2822 3834 2567 4026 
Q 2313 4219 1838 4219 
Q 1578 4219 1281 4162 
Q 984 4106 628 3988 
L 628 4550 
Q 988 4650 1302 4700 
Q 1616 4750 1894 4750 
Q 2613 4750 3031 4423 
Q 3450 4097 3450 3541 
Q 3450 3153 3228 2886 
Q 3006 2619 2597 2516 
z
" transform="scale(0.015625)"/>
       </defs>
       <use xlink:href="#DejaVuSans-33"/>
      </g>
     </g>
    </g>
    <g id="ytick_5">
     <g id="line2d_11">
      <g>
       <use xlink:href="#m0fd1405d26" x="20.5625" y="74.125768" style="stroke: #000000; stroke-width: 0.8"/>
      </g>
     </g>
     <g id="text_11">
      <!-- 4 -->
      <g transform="translate(7.2 77.924987) scale(0.1 -0.1)">
       <use xlink:href="#DejaVuSans-34"/>
      </g>
     </g>
    </g>
    <g id="ytick_6">
     <g id="line2d_12">
      <g>
       <use xlink:href="#m0fd1405d26" x="20.5625" y="30.908939" style="stroke: #000000; stroke-width: 0.8"/>
      </g>
     </g>
     <g id="text_12">
      <!-- 5 -->
      <g transform="translate(7.2 34.708158) scale(0.1 -0.1)">
       <defs>
        <path id="DejaVuSans-35" d="M 691 4666 
L 3169 4666 
L 3169 4134 
L 1269 4134 
L 1269 2991 
Q 1406 3038 1543 3061 
Q 1681 3084 1819 3084 
Q 2600 3084 3056 2656 
Q 3513 2228 3513 1497 
Q 3513 744 3044 326 
Q 2575 -91 1722 -91 
Q 1428 -91 1123 -41 
Q 819 9 494 109 
L 494 744 
Q 775 591 1075 516 
Q 1375 441 1709 441 
Q 2250 441 2565 725 
Q 2881 1009 2881 1497 
Q 2881 1984 2565 2268 
Q 2250 2553 1709 2553 
Q 1456 2553 1204 2497 
Q 953 2441 691 2322 
L 691 4666 
z
" transform="scale(0.015625)"/>
       </defs>
       <use xlink:href="#DejaVuSans-35"/>
      </g>
     </g>
    </g>
   </g>
   <g id="line2d_13">
    <defs>
     <path id="m9709df19ce" d="M 0 3 
C 0.795609 3 1.55874 2.683901 2.12132 2.12132 
C 2.683901 1.55874 3 0.795609 3 0 
C 3 -0.795609 2.683901 -1.55874 2.12132 -2.12132 
C 1.55874 -2.683901 0.795609 -3 0 -3 
C -0.795609 -3 -1.55874 -2.683901 -2.12132 -2.12132 
C -2.683901 -1.55874 -3 -0.795609 -3 0 
C -3 0.795609 -2.683901 1.55874 -2.12132 2.12132 
C -1.55874 2.683901 -0.795609 3 0 3 
z
" style="stroke: #1f77b4"/>
    </defs>
    <g clip-path="url(#p39f8597a29)">
     <use xlink:href="#m9709df19ce" x="36.795227" y="260.182686" style="fill: #1f77b4; stroke: #1f77b4"/>
     <use xlink:href="#m9709df19ce" x="40.041773" y="246.779937" style="fill: #1f77b4; stroke: #1f77b4"/>
     <use xlink:href="#m9709df19ce" x="43.288318" y="238.67233" style="fill: #1f77b4; stroke: #1f77b4"/>
     <use xlink:href="#m9709df19ce" x="46.534864" y="242.643784" style="fill: #1f77b4; stroke: #1f77b4"/>
     <use xlink:href="#m9709df19ce" x="49.781409" y="236.405305" style="fill: #1f77b4; stroke: #1f77b4"/>
     <use xlink:href="#m9709df19ce" x="53.027955" y="247.040405" style="fill: #1f77b4; stroke: #1f77b4"/>
     <use xlink:href="#m9709df19ce" x="56.2745" y="247.73598" style="fill: #1f77b4; stroke: #1f77b4"/>
     <use xlink:href="#m9709df19ce" x="59.521045" y="252.971266" style="fill: #1f77b4; stroke: #1f77b4"/>
     <use xlink:href="#m9709df19ce" x="62.767591" y="249.825773" style="fill: #1f77b4; stroke: #1f77b4"/>
     <use xlink:href="#m9709df19ce" x="66.014136" y="240.506712" style="fill: #1f77b4; stroke: #1f77b4"/>
     <use xlink:href="#m9709df19ce" x="69.260682" y="246.043133" style="fill: #1f77b4; stroke: #1f77b4"/>
     <use xlink:href="#m9709df19ce" x="72.507227" y="236.983633" style="fill: #1f77b4; stroke: #1f77b4"/>
     <use xlink:href="#m9709df19ce" x="75.753773" y="238.94948" style="fill: #1f77b4; stroke: #1f77b4"/>
     <use xlink:href="#m9709df19ce" x="79.000318" y="237.304388" style="fill: #1f77b4; stroke: #1f77b4"/>
     <use xlink:href="#m9709df19ce" x="82.246864" y="231.61204" style="fill: #1f77b4; stroke: #1f77b4"/>
     <use xlink:href="#m9709df19ce" x="85.493409" y="250.007327" style="fill: #1f77b4; stroke: #1f77b4"/>
     <use xlink:href="#m9709df19ce" x="88.739955" y="244.298859" style="fill: #1f77b4; stroke: #1f77b4"/>
     <use xlink:href="#m9709df19ce" x="91.9865" y="248.099044" style="fill: #1f77b4; stroke: #1f77b4"/>
     <use xlink:href="#m9709df19ce" x="95.233045" y="244.74235" style="fill: #1f77b4; stroke: #1f77b4"/>
     <use xlink:href="#m9709df19ce" x="98.479591" y="261.216" style="fill: #1f77b4; stroke: #1f77b4"/>
     <use xlink:href="#m9709df19ce" x="101.726136" y="247.517389" style="fill: #1f77b4; stroke: #1f77b4"/>
     <use xlink:href="#m9709df19ce" x="104.972682" y="238.114704" style="fill: #1f77b4; stroke: #1f77b4"/>
     <use xlink:href="#m9709df19ce" x="108.219227" y="241.889477" style="fill: #1f77b4; stroke: #1f77b4"/>
     <use xlink:href="#m9709df19ce" x="111.465773" y="246.206363" style="fill: #1f77b4; stroke: #1f77b4"/>
     <use xlink:href="#m9709df19ce" x="114.712318" y="251.892747" style="fill: #1f77b4; stroke: #1f77b4"/>
     <use xlink:href="#m9709df19ce" x="117.958864" y="250.721182" style="fill: #1f77b4; stroke: #1f77b4"/>
     <use xlink:href="#m9709df19ce" x="121.205409" y="250.223411" style="fill: #1f77b4; stroke: #1f77b4"/>
     <use xlink:href="#m9709df19ce" x="124.451955" y="239.248022" style="fill: #1f77b4; stroke: #1f77b4"/>
     <use xlink:href="#m9709df19ce" x="127.6985" y="239.715455" style="fill: #1f77b4; stroke: #1f77b4"/>
     <use xlink:href="#m9709df19ce" x="130.945045" y="244.056326" style="fill: #1f77b4; stroke: #1f77b4"/>
     <use xlink:href="#m9709df19ce" x="134.191591" y="243.686736" style="fill: #1f77b4; stroke: #1f77b4"/>
     <use xlink:href="#m9709df19ce" x="137.438136" y="228.247005" style="fill: #1f77b4; stroke: #1f77b4"/>
     <use xlink:href="#m9709df19ce" x="140.684682" y="246.167771" style="fill: #1f77b4; stroke: #1f77b4"/>
     <use xlink:href="#m9709df19ce" x="143.931227" y="236.62221" style="fill: #1f77b4; stroke: #1f77b4"/>
     <use xlink:href="#m9709df19ce" x="147.177773" y="246.707549" style="fill: #1f77b4; stroke: #1f77b4"/>
     <use xlink:href="#m9709df19ce" x="150.424318" y="252.229838" style="fill: #1f77b4; stroke: #1f77b4"/>
     <use xlink:href="#m9709df19ce" x="153.670864" y="239.96702" style="fill: #1f77b4; stroke: #1f77b4"/>
     <use xlink:href="#m9709df19ce" x="156.917409" y="245.176679" style="fill: #1f77b4; stroke: #1f77b4"/>
     <use xlink:href="#m9709df19ce" x="160.163955" y="234.515606" style="fill: #1f77b4; stroke: #1f77b4"/>
     <use xlink:href="#m9709df19ce" x="163.4105" y="241.053361" style="fill: #1f77b4; stroke: #1f77b4"/>
     <use xlink:href="#m9709df19ce" x="166.657045" y="221.358891" style="fill: #1f77b4; stroke: #1f77b4"/>
     <use xlink:href="#m9709df19ce" x="169.903591" y="226.231156" style="fill: #1f77b4; stroke: #1f77b4"/>
     <use xlink:href="#m9709df19ce" x="173.150136" y="208.02382" style="fill: #1f77b4; stroke: #1f77b4"/>
     <use xlink:href="#m9709df19ce" x="176.396682" y="209.468731" style="fill: #1f77b4; stroke: #1f77b4"/>
     <use xlink:href="#m9709df19ce" x="179.643227" y="190.74007" style="fill: #1f77b4; stroke: #1f77b4"/>
     <use xlink:href="#m9709df19ce" x="182.889773" y="199.756138" style="fill: #1f77b4; stroke: #1f77b4"/>
     <use xlink:href="#m9709df19ce" x="186.136318" y="180.794841" style="fill: #1f77b4; stroke: #1f77b4"/>
     <use xlink:href="#m9709df19ce" x="189.382864" y="170.39134" style="fill: #1f77b4; stroke: #1f77b4"/>
     <use xlink:href="#m9709df19ce" x="192.629409" y="145.57533" style="fill: #1f77b4; stroke: #1f77b4"/>
     <use xlink:href="#m9709df19ce" x="195.875955" y="129.590505" style="fill: #1f77b4; stroke: #1f77b4"/>
     <use xlink:href="#m9709df19ce" x="199.1225" y="102.949578" style="fill: #1f77b4; stroke: #1f77b4"/>
     <use xlink:href="#m9709df19ce" x="202.369045" y="87.58768" style="fill: #1f77b4; stroke: #1f77b4"/>
     <use xlink:href="#m9709df19ce" x="205.615591" y="81.828087" style="fill: #1f77b4; stroke: #1f77b4"/>
     <use xlink:href="#m9709df19ce" x="208.862136" y="48.896475" style="fill: #1f77b4; stroke: #1f77b4"/>
     <use xlink:href="#m9709df19ce" x="212.108682" y="39.307525" style="fill: #1f77b4; stroke: #1f77b4"/>
     <use xlink:href="#m9709df19ce" x="215.355227" y="25.473905" style="fill: #1f77b4; stroke: #1f77b4"/>
     <use xlink:href="#m9709df19ce" x="218.601773" y="32.422306" style="fill: #1f77b4; stroke: #1f77b4"/>
     <use xlink:href="#m9709df19ce" x="221.848318" y="31.390548" style="fill: #1f77b4; stroke: #1f77b4"/>
     <use xlink:href="#m9709df19ce" x="225.094864" y="37.179874" style="fill: #1f77b4; stroke: #1f77b4"/>
     <use xlink:href="#m9709df19ce" x="228.341409" y="42.225957" style="fill: #1f77b4; stroke: #1f77b4"/>
     <use xlink:href="#m9709df19ce" x="231.587955" y="38.898478" style="fill: #1f77b4; stroke: #1f77b4"/>
     <use xlink:href="#m9709df19ce" x="234.8345" y="71.077901" style="fill: #1f77b4; stroke: #1f77b4"/>
     <use xlink:href="#m9709df19ce" x="238.081045" y="74.858682" style="fill: #1f77b4; stroke: #1f77b4"/>
     <use xlink:href="#m9709df19ce" x="241.327591" y="112.716062" style="fill: #1f77b4; stroke: #1f77b4"/>
     <use xlink:href="#m9709df19ce" x="244.574136" y="124.209535" style="fill: #1f77b4; stroke: #1f77b4"/>
     <use xlink:href="#m9709df19ce" x="247.820682" y="134.192103" style="fill: #1f77b4; stroke: #1f77b4"/>
     <use xlink:href="#m9709df19ce" x="251.067227" y="154.246397" style="fill: #1f77b4; stroke: #1f77b4"/>
     <use xlink:href="#m9709df19ce" x="254.313773" y="174.242478" style="fill: #1f77b4; stroke: #1f77b4"/>
     <use xlink:href="#m9709df19ce" x="257.560318" y="190.05288" style="fill: #1f77b4; stroke: #1f77b4"/>
     <use xlink:href="#m9709df19ce" x="260.806864" y="212.871754" style="fill: #1f77b4; stroke: #1f77b4"/>
     <use xlink:href="#m9709df19ce" x="264.053409" y="221.675281" style="fill: #1f77b4; stroke: #1f77b4"/>
     <use xlink:href="#m9709df19ce" x="267.299955" y="225.61523" style="fill: #1f77b4; stroke: #1f77b4"/>
     <use xlink:href="#m9709df19ce" x="270.5465" y="227.673518" style="fill: #1f77b4; stroke: #1f77b4"/>
     <use xlink:href="#m9709df19ce" x="273.793045" y="227.894442" style="fill: #1f77b4; stroke: #1f77b4"/>
     <use xlink:href="#m9709df19ce" x="277.039591" y="229.985229" style="fill: #1f77b4; stroke: #1f77b4"/>
     <use xlink:href="#m9709df19ce" x="280.286136" y="248.458133" style="fill: #1f77b4; stroke: #1f77b4"/>
     <use xlink:href="#m9709df19ce" x="283.532682" y="245.137049" style="fill: #1f77b4; stroke: #1f77b4"/>
     <use xlink:href="#m9709df19ce" x="286.779227" y="252.016952" style="fill: #1f77b4; stroke: #1f77b4"/>
     <use xlink:href="#m9709df19ce" x="290.025773" y="244.334556" style="fill: #1f77b4; stroke: #1f77b4"/>
     <use xlink:href="#m9709df19ce" x="293.272318" y="239.057824" style="fill: #1f77b4; stroke: #1f77b4"/>
     <use xlink:href="#m9709df19ce" x="296.518864" y="252.489139" style="fill: #1f77b4; stroke: #1f77b4"/>
     <use xlink:href="#m9709df19ce" x="299.765409" y="231.067162" style="fill: #1f77b4; stroke: #1f77b4"/>
     <use xlink:href="#m9709df19ce" x="303.011955" y="238.592552" style="fill: #1f77b4; stroke: #1f77b4"/>
     <use xlink:href="#m9709df19ce" x="306.2585" y="233.960011" style="fill: #1f77b4; stroke: #1f77b4"/>
     <use xlink:href="#m9709df19ce" x="309.505045" y="245.044133" style="fill: #1f77b4; stroke: #1f77b4"/>
     <use xlink:href="#m9709df19ce" x="312.751591" y="242.215765" style="fill: #1f77b4; stroke: #1f77b4"/>
     <use xlink:href="#m9709df19ce" x="315.998136" y="235.619969" style="fill: #1f77b4; stroke: #1f77b4"/>
     <use xlink:href="#m9709df19ce" x="319.244682" y="238.750682" style="fill: #1f77b4; stroke: #1f77b4"/>
     <use xlink:href="#m9709df19ce" x="322.491227" y="228.625628" style="fill: #1f77b4; stroke: #1f77b4"/>
     <use xlink:href="#m9709df19ce" x="325.737773" y="236.052137" style="fill: #1f77b4; stroke: #1f77b4"/>
     <use xlink:href="#m9709df19ce" x="328.984318" y="238.28407" style="fill: #1f77b4; stroke: #1f77b4"/>
     <use xlink:href="#m9709df19ce" x="332.230864" y="241.275842" style="fill: #1f77b4; stroke: #1f77b4"/>
     <use xlink:href="#m9709df19ce" x="335.477409" y="233.832737" style="fill: #1f77b4; stroke: #1f77b4"/>
     <use xlink:href="#m9709df19ce" x="338.723955" y="241.413963" style="fill: #1f77b4; stroke: #1f77b4"/>
     <use xlink:href="#m9709df19ce" x="341.9705" y="235.360365" style="fill: #1f77b4; stroke: #1f77b4"/>
     <use xlink:href="#m9709df19ce" x="345.217045" y="238.807599" style="fill: #1f77b4; stroke: #1f77b4"/>
     <use xlink:href="#m9709df19ce" x="348.463591" y="236.459931" style="fill: #1f77b4; stroke: #1f77b4"/>
     <use xlink:href="#m9709df19ce" x="351.710136" y="229.189348" style="fill: #1f77b4; stroke: #1f77b4"/>
     <use xlink:href="#m9709df19ce" x="354.956682" y="243.506262" style="fill: #1f77b4; stroke: #1f77b4"/>
     <use xlink:href="#m9709df19ce" x="358.203227" y="232.616054" style="fill: #1f77b4; stroke: #1f77b4"/>
     <use xlink:href="#m9709df19ce" x="361.449773" y="249.892932" style="fill: #1f77b4; stroke: #1f77b4"/>
    </g>
   </g>
   <g id="line2d_14">
    <path d="M 36.795227 246.992761 
L 40.041773 246.992555 
L 43.288318 246.992226 
L 46.534864 246.991706 
L 49.781409 246.990891 
L 53.027955 246.989629 
L 56.2745 246.987693 
L 59.521045 246.984756 
L 62.767591 246.980346 
L 66.014136 246.973794 
L 69.260682 246.964164 
L 72.507227 246.950156 
L 75.753773 246.929997 
L 79.000318 246.901294 
L 82.246864 246.86086 
L 85.493409 246.80451 
L 88.739955 246.726819 
L 91.9865 246.620863 
L 95.233045 246.477919 
L 98.479591 246.287175 
L 101.726136 246.03543 
L 104.972682 245.706835 
L 108.219227 245.282679 
L 111.465773 244.741284 
L 114.712318 244.058018 
L 117.958864 243.205495 
L 121.205409 242.15398 
L 124.451955 240.872059 
L 127.6985 239.327585 
L 130.945045 237.488925 
L 134.191591 235.326491 
L 137.438136 232.814545 
L 140.684682 229.933205 
L 143.931227 226.670568 
L 147.177773 223.024849 
L 150.424318 219.006384 
L 153.670864 214.639351 
L 156.917409 209.963047 
L 160.163955 205.032555 
L 163.4105 199.918681 
L 166.657045 194.707046 
L 169.903591 189.496279 
L 173.150136 184.395331 
L 176.396682 179.519959 
L 179.643227 174.98853 
L 182.889773 170.917348 
L 186.136318 167.415745 
L 189.382864 164.581223 
L 192.629409 162.494957 
L 195.875955 161.217931 
L 199.1225 160.787982 
L 202.369045 161.217931 
L 205.615591 162.494957 
L 208.862136 164.581223 
L 212.108682 167.415745 
L 215.355227 170.917348 
L 218.601773 174.98853 
L 221.848318 179.519959 
L 225.094864 184.395331 
L 228.341409 189.496279 
L 231.587955 194.707046 
L 234.8345 199.918681 
L 238.081045 205.032555 
L 241.327591 209.963047 
L 244.574136 214.639351 
L 247.820682 219.006384 
L 251.067227 223.024849 
L 254.313773 226.670568 
L 257.560318 229.933205 
L 260.806864 232.814545 
L 264.053409 235.326491 
L 267.299955 237.488925 
L 270.5465 239.327585 
L 273.793045 240.872059 
L 277.039591 242.15398 
L 280.286136 243.205495 
L 283.532682 244.058018 
L 286.779227 244.741284 
L 290.025773 245.282679 
L 293.272318 245.706835 
L 296.518864 246.03543 
L 299.765409 246.287175 
L 303.011955 246.477919 
L 306.2585 246.620863 
L 309.505045 246.726819 
L 312.751591 246.80451 
L 315.998136 246.86086 
L 319.244682 246.901294 
L 322.491227 246.929997 
L 325.737773 246.950156 
L 328.984318 246.964164 
L 332.230864 246.973794 
L 335.477409 246.980346 
L 338.723955 246.984756 
L 341.9705 246.987693 
L 345.217045 246.989629 
L 348.463591 246.990891 
L 351.710136 246.991706 
L 354.956682 246.992226 
L 358.203227 246.992555 
L 361.449773 246.992761 
" clip-path="url(#p39f8597a29)" style="fill: none; stroke-dasharray: 5.55,2.4; stroke-dashoffset: 0; stroke: #ff7f0e; stroke-width: 1.5"/>
   </g>
   <g id="line2d_15">
    <path d="M 36.795227 246.993082 
L 40.041773 246.993082 
L 43.288318 246.993082 
L 46.534864 246.993082 
L 49.781409 246.993082 
L 53.027955 246.993082 
L 56.2745 246.993082 
L 59.521045 246.993082 
L 62.767591 246.993082 
L 66.014136 246.993082 
L 69.260682 246.993082 
L 72.507227 246.993082 
L 75.753773 246.993082 
L 79.000318 246.993082 
L 82.246864 246.993081 
L 85.493409 246.993078 
L 88.739955 246.993073 
L 91.9865 246.99306 
L 95.233045 246.993032 
L 98.479591 246.992973 
L 101.726136 246.992848 
L 104.972682 246.992591 
L 108.219227 246.992072 
L 111.465773 246.991047 
L 114.712318 246.989066 
L 117.958864 246.985318 
L 121.205409 246.978376 
L 124.451955 246.965795 
L 127.6985 246.94348 
L 130.945045 246.904752 
L 134.191591 246.838983 
L 137.438136 246.729712 
L 140.684682 246.55211 
L 143.931227 246.26976 
L 147.177773 245.83075 
L 150.424318 245.163274 
L 153.670864 244.171076 
L 156.917409 242.729373 
L 160.163955 240.682137 
L 163.4105 237.841875 
L 166.657045 233.993198 
L 169.903591 228.90145 
L 173.150136 222.327397 
L 176.396682 214.048366 
L 179.643227 203.885317 
L 182.889773 191.73416 
L 186.136318 177.598355 
L 189.382864 161.618676 
L 192.629409 144.095285 
L 195.875955 125.497184 
L 199.1225 106.454906 
L 202.369045 87.734015 
L 205.615591 70.18945 
L 208.862136 54.703677 
L 212.108682 42.114439 
L 215.355227 33.140164 
L 218.601773 28.312193 
L 221.848318 27.922713 
L 225.094864 31.995484 
L 228.341409 40.28344 
L 231.587955 52.2935 
L 234.8345 67.335122 
L 238.081045 84.585961 
L 241.327591 103.165947 
L 244.574136 122.210563 
L 247.820682 140.934985 
L 251.067227 158.682841 
L 254.313773 174.956107 
L 257.560318 189.425628 
L 260.806864 201.924309 
L 264.053409 212.426884 
L 267.299955 221.021127 
L 270.5465 227.875418 
L 273.793045 233.206958 
L 277.039591 237.253806 
L 280.286136 240.252641 
L 283.532682 242.422967 
L 286.779227 243.957492 
L 290.025773 245.017768 
L 293.272318 245.733848 
L 296.518864 246.206663 
L 299.765409 246.511934 
L 303.011955 246.704692 
L 306.2585 246.823742 
L 309.505045 246.89567 
L 312.751591 246.938185 
L 315.998136 246.962774 
L 319.244682 246.97669 
L 322.491227 246.984397 
L 325.737773 246.988574 
L 328.984318 246.99079 
L 332.230864 246.99194 
L 335.477409 246.992525 
L 338.723955 246.992816 
L 341.9705 246.992958 
L 345.217045 246.993025 
L 348.463591 246.993057 
L 351.710136 246.993071 
L 354.956682 246.993078 
L 358.203227 246.99308 
L 361.449773 246.993082 
" clip-path="url(#p39f8597a29)" style="fill: none; stroke: #2ca02c; stroke-width: 1.5; stroke-linecap: square"/>
   </g>
   <g id="patch_3">
    <path d="M 20.5625 273.312 
L 20.5625 7.2 
" style="fill: none; stroke: #000000; stroke-width: 0.8; stroke-linejoin: miter; stroke-linecap: square"/>
   </g>
   <g id="patch_4">
    <path d="M 377.6825 273.312 
L 377.6825 7.2 
" style="fill: none; stroke: #000000; stroke-width: 0.8; stroke-linejoin: miter; stroke-linecap: square"/>
   </g>
   <g id="patch_5">
    <path d="M 20.5625 273.312 
L 377.6825 273.312 
" style="fill: none; stroke: #000000; stroke-width: 0.8; stroke-linejoin: miter; stroke-linecap: square"/>
   </g>
   <g id="patch_6">
    <path d="M 20.5625 7.2 
L 377.6825 7.2 
" style="fill: none; stroke: #000000; stroke-width: 0.8; stroke-linejoin: miter; stroke-linecap: square"/>
   </g>
   <g id="legend_1">
    <g id="patch_7">
     <path d="M 27.5625 59.25625 
L 164.8625 59.25625 
Q 166.8625 59.25625 166.8625 57.25625 
L 166.8625 14.2 
Q 166.8625 12.2 164.8625 12.2 
L 27.5625 12.2 
Q 25.5625 12.2 25.5625 14.2 
L 25.5625 57.25625 
Q 25.5625 59.25625 27.5625 59.25625 
z
" style="fill: #ffffff; opacity: 0.8; stroke: #cccccc; stroke-linejoin: miter"/>
    </g>
    <g id="line2d_16">
     <path d="M 29.5625 20.298437 
L 39.5625 20.298437 
L 49.5625 20.298437 
" style="fill: none; stroke-dasharray: 5.55,2.4; stroke-dashoffset: 0; stroke: #ff7f0e; stroke-width: 1.5"/>
    </g>
    <g id="text_13">
     <!-- initial fit -->
     <g transform="translate(57.5625 23.798437) scale(0.1 -0.1)">
      <defs>
       <path id="DejaVuSans-69" d="M 603 3500 
L 1178 3500 
L 1178 0 
L 603 0 
L 603 3500 
z
M 603 4863 
L 1178 4863 
L 1178 4134 
L 603 4134 
L 603 4863 
z
" transform="scale(0.015625)"/>
       <path id="DejaVuSans-6e" d="M 3513 2113 
L 3513 0 
L 2938 0 
L 2938 2094 
Q 2938 2591 2744 2837 
Q 2550 3084 2163 3084 
Q 1697 3084 1428 2787 
Q 1159 2491 1159 1978 
L 1159 0 
L 581 0 
L 581 3500 
L 1159 3500 
L 1159 2956 
Q 1366 3272 1645 3428 
Q 1925 3584 2291 3584 
Q 2894 3584 3203 3211 
Q 3513 2838 3513 2113 
z
" transform="scale(0.015625)"/>
       <path id="DejaVuSans-74" d="M 1172 4494 
L 1172 3500 
L 2356 3500 
L 2356 3053 
L 1172 3053 
L 1172 1153 
Q 1172 725 1289 603 
Q 1406 481 1766 481 
L 2356 481 
L 2356 0 
L 1766 0 
Q 1100 0 847 248 
Q 594 497 594 1153 
L 594 3053 
L 172 3053 
L 172 3500 
L 594 3500 
L 594 4494 
L 1172 4494 
z
" transform="scale(0.015625)"/>
       <path id="DejaVuSans-61" d="M 2194 1759 
Q 1497 1759 1228 1600 
Q 959 1441 959 1056 
Q 959 750 1161 570 
Q 1363 391 1709 391 
Q 2188 391 2477 730 
Q 2766 1069 2766 1631 
L 2766 1759 
L 2194 1759 
z
M 3341 1997 
L 3341 0 
L 2766 0 
L 2766 531 
Q 2569 213 2275 61 
Q 1981 -91 1556 -91 
Q 1019 -91 701 211 
Q 384 513 384 1019 
Q 384 1609 779 1909 
Q 1175 2209 1959 2209 
L 2766 2209 
L 2766 2266 
Q 2766 2663 2505 2880 
Q 2244 3097 1772 3097 
Q 1472 3097 1187 3025 
Q 903 2953 641 2809 
L 641 3341 
Q 956 3463 1253 3523 
Q 1550 3584 1831 3584 
Q 2591 3584 2966 3190 
Q 3341 2797 3341 1997 
z
" transform="scale(0.015625)"/>
       <path id="DejaVuSans-6c" d="M 603 4863 
L 1178 4863 
L 1178 0 
L 603 0 
L 603 4863 
z
" transform="scale(0.015625)"/>
       <path id="DejaVuSans-20" transform="scale(0.015625)"/>
       <path id="DejaVuSans-66" d="M 2375 4863 
L 2375 4384 
L 1825 4384 
Q 1516 4384 1395 4259 
Q 1275 4134 1275 3809 
L 1275 3500 
L 2222 3500 
L 2222 3053 
L 1275 3053 
L 1275 0 
L 697 0 
L 697 3053 
L 147 3053 
L 147 3500 
L 697 3500 
L 697 3744 
Q 697 4328 969 4595 
Q 1241 4863 1831 4863 
L 2375 4863 
z
" transform="scale(0.015625)"/>
      </defs>
      <use xlink:href="#DejaVuSans-69"/>
      <use xlink:href="#DejaVuSans-6e" x="27.783203"/>
      <use xlink:href="#DejaVuSans-69" x="91.162109"/>
      <use xlink:href="#DejaVuSans-74" x="118.945312"/>
      <use xlink:href="#DejaVuSans-69" x="158.154297"/>
      <use xlink:href="#DejaVuSans-61" x="185.9375"/>
      <use xlink:href="#DejaVuSans-6c" x="247.216797"/>
      <use xlink:href="#DejaVuSans-20" x="275"/>
      <use xlink:href="#DejaVuSans-66" x="306.787109"/>
      <use xlink:href="#DejaVuSans-69" x="341.992188"/>
      <use xlink:href="#DejaVuSans-74" x="369.775391"/>
     </g>
    </g>
    <g id="line2d_17">
     <path d="M 29.5625 34.976562 
L 39.5625 34.976562 
L 49.5625 34.976562 
" style="fill: none; stroke: #2ca02c; stroke-width: 1.5; stroke-linecap: square"/>
    </g>
    <g id="text_14">
     <!-- best fit -->
     <g transform="translate(57.5625 38.476562) scale(0.1 -0.1)">
      <defs>
       <path id="DejaVuSans-62" d="M 3116 1747 
Q 3116 2381 2855 2742 
Q 2594 3103 2138 3103 
Q 1681 3103 1420 2742 
Q 1159 2381 1159 1747 
Q 1159 1113 1420 752 
Q 1681 391 2138 391 
Q 2594 391 2855 752 
Q 3116 1113 3116 1747 
z
M 1159 2969 
Q 1341 3281 1617 3432 
Q 1894 3584 2278 3584 
Q 2916 3584 3314 3078 
Q 3713 2572 3713 1747 
Q 3713 922 3314 415 
Q 2916 -91 2278 -91 
Q 1894 -91 1617 61 
Q 1341 213 1159 525 
L 1159 0 
L 581 0 
L 581 4863 
L 1159 4863 
L 1159 2969 
z
" transform="scale(0.015625)"/>
       <path id="DejaVuSans-65" d="M 3597 1894 
L 3597 1613 
L 953 1613 
Q 991 1019 1311 708 
Q 1631 397 2203 397 
Q 2534 397 2845 478 
Q 3156 559 3463 722 
L 3463 178 
Q 3153 47 2828 -22 
Q 2503 -91 2169 -91 
Q 1331 -91 842 396 
Q 353 884 353 1716 
Q 353 2575 817 3079 
Q 1281 3584 2069 3584 
Q 2775 3584 3186 3129 
Q 3597 2675 3597 1894 
z
M 3022 2063 
Q 3016 2534 2758 2815 
Q 2500 3097 2075 3097 
Q 1594 3097 1305 2825 
Q 1016 2553 972 2059 
L 3022 2063 
z
" transform="scale(0.015625)"/>
       <path id="DejaVuSans-73" d="M 2834 3397 
L 2834 2853 
Q 2591 2978 2328 3040 
Q 2066 3103 1784 3103 
Q 1356 3103 1142 2972 
Q 928 2841 928 2578 
Q 928 2378 1081 2264 
Q 1234 2150 1697 2047 
L 1894 2003 
Q 2506 1872 2764 1633 
Q 3022 1394 3022 966 
Q 3022 478 2636 193 
Q 2250 -91 1575 -91 
Q 1294 -91 989 -36 
Q 684 19 347 128 
L 347 722 
Q 666 556 975 473 
Q 1284 391 1588 391 
Q 1994 391 2212 530 
Q 2431 669 2431 922 
Q 2431 1156 2273 1281 
Q 2116 1406 1581 1522 
L 1381 1569 
Q 847 1681 609 1914 
Q 372 2147 372 2553 
Q 372 3047 722 3315 
Q 1072 3584 1716 3584 
Q 2034 3584 2315 3537 
Q 2597 3491 2834 3397 
z
" transform="scale(0.015625)"/>
      </defs>
      <use xlink:href="#DejaVuSans-62"/>
      <use xlink:href="#DejaVuSans-65" x="63.476562"/>
      <use xlink:href="#DejaVuSans-73" x="125"/>
      <use xlink:href="#DejaVuSans-74" x="177.099609"/>
      <use xlink:href="#DejaVuSans-20" x="216.308594"/>
      <use xlink:href="#DejaVuSans-66" x="248.095703"/>
      <use xlink:href="#DejaVuSans-69" x="283.300781"/>
      <use xlink:href="#DejaVuSans-74" x="311.083984"/>
     </g>
    </g>
    <g id="patch_8">
     <path d="M 29.5625 53.15625 
L 49.5625 53.15625 
L 49.5625 46.15625 
L 29.5625 46.15625 
z
" style="fill: #ababab; stroke: #ababab; stroke-linejoin: miter"/>
    </g>
    <g id="text_15">
     <!-- 3-$\sigma$ uncertainty band -->
     <g transform="translate(57.5625 53.15625) scale(0.1 -0.1)">
      <defs>
       <path id="DejaVuSans-2d" d="M 313 2009 
L 1997 2009 
L 1997 1497 
L 313 1497 
L 313 2009 
z
" transform="scale(0.015625)"/>
       <path id="DejaVuSans-Oblique-3c3" d="M 2219 3044 
Q 1744 3044 1422 2700 
Q 1081 2341 969 1747 
Q 844 1119 1044 756 
Q 1241 397 1706 397 
Q 2166 397 2503 759 
Q 2844 1122 2966 1747 
Q 3075 2319 2881 2700 
Q 2700 3044 2219 3044 
z
M 2309 3503 
L 4219 3500 
L 4106 2925 
L 3463 2925 
Q 3706 2438 3575 1747 
Q 3406 888 2884 400 
Q 2359 -91 1609 -91 
Q 856 -91 525 400 
Q 194 888 363 1747 
Q 528 2609 1050 3097 
Q 1484 3503 2309 3503 
z
" transform="scale(0.015625)"/>
       <path id="DejaVuSans-75" d="M 544 1381 
L 544 3500 
L 1119 3500 
L 1119 1403 
Q 1119 906 1312 657 
Q 1506 409 1894 409 
Q 2359 409 2629 706 
Q 2900 1003 2900 1516 
L 2900 3500 
L 3475 3500 
L 3475 0 
L 2900 0 
L 2900 538 
Q 2691 219 2414 64 
Q 2138 -91 1772 -91 
Q 1169 -91 856 284 
Q 544 659 544 1381 
z
M 1991 3584 
L 1991 3584 
z
" transform="scale(0.015625)"/>
       <path id="DejaVuSans-63" d="M 3122 3366 
L 3122 2828 
Q 2878 2963 2633 3030 
Q 2388 3097 2138 3097 
Q 1578 3097 1268 2742 
Q 959 2388 959 1747 
Q 959 1106 1268 751 
Q 1578 397 2138 397 
Q 2388 397 2633 464 
Q 2878 531 3122 666 
L 3122 134 
Q 2881 22 2623 -34 
Q 2366 -91 2075 -91 
Q 1284 -91 818 406 
Q 353 903 353 1747 
Q 353 2603 823 3093 
Q 1294 3584 2113 3584 
Q 2378 3584 2631 3529 
Q 2884 3475 3122 3366 
z
" transform="scale(0.015625)"/>
       <path id="DejaVuSans-72" d="M 2631 2963 
Q 2534 3019 2420 3045 
Q 2306 3072 2169 3072 
Q 1681 3072 1420 2755 
Q 1159 2438 1159 1844 
L 1159 0 
L 581 0 
L 581 3500 
L 1159 3500 
L 1159 2956 
Q 1341 3275 1631 3429 
Q 1922 3584 2338 3584 
Q 2397 3584 2469 3576 
Q 2541 3569 2628 3553 
L 2631 2963 
z
" transform="scale(0.015625)"/>
       <path id="DejaVuSans-79" d="M 2059 -325 
Q 1816 -950 1584 -1140 
Q 1353 -1331 966 -1331 
L 506 -1331 
L 506 -850 
L 844 -850 
Q 1081 -850 1212 -737 
Q 1344 -625 1503 -206 
L 1606 56 
L 191 3500 
L 800 3500 
L 1894 763 
L 2988 3500 
L 3597 3500 
L 2059 -325 
z
" transform="scale(0.015625)"/>
       <path id="DejaVuSans-64" d="M 2906 2969 
L 2906 4863 
L 3481 4863 
L 3481 0 
L 2906 0 
L 2906 525 
Q 2725 213 2448 61 
Q 2172 -91 1784 -91 
Q 1150 -91 751 415 
Q 353 922 353 1747 
Q 353 2572 751 3078 
Q 1150 3584 1784 3584 
Q 2172 3584 2448 3432 
Q 2725 3281 2906 2969 
z
M 947 1747 
Q 947 1113 1208 752 
Q 1469 391 1925 391 
Q 2381 391 2643 752 
Q 2906 1113 2906 1747 
Q 2906 2381 2643 2742 
Q 2381 3103 1925 3103 
Q 1469 3103 1208 2742 
Q 947 2381 947 1747 
z
" transform="scale(0.015625)"/>
      </defs>
      <use xlink:href="#DejaVuSans-33" transform="translate(0 0.015625)"/>
      <use xlink:href="#DejaVuSans-2d" transform="translate(63.623047 0.015625)"/>
      <use xlink:href="#DejaVuSans-Oblique-3c3" transform="translate(99.707031 0.015625)"/>
      <use xlink:href="#DejaVuSans-20" transform="translate(163.085938 0.015625)"/>
      <use xlink:href="#DejaVuSans-75" transform="translate(194.873047 0.015625)"/>
      <use xlink:href="#DejaVuSans-6e" transform="translate(258.251953 0.015625)"/>
      <use xlink:href="#DejaVuSans-63" transform="translate(321.630859 0.015625)"/>
      <use xlink:href="#DejaVuSans-65" transform="translate(376.611328 0.015625)"/>
      <use xlink:href="#DejaVuSans-72" transform="translate(438.134766 0.015625)"/>
      <use xlink:href="#DejaVuSans-74" transform="translate(479.248047 0.015625)"/>
      <use xlink:href="#DejaVuSans-61" transform="translate(518.457031 0.015625)"/>
      <use xlink:href="#DejaVuSans-69" transform="translate(579.736328 0.015625)"/>
      <use xlink:href="#DejaVuSans-6e" transform="translate(607.519531 0.015625)"/>
      <use xlink:href="#DejaVuSans-74" transform="translate(670.898438 0.015625)"/>
      <use xlink:href="#DejaVuSans-79" transform="translate(710.107422 0.015625)"/>
      <use xlink:href="#DejaVuSans-20" transform="translate(769.287109 0.015625)"/>
      <use xlink:href="#DejaVuSans-62" transform="translate(801.074219 0.015625)"/>
      <use xlink:href="#DejaVuSans-61" transform="translate(864.550781 0.015625)"/>
      <use xlink:href="#DejaVuSans-6e" transform="translate(925.830078 0.015625)"/>
      <use xlink:href="#DejaVuSans-64" transform="translate(989.208984 0.015625)"/>
     </g>
    </g>
   </g>
  </g>
 </g>
 <defs>
  <clipPath id="p39f8597a29">
   <rect x="20.5625" y="7.2" width="357.12" height="266.112"/>
  </clipPath>
 </defs>
</svg>
